0
SECTION
2
HEADER
9
$INSUNITS
70
4
9
$ACADVER
1
AC1014
9
$HANDSEED
5
FFFF
0
ENDSEC
0
SECTION
2
TABLES
0
TABLE
2
VPORT
5
8
100
AcDbSymbolTable
0
ENDTAB
0
TABLE
2
LTYPE
5
5
100
AcDbSymbolTable
0
LTYPE
5
14
100
AcDbSymbolTableRecord
100
AcDbLinetypeTableRecord
2
BYBLOCK
70
0
0
LTYPE
5
15
100
AcDbSymbolTableRecord
100
AcDbLinetypeTableRecord
2
BYLAYER
70
0
0
ENDTAB
0
TABLE
2
LAYER
5
2
100
AcDbSymbolTable
70
2
0
LAYER
5
50
100
AcDbSymbolTableRecord
100
AcDbLayerTableRecord
2
0
70
0
6
CONTINUOUS
0
ENDTAB
0
TABLE
2
STYLE
5
3
100
AcDbSymbolTable
70
1
0
STYLE
5
11
100
AcDbSymbolTableRecord
100
AcDbTextStyleTableRecord
2
STANDARD
70
0
0
ENDTAB
0
TABLE
2
VIEW
5
6
100
AcDbSymbolTable
70
0
0
ENDTAB
0
TABLE
2
UCS
5
7
100
AcDbSymbolTable
70
0
0
ENDTAB
0
TABLE
2
APPID
5
9
100
AcDbSymbolTable
70
2
0
APPID
5
12
100
AcDbSymbolTableRecord
100
AcDbRegAppTableRecord
2
ACAD
70
0
0
ENDTAB
0
TABLE
2
DIMSTYLE
5
A
100
AcDbSymbolTable
70
1
0
ENDTAB
0
TABLE
2
BLOCK_RECORD
5
1
100
AcDbSymbolTable
70
1
0
BLOCK_RECORD
5
1F
100
AcDbSymbolTableRecord
100
AcDbBlockTableRecord
2
*MODEL_SPACE
0
BLOCK_RECORD
5
1B
100
AcDbSymbolTableRecord
100
AcDbBlockTableRecord
2
*PAPER_SPACE
0
ENDTAB
0
ENDSEC
0
SECTION
2
BLOCKS
0
BLOCK
5
20
100
AcDbEntity
100
AcDbBlockBegin
2
*MODEL_SPACE
0
ENDBLK
5
21
100
AcDbEntity
100
AcDbBlockEnd
0
BLOCK
5
1C
100
AcDbEntity
100
AcDbBlockBegin
2
*PAPER_SPACE
0
ENDBLK
5
1D
100
AcDbEntity
100
AcDbBlockEnd
0
ENDSEC
0
SECTION
2
ENTITIES
0
CIRCLE
5
100
100
AcDbEntity
8
0
100
AcDbCircle
10
-309.00000000000006
20
37.067995184785225
30
0
40
1.25
210
0
220
-0
230
1
0
CIRCLE
5
101
100
AcDbEntity
8
0
100
AcDbCircle
10
-74.009811249999984
20
-4.8751249999999935
30
0
40
1.25
210
0
220
-0
230
1
0
CIRCLE
5
102
100
AcDbEntity
8
0
100
AcDbCircle
10
-54.008529834920232
20
100.12465875000001
30
0
40
1.25
210
0
220
-0
230
1
0
CIRCLE
5
103
100
AcDbEntity
8
0
100
AcDbCircle
10
4.6501887500000194
20
37.068004950659308
30
0
40
1.25
210
0
220
-0
230
1
0
CIRCLE
5
104
100
AcDbEntity
8
0
100
AcDbCircle
10
-230.34000000000003
20
-4.8751249999999944
30
0
40
1.25
210
0
220
-0
230
1
0
CIRCLE
5
105
100
AcDbEntity
8
0
100
AcDbCircle
10
-218.99122016507974
20
100.12465875000001
30
0
40
1.25
210
0
220
-0
230
1
0
LWPOLYLINE
5
106
100
AcDbEntity
8
0
100
AcDbPolyline
90
20
70
1
43
0.0
10
6.6501887500000123
20
-8.8751249999999953
42
0.41421356237309598
10
8.6501887500000123
20
-6.8751249999999935
10
8.650188750000023
20
37.42035693092302
42
0.087414882830653975
10
8.5297742546425397
20
38.103846748504616
10
-9.5674338891723938
20
87.870864817581605
42
0.31537929056956149
10
-11.447019393814903
20
89.187375000000003
10
-47.992813190258808
20
89.187374999999975
42
-0.41369889336491122
10
-49.992810101419629
20
91.183859982616596
10
-50.012044857727517
20
102.1281737673834
42
0.41369889336491777
10
-52.012041768888338
20
104.12465875000001
10
-220.98770823111167
20
104.12465875000001
42
0.41369889336491383
10
-222.98770514227246
20
102.12817376738342
10
-223.00693989858036
20
91.18385998261661
42
-0.41369889336491122
10
-225.00693680974115
20
89.187375000000003
10
-292.90300037247948
20
89.187375000000003
42
0.31538033197008347
10
-294.78258846668444
20
87.870857696286464
10
-312.87958809420496
20
38.10382595498568
42
0.087413928404032115
10
-313.00000000000006
20
37.420343258699212
10
-313.00000000000006
20
-6.8751249999999908
42
0.41421356237309731
10
-311
20
-8.8751249999999988
0
CIRCLE
5
107
100
AcDbEntity
8
0
100
AcDbCircle
10
-309.5
20
-5.3751249999999917
30
0
40
1.25
210
0
220
-0
230
1
0
CIRCLE
5
108
100
AcDbEntity
8
0
100
AcDbCircle
10
-12.497658095140277
20
85.687375000000003
30
0
40
1.25
210
0
220
-0
230
1
0
CIRCLE
5
109
100
AcDbEntity
8
0
100
AcDbCircle
10
5.1501887499999555
20
-5.3751249999999962
30
0
40
1.25
210
0
220
-0
230
1
0
CIRCLE
5
110
100
AcDbEntity
8
0
100
AcDbCircle
10
-152.17490562500004
20
-5.3751249999999935
30
0
40
1.25
210
0
220
-0
230
1
0
CIRCLE
5
111
100
AcDbEntity
8
0
100
AcDbCircle
10
-291.85235743551959
20
85.687375000000003
30
0
40
1.25
210
0
220
-0
230
1
0
LWPOLYLINE
5
112
100
AcDbEntity
8
0
100
AcDbPolyline
90
10
70
1
43
0.0
10
-14.949148398232817
20
82.187375000000017
10
1.6501887500000167
20
36.539476980263743
10
1.650188750000019
20
-1.8751249999999953
10
-306.00000000000006
20
-1.8751249999999935
10
-306.00000000000006
20
36.539473073914053
10
-289.40085724927985
20
82.187375000000017
10
-216.02274051259764
20
82.187375000000017
10
-215.99648806603193
20
97.124658750000009
10
-57.003261933968083
20
97.124658750000009
10
-56.977009487402356
20
82.187375000000017
0
ENDSEC
0
SECTION
2
OBJECTS
0
DICTIONARY
5
C
100
AcDbDictionary
3
ACAD_GROUP
350
D
3
ACAD_MLINESTYLE
350
17
0
DICTIONARY
5
D
100
AcDbDictionary
0
DICTIONARY
5
1A
330
C
100
AcDbDictionary
0
DICTIONARY
5
17
100
AcDbDictionary
0
ENDSEC
0
EOF
