0
SECTION
2
HEADER
9
$INSUNITS
70
4
9
$ACADVER
1
AC1014
9
$HANDSEED
5
FFFF
0
ENDSEC
0
SECTION
2
TABLES
0
TABLE
2
VPORT
5
8
100
AcDbSymbolTable
0
ENDTAB
0
TABLE
2
LTYPE
5
5
100
AcDbSymbolTable
0
LTYPE
5
14
100
AcDbSymbolTableRecord
100
AcDbLinetypeTableRecord
2
BYBLOCK
70
0
0
LTYPE
5
15
100
AcDbSymbolTableRecord
100
AcDbLinetypeTableRecord
2
BYLAYER
70
0
0
ENDTAB
0
TABLE
2
LAYER
5
2
100
AcDbSymbolTable
70
2
0
LAYER
5
50
100
AcDbSymbolTableRecord
100
AcDbLayerTableRecord
2
0
70
0
6
CONTINUOUS
0
ENDTAB
0
TABLE
2
STYLE
5
3
100
AcDbSymbolTable
70
1
0
STYLE
5
11
100
AcDbSymbolTableRecord
100
AcDbTextStyleTableRecord
2
STANDARD
70
0
0
ENDTAB
0
TABLE
2
VIEW
5
6
100
AcDbSymbolTable
70
0
0
ENDTAB
0
TABLE
2
UCS
5
7
100
AcDbSymbolTable
70
0
0
ENDTAB
0
TABLE
2
APPID
5
9
100
AcDbSymbolTable
70
2
0
APPID
5
12
100
AcDbSymbolTableRecord
100
AcDbRegAppTableRecord
2
ACAD
70
0
0
ENDTAB
0
TABLE
2
DIMSTYLE
5
A
100
AcDbSymbolTable
70
1
0
ENDTAB
0
TABLE
2
BLOCK_RECORD
5
1
100
AcDbSymbolTable
70
1
0
BLOCK_RECORD
5
1F
100
AcDbSymbolTableRecord
100
AcDbBlockTableRecord
2
*MODEL_SPACE
0
BLOCK_RECORD
5
1B
100
AcDbSymbolTableRecord
100
AcDbBlockTableRecord
2
*PAPER_SPACE
0
ENDTAB
0
ENDSEC
0
SECTION
2
BLOCKS
0
BLOCK
5
20
100
AcDbEntity
100
AcDbBlockBegin
2
*MODEL_SPACE
0
ENDBLK
5
21
100
AcDbEntity
100
AcDbBlockEnd
0
BLOCK
5
1C
100
AcDbEntity
100
AcDbBlockBegin
2
*PAPER_SPACE
0
ENDBLK
5
1D
100
AcDbEntity
100
AcDbBlockEnd
0
ENDSEC
0
SECTION
2
ENTITIES
0
LWPOLYLINE
5
100
100
AcDbEntity
8
0
100
AcDbPolyline
90
16
70
1
43
0.0
10
-111.21875
20
83.225000000000051
42
0.41421356237309509
10
-111.71875
20
82.725000000000051
10
-111.71875
20
79.224999999999994
42
-0.41421356237310542
10
-112.21875
20
78.724999999999994
10
-113.21874999999999
20
78.72499999999998
42
-0.41421356237307944
10
-113.71875000000001
20
79.224999999999994
10
-113.71875000000001
20
92.224999999999994
42
-0.41421356237307422
10
-113.21875
20
92.725000000000009
10
-112.21875
20
92.725000000000009
42
-0.41421356237309509
10
-111.71875
20
92.224999999999994
10
-111.71875
20
88.725000000000051
42
0.41421356237309509
10
-111.21875
20
88.225000000000051
10
-104.21875
20
88.225000000000051
42
-0.41421356237309509
10
-103.71875
20
87.725000000000051
10
-103.71875
20
83.725000000000051
42
-0.41421356237309509
10
-104.21875
20
83.225000000000051
0
LWPOLYLINE
5
101
100
AcDbEntity
8
0
100
AcDbPolyline
90
20
70
1
43
0.0
10
6.6501887500000123
20
-8.8751249999999988
42
0.41421356237309537
10
8.6501887500000123
20
-6.8751249999999953
10
8.6501887500000052
20
37.420356930923013
42
0.087414882830654711
10
8.5297742546425273
20
38.103846748504601
10
-9.5674338891723885
20
87.870864817581605
42
0.3153792905695616
10
-11.447019393814903
20
89.187375000000003
10
-47.992813190258801
20
89.187374999999989
42
-0.41369889336490862
10
-49.992810101419622
20
91.183859982616596
10
-50.012044857727503
20
102.12817376738342
42
0.41369889336491517
10
-52.012041768888338
20
104.12465875000001
10
-220.9877082311117
20
104.12465875000001
42
0.41369889336492421
10
-222.98770514227249
20
102.1281737673834
10
-223.00693989858036
20
91.183859982616639
42
-0.41369889336491122
10
-225.00693680974115
20
89.187375000000031
10
-292.90300037247948
20
89.187375000000003
42
0.31538033197008414
10
-294.78258846668439
20
87.870857696286478
10
-312.87958809420496
20
38.103825954985659
42
0.08741392840403317
10
-313.00000000000006
20
37.420343258699191
10
-313.00000000000006
20
-6.8751249999999953
42
0.41421356237309409
10
-311.00000000000006
20
-8.8751249999999811
0
CIRCLE
5
102
100
AcDbEntity
8
0
100
AcDbCircle
10
-309.5
20
-5.3751249999999917
30
0
40
1.6000000000000003
210
0
220
-0
230
1
0
CIRCLE
5
103
100
AcDbEntity
8
0
100
AcDbCircle
10
-12.497658095140277
20
85.687375000000003
30
0
40
1.6000000000000003
210
0
220
-0
230
1
0
CIRCLE
5
104
100
AcDbEntity
8
0
100
AcDbCircle
10
5.1501887499999555
20
-5.3751249999999962
30
0
40
1.6000000000000003
210
0
220
-0
230
1
0
CIRCLE
5
105
100
AcDbEntity
8
0
100
AcDbCircle
10
-152.17490562500004
20
-5.3751249999999935
30
0
40
1.6000000000000003
210
0
220
-0
230
1
0
CIRCLE
5
106
100
AcDbEntity
8
0
100
AcDbCircle
10
-291.85235743551959
20
85.687375000000003
30
0
40
1.6000000000000003
210
0
220
-0
230
1
0
LWPOLYLINE
5
107
100
AcDbEntity
8
0
100
AcDbPolyline
90
8
70
1
43
0.0
10
-149.875
20
3.0249999999999999
42
0.41421356237309437
10
-149.375
20
2.5249999999999941
10
-136.375
20
2.5249999999999999
42
0.41421356237307422
10
-135.875
20
3.0249999999999999
10
-135.875
20
16.024999999999999
42
0.41421356237307549
10
-136.375
20
16.525000000000006
10
-149.375
20
16.525000000000002
42
0.41421356237310675
10
-149.875
20
16.024999999999999
0
LWPOLYLINE
5
108
100
AcDbEntity
8
0
100
AcDbPolyline
90
8
70
1
43
0.0
10
-284.44999999999999
20
2.5249999999999999
42
0.41421356237304624
10
-283.94999999999999
20
3.0249999999999999
10
-283.94999999999999
20
16.024999999999999
42
0.41421356237312362
10
-284.44999999999999
20
16.525000000000006
10
-285.45000000000005
20
16.525000000000002
42
0.41421356237304691
10
-285.95000000000005
20
16.024999999999999
10
-285.95000000000005
20
3.0249999999999999
42
0.41421356237310153
10
-285.45000000000005
20
2.5249999999999928
0
LWPOLYLINE
5
109
100
AcDbEntity
8
0
100
AcDbPolyline
90
8
70
1
43
0.0
10
-260.19999999999999
20
2.5249999999999999
42
0.41421356237307744
10
-259.69999999999993
20
3.0249999999999999
10
-259.69999999999999
20
16.024999999999999
42
0.414213562373134
10
-260.19999999999999
20
16.525000000000006
10
-273.19999999999999
20
16.525000000000002
42
0.41421356237304691
10
-273.69999999999999
20
16.024999999999999
10
-273.69999999999999
20
3.0249999999999999
42
0.41421356237310153
10
-273.19999999999999
20
2.5249999999999928
0
LWPOLYLINE
5
110
100
AcDbEntity
8
0
100
AcDbPolyline
90
8
70
1
43
0.0
10
-98.275000000000006
20
2.5249999999999999
42
0.41421356237310542
10
-97.774999999999977
20
3.0249999999999999
10
-97.775000000000006
20
16.024999999999999
42
0.41421356237309637
10
-98.275000000000006
20
16.525000000000002
10
-111.27500000000001
20
16.525000000000002
42
0.41421356237310675
10
-111.77500000000002
20
16.024999999999999
10
-111.77500000000002
20
3.0249999999999999
42
0.41421356237309437
10
-111.27500000000001
20
2.5249999999999928
0
LWPOLYLINE
5
111
100
AcDbEntity
8
0
100
AcDbPolyline
90
8
70
1
43
0.0
10
-174.47500000000002
20
2.5249999999999999
42
0.41421356237307744
10
-173.97499999999997
20
3.0249999999999999
10
-173.97500000000002
20
16.024999999999999
42
0.414213562373134
10
-174.47500000000002
20
16.525000000000006
10
-187.47499999999999
20
16.525000000000002
42
0.4142135623730781
10
-187.97499999999999
20
16.024999999999999
10
-187.97499999999999
20
3.0249999999999999
42
0.41421356237313273
10
-187.47499999999999
20
2.5249999999999999
0
LWPOLYLINE
5
112
100
AcDbEntity
8
0
100
AcDbPolyline
90
8
70
1
43
0.0
10
-155.42500000000001
20
2.5249999999999999
42
0.41421356237307422
10
-154.92500000000001
20
3.0249999999999999
10
-154.92500000000001
20
16.024999999999999
42
0.41421356237307549
10
-155.42500000000001
20
16.525000000000006
10
-168.42500000000001
20
16.525000000000002
42
0.41421356237304691
10
-168.92500000000001
20
16.024999999999999
10
-168.92500000000001
20
3.0249999999999999
42
0.41421356237310153
10
-168.42500000000001
20
2.5249999999999999
0
LWPOLYLINE
5
113
100
AcDbEntity
8
0
100
AcDbPolyline
90
8
70
1
43
0.0
10
-275.63800000000003
20
3.5250000000000008
42
0.41421356237304624
10
-275.13799999999998
20
4.0250000000000004
10
-275.13799999999998
20
18.024999999999999
42
0.41421356237312235
10
-275.63800000000003
20
18.525000000000006
10
-281.63799999999998
20
18.524999999999999
42
0.4142135623730781
10
-282.13799999999998
20
18.024999999999999
10
-282.13799999999998
20
4.0250000000000004
42
0.41421356237313273
10
-281.63799999999998
20
3.5250000000000008
0
LWPOLYLINE
5
114
100
AcDbEntity
8
0
100
AcDbPolyline
90
8
70
1
43
0.0
10
-212.57499999999999
20
2.5249999999999999
42
0.41421356237304624
10
-212.07499999999999
20
3.0249999999999999
10
-212.07499999999999
20
16.024999999999999
42
0.41421356237312362
10
-212.57499999999999
20
16.525000000000002
10
-225.57500000000002
20
16.525000000000002
42
0.4142135623730781
10
-226.07500000000002
20
16.024999999999999
10
-226.07500000000002
20
3.0249999999999999
42
0.41421356237313273
10
-225.57500000000002
20
2.5249999999999999
0
LWPOLYLINE
5
115
100
AcDbEntity
8
0
100
AcDbPolyline
90
8
70
1
43
0.0
10
-249.44999999999999
20
3.0249999999999999
42
0.41421356237313273
10
-248.94999999999999
20
2.5249999999999995
10
-247.95000000000002
20
2.5249999999999999
42
0.41421356237304624
10
-247.45000000000002
20
3.0249999999999999
10
-247.45000000000002
20
16.024999999999999
42
0.41421356237312362
10
-247.95000000000002
20
16.525000000000006
10
-248.94999999999999
20
16.525000000000002
42
0.4142135623730781
10
-249.44999999999999
20
16.024999999999999
0
LWPOLYLINE
5
116
100
AcDbEntity
8
0
100
AcDbPolyline
90
8
70
1
43
0.0
10
-288.77499999999998
20
2.5249999999999999
42
0.41421356237304624
10
-288.27499999999998
20
3.0249999999999999
10
-288.27499999999998
20
16.024999999999999
42
0.41421356237312362
10
-288.77499999999998
20
16.525000000000002
10
-301.77499999999998
20
16.525000000000002
42
0.4142135623730781
10
-302.27499999999998
20
16.024999999999999
10
-302.27499999999998
20
3.0249999999999999
42
0.41421356237313273
10
-301.77499999999998
20
2.5249999999999999
0
LWPOLYLINE
5
117
100
AcDbEntity
8
0
100
AcDbPolyline
90
8
70
1
43
0.0
10
-3.0249999999999999
20
2.5249999999999999
42
0.41421356237309437
10
-2.5249999999999999
20
3.0249999999999999
10
-2.5249999999999999
20
16.024999999999999
42
0.41421356237309598
10
-3.0250000000000021
20
16.525000000000002
10
-16.024999999999999
20
16.525000000000002
42
0.41421356237309243
10
-16.524999999999999
20
16.024999999999999
10
-16.525000000000002
20
3.0249999999999999
42
0.41421356237309825
10
-16.024999999999991
20
2.5249999999999999
0
LWPOLYLINE
5
118
100
AcDbEntity
8
0
100
AcDbPolyline
90
8
70
1
43
0.0
10
-41.125
20
2.5249999999999999
42
0.41421356237309409
10
-40.625
20
3.0249999999999999
10
-40.625
20
16.024999999999999
42
0.4142135623731002
10
-41.125000000000007
20
16.524999999999999
10
-54.125000000000007
20
16.525000000000002
42
0.4142135623730937
10
-54.625
20
16.024999999999999
10
-54.625
20
3.0249999999999999
42
0.41421356237308915
10
-54.125000000000014
20
2.5249999999999999
0
LWPOLYLINE
5
119
100
AcDbEntity
8
0
100
AcDbPolyline
90
8
70
1
43
0.0
10
-79.224999999999994
20
2.5249999999999999
42
0.4142135623730967
10
-78.724999999999994
20
3.0249999999999999
10
-78.724999999999994
20
16.024999999999999
42
0.4142135623730977
10
-79.224999999999994
20
16.524999999999999
10
-92.224999999999994
20
16.525000000000002
42
0.41421356237310675
10
-92.725000000000009
20
16.024999999999999
10
-92.725000000000009
20
3.0249999999999999
42
0.41421356237309437
10
-92.224999999999994
20
2.5249999999999999
0
LWPOLYLINE
5
120
100
AcDbEntity
8
0
100
AcDbPolyline
90
8
70
1
43
0.0
10
-207.02500000000003
20
3.0249999999999999
42
0.41421356237310153
10
-206.52500000000003
20
2.5249999999999817
10
-193.52500000000003
20
2.5249999999999999
42
0.41421356237307744
10
-193.02500000000003
20
3.0249999999999999
10
-193.02500000000003
20
16.024999999999999
42
0.414213562373134
10
-193.52500000000003
20
16.525000000000002
10
-206.52500000000003
20
16.525000000000002
42
0.41421356237304691
10
-207.02500000000003
20
16.024999999999999
0
LWPOLYLINE
5
121
100
AcDbEntity
8
0
100
AcDbPolyline
90
8
70
1
43
0.0
10
-60.174999999999997
20
2.5249999999999999
42
0.4142135623730967
10
-59.675000000000004
20
3.0249999999999999
10
-59.675000000000004
20
16.024999999999999
42
0.4142135623730977
10
-60.174999999999997
20
16.525000000000002
10
-73.174999999999997
20
16.525000000000002
42
0.4142135623730937
10
-73.674999999999997
20
16.024999999999999
10
-73.674999999999997
20
3.0249999999999999
42
0.41421356237309437
10
-73.174999999999997
20
2.5250000000000017
0
LWPOLYLINE
5
122
100
AcDbEntity
8
0
100
AcDbPolyline
90
8
70
1
43
0.0
10
-258.26200000000006
20
4.0250000000000004
42
0.41421356237310153
10
-257.76200000000006
20
3.5249999999999826
10
-251.762
20
3.5250000000000008
42
0.41421356237304624
10
-251.262
20
4.0250000000000004
10
-251.262
20
18.024999999999999
42
0.41421356237312235
10
-251.762
20
18.524999999999999
10
-257.76200000000006
20
18.524999999999999
42
0.41421356237304691
10
-258.26200000000006
20
18.024999999999999
0
LWPOLYLINE
5
123
100
AcDbEntity
8
0
100
AcDbPolyline
90
8
70
1
43
0.0
10
-130.82499999999999
20
3.0249999999999999
42
0.41421356237309437
10
-130.32499999999999
20
2.5249999999999941
10
-117.32500000000002
20
2.5249999999999999
42
0.41421356237310542
10
-116.82500000000002
20
3.0249999999999999
10
-116.82500000000002
20
16.024999999999999
42
0.41421356237309637
10
-117.32500000000002
20
16.525000000000006
10
-130.32499999999999
20
16.525000000000002
42
0.41421356237310675
10
-130.82499999999999
20
16.024999999999999
0
LWPOLYLINE
5
124
100
AcDbEntity
8
0
100
AcDbPolyline
90
8
70
1
43
0.0
10
-68.912499999999994
20
60.174999999999997
42
0.41421356237309509
10
-68.412499999999994
20
59.675000000000004
10
-55.412500000000009
20
59.675000000000004
42
0.41421356237309509
10
-54.912500000000009
20
60.174999999999997
10
-54.912500000000009
20
73.174999999999997
42
0.4142135623731002
10
-55.412500000000016
20
73.674999999999997
10
-68.412499999999994
20
73.674999999999997
42
0.41421356237309509
10
-68.912499999999994
20
73.174999999999997
0
LWPOLYLINE
5
125
100
AcDbEntity
8
0
100
AcDbPolyline
90
8
70
1
43
0.0
10
-26.837499999999999
20
21.575000000000003
42
0.41421356237309509
10
-26.337499999999999
20
22.074999999999999
10
-26.337499999999999
20
35.075000000000003
42
0.41421356237309509
10
-26.837499999999999
20
35.575000000000003
10
-39.837499999999999
20
35.575000000000003
42
0.41421356237311319
10
-40.337500000000013
20
35.075000000000003
10
-40.337500000000006
20
22.074999999999999
42
0.41421356237310542
10
-39.837500000000006
20
21.574999999999996
0
LWPOLYLINE
5
126
100
AcDbEntity
8
0
100
AcDbPolyline
90
8
70
1
43
0.0
10
-178.44999999999999
20
41.125
42
0.41421356237313145
10
-177.94999999999999
20
40.625
10
-164.95000000000002
20
40.625
42
0.41421356237307422
10
-164.44999999999999
20
41.125
10
-164.44999999999999
20
54.125000000000007
42
0.41421356237313145
10
-164.95000000000002
20
54.625000000000014
10
-177.94999999999999
20
54.625
42
0.41421356237307422
10
-178.44999999999999
20
54.125000000000007
0
LWPOLYLINE
5
127
100
AcDbEntity
8
0
100
AcDbPolyline
90
8
70
1
43
0.0
10
-83.987499999999997
20
21.575000000000003
42
0.41421356237310802
10
-83.487499999999983
20
22.074999999999999
10
-83.487499999999983
20
35.075000000000003
42
0.41421356237309243
10
-83.987499999999997
20
35.575000000000003
10
-96.987500000000011
20
35.575000000000003
42
0.41421356237310542
10
-97.487500000000011
20
35.075000000000003
10
-97.487500000000011
20
22.074999999999999
42
0.41421356237309509
10
-96.987500000000011
20
21.574999999999992
0
LWPOLYLINE
5
128
100
AcDbEntity
8
0
100
AcDbPolyline
90
8
70
1
43
0.0
10
-122.08750000000002
20
21.575000000000003
42
0.41421356237310802
10
-121.58750000000001
20
22.074999999999999
10
-121.58750000000001
20
35.075000000000003
42
0.41421356237309243
10
-122.08750000000002
20
35.57500000000001
10
-135.08750000000001
20
35.575000000000003
42
0.4142135623731002
10
-135.58750000000001
20
35.075000000000003
10
-135.58750000000001
20
22.074999999999999
42
0.41421356237307422
10
-135.08750000000001
20
21.575000000000003
0
LWPOLYLINE
5
129
100
AcDbEntity
8
0
100
AcDbPolyline
90
8
70
1
43
0.0
10
-64.9375
20
21.575000000000003
42
0.4142135623730977
10
-64.437500000000014
20
22.074999999999999
10
-64.4375
20
35.075000000000003
42
0.4142135623730977
10
-64.9375
20
35.575000000000003
10
-77.9375
20
35.575000000000003
42
0.41421356237309509
10
-78.4375
20
35.075000000000003
10
-78.4375
20
22.074999999999999
42
0.41421356237309509
10
-77.9375
20
21.575000000000003
0
LWPOLYLINE
5
130
100
AcDbEntity
8
0
100
AcDbPolyline
90
8
70
1
43
0.0
10
-184.00000000000003
20
40.625
42
0.41421356237307422
10
-183.49999999999997
20
41.125
10
-183.5
20
54.125000000000007
42
0.41421356237313145
10
-184.00000000000003
20
54.625000000000014
10
-197.00000000000003
20
54.625
42
0.4142135623730222
10
-197.50000000000003
20
54.125000000000007
10
-197.50000000000003
20
41.125
42
0.41421356237312101
10
-197.00000000000003
20
40.624999999999993
0
LWPOLYLINE
5
131
100
AcDbEntity
8
0
100
AcDbPolyline
90
8
70
1
43
0.0
10
-73.962500000000006
20
73.174999999999997
10
-73.962500000000006
20
60.174999999999997
42
-0.41421356237310542
10
-74.462500000000006
20
59.675000000000004
10
-87.462500000000006
20
59.674999999999983
42
-0.41421356237307944
10
-87.96250000000002
20
60.174999999999997
10
-87.962500000000006
20
73.174999999999997
42
-0.4142135623731002
10
-87.46250000000002
20
73.674999999999997
10
-74.462500000000006
20
73.674999999999997
42
-0.41421356237309509
0
LWPOLYLINE
5
132
100
AcDbEntity
8
0
100
AcDbPolyline
90
8
70
1
43
0.0
10
-141.13749999999999
20
21.575000000000003
42
0.41421356237310802
10
-140.63749999999999
20
22.074999999999999
10
-140.63749999999999
20
35.075000000000003
42
0.41421356237309243
10
-141.13749999999999
20
35.575000000000003
10
-154.13749999999999
20
35.575000000000003
42
0.41421356237310542
10
-154.63750000000002
20
35.075000000000003
10
-154.63750000000002
20
22.074999999999999
42
0.41421356237309509
10
-154.13749999999999
20
21.575000000000003
0
LWPOLYLINE
5
133
100
AcDbEntity
8
0
100
AcDbPolyline
90
8
70
1
43
0.0
10
-245.12500000000003
20
3.0249999999999999
42
0.41421356237313273
10
-244.62500000000003
20
2.5249999999999995
10
-231.625
20
2.5249999999999999
42
0.41421356237304624
10
-231.125
20
3.0249999999999999
10
-231.125
20
16.024999999999999
42
0.41421356237312362
10
-231.625
20
16.525000000000006
10
-244.62500000000003
20
16.525000000000002
42
0.4142135623730781
10
-245.12500000000003
20
16.024999999999999
0
LWPOLYLINE
5
134
100
AcDbEntity
8
0
100
AcDbPolyline
90
8
70
1
43
0.0
10
-36.362499999999997
20
59.675000000000004
42
0.4142135623730977
10
-35.862499999999997
20
60.174999999999997
10
-35.862500000000004
20
73.174999999999997
42
0.4142135623730977
10
-36.362500000000004
20
73.674999999999997
10
-49.362500000000004
20
73.674999999999997
42
0.41421356237309509
10
-49.862499999999997
20
73.174999999999997
10
-49.862499999999997
20
60.174999999999997
42
0.41421356237308982
10
-49.362500000000011
20
59.675000000000004
0
LWPOLYLINE
5
135
100
AcDbEntity
8
0
100
AcDbPolyline
90
8
70
1
43
0.0
10
-21.575000000000006
20
16.024999999999999
10
-21.575000000000003
20
3.0249999999999999
42
-0.41421356237309537
10
-22.074999999999999
20
2.5249999999999999
10
-35.075000000000003
20
2.5250000000000004
42
-0.4142135623730957
10
-35.575000000000003
20
3.0249999999999999
10
-35.575000000000003
20
16.024999999999999
42
-0.41421356237309509
10
-35.075000000000003
20
16.525000000000002
10
-22.074999999999996
20
16.524999999999995
42
-0.4142135623730937
0
LWPOLYLINE
5
136
100
AcDbEntity
8
0
100
AcDbPolyline
90
8
70
1
43
0.0
10
-45.387500000000003
20
35.075000000000003
10
-45.387500000000003
20
22.074999999999999
42
-0.41421356237309509
10
-45.887500000000003
20
21.575000000000003
10
-58.887500000000017
20
21.575000000000003
42
-0.41421356237308982
10
-59.387500000000003
20
22.074999999999999
10
-59.387500000000003
20
35.075000000000003
42
-0.41421356237309509
10
-58.88750000000001
20
35.575000000000003
10
-45.88750000000001
20
35.575000000000003
42
-0.4142135623731002
0
LWPOLYLINE
5
137
100
AcDbEntity
8
0
100
AcDbPolyline
90
8
70
1
43
0.0
10
-198.28749999999999
20
21.575000000000003
42
0.41421356237305079
10
-197.78749999999999
20
22.074999999999999
10
-197.78749999999999
20
35.075000000000003
42
0.4142135623731002
10
-198.28749999999999
20
35.575000000000003
10
-211.28749999999999
20
35.575000000000003
42
0.41421356237307683
10
-211.78750000000002
20
35.075000000000003
10
-211.78750000000002
20
22.074999999999999
42
0.414213562373134
10
-211.28749999999999
20
21.575000000000003
0
LWPOLYLINE
5
138
100
AcDbEntity
8
0
100
AcDbPolyline
90
8
70
1
43
0.0
10
-217.33750000000001
20
21.575000000000003
42
0.41421356237305079
10
-216.83750000000001
20
22.074999999999999
10
-216.83750000000001
20
35.075000000000003
42
0.4142135623731002
10
-217.33750000000001
20
35.57500000000001
10
-230.33750000000001
20
35.575000000000003
42
0.41421356237307683
10
-230.83750000000003
20
35.075000000000003
10
-230.83750000000003
20
22.074999999999999
42
0.414213562373134
10
-230.33750000000001
20
21.574999999999992
0
LWPOLYLINE
5
139
100
AcDbEntity
8
0
100
AcDbPolyline
90
8
70
1
43
0.0
10
-274.99425000000008
20
42.125
42
0.41421356237312629
10
-274.49425000000008
20
41.625000000000014
10
-268.49425000000002
20
41.625000000000007
42
0.4142135623730222
10
-267.99425000000002
20
42.125
10
-267.99425000000002
20
56.125000000000007
42
0.41421356237312629
10
-268.49425000000002
20
56.625000000000007
10
-274.49425000000008
20
56.625000000000007
42
0.4142135623730222
10
-274.99425000000008
20
56.125000000000007
0
LWPOLYLINE
5
140
100
AcDbEntity
8
0
100
AcDbPolyline
90
8
70
1
43
0.0
10
-203.05000000000004
20
40.625
42
0.41421356237307422
10
-202.54999999999998
20
41.125
10
-202.55000000000001
20
54.125000000000007
42
0.41421356237313145
10
-203.05000000000004
20
54.625
10
-216.05000000000004
20
54.625
42
0.4142135623730222
10
-216.55000000000004
20
54.125000000000007
10
-216.55000000000004
20
41.125
42
0.41421356237312101
10
-216.05000000000004
20
40.625
0
LWPOLYLINE
5
141
100
AcDbEntity
8
0
100
AcDbPolyline
90
8
70
1
43
0.0
10
-122.03075
20
91.725000000000009
42
0.4142135623730534
10
-122.53075000000001
20
91.225000000000009
10
-122.53075000000001
20
77.224999999999994
42
0.41421356237307944
10
-122.03075
20
76.724999999999994
10
-116.03075000000001
20
76.725000000000009
42
0.41421356237310542
10
-115.53075
20
77.224999999999994
10
-115.53075
20
91.225000000000009
42
0.41421356237307422
10
-116.03075000000001
20
91.725000000000009
0
LWPOLYLINE
5
142
100
AcDbEntity
8
0
100
AcDbPolyline
90
8
70
1
43
0.0
10
-253.05625000000003
20
40.625
42
0.41421356237307422
10
-252.55624999999998
20
41.125
10
-252.55625000000003
20
54.125000000000007
42
0.41421356237313145
10
-253.05625000000003
20
54.625000000000014
10
-266.05624999999998
20
54.625
42
0.41421356237307422
10
-266.55624999999998
20
54.125000000000007
10
-266.55624999999998
20
41.125
42
0.41421356237313145
10
-266.05624999999998
20
40.624999999999993
0
LWPOLYLINE
5
143
100
AcDbEntity
8
0
100
AcDbPolyline
90
8
70
1
43
0.0
10
-131.61250000000001
20
59.675000000000004
42
0.41421356237310542
10
-131.11250000000001
20
60.174999999999997
10
-131.11250000000001
20
73.174999999999997
42
0.41421356237309509
10
-131.61250000000001
20
73.674999999999997
10
-144.61250000000001
20
73.674999999999997
42
0.4142135623731002
10
-145.11250000000001
20
73.174999999999997
10
-145.11250000000001
20
60.174999999999997
42
0.41421356237307944
10
-144.61250000000001
20
59.675000000000004
0
LWPOLYLINE
5
144
100
AcDbEntity
8
0
100
AcDbPolyline
90
8
70
1
43
0.0
10
-169.71250000000001
20
59.675000000000004
42
0.41421356237307422
10
-169.21249999999998
20
60.174999999999997
10
-169.21250000000001
20
73.174999999999997
42
0.41421356237313145
10
-169.71250000000001
20
73.674999999999997
10
-182.71250000000003
20
73.674999999999997
42
0.4142135623730222
10
-183.21250000000003
20
73.174999999999997
10
-183.21250000000003
20
60.174999999999997
42
0.41421356237312629
10
-182.71250000000003
20
59.675000000000004
0
LWPOLYLINE
5
145
100
AcDbEntity
8
0
100
AcDbPolyline
90
8
70
1
43
0.0
10
-103.03750000000001
20
21.575000000000003
42
0.41421356237310802
10
-102.53749999999999
20
22.074999999999999
10
-102.53749999999999
20
35.075000000000003
42
0.41421356237309243
10
-103.03750000000001
20
35.575000000000003
10
-116.03749999999999
20
35.575000000000003
42
0.4142135623731002
10
-116.53750000000001
20
35.075000000000003
10
-116.53750000000001
20
22.074999999999999
42
0.41421356237307422
10
-116.03749999999999
20
21.574999999999992
0
LWPOLYLINE
5
146
100
AcDbEntity
8
0
100
AcDbPolyline
90
8
70
1
43
0.0
10
-222.10000000000002
20
40.625
42
0.4142135623730222
10
-221.60000000000002
20
41.125
10
-221.59999999999999
20
54.125000000000007
42
0.41421356237312101
10
-222.10000000000002
20
54.625
10
-235.10000000000002
20
54.625
42
0.41421356237307422
10
-235.60000000000002
20
54.125000000000007
10
-235.60000000000002
20
41.125
42
0.41421356237313145
10
-235.10000000000002
20
40.625
0
LWPOLYLINE
5
147
100
AcDbEntity
8
0
100
AcDbPolyline
90
8
70
1
43
0.0
10
-255.45000000000002
20
21.575000000000003
42
0.41421356237305079
10
-254.95000000000002
20
22.074999999999999
10
-254.95000000000002
20
35.075000000000003
42
0.4142135623731002
10
-255.45000000000002
20
35.57500000000001
10
-256.44999999999999
20
35.575000000000003
42
0.41421356237307683
10
-256.94999999999999
20
35.075000000000003
10
-256.94999999999999
20
22.074999999999999
42
0.414213562373134
10
-256.44999999999999
20
21.574999999999992
0
LWPOLYLINE
5
148
100
AcDbEntity
8
0
100
AcDbPolyline
90
8
70
1
43
0.0
10
-12.550000000000001
20
40.625
42
0.41421356237309509
10
-12.050000000000002
20
41.125
10
-12.050000000000001
20
54.125000000000007
42
0.4142135623730977
10
-12.550000000000008
20
54.625
10
-25.550000000000001
20
54.625
42
0.41421356237309509
10
-26.050000000000004
20
54.125000000000007
10
-26.050000000000001
20
41.125
42
0.4142135623730977
10
-25.549999999999997
20
40.625
0
LWPOLYLINE
5
149
100
AcDbEntity
8
0
100
AcDbPolyline
90
8
70
1
43
0.0
10
-218.57500000000002
20
40.625
42
0.4142135623730222
10
-218.07500000000005
20
41.125
10
-218.07500000000002
20
54.125000000000007
42
0.41421356237312101
10
-218.57500000000002
20
54.625000000000014
10
-219.57499999999999
20
54.625
42
0.41421356237307422
10
-220.07499999999999
20
54.125000000000007
10
-220.07499999999999
20
41.125
42
0.41421356237313145
10
-219.57499999999999
20
40.624999999999993
0
LWPOLYLINE
5
150
100
AcDbEntity
8
0
100
AcDbPolyline
90
8
70
1
43
0.0
10
-276.94999999999999
20
21.575000000000003
42
0.41421356237305079
10
-276.44999999999999
20
22.074999999999999
10
-276.44999999999999
20
35.075000000000003
42
0.4142135623731002
10
-276.94999999999999
20
35.575000000000003
10
-277.95000000000005
20
35.575000000000003
42
0.41421356237304557
10
-278.45000000000005
20
35.075000000000003
10
-278.45000000000005
20
22.074999999999999
42
0.41421356237310281
10
-277.95000000000005
20
21.574999999999992
0
LWPOLYLINE
5
151
100
AcDbEntity
8
0
100
AcDbPolyline
90
8
70
1
43
0.0
10
-236.38750000000002
20
21.575000000000003
42
0.41421356237305079
10
-235.88750000000002
20
22.074999999999999
10
-235.88750000000002
20
35.075000000000003
42
0.4142135623731002
10
-236.38750000000002
20
35.57500000000001
10
-249.38749999999999
20
35.575000000000003
42
0.41421356237304557
10
-249.88749999999999
20
35.075000000000003
10
-249.88749999999999
20
22.074999999999999
42
0.41421356237310281
10
-249.38749999999999
20
21.574999999999992
0
LWPOLYLINE
5
152
100
AcDbEntity
8
0
100
AcDbPolyline
90
8
70
1
43
0.0
10
-204.28750000000002
20
59.675000000000004
42
0.4142135623730222
10
-203.78750000000002
20
60.174999999999997
10
-203.78749999999999
20
73.175000000000011
42
0.41421356237312629
10
-204.28750000000002
20
73.675000000000011
10
-205.28749999999999
20
73.675000000000011
42
0.41421356237307422
10
-205.78749999999999
20
73.175000000000011
10
-205.78749999999999
20
60.174999999999997
42
0.41421356237313667
10
-205.28749999999999
20
59.674999999999997
0
LWPOLYLINE
5
153
100
AcDbEntity
8
0
100
AcDbPolyline
90
8
70
1
43
0.0
10
-269.28125
20
60.174999999999997
42
0.41421356237313667
10
-268.78125
20
59.674999999999997
10
-267.78125
20
59.675000000000004
42
0.4142135623730222
10
-267.28125
20
60.174999999999997
10
-267.28125
20
73.174999999999997
42
0.41421356237312101
10
-267.78125
20
73.674999999999997
10
-268.78125
20
73.674999999999997
42
0.41421356237307422
10
-269.28125
20
73.174999999999997
0
LWPOLYLINE
5
154
100
AcDbEntity
8
0
100
AcDbPolyline
90
8
70
1
43
0.0
10
-150.66249999999999
20
59.675000000000004
42
0.41421356237310542
10
-150.16249999999999
20
60.174999999999997
10
-150.16249999999999
20
73.174999999999997
42
0.41421356237309509
10
-150.66249999999999
20
73.675000000000011
10
-163.66250000000002
20
73.674999999999997
42
0.4142135623730222
10
-164.16250000000002
20
73.174999999999997
10
-164.16250000000002
20
60.174999999999997
42
0.41421356237312629
10
-163.66250000000002
20
59.674999999999997
0
LWPOLYLINE
5
155
100
AcDbEntity
8
0
100
AcDbPolyline
90
8
70
1
43
0.0
10
-258.96924999999999
20
60.674999999999997
42
0.41421356237307422
10
-258.46924999999993
20
61.174999999999997
10
-258.46924999999999
20
75.174999999999997
42
0.41421356237313667
10
-258.96924999999999
20
75.675000000000011
10
-264.96924999999999
20
75.674999999999997
42
0.41421356237307422
10
-265.46924999999999
20
75.174999999999997
10
-265.46924999999999
20
61.174999999999997
42
0.41421356237313667
10
-264.96924999999999
20
60.674999999999997
0
LWPOLYLINE
5
156
100
AcDbEntity
8
0
100
AcDbPolyline
90
8
70
1
43
0.0
10
-160.1875
20
78.724999999999994
42
0.41421356237309509
10
-159.6875
20
79.224999999999994
10
-159.6875
20
92.224999999999994
42
0.41421356237309509
10
-160.1875
20
92.725000000000009
10
-173.1875
20
92.725000000000009
42
0.41421356237310542
10
-173.68750000000003
20
92.224999999999994
10
-173.68750000000003
20
79.224999999999994
42
0.41421356237312629
10
-173.1875
20
78.724999999999994
0
LWPOLYLINE
5
157
100
AcDbEntity
8
0
100
AcDbPolyline
90
8
70
1
43
0.0
10
-160.1875
20
21.575000000000003
42
0.41421356237311846
10
-159.68749999999997
20
22.074999999999999
10
-159.6875
20
35.075000000000003
42
0.41421356237309243
10
-160.1875
20
35.575000000000003
10
-173.1875
20
35.575000000000003
42
0.41421356237304557
10
-173.68750000000003
20
35.075000000000003
10
-173.68750000000003
20
22.074999999999999
42
0.41421356237310281
10
-173.1875
20
21.574999999999992
0
LWPOLYLINE
5
158
100
AcDbEntity
8
0
100
AcDbPolyline
90
8
70
1
43
0.0
10
-179.23750000000001
20
21.575000000000003
42
0.41421356237308204
10
-178.73750000000001
20
22.074999999999999
10
-178.73750000000001
20
35.075000000000003
42
0.41421356237313145
10
-179.23750000000001
20
35.575000000000003
10
-192.23750000000001
20
35.575000000000003
42
0.41421356237304557
10
-192.73750000000004
20
35.075000000000003
10
-192.73750000000004
20
22.074999999999999
42
0.41421356237310281
10
-192.23750000000001
20
21.574999999999992
0
LWPOLYLINE
5
159
100
AcDbEntity
8
0
100
AcDbPolyline
90
8
70
1
43
0.0
10
-7.7875000000000005
20
21.575000000000003
42
0.4142135623730937
10
-7.2874999999999996
20
22.074999999999996
10
-7.2874999999999996
20
35.075000000000003
42
0.4142135623730977
10
-7.787500000000005
20
35.575000000000003
10
-20.787500000000001
20
35.575000000000003
42
0.41421356237309509
10
-21.287500000000001
20
35.075000000000003
10
-21.287500000000001
20
22.074999999999999
42
0.4142135623731002
10
-20.787499999999994
20
21.575000000000003
0
LWPOLYLINE
5
160
100
AcDbEntity
8
0
100
AcDbPolyline
90
8
70
1
43
0.0
10
-83.200000000000017
20
41.125
42
0.41421356237307422
10
-82.700000000000017
20
40.624999999999993
10
-69.700000000000003
20
40.625
42
0.41421356237309509
10
-69.200000000000017
20
41.125
10
-69.200000000000003
20
54.125000000000007
42
0.41421356237309509
10
-69.700000000000003
20
54.625
10
-82.700000000000017
20
54.625
42
0.4142135623731002
10
-83.200000000000003
20
54.125000000000007
0
LWPOLYLINE
5
161
100
AcDbEntity
8
0
100
AcDbPolyline
90
8
70
1
43
0.0
10
-93.512500000000003
20
59.675000000000004
42
0.41421356237310542
10
-93.012499999999989
20
60.174999999999997
10
-93.012499999999989
20
73.174999999999997
42
0.41421356237309509
10
-93.512500000000003
20
73.674999999999997
10
-106.51250000000002
20
73.674999999999997
42
0.41421356237308982
10
-107.01250000000002
20
73.174999999999997
10
-107.01250000000002
20
60.174999999999997
42
0.4142135623731002
10
-106.51250000000002
20
59.674999999999997
0
LWPOLYLINE
5
162
100
AcDbEntity
8
0
100
AcDbPolyline
90
8
70
1
43
0.0
10
-88.75
20
40.625
42
0.41421356237308982
10
-88.25
20
41.125
10
-88.25
20
54.125000000000007
42
0.41421356237309509
10
-88.75
20
54.625000000000014
10
-101.75
20
54.625
42
0.41421356237308982
10
-102.25000000000001
20
54.125000000000007
10
-102.25000000000001
20
41.125
42
0.41421356237309509
10
-101.75
20
40.624999999999993
0
LWPOLYLINE
5
163
100
AcDbEntity
8
0
100
AcDbPolyline
90
8
70
1
43
0.0
10
-126.85000000000001
20
40.625
42
0.4142135623731002
10
-126.35000000000002
20
41.125
10
-126.34999999999999
20
54.125000000000007
42
0.41421356237307422
10
-126.85000000000001
20
54.625000000000014
10
-139.84999999999999
20
54.625
42
0.41421356237308982
10
-140.34999999999999
20
54.125000000000007
10
-140.34999999999999
20
41.125
42
0.41421356237309509
10
-139.84999999999999
20
40.624999999999993
0
LWPOLYLINE
5
164
100
AcDbEntity
8
0
100
AcDbPolyline
90
8
70
1
43
0.0
10
-145.90000000000001
20
40.625
42
0.4142135623731002
10
-145.40000000000003
20
41.125
10
-145.40000000000001
20
54.125000000000007
42
0.41421356237307422
10
-145.90000000000001
20
54.625
10
-158.90000000000001
20
54.625
42
0.41421356237308982
10
-159.40000000000001
20
54.125000000000007
10
-159.40000000000001
20
41.125
42
0.41421356237309509
10
-158.90000000000001
20
40.625
0
LWPOLYLINE
5
165
100
AcDbEntity
8
0
100
AcDbPolyline
90
8
70
1
43
0.0
10
-121.30000000000001
20
41.125
42
0.41421356237307422
10
-120.8
20
40.624999999999993
10
-107.80000000000001
20
40.625
42
0.41421356237308982
10
-107.30000000000001
20
41.125
10
-107.30000000000001
20
54.125000000000007
42
0.41421356237309509
10
-107.80000000000001
20
54.625000000000014
10
-120.8
20
54.625
42
0.4142135623731002
10
-121.29999999999998
20
54.125000000000007
0
LWPOLYLINE
5
166
100
AcDbEntity
8
0
100
AcDbPolyline
90
8
70
1
43
0.0
10
-260.19999999999999
20
21.575000000000003
42
0.41421356237308204
10
-259.69999999999999
20
22.074999999999999
10
-259.69999999999999
20
35.075000000000003
42
0.41421356237313145
10
-260.19999999999999
20
35.57500000000001
10
-273.19999999999999
20
35.575000000000003
42
0.41421356237304557
10
-273.69999999999999
20
35.075000000000003
10
-273.69999999999999
20
22.074999999999999
42
0.41421356237310281
10
-273.19999999999999
20
21.575000000000003
0
LWPOLYLINE
5
167
100
AcDbEntity
8
0
100
AcDbPolyline
90
8
70
1
43
0.0
10
-235.09325000000004
20
60.674999999999997
42
0.4142135623730222
10
-234.59325000000007
20
61.174999999999997
10
-234.59325000000004
20
75.174999999999997
42
0.41421356237312629
10
-235.09325000000004
20
75.675000000000011
10
-241.09325000000001
20
75.674999999999997
42
0.41421356237307422
10
-241.59325000000001
20
75.174999999999997
10
-241.59325000000001
20
61.174999999999997
42
0.41421356237313667
10
-241.09325000000001
20
60.67499999999999
0
LWPOLYLINE
5
168
100
AcDbEntity
8
0
100
AcDbPolyline
90
8
70
1
43
0.0
10
-297.51250000000005
20
22.074999999999999
42
0.41421356237310281
10
-297.01250000000005
20
21.574999999999982
10
-284.01249999999999
20
21.575000000000003
42
0.41421356237308204
10
-283.51249999999999
20
22.074999999999999
10
-283.51249999999999
20
35.075000000000003
42
0.41421356237313145
10
-284.01249999999999
20
35.575000000000003
10
-297.01250000000005
20
35.575000000000003
42
0.41421356237304557
10
-297.51250000000005
20
35.075000000000003
0
LWPOLYLINE
5
169
100
AcDbEntity
8
0
100
AcDbPolyline
90
8
70
1
43
0.0
10
-31.600000000000001
20
40.625
42
0.41421356237309509
10
-31.100000000000001
20
41.125
10
-31.100000000000001
20
54.125000000000007
42
0.41421356237309509
10
-31.600000000000001
20
54.625
10
-44.600000000000001
20
54.625
42
0.41421356237309509
10
-45.099999999999994
20
54.125000000000007
10
-45.099999999999994
20
41.125
42
0.41421356237308982
10
-44.600000000000009
20
40.625
0
LWPOLYLINE
5
170
100
AcDbEntity
8
0
100
AcDbPolyline
90
8
70
1
43
0.0
10
-50.650000000000006
20
40.625
42
0.41421356237309509
10
-50.150000000000006
20
41.125
10
-50.150000000000006
20
54.125000000000007
42
0.4142135623731002
10
-50.650000000000013
20
54.625
10
-63.650000000000006
20
54.625
42
0.41421356237309509
10
-64.149999999999991
20
54.125000000000007
10
-64.150000000000006
20
41.125
42
0.41421356237309509
10
-63.650000000000006
20
40.625
0
LWPOLYLINE
5
171
100
AcDbEntity
8
0
100
AcDbPolyline
90
8
70
1
43
0.0
10
-231.28125
20
59.675000000000004
42
0.41421356237307422
10
-230.78124999999997
20
60.174999999999997
10
-230.78125
20
73.174999999999997
42
0.41421356237313145
10
-231.28125
20
73.675000000000011
10
-232.28125000000003
20
73.674999999999997
42
0.41421356237307422
10
-232.78125000000003
20
73.174999999999997
10
-232.78125000000003
20
60.174999999999997
42
0.41421356237313667
10
-232.28125000000003
20
59.675000000000004
0
LWPOLYLINE
5
172
100
AcDbEntity
8
0
100
AcDbPolyline
90
8
70
1
43
0.0
10
-277.30624999999998
20
40.625
42
0.41421356237307422
10
-276.80624999999998
20
41.125
10
-276.80624999999998
20
54.125000000000007
42
0.41421356237313145
10
-277.30624999999998
20
54.625000000000014
10
-278.30624999999998
20
54.625
42
0.4142135623730222
10
-278.80624999999998
20
54.125000000000007
10
-278.80624999999998
20
41.125
42
0.41421356237312101
10
-278.30624999999998
20
40.624999999999993
0
LWPOLYLINE
5
173
100
AcDbEntity
8
0
100
AcDbPolyline
90
8
70
1
43
0.0
10
-240.80625000000001
20
40.625
42
0.41421356237307422
10
-240.30624999999998
20
41.125
10
-240.30625000000001
20
54.125000000000007
42
0.41421356237313145
10
-240.80625000000001
20
54.625000000000014
10
-241.80625000000003
20
54.625
42
0.41421356237307422
10
-242.30625000000003
20
54.125000000000007
10
-242.30625000000003
20
41.125
42
0.41421356237313145
10
-241.80625000000003
20
40.625
0
LWPOLYLINE
5
174
100
AcDbEntity
8
0
100
AcDbPolyline
90
8
70
1
43
0.0
10
-244.11824999999999
20
56.125000000000007
10
-244.11824999999996
20
42.125
42
-0.41421356237307422
10
-244.61825000000002
20
41.625000000000007
10
-250.61824999999999
20
41.625000000000014
42
-0.41421356237312629
10
-251.11824999999999
20
42.125
10
-251.11824999999996
20
56.125000000000007
42
-0.4142135623730222
10
-250.61824999999999
20
56.625000000000007
10
-244.61825000000002
20
56.625000000000014
42
-0.41421356237313667
0
LWPOLYLINE
5
175
100
AcDbEntity
8
0
100
AcDbPolyline
90
8
70
1
43
0.0
10
-207.8125
20
59.675000000000004
42
0.4142135623730222
10
-207.31250000000003
20
60.174999999999997
10
-207.3125
20
73.174999999999997
42
0.41421356237312101
10
-207.8125
20
73.674999999999997
10
-220.8125
20
73.674999999999997
42
0.41421356237307422
10
-221.3125
20
73.174999999999997
10
-221.3125
20
60.174999999999997
42
0.41421356237313667
10
-220.8125
20
59.674999999999997
0
LWPOLYLINE
5
176
100
AcDbEntity
8
0
100
AcDbPolyline
90
8
70
1
43
0.0
10
-232.86250000000001
20
21.575000000000003
42
0.41421356237305079
10
-232.36250000000001
20
22.074999999999999
10
-232.36250000000001
20
35.075000000000003
42
0.4142135623731002
10
-232.86250000000001
20
35.57500000000001
10
-233.86250000000001
20
35.575000000000003
42
0.41421356237313145
10
-234.36250000000001
20
35.075000000000003
10
-234.36250000000001
20
22.074999999999999
42
0.414213562373134
10
-233.86250000000001
20
21.574999999999992
0
LWPOLYLINE
5
177
100
AcDbEntity
8
0
100
AcDbPolyline
90
8
70
1
43
0.0
10
-179.23750000000001
20
78.724999999999994
42
0.41421356237307422
10
-178.73749999999998
20
79.224999999999994
10
-178.73750000000001
20
92.224999999999994
42
0.41421356237313667
10
-179.23750000000001
20
92.725000000000009
10
-192.23750000000001
20
92.725000000000009
42
0.41421356237310542
10
-192.73750000000004
20
92.224999999999994
10
-192.73750000000004
20
79.224999999999994
42
0.41421356237312629
10
-192.23750000000001
20
78.724999999999994
0
LWPOLYLINE
5
178
100
AcDbEntity
8
0
100
AcDbPolyline
90
8
70
1
43
0.0
10
-149.71875
20
92.725000000000009
42
0.41421356237309509
10
-150.21875
20
92.224999999999994
10
-150.21875
20
79.224999999999994
42
0.4142135623731002
10
-149.71875
20
78.724999999999994
10
-148.71875
20
78.724999999999994
42
0.41421356237310542
10
-148.21875000000003
20
79.224999999999994
10
-148.21875
20
92.224999999999994
42
0.41421356237307422
10
-148.71875
20
92.725000000000009
0
LWPOLYLINE
5
179
100
AcDbEntity
8
0
100
AcDbPolyline
90
8
70
1
43
0.0
10
-198.28749999999999
20
78.724999999999994
42
0.4142135623730222
10
-197.78750000000002
20
79.224999999999994
10
-197.78749999999999
20
92.224999999999994
42
0.41421356237310542
10
-198.28749999999999
20
92.725000000000009
10
-211.28749999999999
20
92.725000000000009
42
0.41421356237313667
10
-211.78750000000002
20
92.224999999999994
10
-211.78750000000002
20
79.224999999999994
42
0.41421356237313667
10
-211.28749999999999
20
78.724999999999994
0
LWPOLYLINE
5
180
100
AcDbEntity
8
0
100
AcDbPolyline
90
8
70
1
43
0.0
10
-124.46875
20
78.724999999999994
42
0.41421356237310542
10
-123.96875000000001
20
79.224999999999994
10
-123.96875
20
92.224999999999994
42
0.41421356237307422
10
-124.46875
20
92.725000000000009
10
-137.46875
20
92.725000000000009
42
0.41421356237307422
10
-137.96875000000003
20
92.224999999999994
10
-137.96875000000003
20
79.224999999999994
42
0.41421356237307944
10
-137.46875
20
78.724999999999994
0
LWPOLYLINE
5
181
100
AcDbEntity
8
0
100
AcDbPolyline
90
8
70
1
43
0.0
10
-80.462500000000006
20
21.575000000000003
42
0.41421356237311063
10
-79.962500000000006
20
22.074999999999999
10
-79.962500000000006
20
35.075000000000003
42
0.41421356237309243
10
-80.462500000000006
20
35.57500000000001
10
-81.462499999999977
20
35.575000000000003
42
0.41421356237309243
10
-81.962499999999991
20
35.075000000000003
10
-81.962499999999991
20
22.074999999999999
42
0.41421356237309509
10
-81.462499999999977
20
21.574999999999992
0
LWPOLYLINE
5
182
100
AcDbEntity
8
0
100
AcDbPolyline
90
8
70
1
43
0.0
10
-66.174999999999983
20
40.625
42
0.41421356237309509
10
-65.674999999999983
20
41.125
10
-65.674999999999969
20
54.125000000000007
42
0.41421356237311063
10
-66.174999999999983
20
54.625000000000014
10
-67.174999999999955
20
54.625
42
0.41421356237309509
10
-67.674999999999969
20
54.125000000000007
10
-67.674999999999969
20
41.125
42
0.41421356237311063
10
-67.174999999999955
20
40.624999999999993
0
LWPOLYLINE
5
183
100
AcDbEntity
8
0
100
AcDbPolyline
90
8
70
1
43
0.0
10
-166.1875
20
59.675000000000004
42
0.4142135623730222
10
-165.6875
20
60.174999999999997
10
-165.6875
20
73.175000000000011
42
0.4142135623731002
10
-166.1875
20
73.674999999999983
10
-167.1875
20
73.675000000000011
42
0.4142135623730222
10
-167.68749999999997
20
73.175000000000011
10
-167.68749999999997
20
60.174999999999997
42
0.4142135623731002
10
-167.1875
20
59.675000000000004
0
LWPOLYLINE
5
184
100
AcDbEntity
8
0
100
AcDbPolyline
90
8
70
1
43
0.0
10
-28.074999999999974
20
40.625
42
0.41421356237309509
10
-27.574999999999974
20
41.125
10
-27.574999999999967
20
54.125000000000007
42
0.41421356237309509
10
-28.074999999999974
20
54.625000000000014
10
-29.074999999999953
20
54.625
42
0.41421356237309509
10
-29.57499999999996
20
54.125000000000007
10
-29.57499999999996
20
41.125
42
0.41421356237309509
10
-29.074999999999953
20
40.624999999999993
0
LWPOLYLINE
5
185
100
AcDbEntity
8
0
100
AcDbPolyline
90
8
70
1
43
0.0
10
-42.362500000000018
20
21.575000000000003
42
0.4142135623730977
10
-41.862500000000026
20
22.074999999999999
10
-41.862500000000011
20
35.075000000000003
42
0.4142135623731002
10
-42.362500000000018
20
35.57500000000001
10
-43.362499999999997
20
35.575000000000003
42
0.41421356237308204
10
-43.862500000000004
20
35.075000000000003
10
-43.862500000000004
20
22.074999999999999
42
0.41421356237310281
10
-43.362499999999997
20
21.574999999999992
0
LWPOLYLINE
5
186
100
AcDbEntity
8
0
100
AcDbPolyline
90
8
70
1
43
0.0
10
-142.375
20
40.625
42
0.41421356237308982
10
-141.875
20
41.125
10
-141.875
20
54.125000000000007
42
0.41421356237309509
10
-142.375
20
54.625000000000014
10
-143.375
20
54.625
42
0.41421356237308982
10
-143.875
20
54.125000000000007
10
-143.875
20
41.125
42
0.41421356237309509
10
-143.375
20
40.624999999999993
0
LWPOLYLINE
5
187
100
AcDbEntity
8
0
100
AcDbPolyline
90
8
70
1
43
0.0
10
-180.47499999999999
20
40.625
42
0.4142135623730222
10
-179.97500000000002
20
41.125
10
-179.97499999999999
20
54.125000000000007
42
0.41421356237312101
10
-180.47499999999999
20
54.625000000000014
10
-181.47499999999997
20
54.625
42
0.41421356237307422
10
-181.97499999999997
20
54.125000000000007
10
-181.97499999999997
20
41.125
42
0.41421356237313145
10
-181.47499999999997
20
40.624999999999993
0
LWPOLYLINE
5
188
100
AcDbEntity
8
0
100
AcDbPolyline
90
8
70
1
43
0.0
10
-118.56250000000001
20
21.575000000000003
42
0.41421356237308465
10
-118.06250000000003
20
22.074999999999999
10
-118.0625
20
35.075000000000003
42
0.41421356237307161
10
-118.56250000000001
20
35.57500000000001
10
-119.56249999999999
20
35.575000000000003
42
0.41421356237307161
10
-120.0625
20
35.075000000000003
10
-120.0625
20
22.074999999999999
42
0.41421356237307422
10
-119.56249999999999
20
21.574999999999992
0
LWPOLYLINE
5
189
100
AcDbEntity
8
0
100
AcDbPolyline
90
8
70
1
43
0.0
10
-156.66250000000002
20
21.575000000000003
42
0.41421356237310802
10
-156.16250000000002
20
22.074999999999999
10
-156.16250000000002
20
35.075000000000003
42
0.41421356237309243
10
-156.66250000000002
20
35.57500000000001
10
-157.66249999999999
20
35.575000000000003
42
0.41421356237309243
10
-158.16249999999999
20
35.075000000000003
10
-158.16249999999999
20
22.074999999999999
42
0.41421356237309509
10
-157.66249999999999
20
21.574999999999992
0
LWPOLYLINE
5
190
100
AcDbEntity
8
0
100
AcDbPolyline
90
8
70
1
43
0.0
10
-146.40674999999999
20
77.224999999999994
10
-146.40674999999999
20
91.225000000000009
42
-0.4142135623730534
10
-145.90674999999999
20
91.725000000000009
10
-139.90674999999999
20
91.725000000000009
42
-0.41421356237307422
10
-139.40674999999999
20
91.225000000000009
10
-139.40674999999999
20
77.224999999999994
42
-0.41421356237310542
10
-139.90674999999999
20
76.725000000000009
10
-145.90674999999999
20
76.72499999999998
42
-0.41421356237307944
0
LWPOLYLINE
5
191
100
AcDbEntity
8
0
100
AcDbPolyline
90
8
70
1
43
0.0
10
-128.08750000000001
20
59.675000000000004
42
0.41421356237310542
10
-127.58749999999999
20
60.174999999999997
10
-127.58749999999999
20
73.175000000000011
42
0.4142135623731002
10
-128.08750000000001
20
73.675000000000011
10
-129.08749999999998
20
73.675000000000011
42
0.41421356237310542
10
-129.58749999999998
20
73.175000000000011
10
-129.58749999999998
20
60.174999999999997
42
0.4142135623731002
10
-129.08749999999998
20
59.675000000000004
0
LWPOLYLINE
5
192
100
AcDbEntity
8
0
100
AcDbPolyline
90
8
70
1
43
0.0
10
-86.36875000000002
20
78.724999999999994
42
0.41421356237310542
10
-85.868750000000034
20
79.224999999999994
10
-85.868750000000006
20
92.224999999999994
42
0.41421356237307422
10
-86.36875000000002
20
92.725000000000009
10
-99.368750000000006
20
92.725000000000009
42
0.41421356237309509
10
-99.868750000000006
20
92.224999999999994
10
-99.868750000000006
20
79.224999999999994
42
0.4142135623731002
10
-99.368750000000006
20
78.724999999999994
0
LWPOLYLINE
5
193
100
AcDbEntity
8
0
100
AcDbPolyline
90
8
70
1
43
0.0
10
-62.556250000000006
20
78.724999999999994
42
0.41421356237310542
10
-62.056250000000006
20
79.224999999999994
10
-62.056250000000006
20
92.224999999999994
42
0.41421356237310542
10
-62.556250000000006
20
92.725000000000009
10
-75.556250000000006
20
92.725000000000009
42
0.4142135623731002
10
-76.05625000000002
20
92.224999999999994
10
-76.056250000000006
20
79.224999999999994
42
0.41421356237310542
10
-75.556250000000006
20
78.724999999999994
0
LWPOLYLINE
5
194
100
AcDbEntity
8
0
100
AcDbPolyline
90
8
70
1
43
0.0
10
-194.76249999999999
20
21.575000000000003
42
0.41421356237305079
10
-194.26249999999999
20
22.074999999999999
10
-194.26250000000005
20
35.075000000000003
42
0.4142135623730977
10
-194.76249999999999
20
35.574999999999974
10
-195.76250000000002
20
35.575000000000003
42
0.41421356237312101
10
-196.26250000000002
20
35.075000000000003
10
-196.26249999999999
20
22.074999999999999
42
0.4142135623730977
10
-195.76250000000002
20
21.575000000000028
0
LWPOLYLINE
5
195
100
AcDbEntity
8
0
100
AcDbPolyline
90
8
70
1
43
0.0
10
-112.56250000000001
20
59.675000000000004
42
0.41421356237310542
10
-112.0625
20
60.174999999999997
10
-112.0625
20
73.174999999999997
42
0.41421356237309509
10
-112.56250000000001
20
73.675000000000011
10
-125.5625
20
73.674999999999997
42
0.4142135623731002
10
-126.0625
20
73.174999999999997
10
-126.06250000000001
20
60.174999999999997
42
0.41421356237307944
10
-125.5625
20
59.674999999999997
0
LWPOLYLINE
5
196
100
AcDbEntity
8
0
100
AcDbPolyline
90
8
70
1
43
0.0
10
-243.53125000000003
20
59.675000000000004
42
0.41421356237307422
10
-243.03124999999997
20
60.174999999999997
10
-243.03125
20
73.174999999999997
42
0.41421356237313145
10
-243.53125000000003
20
73.674999999999997
10
-256.53125
20
73.674999999999997
42
0.4142135623730222
10
-257.03125000000006
20
73.174999999999997
10
-257.03125000000006
20
60.174999999999997
42
0.41421356237312629
10
-256.53125
20
59.675000000000004
0
LWPOLYLINE
5
197
100
AcDbEntity
8
0
100
AcDbPolyline
90
8
70
1
43
0.0
10
-188.76249999999999
20
59.675000000000004
42
0.4142135623730222
10
-188.26250000000002
20
60.174999999999997
10
-188.26249999999999
20
73.174999999999997
42
0.41421356237312101
10
-188.76249999999999
20
73.674999999999997
10
-201.76249999999999
20
73.674999999999997
42
0.41421356237307422
10
-202.26249999999999
20
73.174999999999997
10
-202.26249999999999
20
60.174999999999997
42
0.41421356237313667
10
-201.76249999999999
20
59.675000000000004
0
LWPOLYLINE
5
198
100
AcDbEntity
8
0
100
AcDbPolyline
90
8
70
1
43
0.0
10
-89.987499999999997
20
59.675000000000004
42
0.41421356237310542
10
-89.487500000000011
20
60.174999999999997
10
-89.487499999999983
20
73.175000000000011
42
0.41421356237307944
10
-89.987499999999997
20
73.675000000000011
10
-90.987499999999969
20
73.675000000000011
42
0.41421356237310542
10
-91.487499999999983
20
73.175000000000011
10
-91.487499999999983
20
60.174999999999997
42
0.41421356237307944
10
-90.987499999999969
20
59.675000000000004
0
LWPOLYLINE
5
199
100
AcDbEntity
8
0
100
AcDbPolyline
90
8
70
1
43
0.0
10
-17.3125
20
59.675000000000004
42
0.4142135623730977
10
-16.8125
20
60.174999999999997
10
-16.8125
20
73.174999999999997
42
0.41421356237308854
10
-17.312499999999993
20
73.674999999999997
10
-30.3125
20
73.674999999999997
42
0.41421356237309509
10
-30.812500000000007
20
73.174999999999997
10
-30.8125
20
60.174999999999997
42
0.4142135623730977
10
-30.3125
20
59.675000000000004
0
LWPOLYLINE
5
200
100
AcDbEntity
8
0
100
AcDbPolyline
90
8
70
1
43
0.0
10
-104.27499999999998
20
40.625
42
0.41421356237308982
10
-103.77499999999998
20
41.125
10
-103.77499999999998
20
54.125000000000007
42
0.41421356237309509
10
-104.27499999999998
20
54.625000000000014
10
-105.27499999999996
20
54.625
42
0.41421356237308982
10
-105.77499999999998
20
54.125000000000007
10
-105.77499999999998
20
41.125
42
0.41421356237309509
10
-105.27499999999996
20
40.624999999999993
0
LWPOLYLINE
5
201
100
AcDbEntity
8
0
100
AcDbPolyline
90
8
70
1
43
0.0
10
-51.887499999999989
20
59.675000000000004
42
0.41421356237310542
10
-51.387499999999989
20
60.174999999999997
10
-51.387499999999982
20
73.175000000000011
42
0.41421356237311585
10
-51.887499999999989
20
73.675000000000011
10
-52.887499999999967
20
73.675000000000011
42
0.41421356237310542
10
-53.387499999999974
20
73.175000000000011
10
-53.387499999999974
20
60.174999999999997
42
0.41421356237311585
10
-52.887499999999967
20
59.675000000000004
0
ENDSEC
0
SECTION
2
OBJECTS
0
DICTIONARY
5
C
100
AcDbDictionary
3
ACAD_GROUP
350
D
3
ACAD_MLINESTYLE
350
17
0
DICTIONARY
5
D
100
AcDbDictionary
0
DICTIONARY
5
1A
330
C
100
AcDbDictionary
0
DICTIONARY
5
17
100
AcDbDictionary
0
ENDSEC
0
EOF
