<?xml version="1.0" encoding="UTF-8" standalone="no"?>
<!DOCTYPE svg PUBLIC "-//W3C//DTD SVG 1.1//EN" "http://www.w3.org/Graphics/SVG/1.1/DTD/svg11.dtd">
<svg width="100%" height="100%" viewBox="0 0 865 271" version="1.1" xmlns="http://www.w3.org/2000/svg" xmlns:xlink="http://www.w3.org/1999/xlink" xml:space="preserve" xmlns:serif="http://www.serif.com/" style="fill-rule:evenodd;clip-rule:evenodd;stroke-linecap:round;stroke-linejoin:round;">
    <g>
        <path d="M757.35,0.496L861.807,0.496L861.807,102.72L816.452,227.445L608.744,227.445L606.759,229.465L606.688,269.787L167.318,269.787L167.247,229.465L165.263,227.445L46.421,227.445L1.066,102.72L1.066,0.496L757.35,0.496" style="fill-opacity:0;fill-rule:nonzero;stroke:black;stroke-width:0.28px;"/>
        <path d="M603.429,218.764L429.098,218.764C427.543,218.764 426.263,217.484 426.263,215.929C426.263,214.374 427.543,213.094 429.098,213.094L603.429,213.094C604.984,213.094 606.263,214.374 606.263,215.929C606.263,217.484 604.984,218.764 603.429,218.764Z" style="fill-opacity:0;fill-rule:nonzero;stroke:black;stroke-width:0.28px;"/>
        <path d="M314.295,218.764C315.072,218.764 315.781,218.444 316.295,217.93C316.809,217.415 317.129,216.707 317.129,215.929C317.129,214.374 315.85,213.094 314.295,213.094L139.964,213.094C138.409,213.094 137.129,214.374 137.129,215.929C137.129,217.484 138.409,218.764 139.964,218.764L314.295,218.764Z" style="fill-opacity:0;fill-rule:nonzero;stroke:black;stroke-width:0.28px;"/>
        <path d="M190.988,51.52C189.433,51.52 188.153,52.799 188.153,54.354C188.153,55.909 189.433,57.189 190.988,57.189L684.216,57.189C685.771,57.189 687.051,55.909 687.051,54.354C687.051,52.799 685.771,51.52 684.216,51.52L190.988,51.52" style="fill-opacity:0;fill-rule:nonzero;stroke:black;stroke-width:0.28px;"/>
        <path d="M810.074,0.142L810.074,54.142L864.074,54.142L864.074,0.142L810.074,0.142" style="fill-opacity:0;fill-rule:nonzero;stroke:black;stroke-width:0.28px;"/>
        <path d="M94.574,216.142L94.574,162.142L40.574,162.142L40.574,216.142L94.574,216.142" style="fill-opacity:0;fill-rule:nonzero;stroke:black;stroke-width:0.28px;"/>
    </g>
</svg>
