0
SECTION
2
HEADER
9
$INSUNITS
70
4
9
$ACADVER
1
AC1014
9
$HANDSEED
5
FFFF
0
ENDSEC
0
SECTION
2
TABLES
0
TABLE
2
VPORT
5
8
100
AcDbSymbolTable
0
ENDTAB
0
TABLE
2
LTYPE
5
5
100
AcDbSymbolTable
0
LTYPE
5
14
100
AcDbSymbolTableRecord
100
AcDbLinetypeTableRecord
2
BYBLOCK
70
0
0
LTYPE
5
15
100
AcDbSymbolTableRecord
100
AcDbLinetypeTableRecord
2
BYLAYER
70
0
0
ENDTAB
0
TABLE
2
LAYER
5
2
100
AcDbSymbolTable
70
2
0
LAYER
5
50
100
AcDbSymbolTableRecord
100
AcDbLayerTableRecord
2
0
70
0
6
CONTINUOUS
0
ENDTAB
0
TABLE
2
STYLE
5
3
100
AcDbSymbolTable
70
1
0
STYLE
5
11
100
AcDbSymbolTableRecord
100
AcDbTextStyleTableRecord
2
STANDARD
70
0
0
ENDTAB
0
TABLE
2
VIEW
5
6
100
AcDbSymbolTable
70
0
0
ENDTAB
0
TABLE
2
UCS
5
7
100
AcDbSymbolTable
70
0
0
ENDTAB
0
TABLE
2
APPID
5
9
100
AcDbSymbolTable
70
2
0
APPID
5
12
100
AcDbSymbolTableRecord
100
AcDbRegAppTableRecord
2
ACAD
70
0
0
ENDTAB
0
TABLE
2
DIMSTYLE
5
A
100
AcDbSymbolTable
70
1
0
ENDTAB
0
TABLE
2
BLOCK_RECORD
5
1
100
AcDbSymbolTable
70
1
0
BLOCK_RECORD
5
1F
100
AcDbSymbolTableRecord
100
AcDbBlockTableRecord
2
*MODEL_SPACE
0
BLOCK_RECORD
5
1B
100
AcDbSymbolTableRecord
100
AcDbBlockTableRecord
2
*PAPER_SPACE
0
ENDTAB
0
ENDSEC
0
SECTION
2
BLOCKS
0
BLOCK
5
20
100
AcDbEntity
100
AcDbBlockBegin
2
*MODEL_SPACE
0
ENDBLK
5
21
100
AcDbEntity
100
AcDbBlockEnd
0
BLOCK
5
1C
100
AcDbEntity
100
AcDbBlockBegin
2
*PAPER_SPACE
0
ENDBLK
5
1D
100
AcDbEntity
100
AcDbBlockEnd
0
ENDSEC
0
SECTION
2
ENTITIES
0
CIRCLE
5
100
100
AcDbEntity
8
0
100
AcDbCircle
10
5.9999999999999432
20
47.067995184785225
30
0
40
1.6000000000000003
210
0
220
0
230
1
0
LWPOLYLINE
5
101
100
AcDbEntity
8
0
100
AcDbPolyline
90
20
70
1
43
0.0
10
89.993063190258795
20
99.187375000000003
10
22.096999627520439
20
99.187375000000003
42
0.31538033197007803
10
20.217411533315545
20
97.87085769628645
10
2.1204119057950166
20
48.10382595498568
42
0.087413928403978672
10
1.9999999999999218
20
47.420343258699219
10
1.9999999999999218
20
3.1248750000000047
42
0.41421356237310586
10
3.9999999999999853
20
1.1248750000000085
10
321.65018874999998
20
1.1248750000000041
42
0.41421356237309515
10
323.65018875000004
20
3.1248750000000047
10
323.65018875000004
20
47.420356930923035
42
0.087414882830646939
10
323.52977425464258
20
48.103846748504608
10
305.43256611082762
20
97.870864817581591
42
0.31537929056955816
10
303.55298060618509
20
99.187375000000003
10
267.0071868097412
20
99.187374999999975
42
-0.41369889336491383
10
265.00718989858035
20
101.1838599826166
10
264.98795514227248
20
112.12817376738342
42
0.41369889336491644
10
262.98795823111169
20
114.12465875000001
10
94.012291768888332
20
114.12465875000001
42
0.41369889336491644
10
92.012294857727539
20
112.12817376738343
10
91.993060101419601
20
101.1838599826166
42
-0.41369889336490084
0
CIRCLE
5
102
100
AcDbEntity
8
0
100
AcDbCircle
10
133.47725948740242
20
78.773859144636475
30
0
40
1.6000000000000003
210
0
220
0
230
1
0
CIRCLE
5
103
100
AcDbEntity
8
0
100
AcDbCircle
10
289.55018875000002
20
16.624476980263587
30
0
40
0.80000000000000016
210
0
220
0
230
1
0
CIRCLE
5
104
100
AcDbEntity
8
0
100
AcDbCircle
10
303.55018874999996
20
16.624476980263587
30
0
40
0.80000000000000016
210
0
220
0
230
1
0
CIRCLE
5
105
100
AcDbEntity
8
0
100
AcDbCircle
10
303.55018874999996
20
4.1244769802635961
30
0
40
0.80000000000000016
210
0
220
0
230
1
0
CIRCLE
5
106
100
AcDbEntity
8
0
100
AcDbCircle
10
223.47725948740234
20
78.773859144636475
30
0
40
1.6000000000000003
210
0
220
0
230
1
0
CIRCLE
5
107
100
AcDbEntity
8
0
100
AcDbCircle
10
319.65018875000004
20
47.068004950659308
30
0
40
1.6000000000000003
210
0
220
0
230
1
0
CIRCLE
5
108
100
AcDbEntity
8
0
100
AcDbCircle
10
84.65999999999994
20
5.1248750000000065
30
0
40
1.6000000000000003
210
0
220
0
230
1
0
CIRCLE
5
109
100
AcDbEntity
8
0
100
AcDbCircle
10
289.55018875000002
20
4.1244769802635961
30
0
40
0.80000000000000016
210
0
220
0
230
1
0
CIRCLE
5
110
100
AcDbEntity
8
0
100
AcDbCircle
10
240.99018875000002
20
5.1248750000000065
30
0
40
1.6000000000000003
210
0
220
0
230
1
0
CIRCLE
5
111
100
AcDbEntity
8
0
100
AcDbCircle
10
260.99147016507976
20
110.12465875000001
30
0
40
1.6000000000000003
210
0
220
0
230
1
0
CIRCLE
5
112
100
AcDbEntity
8
0
100
AcDbCircle
10
96.008779834920261
20
110.12465875000001
30
0
40
1.6000000000000003
210
0
220
0
230
1
0
LWPOLYLINE
5
113
100
AcDbEntity
8
0
100
AcDbPolyline
90
34
70
1
43
0.0
10
323.65018874999998
20
167.42035693092305
42
0.087414882830652157
10
323.52977425464252
20
168.10384674850465
10
305.43256611082762
20
217.87086481758155
42
0.31537929056955488
10
303.55298060618509
20
219.18737499999997
10
267.0071868097412
20
219.18737499999995
42
-0.41369889336491383
10
265.00718989858035
20
221.18385998261658
10
264.98795514227248
20
232.1281737673834
42
0.41369889336491905
10
262.98795823111169
20
234.12465875000004
10
94.012291768888332
20
234.12465875000004
42
0.41369889336491905
10
92.012294857727539
20
232.12817376738343
10
91.993060101419601
20
221.18385998261658
42
-0.41369889336489823
10
89.993063190258795
20
219.18737499999997
10
22.096999627520439
20
219.18737499999997
42
0.3153803319700737
10
20.217411533315541
20
217.87085769628646
10
2.1204119057950161
20
168.10382595498569
42
0.087413928404080951
10
1.9999999999999218
20
167.42034325869923
10
1.9999999999999218
20
123.12487500000003
42
0.41421356237311063
10
3.9999999999999858
20
121.124875
10
286.05018875000002
20
121.124875
10
286.05018874999996
20
128.124875
10
8.9999999999999147
20
128.124875
10
8.9999999999999147
20
166.53947307391405
10
25.599142750720176
20
212.18737500000003
10
98.977259487402378
20
212.18737500000003
10
99.003511933968014
20
227.12465875000004
10
257.99673806603192
20
227.12465875000004
10
258.02299051259763
20
212.18737500000003
10
300.05085160176719
20
212.18737500000003
10
316.65018874999998
20
166.53947698026377
10
316.65018874999998
20
128.124875
10
307.05018875000002
20
128.124875
10
307.05018875000002
20
121.124875
10
321.65018874999998
20
121.124875
42
0.4142135623730977
10
323.65018875000004
20
123.12487500000002
0
CIRCLE
5
114
100
AcDbEntity
8
0
100
AcDbCircle
10
5.9999999999999432
20
167.06799518478522
30
0
40
1.6000000000000003
210
0
220
0
230
1
0
CIRCLE
5
115
100
AcDbEntity
8
0
100
AcDbCircle
10
84.65999999999994
20
125.124875
30
0
40
1.6000000000000003
210
0
220
0
230
1
0
CIRCLE
5
116
100
AcDbEntity
8
0
100
AcDbCircle
10
240.99018875000002
20
125.124875
30
0
40
1.6000000000000003
210
0
220
0
230
1
0
CIRCLE
5
117
100
AcDbEntity
8
0
100
AcDbCircle
10
260.99147016507976
20
230.12465875000001
30
0
40
1.6000000000000003
210
0
220
0
230
1
0
CIRCLE
5
118
100
AcDbEntity
8
0
100
AcDbCircle
10
319.65018875000004
20
167.06800495065931
30
0
40
1.6000000000000003
210
0
220
0
230
1
0
CIRCLE
5
119
100
AcDbEntity
8
0
100
AcDbCircle
10
96.008779834920261
20
230.12465875000001
30
0
40
1.6000000000000003
210
0
220
0
230
1
0
ENDSEC
0
SECTION
2
OBJECTS
0
DICTIONARY
5
C
100
AcDbDictionary
3
ACAD_GROUP
350
D
3
ACAD_MLINESTYLE
350
17
0
DICTIONARY
5
D
100
AcDbDictionary
0
DICTIONARY
5
1A
330
C
100
AcDbDictionary
0
DICTIONARY
5
17
100
AcDbDictionary
0
ENDSEC
0
EOF
