0
SECTION
2
HEADER
9
$INSUNITS
70
4
9
$ACADVER
1
AC1014
9
$HANDSEED
5
FFFF
0
ENDSEC
0
SECTION
2
TABLES
0
TABLE
2
VPORT
5
8
100
AcDbSymbolTable
0
ENDTAB
0
TABLE
2
LTYPE
5
5
100
AcDbSymbolTable
0
LTYPE
5
14
100
AcDbSymbolTableRecord
100
AcDbLinetypeTableRecord
2
BYBLOCK
70
0
0
LTYPE
5
15
100
AcDbSymbolTableRecord
100
AcDbLinetypeTableRecord
2
BYLAYER
70
0
0
ENDTAB
0
TABLE
2
LAYER
5
2
100
AcDbSymbolTable
70
2
0
LAYER
5
50
100
AcDbSymbolTableRecord
100
AcDbLayerTableRecord
2
0
70
0
6
CONTINUOUS
0
ENDTAB
0
TABLE
2
STYLE
5
3
100
AcDbSymbolTable
70
1
0
STYLE
5
11
100
AcDbSymbolTableRecord
100
AcDbTextStyleTableRecord
2
STANDARD
70
0
0
ENDTAB
0
TABLE
2
VIEW
5
6
100
AcDbSymbolTable
70
0
0
ENDTAB
0
TABLE
2
UCS
5
7
100
AcDbSymbolTable
70
0
0
ENDTAB
0
TABLE
2
APPID
5
9
100
AcDbSymbolTable
70
2
0
APPID
5
12
100
AcDbSymbolTableRecord
100
AcDbRegAppTableRecord
2
ACAD
70
0
0
ENDTAB
0
TABLE
2
DIMSTYLE
5
A
100
AcDbSymbolTable
70
1
0
ENDTAB
0
TABLE
2
BLOCK_RECORD
5
1
100
AcDbSymbolTable
70
1
0
BLOCK_RECORD
5
1F
100
AcDbSymbolTableRecord
100
AcDbBlockTableRecord
2
*MODEL_SPACE
0
BLOCK_RECORD
5
1B
100
AcDbSymbolTableRecord
100
AcDbBlockTableRecord
2
*PAPER_SPACE
0
ENDTAB
0
ENDSEC
0
SECTION
2
BLOCKS
0
BLOCK
5
20
100
AcDbEntity
100
AcDbBlockBegin
2
*MODEL_SPACE
0
ENDBLK
5
21
100
AcDbEntity
100
AcDbBlockEnd
0
BLOCK
5
1C
100
AcDbEntity
100
AcDbBlockBegin
2
*PAPER_SPACE
0
ENDBLK
5
1D
100
AcDbEntity
100
AcDbBlockEnd
0
ENDSEC
0
SECTION
2
ENTITIES
0
LINE
5
100
100
AcDbEntity
8
0
100
AcDbLine
10
39.43779695475461
20
79.619210512965353
30
0
11
39.490807664766258
21
80.883821260602502
31
0
0
LINE
5
101
100
AcDbEntity
8
0
100
AcDbLine
10
32.488200407614187
20
59.932791799808555
30
0
11
33.802360219663228
21
59.317048772604963
31
0
0
LINE
5
102
100
AcDbEntity
8
0
100
AcDbLine
10
21.640406266251638
20
70.837782961843658
30
0
11
21.41229992390749
21
70.976857299268431
31
0
0
LINE
5
103
100
AcDbEntity
8
0
100
AcDbLine
10
26.678117542472958
20
66.889173126408153
30
0
11
26.071857107933049
21
66.343894749522264
31
0
0
LINE
5
104
100
AcDbEntity
8
0
100
AcDbLine
10
14.24950336900708
20
78.914329211425922
30
0
11
14.303709169260131
21
79.210160677655921
31
0
0
LWPOLYLINE
5
105
100
AcDbEntity
8
0
100
AcDbPolyline
90
15
70
1
43
0.0
10
20.908809985413612
20
68.299050707185856
10
20.730140672863048
20
68.198290360775616
10
20.524854469463705
20
68.196170136757587
10
20.344392191853913
20
68.293354540649801
10
20.054559961548751
20
68.560863589357183
10
19.940323033938157
20
68.744251943472264
10
19.935122061367601
20
68.960247461520694
10
20.040892230731711
20
69.149004288673382
10
20.228018850107695
20
69.258074954425112
10
20.634634985942345
20
69.367027419651464
10
20.851400591570858
20
69.3661793494189
10
21.037204792130375
20
69.255549639220874
10
21.141104065631147
20
69.066000251201004
10
21.133924116877196
20
68.850078343116564
10
21.016676566951102
20
68.473492596041183
0
LWPOLYLINE
5
106
100
AcDbEntity
8
0
100
AcDbPolyline
90
26
70
1
43
0.0
10
30.820656735582141
20
69.660511096057988
10
30.300329335533679
20
69.833052625275684
10
29.734644183549012
20
69.899835878584568
10
29.207437760228462
20
69.895343087380908
10
28.31401130467771
20
69.749426187491736
10
27.71114864873319
20
69.549094597142883
10
27.489950326824221
20
69.448141484801539
10
27.49368132489812
20
69.198279704452958
10
27.586991057651421
20
68.571335266704011
10
27.893053581359442
20
67.751269741677703
10
28.164358936186623
20
67.326304225733836
10
28.535042952297619
20
66.922044699497178
10
28.952944628389933
20
66.587040211119216
10
29.354879582684003
20
66.352462138176705
10
29.73970839841218
20
66.215237260471
10
30.106291998218119
20
66.172292945680979
10
30.453491677444738
20
66.220555170552231
10
30.780168234502586
20
66.356951766408116
10
31.085182376857059
20
66.578409049405465
10
31.367395151384972
20
66.881853923578774
10
31.592031472300054
20
67.259616758098304
10
31.722640703176026
20
67.688417547086587
10
31.755090723963072
20
68.141471095799446
10
31.685249414611395
20
68.591992209492744
10
31.508984655071188
20
69.013195693422389
10
31.22216454047074
20
69.378297404366151
0
LINE
5
107
100
AcDbEntity
8
0
100
AcDbLine
10
33.779622227721113
20
80.402072757192897
30
0
11
32.697170939332068
21
80.65099591943283
31
0
0
LINE
5
108
100
AcDbEntity
8
0
100
AcDbLine
10
27.717283772925757
20
68.078585211891379
30
0
11
26.678117542472958
21
66.889173126408153
31
0
0
LINE
5
109
100
AcDbEntity
8
0
100
AcDbLine
10
32.673932253002043
20
56.481243688769787
30
0
11
33.030756803660189
21
56.762742104145119
31
0
0
LINE
5
110
100
AcDbEntity
8
0
100
AcDbLine
10
14.69799283691456
20
75.616165586981907
30
0
11
14.014223444095521
21
75.042997703639628
31
0
0
LINE
5
111
100
AcDbEntity
8
0
100
AcDbLine
10
38.576852418201312
20
63.58271120706398
30
0
11
39.690336222209538
21
62.196249235905661
31
0
0
LINE
5
112
100
AcDbEntity
8
0
100
AcDbLine
10
21.751404547609532
20
54.517689573955252
30
0
11
21.810105478491842
21
54.270643978291702
31
0
0
LINE
5
113
100
AcDbEntity
8
0
100
AcDbLine
10
32.395048406831172
20
56.384957071071867
30
0
11
32.673932253002043
21
56.481243688769787
31
0
0
LINE
5
114
100
AcDbEntity
8
0
100
AcDbLine
10
12.651177029556052
20
72.430567905446864
30
0
11
12.590908806198573
21
71.720406539687801
31
0
0
LINE
5
115
100
AcDbEntity
8
0
100
AcDbLine
10
15.88579894549822
20
55.494152251982108
30
0
11
16.367729670979934
21
55.70769366951226
31
0
0
LINE
5
116
100
AcDbEntity
8
0
100
AcDbLine
10
14.123246885044908
20
61.274879225834589
30
0
11
14.195235469439766
21
60.677375310294892
31
0
0
LINE
5
117
100
AcDbEntity
8
0
100
AcDbLine
10
17.660163175481522
20
55.554902978457463
30
0
11
17.561955524919618
21
54.739357530866897
31
0
0
LINE
5
118
100
AcDbEntity
8
0
100
AcDbLine
10
29.720082551436711
20
83.531398483000345
30
0
11
29.431583378420495
21
83.718708972691047
31
0
0
LINE
5
119
100
AcDbEntity
8
0
100
AcDbLine
10
21.879828776087017
20
70.522061892659707
30
0
11
21.640406266251638
21
70.837782961843658
31
0
0
LINE
5
120
100
AcDbEntity
8
0
100
AcDbLine
10
40.551220638772314
20
60.440851014620158
30
0
11
40.283050587117401
21
60.307920065680023
31
0
0
LINE
5
121
100
AcDbEntity
8
0
100
AcDbLine
10
21.82852671072893
20
55.290277969776312
30
0
11
21.751404547609532
21
54.517689573955252
31
0
0
LINE
5
122
100
AcDbEntity
8
0
100
AcDbLine
10
24.67916910727164
20
65.421515748766282
30
0
11
23.890016957919535
21
65.072144403108808
31
0
0
LINE
5
123
100
AcDbEntity
8
0
100
AcDbLine
10
44.345609020488943
20
70.269668465519089
30
0
11
44.441227581725911
21
70.431390266988629
31
0
0
LINE
5
124
100
AcDbEntity
8
0
100
AcDbLine
10
20.310523163506502
20
55.079033355541014
30
0
11
20.790807337916387
21
55.395582518092461
31
0
0
LINE
5
125
100
AcDbEntity
8
0
100
AcDbLine
10
12.609033144037623
20
61.941216275692881
30
0
11
12.20895216006509
21
61.994509707096704
31
0
0
LINE
5
126
100
AcDbEntity
8
0
100
AcDbLine
10
38.428346271702829
20
60.35221448143367
30
0
11
36.557751387005091
21
60.632317167173355
31
0
0
LINE
5
127
100
AcDbEntity
8
0
100
AcDbLine
10
34.749594243903317
20
79.989909961499677
30
0
11
33.779622227721113
21
80.402072757192897
31
0
0
LINE
5
128
100
AcDbEntity
8
0
100
AcDbLine
10
21.091492057538165
20
71.062264783072735
30
0
11
20.662655407206557
21
71.063146618543954
31
0
0
LINE
5
129
100
AcDbEntity
8
0
100
AcDbLine
10
39.163799860941651
20
66.360606883550844
30
0
11
41.675793052342385
21
66.913969951971822
31
0
0
LINE
5
130
100
AcDbEntity
8
0
100
AcDbLine
10
43.528259654080259
20
72.842747049637126
30
0
11
43.203304691999207
21
73.106682457589031
31
0
0
LINE
5
131
100
AcDbEntity
8
0
100
AcDbLine
10
12.81113963051425
20
73.122484809873967
30
0
11
12.651177029556052
21
72.430567905446864
31
0
0
LINE
5
132
100
AcDbEntity
8
0
100
AcDbLine
10
14.489719264231866
20
60.088040384216015
30
0
11
14.766664688228232
21
59.987429791589982
31
0
0
LINE
5
133
100
AcDbEntity
8
0
100
AcDbLine
10
15.465778527045146
20
59.965060678733295
30
0
11
16.387578508504276
21
60.122968653471645
31
0
0
LINE
5
134
100
AcDbEntity
8
0
100
AcDbLine
10
17.566806329239288
20
54.452614810132232
30
0
11
17.627112646305793
21
54.315598350895762
31
0
0
LINE
5
135
100
AcDbEntity
8
0
100
AcDbLine
10
40.756139204108315
20
70.326923596497934
30
0
11
42.202007527125858
21
71.219742149678751
31
0
0
LINE
5
136
100
AcDbEntity
8
0
100
AcDbLine
10
13.6227376074196
20
67.3326150347837
30
0
11
14.720836472921652
21
64.622286613127926
31
0
0
LINE
5
137
100
AcDbEntity
8
0
100
AcDbLine
10
32.167889811005615
20
56.51821880363795
30
0
11
32.395048406831172
21
56.384957071071867
31
0
0
LINE
5
138
100
AcDbEntity
8
0
100
AcDbLine
10
17.944235799991606
20
80.70454725160414
30
0
11
17.660485300313852
21
80.225610069490187
31
0
0
LINE
5
139
100
AcDbEntity
8
0
100
AcDbLine
10
43.650650897161334
20
72.591812569224658
30
0
11
43.528259654080259
21
72.842747049637126
31
0
0
LINE
5
140
100
AcDbEntity
8
0
100
AcDbLine
10
21.935549498643617
20
56.361543513785712
30
0
11
23.390164335037955
21
57.770210955855276
31
0
0
LINE
5
141
100
AcDbEntity
8
0
100
AcDbLine
10
29.01449293219104
20
57.365792156284733
30
0
11
29.326004358294085
21
57.341876251430783
31
0
0
LINE
5
142
100
AcDbEntity
8
0
100
AcDbLine
10
17.371404964671179
20
79.026702632800124
30
0
11
17.46089303467943
21
78.518457662212228
31
0
0
LINE
5
143
100
AcDbEntity
8
0
100
AcDbLine
10
33.836292321846734
20
57.637203714575705
30
0
11
34.821365094912146
21
58.922784408956737
31
0
0
LINE
5
144
100
AcDbEntity
8
0
100
AcDbLine
10
16.657077991626728
20
79.968350769945459
30
0
11
17.133747163311469
21
79.522743904034883
31
0
0
LINE
5
145
100
AcDbEntity
8
0
100
AcDbLine
10
43.931549978824187
20
68.611338268537338
30
0
11
42.671006632619253
21
69.392912333830978
31
0
0
LINE
5
146
100
AcDbEntity
8
0
100
AcDbLine
10
40.995047566613835
20
78.036836295345225
30
0
11
39.330327309152715
21
77.968202591188458
31
0
0
LINE
5
147
100
AcDbEntity
8
0
100
AcDbLine
10
11.431488759636412
20
62.60370868395767
30
0
11
11.163634832697502
21
63.207834804743356
31
0
0
LINE
5
148
100
AcDbEntity
8
0
100
AcDbLine
10
20.009972128369732
20
78.450934772456961
30
0
11
18.271844602231727
21
77.720394510072197
31
0
0
LINE
5
149
100
AcDbEntity
8
0
100
AcDbLine
10
19.244329832915493
20
70.518069660818071
30
0
11
19.041294501932274
21
70.278595899798745
31
0
0
LINE
5
150
100
AcDbEntity
8
0
100
AcDbLine
10
18.364625053037923
20
77.256599299171555
30
0
11
19.245801732889412
21
76.549458321506222
31
0
0
LINE
5
151
100
AcDbEntity
8
0
100
AcDbLine
10
19.739551989506456
20
55.08882229140638
30
0
11
19.966466046400029
21
54.961756882102641
31
0
0
LINE
5
152
100
AcDbEntity
8
0
100
AcDbLine
10
40.909137083712622
20
64.728312556482436
30
0
11
40.261187593175045
21
65.456596315378292
31
0
0
LINE
5
153
100
AcDbEntity
8
0
100
AcDbLine
10
14.076680761554449
20
62.744088808765206
30
0
11
14.123246885044908
21
61.274879225834589
31
0
0
LINE
5
154
100
AcDbEntity
8
0
100
AcDbLine
10
27.044669589536866
20
56.410569869588876
30
0
11
27.238939140273647
21
56.592206362618811
31
0
0
LINE
5
155
100
AcDbEntity
8
0
100
AcDbLine
10
17.672972090116772
20
78.059690198577968
30
0
11
17.982572782950676
21
77.641902917883741
31
0
0
LINE
5
156
100
AcDbEntity
8
0
100
AcDbLine
10
36.437934009007044
20
61.249871025249092
30
0
11
36.243772903749012
21
62.687024407382239
31
0
0
LINE
5
157
100
AcDbEntity
8
0
100
AcDbLine
10
19.272098180126115
20
57.840632564083741
30
0
11
19.361874062922869
21
56.405588077213935
31
0
0
LINE
5
158
100
AcDbEntity
8
0
100
AcDbLine
10
42.190493983797552
20
77.950201216796003
30
0
11
40.995047566613835
21
78.036836295345225
31
0
0
LINE
5
159
100
AcDbEntity
8
0
100
AcDbLine
10
25.405994828248847
20
65.850054015156303
30
0
11
24.67916910727164
21
65.421515748766282
31
0
0
LINE
5
160
100
AcDbEntity
8
0
100
AcDbLine
10
24.384018601143591
20
82.354619163838976
30
0
11
24.182189464244335
21
81.82946204444093
31
0
0
LINE
5
161
100
AcDbEntity
8
0
100
AcDbLine
10
40.97989281767245
20
64.172935224289205
30
0
11
41.046821826561846
21
64.412271636960298
31
0
0
LINE
5
162
100
AcDbEntity
8
0
100
AcDbLine
10
17.133747163311469
20
79.522743904034883
30
0
11
17.53945852735275
21
78.757503600841673
31
0
0
LINE
5
163
100
AcDbEntity
8
0
100
AcDbLine
10
14.014223444095521
20
75.042997703639628
30
0
11
13.480160283882512
21
74.433276728051482
31
0
0
LINE
5
164
100
AcDbEntity
8
0
100
AcDbLine
10
40.261187593175045
20
65.456596315378292
30
0
11
39.163799860941651
21
66.360606883550844
31
0
0
LINE
5
165
100
AcDbEntity
8
0
100
AcDbLine
10
14.910829209863399
20
79.977575119838662
30
0
11
15.287455868902416
21
80.123281952001264
31
0
0
LINE
5
166
100
AcDbEntity
8
0
100
AcDbLine
10
35.559911271098308
20
79.389513093534035
30
0
11
34.749594243903317
21
79.989909961499677
31
0
0
LINE
5
167
100
AcDbEntity
8
0
100
AcDbLine
10
42.671006632619253
20
69.392912333830978
30
0
11
40.756139204108315
21
70.326923596497934
31
0
0
LINE
5
168
100
AcDbEntity
8
0
100
AcDbLine
10
40.283050587117401
20
60.307920065680023
30
0
11
39.785333658585692
21
60.263351612282989
31
0
0
LINE
5
169
100
AcDbEntity
8
0
100
AcDbLine
10
24.97552049338222
20
57.005597760049795
30
0
11
26.201519531150268
21
56.527621908092314
31
0
0
LINE
5
170
100
AcDbEntity
8
0
100
AcDbLine
10
21.41229992390749
20
70.976857299268431
30
0
11
21.091492057538165
21
71.062264783072735
31
0
0
LINE
5
171
100
AcDbEntity
8
0
100
AcDbLine
10
23.037176444632493
20
64.81580421576237
30
0
11
22.119285507617377
21
64.666359887949866
31
0
0
LINE
5
172
100
AcDbEntity
8
0
100
AcDbLine
10
26.915355607774622
20
82.677368404416399
30
0
11
26.827788366942006
21
82.760992310255773
31
0
0
LINE
5
173
100
AcDbEntity
8
0
100
AcDbLine
10
28.675813965609773
20
57.54321604185521
30
0
11
29.01449293219104
21
57.365792156284733
31
0
0
LINE
5
174
100
AcDbEntity
8
0
100
AcDbLine
10
44.404124702713858
20
70.609638931220971
30
0
11
44.268971182467361
21
70.824298079267706
31
0
0
LINE
5
175
100
AcDbEntity
8
0
100
AcDbLine
10
44.307128406885326
20
68.254475722256302
30
0
11
43.931549978824187
21
68.611338268537338
31
0
0
LINE
5
176
100
AcDbEntity
8
0
100
AcDbLine
10
26.552184461877872
20
82.928804264396732
30
0
11
26.069190494499729
21
83.056215085417776
31
0
0
LINE
5
177
100
AcDbEntity
8
0
100
AcDbLine
10
18.961551310116644
20
69.663662205520026
30
0
11
19.023893559979118
21
69.506803620422332
31
0
0
LINE
5
178
100
AcDbEntity
8
0
100
AcDbLine
10
16.493153077291815
20
76.787421131071568
30
0
11
14.69799283691456
21
75.616165586981907
31
0
0
LINE
5
179
100
AcDbEntity
8
0
100
AcDbLine
10
30.918695604820247
20
74.177648093297108
30
0
11
28.74345571538873
21
69.86452031716415
31
0
0
LINE
5
180
100
AcDbEntity
8
0
100
AcDbLine
10
24.855962447404941
20
69.118942058604844
30
0
11
24.50499139893175
21
70.428783843492496
31
0
0
LINE
5
181
100
AcDbEntity
8
0
100
AcDbLine
10
31.94743232918119
20
56.841893806996744
30
0
11
32.167889811005615
21
56.51821880363795
31
0
0
LINE
5
182
100
AcDbEntity
8
0
100
AcDbLine
10
11.58417449220974
20
64.606610855999222
30
0
11
12.187660172837884
21
65.252555265613253
31
0
0
LINE
5
183
100
AcDbEntity
8
0
100
AcDbLine
10
29.246690212002036
20
80.668286639437667
30
0
11
27.248847247799922
21
80.321868685643921
31
0
0
LINE
5
184
100
AcDbEntity
8
0
100
AcDbLine
10
15.685318941803043
20
80.19502822767123
30
0
11
16.158064075506481
21
80.167915176953244
31
0
0
LINE
5
185
100
AcDbEntity
8
0
100
AcDbLine
10
35.830322609478664
20
58.704320574790927
30
0
11
36.216928533169892
21
58.790449606375425
31
0
0
LINE
5
186
100
AcDbEntity
8
0
100
AcDbLine
10
26.827788366942006
20
82.760992310255773
30
0
11
26.552184461877872
21
82.928804264396732
31
0
0
LINE
5
187
100
AcDbEntity
8
0
100
AcDbLine
10
31.914810320119422
20
60.230247398637673
30
0
11
32.488200407614187
21
59.932791799808555
31
0
0
LINE
5
188
100
AcDbEntity
8
0
100
AcDbLine
10
27.269433036047616
20
83.189548748303309
30
0
11
27.081826368030018
21
82.896735852143564
31
0
0
LINE
5
189
100
AcDbEntity
8
0
100
AcDbLine
10
30.782946391649851
20
80.997455307254313
30
0
11
30.677555474371939
21
81.624083570992809
31
0
0
LINE
5
190
100
AcDbEntity
8
0
100
AcDbLine
10
40.009123264057266
20
63.826520002980928
30
0
11
40.626460645762194
21
63.991057969886285
31
0
0
LINE
5
191
100
AcDbEntity
8
0
100
AcDbLine
10
30.911459395130958
20
58.855010778853263
30
0
11
31.914810320119422
21
60.230247398637673
31
0
0
LINE
5
192
100
AcDbEntity
8
0
100
AcDbLine
10
20.204188316035978
20
80.842610888117505
30
0
11
19.735293425188338
21
81.143103476883311
31
0
0
LINE
5
193
100
AcDbEntity
8
0
100
AcDbLine
10
43.831494694809273
20
71.288656170750514
30
0
11
43.176752509379511
21
71.838199912445504
31
0
0
LINE
5
194
100
AcDbEntity
8
0
100
AcDbLine
10
43.458822477367448
20
67.433844790709614
30
0
11
44.086314431628999
21
67.704463653252859
31
0
0
LINE
5
195
100
AcDbEntity
8
0
100
AcDbLine
10
15.12807132578666
20
76.675655162636673
30
0
11
14.52262928846422
21
77.687992180057591
31
0
0
LINE
5
196
100
AcDbEntity
8
0
100
AcDbLine
10
36.500246388571846
20
59.716070386420753
30
0
11
36.437934009007044
21
61.249871025249092
31
0
0
LINE
5
197
100
AcDbEntity
8
0
100
AcDbLine
10
22.119285507617377
20
64.666359887949866
30
0
11
18.524013220413767
21
64.438378344994717
31
0
0
LINE
5
198
100
AcDbEntity
8
0
100
AcDbLine
10
11.88612496243959
20
62.134452142942692
30
0
11
11.630365728454517
21
62.34339986314108
31
0
0
LINE
5
199
100
AcDbEntity
8
0
100
AcDbLine
10
17.879024063650501
20
56.704418910081273
30
0
11
17.660163175481522
21
55.554902978457463
31
0
0
LINE
5
200
100
AcDbEntity
8
0
100
AcDbLine
10
15.589577835932488
20
55.502943336195713
30
0
11
15.88579894549822
21
55.494152251982108
31
0
0
LINE
5
201
100
AcDbEntity
8
0
100
AcDbLine
10
23.268158099347822
20
79.448113723014131
30
0
11
21.683441175396823
21
79.01489167880969
31
0
0
LINE
5
202
100
AcDbEntity
8
0
100
AcDbLine
10
23.929099299527955
20
55.479300715242161
30
0
11
25.473720665444443
21
56.731953242010135
31
0
0
LINE
5
203
100
AcDbEntity
8
0
100
AcDbLine
10
31.172521720278297
20
59.189349226917763
30
0
11
31.555699492579663
21
57.803820174433433
31
0
0
LINE
5
204
100
AcDbEntity
8
0
100
AcDbLine
10
42.620254101543225
20
76.820073885077647
30
0
11
42.821489470884224
21
77.298467581112234
31
0
0
LINE
5
205
100
AcDbEntity
8
0
100
AcDbLine
10
30.057938748201035
20
57.870751974565813
30
0
11
30.911459395130958
21
58.855010778853263
31
0
0
LINE
5
206
100
AcDbEntity
8
0
100
AcDbLine
10
39.339550253233263
20
81.821208538734311
30
0
11
39.088623755472511
21
81.782866633451974
31
0
0
LINE
5
207
100
AcDbEntity
8
0
100
AcDbLine
10
19.256094904749681
20
81.324310492744942
30
0
11
18.784009975602988
21
81.338395952581166
31
0
0
LINE
5
208
100
AcDbEntity
8
0
100
AcDbLine
10
15.287455868902416
20
80.123281952001264
30
0
11
15.685318941803043
21
80.19502822767123
31
0
0
LINE
5
209
100
AcDbEntity
8
0
100
AcDbLine
10
30.383529819213702
20
80.759107092919379
30
0
11
29.246690212002036
21
80.668286639437667
31
0
0
LINE
5
210
100
AcDbEntity
8
0
100
AcDbLine
10
33.030756803660189
20
56.762742104145119
30
0
11
33.836292321846734
21
57.637203714575705
31
0
0
LINE
5
211
100
AcDbEntity
8
0
100
AcDbLine
10
13.681702577004636
20
62.165150073158642
30
0
11
13.096554449174398
21
61.992214765765212
31
0
0
LINE
5
212
100
AcDbEntity
8
0
100
AcDbLine
10
43.52521520887565
20
72.311029410018918
30
0
11
43.650650897161334
21
72.591812569224658
31
0
0
LINE
5
213
100
AcDbEntity
8
0
100
AcDbLine
10
39.690336222209538
20
62.196249235905661
30
0
11
40.384812508233814
21
61.139293553576401
31
0
0
LINE
5
214
100
AcDbEntity
8
0
100
AcDbLine
10
36.243772903749012
20
62.687024407382239
30
0
11
36.13154550936018
21
63.322703665808213
31
0
0
LINE
5
215
100
AcDbEntity
8
0
100
AcDbLine
10
26.069190494499729
20
83.056215085417776
30
0
11
25.359453066724949
21
83.018635591897379
31
0
0
LINE
5
216
100
AcDbEntity
8
0
100
AcDbLine
10
28.001654613813361
20
58.165399965262694
30
0
11
28.675813965609773
21
57.54321604185521
31
0
0
LINE
5
217
100
AcDbEntity
8
0
100
AcDbLine
10
36.13154550936018
20
63.322703665808213
30
0
11
38.366194725513992
21
63.557982369492059
31
0
0
LINE
5
218
100
AcDbEntity
8
0
100
AcDbLine
10
31.549415134939679
20
80.761675617383375
30
0
11
30.383529819213702
21
80.759107092919379
31
0
0
LINE
5
219
100
AcDbEntity
8
0
100
AcDbLine
10
43.203304691999207
20
73.106682457589031
30
0
11
42.215560249823774
21
73.616277825342976
31
0
0
LINE
5
220
100
AcDbEntity
8
0
100
AcDbLine
10
12.187660172837884
20
65.252555265613253
30
0
11
12.85318138802449
21
65.715313909439288
31
0
0
LINE
5
221
100
AcDbEntity
8
0
100
AcDbLine
10
13.480160283882512
20
74.433276728051482
30
0
11
13.083299394796818
21
73.791580296004497
31
0
0
LINE
5
222
100
AcDbEntity
8
0
100
AcDbLine
10
42.202007527125858
20
71.219742149678751
30
0
11
43.196822837229547
21
71.968344090877935
31
0
0
LINE
5
223
100
AcDbEntity
8
0
100
AcDbLine
10
26.860698842238634
20
81.524263081470934
30
0
11
26.95586767536399
21
80.845733285860291
31
0
0
LINE
5
224
100
AcDbEntity
8
0
100
AcDbLine
10
17.772720838544071
20
54.352892077074117
30
0
11
18.002724276438752
21
54.525858557127819
31
0
0
LINE
5
225
100
AcDbEntity
8
0
100
AcDbLine
10
14.306893156798781
20
78.297978748769424
30
0
11
14.24950336900708
21
78.914329211425922
31
0
0
LINE
5
226
100
AcDbEntity
8
0
100
AcDbLine
10
21.711655063142842
20
61.328664140876256
30
0
11
19.839398785011955
21
60.804980470426734
31
0
0
LINE
5
227
100
AcDbEntity
8
0
100
AcDbLine
10
11.123565328894108
20
63.536305874314813
30
0
11
11.192805807006888
21
63.888147501464658
31
0
0
LINE
5
228
100
AcDbEntity
8
0
100
AcDbLine
10
44.389935437959814
20
68.098595965041412
30
0
11
44.307128406885326
21
68.254475722256302
31
0
0
LINE
5
229
100
AcDbEntity
8
0
100
AcDbLine
10
38.366194725513992
20
63.557982369492059
30
0
11
40.009123264057266
21
63.826520002980928
31
0
0
LINE
5
230
100
AcDbEntity
8
0
100
AcDbLine
10
38.735712725081541
20
81.652450723178703
30
0
11
37.779391367300185
21
80.982796052988164
31
0
0
LINE
5
231
100
AcDbEntity
8
0
100
AcDbLine
10
18.002724276438752
20
54.525858557127819
30
0
11
18.587932679929374
21
55.105413161572052
31
0
0
LINE
5
232
100
AcDbEntity
8
0
100
AcDbLine
10
13.083299394796818
20
73.791580296004497
30
0
11
12.81113963051425
21
73.122484809873967
31
0
0
LINE
5
233
100
AcDbEntity
8
0
100
AcDbLine
10
12.590908806198573
20
71.720406539687801
30
0
11
12.617833226240124
21
70.996577454383228
31
0
0
LINE
5
234
100
AcDbEntity
8
0
100
AcDbLine
10
40.563082488268051
20
60.717086378969761
30
0
11
40.551220638772314
21
60.440851014620158
31
0
0
LINE
5
235
100
AcDbEntity
8
0
100
AcDbLine
10
30.834896022695016
20
80.373112495740173
30
0
11
30.782946391649851
21
80.997455307254313
31
0
0
LINE
5
236
100
AcDbEntity
8
0
100
AcDbLine
10
44.441227581725911
20
70.431390266988629
30
0
11
44.404124702713858
21
70.609638931220971
31
0
0
LINE
5
237
100
AcDbEntity
8
0
100
AcDbLine
10
21.810105478491842
20
54.270643978291702
30
0
11
21.964521467148053
21
54.188810157188563
31
0
0
LINE
5
238
100
AcDbEntity
8
0
100
AcDbLine
10
14.624963347548244
20
79.747675883822836
30
0
11
14.910829209863399
21
79.977575119838662
31
0
0
LINE
5
239
100
AcDbEntity
8
0
100
AcDbLine
10
19.568387153470375
20
55.416523893296549
30
0
11
19.739551989506456
21
55.08882229140638
31
0
0
LINE
5
240
100
AcDbEntity
8
0
100
AcDbLine
10
44.130549056424179
20
70.09858914447652
30
0
11
44.345609020488943
21
70.269668465519089
31
0
0
LINE
5
241
100
AcDbEntity
8
0
100
AcDbLine
10
18.524013220413767
20
64.438378344994717
30
0
11
16.036533958833793
21
64.457668969904418
31
0
0
LINE
5
242
100
AcDbEntity
8
0
100
AcDbLine
10
21.628370989432092
20
79.404483236269897
30
0
11
21.041394682847919
21
80.075107972871805
31
0
0
LINE
5
243
100
AcDbEntity
8
0
100
AcDbLine
10
42.215560249823774
20
73.616277825342976
30
0
11
40.777713438905813
21
74.161420741147893
31
0
0
LINE
5
244
100
AcDbEntity
8
0
100
AcDbLine
10
12.617833226240124
20
70.996577454383228
30
0
11
12.719446452435045
21
70.26365782167575
31
0
0
LINE
5
245
100
AcDbEntity
8
0
100
AcDbLine
10
24.762093683506482
20
82.771914551149166
30
0
11
24.384018601143591
21
82.354619163838976
31
0
0
LINE
5
246
100
AcDbEntity
8
0
100
AcDbLine
10
14.52262928846422
20
77.687992180057591
30
0
11
14.306893156798781
21
78.297978748769424
31
0
0
LINE
5
247
100
AcDbEntity
8
0
100
AcDbLine
10
18.336457464742438
20
81.137525297492061
30
0
11
17.944235799991606
21
80.70454725160414
31
0
0
LINE
5
248
100
AcDbEntity
8
0
100
AcDbLine
10
14.591770347837862
20
64.577123257866106
30
0
11
14.124644085097501
21
64.649632455600582
31
0
0
LINE
5
249
100
AcDbEntity
8
0
100
AcDbLine
10
23.390164335037955
20
57.770210955855276
30
0
11
24.97552049338222
21
57.005597760049795
31
0
0
LINE
5
250
100
AcDbEntity
8
0
100
AcDbLine
10
18.948194953899215
20
70.045246371308181
30
0
11
18.961551310116644
21
69.663662205520026
31
0
0
LINE
5
251
100
AcDbEntity
8
0
100
AcDbLine
10
39.490807664766258
20
80.883821260602502
30
0
11
39.471046370961126
21
81.730815282856241
31
0
0
LINE
5
252
100
AcDbEntity
8
0
100
AcDbLine
10
39.785333658585692
20
60.263351612282989
30
0
11
38.428346271702829
21
60.35221448143367
31
0
0
LINE
5
253
100
AcDbEntity
8
0
100
AcDbLine
10
35.248274635202989
20
58.797955610352176
30
0
11
35.830322609478664
21
58.704320574790927
31
0
0
LINE
5
254
100
AcDbEntity
8
0
100
AcDbLine
10
11.630365728454517
20
62.34339986314108
30
0
11
11.431488759636412
21
62.60370868395767
31
0
0
LINE
5
255
100
AcDbEntity
8
0
100
AcDbLine
10
27.35008765941263
20
56.930378906201213
30
0
11
27.39356466513609
21
57.853482371123384
31
0
0
LINE
5
256
100
AcDbEntity
8
0
100
AcDbLine
10
16.752385683302407
20
66.947595208859951
30
0
11
16.431087876212835
21
68.265387914813147
31
0
0
LINE
5
257
100
AcDbEntity
8
0
100
AcDbLine
10
26.702438220762904
20
56.404072811637405
30
0
11
27.044669589536866
21
56.410569869588876
31
0
0
LINE
5
258
100
AcDbEntity
8
0
100
AcDbLine
10
18.784009975602988
20
81.338395952581166
30
0
11
18.336457464742438
21
81.137525297492061
31
0
0
LINE
5
259
100
AcDbEntity
8
0
100
AcDbLine
10
34.220447161413496
20
78.099857523806151
30
0
11
32.935366705878543
21
76.840435833990611
31
0
0
LINE
5
260
100
AcDbEntity
8
0
100
AcDbLine
10
17.561955524919618
20
54.739357530866897
30
0
11
17.566806329239288
21
54.452614810132232
31
0
0
LINE
5
261
100
AcDbEntity
8
0
100
AcDbLine
10
30.677555474371939
20
81.624083570992809
30
0
11
30.483260946111216
21
82.323638979220078
31
0
0
LINE
5
262
100
AcDbEntity
8
0
100
AcDbLine
10
11.192805807006888
20
63.888147501464658
30
0
11
11.58417449220974
21
64.606610855999222
31
0
0
LINE
5
263
100
AcDbEntity
8
0
100
AcDbLine
10
40.626460645762194
20
63.991057969886285
30
0
11
40.97989281767245
21
64.172935224289205
31
0
0
LINE
5
264
100
AcDbEntity
8
0
100
AcDbLine
10
29.326004358294085
20
57.341876251430783
30
0
11
29.660078663254041
21
57.518775292695146
31
0
0
LINE
5
265
100
AcDbEntity
8
0
100
AcDbLine
10
26.95586767536399
20
80.845733285860291
30
0
11
27.102974615773704
21
80.270200396041034
31
0
0
LINE
5
266
100
AcDbEntity
8
0
100
AcDbLine
10
44.268971182467361
20
70.824298079267706
30
0
11
43.831494694809273
21
71.288656170750514
31
0
0
LINE
5
267
100
AcDbEntity
8
0
100
AcDbLine
10
28.277655745671687
20
83.800466256558195
30
0
11
27.859358404393085
21
83.650588124616277
31
0
0
LINE
5
268
100
AcDbEntity
8
0
100
AcDbLine
10
24.182189464244335
20
81.82946204444093
30
0
11
24.113566956839843
21
81.259157537773646
31
0
0
LINE
5
269
100
AcDbEntity
8
0
100
AcDbLine
10
26.881380949856023
20
82.232395429450548
30
0
11
26.860698842238634
21
81.524263081470934
31
0
0
LINE
5
270
100
AcDbEntity
8
0
100
AcDbLine
10
40.384812508233814
20
61.139293553576401
30
0
11
40.563082488268051
21
60.717086378969761
31
0
0
LWPOLYLINE
5
271
100
AcDbEntity
8
0
100
AcDbPolyline
90
1
70
1
43
0.0
10
21.016676566951102
20
68.473492596041183
0
LINE
5
272
100
AcDbEntity
8
0
100
AcDbLine
10
27.248847247799922
20
80.321868685643921
30
0
11
24.740027244158661
21
79.786451344476575
31
0
0
LINE
5
273
100
AcDbEntity
8
0
100
AcDbLine
10
19.041294501932274
20
70.278595899798745
30
0
11
18.948194953899215
21
70.045246371308181
31
0
0
LINE
5
274
100
AcDbEntity
8
0
100
AcDbLine
10
35.723434753326472
20
68.228543260171804
30
0
11
34.171582514500287
21
69.081394548527598
31
0
0
LINE
5
275
100
AcDbEntity
8
0
100
AcDbLine
10
39.330327309152715
20
77.968202591188458
30
0
11
39.43779695475461
21
79.619210512965353
31
0
0
LINE
5
276
100
AcDbEntity
8
0
100
AcDbLine
10
27.39356466513609
20
57.853482371123384
30
0
11
27.25904236444611
21
59.126798885824726
31
0
0
LINE
5
277
100
AcDbEntity
8
0
100
AcDbLine
10
29.431583378420495
20
83.718708972691047
30
0
11
29.097259912709163
21
83.83453534031085
31
0
0
LINE
5
278
100
AcDbEntity
8
0
100
AcDbLine
10
15.808367624520027
20
57.955565369568504
30
0
11
15.511528374097278
21
56.385257660569089
31
0
0
LINE
5
279
100
AcDbEntity
8
0
100
AcDbLine
10
36.903079698289957
20
74.50841528877217
30
0
11
34.924637386012456
21
73.945197559990518
31
0
0
LINE
5
280
100
AcDbEntity
8
0
100
AcDbLine
10
12.20895216006509
20
61.994509707096704
30
0
11
11.88612496243959
21
62.134452142942692
31
0
0
LINE
5
281
100
AcDbEntity
8
0
100
AcDbLine
10
41.046821826561846
20
64.412271636960298
30
0
11
40.909137083712622
21
64.728312556482436
31
0
0
LINE
5
282
100
AcDbEntity
8
0
100
AcDbLine
10
42.821489470884224
20
77.298467581112234
30
0
11
42.840928999916343
21
77.629661666242313
31
0
0
LINE
5
283
100
AcDbEntity
8
0
100
AcDbLine
10
43.196822837229547
20
71.968344090877935
30
0
11
43.52521520887565
21
72.311029410018918
31
0
0
LINE
5
284
100
AcDbEntity
8
0
100
AcDbLine
10
42.613566393074024
20
69.409306068856452
30
0
11
43.505080243137158
21
69.766481282500436
31
0
0
LINE
5
285
100
AcDbEntity
8
0
100
AcDbLine
10
25.030672748820479
20
82.920516538291935
30
0
11
24.762093683506482
21
82.771914551149166
31
0
0
LINE
5
286
100
AcDbEntity
8
0
100
AcDbLine
10
21.932386302814237
20
70.361963811719448
30
0
11
21.879828776087017
21
70.522061892659707
31
0
0
LINE
5
287
100
AcDbEntity
8
0
100
AcDbLine
10
31.555699492579663
20
57.803820174433433
30
0
11
31.94743232918119
21
56.841893806996744
31
0
0
LINE
5
288
100
AcDbEntity
8
0
100
AcDbLine
10
31.795803090998703
20
75.516159277941696
30
0
11
30.918695604820247
21
74.177648093297108
31
0
0
LINE
5
289
100
AcDbEntity
8
0
100
AcDbLine
10
20.790807337916387
20
55.395582518092461
30
0
11
21.935549498643617
21
56.361543513785712
31
0
0
LINE
5
290
100
AcDbEntity
8
0
100
AcDbLine
10
27.525947218108321
20
83.443890799183166
30
0
11
27.269433036047616
21
83.189548748303309
31
0
0
LINE
5
291
100
AcDbEntity
8
0
100
AcDbLine
10
20.110461288754191
20
70.948645617080956
30
0
11
19.589864602043118
21
70.746981418820056
31
0
0
LINE
5
292
100
AcDbEntity
8
0
100
AcDbLine
10
13.096554449174398
20
61.992214765765212
30
0
11
12.609033144037623
21
61.941216275692881
31
0
0
LINE
5
293
100
AcDbEntity
8
0
100
AcDbLine
10
17.53945852735275
20
78.757503600841673
30
0
11
17.825598217486966
21
77.599038169875328
31
0
0
LINE
5
294
100
AcDbEntity
8
0
100
AcDbLine
10
42.840928999916343
20
77.629661666242313
30
0
11
42.620731920177249
21
77.826353707097539
31
0
0
LINE
5
295
100
AcDbEntity
8
0
100
AcDbLine
10
27.081826368030018
20
82.896735852143564
30
0
11
26.881380949856023
21
82.232395429450548
31
0
0
LINE
5
296
100
AcDbEntity
8
0
100
AcDbLine
10
16.036533958833793
20
64.457668969904418
30
0
11
14.591770347837862
21
64.577123257866106
31
0
0
LINE
5
297
100
AcDbEntity
8
0
100
AcDbLine
10
26.201519531150268
20
56.527621908092314
30
0
11
26.702438220762904
21
56.404072811637405
31
0
0
LINE
5
298
100
AcDbEntity
8
0
100
AcDbLine
10
17.982572782950676
20
77.641902917883741
30
0
11
18.364625053037923
21
77.256599299171555
31
0
0
LINE
5
299
100
AcDbEntity
8
0
100
AcDbLine
10
19.361874062922869
20
56.405588077213935
30
0
11
19.568387153470375
21
55.416523893296549
31
0
0
LINE
5
300
100
AcDbEntity
8
0
100
AcDbLine
10
32.935366705878543
20
76.840435833990611
30
0
11
31.795803090998703
21
75.516159277941696
31
0
0
LINE
5
301
100
AcDbEntity
8
0
100
AcDbLine
10
18.587932679929374
20
55.105413161572052
30
0
11
19.363262259633405
21
55.985213699387273
31
0
0
LINE
5
302
100
AcDbEntity
8
0
100
AcDbLine
10
42.620731920177249
20
77.826353707097539
30
0
11
42.190493983797552
21
77.950201216796003
31
0
0
LINE
5
303
100
AcDbEntity
8
0
100
AcDbLine
10
44.387018057430403
20
67.963111241389726
30
0
11
44.389935437959814
21
68.098595965041412
31
0
0
LINE
5
304
100
AcDbEntity
8
0
100
AcDbLine
10
14.195235469439766
20
60.677375310294892
30
0
11
14.311529391216231
21
60.2726850664111
31
0
0
LINE
5
305
100
AcDbEntity
8
0
100
AcDbLine
10
29.097259912709163
20
83.83453534031085
30
0
11
28.713741158095193
21
83.866059874931565
31
0
0
LINE
5
306
100
AcDbEntity
8
0
100
AcDbLine
10
19.966466046400029
20
54.961756882102641
30
0
11
20.310523163506502
21
55.079033355541014
31
0
0
LINE
5
307
100
AcDbEntity
8
0
100
AcDbLine
10
15.463693341593629
20
76.254411150643918
30
0
11
15.12807132578666
21
76.675655162636673
31
0
0
LINE
5
308
100
AcDbEntity
8
0
100
AcDbLine
10
17.46089303467943
20
78.518457662212228
30
0
11
17.672972090116772
21
78.059690198577968
31
0
0
LINE
5
309
100
AcDbEntity
8
0
100
AcDbLine
10
39.471046370961126
20
81.730815282856241
30
0
11
39.339550253233263
21
81.821208538734311
31
0
0
LINE
5
310
100
AcDbEntity
8
0
100
AcDbLine
10
11.163634832697502
20
63.207834804743356
30
0
11
11.123565328894108
21
63.536305874314813
31
0
0
LINE
5
311
100
AcDbEntity
8
0
100
AcDbLine
10
30.173093064655422
20
82.993588314342702
30
0
11
29.720082551436711
21
83.531398483000345
31
0
0
LINE
5
312
100
AcDbEntity
8
0
100
AcDbLine
10
24.740027244158661
20
79.786451344476575
30
0
11
23.268158099347822
21
79.448113723014131
31
0
0
LINE
5
313
100
AcDbEntity
8
0
100
AcDbLine
10
17.627112646305793
20
54.315598350895762
30
0
11
17.772720838544071
21
54.352892077074117
31
0
0
LINE
5
314
100
AcDbEntity
8
0
100
AcDbLine
10
30.483260946111216
20
82.323638979220078
30
0
11
30.173093064655422
21
82.993588314342702
31
0
0
LINE
5
315
100
AcDbEntity
8
0
100
AcDbLine
10
37.779391367300185
20
80.982796052988164
30
0
11
35.534103993802184
21
79.2438047885732
31
0
0
LINE
5
316
100
AcDbEntity
8
0
100
AcDbLine
10
22.276072097965599
20
54.312570754033302
30
0
11
22.74905930768011
21
54.607460330656721
31
0
0
LINE
5
317
100
AcDbEntity
8
0
100
AcDbLine
10
14.124644085097501
20
64.649632455600582
30
0
11
14.076680761554449
21
62.744088808765206
31
0
0
LINE
5
318
100
AcDbEntity
8
0
100
AcDbLine
10
27.238939140273647
20
56.592206362618811
30
0
11
27.35008765941263
21
56.930378906201213
31
0
0
LINE
5
319
100
AcDbEntity
8
0
100
AcDbLine
10
14.766664688228232
20
59.987429791589982
30
0
11
15.465778527045146
21
59.965060678733295
31
0
0
LINE
5
320
100
AcDbEntity
8
0
100
AcDbLine
10
20.662655407206557
20
71.063146618543954
30
0
11
20.110461288754191
21
70.948645617080956
31
0
0
LINE
5
321
100
AcDbEntity
8
0
100
AcDbLine
10
16.367729670979934
20
55.70769366951226
30
0
11
17.611067190698893
21
56.529109028745381
31
0
0
LINE
5
322
100
AcDbEntity
8
0
100
AcDbLine
10
35.534103993802184
20
79.2438047885732
30
0
11
34.220447161413496
21
78.099857523806151
31
0
0
LINE
5
323
100
AcDbEntity
8
0
100
AcDbLine
10
17.611067190698893
20
56.529109028745381
30
0
11
19.272098180126115
21
57.840632564083741
31
0
0
LINE
5
324
100
AcDbEntity
8
0
100
AcDbLine
10
14.425726459177181
20
79.489907125165701
30
0
11
14.624963347548244
21
79.747675883822836
31
0
0
LINE
5
325
100
AcDbEntity
8
0
100
AcDbLine
10
21.041394682847919
20
80.075107972871805
30
0
11
20.204188316035978
21
80.842610888117505
31
0
0
LINE
5
326
100
AcDbEntity
8
0
100
AcDbLine
10
36.216928533169892
20
58.790449606375425
30
0
11
36.415152671504629
21
59.133185842626553
31
0
0
LINE
5
327
100
AcDbEntity
8
0
100
AcDbLine
10
33.802360219663228
20
59.317048772604963
30
0
11
35.248274635202989
21
58.797955610352176
31
0
0
LINE
5
328
100
AcDbEntity
8
0
100
AcDbLine
10
22.112516497463218
20
56.429479030016047
30
0
11
21.82852671072893
21
55.290277969776312
31
0
0
LINE
5
329
100
AcDbEntity
8
0
100
AcDbLine
10
27.102974615773704
20
80.270200396041034
30
0
11
27.297354887645042
21
79.721701174643329
31
0
0
LINE
5
330
100
AcDbEntity
8
0
100
AcDbLine
10
25.359453066724949
20
83.018635591897379
30
0
11
25.030672748820479
21
82.920516538291935
31
0
0
LINE
5
331
100
AcDbEntity
8
0
100
AcDbLine
10
15.485893420028594
20
55.810645325721751
30
0
11
15.589577835932488
21
55.502943336195713
31
0
0
LINE
5
332
100
AcDbEntity
8
0
100
AcDbLine
10
41.675793052342385
20
66.913969951971822
30
0
11
43.458822477367448
21
67.433844790709614
31
0
0
LINE
5
333
100
AcDbEntity
8
0
100
AcDbLine
10
19.589864602043118
20
70.746981418820056
30
0
11
19.244329832915493
21
70.518069660818071
31
0
0
LINE
5
334
100
AcDbEntity
8
0
100
AcDbLine
10
32.697170939332068
20
80.65099591943283
30
0
11
31.549415134939679
21
80.761675617383375
31
0
0
LINE
5
335
100
AcDbEntity
8
0
100
AcDbLine
10
12.719446452435045
20
70.26365782167575
30
0
11
13.096730034968086
21
68.788855238843055
31
0
0
LINE
5
336
100
AcDbEntity
8
0
100
AcDbLine
10
43.505080243137158
20
69.766481282500436
30
0
11
44.130549056424179
21
70.09858914447652
31
0
0
LINE
5
337
100
AcDbEntity
8
0
100
AcDbLine
10
26.491454695649935
20
61.470338763235823
30
0
11
27.091956929010127
21
62.342837863770306
31
0
0
LINE
5
338
100
AcDbEntity
8
0
100
AcDbLine
10
29.660078663254041
20
57.518775292695146
30
0
11
30.057938748201035
21
57.870751974565813
31
0
0
LINE
5
339
100
AcDbEntity
8
0
100
AcDbLine
10
26.071857107933049
20
66.343894749522264
30
0
11
25.405994828248847
21
65.850054015156303
31
0
0
LINE
5
340
100
AcDbEntity
8
0
100
AcDbLine
10
28.713741158095193
20
83.866059874931565
30
0
11
28.277655745671687
21
83.800466256558195
31
0
0
LINE
5
341
100
AcDbEntity
8
0
100
AcDbLine
10
27.859358404393085
20
83.650588124616277
30
0
11
27.525947218108321
21
83.443890799183166
31
0
0
LINE
5
342
100
AcDbEntity
8
0
100
AcDbLine
10
27.091956929010127
20
62.342837863770306
30
0
11
27.574187430527509
21
63.315954445126444
31
0
0
LINE
5
343
100
AcDbEntity
8
0
100
AcDbLine
10
22.74905930768011
20
54.607460330656721
30
0
11
23.929099299527955
21
55.479300715242161
31
0
0
LINE
5
344
100
AcDbEntity
8
0
100
AcDbLine
10
40.777713438905813
20
74.161420741147893
30
0
11
41.899723344056795
21
75.657607604479821
31
0
0
LINE
5
345
100
AcDbEntity
8
0
100
AcDbLine
10
24.113566956839843
20
81.259157537773646
30
0
11
24.203789269659836
21
80.233961026615646
31
0
0
LINE
5
346
100
AcDbEntity
8
0
100
AcDbLine
10
17.429579579634741
20
79.592921076710326
30
0
11
17.371404964671179
21
79.026702632800124
31
0
0
LINE
5
347
100
AcDbEntity
8
0
100
AcDbLine
10
19.735293425188338
20
81.143103476883311
30
0
11
19.256094904749681
21
81.324310492744942
31
0
0
LINE
5
348
100
AcDbEntity
8
0
100
AcDbLine
10
16.387578508504276
20
60.122968653471645
30
0
11
15.808367624520027
21
57.955565369568504
31
0
0
LINE
5
349
100
AcDbEntity
8
0
100
AcDbLine
10
15.511528374097278
20
56.385257660569089
30
0
11
15.485893420028594
21
55.810645325721751
31
0
0
LINE
5
350
100
AcDbEntity
8
0
100
AcDbLine
10
36.415152671504629
20
59.133185842626553
30
0
11
36.500246388571846
21
59.716070386420753
31
0
0
LINE
5
351
100
AcDbEntity
8
0
100
AcDbLine
10
27.25904236444611
20
59.126798885824726
30
0
11
28.001654613813361
21
58.165399965262694
31
0
0
LINE
5
352
100
AcDbEntity
8
0
100
AcDbLine
10
17.660485300313852
20
80.225610069490187
30
0
11
17.429579579634741
21
79.592921076710326
31
0
0
LINE
5
353
100
AcDbEntity
8
0
100
AcDbLine
10
18.271844602231727
20
77.720394510072197
30
0
11
16.493153077291815
21
76.787421131071568
31
0
0
LINE
5
354
100
AcDbEntity
8
0
100
AcDbLine
10
14.303709169260131
20
79.210160677655921
30
0
11
14.425726459177181
21
79.489907125165701
31
0
0
LINE
5
355
100
AcDbEntity
8
0
100
AcDbLine
10
23.890016957919535
20
65.072144403108808
30
0
11
23.037176444632493
21
64.81580421576237
31
0
0
LINE
5
356
100
AcDbEntity
8
0
100
AcDbLine
10
39.088623755472511
20
81.782866633451974
30
0
11
38.735712725081541
21
81.652450723178703
31
0
0
LINE
5
357
100
AcDbEntity
8
0
100
AcDbLine
10
14.311529391216231
20
60.2726850664111
30
0
11
14.489719264231866
21
60.088040384216015
31
0
0
LINE
5
358
100
AcDbEntity
8
0
100
AcDbLine
10
21.964521467148053
20
54.188810157188563
30
0
11
22.276072097965599
21
54.312570754033302
31
0
0
LINE
5
359
100
AcDbEntity
8
0
100
AcDbLine
10
13.096730034968086
20
68.788855238843055
30
0
11
13.6227376074196
21
67.3326150347837
31
0
0
LINE
5
360
100
AcDbEntity
8
0
100
AcDbLine
10
16.158064075506481
20
80.167915176953244
30
0
11
16.657077991626728
21
79.968350769945459
31
0
0
LINE
5
361
100
AcDbEntity
8
0
100
AcDbLine
10
41.899723344056795
20
75.657607604479821
30
0
11
42.620254101543225
21
76.820073885077647
31
0
0
LINE
5
362
100
AcDbEntity
8
0
100
AcDbLine
10
44.086314431628999
20
67.704463653252859
30
0
11
44.387018057430403
21
67.963111241389726
31
0
0
LINE
5
363
100
AcDbEntity
8
0
100
AcDbLine
10
24.203789269659836
20
80.233961026615646
30
0
11
24.310376245093401
21
79.780737840235162
31
0
0
LINE
5
364
100
AcDbEntity
8
0
100
AcDbLine
10
21.683441175396823
20
79.01489167880969
30
0
11
20.009972128369732
21
78.450934772456961
31
0
0
ENDSEC
0
SECTION
2
OBJECTS
0
DICTIONARY
5
C
100
AcDbDictionary
3
ACAD_GROUP
350
D
3
ACAD_MLINESTYLE
350
17
0
DICTIONARY
5
D
100
AcDbDictionary
0
DICTIONARY
5
1A
330
C
100
AcDbDictionary
0
DICTIONARY
5
17
100
AcDbDictionary
0
ENDSEC
0
EOF
