0
SECTION
2
HEADER
9
$INSUNITS
70
4
9
$ACADVER
1
AC1014
9
$HANDSEED
5
FFFF
0
ENDSEC
0
SECTION
2
TABLES
0
TABLE
2
VPORT
5
8
100
AcDbSymbolTable
0
ENDTAB
0
TABLE
2
LTYPE
5
5
100
AcDbSymbolTable
0
LTYPE
5
14
100
AcDbSymbolTableRecord
100
AcDbLinetypeTableRecord
2
BYBLOCK
70
0
0
LTYPE
5
15
100
AcDbSymbolTableRecord
100
AcDbLinetypeTableRecord
2
BYLAYER
70
0
0
ENDTAB
0
TABLE
2
LAYER
5
2
100
AcDbSymbolTable
70
2
0
LAYER
5
50
100
AcDbSymbolTableRecord
100
AcDbLayerTableRecord
2
0
70
0
6
CONTINUOUS
0
ENDTAB
0
TABLE
2
STYLE
5
3
100
AcDbSymbolTable
70
1
0
STYLE
5
11
100
AcDbSymbolTableRecord
100
AcDbTextStyleTableRecord
2
STANDARD
70
0
0
ENDTAB
0
TABLE
2
VIEW
5
6
100
AcDbSymbolTable
70
0
0
ENDTAB
0
TABLE
2
UCS
5
7
100
AcDbSymbolTable
70
0
0
ENDTAB
0
TABLE
2
APPID
5
9
100
AcDbSymbolTable
70
2
0
APPID
5
12
100
AcDbSymbolTableRecord
100
AcDbRegAppTableRecord
2
ACAD
70
0
0
ENDTAB
0
TABLE
2
DIMSTYLE
5
A
100
AcDbSymbolTable
70
1
0
ENDTAB
0
TABLE
2
BLOCK_RECORD
5
1
100
AcDbSymbolTable
70
1
0
BLOCK_RECORD
5
1F
100
AcDbSymbolTableRecord
100
AcDbBlockTableRecord
2
*MODEL_SPACE
0
BLOCK_RECORD
5
1B
100
AcDbSymbolTableRecord
100
AcDbBlockTableRecord
2
*PAPER_SPACE
0
ENDTAB
0
ENDSEC
0
SECTION
2
BLOCKS
0
BLOCK
5
20
100
AcDbEntity
100
AcDbBlockBegin
2
*MODEL_SPACE
0
ENDBLK
5
21
100
AcDbEntity
100
AcDbBlockEnd
0
BLOCK
5
1C
100
AcDbEntity
100
AcDbBlockBegin
2
*PAPER_SPACE
0
ENDBLK
5
1D
100
AcDbEntity
100
AcDbBlockEnd
0
ENDSEC
0
SECTION
2
ENTITIES
0
LWPOLYLINE
5
100
100
AcDbEntity
8
0
100
AcDbPolyline
90
8
70
1
43
0.0
10
202.9375
20
70.174999999999997
10
202.9375
20
83.174999999999983
42
0.41421356237311585
10
202.4375
20
83.67500000000004
10
189.4375
20
83.674999999999997
42
0.41421356237308465
10
188.9375
20
83.174999999999983
10
188.93749999999997
20
70.174999999999997
42
0.41421356237308465
10
189.4375
20
69.674999999999997
10
202.4375
20
69.674999999999997
42
0.41421356237310542
0
LWPOLYLINE
5
101
100
AcDbEntity
8
0
100
AcDbPolyline
90
8
70
1
43
0.0
10
157.33750000000001
20
45.57500000000001
42
0.41421356237308982
10
156.83750000000001
20
45.07500000000001
10
156.83750000000001
20
32.075000000000003
42
0.41421356237309509
10
157.33750000000001
20
31.574999999999992
10
158.33749999999995
20
31.575000000000006
42
0.41421356237311319
10
158.83749999999995
20
32.075000000000003
10
158.83749999999995
20
45.075000000000003
42
0.41421356237310542
10
158.33749999999995
20
45.57500000000001
0
LWPOLYLINE
5
102
100
AcDbEntity
8
0
100
AcDbPolyline
90
8
70
1
43
0.0
10
66.050000000000011
20
12.524999999999999
10
67.049999999999983
20
12.524999999999999
42
0.41421356237297924
10
67.549999999999969
20
13.025
10
67.549999999999983
20
26.024999999999999
42
0.41421356237313928
10
67.049999999999983
20
26.525000000000006
10
66.050000000000011
20
26.525000000000002
42
0.414213562373134
10
65.549999999999997
20
26.024999999999999
10
65.549999999999997
20
13.025
42
0.41421356237314189
0
LWPOLYLINE
5
103
100
AcDbEntity
8
0
100
AcDbPolyline
90
8
70
1
43
0.0
10
228.63124999999997
20
88.724999999999994
42
0.41421356237313667
10
229.13124999999994
20
89.22499999999998
10
229.13125000000002
20
102.22499999999999
42
0.41421356237308465
10
228.63124999999997
20
102.72500000000002
10
215.63124999999999
20
102.72500000000002
42
0.41421356237311585
10
215.13124999999999
20
102.22499999999999
10
215.13124999999999
20
89.224999999999994
42
0.41421356237309509
10
215.63124999999999
20
88.724999999999994
0
LWPOLYLINE
5
104
100
AcDbEntity
8
0
100
AcDbPolyline
90
8
70
1
43
0.0
10
126.23750000000001
20
83.674999999999997
10
113.23750000000001
20
83.674999999999997
42
0.41421356237313667
10
112.7375
20
83.174999999999983
10
112.7375
20
70.174999999999997
42
0.41421356237313145
10
113.23750000000001
20
69.674999999999997
10
126.23750000000001
20
69.674999999999997
42
0.41421356237300661
10
126.73750000000001
20
70.174999999999997
10
126.73750000000001
20
83.174999999999983
42
0.41421356237313667
0
LWPOLYLINE
5
105
100
AcDbEntity
8
0
100
AcDbPolyline
90
8
70
1
43
0.0
10
263.11250000000001
20
83.67500000000004
10
262.11250000000001
20
83.67500000000004
42
0.41421356237309509
10
261.61250000000001
20
83.175000000000026
10
261.61250000000001
20
70.174999999999997
42
0.41421356237313667
10
262.11250000000001
20
69.674999999999997
10
263.11250000000001
20
69.674999999999997
42
0.41421356237313667
10
263.61250000000001
20
70.174999999999997
10
263.61249999999995
20
83.175000000000026
42
0.41421356237310542
0
LWPOLYLINE
5
106
100
AcDbEntity
8
0
100
AcDbPolyline
90
8
70
1
43
0.0
10
195.4375
20
31.574999999999992
10
196.43749999999997
20
31.575000000000006
42
0.41421356237309243
10
196.93749999999997
20
32.075000000000003
10
196.9375
20
45.075000000000003
42
0.41421356237307944
10
196.43749999999997
20
45.57500000000001
10
195.43749999999994
20
45.57500000000001
42
0.414213562373069
10
194.9375
20
45.075000000000003
10
194.9375
20
32.075000000000003
42
0.41421356237308982
0
LWPOLYLINE
5
107
100
AcDbEntity
8
0
100
AcDbPolyline
90
8
70
1
43
0.0
10
175.09325000000001
20
86.725000000000023
10
169.09325000000001
20
86.724999999999994
42
-0.41421356237306384
10
168.59324999999998
20
87.22499999999998
10
168.59324999999998
20
101.22500000000002
42
-0.41421356237308465
10
169.09325000000001
20
101.72500000000002
10
175.09325000000004
20
101.72500000000002
42
-0.41421356237307422
10
175.59325000000001
20
101.22500000000002
10
175.59325000000001
20
87.22499999999998
42
-0.41421356237311585
0
LWPOLYLINE
5
108
100
AcDbEntity
8
0
100
AcDbPolyline
90
8
70
1
43
0.0
10
210.72500000000002
20
64.625000000000028
10
209.72500000000002
20
64.625
42
0.41421356237311063
10
209.22499999999999
20
64.125000000000014
10
209.22500000000002
20
51.125
42
0.41421356237308982
10
209.72500000000002
20
50.625
10
210.72500000000002
20
50.625
42
0.41421356237308982
10
211.22500000000002
20
51.125
10
211.22500000000002
20
64.125000000000014
42
0.4142135623731002
0
LWPOLYLINE
5
109
100
AcDbEntity
8
0
100
AcDbPolyline
90
8
70
1
43
0.0
10
171.12499999999997
20
51.125
42
0.41421356237308465
10
171.625
20
50.624999999999993
10
172.62500000000003
20
50.625
42
0.414213562373069
10
173.125
20
51.125
10
173.125
20
64.125000000000014
42
0.4142135623731002
10
172.625
20
64.625000000000028
10
171.625
20
64.625
42
0.41421356237307422
10
171.12499999999997
20
64.125000000000014
0
LWPOLYLINE
5
110
100
AcDbEntity
8
0
100
AcDbPolyline
90
8
70
1
43
0.0
10
146.07499999999999
20
13.024999999999999
42
0.41421356237312629
10
146.57499999999999
20
12.525000000000009
10
159.57499999999999
20
12.524999999999999
42
0.41421356237305601
10
160.07499999999996
20
13.025
10
160.07499999999999
20
26.024999999999999
42
0.41421356237305862
10
159.57499999999999
20
26.525000000000016
10
146.57499999999999
20
26.525000000000002
42
0.41421356237298057
10
146.07499999999999
20
26.024999999999999
0
LWPOLYLINE
5
111
100
AcDbEntity
8
0
100
AcDbPolyline
90
8
70
1
43
0.0
10
133.02499999999998
20
51.125
42
0.4142135623731471
10
133.52499999999998
20
50.624999999999972
10
134.52500000000001
20
50.625
42
0.41421356237306384
10
135.02499999999992
20
51.125
10
135.02500000000001
20
64.125000000000014
42
0.41421356237313667
10
134.52500000000001
20
64.625000000000028
10
133.52499999999998
20
64.625
42
0.41421356237300661
10
133.02499999999998
20
64.125000000000014
0
LWPOLYLINE
5
112
100
AcDbEntity
8
0
100
AcDbPolyline
90
8
70
1
43
0.0
10
57.968749999999929
20
70.174999999999997
42
0.41421356237311585
10
58.468749999999972
20
69.674999999999997
10
71.468749999999943
20
69.674999999999997
42
0.414213562373069
10
71.968749999999986
20
70.174999999999997
10
71.968749999999986
20
83.174999999999983
42
0.41421356237311585
10
71.468749999999943
20
83.674999999999997
10
58.468749999999972
20
83.674999999999983
42
0.4142135623730534
10
57.968749999999915
20
83.174999999999983
0
LWPOLYLINE
5
113
100
AcDbEntity
8
0
100
AcDbPolyline
90
8
70
1
43
0.0
10
185.91250000000002
20
83.67500000000004
42
0.41421356237309509
10
185.41250000000002
20
83.175000000000026
10
185.41250000000005
20
70.174999999999997
42
0.41421356237310542
10
185.91250000000002
20
69.674999999999997
10
186.91249999999997
20
69.674999999999997
42
0.41421356237309509
10
187.41249999999997
20
70.174999999999997
10
187.41250000000002
20
83.175000000000026
42
0.41421356237309509
10
186.91249999999997
20
83.67500000000004
0
LWPOLYLINE
5
114
100
AcDbEntity
8
0
100
AcDbPolyline
90
8
70
1
43
0.0
10
120.2375
20
31.575000000000006
42
0.41421356237301177
10
120.73749999999998
20
32.075000000000003
10
120.73749999999993
20
45.075000000000003
42
0.41421356237305862
10
120.2375
20
45.574999999999974
10
119.23749999999998
20
45.57500000000001
42
0.41421356237308465
10
118.73750000000003
20
45.075000000000003
10
118.73750000000001
20
32.075000000000003
42
0.4142135623730977
10
119.23749999999998
20
31.575000000000024
0
LWPOLYLINE
5
115
100
AcDbEntity
8
0
100
AcDbPolyline
90
8
70
1
43
0.0
10
225.01249999999999
20
83.67500000000004
10
224.01249999999999
20
83.67500000000004
42
0.41421356237311585
10
223.51249999999999
20
83.175000000000026
10
223.51249999999999
20
70.174999999999997
42
0.41421356237313145
10
224.01250000000002
20
69.674999999999997
10
225.01249999999999
20
69.674999999999997
42
0.41421356237310542
10
225.51249999999996
20
70.174999999999997
10
225.51250000000005
20
83.175000000000026
42
0.41421356237307422
0
LWPOLYLINE
5
116
100
AcDbEntity
8
0
100
AcDbPolyline
90
8
70
1
43
0.0
10
141.02499999999995
20
26.024999999999999
42
0.41421356237314189
10
140.52499999999995
20
26.525000000000016
10
127.52500000000001
20
26.525000000000002
42
0.414213562373134
10
127.02500000000001
20
26.024999999999999
10
127.02500000000001
20
13.025
42
0.41421356237312884
10
127.52500000000001
20
12.524999999999999
10
140.52499999999995
20
12.524999999999999
42
0.41421356237313273
10
141.02500000000003
20
13.025
0
LWPOLYLINE
5
117
100
AcDbEntity
8
0
100
AcDbPolyline
90
8
70
1
43
0.0
10
252.94374999999999
20
102.22499999999999
42
0.4142135623731471
10
252.44374999999997
20
102.72500000000002
10
239.44375000000002
20
102.72500000000002
42
0.41421356237309509
10
238.94374999999997
20
102.22499999999999
10
238.94374999999999
20
89.224999999999994
42
0.41421356237309509
10
239.44375000000002
20
88.724999999999994
10
252.44374999999997
20
88.724999999999994
42
0.41421356237312629
10
252.94375000000002
20
89.224999999999994
0
LWPOLYLINE
5
118
100
AcDbEntity
8
0
100
AcDbPolyline
90
8
70
1
43
0.0
10
102.92500000000001
20
26.024999999999999
42
0.41421356237313667
10
102.425
20
26.525000000000006
10
89.424999999999983
20
26.525000000000002
42
0.414213562373134
10
88.924999999999983
20
26.024999999999999
10
88.924999999999983
20
13.025
42
0.41421356237312884
10
89.424999999999983
20
12.524999999999999
10
102.425
20
12.524999999999999
42
0.41421356237297924
10
102.92500000000001
20
13.025
0
LWPOLYLINE
5
119
100
AcDbEntity
8
0
100
AcDbPolyline
90
8
70
1
43
0.0
10
297.6875
20
83.674999999999997
10
284.6875
20
83.674999999999997
42
0.41421356237308465
10
284.1875
20
83.174999999999983
10
284.1875
20
70.174999999999997
42
0.41421356237308982
10
284.6875
20
69.675000000000011
10
297.6875
20
69.674999999999997
42
0.41421356237309509
10
298.1875
20
70.174999999999997
10
298.1875
20
83.174999999999983
42
0.41421356237309509
0
LWPOLYLINE
5
120
100
AcDbEntity
8
0
100
AcDbPolyline
90
8
70
1
43
0.0
10
39.862000000000002
20
14.025
10
39.862000000000002
20
28.025000000000002
42
0.41421356237310802
10
39.361999999999959
20
28.525000000000009
10
33.362000000000016
20
28.524999999999999
42
0.41421356237313145
10
32.862000000000009
20
28.025000000000002
10
32.862000000000009
20
14.025
42
0.41421356237312884
10
33.362000000000016
20
13.525
10
39.361999999999959
20
13.525
42
0.41421356237301565
0
LWPOLYLINE
5
121
100
AcDbEntity
8
0
100
AcDbPolyline
90
8
70
1
43
0.0
10
236.27500000000001
20
13.025
10
236.27500000000001
20
26.024999999999999
42
0.41421356237309509
10
235.77500000000001
20
26.524999999999999
10
222.77500000000001
20
26.525000000000006
42
0.41421356237312101
10
222.27499999999998
20
26.024999999999999
10
222.27499999999995
20
13.025
42
0.41421356237310802
10
222.77500000000001
20
12.524999999999999
10
235.77500000000001
20
12.525000000000002
42
0.4142135623730937
0
LWPOLYLINE
5
122
100
AcDbEntity
8
0
100
AcDbPolyline
90
8
70
1
43
0.0
10
312.47499999999997
20
13.025
10
312.47499999999997
20
26.024999999999999
42
0.41421356237309509
10
311.97499999999997
20
26.525000000000002
10
298.97500000000002
20
26.525000000000006
42
0.41421356237309509
10
298.47500000000002
20
26.024999999999999
10
298.47500000000002
20
13.025
42
0.4142135623730937
10
298.97500000000002
20
12.524999999999999
10
311.97500000000002
20
12.524999999999999
42
0.41421356237309509
0
LWPOLYLINE
5
123
100
AcDbEntity
8
0
100
AcDbPolyline
90
8
70
1
43
0.0
10
254.82500000000002
20
26.525000000000002
10
241.82500000000005
20
26.524999999999999
42
0.41421356237311585
10
241.32499999999999
20
26.024999999999999
10
241.32499999999999
20
13.025
42
0.41421356237309637
10
241.82500000000002
20
12.525000000000002
10
254.82500000000002
20
12.524999999999999
42
0.41421356237310936
10
255.32499999999999
20
13.025
10
255.32500000000002
20
26.024999999999999
42
0.41421356237309509
0
LWPOLYLINE
5
124
100
AcDbEntity
8
0
100
AcDbPolyline
90
8
70
1
43
0.0
10
30.549999999999997
20
26.525000000000006
10
29.549999999999876
20
26.524999999999999
42
0.41421356237304296
10
29.049999999999869
20
26.024999999999999
10
29.049999999999869
20
13.025
42
0.41421356237310281
10
29.549999999999876
20
12.524999999999993
10
30.549999999999997
20
12.524999999999999
42
0.41421356237297924
10
31.049999999999983
20
13.025
10
31.050000000000004
20
26.024999999999999
42
0.41421356237313928
0
LWPOLYLINE
5
125
100
AcDbEntity
8
0
100
AcDbPolyline
90
8
70
1
43
0.0
10
288.16250000000002
20
45.57500000000001
10
275.16250000000002
20
45.57500000000001
42
0.41421356237310542
10
274.66250000000002
20
45.075000000000003
10
274.66250000000002
20
32.075000000000003
42
0.4142135623731002
10
275.16250000000002
20
31.575000000000003
10
288.16250000000002
20
31.575000000000006
42
0.4142135623730977
10
288.66250000000002
20
32.075000000000003
10
288.66250000000002
20
45.075000000000003
42
0.41421356237309509
0
LWPOLYLINE
5
126
100
AcDbEntity
8
0
100
AcDbPolyline
90
8
70
1
43
0.0
10
13.225000000000016
20
12.524999999999999
10
26.225000000000023
20
12.524999999999999
42
0.41421356237298323
10
26.724999999999998
20
13.024999999999999
10
26.724999999999994
20
26.024999999999999
42
0.41421356237308982
10
26.225000000000023
20
26.525000000000034
10
13.225000000000016
20
26.525000000000002
42
0.414213562373134
10
12.725000000000009
20
26.024999999999999
10
12.725000000000009
20
13.025
42
0.41421356237312884
0
LWPOLYLINE
5
127
100
AcDbEntity
8
0
100
AcDbPolyline
90
20
70
1
43
0.0
10
323.52977425464252
20
48.103846748504608
10
305.43256611082762
20
97.870864817581591
42
0.31537929056955816
10
303.55298060618509
20
99.187375000000003
10
267.0071868097412
20
99.187375000000003
42
-0.41369889336491644
10
265.00718989858035
20
101.18385998261661
10
264.98795514227248
20
112.12817376738343
42
0.41369889336491644
10
262.98795823111169
20
114.12465875000002
10
94.012291768888332
20
114.12465875000001
42
0.41369889336491644
10
92.012294857727511
20
112.12817376738342
10
91.993060101419601
20
101.18385998261665
42
-0.41369889336491122
10
89.993063190258795
20
99.187375000000046
10
22.096999627520439
20
99.187375000000003
42
0.3153803319701044
10
20.217411533315612
20
97.87085769628645
10
2.1204119057950157
20
48.103825954985666
42
0.087413928404081215
10
1.9999999999999194
20
47.420343258699198
10
1.9999999999999218
20
3.1248750000000136
42
0.41421356237309781
10
3.9999999999999147
20
1.1248750000000185
10
321.65018874999998
20
1.1248749999999985
42
0.41421356237309598
10
323.65018875000004
20
3.1248750000000047
10
323.65018874999998
20
47.420356930923006
42
0.087414882830653226
0
LWPOLYLINE
5
128
100
AcDbEntity
8
0
100
AcDbPolyline
90
16
70
1
43
0.0
10
203.28125
20
98.725000000000037
42
0.41421356237307422
10
203.78124999999997
20
98.225000000000037
10
210.78125
20
98.225000000000037
42
-0.41421356237313667
10
211.28124999999997
20
97.725000000000051
10
211.28124999999997
20
93.725000000000051
42
-0.4142135623731471
10
210.78125
20
93.225000000000051
10
203.78124999999997
20
93.225000000000051
42
0.41421356237309509
10
203.28125
20
92.725000000000065
10
203.28125
20
89.224999999999994
42
-0.41421356237309509
10
202.78125
20
88.724999999999994
10
201.78124999999997
20
88.724999999999994
42
-0.4142135623730534
10
201.28124999999997
20
89.224999999999994
10
201.28124999999997
20
102.22499999999999
42
-0.41421356237308465
10
201.78125
20
102.72500000000002
10
202.78125000000003
20
102.72500000000002
42
-0.41421356237309509
10
203.28125
20
102.22499999999999
0
LWPOLYLINE
5
129
100
AcDbEntity
8
0
100
AcDbPolyline
90
8
70
1
43
0.0
10
121.47499999999994
20
26.525000000000002
10
108.47499999999997
20
26.525000000000002
42
0.41421356237298057
10
107.97499999999998
20
26.024999999999999
10
107.97499999999997
20
13.025
42
0.41421356237313794
10
108.47499999999997
20
12.524999999999991
10
121.47499999999994
20
12.525000000000002
42
0.41421356237301049
10
121.97499999999994
20
13.025
10
121.97499999999994
20
26.024999999999999
42
0.41421356237316787
0
LWPOLYLINE
5
130
100
AcDbEntity
8
0
100
AcDbPolyline
90
8
70
1
43
0.0
10
165.125
20
13.025
42
0.4142135623730937
10
165.625
20
12.524999999999995
10
178.625
20
12.524999999999999
42
0.41421356237305601
10
179.125
20
13.025
10
179.125
20
26.024999999999999
42
0.41421356237307944
10
178.62499999999997
20
26.525000000000006
10
165.625
20
26.524999999999999
42
0.41421356237313145
10
165.125
20
26.024999999999999
0
LWPOLYLINE
5
131
100
AcDbEntity
8
0
100
AcDbPolyline
90
8
70
1
43
0.0
10
198.17499999999995
20
26.024999999999999
42
0.41421356237311063
10
197.67499999999998
20
26.524999999999999
10
184.67500000000001
20
26.524999999999999
42
0.41421356237313145
10
184.17500000000001
20
26.024999999999999
10
184.17500000000001
20
13.025
42
0.4142135623730937
10
184.67500000000001
20
12.524999999999995
10
197.67499999999998
20
12.524999999999999
42
0.41421356237310675
10
198.17499999999995
20
13.025
0
LWPOLYLINE
5
132
100
AcDbEntity
8
0
100
AcDbPolyline
90
8
70
1
43
0.0
10
54.800000000000004
20
26.525000000000006
10
41.799999999999997
20
26.525000000000002
42
0.41421356237298057
10
41.29999999999999
20
26.024999999999999
10
41.29999999999999
20
13.025
42
0.41421356237312629
10
41.799999999999997
20
12.524999999999993
10
54.800000000000004
20
12.524999999999999
42
0.41421356237313273
10
55.300000000000011
20
13.025
10
55.300000000000011
20
26.024999999999999
42
0.41421356237314189
0
LWPOLYLINE
5
133
100
AcDbEntity
8
0
100
AcDbPolyline
90
8
70
1
43
0.0
10
216.72499999999999
20
12.524999999999999
42
0.41421356237312101
10
217.22500000000002
20
13.025
10
217.22499999999997
20
26.024999999999999
42
0.41421356237311063
10
216.72499999999999
20
26.524999999999999
10
203.72499999999999
20
26.524999999999999
42
0.41421356237313145
10
203.22499999999997
20
26.024999999999999
10
203.22499999999997
20
13.025
42
0.4142135623730937
10
203.72499999999999
20
12.524999999999995
0
LWPOLYLINE
5
134
100
AcDbEntity
8
0
100
AcDbPolyline
90
8
70
1
43
0.0
10
246.58750000000001
20
83.674999999999997
42
0.41421356237309509
10
246.08750000000001
20
83.174999999999983
10
246.08750000000001
20
70.174999999999997
42
0.41421356237312629
10
246.58750000000001
20
69.674999999999997
10
259.58749999999998
20
69.674999999999997
42
0.41421356237311585
10
260.08749999999998
20
70.174999999999997
10
260.08749999999998
20
83.174999999999983
42
0.41421356237309509
10
259.58750000000003
20
83.674999999999983
0
LWPOLYLINE
5
135
100
AcDbEntity
8
0
100
AcDbPolyline
90
8
70
1
43
0.0
10
63.237999999999985
20
13.525
42
0.41421356237297924
10
63.737999999999964
20
14.025
10
63.737999999999992
20
28.025000000000002
42
0.41421356237313928
10
63.237999999999985
20
28.524999999999999
10
57.237999999999936
20
28.524999999999999
42
0.41421356237304296
10
56.737999999999921
20
28.025000000000002
10
56.737999999999928
20
14.025
42
0.41421356237311457
10
57.237999999999936
20
13.524999999999983
0
CIRCLE
5
136
100
AcDbEntity
8
0
100
AcDbCircle
10
162.82509437499996
20
4.6248750000000065
30
0
40
1.6000000000000003
210
0
220
0
230
1
0
CIRCLE
5
137
100
AcDbEntity
8
0
100
AcDbCircle
10
5.4999999999999716
20
4.6248750000000083
30
0
40
1.6000000000000003
210
0
220
0
230
1
0
LWPOLYLINE
5
138
100
AcDbEntity
8
0
100
AcDbPolyline
90
8
70
1
43
0.0
10
274.375
20
13.025
10
274.375
20
26.024999999999999
42
0.41421356237311846
10
273.875
20
26.524999999999995
10
260.875
20
26.524999999999999
42
0.41421356237308982
10
260.375
20
26.024999999999999
10
260.375
20
13.025
42
0.41421356237309892
10
260.875
20
12.524999999999999
10
273.875
20
12.524999999999999
42
0.41421356237306517
0
CIRCLE
5
139
100
AcDbEntity
8
0
100
AcDbCircle
10
320.15018874999998
20
4.6248750000000038
30
0
40
1.6000000000000003
210
0
220
0
230
1
0
CIRCLE
5
140
100
AcDbEntity
8
0
100
AcDbCircle
10
23.147642564480329
20
95.687375000000003
30
0
40
1.6000000000000003
210
0
220
0
230
1
0
CIRCLE
5
141
100
AcDbEntity
8
0
100
AcDbCircle
10
302.50234190485975
20
95.687375000000003
30
0
40
1.6000000000000003
210
0
220
0
230
1
0
LWPOLYLINE
5
142
100
AcDbEntity
8
0
100
AcDbPolyline
90
8
70
1
43
0.0
10
231.51250000000002
20
32.075000000000003
10
231.51250000000002
20
45.075000000000003
42
0.41421356237307422
10
231.01250000000005
20
45.57500000000001
10
218.01249999999999
20
45.57500000000001
42
0.41421356237308982
10
217.51249999999999
20
45.07500000000001
10
217.51249999999999
20
32.075000000000003
42
0.41421356237309509
10
218.01249999999999
20
31.574999999999992
10
231.01249999999999
20
31.575000000000006
42
0.41421356237310281
0
LWPOLYLINE
5
143
100
AcDbEntity
8
0
100
AcDbPolyline
90
8
70
1
43
0.0
10
193.41249999999999
20
32.075000000000003
10
193.41249999999999
20
45.075000000000003
42
0.41421356237309509
10
192.91249999999997
20
45.57500000000001
10
179.91250000000002
20
45.57500000000001
42
0.41421356237307944
10
179.41249999999997
20
45.07500000000001
10
179.41249999999997
20
32.075000000000003
42
0.41421356237307683
10
179.91250000000002
20
31.575000000000006
10
192.91249999999997
20
31.575000000000006
42
0.4142135623731002
0
LWPOLYLINE
5
144
100
AcDbEntity
8
0
100
AcDbPolyline
90
8
70
1
43
0.0
10
137.05000000000001
20
64.625
42
0.41421356237312101
10
136.55000000000001
20
64.125000000000014
10
136.55000000000001
20
51.125
42
0.41421356237313667
10
137.05000000000001
20
50.625
10
150.04999999999995
20
50.625
42
0.414213562373069
10
150.55000000000001
20
51.125
10
150.55000000000001
20
64.125000000000014
42
0.41421356237311063
10
150.04999999999995
20
64.625000000000014
0
LWPOLYLINE
5
145
100
AcDbEntity
8
0
100
AcDbPolyline
90
8
70
1
43
0.0
10
112.44999999999997
20
51.125
10
112.44999999999997
20
64.125000000000014
42
0.41421356237310542
10
111.94999999999993
20
64.625
10
98.94999999999996
20
64.625
42
0.41421356237300133
10
98.44999999999996
20
64.125000000000014
10
98.44999999999996
20
51.125
42
0.41421356237312629
10
98.94999999999996
20
50.625
10
111.94999999999993
20
50.625
42
0.414213562373069
0
LWPOLYLINE
5
146
100
AcDbEntity
8
0
100
AcDbPolyline
90
8
70
1
43
0.0
10
40.005749999999907
20
52.125
42
0.41421356237312101
10
40.505749999999914
20
51.625000000000021
10
46.505749999999964
20
51.625000000000007
42
0.41421356237300661
10
47.005749999999971
20
52.125
10
47.005749999999971
20
66.125
42
0.41421356237314189
10
46.505749999999964
20
66.625000000000028
10
40.505749999999914
20
66.625000000000014
42
0.41421356237310542
10
40.005749999999921
20
66.125
0
LWPOLYLINE
5
147
100
AcDbEntity
8
0
100
AcDbPolyline
90
8
70
1
43
0.0
10
117.21249999999998
20
32.075000000000003
10
117.21249999999998
20
45.075000000000003
42
0.41421356237307422
10
116.71250000000001
20
45.57500000000001
10
103.71250000000001
20
45.57500000000001
42
0.41421356237313667
10
103.21249999999999
20
45.075000000000003
10
103.21249999999999
20
32.075000000000003
42
0.41421356237312629
10
103.71250000000001
20
31.575000000000006
10
116.71250000000001
20
31.575000000000006
42
0.41421356237307422
0
LWPOLYLINE
5
148
100
AcDbEntity
8
0
100
AcDbPolyline
90
8
70
1
43
0.0
10
84.662499999999994
20
45.57500000000001
42
0.41421356237307422
10
84.162499999999937
20
45.075000000000003
10
84.162499999999937
20
32.075000000000003
42
0.41421356237311319
10
84.662499999999994
20
31.574999999999996
10
97.662499999999994
20
31.575000000000006
42
0.41421356237307422
10
98.162499999999952
20
32.075000000000003
10
98.162499999999966
20
45.075000000000003
42
0.41421356237307422
10
97.662499999999994
20
45.57500000000001
0
LWPOLYLINE
5
149
100
AcDbEntity
8
0
100
AcDbPolyline
90
8
70
1
43
0.0
10
236.5625
20
32.075000000000003
42
0.4142135623730977
10
237.06249999999997
20
31.575000000000006
10
250.0625
20
31.575000000000006
42
0.414213562373069
10
250.5625
20
32.075000000000003
10
250.5625
20
45.075000000000003
42
0.41421356237307422
10
250.0625
20
45.57500000000001
10
237.0625
20
45.57500000000001
42
0.41421356237309509
10
236.5625
20
45.075000000000003
0
LWPOLYLINE
5
150
100
AcDbEntity
8
0
100
AcDbPolyline
90
8
70
1
43
0.0
10
70.374999999999943
20
12.524999999999999
10
83.374999999999986
20
12.524999999999999
42
0.41421356237297924
10
83.874999999999972
20
13.025
10
83.875
20
26.024999999999999
42
0.41421356237313928
10
83.374999999999986
20
26.525000000000006
10
70.374999999999943
20
26.525000000000006
42
0.41421356237307161
10
69.874999999999972
20
26.025000000000006
10
69.874999999999972
20
13.025
42
0.41421356237311457
0
LWPOLYLINE
5
151
100
AcDbEntity
8
0
100
AcDbPolyline
90
8
70
1
43
0.0
10
293.42499999999995
20
26.024999999999999
10
293.42500000000001
20
13.025
42
-0.4142135623730937
10
292.92500000000001
20
12.524999999999999
10
279.92500000000001
20
12.524999999999999
42
-0.4142135623730937
10
279.42500000000001
20
13.025
10
279.42500000000001
20
26.024999999999999
42
-0.41421356237308982
10
279.92500000000001
20
26.525000000000002
10
292.92500000000001
20
26.524999999999999
42
-0.4142135623730977
0
LWPOLYLINE
5
152
100
AcDbEntity
8
0
100
AcDbPolyline
90
8
70
1
43
0.0
10
199.46924999999999
20
87.22499999999998
10
199.46924999999999
20
101.22500000000002
42
0.41421356237309509
10
198.96924999999999
20
101.72500000000002
10
192.96925000000002
20
101.72500000000002
42
0.41421356237308465
10
192.46924999999999
20
101.22500000000002
10
192.46924999999999
20
87.22499999999998
42
0.41421356237308465
10
192.96925000000002
20
86.724999999999994
10
198.96925000000005
20
86.725000000000023
42
0.41421356237309509
0
LWPOLYLINE
5
153
100
AcDbEntity
8
0
100
AcDbPolyline
90
8
70
1
43
0.0
10
227.53749999999999
20
69.674999999999983
42
-0.41421356237306384
10
227.03749999999999
20
70.174999999999997
10
227.03749999999999
20
83.174999999999983
42
-0.41421356237310542
10
227.53749999999997
20
83.674999999999997
10
240.53750000000002
20
83.674999999999983
42
-0.41421356237309509
10
241.03749999999997
20
83.174999999999983
10
241.03749999999997
20
70.174999999999997
42
-0.41421356237311585
10
240.53750000000002
20
69.674999999999997
0
LWPOLYLINE
5
154
100
AcDbEntity
8
0
100
AcDbPolyline
90
8
70
1
43
0.0
10
269.61250000000001
20
45.075000000000003
10
269.61250000000001
20
32.075000000000003
42
-0.4142135623730977
10
269.11250000000001
20
31.575000000000006
10
256.11249999999995
20
31.575000000000006
42
-0.41421356237308726
10
255.61250000000001
20
32.075000000000003
10
255.61249999999998
20
45.075000000000003
42
-0.4142135623731002
10
256.11249999999995
20
45.57500000000001
10
269.11250000000001
20
45.57500000000001
42
-0.41421356237308465
0
LWPOLYLINE
5
155
100
AcDbEntity
8
0
100
AcDbPolyline
90
8
70
1
43
0.0
10
131.5
20
51.125
10
131.5
20
64.125000000000014
42
0.41421356237313667
10
130.99999999999997
20
64.625000000000028
10
117.99999999999997
20
64.625
42
0.41421356237300133
10
117.49999999999997
20
64.125000000000014
10
117.49999999999997
20
51.125
42
0.41421356237313667
10
117.99999999999997
20
50.624999999999993
10
130.99999999999997
20
50.625
42
0.41421356237313145
0
LWPOLYLINE
5
156
100
AcDbEntity
8
0
100
AcDbPolyline
90
8
70
1
43
0.0
10
265.63749999999999
20
69.674999999999997
10
278.63749999999999
20
69.674999999999997
42
0.41421356237311585
10
279.13749999999999
20
70.174999999999997
10
279.13749999999999
20
83.174999999999983
42
0.41421356237310542
10
278.63749999999999
20
83.674999999999997
10
265.63749999999999
20
83.674999999999997
42
0.41421356237309509
10
265.13749999999999
20
83.174999999999983
10
265.13749999999999
20
70.174999999999997
42
0.41421356237309509
0
LWPOLYLINE
5
157
100
AcDbEntity
8
0
100
AcDbPolyline
90
8
70
1
43
0.0
10
160.36249999999995
20
32.075000000000003
42
0.4142135623731002
10
160.86250000000004
20
31.575000000000003
10
173.86250000000001
20
31.575000000000006
42
0.41421356237312101
10
174.36250000000001
20
32.075000000000003
10
174.36250000000001
20
45.075000000000003
42
0.41421356237309509
10
173.86250000000001
20
45.57500000000001
10
160.86250000000001
20
45.57500000000001
42
0.41421356237312101
10
160.36249999999995
20
45.075000000000003
0
LWPOLYLINE
5
158
100
AcDbEntity
8
0
100
AcDbPolyline
90
8
70
1
43
0.0
10
226.25
20
64.625000000000028
10
213.25
20
64.625
42
0.41421356237308465
10
212.75
20
64.125000000000014
10
212.75
20
51.125
42
0.41421356237309509
10
213.25
20
50.624999999999993
10
226.25
20
50.625
42
0.41421356237305862
10
226.74999999999997
20
51.125
10
226.74999999999997
20
64.125000000000014
42
0.41421356237311585
0
LWPOLYLINE
5
159
100
AcDbEntity
8
0
100
AcDbPolyline
90
8
70
1
43
0.0
10
188.14999999999998
20
64.625000000000028
10
175.15000000000001
20
64.625
42
0.41421356237308465
10
174.65000000000001
20
64.125000000000014
10
174.65000000000001
20
51.125
42
0.41421356237309509
10
175.15000000000001
20
50.624999999999993
10
188.14999999999998
20
50.625
42
0.4142135623731002
10
188.64999999999995
20
51.125
10
188.65000000000003
20
64.125000000000014
42
0.41421356237307944
0
LWPOLYLINE
5
160
100
AcDbEntity
8
0
100
AcDbPolyline
90
8
70
1
43
0.0
10
211.96249999999998
20
45.57500000000001
10
198.96250000000003
20
45.57500000000001
42
0.41421356237308465
10
198.46249999999998
20
45.075000000000003
10
198.46249999999998
20
32.075000000000003
42
0.41421356237305862
10
198.96249999999998
20
31.574999999999985
10
211.96249999999998
20
31.575000000000006
42
0.4142135623731002
10
212.46250000000001
20
32.075000000000003
10
212.46250000000001
20
45.075000000000003
42
0.41421356237309509
0
LWPOLYLINE
5
161
100
AcDbEntity
8
0
100
AcDbPolyline
90
8
70
1
43
0.0
10
151.33749999999995
20
69.674999999999997
10
164.33750000000001
20
69.674999999999997
42
0.41421356237312629
10
164.83750000000001
20
70.174999999999997
10
164.83750000000001
20
83.174999999999983
42
0.41421356237311585
10
164.33750000000001
20
83.67500000000004
10
151.33749999999995
20
83.674999999999997
42
0.41421356237304296
10
150.83749999999995
20
83.174999999999983
10
150.83749999999995
20
70.174999999999997
42
0.41421356237314189
0
LWPOLYLINE
5
162
100
AcDbEntity
8
0
100
AcDbPolyline
90
8
70
1
43
0.0
10
156.09999999999999
20
64.625
42
0.41421356237308465
10
155.59999999999999
20
64.125000000000014
10
155.59999999999999
20
51.125
42
0.41421356237308982
10
156.09999999999999
20
50.625
10
169.09999999999997
20
50.625
42
0.4142135623731002
10
169.59999999999994
20
51.125
10
169.60000000000002
20
64.125000000000014
42
0.41421356237307422
10
169.09999999999997
20
64.625
0
LWPOLYLINE
5
163
100
AcDbEntity
8
0
100
AcDbPolyline
90
8
70
1
43
0.0
10
207.19999999999999
20
50.625
42
0.41421356237308982
10
207.69999999999999
20
51.125
10
207.69999999999999
20
64.125000000000014
42
0.4142135623731002
10
207.19999999999999
20
64.625000000000028
10
194.20000000000002
20
64.625
42
0.41421356237312629
10
193.70000000000002
20
64.125000000000014
10
193.69999999999999
20
51.125
42
0.41421356237307944
10
194.20000000000002
20
50.624999999999993
0
LWPOLYLINE
5
164
100
AcDbEntity
8
0
100
AcDbPolyline
90
8
70
1
43
0.0
10
154.8125
20
102.72500000000002
10
141.8125
20
102.72500000000002
42
0.41421356237310542
10
141.31249999999997
20
102.22499999999999
10
141.31249999999997
20
89.224999999999994
42
0.41421356237315754
10
141.8125
20
88.725000000000023
10
154.8125
20
88.724999999999994
42
0.41421356237308465
10
155.3125
20
89.22499999999998
10
155.3125
20
102.22499999999999
42
0.41421356237311585
0
LWPOLYLINE
5
165
100
AcDbEntity
8
0
100
AcDbPolyline
90
8
70
1
43
0.0
10
264.35000000000002
20
50.625
42
0.41421356237310542
10
264.85000000000002
20
51.125
10
264.85000000000002
20
64.125000000000014
42
0.41421356237312101
10
264.34999999999997
20
64.625
10
251.34999999999997
20
64.625
42
0.41421356237309509
10
250.85000000000002
20
64.125000000000014
10
250.85000000000002
20
51.125
42
0.414213562373069
10
251.34999999999997
20
50.624999999999993
0
LWPOLYLINE
5
166
100
AcDbEntity
8
0
100
AcDbPolyline
90
8
70
1
43
0.0
10
93.400000000000006
20
64.125000000000014
42
0.41421356237315754
10
92.899999999999991
20
64.624999999999986
10
79.899999999999977
20
64.625
42
0.41421356237312101
10
79.399999999999963
20
64.125000000000014
10
79.399999999999977
20
51.125
42
0.41421356237313667
10
79.899999999999977
20
50.624999999999993
10
92.899999999999991
20
50.625
42
0.41421356237300661
10
93.400000000000006
20
51.125
0
LWPOLYLINE
5
167
100
AcDbEntity
8
0
100
AcDbPolyline
90
8
70
1
43
0.0
10
62.443749999999945
20
64.125000000000014
42
0.41421356237314189
10
61.943749999999937
20
64.625000000000028
10
48.943750000000001
20
64.625
42
0.41421356237312101
10
48.443749999999994
20
64.125000000000014
10
48.443749999999994
20
51.125
42
0.41421356237313145
10
48.943750000000001
20
50.625
10
61.943749999999937
20
50.625
42
0.414213562373069
10
62.44374999999998
20
51.125
0
LWPOLYLINE
5
168
100
AcDbEntity
8
0
100
AcDbPolyline
90
8
70
1
43
0.0
10
60.04999999999999
20
32.075000000000003
10
60.04999999999999
20
45.075000000000003
42
0.41421356237312629
10
59.549999999999983
20
45.57500000000001
10
58.550000000000004
20
45.57500000000001
42
0.41421356237313667
10
58.049999999999997
20
45.075000000000003
10
58.049999999999997
20
32.075000000000003
42
0.41421356237313928
10
58.550000000000004
20
31.574999999999992
10
59.549999999999983
20
31.575000000000006
42
0.41421356237301177
0
LWPOLYLINE
5
169
100
AcDbEntity
8
0
100
AcDbPolyline
90
8
70
1
43
0.0
10
47.218749999999972
20
83.674999999999997
10
46.218749999999993
20
83.674999999999997
42
0.41421356237313667
10
45.718749999999986
20
83.174999999999983
10
45.718749999999986
20
70.174999999999997
42
0.41421356237313145
10
46.218749999999993
20
69.674999999999997
10
47.218749999999972
20
69.674999999999997
42
0.41421356237300661
10
47.718749999999979
20
70.174999999999997
10
47.718749999999979
20
83.174999999999983
42
0.41421356237313667
0
LWPOLYLINE
5
170
100
AcDbEntity
8
0
100
AcDbPolyline
90
8
70
1
43
0.0
10
65.112500000000011
20
45.075000000000003
10
65.112500000000011
20
32.075000000000003
42
0.41421356237312629
10
65.612500000000011
20
31.574999999999992
10
78.612499999999983
20
31.575000000000006
42
0.41421356237301177
10
79.112499999999983
20
32.075000000000003
10
79.112499999999983
20
45.075000000000003
42
0.41421356237312629
10
78.612499999999983
20
45.574999999999989
10
65.612500000000011
20
45.57500000000001
42
0.41421356237298057
0
LWPOLYLINE
5
171
100
AcDbEntity
8
0
100
AcDbPolyline
90
8
70
1
43
0.0
10
269.89999999999998
20
64.125000000000014
10
269.89999999999998
20
51.125
42
0.414213562373069
10
270.39999999999998
20
50.625
10
283.39999999999998
20
50.625
42
0.41421356237309509
10
283.89999999999998
20
51.125
10
283.89999999999998
20
64.125000000000014
42
0.41421356237312101
10
283.39999999999998
20
64.625
10
270.39999999999998
20
64.625
42
0.41421356237308982
0
LWPOLYLINE
5
172
100
AcDbEntity
8
0
100
AcDbPolyline
90
8
70
1
43
0.0
10
155.3125
20
45.075000000000003
42
0.41421356237309509
10
154.8125
20
45.57500000000001
10
141.8125
20
45.57500000000001
42
0.41421356237298057
10
141.31249999999997
20
45.075000000000003
10
141.31249999999997
20
32.075000000000003
42
0.41421356237312629
10
141.8125
20
31.574999999999992
10
154.8125
20
31.575000000000006
42
0.41421356237311585
10
155.31250000000003
20
32.075000000000003
0
LWPOLYLINE
5
173
100
AcDbEntity
8
0
100
AcDbPolyline
90
8
70
1
43
0.0
10
96.424999999999983
20
50.625
42
0.41421356237303264
10
96.924999999999955
20
51.125
10
96.924999999999983
20
64.125000000000014
42
0.41421356237313667
10
96.424999999999983
20
64.625000000000028
10
95.425000000000011
20
64.625
42
0.41421356237312101
10
94.924999999999997
20
64.125000000000014
10
94.924999999999997
20
51.125
42
0.41421356237313145
10
95.425000000000011
20
50.624999999999993
0
LWPOLYLINE
5
174
100
AcDbEntity
8
0
100
AcDbPolyline
90
8
70
1
43
0.0
10
37.693750000000001
20
50.625
42
0.41421356237313145
10
38.193750000000009
20
51.125
10
38.193750000000009
20
64.125000000000014
42
0.41421356237313667
10
37.693750000000001
20
64.625000000000028
10
36.693750000000023
20
64.625
42
0.41421356237300133
10
36.193750000000016
20
64.125000000000014
10
36.193750000000016
20
51.125
42
0.41421356237313667
10
36.693750000000023
20
50.624999999999993
0
LWPOLYLINE
5
175
100
AcDbEntity
8
0
100
AcDbPolyline
90
8
70
1
43
0.0
10
232.29999999999995
20
64.625
42
0.41421356237310542
10
231.80000000000001
20
64.125000000000014
10
231.80000000000001
20
51.125
42
0.41421356237305862
10
232.30000000000001
20
50.624999999999986
10
245.30000000000001
20
50.625
42
0.41421356237310542
10
245.79999999999998
20
51.125
10
245.79999999999998
20
64.125000000000014
42
0.4142135623731002
10
245.30000000000001
20
64.625
0
LWPOLYLINE
5
176
100
AcDbEntity
8
0
100
AcDbPolyline
90
8
70
1
43
0.0
10
293.71249999999998
20
45.075000000000003
10
293.71250000000003
20
32.075000000000003
42
0.4142135623731002
10
294.21249999999998
20
31.575000000000006
10
307.21250000000003
20
31.575000000000006
42
0.41421356237309509
10
307.71250000000003
20
32.075000000000003
10
307.71250000000003
20
45.075000000000003
42
0.4142135623731002
10
307.21250000000003
20
45.57500000000001
10
294.21249999999998
20
45.57500000000001
42
0.41421356237309509
0
LWPOLYLINE
5
177
100
AcDbEntity
8
0
100
AcDbPolyline
90
8
70
1
43
0.0
10
183.38749999999999
20
83.674999999999997
10
170.38749999999999
20
83.674999999999997
42
0.41421356237308465
10
169.88749999999996
20
83.174999999999983
10
169.88749999999996
20
70.174999999999997
42
0.41421356237308465
10
170.38749999999999
20
69.674999999999997
10
183.38749999999999
20
69.674999999999997
42
0.41421356237310542
10
183.88749999999993
20
70.174999999999997
10
183.88749999999993
20
83.174999999999983
42
0.41421356237310542
0
LWPOLYLINE
5
178
100
AcDbEntity
8
0
100
AcDbPolyline
90
8
70
1
43
0.0
10
50.030749999999991
20
70.674999999999997
10
56.030750000000005
20
70.674999999999997
42
0.41421356237313145
10
56.530750000000012
20
71.174999999999997
10
56.530750000000012
20
85.174999999999983
42
0.41421356237311585
10
56.030750000000005
20
85.675000000000026
10
50.030749999999991
20
85.674999999999983
42
0.41421356237313667
10
49.530749999999983
20
85.174999999999983
10
49.530749999999983
20
71.174999999999997
42
0.41421356237313145
0
LWPOLYLINE
5
179
100
AcDbEntity
8
0
100
AcDbPolyline
90
8
70
1
43
0.0
10
17.487499999999869
20
32.075000000000003
42
0.41421356237310281
10
17.987499999999876
20
31.574999999999982
10
30.98749999999999
20
31.575000000000006
42
0.41421356237312629
10
31.487500000000001
20
32.075000000000003
10
31.487499999999997
20
45.075000000000003
42
0.41421356237314189
10
30.98749999999999
20
45.575000000000017
10
17.987499999999876
20
45.57500000000001
42
0.41421356237304818
10
17.487499999999862
20
45.075000000000003
0
LWPOLYLINE
5
180
100
AcDbEntity
8
0
100
AcDbPolyline
90
8
70
1
43
0.0
10
288.94999999999999
20
51.125
42
0.41421356237308465
10
289.44999999999999
20
50.625
10
302.44999999999999
20
50.625
42
0.41421356237309509
10
302.94999999999999
20
51.125
10
302.95000000000005
20
64.125000000000014
42
0.41421356237311585
10
302.44999999999999
20
64.625
10
289.44999999999999
20
64.625
42
0.41421356237308465
10
288.94999999999999
20
64.125000000000014
0
LWPOLYLINE
5
181
100
AcDbEntity
8
0
100
AcDbPolyline
90
8
70
1
43
0.0
10
109.71249999999998
20
83.67500000000004
42
0.41421356237304296
10
109.21250000000003
20
83.17500000000004
10
109.21250000000001
20
70.174999999999997
42
0.41421356237308465
10
109.71249999999998
20
69.674999999999997
10
110.71249999999999
20
69.674999999999997
42
0.41421356237300661
10
111.21250000000001
20
70.174999999999997
10
111.21250000000001
20
83.175000000000026
42
0.41421356237313667
10
110.71249999999999
20
83.67500000000004
0
LWPOLYLINE
5
182
100
AcDbEntity
8
0
100
AcDbPolyline
90
8
70
1
43
0.0
10
145.28749999999999
20
83.674999999999997
10
132.28749999999994
20
83.674999999999983
42
0.4142135623730534
10
131.78749999999997
20
83.174999999999983
10
131.78749999999997
20
70.174999999999997
42
0.41421356237313667
10
132.28749999999994
20
69.675000000000026
10
145.28749999999999
20
69.674999999999997
42
0.414213562373069
10
145.78750000000002
20
70.174999999999997
10
145.78749999999999
20
83.174999999999983
42
0.41421356237313667
0
LWPOLYLINE
5
183
100
AcDbEntity
8
0
100
AcDbPolyline
90
8
70
1
43
0.0
10
41.29999999999999
20
45.075000000000003
10
41.29999999999999
20
32.075000000000003
42
0.41421356237313145
10
41.799999999999997
20
31.575000000000006
10
54.800000000000004
20
31.575000000000006
42
0.41421356237312629
10
55.300000000000011
20
32.075000000000003
10
55.300000000000011
20
45.075000000000003
42
0.41421356237314189
10
54.800000000000004
20
45.575000000000017
10
41.799999999999997
20
45.57500000000001
42
0.41421356237298057
0
LWPOLYLINE
5
184
100
AcDbEntity
8
0
100
AcDbPolyline
90
8
70
1
43
0.0
10
82.218749999999972
20
83.174999999999983
10
82.218749999999972
20
70.174999999999997
42
0.41421356237308465
10
82.718749999999943
20
69.674999999999997
10
83.71875
20
69.674999999999997
42
0.41421356237313145
10
84.21875
20
70.174999999999997
10
84.21875
20
83.174999999999983
42
0.41421356237311585
10
83.71875
20
83.67500000000004
10
82.718749999999943
20
83.674999999999997
42
0.41421356237307422
0
LWPOLYLINE
5
185
100
AcDbEntity
8
0
100
AcDbPolyline
90
8
70
1
43
0.0
10
221.48750000000001
20
69.674999999999997
42
0.41421356237311063
10
221.98749999999995
20
70.174999999999997
10
221.98749999999995
20
83.174999999999983
42
0.41421356237313667
10
221.48750000000001
20
83.674999999999983
10
208.48749999999995
20
83.674999999999997
42
0.41421356237310542
10
207.98749999999998
20
83.174999999999983
10
207.98749999999998
20
70.174999999999997
42
0.41421356237310542
10
208.48749999999995
20
69.674999999999997
0
LWPOLYLINE
5
186
100
AcDbEntity
8
0
100
AcDbPolyline
90
8
70
1
43
0.0
10
73.906749999999988
20
70.674999999999983
10
79.90674999999996
20
70.674999999999997
42
0.41421356237303786
10
80.406749999999931
20
71.174999999999997
10
80.406749999999931
20
85.174999999999983
42
0.41421356237313667
10
79.90674999999996
20
85.675000000000026
10
73.906749999999988
20
85.674999999999983
42
0.41421356237313667
10
73.406749999999974
20
85.174999999999983
10
73.406749999999974
20
71.174999999999997
42
0.41421356237310542
0
LWPOLYLINE
5
187
100
AcDbEntity
8
0
100
AcDbPolyline
90
8
70
1
43
0.0
10
135.76249999999999
20
31.575000000000006
42
0.41421356237312629
10
136.26249999999999
20
32.075000000000003
10
136.26249999999999
20
45.075000000000003
42
0.41421356237314189
10
135.76249999999999
20
45.57500000000001
10
122.76249999999997
20
45.57500000000001
42
0.41421356237304296
10
122.26249999999995
20
45.075000000000003
10
122.26249999999993
20
32.075000000000003
42
0.41421356237307422
10
122.76249999999997
20
31.574999999999992
0
LWPOLYLINE
5
188
100
AcDbEntity
8
0
100
AcDbPolyline
90
8
70
1
43
0.0
10
38.049999999999997
20
45.57500000000001
10
37.049999999999947
20
45.57500000000001
42
0.41421356237304818
10
36.54999999999994
20
45.075000000000003
10
36.54999999999994
20
32.075000000000003
42
0.4142135623731002
10
37.049999999999947
20
31.574999999999985
10
38.049999999999997
20
31.575000000000006
42
0.41421356237301177
10
38.54999999999999
20
32.075000000000003
10
38.550000000000004
20
45.075000000000003
42
0.41421356237312629
0
LWPOLYLINE
5
189
100
AcDbEntity
8
0
100
AcDbPolyline
90
8
70
1
43
0.0
10
94.1875
20
69.674999999999997
10
107.1875
20
69.674999999999997
42
0.41421356237303786
10
107.68749999999996
20
70.174999999999997
10
107.68749999999997
20
83.174999999999983
42
0.41421356237308465
10
107.1875
20
83.675000000000011
10
94.1875
20
83.674999999999997
42
0.41421356237313667
10
93.687499999999986
20
83.174999999999983
10
93.687499999999986
20
70.174999999999997
42
0.41421356237313145
0
LWPOLYLINE
5
190
100
AcDbEntity
8
0
100
AcDbPolyline
90
8
70
1
43
0.0
10
285.92500000000007
20
50.624999999999993
10
286.92500000000001
20
50.625
42
0.41421356237309509
10
287.42500000000001
20
51.125
10
287.42500000000001
20
64.125000000000014
42
0.41421356237309509
10
286.92500000000001
20
64.625000000000028
10
285.92500000000007
20
64.625
42
0.41421356237308982
10
285.42500000000007
20
64.125000000000014
10
285.42500000000007
20
51.125
42
0.41421356237309509
0
LWPOLYLINE
5
191
100
AcDbEntity
8
0
100
AcDbPolyline
90
8
70
1
43
0.0
10
147.8125
20
83.67500000000004
42
0.41421356237304296
10
147.31250000000006
20
83.175000000000026
10
147.31250000000003
20
70.174999999999997
42
0.41421356237307422
10
147.8125
20
69.674999999999997
10
148.81249999999997
20
69.674999999999997
42
0.41421356237304296
10
149.3125
20
70.174999999999997
10
149.3125
20
83.175000000000026
42
0.41421356237307422
10
148.81249999999997
20
83.674999999999997
0
LWPOLYLINE
5
192
100
AcDbEntity
8
0
100
AcDbPolyline
90
8
70
1
43
0.0
10
74.193749999999994
20
50.625
42
0.41421356237313145
10
74.693749999999994
20
51.125
10
74.693749999999994
20
64.125000000000014
42
0.41421356237313667
10
74.193749999999994
20
64.625000000000028
10
73.193749999999937
20
64.625
42
0.414213562373069
10
72.693749999999966
20
64.125000000000014
10
72.693749999999966
20
51.125
42
0.41421356237308465
10
73.193749999999937
20
50.624999999999972
0
LWPOLYLINE
5
193
100
AcDbEntity
8
0
100
AcDbPolyline
90
8
70
1
43
0.0
10
235.03749999999999
20
32.075000000000003
10
235.03749999999999
20
45.075000000000003
42
0.41421356237309509
10
234.53749999999999
20
45.575000000000003
10
233.53750000000002
20
45.57500000000001
42
0.41421356237310542
10
233.03750000000002
20
45.075000000000003
10
233.03750000000002
20
32.075000000000003
42
0.41421356237313145
10
233.53750000000002
20
31.574999999999992
10
234.53749999999999
20
31.575000000000006
42
0.41421356237310281
0
LWPOLYLINE
5
194
100
AcDbEntity
8
0
100
AcDbPolyline
90
8
70
1
43
0.0
10
249.32500000000002
20
51.125
10
249.32500000000005
20
64.125000000000014
42
0.41421356237312101
10
248.82499999999999
20
64.625000000000028
10
247.82500000000002
20
64.625
42
0.41421356237312101
10
247.32500000000002
20
64.125000000000014
10
247.32500000000002
20
51.125
42
0.41421356237313145
10
247.82500000000002
20
50.624999999999993
10
248.82499999999999
20
50.625
42
0.41421356237309509
0
LWPOLYLINE
5
195
100
AcDbEntity
8
0
100
AcDbPolyline
90
8
70
1
43
0.0
10
271.13749999999999
20
32.075000000000003
42
0.4142135623731002
10
271.63749999999999
20
31.574999999999985
10
272.63749999999999
20
31.575000000000006
42
0.41421356237310281
10
273.13749999999999
20
32.075000000000003
10
273.13749999999999
20
45.075000000000003
42
0.4142135623731002
10
272.63749999999999
20
45.57500000000001
10
271.63749999999999
20
45.57500000000001
42
0.41421356237309509
10
271.13749999999999
20
45.075000000000003
0
LWPOLYLINE
5
196
100
AcDbEntity
8
0
100
AcDbPolyline
90
8
70
1
43
0.0
10
177.03124999999997
20
102.22499999999999
10
177.03125
20
89.224999999999994
42
0.41421356237303264
10
177.53124999999997
20
88.724999999999994
10
190.53125
20
88.724999999999994
42
0.41421356237311585
10
191.03125
20
89.224999999999994
10
191.03125
20
102.22499999999999
42
0.41421356237307422
10
190.53124999999997
20
102.72500000000002
10
177.53124999999997
20
102.72500000000002
42
0.41421356237303264
0
LWPOLYLINE
5
197
100
AcDbEntity
8
0
100
AcDbPolyline
90
8
70
1
43
0.0
10
135.76249999999999
20
88.724999999999994
42
0.41421356237306384
10
136.26250000000002
20
89.22499999999998
10
136.26249999999999
20
102.22499999999999
42
0.4142135623731471
10
135.76249999999999
20
102.72500000000002
10
122.76249999999997
20
102.72500000000002
42
0.4142135623730534
10
122.26249999999995
20
102.22499999999999
10
122.26249999999993
20
89.224999999999994
42
0.41421356237311585
10
122.76249999999997
20
88.724999999999994
0
LWPOLYLINE
5
198
100
AcDbEntity
8
0
100
AcDbPolyline
90
8
70
1
43
0.0
10
103.71250000000001
20
102.72500000000002
42
0.4142135623731471
10
103.21249999999999
20
102.22499999999999
10
103.21249999999999
20
89.224999999999994
42
0.41421356237313667
10
103.71250000000001
20
88.724999999999994
10
116.71250000000001
20
88.724999999999994
42
0.41421356237303264
10
117.21249999999998
20
89.224999999999994
10
117.21249999999998
20
102.22499999999999
42
0.41421356237306384
10
116.71250000000001
20
102.72500000000007
0
LWPOLYLINE
5
199
100
AcDbEntity
8
0
100
AcDbPolyline
90
8
70
1
43
0.0
10
80.637499999999989
20
45.075000000000003
10
80.637499999999989
20
32.075000000000003
42
0.41421356237309243
10
81.13749999999996
20
31.574999999999992
10
82.137499999999974
20
31.575000000000006
42
0.41421356237301177
10
82.637499999999989
20
32.075000000000003
10
82.637499999999989
20
45.075000000000003
42
0.41421356237312629
10
82.137499999999974
20
45.57500000000001
10
81.13749999999996
20
45.57500000000001
42
0.41421356237308465
0
LWPOLYLINE
5
200
100
AcDbEntity
8
0
100
AcDbPolyline
90
8
70
1
43
0.0
10
166.28124999999997
20
102.72500000000002
10
165.28124999999994
20
102.72500000000002
42
0.41421356237309509
10
164.78125
20
102.22499999999999
10
164.78125
20
89.224999999999994
42
0.41421356237309509
10
165.28125
20
88.724999999999994
10
166.28124999999997
20
88.724999999999994
42
0.41421356237313667
10
166.78124999999994
20
89.22499999999998
10
166.78125
20
102.22499999999999
42
0.41421356237308465
0
LWPOLYLINE
5
201
100
AcDbEntity
8
0
100
AcDbPolyline
90
8
70
1
43
0.0
10
70.881749999999997
20
66.125
10
70.881749999999997
20
52.125
42
-0.41421356237304296
10
70.381749999999982
20
51.625000000000014
10
64.381750000000011
20
51.625000000000014
42
-0.41421356237315754
10
63.881749999999982
20
52.125
10
63.881750000000004
20
66.125
42
-0.41421356237300661
10
64.381750000000011
20
66.625
10
70.381749999999982
20
66.625000000000028
42
-0.4142135623731471
0
ENDSEC
0
SECTION
2
OBJECTS
0
DICTIONARY
5
C
100
AcDbDictionary
3
ACAD_GROUP
350
D
3
ACAD_MLINESTYLE
350
17
0
DICTIONARY
5
D
100
AcDbDictionary
0
DICTIONARY
5
1A
330
C
100
AcDbDictionary
0
DICTIONARY
5
17
100
AcDbDictionary
0
ENDSEC
0
EOF
