M48
; DRILL file {KiCad (6.0.7-1)-1} date 2022 October 03, Monday 12:17:23
; FORMAT={-:-/ absolute / inch / decimal}
; #@! TF.CreationDate,2022-10-03T12:17:23+02:00
; #@! TF.GenerationSoftware,Kicad,Pcbnew,(6.0.7-1)-1
; #@! TF.FileFunction,Plated,1,2,PTH
FMAT,2
INCH
; #@! TA.AperFunction,Plated,PTH,ViaDrill
T1C0.0157
; #@! TA.AperFunction,Plated,PTH,ComponentDrill
T2C0.0256
; #@! TA.AperFunction,Plated,PTH,ComponentDrill
T3C0.0354
%
G90
G05
T1
X1.932Y-3.023
X1.933Y-3.582
X1.9641Y-3.0404
X2.0111Y-4.4229
X2.044Y-4.502
X2.08Y-3.053
X2.21Y-4.45
X2.304Y-5.306
X2.306Y-4.746
X2.314Y-4.046
X2.337Y-4.5029
X2.3648Y-4.4792
X2.3902Y-4.453
X2.4119Y-4.4229
X2.4416Y-4.78
X2.4416Y-5.434
X2.442Y-5.726
X2.458Y-4.2762
X2.458Y-4.746
X2.478Y-4.8065
X2.478Y-5.76
X2.4781Y-5.4344
X2.502Y-5.806
X2.5086Y-4.8334
X2.5146Y-5.4344
X2.6649Y-5.4309
X2.69Y-5.8051
X2.6905Y-5.7686
X2.698Y-5.696
X2.702Y-5.734
X2.7519Y-5.4309
X2.752Y-6.04
X2.7539Y-5.5269
X2.7749Y-3.7909
X2.7959Y-5.5009
X2.8Y-5.86
X2.81Y-4.3435
X2.81Y-4.9892
X2.8319Y-5.4869
X2.8339Y-5.2249
X2.8579Y-5.4609
X2.86Y-4.595
X2.8827Y-5.8855
X2.89Y-6.138
X2.8967Y-5.4341
X2.9Y-4.755
X2.9154Y-5.914
X2.916Y-6.1123
X2.9259Y-5.4709
X2.9439Y-4.3049
X2.9439Y-4.4616
X2.9439Y-4.8789
X2.9557Y-5.4183
X2.98Y-4.3148
X2.98Y-4.778
X2.9951Y-5.4183
X2.9977Y-6.0973
X3.0Y-6.0467
X3.0012Y-4.8077
X3.006Y-4.4903
X3.0273Y-4.8332
X3.03Y-3.193
X3.03Y-3.932
X3.032Y-6.08
X3.038Y-4.508
X3.0559Y-5.8369
X3.0581Y-5.4104
X3.2093Y-5.4723
X3.2099Y-5.5709
X3.2099Y-5.7709
X3.2099Y-6.0179
X3.256Y-5.984
X3.3Y-5.032
X3.3Y-5.6966
X3.32Y-4.674
X3.354Y-4.25
X3.354Y-5.6573
X3.3848Y-5.2451
X3.3848Y-5.4852
X3.418Y-5.444
X3.418Y-5.678
X3.4433Y-5.935
X3.444Y-5.538
X3.576Y-5.836
X3.578Y-5.65
X3.585Y-4.28
X3.638Y-3.078
X3.675Y-3.94
X3.712Y-3.0356
X3.7449Y-3.5199
X3.752Y-4.054
X3.79Y-5.504
X3.798Y-6.1123
X3.842Y-5.318
X3.937Y-3.929
X3.937Y-4.596
X3.938Y-5.3192
X4.0025Y-4.3435
X4.105Y-3.821
X4.1099Y-3.7409
X4.169Y-4.054
X4.246Y-3.823
X4.257Y-3.265
X4.2617Y-3.599
X4.29Y-3.642
X4.29Y-3.82
X4.3099Y-5.1009
X4.318Y-3.6722
X4.3405Y-3.8125
X4.384Y-5.6967
X4.384Y-6.0266
X4.438Y-5.834
X4.44Y-5.524
X4.47Y-4.538
X4.472Y-4.888
X4.53Y-3.95
X4.56Y-5.253
X4.562Y-4.674
X4.6Y-4.28
X4.603Y-6.0244
X4.642Y-5.03
X4.642Y-5.2797
X4.662Y-5.7481
X4.668Y-5.854
X4.674Y-5.424
X4.676Y-5.2957
X4.68Y-5.5
X4.692Y-5.72
X4.694Y-6.0083
X4.743Y-3.815
X4.744Y-3.926
X4.765Y-5.655
X4.799Y-4.006
X4.8039Y-5.7349
X4.804Y-6.08
X4.81Y-3.819
X4.894Y-5.548
X4.894Y-5.67
X4.932Y-3.174
X4.937Y-3.6722
X5.0279Y-5.0709
X5.0279Y-5.4549
X5.116Y-3.599
X5.123Y-5.435
X5.123Y-5.809
X5.124Y-6.138
X5.2249Y-5.0709
X5.2273Y-4.3435
X5.231Y-3.098
X5.268Y-4.774
X5.272Y-4.548
X5.304Y-4.679
X5.316Y-5.546
X5.318Y-5.88
X5.35Y-5.69
X5.392Y-6.09
X5.436Y-5.807
X5.446Y-4.284
X5.448Y-4.026
X5.495Y-3.928
X5.52Y-3.428
X5.54Y-6.081
X5.62Y-3.6722
X5.682Y-3.288
X5.761Y-3.092
X5.802Y-3.541
X5.803Y-3.461
X5.83Y-5.426
X5.83Y-5.854
X5.867Y-3.321
X5.913Y-3.5388
X6.002Y-4.776
X6.014Y-4.548
X6.046Y-4.508
X6.046Y-5.008
X6.188Y-4.02
X6.188Y-4.272
X6.291Y-3.577
X6.293Y-3.353
X6.408Y-5.45
X6.42Y-3.023
X6.421Y-3.5388
X6.45Y-5.692
X6.536Y-4.544
X6.564Y-5.634
X6.566Y-5.296
X6.617Y-5.425
X6.62Y-5.938
X6.644Y-3.4624
X6.644Y-3.573
X6.756Y-4.776
X6.8099Y-5.0709
X6.8125Y-4.3435
X6.841Y-5.334
X6.877Y-4.581
X6.934Y-6.056
X6.934Y-6.25
X6.97Y-3.571
X6.979Y-3.925
X6.991Y-6.177
X7.012Y-3.5335
X7.068Y-6.057
X7.2274Y-5.0679
X7.2274Y-5.8396
X7.26Y-5.808
X7.31Y-5.528
X7.346Y-4.708
X7.398Y-5.002
X7.426Y-4.542
X7.44Y-5.006
X7.5Y-5.11
X7.502Y-4.518
X7.54Y-3.936
X7.564Y-4.282
X7.781Y-3.578
X7.784Y-3.377
X7.896Y-5.4497
X7.956Y-6.052
X7.962Y-5.944
X8.038Y-5.758
X8.0778Y-5.9565
X8.0799Y-5.8409
X8.117Y-5.424
X8.156Y-6.174
X8.303Y-4.679
X8.384Y-3.5416
X8.386Y-3.4235
X8.463Y-3.58
X8.484Y-3.925
X8.487Y-3.834
X8.531Y-3.544
X8.667Y-3.175
X8.8149Y-5.0109
X8.8149Y-5.9009
X8.833Y-3.6665
X8.85Y-5.8559
X8.9006Y-5.2451
X8.9299Y-5.2959
X8.9899Y-6.0209
X8.9923Y-4.3435
X8.9949Y-5.0109
X9.005Y-4.21
X9.06Y-4.2643
X9.288Y-3.186
X9.288Y-3.576
X9.4199Y-6.7209
X9.4249Y-5.9309
X9.462Y-5.952
X9.473Y-6.042
X9.615Y-5.938
X9.623Y-5.428
X9.809Y-4.677
X9.884Y-6.056
X9.904Y-6.173
X9.94Y-3.645
X9.979Y-3.924
X9.982Y-3.811
X10.045Y-3.555
X10.148Y-3.492
X10.178Y-3.177
X10.226Y-3.076
X10.252Y-5.7269
X10.252Y-5.824
X10.279Y-3.696
X10.293Y-3.557
X10.321Y-3.446
X10.334Y-3.616
X10.334Y-3.6827
X10.395Y-3.317
X10.398Y-3.525
X10.56Y-4.285
X10.615Y-4.445
X10.686Y-6.412
X10.742Y-6.084
X10.831Y-6.178
X10.834Y-6.057
X10.9Y-5.444
X10.982Y-5.832
X11.122Y-5.938
X11.1225Y-5.35
X11.27Y-4.552
X11.27Y-5.012
X11.301Y-4.676
X11.512Y-3.931
X11.546Y-3.352
X11.546Y-3.55
X11.582Y-3.0745
X11.584Y-3.688
X11.622Y-3.191
X11.9Y-4.3
X11.918Y-4.9543
X11.918Y-5.9173
X11.975Y-4.37
X12.085Y-4.24
X12.085Y-5.09
X12.22Y-3.71
X12.22Y-4.37
X12.365Y-3.485
X12.425Y-3.71
X12.7037Y-5.3278
X12.814Y-4.7648
X12.8848Y-4.5758
X13.0069Y-4.0246
X13.0738Y-3.8238
X13.1998Y-3.2844
X13.2667Y-5.9301
X13.314Y-5.5246
X13.499Y-4.7805
X13.499Y-5.186
X13.5856Y-3.6978
X13.5856Y-5.0679
X13.6919Y-4.0246
X13.6919Y-4.4419
T2
X2.0053Y-4.2447
X2.0053Y-4.2947
X2.0053Y-4.3447
X2.0553Y-4.2447
X2.0553Y-4.2947
X2.0553Y-4.3447
T3
X4.8519Y-5.7375
X4.97Y-5.7375
T0
M30
