%TF.GenerationSoftware,KiCad,Pcbnew,(6.0.7-1)-1*%
%TF.CreationDate,2022-10-03T12:17:23+02:00*%
%TF.ProjectId,hedgehog-lite,68656467-6568-46f6-972d-6c6974652e6b,rev?*%
%TF.SameCoordinates,Original*%
%TF.FileFunction,Paste,Top*%
%TF.FilePolarity,Positive*%
%FSLAX46Y46*%
G04 Gerber Fmt 4.6, Leading zero omitted, Abs format (unit mm)*
G04 Created by KiCad (PCBNEW (6.0.7-1)-1) date 2022-10-03 12:17:23*
%MOMM*%
%LPD*%
G01*
G04 APERTURE LIST*
G04 Aperture macros list*
%AMRoundRect*
0 Rectangle with rounded corners*
0 $1 Rounding radius*
0 $2 $3 $4 $5 $6 $7 $8 $9 X,Y pos of 4 corners*
0 Add a 4 corners polygon primitive as box body*
4,1,4,$2,$3,$4,$5,$6,$7,$8,$9,$2,$3,0*
0 Add four circle primitives for the rounded corners*
1,1,$1+$1,$2,$3*
1,1,$1+$1,$4,$5*
1,1,$1+$1,$6,$7*
1,1,$1+$1,$8,$9*
0 Add four rect primitives between the rounded corners*
20,1,$1+$1,$2,$3,$4,$5,0*
20,1,$1+$1,$4,$5,$6,$7,0*
20,1,$1+$1,$6,$7,$8,$9,0*
20,1,$1+$1,$8,$9,$2,$3,0*%
G04 Aperture macros list end*
%ADD10R,1.100000X1.100000*%
%ADD11R,1.500000X1.000000*%
%ADD12RoundRect,0.250000X-0.250000X-0.475000X0.250000X-0.475000X0.250000X0.475000X-0.250000X0.475000X0*%
%ADD13R,1.800000X1.200000*%
%ADD14R,1.550000X0.600000*%
%ADD15RoundRect,0.250000X0.450000X-0.262500X0.450000X0.262500X-0.450000X0.262500X-0.450000X-0.262500X0*%
%ADD16RoundRect,0.254000X-1.016000X-1.016000X1.016000X-1.016000X1.016000X1.016000X-1.016000X1.016000X0*%
%ADD17RoundRect,0.250000X-0.262500X-0.450000X0.262500X-0.450000X0.262500X0.450000X-0.262500X0.450000X0*%
%ADD18RoundRect,0.250000X0.250000X0.475000X-0.250000X0.475000X-0.250000X-0.475000X0.250000X-0.475000X0*%
%ADD19RoundRect,0.250000X-0.275000X0.275000X-0.275000X-0.275000X0.275000X-0.275000X0.275000X0.275000X0*%
%ADD20RoundRect,0.062500X-0.062500X0.475000X-0.062500X-0.475000X0.062500X-0.475000X0.062500X0.475000X0*%
%ADD21RoundRect,0.062500X-0.475000X0.062500X-0.475000X-0.062500X0.475000X-0.062500X0.475000X0.062500X0*%
%ADD22R,0.700000X1.500000*%
%ADD23R,1.000000X0.800000*%
%ADD24R,1.200000X1.400000*%
G04 APERTURE END LIST*
D10*
%TO.C,D5*%
X152525000Y-90887500D03*
X155325000Y-90887500D03*
%TD*%
%TO.C,D88*%
X51525000Y-90887500D03*
X54325000Y-90887500D03*
%TD*%
%TO.C,D11*%
X291589000Y-112839500D03*
X294389000Y-112839500D03*
%TD*%
%TO.C,D31*%
X296192400Y-145542000D03*
X293392400Y-145542000D03*
%TD*%
%TO.C,D60*%
X321815000Y-107569000D03*
X324615000Y-107569000D03*
%TD*%
%TO.C,D41*%
X272790000Y-162710000D03*
X275590000Y-162710000D03*
%TD*%
%TO.C,D3*%
X229525000Y-90887500D03*
X232325000Y-90887500D03*
%TD*%
%TO.C,D2*%
X275339000Y-87782400D03*
X272539000Y-87782400D03*
%TD*%
D11*
%TO.C,DL14*%
X101975000Y-91787500D03*
X101975000Y-94987500D03*
X106875000Y-94987500D03*
X106875000Y-91787500D03*
%TD*%
%TO.C,DL1*%
X91705600Y-131292400D03*
X91705600Y-128092400D03*
X86805600Y-128092400D03*
X86805600Y-131292400D03*
%TD*%
D10*
%TO.C,D53*%
X199675000Y-146325000D03*
X202475000Y-146325000D03*
%TD*%
%TO.C,D44*%
X188716000Y-165123000D03*
X191516000Y-165123000D03*
%TD*%
%TO.C,D54*%
X168021000Y-144549000D03*
X165221000Y-144549000D03*
%TD*%
%TO.C,D16*%
X122806000Y-108839000D03*
X125606000Y-108839000D03*
%TD*%
%TO.C,D14*%
X180337000Y-108839000D03*
X183137000Y-108839000D03*
%TD*%
%TO.C,D20*%
X324990000Y-131762500D03*
X327790000Y-131762500D03*
%TD*%
%TO.C,D30*%
X320164000Y-150685500D03*
X322964000Y-150685500D03*
%TD*%
D12*
%TO.C,C3*%
X68625000Y-133912000D03*
X70525000Y-133912000D03*
%TD*%
D10*
%TO.C,D4*%
X191025000Y-90887500D03*
X193825000Y-90887500D03*
%TD*%
D11*
%TO.C,DL3*%
X180875000Y-131987500D03*
X180875000Y-128787500D03*
X175975000Y-128787500D03*
X175975000Y-131987500D03*
%TD*%
D10*
%TO.C,D81*%
X285543800Y-90220800D03*
X288343800Y-90220800D03*
%TD*%
%TO.C,D10*%
X329689000Y-112839500D03*
X332489000Y-112839500D03*
%TD*%
%TO.C,D50*%
X319525000Y-127387500D03*
X322325000Y-127387500D03*
%TD*%
%TO.C,D35*%
X129664000Y-150939500D03*
X132464000Y-150939500D03*
%TD*%
%TO.C,D38*%
X70075000Y-108025000D03*
X70075000Y-105225000D03*
%TD*%
%TO.C,D40*%
X304035000Y-148616000D03*
X304035000Y-145816000D03*
%TD*%
%TO.C,D6*%
X150142400Y-90982800D03*
X147342400Y-90982800D03*
%TD*%
D13*
%TO.C,J1*%
X246825000Y-109025000D03*
X246825000Y-114625000D03*
D14*
X242950000Y-113325000D03*
X242950000Y-112325000D03*
X242950000Y-111325000D03*
X242950000Y-110325000D03*
%TD*%
D15*
%TO.C,R4*%
X73660000Y-119784500D03*
X73660000Y-117959500D03*
%TD*%
D10*
%TO.C,D25*%
X148584000Y-115466000D03*
X151384000Y-115466000D03*
%TD*%
%TO.C,D82*%
X258013200Y-85296200D03*
X258013200Y-82496200D03*
%TD*%
%TO.C,D8*%
X98809000Y-86258400D03*
X96009000Y-86258400D03*
%TD*%
D11*
%TO.C,DL15*%
X63975000Y-91787500D03*
X63975000Y-94987500D03*
X68875000Y-94987500D03*
X68875000Y-91787500D03*
%TD*%
D10*
%TO.C,D18*%
X96650000Y-108712000D03*
X93850000Y-108712000D03*
%TD*%
%TO.C,D34*%
X179216400Y-148234400D03*
X182016400Y-148234400D03*
%TD*%
D11*
%TO.C,DL12*%
X178475000Y-88725000D03*
X178475000Y-91925000D03*
X183375000Y-91925000D03*
X183375000Y-88725000D03*
%TD*%
%TO.C,DL2*%
X135875000Y-131987500D03*
X135875000Y-128787500D03*
X130975000Y-128787500D03*
X130975000Y-131987500D03*
%TD*%
D16*
%TO.C,K43*%
X228822250Y-159385000D03*
%TD*%
D12*
%TO.C,C4*%
X68625000Y-136325000D03*
X70525000Y-136325000D03*
%TD*%
D10*
%TO.C,D83*%
X219862400Y-85677200D03*
X219862400Y-82877200D03*
%TD*%
%TO.C,D0*%
X345525000Y-90887500D03*
X348325000Y-90887500D03*
%TD*%
D11*
%TO.C,DL8*%
X330975000Y-91787500D03*
X330975000Y-94987500D03*
X335875000Y-94987500D03*
X335875000Y-91787500D03*
%TD*%
D10*
%TO.C,D17*%
X112392000Y-108712000D03*
X115192000Y-108712000D03*
%TD*%
D11*
%TO.C,DL13*%
X139975000Y-88725000D03*
X139975000Y-91925000D03*
X144875000Y-91925000D03*
X144875000Y-88725000D03*
%TD*%
D10*
%TO.C,D7*%
X122422000Y-86256000D03*
X125222000Y-86256000D03*
%TD*%
%TO.C,D84*%
X172926200Y-90754200D03*
X170126200Y-90754200D03*
%TD*%
D17*
%TO.C,R2*%
X123671500Y-139723000D03*
X125496500Y-139723000D03*
%TD*%
D10*
%TO.C,D15*%
X142364000Y-108712000D03*
X145164000Y-108712000D03*
%TD*%
%TO.C,D73*%
X193675000Y-107325000D03*
X196475000Y-107325000D03*
%TD*%
%TO.C,D26*%
X129661000Y-115466000D03*
X132461000Y-115466000D03*
%TD*%
%TO.C,D21*%
X300866000Y-126492000D03*
X298066000Y-126492000D03*
%TD*%
%TO.C,D63*%
X208714800Y-126085600D03*
X205914800Y-126085600D03*
%TD*%
D11*
%TO.C,DL7*%
X315875000Y-131987500D03*
X315875000Y-128787500D03*
X310975000Y-128787500D03*
X310975000Y-131987500D03*
%TD*%
D10*
%TO.C,D27*%
X110947200Y-124132800D03*
X110947200Y-121332800D03*
%TD*%
%TO.C,D72*%
X237233000Y-107442000D03*
X240033000Y-107442000D03*
%TD*%
%TO.C,D51*%
X274568000Y-148105000D03*
X277368000Y-148105000D03*
%TD*%
%TO.C,D1*%
X307870400Y-88620600D03*
X310670400Y-88620600D03*
%TD*%
D18*
%TO.C,C5*%
X67025000Y-140525000D03*
X65125000Y-140525000D03*
%TD*%
D11*
%TO.C,DL6*%
X270875000Y-131987500D03*
X270875000Y-128787500D03*
X265975000Y-128787500D03*
X265975000Y-131987500D03*
%TD*%
D10*
%TO.C,D22*%
X265687000Y-115593000D03*
X262887000Y-115593000D03*
%TD*%
%TO.C,D24*%
X186425000Y-129787500D03*
X186425000Y-126987500D03*
%TD*%
%TO.C,D33*%
X208425000Y-148787500D03*
X208425000Y-145987500D03*
%TD*%
D19*
%TO.C,U1*%
X75225000Y-144691000D03*
X73925000Y-142091000D03*
X72625000Y-145991000D03*
X73925000Y-145991000D03*
X72625000Y-143391000D03*
X76525000Y-144691000D03*
X76525000Y-143391000D03*
X72625000Y-142091000D03*
X76525000Y-142091000D03*
X76525000Y-145991000D03*
X75225000Y-143391000D03*
X75225000Y-142091000D03*
X72625000Y-144691000D03*
X73925000Y-143391000D03*
X73925000Y-144691000D03*
X75225000Y-145991000D03*
D20*
X77075000Y-140703500D03*
X76575000Y-140703500D03*
X76075000Y-140703500D03*
X75575000Y-140703500D03*
X75075000Y-140703500D03*
X74575000Y-140703500D03*
X74075000Y-140703500D03*
X73575000Y-140703500D03*
X73075000Y-140703500D03*
X72575000Y-140703500D03*
X72075000Y-140703500D03*
D21*
X71237500Y-141541000D03*
X71237500Y-142041000D03*
X71237500Y-142541000D03*
X71237500Y-143041000D03*
X71237500Y-143541000D03*
X71237500Y-144041000D03*
X71237500Y-144541000D03*
X71237500Y-145041000D03*
X71237500Y-145541000D03*
X71237500Y-146041000D03*
X71237500Y-146541000D03*
D20*
X72075000Y-147378500D03*
X72575000Y-147378500D03*
X73075000Y-147378500D03*
X73575000Y-147378500D03*
X74075000Y-147378500D03*
X74575000Y-147378500D03*
X75075000Y-147378500D03*
X75575000Y-147378500D03*
X76075000Y-147378500D03*
X76575000Y-147378500D03*
X77075000Y-147378500D03*
D21*
X77912500Y-146541000D03*
X77912500Y-146041000D03*
X77912500Y-145541000D03*
X77912500Y-145041000D03*
X77912500Y-144541000D03*
X77912500Y-144041000D03*
X77912500Y-143541000D03*
X77912500Y-143041000D03*
X77912500Y-142541000D03*
X77912500Y-142041000D03*
X77912500Y-141541000D03*
%TD*%
D11*
%TO.C,DL9*%
X292975000Y-91787500D03*
X292975000Y-94987500D03*
X297875000Y-94987500D03*
X297875000Y-91787500D03*
%TD*%
D12*
%TO.C,C2*%
X68625000Y-131499000D03*
X70525000Y-131499000D03*
%TD*%
D10*
%TO.C,D43*%
X227076000Y-164742000D03*
X224276000Y-164742000D03*
%TD*%
%TO.C,D13*%
X218056000Y-108839000D03*
X220856000Y-108839000D03*
%TD*%
D11*
%TO.C,DL4*%
X225875000Y-152987500D03*
X225875000Y-149787500D03*
X220975000Y-149787500D03*
X220975000Y-152987500D03*
%TD*%
D10*
%TO.C,D42*%
X270002000Y-162710000D03*
X267202000Y-162710000D03*
%TD*%
D18*
%TO.C,C7*%
X74708600Y-131544200D03*
X72808600Y-131544200D03*
%TD*%
D15*
%TO.C,R1*%
X242440000Y-168829500D03*
X242440000Y-167004500D03*
%TD*%
D10*
%TO.C,D46*%
X153035000Y-165123000D03*
X150235000Y-165123000D03*
%TD*%
D11*
%TO.C,DL11*%
X216475000Y-88725000D03*
X216475000Y-91925000D03*
X221375000Y-91925000D03*
X221375000Y-88725000D03*
%TD*%
%TO.C,DL5*%
X225875000Y-131987500D03*
X225875000Y-128787500D03*
X220975000Y-128787500D03*
X220975000Y-131987500D03*
%TD*%
D22*
%TO.C,SW2*%
X122488000Y-143982500D03*
X125488000Y-143982500D03*
X126988000Y-143982500D03*
D23*
X121088000Y-144632500D03*
X121088000Y-146832500D03*
X128388000Y-144632500D03*
X128388000Y-146832500D03*
%TD*%
D11*
%TO.C,DL10*%
X254625000Y-88725000D03*
X254625000Y-91925000D03*
X259525000Y-91925000D03*
X259525000Y-88725000D03*
%TD*%
D10*
%TO.C,D74*%
X172469000Y-107315000D03*
X169669000Y-107315000D03*
%TD*%
%TO.C,D23*%
X227838000Y-115466000D03*
X225038000Y-115466000D03*
%TD*%
%TO.C,D64*%
X170434000Y-115339000D03*
X167634000Y-115339000D03*
%TD*%
D15*
%TO.C,R3*%
X72644000Y-115593500D03*
X72644000Y-113768500D03*
%TD*%
D10*
%TO.C,D71*%
X273301000Y-108077000D03*
X276101000Y-108077000D03*
%TD*%
%TO.C,D61*%
X282067000Y-126619000D03*
X279267000Y-126619000D03*
%TD*%
%TO.C,D45*%
X169666000Y-165123000D03*
X172466000Y-165123000D03*
%TD*%
D24*
%TO.C,Y1*%
X66925000Y-145223000D03*
X66925000Y-143023000D03*
X65225000Y-143023000D03*
X65225000Y-145223000D03*
%TD*%
D10*
%TO.C,D70*%
X315617400Y-88493600D03*
X318417400Y-88493600D03*
%TD*%
%TO.C,D52*%
X242824000Y-146116500D03*
X242824000Y-143316500D03*
%TD*%
%TO.C,D62*%
X248282000Y-126518000D03*
X248282000Y-123718000D03*
%TD*%
%TO.C,D36*%
X105150000Y-148105000D03*
X107950000Y-148105000D03*
%TD*%
%TO.C,D12*%
X269575000Y-108825000D03*
X269575000Y-106025000D03*
%TD*%
D12*
%TO.C,C1*%
X68625000Y-129086000D03*
X70525000Y-129086000D03*
%TD*%
D10*
%TO.C,D32*%
X257934000Y-147854000D03*
X257934000Y-145054000D03*
%TD*%
D12*
%TO.C,C6*%
X65125000Y-147725000D03*
X67025000Y-147725000D03*
%TD*%
M02*
