%TF.GenerationSoftware,KiCad,Pcbnew,(6.0.7-1)-1*%
%TF.CreationDate,2022-10-03T12:17:23+02:00*%
%TF.ProjectId,hedgehog-lite,68656467-6568-46f6-972d-6c6974652e6b,rev?*%
%TF.SameCoordinates,Original*%
%TF.FileFunction,Legend,Bot*%
%TF.FilePolarity,Positive*%
%FSLAX46Y46*%
G04 Gerber Fmt 4.6, Leading zero omitted, Abs format (unit mm)*
G04 Created by KiCad (PCBNEW (6.0.7-1)-1) date 2022-10-03 12:17:23*
%MOMM*%
%LPD*%
G01*
G04 APERTURE LIST*
%ADD10C,0.300000*%
%ADD11C,0.150000*%
%ADD12C,0.120000*%
%ADD13C,1.701800*%
%ADD14C,3.048000*%
%ADD15C,3.987800*%
%ADD16R,1.000000X1.000000*%
%ADD17O,1.000000X1.000000*%
%ADD18C,0.450000*%
%ADD19R,1.700000X1.000000*%
G04 APERTURE END LIST*
D10*
X250046228Y-162628971D02*
X250546228Y-161914685D01*
X250903371Y-162628971D02*
X250903371Y-161128971D01*
X250331942Y-161128971D01*
X250189085Y-161200400D01*
X250117657Y-161271828D01*
X250046228Y-161414685D01*
X250046228Y-161628971D01*
X250117657Y-161771828D01*
X250189085Y-161843257D01*
X250331942Y-161914685D01*
X250903371Y-161914685D01*
X249474800Y-162557542D02*
X249260514Y-162628971D01*
X248903371Y-162628971D01*
X248760514Y-162557542D01*
X248689085Y-162486114D01*
X248617657Y-162343257D01*
X248617657Y-162200400D01*
X248689085Y-162057542D01*
X248760514Y-161986114D01*
X248903371Y-161914685D01*
X249189085Y-161843257D01*
X249331942Y-161771828D01*
X249403371Y-161700400D01*
X249474800Y-161557542D01*
X249474800Y-161414685D01*
X249403371Y-161271828D01*
X249331942Y-161200400D01*
X249189085Y-161128971D01*
X248831942Y-161128971D01*
X248617657Y-161200400D01*
X248189085Y-161128971D02*
X247331942Y-161128971D01*
X247760514Y-162628971D02*
X247760514Y-161128971D01*
D11*
%TO.C,SW1*%
X243903333Y-158579761D02*
X243760476Y-158627380D01*
X243522380Y-158627380D01*
X243427142Y-158579761D01*
X243379523Y-158532142D01*
X243331904Y-158436904D01*
X243331904Y-158341666D01*
X243379523Y-158246428D01*
X243427142Y-158198809D01*
X243522380Y-158151190D01*
X243712857Y-158103571D01*
X243808095Y-158055952D01*
X243855714Y-158008333D01*
X243903333Y-157913095D01*
X243903333Y-157817857D01*
X243855714Y-157722619D01*
X243808095Y-157675000D01*
X243712857Y-157627380D01*
X243474761Y-157627380D01*
X243331904Y-157675000D01*
X242998571Y-157627380D02*
X242760476Y-158627380D01*
X242570000Y-157913095D01*
X242379523Y-158627380D01*
X242141428Y-157627380D01*
X241236666Y-158627380D02*
X241808095Y-158627380D01*
X241522380Y-158627380D02*
X241522380Y-157627380D01*
X241617619Y-157770238D01*
X241712857Y-157865476D01*
X241808095Y-157913095D01*
D12*
X244270000Y-164225000D02*
X243820000Y-164675000D01*
X244270000Y-159625000D02*
X243820000Y-159175000D01*
X239820000Y-160925000D02*
X239820000Y-162925000D01*
X243820000Y-159175000D02*
X241320000Y-159175000D01*
X243820000Y-164675000D02*
X241320000Y-164675000D01*
X245320000Y-160925000D02*
X245320000Y-162925000D01*
X240870000Y-159625000D02*
X241320000Y-159175000D01*
X240870000Y-164225000D02*
X241320000Y-164675000D01*
%TD*%
%LPC*%
D13*
%TO.C,K8*%
X80645000Y-85725000D03*
D14*
X83185000Y-80645000D03*
X73787000Y-78740000D03*
X89535000Y-83185000D03*
D13*
X90805000Y-85725000D03*
D15*
X97663000Y-93980000D03*
D14*
X97663000Y-78740000D03*
D15*
X85725000Y-85725000D03*
X73787000Y-93980000D03*
%TD*%
D14*
%TO.C,K22*%
X260985000Y-121285000D03*
D13*
X262255000Y-123825000D03*
X252095000Y-123825000D03*
D15*
X257175000Y-123825000D03*
D14*
X254635000Y-118745000D03*
%TD*%
D16*
%TO.C,J2*%
X50934000Y-107815600D03*
D17*
X52204000Y-107815600D03*
X50934000Y-109085600D03*
X52204000Y-109085600D03*
X50934000Y-110355600D03*
X52204000Y-110355600D03*
%TD*%
D13*
%TO.C,K70*%
X328930000Y-85725000D03*
D14*
X321310000Y-80645000D03*
X327660000Y-83185000D03*
D15*
X323850000Y-85725000D03*
D13*
X318770000Y-85725000D03*
%TD*%
%TO.C,K82*%
X242570000Y-85725000D03*
X252730000Y-85725000D03*
D15*
X247650000Y-85725000D03*
D14*
X245110000Y-80645000D03*
X251460000Y-83185000D03*
%TD*%
D15*
%TO.C,K41*%
X283368750Y-161925000D03*
D13*
X278288750Y-161925000D03*
D14*
X287178750Y-159385000D03*
D13*
X288448750Y-161925000D03*
D14*
X280828750Y-156845000D03*
%TD*%
D13*
%TO.C,K7*%
X119380000Y-85725000D03*
D14*
X111760000Y-80645000D03*
D15*
X114300000Y-85725000D03*
D13*
X109220000Y-85725000D03*
D14*
X118110000Y-83185000D03*
%TD*%
%TO.C,K63*%
X203835000Y-121285000D03*
X197485000Y-118745000D03*
D13*
X205105000Y-123825000D03*
X194945000Y-123825000D03*
D15*
X200025000Y-123825000D03*
%TD*%
%TO.C,K32*%
X252412500Y-142875000D03*
D13*
X257492500Y-142875000D03*
D14*
X256222500Y-140335000D03*
X249872500Y-137795000D03*
D13*
X247332500Y-142875000D03*
%TD*%
D14*
%TO.C,K10*%
X341947500Y-102235000D03*
X335597500Y-99695000D03*
D15*
X338137500Y-104775000D03*
D13*
X333057500Y-104775000D03*
X343217500Y-104775000D03*
%TD*%
%TO.C,K11*%
X294957500Y-104775000D03*
D15*
X300037500Y-104775000D03*
D14*
X297497500Y-99695000D03*
D13*
X305117500Y-104775000D03*
D14*
X303847500Y-102235000D03*
%TD*%
%TO.C,K27*%
X104806750Y-116840000D03*
X80930750Y-116840000D03*
X96678750Y-121285000D03*
X90328750Y-118745000D03*
D13*
X87788750Y-123825000D03*
D15*
X80930750Y-132080000D03*
X92868750Y-123825000D03*
X104806750Y-132080000D03*
D13*
X97948750Y-123825000D03*
%TD*%
%TO.C,K42*%
X254476250Y-161925000D03*
D14*
X257016250Y-156845000D03*
D15*
X259556250Y-161925000D03*
D13*
X264636250Y-161925000D03*
D14*
X263366250Y-159385000D03*
%TD*%
D13*
%TO.C,K45*%
X161607500Y-161925000D03*
D14*
X164147500Y-156845000D03*
D15*
X166687500Y-161925000D03*
D14*
X170497500Y-159385000D03*
D13*
X171767500Y-161925000D03*
%TD*%
%TO.C,K12*%
X267017500Y-104775000D03*
D15*
X261937500Y-104775000D03*
D13*
X256857500Y-104775000D03*
D14*
X265747500Y-102235000D03*
X259397500Y-99695000D03*
%TD*%
D13*
%TO.C,K72*%
X237807500Y-104775000D03*
D14*
X246697500Y-102235000D03*
D15*
X242887500Y-104775000D03*
D14*
X240347500Y-99695000D03*
D13*
X247967500Y-104775000D03*
%TD*%
%TO.C,K34*%
X181292500Y-142875000D03*
D15*
X176212500Y-142875000D03*
D13*
X171132500Y-142875000D03*
D14*
X173672500Y-137795000D03*
X180022500Y-140335000D03*
%TD*%
%TO.C,K13*%
X221297500Y-99695000D03*
D15*
X223837500Y-104775000D03*
D13*
X228917500Y-104775000D03*
D14*
X227647500Y-102235000D03*
D13*
X218757500Y-104775000D03*
%TD*%
D14*
%TO.C,K73*%
X202247500Y-99695000D03*
X208597500Y-102235000D03*
D13*
X209867500Y-104775000D03*
X199707500Y-104775000D03*
D15*
X204787500Y-104775000D03*
%TD*%
D14*
%TO.C,K81*%
X289560000Y-83185000D03*
D13*
X280670000Y-85725000D03*
D15*
X285750000Y-85725000D03*
D14*
X283210000Y-80645000D03*
D13*
X290830000Y-85725000D03*
%TD*%
%TO.C,K74*%
X171767500Y-104775000D03*
D15*
X166687500Y-104775000D03*
D14*
X170497500Y-102235000D03*
X164147500Y-99695000D03*
D13*
X161607500Y-104775000D03*
%TD*%
D14*
%TO.C,K40*%
X313372500Y-140335000D03*
D13*
X304482500Y-142875000D03*
X314642500Y-142875000D03*
D14*
X307022500Y-137795000D03*
D15*
X309562500Y-142875000D03*
%TD*%
D14*
%TO.C,K52*%
X230822500Y-137795000D03*
D15*
X233362500Y-142875000D03*
D13*
X228282500Y-142875000D03*
D14*
X237172500Y-140335000D03*
D13*
X238442500Y-142875000D03*
%TD*%
D15*
%TO.C,K16*%
X128587500Y-104775000D03*
D13*
X133667500Y-104775000D03*
X123507500Y-104775000D03*
D14*
X132397500Y-102235000D03*
X126047500Y-99695000D03*
%TD*%
%TO.C,K60*%
X322897500Y-102235000D03*
D13*
X324167500Y-104775000D03*
D15*
X319087500Y-104775000D03*
D13*
X314007500Y-104775000D03*
D14*
X316547500Y-99695000D03*
%TD*%
%TO.C,K23*%
X216535000Y-118745000D03*
D13*
X213995000Y-123825000D03*
D15*
X219075000Y-123825000D03*
D13*
X224155000Y-123825000D03*
D14*
X222885000Y-121285000D03*
%TD*%
D15*
%TO.C,K24*%
X180975000Y-123825000D03*
D14*
X178435000Y-118745000D03*
D13*
X186055000Y-123825000D03*
X175895000Y-123825000D03*
D14*
X184785000Y-121285000D03*
%TD*%
D13*
%TO.C,K43*%
X226536250Y-161925000D03*
D14*
X218916250Y-156845000D03*
D15*
X233394250Y-153670000D03*
X209518250Y-153670000D03*
D14*
X225266250Y-159385000D03*
D15*
X221456250Y-161925000D03*
D13*
X216376250Y-161925000D03*
D14*
X233394250Y-168910000D03*
X209518250Y-168910000D03*
%TD*%
D15*
%TO.C,K3*%
X228600000Y-85725000D03*
D14*
X232410000Y-83185000D03*
D13*
X233680000Y-85725000D03*
X223520000Y-85725000D03*
D14*
X226060000Y-80645000D03*
%TD*%
%TO.C,K83*%
X207010000Y-80645000D03*
D15*
X209550000Y-85725000D03*
D14*
X213360000Y-83185000D03*
D13*
X214630000Y-85725000D03*
X204470000Y-85725000D03*
%TD*%
D14*
%TO.C,K61*%
X273685000Y-118745000D03*
D13*
X281305000Y-123825000D03*
D14*
X280035000Y-121285000D03*
D15*
X276225000Y-123825000D03*
D13*
X271145000Y-123825000D03*
%TD*%
D14*
%TO.C,K30*%
X326072500Y-137795000D03*
D13*
X333692500Y-142875000D03*
D14*
X332422500Y-140335000D03*
D15*
X328612500Y-142875000D03*
D13*
X323532500Y-142875000D03*
%TD*%
D14*
%TO.C,K31*%
X294322500Y-140335000D03*
D13*
X285432500Y-142875000D03*
D14*
X287972500Y-137795000D03*
D13*
X295592500Y-142875000D03*
D15*
X290512500Y-142875000D03*
%TD*%
D14*
%TO.C,K46*%
X151447500Y-159385000D03*
D13*
X152717500Y-161925000D03*
X142557500Y-161925000D03*
D15*
X147637500Y-161925000D03*
D14*
X145097500Y-156845000D03*
%TD*%
%TO.C,K36*%
X90455750Y-135890000D03*
D15*
X102393750Y-142875000D03*
D13*
X97313750Y-142875000D03*
X107473750Y-142875000D03*
D14*
X106203750Y-140335000D03*
X99853750Y-137795000D03*
D15*
X90455750Y-151130000D03*
D14*
X114331750Y-135890000D03*
D15*
X114331750Y-151130000D03*
%TD*%
%TO.C,K2*%
X266700000Y-85725000D03*
D13*
X271780000Y-85725000D03*
X261620000Y-85725000D03*
D14*
X270510000Y-83185000D03*
X264160000Y-80645000D03*
%TD*%
D13*
%TO.C,K1*%
X299720000Y-85725000D03*
D15*
X304800000Y-85725000D03*
D13*
X309880000Y-85725000D03*
D14*
X302260000Y-80645000D03*
X308610000Y-83185000D03*
%TD*%
D13*
%TO.C,K26*%
X128905000Y-123825000D03*
X118745000Y-123825000D03*
D15*
X123825000Y-123825000D03*
D14*
X121285000Y-118745000D03*
X127635000Y-121285000D03*
%TD*%
D13*
%TO.C,K44*%
X180657500Y-161925000D03*
D14*
X183197500Y-156845000D03*
X189547500Y-159385000D03*
D15*
X185737500Y-161925000D03*
D13*
X190817500Y-161925000D03*
%TD*%
%TO.C,K38*%
X56832500Y-104775000D03*
X66992500Y-104775000D03*
D14*
X65722500Y-102235000D03*
D15*
X61912500Y-104775000D03*
D14*
X59372500Y-99695000D03*
%TD*%
D15*
%TO.C,K54*%
X157162500Y-142875000D03*
D14*
X154622500Y-137795000D03*
X160972500Y-140335000D03*
D13*
X162242500Y-142875000D03*
X152082500Y-142875000D03*
%TD*%
D15*
%TO.C,K51*%
X271462500Y-142875000D03*
D14*
X268922500Y-137795000D03*
X275272500Y-140335000D03*
D13*
X266382500Y-142875000D03*
X276542500Y-142875000D03*
%TD*%
%TO.C,K53*%
X190182500Y-142875000D03*
D15*
X195262500Y-142875000D03*
D14*
X199072500Y-140335000D03*
D13*
X200342500Y-142875000D03*
D14*
X192722500Y-137795000D03*
%TD*%
D13*
%TO.C,K88*%
X52070000Y-85725000D03*
D14*
X54610000Y-80645000D03*
D13*
X62230000Y-85725000D03*
D15*
X57150000Y-85725000D03*
D14*
X60960000Y-83185000D03*
%TD*%
D15*
%TO.C,K21*%
X295275000Y-123825000D03*
D14*
X299085000Y-121285000D03*
D13*
X290195000Y-123825000D03*
X300355000Y-123825000D03*
D14*
X292735000Y-118745000D03*
%TD*%
D13*
%TO.C,K15*%
X142557500Y-104775000D03*
D15*
X147637500Y-104775000D03*
D14*
X145097500Y-99695000D03*
X151447500Y-102235000D03*
D13*
X152717500Y-104775000D03*
%TD*%
D14*
%TO.C,K64*%
X165735000Y-121285000D03*
D15*
X161925000Y-123825000D03*
D13*
X156845000Y-123825000D03*
X167005000Y-123825000D03*
D14*
X159385000Y-118745000D03*
%TD*%
D13*
%TO.C,K6*%
X138430000Y-85725000D03*
X128270000Y-85725000D03*
D14*
X137160000Y-83185000D03*
D15*
X133350000Y-85725000D03*
D14*
X130810000Y-80645000D03*
%TD*%
%TO.C,K33*%
X218122500Y-140335000D03*
D13*
X209232500Y-142875000D03*
D15*
X214312500Y-142875000D03*
D13*
X219392500Y-142875000D03*
D14*
X211772500Y-137795000D03*
%TD*%
%TO.C,K35*%
X135572500Y-137795000D03*
X141922500Y-140335000D03*
D13*
X143192500Y-142875000D03*
D15*
X138112500Y-142875000D03*
D13*
X133032500Y-142875000D03*
%TD*%
D15*
%TO.C,K18*%
X85725000Y-104775000D03*
D13*
X90805000Y-104775000D03*
X80645000Y-104775000D03*
D14*
X83185000Y-99695000D03*
X89535000Y-102235000D03*
%TD*%
D13*
%TO.C,K14*%
X190817500Y-104775000D03*
D14*
X189547500Y-102235000D03*
D15*
X185737500Y-104775000D03*
D13*
X180657500Y-104775000D03*
D14*
X183197500Y-99695000D03*
%TD*%
D18*
%TO.C,SW2*%
X123238000Y-145732500D03*
X126238000Y-145732500D03*
%TD*%
D15*
%TO.C,K62*%
X238125000Y-123825000D03*
D13*
X243205000Y-123825000D03*
D14*
X235585000Y-118745000D03*
X241935000Y-121285000D03*
D13*
X233045000Y-123825000D03*
%TD*%
%TO.C,K5*%
X147320000Y-85725000D03*
D15*
X152400000Y-85725000D03*
D14*
X149860000Y-80645000D03*
D13*
X157480000Y-85725000D03*
D14*
X156210000Y-83185000D03*
%TD*%
D13*
%TO.C,K4*%
X185420000Y-85725000D03*
D14*
X194310000Y-83185000D03*
X187960000Y-80645000D03*
D15*
X190500000Y-85725000D03*
D13*
X195580000Y-85725000D03*
%TD*%
D14*
%TO.C,K17*%
X106997500Y-99695000D03*
D13*
X114617500Y-104775000D03*
D14*
X113347500Y-102235000D03*
D15*
X109537500Y-104775000D03*
D13*
X104457500Y-104775000D03*
%TD*%
D14*
%TO.C,K50*%
X311785000Y-118745000D03*
D15*
X314325000Y-123825000D03*
D14*
X318135000Y-121285000D03*
D13*
X309245000Y-123825000D03*
X319405000Y-123825000D03*
%TD*%
D14*
%TO.C,K84*%
X168910000Y-80645000D03*
D13*
X176530000Y-85725000D03*
X166370000Y-85725000D03*
D14*
X175260000Y-83185000D03*
D15*
X171450000Y-85725000D03*
%TD*%
%TO.C,K25*%
X142875000Y-123825000D03*
D13*
X137795000Y-123825000D03*
X147955000Y-123825000D03*
D14*
X140335000Y-118745000D03*
X146685000Y-121285000D03*
%TD*%
D15*
%TO.C,K71*%
X280987500Y-104775000D03*
D14*
X284797500Y-102235000D03*
D13*
X286067500Y-104775000D03*
X275907500Y-104775000D03*
D14*
X278447500Y-99695000D03*
%TD*%
%TO.C,K0*%
X346710000Y-83185000D03*
X340360000Y-80645000D03*
D13*
X337820000Y-85725000D03*
X347980000Y-85725000D03*
D15*
X342900000Y-85725000D03*
%TD*%
%TO.C,K20*%
X333375000Y-123825000D03*
D14*
X337185000Y-121285000D03*
D13*
X328295000Y-123825000D03*
X338455000Y-123825000D03*
D14*
X330835000Y-118745000D03*
%TD*%
D19*
%TO.C,SW1*%
X245720000Y-160025000D03*
X239420000Y-160025000D03*
X239420000Y-163825000D03*
X245720000Y-163825000D03*
%TD*%
M02*
