%TF.GenerationSoftware,KiCad,Pcbnew,(6.0.7-1)-1*%
%TF.CreationDate,2022-10-03T12:17:23+02:00*%
%TF.ProjectId,hedgehog-lite,68656467-6568-46f6-972d-6c6974652e6b,rev?*%
%TF.SameCoordinates,Original*%
%TF.FileFunction,Soldermask,Top*%
%TF.FilePolarity,Negative*%
%FSLAX46Y46*%
G04 Gerber Fmt 4.6, Leading zero omitted, Abs format (unit mm)*
G04 Created by KiCad (PCBNEW (6.0.7-1)-1) date 2022-10-03 12:17:23*
%MOMM*%
%LPD*%
G01*
G04 APERTURE LIST*
G04 Aperture macros list*
%AMRoundRect*
0 Rectangle with rounded corners*
0 $1 Rounding radius*
0 $2 $3 $4 $5 $6 $7 $8 $9 X,Y pos of 4 corners*
0 Add a 4 corners polygon primitive as box body*
4,1,4,$2,$3,$4,$5,$6,$7,$8,$9,$2,$3,0*
0 Add four circle primitives for the rounded corners*
1,1,$1+$1,$2,$3*
1,1,$1+$1,$4,$5*
1,1,$1+$1,$6,$7*
1,1,$1+$1,$8,$9*
0 Add four rect primitives between the rounded corners*
20,1,$1+$1,$2,$3,$4,$5,0*
20,1,$1+$1,$4,$5,$6,$7,0*
20,1,$1+$1,$6,$7,$8,$9,0*
20,1,$1+$1,$8,$9,$2,$3,0*%
%AMFreePoly0*
4,1,22,0.500000,-0.750000,0.000000,-0.750000,0.000000,-0.745033,-0.079941,-0.743568,-0.215256,-0.701293,-0.333266,-0.622738,-0.424486,-0.514219,-0.481581,-0.384460,-0.499164,-0.250000,-0.500000,-0.250000,-0.500000,0.250000,-0.499164,0.250000,-0.499963,0.256109,-0.478152,0.396186,-0.417904,0.524511,-0.324060,0.630769,-0.204165,0.706417,-0.067858,0.745374,0.000000,0.744959,0.000000,0.750000,
0.500000,0.750000,0.500000,-0.750000,0.500000,-0.750000,$1*%
%AMFreePoly1*
4,1,20,0.000000,0.744959,0.073905,0.744508,0.209726,0.703889,0.328688,0.626782,0.421226,0.519385,0.479903,0.390333,0.500000,0.250000,0.500000,-0.250000,0.499851,-0.262216,0.476331,-0.402017,0.414519,-0.529596,0.319384,-0.634700,0.198574,-0.708877,0.061801,-0.746166,0.000000,-0.745033,0.000000,-0.750000,-0.500000,-0.750000,-0.500000,0.750000,0.000000,0.750000,0.000000,0.744959,
0.000000,0.744959,$1*%
G04 Aperture macros list end*
%ADD10FreePoly0,0.000000*%
%ADD11FreePoly1,0.000000*%
%ADD12R,1.100000X1.100000*%
%ADD13C,1.701800*%
%ADD14C,3.048000*%
%ADD15C,3.987800*%
%ADD16RoundRect,0.254000X-1.016000X-1.016000X1.016000X-1.016000X1.016000X1.016000X-1.016000X1.016000X0*%
%ADD17R,1.000000X1.000000*%
%ADD18O,1.000000X1.000000*%
%ADD19R,1.500000X1.000000*%
%ADD20RoundRect,0.250000X-0.250000X-0.475000X0.250000X-0.475000X0.250000X0.475000X-0.250000X0.475000X0*%
%ADD21R,1.800000X1.200000*%
%ADD22R,1.550000X0.600000*%
%ADD23RoundRect,0.250000X0.450000X-0.262500X0.450000X0.262500X-0.450000X0.262500X-0.450000X-0.262500X0*%
%ADD24RoundRect,0.250000X-0.262500X-0.450000X0.262500X-0.450000X0.262500X0.450000X-0.262500X0.450000X0*%
%ADD25RoundRect,0.250000X0.250000X0.475000X-0.250000X0.475000X-0.250000X-0.475000X0.250000X-0.475000X0*%
%ADD26RoundRect,0.062500X-0.062500X0.475000X-0.062500X-0.475000X0.062500X-0.475000X0.062500X0.475000X0*%
%ADD27RoundRect,0.062500X-0.475000X0.062500X-0.475000X-0.062500X0.475000X-0.062500X0.475000X0.062500X0*%
%ADD28R,5.200000X5.200000*%
%ADD29R,0.700000X1.500000*%
%ADD30R,1.000000X0.800000*%
%ADD31C,0.450000*%
%ADD32R,1.200000X1.400000*%
G04 APERTURE END LIST*
D10*
%TO.C,JP2*%
X120254000Y-139700000D03*
D11*
X121554000Y-139700000D03*
%TD*%
D12*
%TO.C,D5*%
X152525000Y-90887500D03*
X155325000Y-90887500D03*
%TD*%
D13*
%TO.C,K8*%
X80645000Y-85725000D03*
D14*
X83185000Y-80645000D03*
X73787000Y-78740000D03*
X89535000Y-83185000D03*
D13*
X90805000Y-85725000D03*
D15*
X97663000Y-93980000D03*
D14*
X97663000Y-78740000D03*
D15*
X85725000Y-85725000D03*
X73787000Y-93980000D03*
D16*
X79629000Y-80645000D03*
X93091000Y-83185000D03*
%TD*%
D12*
%TO.C,D88*%
X51525000Y-90887500D03*
X54325000Y-90887500D03*
%TD*%
D10*
%TO.C,JP1*%
X83119200Y-138379200D03*
D11*
X84419200Y-138379200D03*
%TD*%
D14*
%TO.C,K22*%
X260985000Y-121285000D03*
D13*
X262255000Y-123825000D03*
X252095000Y-123825000D03*
D15*
X257175000Y-123825000D03*
D14*
X254635000Y-118745000D03*
D16*
X251079000Y-118745000D03*
X264541000Y-121285000D03*
%TD*%
D12*
%TO.C,D11*%
X291589000Y-112839500D03*
X294389000Y-112839500D03*
%TD*%
D17*
%TO.C,J2*%
X50934000Y-107815600D03*
D18*
X52204000Y-107815600D03*
X50934000Y-109085600D03*
X52204000Y-109085600D03*
X50934000Y-110355600D03*
X52204000Y-110355600D03*
%TD*%
D13*
%TO.C,K70*%
X328930000Y-85725000D03*
D14*
X321310000Y-80645000D03*
X327660000Y-83185000D03*
D15*
X323850000Y-85725000D03*
D13*
X318770000Y-85725000D03*
D16*
X317754000Y-80645000D03*
X331216000Y-83185000D03*
%TD*%
D13*
%TO.C,K82*%
X242570000Y-85725000D03*
X252730000Y-85725000D03*
D15*
X247650000Y-85725000D03*
D14*
X245110000Y-80645000D03*
X251460000Y-83185000D03*
D16*
X241554000Y-80645000D03*
X255016000Y-83185000D03*
%TD*%
D12*
%TO.C,D31*%
X296192400Y-145542000D03*
X293392400Y-145542000D03*
%TD*%
%TO.C,D60*%
X321815000Y-107569000D03*
X324615000Y-107569000D03*
%TD*%
D15*
%TO.C,K41*%
X283368750Y-161925000D03*
D13*
X278288750Y-161925000D03*
D14*
X287178750Y-159385000D03*
D13*
X288448750Y-161925000D03*
D14*
X280828750Y-156845000D03*
D16*
X277272750Y-156845000D03*
X290734750Y-159385000D03*
%TD*%
D13*
%TO.C,K7*%
X119380000Y-85725000D03*
D14*
X111760000Y-80645000D03*
D15*
X114300000Y-85725000D03*
D13*
X109220000Y-85725000D03*
D14*
X118110000Y-83185000D03*
D16*
X108204000Y-80645000D03*
X121666000Y-83185000D03*
%TD*%
D14*
%TO.C,K63*%
X203835000Y-121285000D03*
X197485000Y-118745000D03*
D13*
X205105000Y-123825000D03*
X194945000Y-123825000D03*
D15*
X200025000Y-123825000D03*
D16*
X193929000Y-118745000D03*
X207391000Y-121285000D03*
%TD*%
D12*
%TO.C,D41*%
X272790000Y-162710000D03*
X275590000Y-162710000D03*
%TD*%
%TO.C,D3*%
X229525000Y-90887500D03*
X232325000Y-90887500D03*
%TD*%
%TO.C,D2*%
X275339000Y-87782400D03*
X272539000Y-87782400D03*
%TD*%
D19*
%TO.C,DL14*%
X101975000Y-91787500D03*
X101975000Y-94987500D03*
X106875000Y-94987500D03*
X106875000Y-91787500D03*
%TD*%
%TO.C,DL1*%
X91705600Y-131292400D03*
X91705600Y-128092400D03*
X86805600Y-128092400D03*
X86805600Y-131292400D03*
%TD*%
D12*
%TO.C,D53*%
X199675000Y-146325000D03*
X202475000Y-146325000D03*
%TD*%
%TO.C,D44*%
X188716000Y-165123000D03*
X191516000Y-165123000D03*
%TD*%
%TO.C,D54*%
X168021000Y-144549000D03*
X165221000Y-144549000D03*
%TD*%
%TO.C,D16*%
X122806000Y-108839000D03*
X125606000Y-108839000D03*
%TD*%
%TO.C,D14*%
X180337000Y-108839000D03*
X183137000Y-108839000D03*
%TD*%
%TO.C,D20*%
X324990000Y-131762500D03*
X327790000Y-131762500D03*
%TD*%
D15*
%TO.C,K32*%
X252412500Y-142875000D03*
D13*
X257492500Y-142875000D03*
D14*
X256222500Y-140335000D03*
X249872500Y-137795000D03*
D13*
X247332500Y-142875000D03*
D16*
X246316500Y-137795000D03*
X259778500Y-140335000D03*
%TD*%
D12*
%TO.C,D30*%
X320164000Y-150685500D03*
X322964000Y-150685500D03*
%TD*%
D20*
%TO.C,C3*%
X68625000Y-133912000D03*
X70525000Y-133912000D03*
%TD*%
D14*
%TO.C,K10*%
X341947500Y-102235000D03*
X335597500Y-99695000D03*
D15*
X338137500Y-104775000D03*
D13*
X333057500Y-104775000D03*
X343217500Y-104775000D03*
D16*
X332041500Y-99695000D03*
X345503500Y-102235000D03*
%TD*%
D13*
%TO.C,K11*%
X294957500Y-104775000D03*
D15*
X300037500Y-104775000D03*
D14*
X297497500Y-99695000D03*
D13*
X305117500Y-104775000D03*
D14*
X303847500Y-102235000D03*
D16*
X293941500Y-99695000D03*
X307403500Y-102235000D03*
%TD*%
D14*
%TO.C,K27*%
X104806750Y-116840000D03*
X80930750Y-116840000D03*
X96678750Y-121285000D03*
X90328750Y-118745000D03*
D13*
X87788750Y-123825000D03*
D15*
X80930750Y-132080000D03*
X92868750Y-123825000D03*
X104806750Y-132080000D03*
D13*
X97948750Y-123825000D03*
D16*
X86772750Y-118745000D03*
X100234750Y-121285000D03*
%TD*%
D12*
%TO.C,D4*%
X191025000Y-90887500D03*
X193825000Y-90887500D03*
%TD*%
D19*
%TO.C,DL3*%
X180875000Y-131987500D03*
X180875000Y-128787500D03*
X175975000Y-128787500D03*
X175975000Y-131987500D03*
%TD*%
D13*
%TO.C,K42*%
X254476250Y-161925000D03*
D14*
X257016250Y-156845000D03*
D15*
X259556250Y-161925000D03*
D13*
X264636250Y-161925000D03*
D14*
X263366250Y-159385000D03*
D16*
X253460250Y-156845000D03*
X266922250Y-159385000D03*
%TD*%
D13*
%TO.C,K45*%
X161607500Y-161925000D03*
D14*
X164147500Y-156845000D03*
D15*
X166687500Y-161925000D03*
D14*
X170497500Y-159385000D03*
D13*
X171767500Y-161925000D03*
D16*
X160591500Y-156845000D03*
X174053500Y-159385000D03*
%TD*%
D13*
%TO.C,K12*%
X267017500Y-104775000D03*
D15*
X261937500Y-104775000D03*
D13*
X256857500Y-104775000D03*
D14*
X265747500Y-102235000D03*
X259397500Y-99695000D03*
D16*
X255841500Y-99695000D03*
X269303500Y-102235000D03*
%TD*%
D13*
%TO.C,K72*%
X237807500Y-104775000D03*
D14*
X246697500Y-102235000D03*
D15*
X242887500Y-104775000D03*
D14*
X240347500Y-99695000D03*
D13*
X247967500Y-104775000D03*
D16*
X236791500Y-99695000D03*
X250253500Y-102235000D03*
%TD*%
D12*
%TO.C,D81*%
X285543800Y-90220800D03*
X288343800Y-90220800D03*
%TD*%
%TO.C,D10*%
X329689000Y-112839500D03*
X332489000Y-112839500D03*
%TD*%
D13*
%TO.C,K34*%
X181292500Y-142875000D03*
D15*
X176212500Y-142875000D03*
D13*
X171132500Y-142875000D03*
D14*
X173672500Y-137795000D03*
X180022500Y-140335000D03*
D16*
X170116500Y-137795000D03*
X183578500Y-140335000D03*
%TD*%
D12*
%TO.C,D50*%
X319525000Y-127387500D03*
X322325000Y-127387500D03*
%TD*%
%TO.C,D35*%
X129664000Y-150939500D03*
X132464000Y-150939500D03*
%TD*%
%TO.C,D38*%
X70075000Y-108025000D03*
X70075000Y-105225000D03*
%TD*%
D14*
%TO.C,K13*%
X221297500Y-99695000D03*
D15*
X223837500Y-104775000D03*
D13*
X228917500Y-104775000D03*
D14*
X227647500Y-102235000D03*
D13*
X218757500Y-104775000D03*
D16*
X217741500Y-99695000D03*
X231203500Y-102235000D03*
%TD*%
D12*
%TO.C,D40*%
X304035000Y-148616000D03*
X304035000Y-145816000D03*
%TD*%
%TO.C,D6*%
X150142400Y-90982800D03*
X147342400Y-90982800D03*
%TD*%
D21*
%TO.C,J1*%
X246825000Y-109025000D03*
X246825000Y-114625000D03*
D22*
X242950000Y-113325000D03*
X242950000Y-112325000D03*
X242950000Y-111325000D03*
X242950000Y-110325000D03*
%TD*%
D14*
%TO.C,K73*%
X202247500Y-99695000D03*
X208597500Y-102235000D03*
D13*
X209867500Y-104775000D03*
X199707500Y-104775000D03*
D15*
X204787500Y-104775000D03*
D16*
X198691500Y-99695000D03*
X212153500Y-102235000D03*
%TD*%
D14*
%TO.C,K81*%
X289560000Y-83185000D03*
D13*
X280670000Y-85725000D03*
D15*
X285750000Y-85725000D03*
D14*
X283210000Y-80645000D03*
D13*
X290830000Y-85725000D03*
D16*
X279654000Y-80645000D03*
X293116000Y-83185000D03*
%TD*%
D13*
%TO.C,K74*%
X171767500Y-104775000D03*
D15*
X166687500Y-104775000D03*
D14*
X170497500Y-102235000D03*
X164147500Y-99695000D03*
D13*
X161607500Y-104775000D03*
D16*
X160591500Y-99695000D03*
X174053500Y-102235000D03*
%TD*%
D14*
%TO.C,K40*%
X313372500Y-140335000D03*
D13*
X304482500Y-142875000D03*
X314642500Y-142875000D03*
D14*
X307022500Y-137795000D03*
D15*
X309562500Y-142875000D03*
D16*
X303466500Y-137795000D03*
X316928500Y-140335000D03*
%TD*%
D14*
%TO.C,K52*%
X230822500Y-137795000D03*
D15*
X233362500Y-142875000D03*
D13*
X228282500Y-142875000D03*
D14*
X237172500Y-140335000D03*
D13*
X238442500Y-142875000D03*
D16*
X227266500Y-137795000D03*
X240728500Y-140335000D03*
%TD*%
D23*
%TO.C,R4*%
X73660000Y-119784500D03*
X73660000Y-117959500D03*
%TD*%
D15*
%TO.C,K16*%
X128587500Y-104775000D03*
D13*
X133667500Y-104775000D03*
X123507500Y-104775000D03*
D14*
X132397500Y-102235000D03*
X126047500Y-99695000D03*
D16*
X122491500Y-99695000D03*
X135953500Y-102235000D03*
%TD*%
D14*
%TO.C,K60*%
X322897500Y-102235000D03*
D13*
X324167500Y-104775000D03*
D15*
X319087500Y-104775000D03*
D13*
X314007500Y-104775000D03*
D14*
X316547500Y-99695000D03*
D16*
X312991500Y-99695000D03*
X326453500Y-102235000D03*
%TD*%
D12*
%TO.C,D25*%
X148584000Y-115466000D03*
X151384000Y-115466000D03*
%TD*%
%TO.C,D82*%
X258013200Y-85296200D03*
X258013200Y-82496200D03*
%TD*%
%TO.C,D8*%
X98809000Y-86258400D03*
X96009000Y-86258400D03*
%TD*%
D19*
%TO.C,DL15*%
X63975000Y-91787500D03*
X63975000Y-94987500D03*
X68875000Y-94987500D03*
X68875000Y-91787500D03*
%TD*%
D12*
%TO.C,D18*%
X96650000Y-108712000D03*
X93850000Y-108712000D03*
%TD*%
D14*
%TO.C,K23*%
X216535000Y-118745000D03*
D13*
X213995000Y-123825000D03*
D15*
X219075000Y-123825000D03*
D13*
X224155000Y-123825000D03*
D14*
X222885000Y-121285000D03*
D16*
X212979000Y-118745000D03*
X226441000Y-121285000D03*
%TD*%
D12*
%TO.C,D34*%
X179216400Y-148234400D03*
X182016400Y-148234400D03*
%TD*%
D19*
%TO.C,DL12*%
X178475000Y-88725000D03*
X178475000Y-91925000D03*
X183375000Y-91925000D03*
X183375000Y-88725000D03*
%TD*%
%TO.C,DL2*%
X135875000Y-131987500D03*
X135875000Y-128787500D03*
X130975000Y-128787500D03*
X130975000Y-131987500D03*
%TD*%
D15*
%TO.C,K24*%
X180975000Y-123825000D03*
D14*
X178435000Y-118745000D03*
D13*
X186055000Y-123825000D03*
X175895000Y-123825000D03*
D14*
X184785000Y-121285000D03*
D16*
X174879000Y-118745000D03*
X188341000Y-121285000D03*
%TD*%
D13*
%TO.C,K43*%
X226536250Y-161925000D03*
D14*
X218916250Y-156845000D03*
D15*
X233394250Y-153670000D03*
X209518250Y-153670000D03*
D14*
X225266250Y-159385000D03*
D15*
X221456250Y-161925000D03*
D13*
X216376250Y-161925000D03*
D14*
X233394250Y-168910000D03*
X209518250Y-168910000D03*
D16*
X215360250Y-156845000D03*
X228822250Y-159385000D03*
%TD*%
D15*
%TO.C,K3*%
X228600000Y-85725000D03*
D14*
X232410000Y-83185000D03*
D13*
X233680000Y-85725000D03*
X223520000Y-85725000D03*
D14*
X226060000Y-80645000D03*
D16*
X222504000Y-80645000D03*
X235966000Y-83185000D03*
%TD*%
D20*
%TO.C,C4*%
X68625000Y-136325000D03*
X70525000Y-136325000D03*
%TD*%
D12*
%TO.C,D83*%
X219862400Y-85677200D03*
X219862400Y-82877200D03*
%TD*%
%TO.C,D0*%
X345525000Y-90887500D03*
X348325000Y-90887500D03*
%TD*%
D14*
%TO.C,K83*%
X207010000Y-80645000D03*
D15*
X209550000Y-85725000D03*
D14*
X213360000Y-83185000D03*
D13*
X214630000Y-85725000D03*
X204470000Y-85725000D03*
D16*
X203454000Y-80645000D03*
X216916000Y-83185000D03*
%TD*%
D19*
%TO.C,DL8*%
X330975000Y-91787500D03*
X330975000Y-94987500D03*
X335875000Y-94987500D03*
X335875000Y-91787500D03*
%TD*%
D14*
%TO.C,K61*%
X273685000Y-118745000D03*
D13*
X281305000Y-123825000D03*
D14*
X280035000Y-121285000D03*
D15*
X276225000Y-123825000D03*
D13*
X271145000Y-123825000D03*
D16*
X270129000Y-118745000D03*
X283591000Y-121285000D03*
%TD*%
D12*
%TO.C,D17*%
X112392000Y-108712000D03*
X115192000Y-108712000D03*
%TD*%
D19*
%TO.C,DL13*%
X139975000Y-88725000D03*
X139975000Y-91925000D03*
X144875000Y-91925000D03*
X144875000Y-88725000D03*
%TD*%
D14*
%TO.C,K30*%
X326072500Y-137795000D03*
D13*
X333692500Y-142875000D03*
D14*
X332422500Y-140335000D03*
D15*
X328612500Y-142875000D03*
D13*
X323532500Y-142875000D03*
D16*
X322516500Y-137795000D03*
X335978500Y-140335000D03*
%TD*%
D12*
%TO.C,D7*%
X122422000Y-86256000D03*
X125222000Y-86256000D03*
%TD*%
%TO.C,D84*%
X172926200Y-90754200D03*
X170126200Y-90754200D03*
%TD*%
D14*
%TO.C,K31*%
X294322500Y-140335000D03*
D13*
X285432500Y-142875000D03*
D14*
X287972500Y-137795000D03*
D13*
X295592500Y-142875000D03*
D15*
X290512500Y-142875000D03*
D16*
X284416500Y-137795000D03*
X297878500Y-140335000D03*
%TD*%
D24*
%TO.C,R2*%
X123671500Y-139723000D03*
X125496500Y-139723000D03*
%TD*%
D12*
%TO.C,D15*%
X142364000Y-108712000D03*
X145164000Y-108712000D03*
%TD*%
%TO.C,D73*%
X193675000Y-107325000D03*
X196475000Y-107325000D03*
%TD*%
D14*
%TO.C,K46*%
X151447500Y-159385000D03*
D13*
X152717500Y-161925000D03*
X142557500Y-161925000D03*
D15*
X147637500Y-161925000D03*
D14*
X145097500Y-156845000D03*
D16*
X141541500Y-156845000D03*
X155003500Y-159385000D03*
%TD*%
D12*
%TO.C,D26*%
X129661000Y-115466000D03*
X132461000Y-115466000D03*
%TD*%
%TO.C,D21*%
X300866000Y-126492000D03*
X298066000Y-126492000D03*
%TD*%
%TO.C,D63*%
X208714800Y-126085600D03*
X205914800Y-126085600D03*
%TD*%
D19*
%TO.C,DL7*%
X315875000Y-131987500D03*
X315875000Y-128787500D03*
X310975000Y-128787500D03*
X310975000Y-131987500D03*
%TD*%
D16*
%TO.C,K36*%
X109759750Y-140335000D03*
X96297750Y-137795000D03*
D14*
X90455750Y-135890000D03*
D15*
X102393750Y-142875000D03*
D13*
X97313750Y-142875000D03*
X107473750Y-142875000D03*
D14*
X106203750Y-140335000D03*
X99853750Y-137795000D03*
D15*
X90455750Y-151130000D03*
D14*
X114331750Y-135890000D03*
D15*
X114331750Y-151130000D03*
%TD*%
D12*
%TO.C,D27*%
X110947200Y-124132800D03*
X110947200Y-121332800D03*
%TD*%
%TO.C,D72*%
X237233000Y-107442000D03*
X240033000Y-107442000D03*
%TD*%
%TO.C,D51*%
X274568000Y-148105000D03*
X277368000Y-148105000D03*
%TD*%
D15*
%TO.C,K2*%
X266700000Y-85725000D03*
D13*
X271780000Y-85725000D03*
X261620000Y-85725000D03*
D14*
X270510000Y-83185000D03*
X264160000Y-80645000D03*
D16*
X260604000Y-80645000D03*
X274066000Y-83185000D03*
%TD*%
D12*
%TO.C,D1*%
X307870400Y-88620600D03*
X310670400Y-88620600D03*
%TD*%
D13*
%TO.C,K1*%
X299720000Y-85725000D03*
D15*
X304800000Y-85725000D03*
D13*
X309880000Y-85725000D03*
D14*
X302260000Y-80645000D03*
X308610000Y-83185000D03*
D16*
X298704000Y-80645000D03*
X312166000Y-83185000D03*
%TD*%
D13*
%TO.C,K26*%
X128905000Y-123825000D03*
X118745000Y-123825000D03*
D15*
X123825000Y-123825000D03*
D14*
X121285000Y-118745000D03*
X127635000Y-121285000D03*
D16*
X117729000Y-118745000D03*
X131191000Y-121285000D03*
%TD*%
D13*
%TO.C,K44*%
X180657500Y-161925000D03*
D14*
X183197500Y-156845000D03*
X189547500Y-159385000D03*
D15*
X185737500Y-161925000D03*
D13*
X190817500Y-161925000D03*
D16*
X179641500Y-156845000D03*
X193103500Y-159385000D03*
%TD*%
D25*
%TO.C,C5*%
X67025000Y-140525000D03*
X65125000Y-140525000D03*
%TD*%
D19*
%TO.C,DL6*%
X270875000Y-131987500D03*
X270875000Y-128787500D03*
X265975000Y-128787500D03*
X265975000Y-131987500D03*
%TD*%
D12*
%TO.C,D22*%
X265687000Y-115593000D03*
X262887000Y-115593000D03*
%TD*%
%TO.C,D24*%
X186425000Y-129787500D03*
X186425000Y-126987500D03*
%TD*%
D13*
%TO.C,K38*%
X56832500Y-104775000D03*
X66992500Y-104775000D03*
D14*
X65722500Y-102235000D03*
D15*
X61912500Y-104775000D03*
D14*
X59372500Y-99695000D03*
D16*
X55816500Y-99695000D03*
X69278500Y-102235000D03*
%TD*%
D15*
%TO.C,K54*%
X157162500Y-142875000D03*
D14*
X154622500Y-137795000D03*
X160972500Y-140335000D03*
D13*
X162242500Y-142875000D03*
X152082500Y-142875000D03*
D16*
X151066500Y-137795000D03*
X164528500Y-140335000D03*
%TD*%
D12*
%TO.C,D33*%
X208425000Y-148787500D03*
X208425000Y-145987500D03*
%TD*%
D26*
%TO.C,U1*%
X77075000Y-140703500D03*
X76575000Y-140703500D03*
X76075000Y-140703500D03*
X75575000Y-140703500D03*
X75075000Y-140703500D03*
X74575000Y-140703500D03*
X74075000Y-140703500D03*
X73575000Y-140703500D03*
X73075000Y-140703500D03*
X72575000Y-140703500D03*
X72075000Y-140703500D03*
D27*
X71237500Y-141541000D03*
X71237500Y-142041000D03*
X71237500Y-142541000D03*
X71237500Y-143041000D03*
X71237500Y-143541000D03*
X71237500Y-144041000D03*
X71237500Y-144541000D03*
X71237500Y-145041000D03*
X71237500Y-145541000D03*
X71237500Y-146041000D03*
X71237500Y-146541000D03*
D26*
X72075000Y-147378500D03*
X72575000Y-147378500D03*
X73075000Y-147378500D03*
X73575000Y-147378500D03*
X74075000Y-147378500D03*
X74575000Y-147378500D03*
X75075000Y-147378500D03*
X75575000Y-147378500D03*
X76075000Y-147378500D03*
X76575000Y-147378500D03*
X77075000Y-147378500D03*
D27*
X77912500Y-146541000D03*
X77912500Y-146041000D03*
X77912500Y-145541000D03*
X77912500Y-145041000D03*
X77912500Y-144541000D03*
X77912500Y-144041000D03*
X77912500Y-143541000D03*
X77912500Y-143041000D03*
X77912500Y-142541000D03*
X77912500Y-142041000D03*
X77912500Y-141541000D03*
D28*
X74575000Y-144041000D03*
%TD*%
D15*
%TO.C,K51*%
X271462500Y-142875000D03*
D14*
X268922500Y-137795000D03*
X275272500Y-140335000D03*
D13*
X266382500Y-142875000D03*
X276542500Y-142875000D03*
D16*
X265366500Y-137795000D03*
X278828500Y-140335000D03*
%TD*%
D13*
%TO.C,K53*%
X190182500Y-142875000D03*
D15*
X195262500Y-142875000D03*
D14*
X199072500Y-140335000D03*
D13*
X200342500Y-142875000D03*
D14*
X192722500Y-137795000D03*
D16*
X189166500Y-137795000D03*
X202628500Y-140335000D03*
%TD*%
D13*
%TO.C,K88*%
X52070000Y-85725000D03*
D14*
X54610000Y-80645000D03*
D13*
X62230000Y-85725000D03*
D15*
X57150000Y-85725000D03*
D14*
X60960000Y-83185000D03*
D16*
X51054000Y-80645000D03*
X64516000Y-83185000D03*
%TD*%
D15*
%TO.C,K21*%
X295275000Y-123825000D03*
D14*
X299085000Y-121285000D03*
D13*
X290195000Y-123825000D03*
X300355000Y-123825000D03*
D14*
X292735000Y-118745000D03*
D16*
X289179000Y-118745000D03*
X302641000Y-121285000D03*
%TD*%
D13*
%TO.C,K15*%
X142557500Y-104775000D03*
D15*
X147637500Y-104775000D03*
D14*
X145097500Y-99695000D03*
X151447500Y-102235000D03*
D13*
X152717500Y-104775000D03*
D16*
X141541500Y-99695000D03*
X155003500Y-102235000D03*
%TD*%
D19*
%TO.C,DL9*%
X292975000Y-91787500D03*
X292975000Y-94987500D03*
X297875000Y-94987500D03*
X297875000Y-91787500D03*
%TD*%
D20*
%TO.C,C2*%
X68625000Y-131499000D03*
X70525000Y-131499000D03*
%TD*%
D12*
%TO.C,D43*%
X227076000Y-164742000D03*
X224276000Y-164742000D03*
%TD*%
%TO.C,D13*%
X218056000Y-108839000D03*
X220856000Y-108839000D03*
%TD*%
D19*
%TO.C,DL4*%
X225875000Y-152987500D03*
X225875000Y-149787500D03*
X220975000Y-149787500D03*
X220975000Y-152987500D03*
%TD*%
D14*
%TO.C,K64*%
X165735000Y-121285000D03*
D15*
X161925000Y-123825000D03*
D13*
X156845000Y-123825000D03*
X167005000Y-123825000D03*
D14*
X159385000Y-118745000D03*
D16*
X155829000Y-118745000D03*
X169291000Y-121285000D03*
%TD*%
D12*
%TO.C,D42*%
X270002000Y-162710000D03*
X267202000Y-162710000D03*
%TD*%
D25*
%TO.C,C7*%
X74708600Y-131544200D03*
X72808600Y-131544200D03*
%TD*%
D13*
%TO.C,K6*%
X138430000Y-85725000D03*
X128270000Y-85725000D03*
D14*
X137160000Y-83185000D03*
D15*
X133350000Y-85725000D03*
D14*
X130810000Y-80645000D03*
D16*
X127254000Y-80645000D03*
X140716000Y-83185000D03*
%TD*%
D23*
%TO.C,R1*%
X242440000Y-168829500D03*
X242440000Y-167004500D03*
%TD*%
D14*
%TO.C,K33*%
X218122500Y-140335000D03*
D13*
X209232500Y-142875000D03*
D15*
X214312500Y-142875000D03*
D13*
X219392500Y-142875000D03*
D14*
X211772500Y-137795000D03*
D16*
X208216500Y-137795000D03*
X221678500Y-140335000D03*
%TD*%
D12*
%TO.C,D46*%
X153035000Y-165123000D03*
X150235000Y-165123000D03*
%TD*%
D19*
%TO.C,DL11*%
X216475000Y-88725000D03*
X216475000Y-91925000D03*
X221375000Y-91925000D03*
X221375000Y-88725000D03*
%TD*%
D14*
%TO.C,K35*%
X135572500Y-137795000D03*
X141922500Y-140335000D03*
D13*
X143192500Y-142875000D03*
D15*
X138112500Y-142875000D03*
D13*
X133032500Y-142875000D03*
D16*
X132016500Y-137795000D03*
X145478500Y-140335000D03*
%TD*%
D15*
%TO.C,K18*%
X85725000Y-104775000D03*
D13*
X90805000Y-104775000D03*
X80645000Y-104775000D03*
D14*
X83185000Y-99695000D03*
X89535000Y-102235000D03*
D16*
X79629000Y-99695000D03*
X93091000Y-102235000D03*
%TD*%
D19*
%TO.C,DL5*%
X225875000Y-131987500D03*
X225875000Y-128787500D03*
X220975000Y-128787500D03*
X220975000Y-131987500D03*
%TD*%
D13*
%TO.C,K14*%
X190817500Y-104775000D03*
D14*
X189547500Y-102235000D03*
D15*
X185737500Y-104775000D03*
D13*
X180657500Y-104775000D03*
D14*
X183197500Y-99695000D03*
D16*
X179641500Y-99695000D03*
X193103500Y-102235000D03*
%TD*%
D29*
%TO.C,SW2*%
X122488000Y-143982500D03*
X125488000Y-143982500D03*
X126988000Y-143982500D03*
D30*
X121088000Y-144632500D03*
X121088000Y-146832500D03*
X128388000Y-144632500D03*
X128388000Y-146832500D03*
D31*
X123238000Y-145732500D03*
X126238000Y-145732500D03*
%TD*%
D19*
%TO.C,DL10*%
X254625000Y-88725000D03*
X254625000Y-91925000D03*
X259525000Y-91925000D03*
X259525000Y-88725000D03*
%TD*%
D12*
%TO.C,D74*%
X172469000Y-107315000D03*
X169669000Y-107315000D03*
%TD*%
%TO.C,D23*%
X227838000Y-115466000D03*
X225038000Y-115466000D03*
%TD*%
D15*
%TO.C,K62*%
X238125000Y-123825000D03*
D13*
X243205000Y-123825000D03*
D14*
X235585000Y-118745000D03*
X241935000Y-121285000D03*
D13*
X233045000Y-123825000D03*
D16*
X232029000Y-118745000D03*
X245491000Y-121285000D03*
%TD*%
D12*
%TO.C,D64*%
X170434000Y-115339000D03*
X167634000Y-115339000D03*
%TD*%
D23*
%TO.C,R3*%
X72644000Y-115593500D03*
X72644000Y-113768500D03*
%TD*%
D12*
%TO.C,D71*%
X273301000Y-108077000D03*
X276101000Y-108077000D03*
%TD*%
%TO.C,D61*%
X282067000Y-126619000D03*
X279267000Y-126619000D03*
%TD*%
D13*
%TO.C,K5*%
X147320000Y-85725000D03*
D15*
X152400000Y-85725000D03*
D14*
X149860000Y-80645000D03*
D13*
X157480000Y-85725000D03*
D14*
X156210000Y-83185000D03*
D16*
X146304000Y-80645000D03*
X159766000Y-83185000D03*
%TD*%
D13*
%TO.C,K4*%
X185420000Y-85725000D03*
D14*
X194310000Y-83185000D03*
X187960000Y-80645000D03*
D15*
X190500000Y-85725000D03*
D13*
X195580000Y-85725000D03*
D16*
X184404000Y-80645000D03*
X197866000Y-83185000D03*
%TD*%
D14*
%TO.C,K17*%
X106997500Y-99695000D03*
D13*
X114617500Y-104775000D03*
D14*
X113347500Y-102235000D03*
D15*
X109537500Y-104775000D03*
D13*
X104457500Y-104775000D03*
D16*
X103441500Y-99695000D03*
X116903500Y-102235000D03*
%TD*%
D12*
%TO.C,D45*%
X169666000Y-165123000D03*
X172466000Y-165123000D03*
%TD*%
D32*
%TO.C,Y1*%
X66925000Y-145223000D03*
X66925000Y-143023000D03*
X65225000Y-143023000D03*
X65225000Y-145223000D03*
%TD*%
D12*
%TO.C,D70*%
X315617400Y-88493600D03*
X318417400Y-88493600D03*
%TD*%
%TO.C,D52*%
X242824000Y-146116500D03*
X242824000Y-143316500D03*
%TD*%
D14*
%TO.C,K50*%
X311785000Y-118745000D03*
D15*
X314325000Y-123825000D03*
D14*
X318135000Y-121285000D03*
D13*
X309245000Y-123825000D03*
X319405000Y-123825000D03*
D16*
X308229000Y-118745000D03*
X321691000Y-121285000D03*
%TD*%
D12*
%TO.C,D62*%
X248282000Y-126518000D03*
X248282000Y-123718000D03*
%TD*%
D14*
%TO.C,K84*%
X168910000Y-80645000D03*
D13*
X176530000Y-85725000D03*
X166370000Y-85725000D03*
D14*
X175260000Y-83185000D03*
D15*
X171450000Y-85725000D03*
D16*
X165354000Y-80645000D03*
X178816000Y-83185000D03*
%TD*%
D15*
%TO.C,K25*%
X142875000Y-123825000D03*
D13*
X137795000Y-123825000D03*
X147955000Y-123825000D03*
D14*
X140335000Y-118745000D03*
X146685000Y-121285000D03*
D16*
X136779000Y-118745000D03*
X150241000Y-121285000D03*
%TD*%
D15*
%TO.C,K71*%
X280987500Y-104775000D03*
D14*
X284797500Y-102235000D03*
D13*
X286067500Y-104775000D03*
X275907500Y-104775000D03*
D14*
X278447500Y-99695000D03*
D16*
X274891500Y-99695000D03*
X288353500Y-102235000D03*
%TD*%
D12*
%TO.C,D36*%
X105150000Y-148105000D03*
X107950000Y-148105000D03*
%TD*%
%TO.C,D12*%
X269575000Y-108825000D03*
X269575000Y-106025000D03*
%TD*%
D14*
%TO.C,K0*%
X346710000Y-83185000D03*
X340360000Y-80645000D03*
D13*
X337820000Y-85725000D03*
X347980000Y-85725000D03*
D15*
X342900000Y-85725000D03*
D16*
X336804000Y-80645000D03*
X350266000Y-83185000D03*
%TD*%
D20*
%TO.C,C1*%
X68625000Y-129086000D03*
X70525000Y-129086000D03*
%TD*%
D12*
%TO.C,D32*%
X257934000Y-147854000D03*
X257934000Y-145054000D03*
%TD*%
D15*
%TO.C,K20*%
X333375000Y-123825000D03*
D14*
X337185000Y-121285000D03*
D13*
X328295000Y-123825000D03*
X338455000Y-123825000D03*
D14*
X330835000Y-118745000D03*
D16*
X327279000Y-118745000D03*
X340741000Y-121285000D03*
%TD*%
D20*
%TO.C,C6*%
X65125000Y-147725000D03*
X67025000Y-147725000D03*
%TD*%
M02*
