%TF.GenerationSoftware,KiCad,Pcbnew,(6.0.7-1)-1*%
%TF.CreationDate,2022-10-07T20:49:55+02:00*%
%TF.ProjectId,hedgehog-lite,68656467-6568-46f6-972d-6c6974652e6b,rev?*%
%TF.SameCoordinates,Original*%
%TF.FileFunction,Legend,Bot*%
%TF.FilePolarity,Positive*%
%FSLAX46Y46*%
G04 Gerber Fmt 4.6, Leading zero omitted, Abs format (unit mm)*
G04 Created by KiCad (PCBNEW (6.0.7-1)-1) date 2022-10-07 20:49:55*
%MOMM*%
%LPD*%
G01*
G04 APERTURE LIST*
%ADD10C,0.484149*%
%ADD11C,0.900000*%
%ADD12C,0.150000*%
%ADD13C,0.300000*%
%ADD14C,0.120000*%
%ADD15C,3.987800*%
%ADD16C,3.048000*%
%ADD17C,1.701800*%
%ADD18O,1.000000X1.000000*%
%ADD19R,1.000000X1.000000*%
%ADD20C,1.400000*%
%ADD21C,0.450000*%
%ADD22R,1.700000X1.000000*%
G04 APERTURE END LIST*
D10*
X-81022082Y-34275045D02*
X-80176028Y-34867744D01*
X-82923879Y-67366573D02*
X-78957677Y-67224302D01*
X-99590379Y-47212356D02*
X-99411412Y-47327447D01*
X-100500927Y-45278662D02*
X-100510138Y-45459319D01*
X-118700987Y-11807887D02*
X-118770760Y-11953667D01*
X-123431543Y-31002601D02*
X-123258153Y-30853963D01*
X-40346072Y-62375325D02*
X-40305675Y-62338478D01*
X-59134441Y-9284626D02*
X-57429628Y-8583265D01*
X-92131101Y-75987667D02*
X-91957783Y-76006475D01*
X-97856638Y-47841475D02*
X-97506946Y-47888320D01*
X-35346329Y-50397021D02*
X-35107962Y-50243641D01*
X-92596913Y-45983033D02*
X-92563438Y-45866785D01*
X-84719489Y-32196555D02*
X-83749656Y-32663302D01*
X-108037976Y-14091388D02*
X-107763484Y-15237153D01*
X-88528435Y-73392035D02*
X-88245250Y-72704054D01*
X-55407066Y-16762944D02*
X-57591341Y-17076942D01*
X-85092145Y-9572892D02*
X-85383859Y-10124091D01*
X-77841099Y-74230230D02*
X-77543464Y-74447474D01*
X-61987167Y-10566542D02*
X-60590796Y-9922881D01*
X-115738147Y-12030474D02*
X-116586359Y-11798390D01*
X-95277116Y-30533898D02*
X-94666426Y-30462517D01*
X-61238879Y-17685676D02*
X-61386538Y-15995758D01*
X-123070010Y-30714604D02*
X-122866522Y-30585116D01*
X-68984174Y-34683927D02*
X-68953718Y-34385071D01*
X-113769706Y-58422260D02*
X-113232144Y-59196942D01*
X-97548212Y-6075790D02*
X-99407197Y-5312523D01*
X-52972162Y-12405772D02*
X-53632255Y-14003010D01*
X-101890280Y-4417874D02*
X-102537480Y-4238513D01*
X-114703557Y-35546864D02*
X-115647770Y-43173510D01*
X-87241079Y-67344745D02*
X-85040905Y-67382883D01*
X-120189263Y-39104694D02*
X-120704994Y-38869664D01*
X-48247581Y-18265445D02*
X-48156240Y-18004071D01*
X-73681402Y-28903255D02*
X-73910871Y-28909109D01*
X-36433936Y-37476655D02*
X-36258073Y-37249214D01*
X-118208520Y-11594079D02*
X-118419700Y-11633384D01*
X-97087831Y-72706890D02*
X-96895737Y-73007620D01*
X-117954954Y-11584118D02*
X-118208520Y-11594079D01*
X-106382359Y-69270088D02*
X-106319805Y-68847072D01*
X-106294003Y-71762775D02*
X-106376350Y-71366080D01*
X-39398056Y-40145869D02*
X-38794427Y-39676283D01*
X-36739563Y-29321109D02*
X-37188607Y-29210624D01*
X-48016730Y-17305772D02*
X-48021854Y-17108176D01*
X-64321301Y-6068852D02*
X-64568388Y-6060085D01*
X-79287395Y-37750837D02*
X-79230600Y-38141730D01*
X-85040905Y-67382883D02*
X-82923879Y-67366573D01*
X-35845206Y-36433334D02*
X-35827254Y-36259260D01*
X-124534330Y-33080885D02*
X-124425782Y-32660317D01*
X-41536906Y-62516315D02*
X-41359606Y-62527336D01*
X-35111692Y-48096461D02*
X-35588394Y-47533414D01*
X-108681386Y-33400034D02*
X-105174860Y-32493329D01*
X-42073344Y-42038026D02*
X-41038278Y-41337945D01*
X-100398184Y-46170459D02*
X-100347468Y-46303070D01*
X-75652635Y-75017408D02*
X-75186654Y-75007525D01*
X-115071927Y-23088451D02*
X-115517087Y-23144353D01*
X-57078050Y-45470141D02*
X-51673381Y-45554150D01*
X-105174860Y-32493329D02*
X-100923222Y-31555169D01*
X-83732005Y-7703457D02*
X-83915510Y-7885317D01*
X-94651057Y-47729647D02*
X-94390824Y-47650170D01*
X-95188094Y-10343367D02*
X-96305373Y-11310840D01*
X-49375620Y-16324869D02*
X-50148078Y-16301787D01*
X-114378459Y-7466645D02*
X-114401495Y-7552203D01*
X-75579214Y-2685653D02*
X-75705489Y-2792572D01*
X-62653559Y-69758370D02*
X-62614284Y-68788854D01*
X-115980061Y-23218589D02*
X-116447317Y-23313760D01*
X-85137872Y-21063690D02*
X-85424358Y-20789718D01*
X-37128608Y-23849670D02*
X-37268585Y-23716456D01*
X-109337255Y-14519557D02*
X-110970652Y-13811287D01*
X-108793727Y-10465434D02*
X-109583001Y-9921256D01*
X-91067050Y-7191191D02*
X-91737186Y-7637642D01*
X-108282745Y-12906503D02*
X-108037976Y-14091388D01*
X-37424550Y-34825859D02*
X-38106686Y-34505358D01*
X-48121765Y-16777552D02*
X-48220625Y-16648462D01*
X-51762838Y-8057502D02*
X-51772540Y-8316013D01*
X-61238879Y-17685676D02*
X-61238879Y-17685676D01*
X-75719714Y-29503884D02*
X-75941279Y-29648370D01*
X-69145438Y-32603520D02*
X-69235610Y-32318032D01*
X-107959279Y-7457304D02*
X-108111313Y-7523315D01*
X-93061197Y-75749387D02*
X-92870811Y-75812968D01*
X-71607077Y-4346821D02*
X-72282715Y-3901256D01*
X-68344189Y-66587247D02*
X-66918270Y-66397522D01*
X-75104613Y-2583570D02*
X-75286810Y-2583946D01*
X-76557874Y-6068751D02*
X-76608486Y-6788974D01*
X-101372340Y-74356740D02*
X-101662972Y-74420028D01*
X-107296700Y-7461251D02*
X-107554470Y-7429374D01*
X-114239946Y-57614018D02*
X-113769706Y-58422260D01*
X-92496476Y-45472762D02*
X-92490057Y-45333186D01*
X-81900204Y-33707062D02*
X-81022082Y-34275045D01*
X-82965089Y-23488693D02*
X-83131572Y-23267174D01*
X-63523040Y-72960416D02*
X-63311838Y-72551437D01*
X-71216354Y-44196360D02*
X-69051289Y-46632130D01*
X-97701118Y-68776764D02*
X-97746101Y-69121168D01*
X-35107962Y-50243641D02*
X-34902941Y-50087418D01*
X-115947123Y-51227912D02*
X-115847963Y-52200650D01*
X-39756600Y-27916600D02*
X-39042175Y-27187708D01*
X-60590796Y-9922881D02*
X-59134441Y-9284626D01*
X-78957677Y-67224302D02*
X-72225514Y-66877010D01*
X-122211341Y-37985555D02*
X-122676087Y-37640495D01*
X-108629970Y-8610181D02*
X-108660383Y-8882414D01*
X-37268585Y-23716456D02*
X-37474831Y-23597137D01*
X-123313673Y-37085302D02*
X-123506764Y-36891607D01*
X-68035092Y-47756982D02*
X-67088540Y-48784785D01*
X-62702310Y-66973525D02*
X-62795061Y-66188195D01*
X-105023228Y-73761187D02*
X-105339908Y-73486913D01*
X-108111313Y-7523315D02*
X-108242899Y-7626514D01*
X-38196000Y-39187716D02*
X-37622964Y-38690446D01*
X-111179737Y-61294472D02*
X-110337103Y-61909759D01*
X-66558832Y-6800928D02*
X-67356573Y-7281351D01*
X-74657985Y-74952062D02*
X-74412266Y-74912506D01*
X-60158340Y-54172270D02*
X-58118959Y-55369685D01*
X-40768030Y-59977132D02*
X-41238130Y-58434245D01*
X-105706866Y-66506482D02*
X-105471655Y-65865593D01*
X-108355062Y-7764327D02*
X-108448826Y-7934176D01*
X-69596950Y-31501540D02*
X-69746174Y-31246095D01*
X-79204325Y-34838098D02*
X-79256636Y-35141268D01*
X-118488872Y-24327580D02*
X-118582758Y-24469996D01*
X-61871479Y-12215677D02*
X-62052791Y-11170768D01*
X-34477898Y-49438389D02*
X-34483776Y-49261025D01*
X-70692297Y-9758966D02*
X-71463694Y-10402701D01*
X-95893297Y-30626696D02*
X-95277116Y-30533898D01*
X-103451637Y-6015230D02*
X-103244876Y-6513792D01*
X-85718395Y-31772583D02*
X-84719489Y-32196555D01*
X-123869112Y-31498277D02*
X-123736431Y-31325350D01*
X-90976955Y-75916371D02*
X-90682883Y-75815754D01*
X-57591341Y-17076942D02*
X-59454576Y-17375262D01*
X-94061319Y-30411988D02*
X-93461890Y-30381747D01*
X-54238904Y-15369906D02*
X-54855218Y-16682482D01*
X-69755308Y-36658293D02*
X-69582223Y-36395973D01*
X-77241243Y-30854125D02*
X-77452268Y-31112583D01*
X-100347468Y-46303070D02*
X-100284620Y-46437019D01*
X-62298314Y-33992243D02*
X-58938090Y-30771935D01*
X-71183805Y-73173485D02*
X-70897475Y-73526533D01*
X-45044658Y-61392346D02*
X-42161615Y-62441711D01*
X-34533397Y-49062831D02*
X-34623880Y-48845542D01*
X-104658797Y-74005715D02*
X-105023228Y-73761187D01*
X-119857565Y-29963281D02*
X-119446247Y-29981416D01*
X-69235610Y-32318032D02*
X-69341218Y-32038526D01*
X-93010407Y-46747866D02*
X-92911497Y-46617681D01*
X-94666426Y-30462517D02*
X-94061319Y-30411988D01*
X-37492156Y-45691407D02*
X-38207805Y-45072724D01*
X-97918338Y-67252878D02*
X-97883648Y-68066533D01*
X-124398854Y-35663272D02*
X-124494812Y-35450783D01*
X-76598037Y-30177980D02*
X-76814049Y-30386934D01*
X-118581119Y-13319916D02*
X-118299147Y-14100641D01*
X-103702014Y-4332827D02*
X-103749088Y-4448991D01*
X-69102621Y-35274129D02*
X-69033659Y-34980619D01*
X-48534935Y-16466601D02*
X-48767664Y-16403830D01*
X-91872464Y-67051434D02*
X-89519799Y-67238737D01*
X-84778493Y-9038105D02*
X-85092145Y-9572892D01*
X-92690498Y-46229393D02*
X-92638955Y-46104256D01*
X-96456849Y-64567927D02*
X-96965481Y-65973879D01*
X-64736994Y-74296210D02*
X-64373815Y-74014840D01*
X-79347884Y-36015206D02*
X-79359255Y-36292167D01*
X-96781223Y-66379254D02*
X-94294473Y-66769414D01*
X-68577199Y-6585442D02*
X-69653699Y-5753243D01*
X-70273897Y-30544179D02*
X-70474991Y-30335074D01*
X-89231505Y-74613705D02*
X-89037504Y-74332673D01*
X-87271919Y-68523957D02*
X-87135920Y-67502261D01*
X-87009208Y-10368298D02*
X-87139167Y-9745937D01*
X-89395527Y-6365006D02*
X-89626710Y-6436132D01*
X-108599906Y-10827901D02*
X-108511779Y-11533458D01*
X-76493659Y-74904471D02*
X-76087956Y-74982075D01*
X-103749088Y-4448991D02*
X-103773949Y-4587297D01*
X-43390080Y-31206641D02*
X-42033325Y-30034438D01*
X-91737186Y-7637642D02*
X-92436136Y-8139641D01*
X-52120605Y-9977352D02*
X-52367786Y-10760743D01*
X-87139167Y-9745937D02*
X-87290111Y-9121986D01*
X-124286347Y-35874125D02*
X-124398854Y-35663272D01*
X-80051991Y-67502142D02*
X-80053658Y-67839283D01*
X-86509219Y-19857076D02*
X-86748961Y-19683186D01*
X-67356573Y-7281351D02*
X-68188535Y-7840296D01*
X-97777128Y-69463374D02*
X-97793147Y-69803120D01*
X-43159114Y-52685389D02*
X-41828154Y-52427601D01*
X-39648067Y-33889618D02*
X-40459132Y-33602297D01*
X-72559099Y-65740039D02*
X-72630611Y-66845108D01*
X-34902941Y-50087418D02*
X-34734344Y-49928567D01*
X-65622909Y-50209092D02*
X-64810423Y-50903799D01*
X-115282505Y-55013081D02*
X-114992767Y-55906913D01*
X-118721010Y-25890829D02*
X-118635012Y-26627917D01*
X-98771070Y-11437634D02*
X-100255477Y-10607747D01*
X-114184576Y-7364605D02*
X-114272900Y-7375354D01*
X-82777877Y-7155384D02*
X-82972496Y-7209700D01*
X-40302261Y-61766369D02*
X-40415180Y-61267375D01*
X-35910778Y-50694399D02*
X-35346329Y-50397021D01*
X-99619148Y-73446281D02*
X-99898913Y-73673217D01*
X-85918745Y-43631089D02*
X-85918745Y-40067605D01*
X-124097905Y-31864280D02*
X-123989406Y-31678118D01*
X-67088540Y-48784785D02*
X-66384007Y-49502499D01*
X-37413533Y-25187441D02*
X-37252879Y-24905179D01*
X-43410478Y-32682373D02*
X-44736865Y-32319433D01*
X-74178608Y-74865857D02*
X-73956750Y-74812707D01*
X-35481643Y-31192625D02*
X-35359274Y-30858622D01*
X-118700987Y-24784506D02*
X-118700987Y-24784506D01*
X-72027178Y-73799450D02*
X-71943012Y-73717433D01*
X-100458519Y-45018745D02*
X-100483310Y-45139639D01*
X-105611323Y-73185561D02*
X-105839955Y-72859803D01*
X-72392512Y-70193129D02*
X-72292799Y-70648301D01*
X-35311278Y-30078108D02*
X-35311278Y-30078108D01*
X-95850680Y-74154486D02*
X-95514971Y-74425878D01*
X-108448826Y-7934176D02*
X-108525216Y-8133486D01*
X-75821823Y-2934659D02*
X-75928610Y-3109292D01*
X-108525216Y-8133486D02*
X-108585256Y-8359680D01*
X-70687929Y-30140100D02*
X-70912263Y-29960275D01*
X-77661474Y-31387760D02*
X-77868782Y-31679769D01*
X-97358552Y-12257501D02*
X-97358552Y-12257501D01*
X-104732244Y-8350576D02*
X-105571376Y-7997828D01*
X-36258073Y-37249214D02*
X-36108744Y-37029876D01*
X-42161615Y-62441711D02*
X-41852431Y-62485264D01*
X-73015286Y-74470151D02*
X-72858724Y-74390423D01*
X-40451096Y-62435558D02*
X-40394792Y-62407603D01*
X-35963660Y-29581674D02*
X-36326669Y-29444646D01*
X-36833570Y-35149504D02*
X-37424550Y-34825859D01*
X-86736622Y-12034083D02*
X-86899372Y-10969893D01*
X-98989225Y-47536442D02*
X-98743776Y-47628332D01*
X-83165544Y-7293806D02*
X-83356696Y-7405561D01*
X-62494391Y-9172671D02*
X-62756646Y-8279937D01*
X-79674156Y-8397948D02*
X-80364652Y-7977622D01*
X-79732530Y-70670194D02*
X-79545949Y-71388726D01*
X-62701577Y-70245360D02*
X-62653559Y-69758370D01*
X-100284620Y-46437019D02*
X-100208527Y-46571297D01*
X-107763484Y-15237153D02*
X-107763484Y-15237153D01*
X-103773949Y-4587297D02*
X-103778093Y-4745838D01*
X-65143565Y-74536227D02*
X-64736994Y-74296210D01*
X-71635002Y-73354848D02*
X-71559560Y-73243032D01*
X-71438211Y-72795077D02*
X-71183805Y-73173485D01*
X-114330785Y-8127379D02*
X-114213533Y-8528158D01*
X-86614692Y-13069525D02*
X-86614692Y-13069525D01*
X-87462900Y-8515623D02*
X-87658397Y-7946022D01*
X-37304314Y-51245621D02*
X-36571653Y-50977837D01*
X-108659513Y-10137135D02*
X-108599906Y-10827901D01*
X-74420155Y-2755215D02*
X-74669230Y-2671249D01*
X-120247032Y-29961524D02*
X-119857565Y-29963281D01*
X-75186654Y-75007525D02*
X-74916027Y-74983932D01*
X-48085959Y-17755688D02*
X-48038777Y-17522265D01*
X-78443813Y-32626740D02*
X-78600695Y-32946963D01*
X-79545949Y-71388726D02*
X-79430601Y-71747895D01*
X-40995495Y-62530624D02*
X-40820510Y-62518992D01*
X-78797883Y-73115218D02*
X-78591669Y-73424987D01*
X-124425782Y-32660317D02*
X-124281884Y-32253204D01*
X-73221082Y-28936000D02*
X-73451446Y-28912255D01*
X-87996104Y-7202499D02*
X-88120959Y-6993813D01*
X-120704994Y-38869664D02*
X-121218669Y-38602934D01*
X-71736689Y-73488014D02*
X-71635002Y-73354848D01*
X-118732896Y-25007799D02*
X-118746096Y-25268566D01*
X-98473938Y-47710473D02*
X-98178597Y-47781856D01*
X-117107373Y-33038798D02*
X-116651900Y-34571311D01*
X-52751838Y-7209359D02*
X-52502513Y-7208120D01*
X-72759444Y-29027286D02*
X-72990388Y-28974381D01*
X-94233102Y-7533622D02*
X-95757477Y-6850904D01*
X-74983930Y-39187489D02*
X-74344849Y-39078731D01*
X-48156240Y-18004071D02*
X-48085959Y-17755688D01*
X-70577465Y-73850633D02*
X-70222021Y-74142192D01*
X-69746174Y-31246095D02*
X-69909040Y-31000708D01*
X-35848454Y-36099714D02*
X-35848454Y-36099714D01*
X-34734344Y-49928567D02*
X-34605252Y-49767302D01*
X-107763484Y-15237153D02*
X-109337255Y-14519557D01*
X-107005926Y-7520982D02*
X-107296700Y-7461251D01*
X-93854083Y-9238333D02*
X-95188094Y-10343367D01*
X-103763015Y-4922707D02*
X-103730210Y-5115997D01*
X-96895737Y-73007620D02*
X-96677029Y-73303007D01*
X-62483327Y-65494051D02*
X-61009582Y-65068394D01*
X-40305675Y-62338478D02*
X-40274340Y-62296820D01*
X-100255477Y-10607747D02*
X-102008659Y-9671174D01*
X-92310293Y-75957920D02*
X-92131101Y-75987667D01*
X-115992548Y-47227730D02*
X-116032923Y-49244637D01*
X-44736865Y-32319433D02*
X-43390080Y-31206641D01*
X-89188147Y-6325754D02*
X-89395527Y-6365006D01*
X-110970652Y-13811287D02*
X-112871664Y-13037791D01*
X-95240274Y-47854724D02*
X-94933895Y-47798185D01*
X-80053658Y-67839283D02*
X-80014267Y-68725068D01*
X-35442230Y-29897965D02*
X-35542722Y-29813475D01*
X-87625071Y-70527303D02*
X-87482575Y-69818501D01*
X-94746837Y-74948437D02*
X-94470976Y-75108840D01*
X-56841304Y-63363036D02*
X-56205910Y-63011191D01*
X-70962279Y-37810128D02*
X-70673848Y-37604458D01*
X-66645228Y-74970362D02*
X-66095523Y-74877083D01*
X-34915908Y-48360622D02*
X-35111692Y-48096461D01*
X-114073635Y-7374550D02*
X-114184576Y-7364605D01*
X-78074113Y-31988717D02*
X-78268571Y-32307076D01*
X-36326669Y-29444646D02*
X-36739563Y-29321109D01*
X-41359606Y-62527336D02*
X-41177165Y-62532755D01*
X-35364509Y-29986157D02*
X-35442230Y-29897965D01*
X-85707977Y-20528379D02*
X-85985487Y-20283365D01*
X-113941808Y-7403811D02*
X-114073635Y-7374550D01*
X-84095814Y-8086263D02*
X-84272590Y-8304156D01*
X-116447317Y-23313760D02*
X-116905317Y-23432464D01*
X-121887298Y-30177706D02*
X-121598215Y-30106446D01*
X-76608486Y-6788974D02*
X-76659639Y-8189932D01*
X-35913010Y-35946391D02*
X-36021432Y-35790390D01*
X-58118959Y-55369685D02*
X-56039664Y-56495078D01*
X-72220171Y-73968250D02*
X-72119477Y-73883254D01*
X-123688651Y-36694179D02*
X-123858444Y-36493368D01*
X-34483776Y-49261025D02*
X-34533397Y-49062831D01*
X-37843415Y-25804896D02*
X-37611513Y-25488107D01*
X-42041567Y-33088546D02*
X-43410478Y-32682373D01*
X-35899787Y-36620651D02*
X-35845206Y-36433334D01*
X-118585014Y-11703998D02*
X-118700987Y-11807887D01*
X-103244876Y-6513792D02*
X-103009084Y-7024643D01*
X-71858269Y-71976543D02*
X-71662447Y-72394900D01*
X-94154640Y-75277072D02*
X-93807670Y-75445198D01*
X-86745625Y-31395902D02*
X-85718395Y-31772583D01*
X-99898913Y-73673217D02*
X-100187266Y-73866872D01*
X-70912263Y-29960275D02*
X-70912263Y-29960275D01*
X-70673848Y-37604458D02*
X-70409384Y-37385421D01*
X-35284426Y-30555812D02*
X-35267478Y-30418787D01*
X-52656186Y-11577822D02*
X-52972162Y-12405772D01*
X-37057160Y-24404977D02*
X-37028903Y-24191596D01*
X-105471655Y-65865593D02*
X-105074128Y-64920907D01*
X-35359274Y-30858622D02*
X-35315379Y-30702782D01*
X-76172672Y-39301003D02*
X-75594952Y-39259869D01*
X-115647770Y-43173510D02*
X-115854623Y-45197313D01*
X-93251705Y-47003003D02*
X-93123497Y-46876660D01*
X-113591791Y-34954510D02*
X-111475971Y-34234142D01*
X-69876142Y-9102033D02*
X-70692297Y-9758966D01*
X-89006645Y-6320625D02*
X-89188147Y-6325754D01*
X-72534776Y-69285692D02*
X-72392512Y-70193129D01*
X-38886453Y-51727370D02*
X-38084127Y-51496037D01*
X-86748961Y-19683186D02*
X-86969633Y-19540388D01*
X-78960802Y-8868763D02*
X-79674156Y-8397948D01*
X-91287156Y-75983056D02*
X-90976955Y-75916371D01*
X-94152259Y-47560814D02*
X-93934426Y-47462642D01*
X-51054443Y-16327110D02*
X-52064119Y-16393361D01*
X-82140970Y-7185471D02*
X-82373238Y-7143591D01*
X-34518743Y-49603838D02*
X-34477898Y-49438389D01*
X-40415180Y-61267375D02*
X-40768030Y-59977132D01*
X-55005193Y-62245132D02*
X-54444141Y-61829937D01*
X-64373815Y-74014840D02*
X-64051869Y-73695898D01*
X-107959279Y-7457304D02*
X-107959279Y-7457304D01*
X-68941842Y-34085069D02*
X-68948096Y-33784940D01*
X-36276445Y-32668887D02*
X-36048935Y-32295952D01*
X-40241815Y-62198094D02*
X-40242102Y-62140539D01*
X-100481495Y-74029650D02*
X-100778891Y-74163953D01*
X-40658122Y-62495911D02*
X-40583501Y-62479468D01*
X-67246963Y-75007168D02*
X-67246963Y-75007168D01*
X-108585256Y-8359680D02*
X-108629970Y-8610181D01*
X-97197252Y-66678873D02*
X-97402741Y-67382417D01*
X-65595688Y-74731112D02*
X-65143565Y-74536227D01*
X-118700987Y-39591645D02*
X-119180133Y-39468480D01*
X-115517087Y-23144353D02*
X-115980061Y-23218589D01*
X-82809644Y-33168309D02*
X-81900204Y-33707062D01*
X-114992767Y-55906913D02*
X-114646440Y-56774730D01*
X-42161615Y-62441711D02*
X-42161615Y-62441711D01*
X-66095523Y-74877083D02*
X-65595688Y-74731112D01*
X-69033659Y-34980619D02*
X-68984174Y-34683927D01*
X-67246963Y-75007168D02*
X-66645228Y-74970362D01*
X-110403533Y-9373445D02*
X-111360387Y-8759521D01*
X-97686028Y-71132263D02*
X-97611175Y-71455778D01*
X-98178597Y-47781856D02*
X-97856638Y-47841475D01*
X-111475971Y-34234142D02*
X-108681386Y-33400034D01*
X-89626710Y-6436132D02*
X-89879621Y-6536886D01*
X-62756646Y-8279937D02*
X-63047849Y-7498380D01*
X-79332331Y-37308288D02*
X-79287395Y-37750837D01*
X-71559560Y-73243032D02*
X-71508266Y-73157300D01*
X-71866716Y-73637793D02*
X-71736689Y-73488014D01*
X-119678600Y-39305231D02*
X-120189263Y-39104694D01*
X-79008217Y-39111772D02*
X-78378183Y-39217568D01*
X-72990388Y-28974381D02*
X-73221082Y-28936000D01*
X-101076742Y-74272182D02*
X-101372340Y-74356740D01*
X-103484062Y-74448896D02*
X-103776747Y-74394854D01*
X-117334568Y-11644363D02*
X-117954954Y-11584118D01*
X-72793230Y-11558862D02*
X-74046411Y-12703916D01*
X-114336879Y-7408179D02*
X-114378459Y-7466645D01*
X-119180133Y-39468480D02*
X-119678600Y-39305231D01*
X-92681378Y-75869579D02*
X-92494129Y-75918227D01*
X-104244131Y-74217827D02*
X-104658797Y-74005715D01*
X-72858724Y-74390423D02*
X-72712129Y-74308336D01*
X-122158078Y-30261794D02*
X-121887298Y-30177706D01*
X-44723740Y-23030624D02*
X-47232887Y-23102744D01*
X-40394792Y-62407603D02*
X-40346072Y-62375325D01*
X-96305373Y-11310840D02*
X-97358552Y-12257501D01*
X-89006645Y-6320625D02*
X-89006645Y-6320625D01*
X-78862801Y-33586087D02*
X-78969735Y-33903492D01*
X-104583908Y-64425696D02*
X-101930542Y-65220818D01*
X-74822320Y-29083269D02*
X-75048182Y-29165043D01*
X-93736391Y-47356714D02*
X-93557216Y-47244091D01*
X-67558105Y-7408179D02*
X-68577199Y-6585442D01*
X-102498264Y-8022192D02*
X-102014890Y-8885831D01*
X-82582014Y-7132998D02*
X-82777877Y-7155384D01*
X-86253647Y-20058366D02*
X-86509219Y-19857076D01*
X-102721649Y-74508532D02*
X-103150730Y-74487623D01*
X-90141296Y-75520885D02*
X-89892863Y-75330711D01*
X-35265596Y-30292780D02*
X-35279842Y-30178862D01*
X-91613946Y-76013770D02*
X-91287156Y-75983056D01*
X-79150588Y-72451317D02*
X-78983842Y-72789680D01*
X-124633521Y-35022289D02*
X-124674489Y-34806985D01*
X-106337082Y-7715882D02*
X-107005926Y-7520982D01*
X-48220625Y-16648462D02*
X-48354805Y-16546144D01*
X-124281884Y-32253204D02*
X-124195201Y-32056173D01*
X-114336879Y-7408179D02*
X-114336879Y-7408179D01*
X-87877463Y-7432360D02*
X-87996104Y-7202499D01*
X-74412266Y-74912506D02*
X-74178608Y-74865857D01*
X-105571376Y-7997828D02*
X-106337082Y-7715882D01*
X-36048935Y-32295952D02*
X-35834969Y-31919874D01*
X-93461890Y-30381747D02*
X-92280437Y-30379873D01*
X-109409255Y-62478910D02*
X-108392617Y-62999409D01*
X-40242102Y-62140539D02*
X-40242102Y-62140539D01*
X-48056187Y-16931446D02*
X-48121765Y-16777552D01*
X-39872919Y-28797142D02*
X-40645817Y-28726766D01*
X-41762959Y-56803151D02*
X-42726712Y-53934076D01*
X-123736431Y-31325350D02*
X-123590772Y-31159927D01*
X-48151545Y-60154068D02*
X-45044658Y-61392346D01*
X-52288855Y-7232391D02*
X-52113877Y-7283902D01*
X-87800431Y-31071026D02*
X-86745625Y-31395902D01*
X-115847963Y-52200650D02*
X-115706525Y-53157435D01*
X-37051584Y-24005734D02*
X-37128608Y-23849670D01*
X-122647099Y-30466091D02*
X-122411148Y-30358120D01*
X-79297429Y-35439009D02*
X-79327560Y-35730571D01*
X-100483310Y-45139639D02*
X-100500927Y-45278662D01*
X-71662447Y-72394900D02*
X-71438211Y-72795077D01*
X-73182075Y-74546930D02*
X-73015286Y-74470151D01*
X-112502794Y-12446304D02*
X-112072075Y-13300556D01*
X-87658397Y-7946022D02*
X-87877463Y-7432360D01*
X-113409392Y-10531519D02*
X-112932754Y-11560731D01*
X-103412559Y-4136257D02*
X-103412559Y-4136257D01*
X-72712129Y-74308336D02*
X-72575238Y-74224484D01*
X-52064119Y-16393361D02*
X-53146512Y-16493067D01*
X-38794427Y-39676283D02*
X-38196000Y-39187716D01*
X-63204614Y-7158739D02*
X-63368984Y-6858228D01*
X-38395371Y-26477729D02*
X-37843415Y-25804896D01*
X-71943012Y-73717433D02*
X-71866716Y-73637793D01*
X-39071604Y-28890392D02*
X-39872919Y-28797142D01*
X-117340526Y-23577302D02*
X-117545355Y-23660334D01*
X-38207805Y-45072724D02*
X-39622415Y-43911629D01*
X-97514985Y-71775260D02*
X-97396400Y-72090448D01*
X-102014890Y-8885831D02*
X-101513334Y-9723197D01*
X-79108801Y-38744594D02*
X-79057482Y-38944590D01*
X-124158182Y-36082991D02*
X-124286347Y-35874125D01*
X-40274340Y-62296820D02*
X-40252807Y-62250107D01*
X-98272668Y-71251278D02*
X-98443992Y-71728336D01*
X-107776306Y-7427381D02*
X-107959279Y-7457304D01*
X-89658726Y-75114764D02*
X-89438426Y-74875082D01*
X-54444141Y-61829937D02*
X-53912143Y-61392646D01*
X-88389747Y-6649558D02*
X-88533895Y-6518782D01*
X-89438426Y-74875082D02*
X-89231505Y-74613705D01*
X-93395966Y-47125834D02*
X-93251705Y-47003003D01*
X-99411412Y-47327447D02*
X-99211398Y-47435811D01*
X-93123497Y-46876660D02*
X-93010407Y-46747866D01*
X-88533895Y-6518782D02*
X-88684689Y-6418770D01*
X-70168439Y-37154035D02*
X-69950563Y-36911320D01*
X-37564688Y-34509145D02*
X-37152016Y-33957518D01*
X-88002740Y-71986395D02*
X-87797236Y-71255373D01*
X-75496958Y-29375241D02*
X-75719714Y-29503884D01*
X-73682956Y-38928463D02*
X-73003493Y-38731555D01*
X-78074113Y-31988717D02*
X-78074113Y-31988717D01*
X-88245250Y-72704054D02*
X-88002740Y-71986395D01*
X-40511418Y-28646174D02*
X-39756600Y-27916600D01*
X-96719908Y-47939662D02*
X-96719908Y-47939662D01*
X-61386538Y-15995758D02*
X-61582915Y-14246081D01*
X-74669230Y-2671249D02*
X-74898067Y-2613352D01*
X-99889632Y-46966031D02*
X-99749414Y-47091549D01*
X-76814049Y-30386934D02*
X-77028478Y-30612279D01*
X-63047849Y-7498380D02*
X-63204614Y-7158739D01*
X-79057482Y-38944590D02*
X-79008217Y-39111772D01*
X-78268571Y-32307076D02*
X-78443813Y-32626740D01*
X-92638955Y-46104256D02*
X-92596913Y-45983033D01*
X-38106686Y-34505358D02*
X-38855888Y-34191958D01*
X-71508266Y-73157300D02*
X-71469746Y-73083032D01*
X-85383859Y-10124091D02*
X-85651026Y-10674576D01*
X-67851866Y-74986239D02*
X-67246963Y-75007168D01*
X-78364161Y-73716042D02*
X-78114318Y-73985438D01*
X-76026241Y-3313848D02*
X-76115112Y-3545705D01*
X-97793147Y-69803120D02*
X-97793100Y-70140144D01*
X-72027432Y-71543598D02*
X-71858269Y-71976543D01*
X-83131572Y-23267174D02*
X-83324350Y-23025058D01*
X-98443992Y-71728336D02*
X-98640166Y-72157701D01*
X-69051289Y-46632130D02*
X-68035092Y-47756982D01*
X-118582758Y-24469996D02*
X-118654027Y-24622197D01*
X-73003493Y-38731555D02*
X-72311706Y-38482876D01*
X-103535245Y-4174553D02*
X-103631232Y-4240712D01*
X-99328113Y-65867529D02*
X-96781223Y-66379254D01*
X-64568388Y-6060085D02*
X-64843775Y-6093878D01*
X-107884883Y-43631089D02*
X-107965349Y-40067605D01*
X-116032923Y-49244637D02*
X-115947123Y-51227912D01*
X-101945930Y-74464450D02*
X-102218502Y-74492406D01*
X-100208527Y-46571297D02*
X-100118075Y-46704897D01*
X-93251307Y-75679828D02*
X-93061197Y-75749387D01*
X-35834969Y-31919874D02*
X-35643040Y-31549237D01*
X-63970750Y-65854845D02*
X-62483327Y-65494051D01*
X-53632255Y-14003010D02*
X-54238904Y-15369906D01*
X-49305585Y-20293449D02*
X-48948914Y-19698281D01*
X-40460098Y-52125935D02*
X-38886453Y-51727370D01*
X-38855888Y-34191958D02*
X-39648067Y-33889618D01*
X-103617403Y-5544213D02*
X-103451637Y-6015230D01*
X-41828154Y-52427601D02*
X-40460098Y-52125935D01*
X-35315379Y-30702782D02*
X-35284426Y-30555812D01*
X-87290111Y-9121986D02*
X-87462900Y-8515623D01*
X-77220373Y-74634226D02*
X-76870785Y-74787539D01*
X-103009084Y-7024643D02*
X-102756225Y-7532529D01*
X-106376350Y-71366080D02*
X-106428337Y-70958325D01*
X-83775830Y-22493807D02*
X-84293607Y-21924476D01*
X-49976396Y-59377946D02*
X-48151545Y-60154068D01*
X-39042175Y-27187708D02*
X-38395371Y-26477729D01*
X-100502028Y-45673546D02*
X-100467682Y-45913280D01*
X-38067586Y-23397647D02*
X-38869774Y-23246128D01*
X-96719908Y-47939662D02*
X-96310009Y-47941731D01*
X-100012148Y-46836811D02*
X-99889632Y-46966031D01*
X-106428337Y-70958325D02*
X-106452446Y-70542179D01*
X-72282715Y-3901256D02*
X-72943196Y-3494564D01*
X-79358565Y-36820068D02*
X-79332331Y-37308288D01*
X-74046411Y-12703916D02*
X-75085541Y-11824850D01*
X-72639786Y-67582960D02*
X-72612521Y-68406062D01*
X-78600695Y-32946963D02*
X-78740072Y-33266995D01*
X-72528327Y-29094608D02*
X-72759444Y-29027286D01*
X-76870785Y-74787539D02*
X-76493659Y-74904471D01*
X-84445513Y-8536854D02*
X-84778493Y-9038105D01*
X-93625773Y-75526741D02*
X-93439909Y-75605282D01*
X-90152186Y-6665016D02*
X-90442329Y-6818277D01*
X-100923222Y-31555169D02*
X-98507618Y-31087150D01*
X-35588394Y-47533414D02*
X-36159403Y-46935634D01*
X-62116399Y-52908954D02*
X-60158340Y-54172270D01*
X-90442329Y-6818277D02*
X-91067050Y-7191191D01*
X-106178811Y-72145740D02*
X-106294003Y-71762775D01*
X-111360387Y-8759521D02*
X-112342855Y-8167757D01*
X-97775935Y-70474184D02*
X-97740596Y-70804978D01*
X-38140210Y-29027046D02*
X-39071604Y-28890392D01*
X-65454760Y-66154695D02*
X-63970750Y-65854845D01*
X-37742711Y-23491079D02*
X-38067586Y-23397647D01*
X-37660067Y-29112749D02*
X-38140210Y-29027046D01*
X-72630611Y-66845108D02*
X-72639786Y-67582960D01*
X-117921001Y-23849248D02*
X-118088434Y-23955781D01*
X-35827254Y-36259260D02*
X-35848454Y-36099714D01*
X-115519232Y-54095750D02*
X-115282505Y-55013081D01*
X-97358552Y-12257501D02*
X-98771070Y-11437634D01*
X-50148078Y-16301787D02*
X-51054443Y-16327110D01*
X-112809099Y-7907771D02*
X-113240231Y-7686429D01*
X-102537480Y-4238513D02*
X-103053161Y-4140297D01*
X-76665011Y-9398392D02*
X-76639102Y-10566542D01*
X-69191509Y-35563437D02*
X-69102621Y-35274129D01*
X-116198393Y-36021757D02*
X-116198393Y-36021757D01*
X-123258153Y-30853963D02*
X-123070010Y-30714604D01*
X-79061730Y-34218462D02*
X-79139642Y-34530246D01*
X-118104390Y-29294338D02*
X-117616294Y-31217464D01*
X-72612521Y-68406062D02*
X-72534776Y-69285692D01*
X-69300773Y-35847527D02*
X-69191509Y-35563437D01*
X-37188607Y-29210624D02*
X-37660067Y-29112749D01*
X-78983842Y-72789680D02*
X-78797883Y-73115218D01*
X-105839955Y-72859803D02*
X-106028290Y-72512306D01*
X-78969735Y-33903492D02*
X-79061730Y-34218462D01*
X-48627603Y-19107829D02*
X-48357947Y-18537842D01*
X-97402741Y-67382417D02*
X-97573510Y-68082413D01*
X-52367786Y-10760743D02*
X-52656186Y-11577822D01*
X-113232144Y-59196942D02*
X-112623680Y-59935548D01*
X-118770760Y-11953667D02*
X-118801405Y-12146451D01*
X-114401495Y-7552203D02*
X-114407116Y-7662953D01*
X-114053731Y-8984149D02*
X-113860416Y-9480163D01*
X-75186654Y-75007525D02*
X-75186654Y-75007525D01*
X-83915510Y-7885317D02*
X-84095814Y-8086263D01*
X-114289196Y-23021248D02*
X-115071927Y-23088451D01*
X-76115112Y-3545705D02*
X-76268143Y-4080835D01*
X-93147302Y-8679201D02*
X-93854083Y-9238333D01*
X-72311706Y-38482876D02*
X-71612838Y-38177293D01*
X-116586359Y-11798390D02*
X-117334568Y-11644363D01*
X-77653575Y-39288238D02*
X-77207228Y-39310056D01*
X-89037504Y-74332673D02*
X-88855964Y-74034024D01*
X-107283610Y-63468740D02*
X-107283610Y-63468740D01*
X-74368039Y-28965821D02*
X-74595579Y-29016898D01*
X-51816991Y-7637054D02*
X-51777086Y-7830231D01*
X-67088540Y-48784785D02*
X-67088540Y-48784785D01*
X-56544281Y-8243570D02*
X-55669097Y-7929679D01*
X-106426973Y-69695391D02*
X-106382359Y-69270088D01*
X-36579791Y-35311269D02*
X-36833570Y-35149504D01*
X-69950563Y-36911320D02*
X-69755308Y-36658293D01*
X-79168788Y-38474978D02*
X-79108801Y-38744594D01*
X-42161945Y-23028690D02*
X-44723740Y-23030624D01*
X-95927395Y-47927558D02*
X-95571128Y-47898201D01*
X-103631232Y-4240712D02*
X-103702014Y-4332827D01*
X-76087956Y-74982075D02*
X-75652635Y-75017408D01*
X-81613861Y-7354793D02*
X-81887186Y-7256563D01*
X-54828168Y-7655452D02*
X-54045587Y-7434749D01*
X-88855964Y-74034024D02*
X-88528435Y-73392035D01*
X-85424358Y-20789718D02*
X-85707977Y-20528379D01*
X-53411334Y-60932768D02*
X-52943850Y-60449814D01*
X-71372898Y-29643607D02*
X-71603702Y-29505854D01*
X-77528724Y-9895495D02*
X-78240391Y-9373475D01*
X-116198393Y-36021757D02*
X-115062019Y-35519997D01*
X-62636292Y-67850492D02*
X-62702310Y-66973525D01*
D11*
G36*
X-94261982Y-39447061D02*
G01*
X-94247242Y-39447729D01*
X-94232599Y-39448889D01*
X-94218063Y-39450535D01*
X-94203644Y-39452662D01*
X-94189352Y-39455262D01*
X-94175199Y-39458330D01*
X-94161194Y-39461858D01*
X-94147347Y-39465842D01*
X-94133669Y-39470275D01*
X-94120169Y-39475150D01*
X-94106859Y-39480461D01*
X-94093748Y-39486202D01*
X-94080847Y-39492368D01*
X-94068166Y-39498950D01*
X-94055715Y-39505944D01*
X-94043504Y-39513344D01*
X-94031545Y-39521142D01*
X-94019846Y-39529332D01*
X-94008418Y-39537909D01*
X-93997272Y-39546867D01*
X-93986418Y-39556198D01*
X-93975865Y-39565897D01*
X-93965625Y-39575957D01*
X-93955707Y-39586373D01*
X-93946122Y-39597137D01*
X-93936880Y-39608245D01*
X-93927992Y-39619689D01*
X-93919467Y-39631463D01*
X-93911316Y-39643561D01*
X-93903548Y-39655977D01*
X-93896176Y-39668705D01*
X-93889207Y-39681738D01*
X-93876547Y-39708338D01*
X-93865813Y-39735505D01*
X-93856997Y-39763143D01*
X-93850094Y-39791154D01*
X-93845096Y-39819444D01*
X-93841997Y-39847916D01*
X-93840790Y-39876473D01*
X-93841468Y-39905020D01*
X-93844026Y-39933459D01*
X-93848456Y-39961696D01*
X-93854751Y-39989633D01*
X-93862906Y-40017174D01*
X-93872913Y-40044223D01*
X-93884765Y-40070684D01*
X-93898457Y-40096461D01*
X-93913981Y-40121456D01*
X-96452739Y-43911236D01*
X-96468941Y-43933853D01*
X-96486427Y-43955227D01*
X-96505122Y-43975320D01*
X-96524956Y-43994096D01*
X-96545854Y-44011519D01*
X-96567746Y-44027550D01*
X-96590558Y-44042154D01*
X-96614217Y-44055293D01*
X-96638652Y-44066931D01*
X-96663789Y-44077031D01*
X-96689557Y-44085556D01*
X-96715883Y-44092469D01*
X-96742694Y-44097734D01*
X-96769917Y-44101313D01*
X-96797481Y-44103170D01*
X-96825313Y-44103268D01*
X-96839202Y-44102651D01*
X-96853011Y-44101593D01*
X-96866732Y-44100100D01*
X-96880353Y-44098177D01*
X-96893868Y-44095829D01*
X-96907268Y-44093061D01*
X-96920542Y-44089878D01*
X-96933683Y-44086285D01*
X-96946681Y-44082287D01*
X-96959529Y-44077890D01*
X-96972216Y-44073099D01*
X-96984734Y-44067918D01*
X-97009227Y-44056409D01*
X-97032938Y-44043404D01*
X-97055796Y-44028945D01*
X-97077729Y-44013071D01*
X-97088327Y-44004616D01*
X-97098667Y-43995824D01*
X-97108741Y-43986698D01*
X-97118539Y-43977244D01*
X-97128053Y-43967468D01*
X-97137274Y-43957373D01*
X-97146193Y-43946966D01*
X-97154801Y-43936252D01*
X-97163090Y-43925235D01*
X-97171050Y-43913921D01*
X-97178672Y-43902315D01*
X-97185948Y-43890421D01*
X-99505647Y-39962727D01*
X-99519718Y-39936893D01*
X-99531918Y-39910383D01*
X-99542245Y-39883294D01*
X-99550697Y-39855722D01*
X-99557274Y-39827763D01*
X-99561975Y-39799514D01*
X-99564796Y-39771072D01*
X-99565739Y-39742533D01*
X-99564800Y-39713993D01*
X-99561980Y-39685549D01*
X-99557275Y-39657298D01*
X-99550686Y-39629336D01*
X-99542211Y-39601759D01*
X-99531848Y-39574665D01*
X-99519597Y-39548149D01*
X-99505455Y-39522308D01*
X-99489662Y-39497405D01*
X-99472369Y-39473835D01*
X-99453658Y-39451644D01*
X-99433615Y-39430877D01*
X-99412325Y-39411579D01*
X-99389872Y-39393794D01*
X-99366340Y-39377569D01*
X-99341815Y-39362948D01*
X-99316380Y-39349977D01*
X-99290120Y-39338701D01*
X-99263120Y-39329164D01*
X-99235465Y-39321413D01*
X-99207239Y-39315492D01*
X-99178527Y-39311447D01*
X-99149413Y-39309322D01*
X-99119981Y-39309164D01*
X-94261982Y-39447061D01*
G37*
X-94261982Y-39447061D02*
X-94247242Y-39447729D01*
X-94232599Y-39448889D01*
X-94218063Y-39450535D01*
X-94203644Y-39452662D01*
X-94189352Y-39455262D01*
X-94175199Y-39458330D01*
X-94161194Y-39461858D01*
X-94147347Y-39465842D01*
X-94133669Y-39470275D01*
X-94120169Y-39475150D01*
X-94106859Y-39480461D01*
X-94093748Y-39486202D01*
X-94080847Y-39492368D01*
X-94068166Y-39498950D01*
X-94055715Y-39505944D01*
X-94043504Y-39513344D01*
X-94031545Y-39521142D01*
X-94019846Y-39529332D01*
X-94008418Y-39537909D01*
X-93997272Y-39546867D01*
X-93986418Y-39556198D01*
X-93975865Y-39565897D01*
X-93965625Y-39575957D01*
X-93955707Y-39586373D01*
X-93946122Y-39597137D01*
X-93936880Y-39608245D01*
X-93927992Y-39619689D01*
X-93919467Y-39631463D01*
X-93911316Y-39643561D01*
X-93903548Y-39655977D01*
X-93896176Y-39668705D01*
X-93889207Y-39681738D01*
X-93876547Y-39708338D01*
X-93865813Y-39735505D01*
X-93856997Y-39763143D01*
X-93850094Y-39791154D01*
X-93845096Y-39819444D01*
X-93841997Y-39847916D01*
X-93840790Y-39876473D01*
X-93841468Y-39905020D01*
X-93844026Y-39933459D01*
X-93848456Y-39961696D01*
X-93854751Y-39989633D01*
X-93862906Y-40017174D01*
X-93872913Y-40044223D01*
X-93884765Y-40070684D01*
X-93898457Y-40096461D01*
X-93913981Y-40121456D01*
X-96452739Y-43911236D01*
X-96468941Y-43933853D01*
X-96486427Y-43955227D01*
X-96505122Y-43975320D01*
X-96524956Y-43994096D01*
X-96545854Y-44011519D01*
X-96567746Y-44027550D01*
X-96590558Y-44042154D01*
X-96614217Y-44055293D01*
X-96638652Y-44066931D01*
X-96663789Y-44077031D01*
X-96689557Y-44085556D01*
X-96715883Y-44092469D01*
X-96742694Y-44097734D01*
X-96769917Y-44101313D01*
X-96797481Y-44103170D01*
X-96825313Y-44103268D01*
X-96839202Y-44102651D01*
X-96853011Y-44101593D01*
X-96866732Y-44100100D01*
X-96880353Y-44098177D01*
X-96893868Y-44095829D01*
X-96907268Y-44093061D01*
X-96920542Y-44089878D01*
X-96933683Y-44086285D01*
X-96946681Y-44082287D01*
X-96959529Y-44077890D01*
X-96972216Y-44073099D01*
X-96984734Y-44067918D01*
X-97009227Y-44056409D01*
X-97032938Y-44043404D01*
X-97055796Y-44028945D01*
X-97077729Y-44013071D01*
X-97088327Y-44004616D01*
X-97098667Y-43995824D01*
X-97108741Y-43986698D01*
X-97118539Y-43977244D01*
X-97128053Y-43967468D01*
X-97137274Y-43957373D01*
X-97146193Y-43946966D01*
X-97154801Y-43936252D01*
X-97163090Y-43925235D01*
X-97171050Y-43913921D01*
X-97178672Y-43902315D01*
X-97185948Y-43890421D01*
X-99505647Y-39962727D01*
X-99519718Y-39936893D01*
X-99531918Y-39910383D01*
X-99542245Y-39883294D01*
X-99550697Y-39855722D01*
X-99557274Y-39827763D01*
X-99561975Y-39799514D01*
X-99564796Y-39771072D01*
X-99565739Y-39742533D01*
X-99564800Y-39713993D01*
X-99561980Y-39685549D01*
X-99557275Y-39657298D01*
X-99550686Y-39629336D01*
X-99542211Y-39601759D01*
X-99531848Y-39574665D01*
X-99519597Y-39548149D01*
X-99505455Y-39522308D01*
X-99489662Y-39497405D01*
X-99472369Y-39473835D01*
X-99453658Y-39451644D01*
X-99433615Y-39430877D01*
X-99412325Y-39411579D01*
X-99389872Y-39393794D01*
X-99366340Y-39377569D01*
X-99341815Y-39362948D01*
X-99316380Y-39349977D01*
X-99290120Y-39338701D01*
X-99263120Y-39329164D01*
X-99235465Y-39321413D01*
X-99207239Y-39315492D01*
X-99178527Y-39311447D01*
X-99149413Y-39309322D01*
X-99119981Y-39309164D01*
X-94261982Y-39447061D01*
D10*
X-40252807Y-62250107D02*
X-40241815Y-62198094D01*
X-40242102Y-62140539D02*
X-40302261Y-61766369D01*
X-36159403Y-46935634D02*
X-36801673Y-46317005D01*
X-118088434Y-23955781D02*
X-118240018Y-24070797D01*
X-75085541Y-11824850D02*
X-76194833Y-10925098D01*
X-40583501Y-62479468D02*
X-40514246Y-62459431D01*
X-105074128Y-64920907D02*
X-104906288Y-64568046D01*
X-100467682Y-45913280D02*
X-100398184Y-46170459D01*
X-69461815Y-31766023D02*
X-69596950Y-31501540D01*
X-35643040Y-31549237D02*
X-35481643Y-31192625D01*
X-84851758Y-21346601D02*
X-85137872Y-21063690D01*
X-118419700Y-11633384D02*
X-118585014Y-11703998D01*
X-122411148Y-30358120D02*
X-122158078Y-30261794D01*
X-82582014Y-7132998D02*
X-82582014Y-7132998D01*
X-72943196Y-3494564D02*
X-73572074Y-3143097D01*
X-92563438Y-45866785D02*
X-92518441Y-45653458D01*
X-48354805Y-16546144D02*
X-48354805Y-16546144D01*
X-77543464Y-74447474D02*
X-77220373Y-74634226D01*
X-63768997Y-73343163D02*
X-63523040Y-72960416D01*
X-74344849Y-39078731D02*
X-73682956Y-38928463D01*
X-52117404Y-59412715D02*
X-51762713Y-58857591D01*
X-63721035Y-6389708D02*
X-63908960Y-6229255D01*
X-89879621Y-6536886D02*
X-90152186Y-6665016D01*
X-118299147Y-14100641D02*
X-117928444Y-14974576D01*
X-73451446Y-28912255D02*
X-73681402Y-28903255D01*
X-93934426Y-47462642D02*
X-93736391Y-47356714D01*
X-103253943Y-4125690D02*
X-103412559Y-4136257D01*
X-117739411Y-23750874D02*
X-117921001Y-23849248D01*
X-75442604Y-2616524D02*
X-75579214Y-2685653D01*
X-88882064Y-30802470D02*
X-87800431Y-31071026D01*
X-98507618Y-31087150D02*
X-95893297Y-30626696D01*
X-121218669Y-38602934D02*
X-121723160Y-38307300D01*
X-37028903Y-24191596D02*
X-37051584Y-24005734D01*
X-74916027Y-74983932D02*
X-74657985Y-74952062D01*
X-114817748Y-12324887D02*
X-115738147Y-12030474D01*
X-36108744Y-37029876D02*
X-35988475Y-36819927D01*
X-34477898Y-49438389D02*
X-34477898Y-49438389D01*
X-73359354Y-74620167D02*
X-73182075Y-74546930D01*
X-97740596Y-70804978D02*
X-97686028Y-71132263D01*
X-101930542Y-65220818D02*
X-99328113Y-65867529D01*
X-115854623Y-45197313D02*
X-115992548Y-47227730D01*
X-62991668Y-65013404D02*
X-63087915Y-64568046D01*
X-73431216Y-41687633D02*
X-71216354Y-44196360D01*
X-79867227Y-69971035D02*
X-79732530Y-70670194D01*
X-91957783Y-76006475D02*
X-91613946Y-76013770D01*
X-111940737Y-60635563D02*
X-111179737Y-61294472D01*
X-118746096Y-25268566D02*
X-118721010Y-25890829D01*
X-62865169Y-71204907D02*
X-62771394Y-70728799D01*
X-68972031Y-33485702D02*
X-69013200Y-33188374D01*
X-75048182Y-29165043D02*
X-75273087Y-29262330D01*
X-98858479Y-72541776D02*
X-99096221Y-72882963D01*
X-51476510Y-23334555D02*
X-50759967Y-22406278D01*
X-83356696Y-7405561D02*
X-83545625Y-7542825D01*
X-54045587Y-7434749D02*
X-53345446Y-7281432D01*
X-118654027Y-24622197D02*
X-118700987Y-24784506D01*
X-70085097Y-30766396D02*
X-70273897Y-30544179D01*
X-95514971Y-74425878D02*
X-95147375Y-74690615D01*
X-116477605Y-17884759D02*
X-115421763Y-19794310D01*
X-74046411Y-12703916D02*
X-74046411Y-12703916D01*
X-117488375Y-15914633D02*
X-116998307Y-16893724D01*
X-58171482Y-64006807D02*
X-56841304Y-63363036D01*
X-89519799Y-67238737D02*
X-87241079Y-67344745D01*
X-73956750Y-74812707D02*
X-73746430Y-74753647D01*
X-42073344Y-42038026D02*
X-42073344Y-42038026D01*
X-102756225Y-7532529D02*
X-102498264Y-8022192D01*
X-93807670Y-75445198D02*
X-93625773Y-75526741D01*
X-55669097Y-7929679D02*
X-54828168Y-7655452D01*
X-95757477Y-6850904D02*
X-97548212Y-6075790D01*
X-95571128Y-47898201D02*
X-95240274Y-47854724D01*
X-52113877Y-7283902D02*
X-51980591Y-7364388D01*
X-48767664Y-16403830D02*
X-49375620Y-16324869D01*
X-114646440Y-56774730D02*
X-114239946Y-57614018D01*
X-53961865Y-57542333D02*
X-51926973Y-58505328D01*
X-116651900Y-34571311D02*
X-116198393Y-36021757D01*
X-72447789Y-74139457D02*
X-72329521Y-74053849D01*
X-72510302Y-65320623D02*
X-72559099Y-65740039D01*
X-109583001Y-9921256D02*
X-110403533Y-9373445D01*
X-80176028Y-34867744D02*
X-79362791Y-35480644D01*
X-107283610Y-63468740D02*
X-104583908Y-64425696D01*
X-92436136Y-8139641D02*
X-93147302Y-8679201D01*
X-38084127Y-51496037D02*
X-37304314Y-51245621D01*
X-105339908Y-73486913D02*
X-105611323Y-73185561D01*
X-79430601Y-71747895D02*
X-79299161Y-72103074D01*
X-62614284Y-68788854D02*
X-62636292Y-67850492D01*
X-62795061Y-66188195D02*
X-62991668Y-65013404D01*
X-88842236Y-6351918D02*
X-89006645Y-6320625D01*
X-62771394Y-70728799D02*
X-62701577Y-70245360D01*
X-64051869Y-73695898D02*
X-63768997Y-73343163D01*
X-101662972Y-74420028D02*
X-101945930Y-74464450D01*
X-71834725Y-29381968D02*
X-72065889Y-29272058D01*
X-72292799Y-70648301D02*
X-72171690Y-71099654D01*
X-103776747Y-74394854D02*
X-103776747Y-74394854D01*
X-55593161Y-62638719D02*
X-55005193Y-62245132D01*
X-94294473Y-66769414D02*
X-91872464Y-67051434D01*
X-103776747Y-74394854D02*
X-104244131Y-74217827D01*
X-39622415Y-43911629D02*
X-40861125Y-42944776D01*
X-65815058Y-6421956D02*
X-66178965Y-6597327D01*
X-98128903Y-70724126D02*
X-98272668Y-71251278D01*
X-85891036Y-11207223D02*
X-86279151Y-12150504D01*
X-99407197Y-5312523D02*
X-101136323Y-4665350D01*
X-37611513Y-25488107D02*
X-37413533Y-25187441D01*
X-92518441Y-45653458D02*
X-92496476Y-45472762D01*
X-94470976Y-75108840D02*
X-94154640Y-75277072D01*
X-57429628Y-8583265D02*
X-56544281Y-8243570D01*
X-74595579Y-29016898D02*
X-74822320Y-29083269D01*
X-41238130Y-58434245D02*
X-41762959Y-56803151D01*
X-77452268Y-31112583D02*
X-77661474Y-31387760D01*
X-117928444Y-14974576D02*
X-117488375Y-15914633D01*
X-51772540Y-8316013D02*
X-51804486Y-8602913D01*
X-77028478Y-30612279D02*
X-77241243Y-30854125D01*
X-72171690Y-71099654D02*
X-72027432Y-71543598D01*
X-37622964Y-38690446D02*
X-37095505Y-38194752D01*
X-59454576Y-17375262D02*
X-61238879Y-17685676D01*
X-63951725Y-51585855D02*
X-62116399Y-52908954D01*
X-98640166Y-72157701D02*
X-98858479Y-72541776D01*
X-114396451Y-7796999D02*
X-114330785Y-8127379D01*
X-70222021Y-74142192D02*
X-69829388Y-74397622D01*
X-37132954Y-24643597D02*
X-37057160Y-24404977D01*
X-79299161Y-72103074D02*
X-79150588Y-72451317D01*
X-118700987Y-24784506D02*
X-118732896Y-25007799D01*
X-121290239Y-30048606D02*
X-120962777Y-30004778D01*
X-115062019Y-35519997D02*
X-113591791Y-34954510D01*
X-92775871Y-8204889D02*
X-94233102Y-7533622D01*
X-93557216Y-47244091D02*
X-93395966Y-47125834D01*
X-96155556Y-73876702D02*
X-95850680Y-74154486D01*
X-66918270Y-66397522D02*
X-65454760Y-66154695D01*
X-75594952Y-39259869D02*
X-74983930Y-39187489D01*
X-63311838Y-72551437D02*
X-63133232Y-72120005D01*
X-74139777Y-28929928D02*
X-74368039Y-28965821D01*
X-75442604Y-2616524D02*
X-75442604Y-2616524D01*
X-35279842Y-30178862D02*
X-35311278Y-30078108D01*
X-48021854Y-17108176D02*
X-48056187Y-16931446D01*
X-114407116Y-7662953D02*
X-114396451Y-7796999D01*
X-106028290Y-72512306D02*
X-106178811Y-72145740D01*
X-124695201Y-34376005D02*
X-124664307Y-33943462D01*
X-86614692Y-13069525D02*
X-86736622Y-12034083D01*
X-75286810Y-2583946D02*
X-75442604Y-2616524D01*
X-47232887Y-23102744D02*
X-49392593Y-23204484D01*
X-39986699Y-40586194D02*
X-39398056Y-40145869D01*
X-85651026Y-10674576D02*
X-85891036Y-11207223D01*
X-76380519Y-29985308D02*
X-76598037Y-30177980D01*
X-121598215Y-30106446D02*
X-121290239Y-30048606D01*
X-95147375Y-74690615D02*
X-94746837Y-74948437D01*
X-53345446Y-7281432D02*
X-52751838Y-7209359D01*
X-94746837Y-74948437D02*
X-94746837Y-74948437D01*
X-108511779Y-11533458D02*
X-108403327Y-12233195D01*
X-118635012Y-26627917D02*
X-118497386Y-27456450D01*
X-106319805Y-68847072D02*
X-106150815Y-68018577D01*
X-122866522Y-30585116D02*
X-122647099Y-30466091D01*
X-124695201Y-34376005D02*
X-124695201Y-34376005D01*
X-76268143Y-4080835D02*
X-76390850Y-4693705D01*
X-76194833Y-10925098D02*
X-77528724Y-9895495D01*
X-73910871Y-28909109D02*
X-74139777Y-28929928D01*
X-87482575Y-69818501D02*
X-87271919Y-68523957D01*
X-90682883Y-75815754D02*
X-90404483Y-75683246D01*
X-38869774Y-23246128D02*
X-39844296Y-23137509D01*
X-36357834Y-35472334D02*
X-36579791Y-35311269D01*
X-69397811Y-74613331D02*
X-68925535Y-74785731D01*
X-123989406Y-31678118D02*
X-123869112Y-31498277D01*
X-51980591Y-7364388D02*
X-51884257Y-7480822D01*
X-86899372Y-10969893D02*
X-87009208Y-10368298D01*
X-117545355Y-23660334D02*
X-117739411Y-23750874D01*
X-36738114Y-33370992D02*
X-36276445Y-32668887D01*
X-51884257Y-7480822D02*
X-51816991Y-7637054D01*
X-49392593Y-23204484D02*
X-51476510Y-23334555D01*
X-103843123Y-8757880D02*
X-104732244Y-8350576D01*
X-101136323Y-4665350D02*
X-101890280Y-4417874D01*
X-51926973Y-58505328D02*
X-49976396Y-59377946D01*
X-100187266Y-73866872D02*
X-100481495Y-74029650D01*
X-69715429Y-66727790D02*
X-68344189Y-66587247D01*
X-88684689Y-6418770D02*
X-88842236Y-6351918D01*
X-48354805Y-16546144D02*
X-48534935Y-16466601D01*
X-114475775Y-21426580D02*
X-113533073Y-22992446D01*
X-72575238Y-74224484D02*
X-72447789Y-74139457D01*
X-80364652Y-7977622D02*
X-81016487Y-7624373D01*
X-37474831Y-23597137D02*
X-37742711Y-23491079D01*
X-114213533Y-8528158D02*
X-114053731Y-8984149D01*
X-92494129Y-75918227D02*
X-92310293Y-75957920D01*
X-37152016Y-33957518D02*
X-36738114Y-33370992D01*
X-97254367Y-72401079D02*
X-97087831Y-72706890D01*
X-100778891Y-74163953D02*
X-101076742Y-74272182D01*
X-79256636Y-35141268D02*
X-79297429Y-35439009D01*
X-40861125Y-42944776D02*
X-42073344Y-42038026D01*
X-99350680Y-73183664D02*
X-99619148Y-73446281D01*
X-119446247Y-29981416D02*
X-119012486Y-30016520D01*
X-106451164Y-70120311D02*
X-106426973Y-69695391D01*
X-103730210Y-5115997D02*
X-103681174Y-5323802D01*
X-37128608Y-23849670D02*
X-37128608Y-23849670D01*
X-116905317Y-23432464D02*
X-117340526Y-23577302D01*
X-70474991Y-30335074D02*
X-70687929Y-30140100D01*
X-103778093Y-4745838D02*
X-103763015Y-4922707D01*
X-99211398Y-47435811D02*
X-98989225Y-47536442D01*
X-124612260Y-33510178D02*
X-124534330Y-33080885D01*
X-36021432Y-35790390D02*
X-36170711Y-35632206D01*
X-112871664Y-13037791D02*
X-113852981Y-12665902D01*
X-72329521Y-74053849D02*
X-72220171Y-73968250D01*
X-82373238Y-7143591D02*
X-82582014Y-7132998D01*
X-87797236Y-71255373D02*
X-87625071Y-70527303D01*
X-108660383Y-8882414D02*
X-108682403Y-9481769D01*
X-123858444Y-36493368D02*
X-124015251Y-36289522D01*
X-112342855Y-8167757D02*
X-112809099Y-7907771D01*
X-69071151Y-32893974D02*
X-69145438Y-32603520D01*
X-68188535Y-7840296D02*
X-69034973Y-8454834D01*
X-35664269Y-29732634D02*
X-35805153Y-29655385D01*
X-123506764Y-36891607D02*
X-123688651Y-36694179D01*
X-64843775Y-6093878D02*
X-65144995Y-6167365D01*
X-62260100Y-10146357D02*
X-62494391Y-9172671D01*
X-74898067Y-2613352D02*
X-75104613Y-2583570D01*
X-99749414Y-47091549D02*
X-99590379Y-47212356D01*
X-66178965Y-6597327D02*
X-66558832Y-6800928D01*
X-79359255Y-36292167D02*
X-79358565Y-36820068D01*
X-93439909Y-75605282D02*
X-93251307Y-75679828D01*
X-108392617Y-62999409D02*
X-107283610Y-63468740D01*
X-83749656Y-32663302D02*
X-82809644Y-33168309D01*
X-114272900Y-7375354D02*
X-114336879Y-7408179D01*
X-37095505Y-38194752D02*
X-36633812Y-37710915D01*
X-89989775Y-30594749D02*
X-88882064Y-30802470D01*
X-76390850Y-4693705D02*
X-76486378Y-5363336D01*
X-96677029Y-73303007D02*
X-96430654Y-73592788D01*
X-68953718Y-34385071D02*
X-68941842Y-34085069D01*
X-92870811Y-75812968D02*
X-92681378Y-75869579D01*
X-102008659Y-9671174D02*
X-103843123Y-8757880D01*
X-92911497Y-46617681D02*
X-92825833Y-46487167D01*
X-98015408Y-70144478D02*
X-98128903Y-70724126D01*
X-69341218Y-32038526D02*
X-69461815Y-31766023D01*
X-97890070Y-68818083D02*
X-97934894Y-69509931D01*
X-52511828Y-59943293D02*
X-52117404Y-59412715D01*
X-90404483Y-75683246D02*
X-90141296Y-75520885D01*
X-70912263Y-29960275D02*
X-71142393Y-29795117D01*
X-112932754Y-11560731D02*
X-112502794Y-12446304D01*
X-50059826Y-21434933D02*
X-49681321Y-20877583D01*
X-104307158Y-22375874D02*
X-99199046Y-22431754D01*
X-59566604Y-64573953D02*
X-58171482Y-64006807D01*
X-48038777Y-17522265D02*
X-48016730Y-17305772D01*
X-91122816Y-30452378D02*
X-89989775Y-30594749D01*
X-62052791Y-11170768D02*
X-62260100Y-10146357D01*
X-78591669Y-73424987D02*
X-78364161Y-73716042D01*
X-53912143Y-61392646D02*
X-53411334Y-60932768D01*
X-73746430Y-74753647D02*
X-73547385Y-74689270D01*
X-71612838Y-38177293D02*
X-71612838Y-38177293D01*
X-36801673Y-46317005D02*
X-37492156Y-45691407D01*
X-64810423Y-50903799D02*
X-63951725Y-51585855D01*
X-34752344Y-48610894D02*
X-34915908Y-48360622D01*
X-75928610Y-3109292D02*
X-76026241Y-3313848D01*
X-117616294Y-31217464D02*
X-117107373Y-33038798D01*
X-72065889Y-29272058D02*
X-72297116Y-29176235D01*
X-48948914Y-19698281D02*
X-48627603Y-19107829D01*
X-115421763Y-19794310D02*
X-114475775Y-21426580D01*
X-56039664Y-56495078D02*
X-53961865Y-57542333D01*
X-85985487Y-20283365D02*
X-86253647Y-20058366D01*
X-124494812Y-35450783D02*
X-124573331Y-35237005D01*
X-116998307Y-16893724D02*
X-116477605Y-17884759D01*
X-64104983Y-6123045D02*
X-64321301Y-6068852D01*
X-71142393Y-29795117D02*
X-71372898Y-29643607D01*
X-115706525Y-53157435D02*
X-115519232Y-54095750D01*
X-97793100Y-70140144D02*
X-97775935Y-70474184D01*
X-83324350Y-23025058D02*
X-83540183Y-22766039D01*
X-69582223Y-36395973D02*
X-69430862Y-36125378D01*
X-113852981Y-12665902D02*
X-114817748Y-12324887D01*
X-120962777Y-30004778D02*
X-120615239Y-29975554D01*
X-40514246Y-62459431D02*
X-40451096Y-62435558D01*
X-79139642Y-34530246D02*
X-79204325Y-34838098D01*
X-44736865Y-32319433D02*
X-44736865Y-32319433D01*
X-124674489Y-34806985D02*
X-124695346Y-34591440D01*
X-61009582Y-65068394D02*
X-59566604Y-64573953D01*
X-97506946Y-47888320D02*
X-97128408Y-47921385D01*
X-56205910Y-63011191D02*
X-55593161Y-62638719D01*
X-36571653Y-50977837D02*
X-35910778Y-50694399D01*
X-79958365Y-69314807D02*
X-79867227Y-69971035D01*
X-73547385Y-74689270D02*
X-73359354Y-74620167D01*
X-106150815Y-68018577D02*
X-105939877Y-67231262D01*
X-41852431Y-62485264D02*
X-41536906Y-62516315D01*
X-69430862Y-36125378D02*
X-69300773Y-35847527D01*
X-97573510Y-68082413D02*
X-97701118Y-68776764D01*
X-118240018Y-24070797D02*
X-118374062Y-24194621D01*
X-123590772Y-31159927D02*
X-123431543Y-31002601D01*
X-92825833Y-46487167D02*
X-92752479Y-46357384D01*
X-94390824Y-47650170D02*
X-94152259Y-47560814D01*
X-96965481Y-65973879D02*
X-97197252Y-66678873D01*
X-88252138Y-6808701D02*
X-88389747Y-6649558D01*
X-51928290Y-9250469D02*
X-52120605Y-9977352D01*
X-113240231Y-7686429D02*
X-113622414Y-7514764D01*
X-80014267Y-68725068D02*
X-79958365Y-69314807D01*
X-122676087Y-37640495D02*
X-123110270Y-37274914D01*
X-71014900Y-66823071D02*
X-69715429Y-66727790D01*
X-110337103Y-61909759D02*
X-109409255Y-62478910D01*
X-102218502Y-74492406D02*
X-102721649Y-74508532D01*
X-91957783Y-76006475D02*
X-91957783Y-76006475D01*
X-72297116Y-29176235D02*
X-72528327Y-29094608D01*
X-99096221Y-72882963D02*
X-99350680Y-73183664D01*
X-118801405Y-12146451D02*
X-118795342Y-12382854D01*
X-65469578Y-6277680D02*
X-65815058Y-6421956D01*
X-63133232Y-72120005D02*
X-62985062Y-71669902D01*
X-75705489Y-2792572D02*
X-75821823Y-2934659D01*
X-36633812Y-37710915D02*
X-36433936Y-37476655D01*
X-74152901Y-2863208D02*
X-74420155Y-2755215D01*
X-69909040Y-31000708D02*
X-70085097Y-30766396D01*
X-81887186Y-7256563D02*
X-82140970Y-7185471D01*
X-49681321Y-20877583D02*
X-49305585Y-20293449D01*
X-69829388Y-74397622D02*
X-69397811Y-74613331D01*
X-68410805Y-74911230D02*
X-67851866Y-74986239D01*
X-51476510Y-23334555D02*
X-51476510Y-23334555D01*
X-41038278Y-41337945D02*
X-39986699Y-40586194D01*
X-75941279Y-29648370D02*
X-76161573Y-29808808D01*
X-36170711Y-35632206D02*
X-36357834Y-35472334D01*
X-92752479Y-46357384D02*
X-92690498Y-46229393D01*
X-124573331Y-35237005D02*
X-124633521Y-35022289D01*
X-76711846Y-39316022D02*
X-76172672Y-39301003D01*
X-118317418Y-28353050D02*
X-118104390Y-29294338D01*
X-52502513Y-7208120D02*
X-52288855Y-7232391D01*
X-63368984Y-6858228D02*
X-63541084Y-6600625D01*
X-118374062Y-24194621D02*
X-118488872Y-24327580D01*
X-41177165Y-62532755D02*
X-40995495Y-62530624D01*
X-35988475Y-36819927D02*
X-35899787Y-36620651D01*
X-97396400Y-72090448D02*
X-97254367Y-72401079D01*
X-121723160Y-38307300D02*
X-122211341Y-37985555D01*
X-108242899Y-7626514D02*
X-108355062Y-7764327D01*
X-97996849Y-66374716D02*
X-97918338Y-67252878D01*
X-83545625Y-7542825D02*
X-83732005Y-7703457D01*
X-118795342Y-12382854D02*
X-118754993Y-12659490D01*
X-72225514Y-66877010D02*
X-71014900Y-66823071D01*
X-72225514Y-66877010D02*
X-72225514Y-66877010D01*
X-83540183Y-22766039D02*
X-83775830Y-22493807D01*
X-97883648Y-68066533D02*
X-97890070Y-68818083D01*
X-124664307Y-33943462D02*
X-124612260Y-33510178D01*
X-35267478Y-30418787D02*
X-35265596Y-30292780D01*
X-50759967Y-22406278D02*
X-50059826Y-21434933D01*
X-70897475Y-73526533D02*
X-70577465Y-73850633D01*
X-79230600Y-38141730D02*
X-79168788Y-38474978D01*
X-103412559Y-4136257D02*
X-103535245Y-4174553D01*
X-113533073Y-22992446D02*
X-114289196Y-23021248D01*
X-78378183Y-39217568D02*
X-77653575Y-39288238D01*
X-78240391Y-9373475D02*
X-78960802Y-8868763D01*
X-108403327Y-12233195D02*
X-108282745Y-12906503D01*
X-94933895Y-47798185D02*
X-94651057Y-47729647D01*
X-39844296Y-23137509D02*
X-40954053Y-23066720D01*
X-76486378Y-5363336D02*
X-76557874Y-6068751D01*
X-62985062Y-71669902D02*
X-62865169Y-71204907D01*
X-69013200Y-33188374D02*
X-69071151Y-32893974D01*
X-97611175Y-71455778D02*
X-97514985Y-71775260D01*
X-51804486Y-8602913D02*
X-51928290Y-9250469D01*
X-79327560Y-35730571D02*
X-79347884Y-36015206D01*
X-103053161Y-4140297D02*
X-103253943Y-4125690D01*
X-98743776Y-47628332D02*
X-98473938Y-47710473D01*
X-112623680Y-59935548D02*
X-111940737Y-60635563D01*
X-92280437Y-30379873D02*
X-91122816Y-30452378D01*
X-95893297Y-30626696D02*
X-95893297Y-30626696D01*
X-76161573Y-29808808D02*
X-76380519Y-29985308D01*
X-35542722Y-29813475D02*
X-35664269Y-29732634D01*
X-97746101Y-69121168D02*
X-97777128Y-69463374D01*
X-81016487Y-7624373D02*
X-81613861Y-7354793D01*
X-123110270Y-37274914D02*
X-123313673Y-37085302D01*
X-84293607Y-21924476D02*
X-84851758Y-21346601D01*
X-118754993Y-12659490D02*
X-118682778Y-12972973D01*
X-72119477Y-73883254D02*
X-72027178Y-73799450D01*
X-77868782Y-31679769D02*
X-78074113Y-31988717D01*
X-53146512Y-16493067D02*
X-55407066Y-16762944D01*
X-37252879Y-24905179D02*
X-37132954Y-24643597D01*
X-113622414Y-7514764D02*
X-113941808Y-7403811D01*
X-118700987Y-11807887D02*
X-118700987Y-11807887D01*
X-61582915Y-14246081D02*
X-61871479Y-12215677D01*
X-97128408Y-47921385D02*
X-96719908Y-47939662D01*
X-63541084Y-6600625D02*
X-63721035Y-6389708D01*
X-71275126Y-38001412D02*
X-70962279Y-37810128D01*
X-100118075Y-46704897D02*
X-100012148Y-46836811D01*
X-124015251Y-36289522D02*
X-124158182Y-36082991D01*
X-43159114Y-52685389D02*
X-43159114Y-52685389D01*
X-40459132Y-33602297D02*
X-42041567Y-33088546D01*
X-113533073Y-22992446D02*
X-113533073Y-22992446D01*
X-51777086Y-7830231D02*
X-51762838Y-8057502D01*
X-92490057Y-45333186D02*
X-92493907Y-45211340D01*
X-71612838Y-38177293D02*
X-71275126Y-38001412D01*
X-69034973Y-8454834D02*
X-69876142Y-9102033D01*
X-107554470Y-7429374D02*
X-107776306Y-7427381D01*
X-108682403Y-9481769D02*
X-108659513Y-10137135D01*
X-103681174Y-5323802D02*
X-103617403Y-5544213D01*
X-48357947Y-18537842D02*
X-48247581Y-18265445D01*
X-120615239Y-29975554D02*
X-120247032Y-29961524D01*
X-96430654Y-73592788D02*
X-96155556Y-73876702D01*
X-40820510Y-62518992D02*
X-40658122Y-62495911D01*
X-70409384Y-37385421D02*
X-70168439Y-37154035D01*
X-78740072Y-33266995D02*
X-78862801Y-33586087D01*
X-86279151Y-12150504D02*
X-86614692Y-13069525D01*
X-63908960Y-6229255D02*
X-64104983Y-6123045D01*
X-34623880Y-48845542D02*
X-34752344Y-48610894D01*
X-35805153Y-29655385D02*
X-35963660Y-29581674D01*
X-40954053Y-23066720D02*
X-42161945Y-23028690D01*
X-71603702Y-29505854D02*
X-71834725Y-29381968D01*
X-113860416Y-9480163D02*
X-113409392Y-10531519D01*
X-82972496Y-7209700D02*
X-83165544Y-7293806D01*
X-71463694Y-10402701D02*
X-72793230Y-11558862D01*
X-106452446Y-70542179D02*
X-106451164Y-70120311D01*
X-51980591Y-7364388D02*
X-51980591Y-7364388D01*
X-84272590Y-8304156D02*
X-84445513Y-8536854D01*
X-78114318Y-73985438D02*
X-77841099Y-74230230D01*
X-75543353Y-39316108D02*
X-73431216Y-41687633D01*
X-118682778Y-12972973D02*
X-118581119Y-13319916D01*
X-75273087Y-29262330D02*
X-75496958Y-29375241D01*
X-35848454Y-36099714D02*
X-35913010Y-35946391D01*
X-96310009Y-47941731D02*
X-95927395Y-47927558D01*
X-65144995Y-6167365D02*
X-65469578Y-6277680D01*
X-42726712Y-53934076D02*
X-43159114Y-52685389D01*
X-70932730Y-4814909D02*
X-71607077Y-4346821D01*
X-42033325Y-30034438D02*
X-40511418Y-28646174D01*
X-64104983Y-6123045D02*
X-64104983Y-6123045D01*
X-97934894Y-69509931D02*
X-98015408Y-70144478D01*
X-34605252Y-49767302D02*
X-34518743Y-49603838D01*
X-88120959Y-6993813D02*
X-88252138Y-6808701D01*
X-77207228Y-39310056D02*
X-76711846Y-39316022D01*
X-103150730Y-74487623D02*
X-103484062Y-74448896D01*
X-52943850Y-60449814D02*
X-52511828Y-59943293D01*
X-73572074Y-3143097D02*
X-74152901Y-2863208D01*
X-124195201Y-32056173D02*
X-124097905Y-31864280D01*
X-76659639Y-8189932D02*
X-76665011Y-9398392D01*
X-100510138Y-45459319D02*
X-100502028Y-45673546D01*
X-69653699Y-5753243D02*
X-70932730Y-4814909D01*
X-68948096Y-33784940D02*
X-68972031Y-33485702D01*
X-118497386Y-27456450D02*
X-118317418Y-28353050D01*
X-105939877Y-67231262D02*
X-105706866Y-66506482D01*
X-68925535Y-74785731D02*
X-68410805Y-74911230D01*
X-66384007Y-49502499D02*
X-65622909Y-50209092D01*
X-124695346Y-34591440D02*
X-124695201Y-34376005D01*
X-89892863Y-75330711D02*
X-89658726Y-75114764D01*
X-35311278Y-30078108D02*
X-35364509Y-29986157D01*
D12*
X-61231358Y-90194114D02*
X-61469453Y-90860780D01*
X-61707548Y-90194114D01*
X-63374215Y-90860780D02*
X-62802786Y-90860780D01*
X-63088500Y-90860780D02*
X-63088500Y-89860780D01*
X-62993262Y-90003638D01*
X-62898024Y-90098876D01*
X-62802786Y-90146495D01*
X-63802786Y-90765542D02*
X-63850405Y-90813161D01*
X-63802786Y-90860780D01*
X-63755167Y-90813161D01*
X-63802786Y-90765542D01*
X-63802786Y-90860780D01*
X-64469453Y-89860780D02*
X-64564691Y-89860780D01*
X-64659929Y-89908400D01*
X-64707548Y-89956019D01*
X-64755167Y-90051257D01*
X-64802786Y-90241733D01*
X-64802786Y-90479828D01*
X-64755167Y-90670304D01*
X-64707548Y-90765542D01*
X-64659929Y-90813161D01*
X-64564691Y-90860780D01*
X-64469453Y-90860780D01*
X-64374215Y-90813161D01*
X-64326596Y-90765542D01*
X-64278977Y-90670304D01*
X-64231358Y-90479828D01*
X-64231358Y-90241733D01*
X-64278977Y-90051257D01*
X-64326596Y-89956019D01*
X-64374215Y-89908400D01*
X-64469453Y-89860780D01*
X-62136120Y-91708876D02*
X-62040881Y-91661257D01*
X-61850405Y-91661257D01*
X-61755167Y-91708876D01*
X-61659929Y-91804114D01*
X-61612310Y-91899352D01*
X-61612310Y-92089828D01*
X-61659929Y-92185066D01*
X-61755167Y-92280304D01*
X-61850405Y-92327923D01*
X-62040881Y-92327923D01*
X-62136120Y-92280304D01*
X-61945643Y-91327923D02*
X-61707548Y-91375542D01*
X-61469453Y-91518400D01*
X-61326596Y-91756495D01*
X-61278977Y-91994590D01*
X-61326596Y-92232685D01*
X-61469453Y-92470780D01*
X-61707548Y-92613638D01*
X-61945643Y-92661257D01*
X-62183739Y-92613638D01*
X-62421834Y-92470780D01*
X-62564691Y-92232685D01*
X-62612310Y-91994590D01*
X-62564691Y-91756495D01*
X-62421834Y-91518400D01*
X-62183739Y-91375542D01*
X-61945643Y-91327923D01*
X-64231358Y-91804114D02*
X-64231358Y-92613638D01*
X-64183739Y-92708876D01*
X-64136120Y-92756495D01*
X-64040881Y-92804114D01*
X-63898024Y-92804114D01*
X-63802786Y-92756495D01*
X-64231358Y-92423161D02*
X-64136120Y-92470780D01*
X-63945643Y-92470780D01*
X-63850405Y-92423161D01*
X-63802786Y-92375542D01*
X-63755167Y-92280304D01*
X-63755167Y-91994590D01*
X-63802786Y-91899352D01*
X-63850405Y-91851733D01*
X-63945643Y-91804114D01*
X-64136120Y-91804114D01*
X-64231358Y-91851733D01*
X-64707548Y-92470780D02*
X-64707548Y-91804114D01*
X-64707548Y-91470780D02*
X-64659929Y-91518400D01*
X-64707548Y-91566019D01*
X-64755167Y-91518400D01*
X-64707548Y-91470780D01*
X-64707548Y-91566019D01*
X-65040881Y-91804114D02*
X-65421834Y-91804114D01*
X-65183739Y-91470780D02*
X-65183739Y-92327923D01*
X-65231358Y-92423161D01*
X-65326596Y-92470780D01*
X-65421834Y-92470780D01*
X-65755167Y-92375542D02*
X-65802786Y-92423161D01*
X-65755167Y-92470780D01*
X-65707548Y-92423161D01*
X-65755167Y-92375542D01*
X-65755167Y-92470780D01*
X-65755167Y-91851733D02*
X-65802786Y-91899352D01*
X-65755167Y-91946971D01*
X-65707548Y-91899352D01*
X-65755167Y-91851733D01*
X-65755167Y-91946971D01*
X-66993262Y-92470780D02*
X-66993262Y-91804114D01*
X-66993262Y-91899352D02*
X-67040881Y-91851733D01*
X-67136120Y-91804114D01*
X-67278977Y-91804114D01*
X-67374215Y-91851733D01*
X-67421834Y-91946971D01*
X-67421834Y-92470780D01*
X-67421834Y-91946971D02*
X-67469453Y-91851733D01*
X-67564691Y-91804114D01*
X-67707548Y-91804114D01*
X-67802786Y-91851733D01*
X-67850405Y-91946971D01*
X-67850405Y-92470780D01*
X-68755167Y-92470780D02*
X-68755167Y-91946971D01*
X-68707548Y-91851733D01*
X-68612310Y-91804114D01*
X-68421834Y-91804114D01*
X-68326596Y-91851733D01*
X-68755167Y-92423161D02*
X-68659929Y-92470780D01*
X-68421834Y-92470780D01*
X-68326596Y-92423161D01*
X-68278977Y-92327923D01*
X-68278977Y-92232685D01*
X-68326596Y-92137447D01*
X-68421834Y-92089828D01*
X-68659929Y-92089828D01*
X-68755167Y-92042209D01*
X-69136120Y-92470780D02*
X-69659929Y-91804114D01*
X-69136120Y-91804114D02*
X-69659929Y-92470780D01*
X-69945643Y-91470780D02*
X-70564691Y-91470780D01*
X-70231358Y-91851733D01*
X-70374215Y-91851733D01*
X-70469453Y-91899352D01*
X-70517072Y-91946971D01*
X-70564691Y-92042209D01*
X-70564691Y-92280304D01*
X-70517072Y-92375542D01*
X-70469453Y-92423161D01*
X-70374215Y-92470780D01*
X-70088500Y-92470780D01*
X-69993262Y-92423161D01*
X-69945643Y-92375542D01*
X-70993262Y-92089828D02*
X-71755167Y-92089828D01*
X-72183739Y-91566019D02*
X-72231358Y-91518400D01*
X-72326596Y-91470780D01*
X-72564691Y-91470780D01*
X-72659929Y-91518400D01*
X-72707548Y-91566019D01*
X-72755167Y-91661257D01*
X-72755167Y-91756495D01*
X-72707548Y-91899352D01*
X-72136120Y-92470780D01*
X-72755167Y-92470780D01*
D13*
X-102028772Y-86303971D02*
X-101528772Y-85589685D01*
X-101171629Y-86303971D02*
X-101171629Y-84803971D01*
X-101743058Y-84803971D01*
X-101885915Y-84875400D01*
X-101957343Y-84946828D01*
X-102028772Y-85089685D01*
X-102028772Y-85303971D01*
X-101957343Y-85446828D01*
X-101885915Y-85518257D01*
X-101743058Y-85589685D01*
X-101171629Y-85589685D01*
X-102600200Y-86232542D02*
X-102814486Y-86303971D01*
X-103171629Y-86303971D01*
X-103314486Y-86232542D01*
X-103385915Y-86161114D01*
X-103457343Y-86018257D01*
X-103457343Y-85875400D01*
X-103385915Y-85732542D01*
X-103314486Y-85661114D01*
X-103171629Y-85589685D01*
X-102885915Y-85518257D01*
X-102743058Y-85446828D01*
X-102671629Y-85375400D01*
X-102600200Y-85232542D01*
X-102600200Y-85089685D01*
X-102671629Y-84946828D01*
X-102743058Y-84875400D01*
X-102885915Y-84803971D01*
X-103243058Y-84803971D01*
X-103457343Y-84875400D01*
X-103885915Y-84803971D02*
X-104743058Y-84803971D01*
X-104314486Y-86303971D02*
X-104314486Y-84803971D01*
X-120327020Y-56761361D02*
X-120327020Y-54761361D01*
X-120327020Y-55713742D02*
X-121469877Y-55713742D01*
X-121469877Y-56761361D02*
X-121469877Y-54761361D01*
X-123184162Y-56666123D02*
X-122993686Y-56761361D01*
X-122612734Y-56761361D01*
X-122422258Y-56666123D01*
X-122327020Y-56475647D01*
X-122327020Y-55713742D01*
X-122422258Y-55523266D01*
X-122612734Y-55428028D01*
X-122993686Y-55428028D01*
X-123184162Y-55523266D01*
X-123279400Y-55713742D01*
X-123279400Y-55904219D01*
X-122327020Y-56094695D01*
X-124993686Y-56761361D02*
X-124993686Y-54761361D01*
X-124993686Y-56666123D02*
X-124803210Y-56761361D01*
X-124422258Y-56761361D01*
X-124231781Y-56666123D01*
X-124136543Y-56570885D01*
X-124041305Y-56380409D01*
X-124041305Y-55808980D01*
X-124136543Y-55618504D01*
X-124231781Y-55523266D01*
X-124422258Y-55428028D01*
X-124803210Y-55428028D01*
X-124993686Y-55523266D01*
X-126803210Y-55428028D02*
X-126803210Y-57047076D01*
X-126707972Y-57237552D01*
X-126612734Y-57332790D01*
X-126422258Y-57428028D01*
X-126136543Y-57428028D01*
X-125946067Y-57332790D01*
X-126803210Y-56666123D02*
X-126612734Y-56761361D01*
X-126231781Y-56761361D01*
X-126041305Y-56666123D01*
X-125946067Y-56570885D01*
X-125850829Y-56380409D01*
X-125850829Y-55808980D01*
X-125946067Y-55618504D01*
X-126041305Y-55523266D01*
X-126231781Y-55428028D01*
X-126612734Y-55428028D01*
X-126803210Y-55523266D01*
X-128517496Y-56666123D02*
X-128327020Y-56761361D01*
X-127946067Y-56761361D01*
X-127755591Y-56666123D01*
X-127660353Y-56475647D01*
X-127660353Y-55713742D01*
X-127755591Y-55523266D01*
X-127946067Y-55428028D01*
X-128327020Y-55428028D01*
X-128517496Y-55523266D01*
X-128612734Y-55713742D01*
X-128612734Y-55904219D01*
X-127660353Y-56094695D01*
X-129469877Y-56761361D02*
X-129469877Y-54761361D01*
X-130327020Y-56761361D02*
X-130327020Y-55713742D01*
X-130231781Y-55523266D01*
X-130041305Y-55428028D01*
X-129755591Y-55428028D01*
X-129565115Y-55523266D01*
X-129469877Y-55618504D01*
X-131565115Y-56761361D02*
X-131374639Y-56666123D01*
X-131279400Y-56570885D01*
X-131184162Y-56380409D01*
X-131184162Y-55808980D01*
X-131279400Y-55618504D01*
X-131374639Y-55523266D01*
X-131565115Y-55428028D01*
X-131850829Y-55428028D01*
X-132041305Y-55523266D01*
X-132136543Y-55618504D01*
X-132231781Y-55808980D01*
X-132231781Y-56380409D01*
X-132136543Y-56570885D01*
X-132041305Y-56666123D01*
X-131850829Y-56761361D01*
X-131565115Y-56761361D01*
X-133946067Y-55428028D02*
X-133946067Y-57047076D01*
X-133850829Y-57237552D01*
X-133755591Y-57332790D01*
X-133565115Y-57428028D01*
X-133279400Y-57428028D01*
X-133088924Y-57332790D01*
X-133946067Y-56666123D02*
X-133755591Y-56761361D01*
X-133374639Y-56761361D01*
X-133184162Y-56666123D01*
X-133088924Y-56570885D01*
X-132993686Y-56380409D01*
X-132993686Y-55808980D01*
X-133088924Y-55618504D01*
X-133184162Y-55523266D01*
X-133374639Y-55428028D01*
X-133755591Y-55428028D01*
X-133946067Y-55523266D01*
X-137374639Y-56761361D02*
X-136422258Y-56761361D01*
X-136422258Y-54761361D01*
X-138041305Y-56761361D02*
X-138041305Y-55428028D01*
X-138041305Y-54761361D02*
X-137946067Y-54856600D01*
X-138041305Y-54951838D01*
X-138136543Y-54856600D01*
X-138041305Y-54761361D01*
X-138041305Y-54951838D01*
X-138707972Y-55428028D02*
X-139469877Y-55428028D01*
X-138993686Y-54761361D02*
X-138993686Y-56475647D01*
X-139088924Y-56666123D01*
X-139279400Y-56761361D01*
X-139469877Y-56761361D01*
X-140898448Y-56666123D02*
X-140707972Y-56761361D01*
X-140327020Y-56761361D01*
X-140136543Y-56666123D01*
X-140041305Y-56475647D01*
X-140041305Y-55713742D01*
X-140136543Y-55523266D01*
X-140327020Y-55428028D01*
X-140707972Y-55428028D01*
X-140898448Y-55523266D01*
X-140993686Y-55713742D01*
X-140993686Y-55904219D01*
X-140041305Y-56094695D01*
X-144231781Y-54761361D02*
X-143850829Y-54761361D01*
X-143660353Y-54856600D01*
X-143565115Y-54951838D01*
X-143374639Y-55237552D01*
X-143279400Y-55618504D01*
X-143279400Y-56380409D01*
X-143374639Y-56570885D01*
X-143469877Y-56666123D01*
X-143660353Y-56761361D01*
X-144041305Y-56761361D01*
X-144231781Y-56666123D01*
X-144327020Y-56570885D01*
X-144422258Y-56380409D01*
X-144422258Y-55904219D01*
X-144327020Y-55713742D01*
X-144231781Y-55618504D01*
X-144041305Y-55523266D01*
X-143660353Y-55523266D01*
X-143469877Y-55618504D01*
X-143374639Y-55713742D01*
X-143279400Y-55904219D01*
X-145660353Y-54761361D02*
X-145850829Y-54761361D01*
X-146041305Y-54856600D01*
X-146136543Y-54951838D01*
X-146231781Y-55142314D01*
X-146327020Y-55523266D01*
X-146327020Y-55999457D01*
X-146231781Y-56380409D01*
X-146136543Y-56570885D01*
X-146041305Y-56666123D01*
X-145850829Y-56761361D01*
X-145660353Y-56761361D01*
X-145469877Y-56666123D01*
X-145374639Y-56570885D01*
X-145279400Y-56380409D01*
X-145184162Y-55999457D01*
X-145184162Y-55523266D01*
X-145279400Y-55142314D01*
X-145374639Y-54951838D01*
X-145469877Y-54856600D01*
X-145660353Y-54761361D01*
D12*
%TO.C,SW1*%
X-108171667Y-82254761D02*
X-108314524Y-82302380D01*
X-108552620Y-82302380D01*
X-108647858Y-82254761D01*
X-108695477Y-82207142D01*
X-108743096Y-82111904D01*
X-108743096Y-82016666D01*
X-108695477Y-81921428D01*
X-108647858Y-81873809D01*
X-108552620Y-81826190D01*
X-108362143Y-81778571D01*
X-108266905Y-81730952D01*
X-108219286Y-81683333D01*
X-108171667Y-81588095D01*
X-108171667Y-81492857D01*
X-108219286Y-81397619D01*
X-108266905Y-81350000D01*
X-108362143Y-81302380D01*
X-108600239Y-81302380D01*
X-108743096Y-81350000D01*
X-109076429Y-81302380D02*
X-109314524Y-82302380D01*
X-109505000Y-81588095D01*
X-109695477Y-82302380D01*
X-109933572Y-81302380D01*
X-110838334Y-82302380D02*
X-110266905Y-82302380D01*
X-110552620Y-82302380D02*
X-110552620Y-81302380D01*
X-110457381Y-81445238D01*
X-110362143Y-81540476D01*
X-110266905Y-81588095D01*
D14*
X-111205000Y-87900000D02*
X-110755000Y-88350000D01*
X-111205000Y-83300000D02*
X-110755000Y-82850000D01*
X-106755000Y-84600000D02*
X-106755000Y-86600000D01*
X-108255000Y-88350000D02*
X-110755000Y-88350000D01*
X-108255000Y-82850000D02*
X-110755000Y-82850000D01*
X-112255000Y-84600000D02*
X-112255000Y-86600000D01*
X-107805000Y-83300000D02*
X-108255000Y-82850000D01*
X-107805000Y-87900000D02*
X-108255000Y-88350000D01*
%TD*%
%LPC*%
D15*
%TO.C,K8*%
X-278288000Y-17655000D03*
X-266350000Y-9400000D03*
D16*
X-254412000Y-2415000D03*
D15*
X-254412000Y-17655000D03*
D17*
X-261270000Y-9400000D03*
D16*
X-262540000Y-6860000D03*
X-278288000Y-2415000D03*
X-268890000Y-4320000D03*
D17*
X-271430000Y-9400000D03*
%TD*%
D16*
%TO.C,K22*%
X-97440000Y-42420000D03*
D15*
X-94900000Y-47500000D03*
D17*
X-99980000Y-47500000D03*
X-89820000Y-47500000D03*
D16*
X-91090000Y-44960000D03*
%TD*%
D18*
%TO.C,J2*%
X-299871000Y-34030600D03*
X-301141000Y-34030600D03*
X-299871000Y-32760600D03*
X-301141000Y-32760600D03*
X-299871000Y-31490600D03*
D19*
X-301141000Y-31490600D03*
%TD*%
D17*
%TO.C,K70*%
X-33305000Y-9400000D03*
D15*
X-28225000Y-9400000D03*
D16*
X-24415000Y-6860000D03*
X-30765000Y-4320000D03*
D17*
X-23145000Y-9400000D03*
%TD*%
D20*
%TO.C,TH2*%
X-2215400Y-21109400D03*
%TD*%
D16*
%TO.C,K82*%
X-100615000Y-6860000D03*
X-106965000Y-4320000D03*
D15*
X-104425000Y-9400000D03*
D17*
X-99345000Y-9400000D03*
X-109505000Y-9400000D03*
%TD*%
D16*
%TO.C,K41*%
X-71246250Y-80520000D03*
D17*
X-63626250Y-85600000D03*
D16*
X-64896250Y-83060000D03*
D17*
X-73786250Y-85600000D03*
D15*
X-68706250Y-85600000D03*
%TD*%
D16*
%TO.C,K7*%
X-233965000Y-6860000D03*
D17*
X-242855000Y-9400000D03*
D15*
X-237775000Y-9400000D03*
D16*
X-240315000Y-4320000D03*
D17*
X-232695000Y-9400000D03*
%TD*%
D15*
%TO.C,K63*%
X-152050000Y-47500000D03*
D17*
X-157130000Y-47500000D03*
X-146970000Y-47500000D03*
D16*
X-154590000Y-42420000D03*
X-148240000Y-44960000D03*
%TD*%
D20*
%TO.C,TH1*%
X-300055800Y-41734200D03*
%TD*%
D17*
%TO.C,K32*%
X-104742500Y-66550000D03*
D16*
X-102202500Y-61470000D03*
X-95852500Y-64010000D03*
D17*
X-94582500Y-66550000D03*
D15*
X-99662500Y-66550000D03*
%TD*%
D17*
%TO.C,K10*%
X-8857500Y-28450000D03*
X-19017500Y-28450000D03*
D15*
X-13937500Y-28450000D03*
D16*
X-16477500Y-23370000D03*
X-10127500Y-25910000D03*
%TD*%
%TO.C,K11*%
X-48227500Y-25910000D03*
D17*
X-46957500Y-28450000D03*
D16*
X-54577500Y-23370000D03*
D15*
X-52037500Y-28450000D03*
D17*
X-57117500Y-28450000D03*
%TD*%
%TO.C,K27*%
X-254126250Y-47500000D03*
D15*
X-247268250Y-55755000D03*
X-259206250Y-47500000D03*
X-271144250Y-55755000D03*
D17*
X-264286250Y-47500000D03*
D16*
X-261746250Y-42420000D03*
X-255396250Y-44960000D03*
X-271144250Y-40515000D03*
X-247268250Y-40515000D03*
%TD*%
%TO.C,K42*%
X-88708750Y-83060000D03*
D17*
X-87438750Y-85600000D03*
D15*
X-92518750Y-85600000D03*
D16*
X-95058750Y-80520000D03*
D17*
X-97598750Y-85600000D03*
%TD*%
%TO.C,K45*%
X-180307500Y-85600000D03*
D16*
X-181577500Y-83060000D03*
D15*
X-185387500Y-85600000D03*
D16*
X-187927500Y-80520000D03*
D17*
X-190467500Y-85600000D03*
%TD*%
D16*
%TO.C,K12*%
X-92677500Y-23370000D03*
X-86327500Y-25910000D03*
D17*
X-95217500Y-28450000D03*
D15*
X-90137500Y-28450000D03*
D17*
X-85057500Y-28450000D03*
%TD*%
%TO.C,K72*%
X-104107500Y-28450000D03*
D16*
X-111727500Y-23370000D03*
D15*
X-109187500Y-28450000D03*
D16*
X-105377500Y-25910000D03*
D17*
X-114267500Y-28450000D03*
%TD*%
D16*
%TO.C,K34*%
X-172052500Y-64010000D03*
X-178402500Y-61470000D03*
D17*
X-180942500Y-66550000D03*
D15*
X-175862500Y-66550000D03*
D17*
X-170782500Y-66550000D03*
%TD*%
%TO.C,K13*%
X-133317500Y-28450000D03*
D16*
X-124427500Y-25910000D03*
D17*
X-123157500Y-28450000D03*
D15*
X-128237500Y-28450000D03*
D16*
X-130777500Y-23370000D03*
%TD*%
D15*
%TO.C,K73*%
X-147287500Y-28450000D03*
D17*
X-152367500Y-28450000D03*
X-142207500Y-28450000D03*
D16*
X-143477500Y-25910000D03*
X-149827500Y-23370000D03*
%TD*%
D17*
%TO.C,K81*%
X-61245000Y-9400000D03*
D16*
X-68865000Y-4320000D03*
D15*
X-66325000Y-9400000D03*
D17*
X-71405000Y-9400000D03*
D16*
X-62515000Y-6860000D03*
%TD*%
D17*
%TO.C,K74*%
X-190467500Y-28450000D03*
D16*
X-187927500Y-23370000D03*
X-181577500Y-25910000D03*
D15*
X-185387500Y-28450000D03*
D17*
X-180307500Y-28450000D03*
%TD*%
D15*
%TO.C,K40*%
X-42512500Y-66550000D03*
D16*
X-45052500Y-61470000D03*
D17*
X-37432500Y-66550000D03*
X-47592500Y-66550000D03*
D16*
X-38702500Y-64010000D03*
%TD*%
D17*
%TO.C,K52*%
X-113632500Y-66550000D03*
D16*
X-114902500Y-64010000D03*
D17*
X-123792500Y-66550000D03*
D15*
X-118712500Y-66550000D03*
D16*
X-121252500Y-61470000D03*
%TD*%
%TO.C,K16*%
X-226027500Y-23370000D03*
X-219677500Y-25910000D03*
D17*
X-228567500Y-28450000D03*
X-218407500Y-28450000D03*
D15*
X-223487500Y-28450000D03*
%TD*%
D16*
%TO.C,K60*%
X-35527500Y-23370000D03*
D17*
X-38067500Y-28450000D03*
D15*
X-32987500Y-28450000D03*
D17*
X-27907500Y-28450000D03*
D16*
X-29177500Y-25910000D03*
%TD*%
%TO.C,K23*%
X-129190000Y-44960000D03*
D17*
X-127920000Y-47500000D03*
D15*
X-133000000Y-47500000D03*
D17*
X-138080000Y-47500000D03*
D16*
X-135540000Y-42420000D03*
%TD*%
%TO.C,K24*%
X-167290000Y-44960000D03*
D17*
X-176180000Y-47500000D03*
X-166020000Y-47500000D03*
D16*
X-173640000Y-42420000D03*
D15*
X-171100000Y-47500000D03*
%TD*%
D16*
%TO.C,K43*%
X-142556750Y-92585000D03*
X-118680750Y-92585000D03*
D17*
X-135698750Y-85600000D03*
D15*
X-130618750Y-85600000D03*
D16*
X-126808750Y-83060000D03*
D15*
X-142556750Y-77345000D03*
X-118680750Y-77345000D03*
D16*
X-133158750Y-80520000D03*
D17*
X-125538750Y-85600000D03*
%TD*%
D16*
%TO.C,K3*%
X-126015000Y-4320000D03*
D17*
X-128555000Y-9400000D03*
X-118395000Y-9400000D03*
D16*
X-119665000Y-6860000D03*
D15*
X-123475000Y-9400000D03*
%TD*%
D17*
%TO.C,K83*%
X-147605000Y-9400000D03*
X-137445000Y-9400000D03*
D16*
X-138715000Y-6860000D03*
D15*
X-142525000Y-9400000D03*
D16*
X-145065000Y-4320000D03*
%TD*%
D17*
%TO.C,K61*%
X-80930000Y-47500000D03*
D15*
X-75850000Y-47500000D03*
D16*
X-72040000Y-44960000D03*
D17*
X-70770000Y-47500000D03*
D16*
X-78390000Y-42420000D03*
%TD*%
D17*
%TO.C,K30*%
X-28542500Y-66550000D03*
D15*
X-23462500Y-66550000D03*
D16*
X-19652500Y-64010000D03*
D17*
X-18382500Y-66550000D03*
D16*
X-26002500Y-61470000D03*
%TD*%
D15*
%TO.C,K31*%
X-61562500Y-66550000D03*
D17*
X-56482500Y-66550000D03*
D16*
X-64102500Y-61470000D03*
D17*
X-66642500Y-66550000D03*
D16*
X-57752500Y-64010000D03*
%TD*%
%TO.C,K46*%
X-206977500Y-80520000D03*
D15*
X-204437500Y-85600000D03*
D17*
X-209517500Y-85600000D03*
X-199357500Y-85600000D03*
D16*
X-200627500Y-83060000D03*
%TD*%
%TO.C,K36*%
X-261619250Y-59565000D03*
D15*
X-249681250Y-66550000D03*
D17*
X-254761250Y-66550000D03*
X-244601250Y-66550000D03*
D16*
X-245871250Y-64010000D03*
X-252221250Y-61470000D03*
D15*
X-261619250Y-74805000D03*
D16*
X-237743250Y-59565000D03*
D15*
X-237743250Y-74805000D03*
%TD*%
D16*
%TO.C,K2*%
X-87915000Y-4320000D03*
X-81565000Y-6860000D03*
D17*
X-90455000Y-9400000D03*
X-80295000Y-9400000D03*
D15*
X-85375000Y-9400000D03*
%TD*%
D16*
%TO.C,K1*%
X-43465000Y-6860000D03*
X-49815000Y-4320000D03*
D17*
X-42195000Y-9400000D03*
D15*
X-47275000Y-9400000D03*
D17*
X-52355000Y-9400000D03*
%TD*%
D16*
%TO.C,K26*%
X-224440000Y-44960000D03*
X-230790000Y-42420000D03*
D15*
X-228250000Y-47500000D03*
D17*
X-233330000Y-47500000D03*
X-223170000Y-47500000D03*
%TD*%
%TO.C,K44*%
X-161257500Y-85600000D03*
D15*
X-166337500Y-85600000D03*
D16*
X-162527500Y-83060000D03*
X-168877500Y-80520000D03*
D17*
X-171417500Y-85600000D03*
%TD*%
D16*
%TO.C,K38*%
X-292702500Y-23370000D03*
D15*
X-290162500Y-28450000D03*
D16*
X-286352500Y-25910000D03*
D17*
X-285082500Y-28450000D03*
X-295242500Y-28450000D03*
%TD*%
%TO.C,K54*%
X-199992500Y-66550000D03*
X-189832500Y-66550000D03*
D16*
X-191102500Y-64010000D03*
X-197452500Y-61470000D03*
D15*
X-194912500Y-66550000D03*
%TD*%
D17*
%TO.C,K51*%
X-75532500Y-66550000D03*
X-85692500Y-66550000D03*
D16*
X-76802500Y-64010000D03*
X-83152500Y-61470000D03*
D15*
X-80612500Y-66550000D03*
%TD*%
D16*
%TO.C,K53*%
X-159352500Y-61470000D03*
D17*
X-151732500Y-66550000D03*
D16*
X-153002500Y-64010000D03*
D15*
X-156812500Y-66550000D03*
D17*
X-161892500Y-66550000D03*
%TD*%
D16*
%TO.C,K88*%
X-291115000Y-6860000D03*
D15*
X-294925000Y-9400000D03*
D17*
X-289845000Y-9400000D03*
D16*
X-297465000Y-4320000D03*
D17*
X-300005000Y-9400000D03*
%TD*%
D16*
%TO.C,K21*%
X-59340000Y-42420000D03*
D17*
X-51720000Y-47500000D03*
X-61880000Y-47500000D03*
D16*
X-52990000Y-44960000D03*
D15*
X-56800000Y-47500000D03*
%TD*%
D17*
%TO.C,K15*%
X-199357500Y-28450000D03*
D16*
X-200627500Y-25910000D03*
X-206977500Y-23370000D03*
D15*
X-204437500Y-28450000D03*
D17*
X-209517500Y-28450000D03*
%TD*%
D16*
%TO.C,K64*%
X-192690000Y-42420000D03*
D17*
X-185070000Y-47500000D03*
X-195230000Y-47500000D03*
D15*
X-190150000Y-47500000D03*
D16*
X-186340000Y-44960000D03*
%TD*%
%TO.C,K6*%
X-221265000Y-4320000D03*
D15*
X-218725000Y-9400000D03*
D16*
X-214915000Y-6860000D03*
D17*
X-223805000Y-9400000D03*
X-213645000Y-9400000D03*
%TD*%
D16*
%TO.C,K33*%
X-140302500Y-61470000D03*
D17*
X-132682500Y-66550000D03*
D15*
X-137762500Y-66550000D03*
D17*
X-142842500Y-66550000D03*
D16*
X-133952500Y-64010000D03*
%TD*%
D17*
%TO.C,K35*%
X-219042500Y-66550000D03*
D15*
X-213962500Y-66550000D03*
D17*
X-208882500Y-66550000D03*
D16*
X-210152500Y-64010000D03*
X-216502500Y-61470000D03*
%TD*%
%TO.C,K18*%
X-262540000Y-25910000D03*
X-268890000Y-23370000D03*
D17*
X-271430000Y-28450000D03*
X-261270000Y-28450000D03*
D15*
X-266350000Y-28450000D03*
%TD*%
D16*
%TO.C,K14*%
X-168877500Y-23370000D03*
D17*
X-171417500Y-28450000D03*
D15*
X-166337500Y-28450000D03*
D16*
X-162527500Y-25910000D03*
D17*
X-161257500Y-28450000D03*
%TD*%
D21*
%TO.C,SW2*%
X-225837000Y-69407500D03*
X-228837000Y-69407500D03*
%TD*%
D17*
%TO.C,K62*%
X-119030000Y-47500000D03*
D16*
X-110140000Y-44960000D03*
X-116490000Y-42420000D03*
D17*
X-108870000Y-47500000D03*
D15*
X-113950000Y-47500000D03*
%TD*%
D16*
%TO.C,K5*%
X-195865000Y-6860000D03*
D17*
X-194595000Y-9400000D03*
D16*
X-202215000Y-4320000D03*
D15*
X-199675000Y-9400000D03*
D17*
X-204755000Y-9400000D03*
%TD*%
%TO.C,K4*%
X-156495000Y-9400000D03*
D15*
X-161575000Y-9400000D03*
D16*
X-164115000Y-4320000D03*
X-157765000Y-6860000D03*
D17*
X-166655000Y-9400000D03*
%TD*%
%TO.C,K17*%
X-247617500Y-28450000D03*
D15*
X-242537500Y-28450000D03*
D16*
X-238727500Y-25910000D03*
D17*
X-237457500Y-28450000D03*
D16*
X-245077500Y-23370000D03*
%TD*%
D17*
%TO.C,K50*%
X-32670000Y-47500000D03*
X-42830000Y-47500000D03*
D16*
X-33940000Y-44960000D03*
D15*
X-37750000Y-47500000D03*
D16*
X-40290000Y-42420000D03*
%TD*%
D15*
%TO.C,K84*%
X-180625000Y-9400000D03*
D16*
X-176815000Y-6860000D03*
D17*
X-185705000Y-9400000D03*
X-175545000Y-9400000D03*
D16*
X-183165000Y-4320000D03*
%TD*%
%TO.C,K25*%
X-205390000Y-44960000D03*
X-211740000Y-42420000D03*
D17*
X-204120000Y-47500000D03*
X-214280000Y-47500000D03*
D15*
X-209200000Y-47500000D03*
%TD*%
D16*
%TO.C,K71*%
X-73627500Y-23370000D03*
D17*
X-76167500Y-28450000D03*
X-66007500Y-28450000D03*
D16*
X-67277500Y-25910000D03*
D15*
X-71087500Y-28450000D03*
%TD*%
%TO.C,K0*%
X-9175000Y-9400000D03*
D17*
X-4095000Y-9400000D03*
X-14255000Y-9400000D03*
D16*
X-11715000Y-4320000D03*
X-5365000Y-6860000D03*
%TD*%
%TO.C,K20*%
X-21240000Y-42420000D03*
D17*
X-13620000Y-47500000D03*
X-23780000Y-47500000D03*
D16*
X-14890000Y-44960000D03*
D15*
X-18700000Y-47500000D03*
%TD*%
D22*
%TO.C,SW1*%
X-106355000Y-87500000D03*
X-112655000Y-87500000D03*
X-112655000Y-83700000D03*
X-106355000Y-83700000D03*
%TD*%
M02*
