%TF.GenerationSoftware,KiCad,Pcbnew,(6.0.7-1)-1*%
%TF.CreationDate,2022-10-03T12:17:23+02:00*%
%TF.ProjectId,hedgehog-lite,68656467-6568-46f6-972d-6c6974652e6b,rev?*%
%TF.SameCoordinates,Original*%
%TF.FileFunction,Copper,L2,Bot*%
%TF.FilePolarity,Positive*%
%FSLAX46Y46*%
G04 Gerber Fmt 4.6, Leading zero omitted, Abs format (unit mm)*
G04 Created by KiCad (PCBNEW (6.0.7-1)-1) date 2022-10-03 12:17:23*
%MOMM*%
%LPD*%
G01*
G04 APERTURE LIST*
%TA.AperFunction,ComponentPad*%
%ADD10R,1.000000X1.000000*%
%TD*%
%TA.AperFunction,ComponentPad*%
%ADD11O,1.000000X1.000000*%
%TD*%
%TA.AperFunction,ComponentPad*%
%ADD12C,0.450000*%
%TD*%
%TA.AperFunction,SMDPad,CuDef*%
%ADD13R,1.700000X1.000000*%
%TD*%
%TA.AperFunction,ViaPad*%
%ADD14C,0.800000*%
%TD*%
%TA.AperFunction,Conductor*%
%ADD15C,0.254000*%
%TD*%
%TA.AperFunction,Conductor*%
%ADD16C,0.406400*%
%TD*%
%TA.AperFunction,Conductor*%
%ADD17C,0.508000*%
%TD*%
%TA.AperFunction,Conductor*%
%ADD18C,0.200000*%
%TD*%
G04 APERTURE END LIST*
D10*
%TO.P,J2,1,MISO*%
%TO.N,MISO*%
X50934000Y-107815600D03*
D11*
%TO.P,J2,2,VCC*%
%TO.N,+5V*%
X52204000Y-107815600D03*
%TO.P,J2,3,SCK*%
%TO.N,ROW8*%
X50934000Y-109085600D03*
%TO.P,J2,4,MOSI*%
%TO.N,COL0*%
X52204000Y-109085600D03*
%TO.P,J2,5,~{RST}*%
%TO.N,RST*%
X50934000Y-110355600D03*
%TO.P,J2,6,GND*%
%TO.N,GND*%
X52204000Y-110355600D03*
%TD*%
D12*
%TO.P,SW2,8*%
%TO.N,N/C*%
X123238000Y-145732500D03*
%TO.P,SW2,9*%
X126238000Y-145732500D03*
%TD*%
D13*
%TO.P,SW1,1,1*%
%TO.N,GND*%
X245720000Y-160025000D03*
X239420000Y-160025000D03*
%TO.P,SW1,2,2*%
%TO.N,RST*%
X239420000Y-163825000D03*
X245720000Y-163825000D03*
%TD*%
D14*
%TO.N,Net-(SW2-Pad1)*%
X121031000Y-143637000D03*
X118872000Y-139700000D03*
%TO.N,+5V*%
X67688000Y-137945000D03*
X81516805Y-138997605D03*
X77675000Y-137425000D03*
X81531000Y-141501000D03*
X81531000Y-146581000D03*
X74775000Y-113325000D03*
X81531000Y-152854200D03*
X74775000Y-123925000D03*
X74774600Y-109344600D03*
X73575905Y-138026095D03*
X69897800Y-137945000D03*
%TO.N,GND*%
X172971000Y-128801000D03*
X127708200Y-138554600D03*
X71375000Y-126725000D03*
X132773000Y-110325000D03*
X71120000Y-148844000D03*
X127708200Y-128801000D03*
X239392000Y-150645000D03*
X101663000Y-110325000D03*
X173037000Y-110325000D03*
X71375000Y-110325000D03*
X132712000Y-128801000D03*
X223898000Y-149883000D03*
X228470000Y-127277000D03*
X228404000Y-110325000D03*
X104391000Y-95019000D03*
X223898000Y-127277000D03*
X70482000Y-96289000D03*
%TO.N,Net-(C7-Pad1)*%
X71980600Y-132712600D03*
X74317400Y-138961000D03*
%TO.N,RST*%
X69948600Y-140383400D03*
X69900800Y-153416000D03*
X76142604Y-154870700D03*
X239265000Y-170711000D03*
X76200000Y-153586900D03*
X59359633Y-114372512D03*
X51917600Y-114350800D03*
%TO.N,ROW8*%
X51081800Y-112341800D03*
X72590200Y-138707000D03*
X212953600Y-89957500D03*
X177038000Y-90703400D03*
X163093400Y-89886500D03*
X213004400Y-86956901D03*
X61261800Y-112341800D03*
X163068000Y-76784200D03*
X49098200Y-90982800D03*
X178104800Y-89751502D03*
X49072800Y-76784200D03*
X264033000Y-84251800D03*
X264109200Y-89535000D03*
%TO.N,COL0*%
X60709900Y-113106754D03*
X71929800Y-139367400D03*
X92405200Y-78181200D03*
X56134000Y-113030000D03*
X325475000Y-121025000D03*
X327275000Y-116225000D03*
X52832000Y-77546200D03*
X94284800Y-77105500D03*
X322675000Y-135325000D03*
X332075000Y-97125000D03*
X330375000Y-102225000D03*
X335275000Y-83425000D03*
%TO.N,MISO*%
X214960200Y-90932000D03*
X150190200Y-89886500D03*
X71015400Y-139723000D03*
X261442200Y-90347800D03*
X144322800Y-83515200D03*
X252476000Y-92583000D03*
X255143000Y-90297000D03*
X262153400Y-87528400D03*
X60065851Y-113772792D03*
X149021800Y-84353400D03*
X140208000Y-87071200D03*
X49887466Y-77225477D03*
X216687400Y-90017600D03*
%TO.N,Net-(R2-Pad2)*%
X124307600Y-140919200D03*
X124307600Y-144018000D03*
%TO.N,ROW1*%
X68630800Y-145643600D03*
X269621000Y-112903000D03*
X268224000Y-108839000D03*
X62026800Y-145440400D03*
X75692000Y-109595300D03*
X62016900Y-121412000D03*
X75692000Y-121361200D03*
X62016900Y-138023600D03*
%TO.N,COL1*%
X275183600Y-153847800D03*
X97586800Y-135077200D03*
X100025200Y-135108401D03*
X292404800Y-99847400D03*
X295198800Y-81051400D03*
X275107400Y-156921200D03*
X86817200Y-138277600D03*
X287045400Y-118770400D03*
X282498800Y-150825200D03*
X86817200Y-144221200D03*
X282511499Y-135889999D03*
%TO.N,RGB*%
X85975000Y-133225000D03*
X85975000Y-139325000D03*
%TO.N,Net-(DL3-Pad2)*%
X183575000Y-128725000D03*
X205175917Y-151295099D03*
X205229000Y-148359000D03*
X183575000Y-148325000D03*
%TO.N,Net-(DL4-Pad2)*%
X226075000Y-133225000D03*
X224790000Y-148739500D03*
%TO.N,Net-(DL7-Pad2)*%
X345075000Y-128725000D03*
X345075000Y-93925000D03*
%TO.N,Net-(DL10-Pad4)*%
X259740400Y-78130400D03*
X294233600Y-93675200D03*
X294182800Y-78091700D03*
X257759200Y-88696800D03*
%TO.N,LED_PWR_P*%
X95120457Y-89405457D03*
X95300800Y-102971600D03*
X228343000Y-152931000D03*
X226819000Y-134516000D03*
X109471000Y-129563000D03*
X105892600Y-102971600D03*
%TO.N,Net-(D4-Pad2)*%
X197637400Y-90881200D03*
X197713600Y-85775800D03*
%TO.N,Net-(D5-Pad2)*%
X159842200Y-85166200D03*
X159791400Y-90855800D03*
%TO.N,Net-(D6-Pad2)*%
X147396200Y-87909400D03*
X147370800Y-89941400D03*
%TO.N,ROW3*%
X90881200Y-143510000D03*
X260400800Y-147929600D03*
X85191600Y-107950000D03*
X85191600Y-143694500D03*
X260400800Y-145463000D03*
X90830400Y-148234400D03*
%TO.N,Net-(D10-Pad2)*%
X347775000Y-102225000D03*
X347775000Y-112825000D03*
%TO.N,ROW4*%
X135890000Y-144526000D03*
X271424400Y-162864800D03*
X136956800Y-154686000D03*
X272846800Y-154533600D03*
X111353948Y-153075721D03*
X111353600Y-144695000D03*
%TO.N,ROW2*%
X76230518Y-122115126D03*
X76352400Y-114054700D03*
X62943338Y-138034500D03*
X153568400Y-127203200D03*
X190550800Y-114757200D03*
X68337814Y-146522557D03*
X286258000Y-127304800D03*
X62941200Y-146304000D03*
X286258000Y-115620800D03*
X190500000Y-129794000D03*
X153568400Y-114503200D03*
X113538000Y-115265200D03*
X113588800Y-124155200D03*
X62941200Y-122084500D03*
%TO.N,Net-(D14-Pad2)*%
X192125600Y-108762800D03*
X191516000Y-99974400D03*
%TO.N,Net-(D15-Pad2)*%
X157175200Y-102108000D03*
X157175200Y-108508800D03*
%TO.N,Net-(D16-Pad2)*%
X138328400Y-108813600D03*
X138379200Y-102260400D03*
%TO.N,Net-(D17-Pad2)*%
X115062000Y-100330000D03*
X116840000Y-108712000D03*
%TO.N,Net-(D18-Pad2)*%
X93345000Y-100076000D03*
X91059000Y-108712000D03*
%TO.N,Net-(D20-Pad2)*%
X342875000Y-121425000D03*
X342875000Y-131725000D03*
%TO.N,ROW5*%
X166776400Y-134518400D03*
X118770400Y-134511500D03*
X302717200Y-150298700D03*
X118719600Y-137769600D03*
X87477600Y-140665200D03*
X87460428Y-150749707D03*
X166725600Y-143103600D03*
X302717200Y-125838500D03*
%TO.N,ROW6*%
X306959000Y-107696000D03*
X306959000Y-129286000D03*
X63717674Y-122769126D03*
X68324911Y-147448969D03*
X63869841Y-138034500D03*
X188976000Y-127152400D03*
X76893267Y-122762560D03*
X188620400Y-115366800D03*
X77165200Y-114503200D03*
X63550800Y-147472400D03*
%TO.N,ROW7*%
X228727000Y-106934000D03*
X315595000Y-94234000D03*
X58572400Y-120548400D03*
X62433200Y-120548400D03*
X304165000Y-110998000D03*
X62433200Y-108614900D03*
X302260000Y-109220000D03*
X310388000Y-110998000D03*
X314071000Y-88519000D03*
X230124000Y-108312500D03*
X310388000Y-94234000D03*
X58521600Y-134772400D03*
%TO.N,Net-(D24-Pad2)*%
X186588400Y-119583200D03*
X187909200Y-127050800D03*
%TO.N,Net-(D25-Pad2)*%
X152450800Y-121310400D03*
X152755600Y-115519200D03*
%TO.N,Net-(D53-Pad2)*%
X200558400Y-138423100D03*
X204165200Y-146253200D03*
%TO.N,Net-(D54-Pad2)*%
X162763200Y-138430000D03*
X163830000Y-144576800D03*
%TO.N,Net-(D26-Pad2)*%
X133807200Y-121259600D03*
X133908800Y-115519200D03*
%TO.N,Net-(D64-Pad2)*%
X166014400Y-115417600D03*
X171602400Y-121310400D03*
%TO.N,Net-(D30-Pad2)*%
X336975000Y-150625000D03*
X338175000Y-140325000D03*
%TO.N,COL2*%
X258521200Y-80695800D03*
X251561600Y-156794200D03*
X253542800Y-96799400D03*
X244221000Y-150825200D03*
X83820000Y-144694500D03*
X117906800Y-127762000D03*
X251053600Y-153822400D03*
X117906800Y-134105100D03*
X244424200Y-137871200D03*
X240614200Y-153466800D03*
X240334800Y-151180800D03*
X253466600Y-99669600D03*
X83820000Y-127812800D03*
X261086600Y-93878400D03*
X249148600Y-118795800D03*
%TO.N,COL3*%
X262483600Y-91846400D03*
X207162400Y-156819600D03*
X206171800Y-137769600D03*
X215493600Y-99695000D03*
X210896200Y-118846600D03*
X262483600Y-93540450D03*
X176123600Y-153822400D03*
X215569800Y-97383600D03*
X220141800Y-80645000D03*
X176123600Y-158750000D03*
X224358200Y-93129300D03*
X119176800Y-145288000D03*
X119227600Y-152610100D03*
%TO.N,COL4*%
X108247900Y-91415645D03*
X121894600Y-101752400D03*
X168148000Y-150825200D03*
X168071800Y-137795000D03*
X118567200Y-148691600D03*
X179527200Y-153847800D03*
X202082400Y-153720800D03*
X202234800Y-150977600D03*
X173761400Y-135483600D03*
X177571400Y-156895800D03*
X132867400Y-78689200D03*
X122174000Y-97002600D03*
X148082000Y-148691600D03*
X107848400Y-97104200D03*
X118414800Y-146002000D03*
X129945355Y-91415645D03*
X177266600Y-99695000D03*
X174675800Y-116357400D03*
X148082000Y-137820400D03*
%TO.N,COL5*%
X138074400Y-147497800D03*
X146329400Y-78536800D03*
X139573000Y-99771200D03*
X108966000Y-97028000D03*
X73406000Y-155905200D03*
X140716000Y-154457400D03*
X130124200Y-147548600D03*
X130149600Y-155905200D03*
X142748000Y-93273300D03*
X108966000Y-92506800D03*
X134721600Y-118846600D03*
X130124200Y-138049000D03*
X73221300Y-149490450D03*
%TO.N,COL6*%
X120472200Y-96901000D03*
X96266000Y-139801600D03*
X96469200Y-155251700D03*
X110248484Y-96838762D03*
X115824000Y-133426200D03*
X125272800Y-80619600D03*
X74050100Y-150215600D03*
X109677200Y-93273300D03*
X74066400Y-155251700D03*
X120497600Y-99720400D03*
X115874800Y-118719600D03*
X116916200Y-153020500D03*
X125399800Y-93273300D03*
%TO.N,COL7*%
X84328000Y-118719600D03*
X108127800Y-82931000D03*
X104267000Y-97053400D03*
X99999800Y-99796600D03*
X82702400Y-151993600D03*
X99999800Y-116738400D03*
%TO.N,COL8*%
X76962000Y-99872800D03*
X76962000Y-81102200D03*
X58775600Y-102768400D03*
X68528500Y-144678500D03*
%TO.N,Net-(D51-Pad2)*%
X278942800Y-148132800D03*
X276860000Y-138277600D03*
%TO.N,Net-(D81-Pad2)*%
X293268400Y-90170000D03*
X293268400Y-85140800D03*
%TO.N,Net-(D84-Pad2)*%
X168757600Y-87944500D03*
X168757600Y-90754200D03*
%TO.N,Net-(D3-Pad2)*%
X235915200Y-80924400D03*
X235915200Y-90830400D03*
%TO.N,Net-(D34-Pad2)*%
X184404000Y-147523200D03*
X185674000Y-140411200D03*
%TO.N,Net-(D35-Pad2)*%
X135077200Y-149352000D03*
X135026400Y-140868400D03*
%TO.N,Net-(D36-Pad2)*%
X112725200Y-148183600D03*
X112776000Y-140309600D03*
%TO.N,Net-(SW2-Pad1)*%
X122021600Y-154432000D03*
X77619400Y-148257400D03*
X122018600Y-145666600D03*
X77012800Y-154432000D03*
%TO.N,Net-(R3-Pad1)*%
X75075000Y-137625000D03*
X72644000Y-116713000D03*
%TO.N,Net-(R4-Pad1)*%
X73660000Y-120777000D03*
X76075000Y-137625000D03*
%TD*%
D15*
%TO.N,Net-(SW2-Pad1)*%
X118872000Y-139700000D02*
X118872000Y-141478000D01*
X118872000Y-141478000D02*
X121031000Y-143637000D01*
D16*
%TO.N,+5V*%
X74775000Y-113325000D02*
X74775000Y-123925000D01*
X74775000Y-126725000D02*
X74775000Y-134525000D01*
X74775000Y-109345000D02*
X74774600Y-109344600D01*
X74775000Y-113325000D02*
X74775000Y-109345000D01*
X69897800Y-137945000D02*
X73494810Y-137945000D01*
D15*
X81531000Y-141501000D02*
X81531000Y-139011800D01*
X81531000Y-146581000D02*
X81531000Y-141501000D01*
D16*
X74775000Y-123925000D02*
X74775000Y-126625000D01*
X67688000Y-137945000D02*
X69897800Y-137945000D01*
X74775000Y-134525000D02*
X77675000Y-137425000D01*
X73494810Y-137945000D02*
X73575905Y-138026095D01*
D15*
X81531000Y-139011800D02*
X81516805Y-138997605D01*
X81531000Y-152854200D02*
X81531000Y-146581000D01*
D16*
%TO.N,GND*%
X104391000Y-95019000D02*
X101663000Y-97747000D01*
X228470000Y-110391000D02*
X228404000Y-110325000D01*
D15*
X127708200Y-138554600D02*
X127708200Y-128801000D01*
D16*
X70482000Y-96289000D02*
X71375000Y-97182000D01*
X223898000Y-149883000D02*
X223898000Y-127277000D01*
X172971000Y-128801000D02*
X172971000Y-110391000D01*
X132712000Y-128801000D02*
X132712000Y-110386000D01*
X71375000Y-110325000D02*
X71375000Y-126725000D01*
X239420000Y-160025000D02*
X245720000Y-160025000D01*
X101663000Y-97747000D02*
X101663000Y-110325000D01*
X71375000Y-97182000D02*
X71375000Y-110325000D01*
X172971000Y-110391000D02*
X173037000Y-110325000D01*
X132712000Y-110386000D02*
X132773000Y-110325000D01*
X239420000Y-150673000D02*
X239392000Y-150645000D01*
X239420000Y-160025000D02*
X239420000Y-150673000D01*
X228470000Y-127277000D02*
X228470000Y-110391000D01*
D15*
%TO.N,Net-(C7-Pad1)*%
X74421000Y-137843400D02*
X71980600Y-135403000D01*
X74421000Y-138857400D02*
X74421000Y-137843400D01*
X71980600Y-135403000D02*
X71980600Y-132712600D01*
X74317400Y-138961000D02*
X74421000Y-138857400D01*
%TO.N,RST*%
X239265000Y-170711000D02*
X239420000Y-170556000D01*
X69201504Y-140383400D02*
X69049104Y-140535800D01*
X69948600Y-140383400D02*
X69201504Y-140383400D01*
X76200000Y-154813304D02*
X76142604Y-154870700D01*
X69049104Y-140535800D02*
X59687000Y-140535800D01*
X59740800Y-114757200D02*
X59359633Y-114376033D01*
X76200000Y-153586900D02*
X76200000Y-154813304D01*
X51917600Y-111339200D02*
X50934000Y-110355600D01*
X239420000Y-163825000D02*
X245720000Y-163825000D01*
X51917600Y-114350800D02*
X51917600Y-111339200D01*
X69900800Y-153416000D02*
X69897800Y-140383400D01*
X59687000Y-140535800D02*
X59740800Y-114757200D01*
X59359633Y-114376033D02*
X59359633Y-114372512D01*
X239420000Y-170556000D02*
X239420000Y-163825000D01*
%TO.N,ROW8*%
X264109200Y-84328000D02*
X264033000Y-84251800D01*
X178104800Y-89751502D02*
X177989898Y-89751502D01*
X264109200Y-89535000D02*
X264109200Y-84328000D01*
X72571200Y-138688000D02*
X61363400Y-138688000D01*
X212993600Y-89917500D02*
X212953600Y-89957500D01*
X48846600Y-112341800D02*
X48844200Y-112344200D01*
X61363400Y-138688000D02*
X61363400Y-112443400D01*
X213004400Y-86956901D02*
X213004400Y-87583000D01*
X177989898Y-89751502D02*
X177038000Y-90703400D01*
X163093400Y-89886500D02*
X163093400Y-76809600D01*
X48844200Y-91236800D02*
X49098200Y-90982800D01*
X49072800Y-76784200D02*
X49072800Y-90957400D01*
X51081800Y-112341800D02*
X48846600Y-112341800D01*
X49072800Y-90957400D02*
X49098200Y-90982800D01*
X212993600Y-87593800D02*
X212993600Y-89917500D01*
X213004400Y-87583000D02*
X212993600Y-87593800D01*
X61363400Y-112443400D02*
X61261800Y-112341800D01*
X163093400Y-76809600D02*
X163068000Y-76784200D01*
X72590200Y-138707000D02*
X72571200Y-138688000D01*
X48844200Y-112344200D02*
X48844200Y-91236800D01*
X212993600Y-87336000D02*
X212993600Y-87593800D01*
%TO.N,COL0*%
X94284800Y-77105500D02*
X93480900Y-77105500D01*
X52204000Y-109085600D02*
X56019000Y-112900600D01*
X330375000Y-113125000D02*
X327275000Y-116225000D01*
X71631400Y-139069000D02*
X60861800Y-139069000D01*
X71929800Y-139367400D02*
X71631400Y-139069000D01*
X52204000Y-109085600D02*
X53365400Y-107924200D01*
X56019000Y-112900600D02*
X56019000Y-112915000D01*
X335275000Y-83425000D02*
X335275000Y-93925000D01*
X335275000Y-93925000D02*
X332075000Y-97125000D01*
X93480900Y-77105500D02*
X92405200Y-78181200D01*
X60855400Y-139062600D02*
X60858323Y-113842877D01*
X56019000Y-112915000D02*
X56134000Y-113030000D01*
X60861800Y-139069000D02*
X60855400Y-139062600D01*
X53365400Y-84788556D02*
X52704999Y-84128155D01*
X52704999Y-77673201D02*
X52832000Y-77546200D01*
X325475000Y-132525000D02*
X322675000Y-135325000D01*
X330375000Y-102225000D02*
X330375000Y-113125000D01*
X60858323Y-113842877D02*
X60858400Y-113182400D01*
X53365400Y-107924200D02*
X53365400Y-84788556D01*
X325475000Y-121025000D02*
X325475000Y-132525000D01*
X52704999Y-84128155D02*
X52704999Y-77673201D01*
%TO.N,MISO*%
X262153400Y-87528400D02*
X261442200Y-88239600D01*
X49887466Y-77225477D02*
X49758600Y-77354343D01*
X149021800Y-88718100D02*
X149021800Y-84353400D01*
X140766800Y-87071200D02*
X140208000Y-87071200D01*
X150190200Y-89886500D02*
X149021800Y-88718100D01*
X49758600Y-77354343D02*
X49758600Y-91922600D01*
X49225200Y-104495600D02*
X49225200Y-106959400D01*
X71015400Y-139723000D02*
X60347400Y-139723000D01*
X49250600Y-104470200D02*
X49225200Y-104495600D01*
X255143000Y-90297000D02*
X252857000Y-92583000D01*
X60065851Y-113772792D02*
X60350400Y-114057341D01*
X252857000Y-92583000D02*
X252476000Y-92583000D01*
X49250600Y-92430600D02*
X49250600Y-104470200D01*
X60350400Y-114057341D02*
X60350400Y-114554000D01*
X60347400Y-139723000D02*
X60350400Y-114554000D01*
X49225200Y-106959400D02*
X50081400Y-107815600D01*
X216687400Y-90017600D02*
X215874600Y-90017600D01*
X50081400Y-107815600D02*
X50934000Y-107815600D01*
X261442200Y-88239600D02*
X261442200Y-90347800D01*
X215874600Y-90017600D02*
X214960200Y-90932000D01*
X49758600Y-91922600D02*
X49250600Y-92430600D01*
X144322800Y-83515200D02*
X140766800Y-87071200D01*
%TO.N,Net-(R2-Pad2)*%
X124307600Y-144018000D02*
X124307600Y-140919200D01*
%TO.N,ROW1*%
X269621000Y-110236000D02*
X268224000Y-108839000D01*
X68630800Y-145643600D02*
X62230000Y-145643600D01*
X269621000Y-112903000D02*
X269621000Y-110236000D01*
X75692000Y-109595300D02*
X75692000Y-121361200D01*
X62230000Y-145643600D02*
X62026800Y-145440400D01*
X62016900Y-121412000D02*
X62016900Y-138023600D01*
%TO.N,COL1*%
X86817200Y-138277600D02*
X86817200Y-144221200D01*
X292404800Y-113411000D02*
X287045400Y-118770400D01*
X100025200Y-135108401D02*
X97618001Y-135108401D01*
X287045400Y-131356098D02*
X282511499Y-135889999D01*
X275183600Y-153847800D02*
X275183600Y-156845000D01*
X287045400Y-118770400D02*
X287045400Y-131356098D01*
X282511499Y-135889999D02*
X282511499Y-150761699D01*
X295198800Y-97053400D02*
X292404800Y-99847400D01*
X97618001Y-135108401D02*
X97586800Y-135077200D01*
X292404800Y-99847400D02*
X292404800Y-113411000D01*
X275183600Y-156845000D02*
X275107400Y-156921200D01*
X295198800Y-81051400D02*
X295198800Y-97053400D01*
%TO.N,RGB*%
X85975000Y-139325000D02*
X85975000Y-133225000D01*
%TO.N,Net-(DL3-Pad2)*%
X183575000Y-148325000D02*
X183575000Y-128725000D01*
X205229000Y-151242016D02*
X205175917Y-151295099D01*
X205229000Y-148359000D02*
X205229000Y-151242016D01*
%TO.N,Net-(DL4-Pad2)*%
X224790000Y-148739500D02*
X226075000Y-147454500D01*
X226075000Y-147454500D02*
X226075000Y-133225000D01*
%TO.N,Net-(DL7-Pad2)*%
X345075000Y-128725000D02*
X345075000Y-93925000D01*
%TO.N,Net-(DL10-Pad4)*%
X257759200Y-80111600D02*
X259740400Y-78130400D01*
X294182800Y-78091700D02*
X294182800Y-93624400D01*
X257759200Y-88696800D02*
X257759200Y-80111600D01*
X294182800Y-93624400D02*
X294233600Y-93675200D01*
D17*
%TO.N,LED_PWR_P*%
X226819000Y-144422000D02*
X226819000Y-134516000D01*
X109471000Y-129563000D02*
X107035599Y-127127599D01*
X228343000Y-145946000D02*
X227581000Y-145184000D01*
X107035599Y-103509547D02*
X106497652Y-102971600D01*
X107035599Y-109138401D02*
X107035599Y-103509547D01*
X106497652Y-102971600D02*
X105892600Y-102971600D01*
X95300800Y-102971600D02*
X95120457Y-102791257D01*
X227581000Y-145184000D02*
X226819000Y-144422000D01*
X107035599Y-127127599D02*
X107035599Y-109138401D01*
X95120457Y-102791257D02*
X95120457Y-89405457D01*
X228343000Y-152931000D02*
X228343000Y-145946000D01*
D15*
%TO.N,Net-(D4-Pad2)*%
X197637400Y-90881200D02*
X197637400Y-85852000D01*
X197637400Y-85852000D02*
X197713600Y-85775800D01*
%TO.N,Net-(D5-Pad2)*%
X159791400Y-90855800D02*
X159791400Y-85217000D01*
X159791400Y-85217000D02*
X159842200Y-85166200D01*
%TO.N,Net-(D6-Pad2)*%
X147370800Y-87934800D02*
X147396200Y-87909400D01*
X147370800Y-89941400D02*
X147370800Y-87934800D01*
%TO.N,ROW3*%
X90830400Y-143560800D02*
X90881200Y-143510000D01*
X260400800Y-145463000D02*
X260400800Y-147929600D01*
X85191600Y-107950000D02*
X85191600Y-143694500D01*
X90830400Y-148234400D02*
X90830400Y-143560800D01*
%TO.N,Net-(D10-Pad2)*%
X347775000Y-102225000D02*
X347775000Y-112825000D01*
%TO.N,ROW4*%
X136956800Y-145592800D02*
X135890000Y-144526000D01*
X271424400Y-155956000D02*
X271424400Y-162864800D01*
X136956800Y-154686000D02*
X136956800Y-145592800D01*
X111353600Y-144695000D02*
X111353600Y-153075373D01*
X272846800Y-154533600D02*
X271424400Y-155956000D01*
X111353600Y-153075373D02*
X111353948Y-153075721D01*
%TO.N,ROW2*%
X190550800Y-114757200D02*
X190550800Y-129743200D01*
X113588800Y-124155200D02*
X113588800Y-115316000D01*
X286258000Y-127304800D02*
X286258000Y-115620800D01*
X68119257Y-146304000D02*
X68337814Y-146522557D01*
X113588800Y-115316000D02*
X113538000Y-115265200D01*
X62943338Y-122319965D02*
X62943338Y-138034500D01*
X153568400Y-127203200D02*
X153568400Y-114503200D01*
X62941200Y-146304000D02*
X68119257Y-146304000D01*
X62941200Y-122084500D02*
X62943338Y-122319965D01*
X76352400Y-121993244D02*
X76230518Y-122115126D01*
X76352400Y-114054700D02*
X76352400Y-121993244D01*
X190550800Y-129743200D02*
X190500000Y-129794000D01*
%TO.N,Net-(D14-Pad2)*%
X192125600Y-100584000D02*
X191516000Y-99974400D01*
X192125600Y-108762800D02*
X192125600Y-100584000D01*
%TO.N,Net-(D15-Pad2)*%
X157175200Y-108508800D02*
X157175200Y-102108000D01*
%TO.N,Net-(D16-Pad2)*%
X138328400Y-102311200D02*
X138379200Y-102260400D01*
X138328400Y-108813600D02*
X138328400Y-102311200D01*
%TO.N,Net-(D17-Pad2)*%
X116840000Y-108712000D02*
X116840000Y-102108000D01*
X116840000Y-102108000D02*
X115062000Y-100330000D01*
%TO.N,Net-(D18-Pad2)*%
X91059000Y-108712000D02*
X93345000Y-106426000D01*
X93345000Y-106426000D02*
X93345000Y-100076000D01*
%TO.N,Net-(D20-Pad2)*%
X342875000Y-121425000D02*
X342875000Y-131725000D01*
%TO.N,ROW5*%
X87477600Y-140665200D02*
X87477600Y-150732535D01*
X166725600Y-134569200D02*
X166776400Y-134518400D01*
X118770400Y-134511500D02*
X118719600Y-134562300D01*
X87477600Y-150732535D02*
X87460428Y-150749707D01*
X166725600Y-143103600D02*
X166725600Y-134569200D01*
X118719600Y-134562300D02*
X118719600Y-137769600D01*
X302717200Y-125838500D02*
X302717200Y-150298700D01*
%TO.N,ROW6*%
X77165200Y-114503200D02*
X76893267Y-114775133D01*
X188976000Y-127152400D02*
X188976000Y-115722400D01*
X63869841Y-122921293D02*
X63869841Y-138034500D01*
X63550800Y-147472400D02*
X68301480Y-147472400D01*
X63717674Y-122769126D02*
X63869841Y-122921293D01*
X188976000Y-115722400D02*
X188620400Y-115366800D01*
X68301480Y-147472400D02*
X68324911Y-147448969D01*
X306959000Y-107696000D02*
X306959000Y-129286000D01*
X76893267Y-114775133D02*
X76893267Y-122762560D01*
%TO.N,ROW7*%
X58572400Y-120548400D02*
X58572400Y-134721600D01*
X302260000Y-109220000D02*
X304038000Y-110998000D01*
X315595000Y-90043000D02*
X314071000Y-88519000D01*
X62433200Y-108614900D02*
X62433200Y-120548400D01*
X304038000Y-110998000D02*
X304165000Y-110998000D01*
X228727000Y-106934000D02*
X228745500Y-106934000D01*
X58572400Y-134721600D02*
X58521600Y-134772400D01*
X315595000Y-94234000D02*
X315595000Y-90043000D01*
X228745500Y-106934000D02*
X230124000Y-108312500D01*
X310388000Y-110998000D02*
X310388000Y-94234000D01*
%TO.N,Net-(D24-Pad2)*%
X187909200Y-120904000D02*
X186588400Y-119583200D01*
X187909200Y-127050800D02*
X187909200Y-120904000D01*
%TO.N,Net-(D25-Pad2)*%
X152450800Y-115824000D02*
X152450800Y-121310400D01*
X152755600Y-115519200D02*
X152450800Y-115824000D01*
%TO.N,Net-(D53-Pad2)*%
X204165200Y-146253200D02*
X204165200Y-142029900D01*
X204165200Y-142029900D02*
X200558400Y-138423100D01*
%TO.N,Net-(D54-Pad2)*%
X163830000Y-144576800D02*
X163830000Y-139496800D01*
X163830000Y-139496800D02*
X162763200Y-138430000D01*
%TO.N,Net-(D26-Pad2)*%
X133908800Y-121158000D02*
X133807200Y-121259600D01*
X133908800Y-115519200D02*
X133908800Y-121158000D01*
%TO.N,Net-(D64-Pad2)*%
X166014400Y-115722400D02*
X166014400Y-115417600D01*
X171602400Y-121310400D02*
X166014400Y-115722400D01*
%TO.N,Net-(D30-Pad2)*%
X336975000Y-141525000D02*
X336975000Y-150625000D01*
X338175000Y-140325000D02*
X336975000Y-141525000D01*
%TO.N,COL2*%
X244221000Y-138074400D02*
X244221000Y-150825200D01*
X249148600Y-133146800D02*
X244424200Y-137871200D01*
X258521200Y-80695800D02*
X258521200Y-91211400D01*
X251053600Y-153822400D02*
X251053600Y-156286200D01*
X83820000Y-127812800D02*
X83820000Y-144694500D01*
X117906800Y-134105100D02*
X117906800Y-127762000D01*
X240334800Y-153187400D02*
X240614200Y-153466800D01*
X253466600Y-99669600D02*
X253466600Y-114477800D01*
X244424200Y-137871200D02*
X244221000Y-138074400D01*
X253466600Y-114477800D02*
X249148600Y-118795800D01*
X258521200Y-91211400D02*
X261086600Y-93776800D01*
X253542800Y-99593400D02*
X253466600Y-99669600D01*
X251053600Y-156286200D02*
X251561600Y-156794200D01*
X253542800Y-96799400D02*
X253542800Y-99593400D01*
X240334800Y-151180800D02*
X240334800Y-153187400D01*
X249148600Y-118795800D02*
X249148600Y-133146800D01*
%TO.N,COL3*%
X206171800Y-155829000D02*
X207162400Y-156819600D01*
X262483600Y-91846400D02*
X262483600Y-93540450D01*
X215493600Y-99695000D02*
X215493600Y-114249200D01*
X215569800Y-99618800D02*
X215493600Y-99695000D01*
X119227600Y-152610100D02*
X119227600Y-145338800D01*
X210896200Y-118846600D02*
X210896200Y-133045200D01*
X176123600Y-158750000D02*
X176123600Y-153822400D01*
X220141800Y-80645000D02*
X220141800Y-88912900D01*
X220141800Y-88912900D02*
X224358200Y-93129300D01*
X215493600Y-114249200D02*
X210896200Y-118846600D01*
X215569800Y-97383600D02*
X215569800Y-99618800D01*
X119227600Y-145338800D02*
X119176800Y-145288000D01*
X206171800Y-137769600D02*
X206171800Y-155829000D01*
X210896200Y-133045200D02*
X206171800Y-137769600D01*
%TO.N,COL4*%
X122174000Y-97002600D02*
X122174000Y-101473000D01*
X168071800Y-150749000D02*
X168148000Y-150825200D01*
X202234800Y-150977600D02*
X202234800Y-153568400D01*
X129945355Y-85168511D02*
X129945355Y-91415645D01*
X132867400Y-78689200D02*
X132842000Y-82271866D01*
X202234800Y-153568400D02*
X202082400Y-153720800D01*
X122174000Y-101473000D02*
X121894600Y-101752400D01*
X148082000Y-148691600D02*
X148082000Y-137820400D01*
X118567200Y-146154400D02*
X118414800Y-146002000D01*
X107848400Y-97104200D02*
X108247900Y-96704700D01*
X177266600Y-99695000D02*
X177266600Y-113766600D01*
X179527200Y-153847800D02*
X177571400Y-155803600D01*
X177571400Y-155803600D02*
X177571400Y-156895800D01*
X118567200Y-148691600D02*
X118567200Y-146154400D01*
X132842000Y-82271866D02*
X129945355Y-85168511D01*
X108247900Y-96704700D02*
X108247900Y-91415645D01*
X177266600Y-113766600D02*
X174675800Y-116357400D01*
X173761400Y-117271800D02*
X173761400Y-135483600D01*
X168071800Y-137795000D02*
X168071800Y-150749000D01*
X174675800Y-116357400D02*
X173761400Y-117271800D01*
%TO.N,COL5*%
X138074400Y-147497800D02*
X138074400Y-152421885D01*
X130124200Y-138049000D02*
X130124200Y-147548600D01*
X145067560Y-90953740D02*
X142748000Y-93273300D01*
X146329400Y-78536800D02*
X145067560Y-79798640D01*
X130149600Y-147574000D02*
X130124200Y-147548600D01*
X139573000Y-114350800D02*
X139573000Y-99771200D01*
X73221300Y-149490450D02*
X73396600Y-149665750D01*
X73396600Y-155895800D02*
X73406000Y-155905200D01*
X108966000Y-92506800D02*
X108966000Y-97028000D01*
X138074400Y-152421885D02*
X140109915Y-154457400D01*
X134721600Y-133451600D02*
X130124200Y-138049000D01*
X73396600Y-149665750D02*
X73396600Y-155895800D01*
X140109915Y-154457400D02*
X140716000Y-154457400D01*
X130149600Y-155905200D02*
X130149600Y-147574000D01*
X145067560Y-79798640D02*
X145067560Y-90953740D01*
X134721600Y-118846600D02*
X139573000Y-114350800D01*
X134721600Y-118846600D02*
X134721600Y-133451600D01*
%TO.N,COL6*%
X125272800Y-93146300D02*
X125399800Y-93273300D01*
X95961200Y-152450800D02*
X96469200Y-152958800D01*
X120472200Y-99695000D02*
X120497600Y-99720400D01*
X109677200Y-96267478D02*
X110248484Y-96838762D01*
X96469200Y-152958800D02*
X96469200Y-155251700D01*
X74050100Y-150215600D02*
X74066400Y-150231900D01*
X115874800Y-118719600D02*
X115874800Y-133375400D01*
X96266000Y-139801600D02*
X95961200Y-140106400D01*
X116916200Y-153020500D02*
X116916200Y-134518400D01*
X120472200Y-96901000D02*
X120472200Y-99695000D01*
X109677200Y-93273300D02*
X109677200Y-96267478D01*
X95961200Y-140106400D02*
X95961200Y-152450800D01*
X116916200Y-134518400D02*
X115824000Y-133426200D01*
X74066400Y-150231900D02*
X74066400Y-155251700D01*
X125272800Y-80619600D02*
X125272800Y-93146300D01*
X120497600Y-114096800D02*
X115874800Y-118719600D01*
X120497600Y-99720400D02*
X120497600Y-114096800D01*
X115874800Y-133375400D02*
X115824000Y-133426200D01*
%TO.N,COL7*%
X83314802Y-131225551D02*
X83314802Y-144274802D01*
X108127800Y-82931000D02*
X107594400Y-83464400D01*
X83007200Y-120040400D02*
X83007200Y-130917949D01*
X107594400Y-83464400D02*
X107594400Y-89433400D01*
X99999800Y-99796600D02*
X99999800Y-116738400D01*
X83007200Y-130917949D02*
X83314802Y-131225551D01*
X82702400Y-144887204D02*
X82702400Y-151993600D01*
X84328000Y-118719600D02*
X83007200Y-120040400D01*
X107594400Y-89433400D02*
X107594400Y-93726000D01*
X107594400Y-93726000D02*
X104267000Y-97053400D01*
X83314802Y-144274802D02*
X82702400Y-144887204D01*
%TO.N,COL8*%
X68528500Y-144678500D02*
X63753900Y-144678500D01*
X76962000Y-99872800D02*
X76962000Y-81102200D01*
X59531585Y-140919200D02*
X63500000Y-140919200D01*
X58705633Y-102838367D02*
X58705633Y-115069873D01*
X58705633Y-115069873D02*
X59357785Y-115722025D01*
X59305672Y-140693287D02*
X59531585Y-140919200D01*
X63500000Y-140919200D02*
X63703200Y-141122400D01*
X63703200Y-141122400D02*
X63703200Y-144729200D01*
X59357785Y-115722025D02*
X59305672Y-140693287D01*
X58775600Y-102768400D02*
X58705633Y-102838367D01*
%TO.N,Net-(D51-Pad2)*%
X278942800Y-148132800D02*
X278942800Y-140360400D01*
X278942800Y-140360400D02*
X276860000Y-138277600D01*
%TO.N,Net-(D81-Pad2)*%
X293268400Y-90170000D02*
X293268400Y-85140800D01*
%TO.N,Net-(D84-Pad2)*%
X168757600Y-90754200D02*
X168757600Y-87944500D01*
%TO.N,Net-(D3-Pad2)*%
X235915200Y-90830400D02*
X235915200Y-80924400D01*
%TO.N,Net-(D34-Pad2)*%
X184404000Y-147523200D02*
X184404000Y-141681200D01*
X184404000Y-141681200D02*
X185674000Y-140411200D01*
%TO.N,Net-(D35-Pad2)*%
X135077200Y-149352000D02*
X135077200Y-140919200D01*
X135077200Y-140919200D02*
X135026400Y-140868400D01*
%TO.N,Net-(D36-Pad2)*%
X112725200Y-140360400D02*
X112776000Y-140309600D01*
X112725200Y-148183600D02*
X112725200Y-140360400D01*
%TO.N,Net-(SW2-Pad1)*%
X77060600Y-148816200D02*
X77619400Y-148257400D01*
X122018600Y-145666600D02*
X122021600Y-154432000D01*
X77012800Y-154432000D02*
X77060600Y-148816200D01*
D18*
%TO.N,Net-(R3-Pad1)*%
X72675000Y-135225000D02*
X75075000Y-137625000D01*
D15*
X72644000Y-135194000D02*
X72675000Y-135225000D01*
X72644000Y-116713000D02*
X72644000Y-135194000D01*
%TO.N,Net-(R4-Pad1)*%
X73660000Y-120777000D02*
X73660000Y-134747000D01*
D18*
X76075000Y-137162000D02*
X73660000Y-134747000D01*
X76075000Y-137625000D02*
X76075000Y-137162000D01*
%TD*%
%TA.AperFunction,Conductor*%
%TO.N,GND*%
G36*
X84561037Y-106698914D02*
G01*
X84663525Y-106762460D01*
X84663536Y-106762466D01*
X84667078Y-106764662D01*
X84939517Y-106887101D01*
X85069370Y-106925812D01*
X85221757Y-106971241D01*
X85221759Y-106971242D01*
X85225756Y-106972433D01*
X85229876Y-106973086D01*
X85229878Y-106973086D01*
X85348610Y-106991891D01*
X85520766Y-107019158D01*
X85563060Y-107021079D01*
X85612765Y-107023336D01*
X85612784Y-107023336D01*
X85614184Y-107023400D01*
X85800761Y-107023400D01*
X86023031Y-107008637D01*
X86027125Y-107007812D01*
X86027129Y-107007811D01*
X86239019Y-106965086D01*
X86315825Y-106949599D01*
X86598240Y-106852356D01*
X86601983Y-106850482D01*
X86601987Y-106850480D01*
X86861569Y-106720491D01*
X86861571Y-106720490D01*
X86865313Y-106718616D01*
X86890077Y-106701786D01*
X86960897Y-106680000D01*
X92390972Y-106680000D01*
X92459093Y-106700002D01*
X92505586Y-106753658D01*
X92515690Y-106823932D01*
X92486196Y-106888512D01*
X92480067Y-106895095D01*
X91245943Y-108129219D01*
X91183631Y-108163245D01*
X91140403Y-108165046D01*
X91059000Y-108154329D01*
X91050812Y-108155407D01*
X90922850Y-108172253D01*
X90922848Y-108172254D01*
X90914664Y-108173331D01*
X90907037Y-108176490D01*
X90907038Y-108176490D01*
X90787793Y-108225883D01*
X90787791Y-108225884D01*
X90780165Y-108229043D01*
X90664667Y-108317667D01*
X90576043Y-108433165D01*
X90572884Y-108440791D01*
X90572883Y-108440793D01*
X90557714Y-108477414D01*
X90520331Y-108567664D01*
X90519254Y-108575848D01*
X90519253Y-108575850D01*
X90507959Y-108661638D01*
X90501329Y-108712000D01*
X90502407Y-108720188D01*
X90519235Y-108848009D01*
X90520331Y-108856336D01*
X90523490Y-108863962D01*
X90562416Y-108957936D01*
X90576043Y-108990835D01*
X90664667Y-109106333D01*
X90780164Y-109194957D01*
X90914664Y-109250669D01*
X91059000Y-109269671D01*
X91067188Y-109268593D01*
X91195148Y-109251747D01*
X91203336Y-109250669D01*
X91337836Y-109194957D01*
X91453333Y-109106333D01*
X91541957Y-108990835D01*
X91555585Y-108957936D01*
X91594510Y-108863962D01*
X91597669Y-108856336D01*
X91598766Y-108848009D01*
X91615593Y-108720188D01*
X91616671Y-108712000D01*
X91605954Y-108630598D01*
X91616893Y-108560450D01*
X91641781Y-108525057D01*
X93449934Y-106716905D01*
X93512246Y-106682879D01*
X93539029Y-106680000D01*
X99593900Y-106680000D01*
X99662021Y-106700002D01*
X99708514Y-106753658D01*
X99719900Y-106806000D01*
X99719900Y-116079000D01*
X99699898Y-116147121D01*
X99646242Y-116193614D01*
X99593900Y-116205000D01*
X85597500Y-116205000D01*
X85529379Y-116184998D01*
X85482886Y-116131342D01*
X85471500Y-116079000D01*
X85471500Y-108494277D01*
X85491502Y-108426156D01*
X85520794Y-108394316D01*
X85585933Y-108344333D01*
X85595812Y-108331459D01*
X85644746Y-108267686D01*
X85674557Y-108228835D01*
X85678829Y-108218523D01*
X85727110Y-108101962D01*
X85730269Y-108094336D01*
X85738257Y-108033665D01*
X85748193Y-107958188D01*
X85749271Y-107950000D01*
X85730269Y-107805664D01*
X85674557Y-107671165D01*
X85585933Y-107555667D01*
X85470436Y-107467043D01*
X85335936Y-107411331D01*
X85191600Y-107392329D01*
X85183412Y-107393407D01*
X85055450Y-107410253D01*
X85055448Y-107410254D01*
X85047264Y-107411331D01*
X85033682Y-107416957D01*
X84920393Y-107463883D01*
X84920391Y-107463884D01*
X84912765Y-107467043D01*
X84797267Y-107555667D01*
X84708643Y-107671165D01*
X84652931Y-107805664D01*
X84633929Y-107950000D01*
X84635007Y-107958188D01*
X84644944Y-108033665D01*
X84652931Y-108094336D01*
X84656090Y-108101962D01*
X84704372Y-108218523D01*
X84708643Y-108228835D01*
X84738454Y-108267686D01*
X84787389Y-108331459D01*
X84797267Y-108344333D01*
X84862406Y-108394316D01*
X84904272Y-108451653D01*
X84911700Y-108494277D01*
X84911700Y-118215070D01*
X84891698Y-118283191D01*
X84838042Y-118329684D01*
X84767768Y-118339788D01*
X84708996Y-118315033D01*
X84671239Y-118286061D01*
X84606836Y-118236643D01*
X84472336Y-118180931D01*
X84328000Y-118161929D01*
X84319812Y-118163007D01*
X84191850Y-118179853D01*
X84191848Y-118179854D01*
X84183664Y-118180931D01*
X84136549Y-118200447D01*
X84056793Y-118233483D01*
X84056791Y-118233484D01*
X84049165Y-118236643D01*
X83933667Y-118325267D01*
X83845043Y-118440765D01*
X83841884Y-118448391D01*
X83841883Y-118448393D01*
X83808847Y-118528149D01*
X83789331Y-118575264D01*
X83788254Y-118583448D01*
X83788253Y-118583450D01*
X83783639Y-118618500D01*
X83770329Y-118719600D01*
X83771407Y-118727787D01*
X83781046Y-118801001D01*
X83770107Y-118871150D01*
X83745219Y-118906543D01*
X82843520Y-119808242D01*
X82841976Y-119809575D01*
X82837426Y-119811799D01*
X82829514Y-119820328D01*
X82829513Y-119820329D01*
X82806507Y-119845130D01*
X82803227Y-119848535D01*
X82790874Y-119860888D01*
X82788281Y-119864667D01*
X82786466Y-119866734D01*
X82766513Y-119888244D01*
X82762201Y-119899052D01*
X82758433Y-119905012D01*
X82756308Y-119908991D01*
X82753449Y-119915442D01*
X82746868Y-119925036D01*
X82744182Y-119936356D01*
X82741713Y-119946760D01*
X82736148Y-119964356D01*
X82727875Y-119985092D01*
X82727300Y-119990956D01*
X82727300Y-119994044D01*
X82727150Y-119997107D01*
X82726792Y-119997090D01*
X82726036Y-120003551D01*
X82726047Y-120003552D01*
X82725479Y-120015168D01*
X82722792Y-120026490D01*
X82724361Y-120038019D01*
X82724361Y-120038020D01*
X82726149Y-120051157D01*
X82727300Y-120068148D01*
X82727300Y-130389799D01*
X82707298Y-130457920D01*
X82653642Y-130504413D01*
X82583368Y-130514517D01*
X82518788Y-130485023D01*
X82509150Y-130475731D01*
X82476184Y-130440380D01*
X82473330Y-130437319D01*
X82470101Y-130434666D01*
X82470096Y-130434662D01*
X82245756Y-130250387D01*
X82242525Y-130247733D01*
X81988672Y-130090338D01*
X81716233Y-129967899D01*
X81543417Y-129916380D01*
X81433993Y-129883759D01*
X81433991Y-129883758D01*
X81429994Y-129882567D01*
X81425874Y-129881914D01*
X81425872Y-129881914D01*
X81307140Y-129863109D01*
X81134984Y-129835842D01*
X81092690Y-129833921D01*
X81042985Y-129831664D01*
X81042966Y-129831664D01*
X81041566Y-129831600D01*
X80854989Y-129831600D01*
X80632719Y-129846363D01*
X80628625Y-129847188D01*
X80628621Y-129847189D01*
X80416731Y-129889914D01*
X80339925Y-129905401D01*
X80057510Y-130002644D01*
X80053767Y-130004518D01*
X80053763Y-130004520D01*
X79859761Y-130101669D01*
X79790437Y-130136384D01*
X79543399Y-130304271D01*
X79540285Y-130307055D01*
X79540284Y-130307056D01*
X79351631Y-130475731D01*
X79320734Y-130503356D01*
X79126356Y-130730141D01*
X79124082Y-130733643D01*
X79055717Y-130838916D01*
X78963679Y-130980641D01*
X78961885Y-130984419D01*
X78961884Y-130984421D01*
X78876877Y-131163447D01*
X78835562Y-131250456D01*
X78744255Y-131534845D01*
X78691362Y-131828812D01*
X78677812Y-132127192D01*
X78678175Y-132131340D01*
X78678175Y-132131344D01*
X78687215Y-132234670D01*
X78703845Y-132424743D01*
X78704755Y-132428816D01*
X78704756Y-132428820D01*
X78766358Y-132704412D01*
X78769001Y-132716237D01*
X78770442Y-132720155D01*
X78770444Y-132720160D01*
X78811103Y-132830667D01*
X78872137Y-132996553D01*
X78874088Y-133000253D01*
X78874090Y-133000258D01*
X78999829Y-133238743D01*
X79011441Y-133260767D01*
X79184465Y-133504235D01*
X79388170Y-133722681D01*
X79391399Y-133725334D01*
X79391404Y-133725338D01*
X79514275Y-133826265D01*
X79618975Y-133912267D01*
X79872828Y-134069662D01*
X80145267Y-134192101D01*
X80167326Y-134198677D01*
X80427507Y-134276241D01*
X80427509Y-134276242D01*
X80431506Y-134277433D01*
X80435626Y-134278086D01*
X80435628Y-134278086D01*
X80507334Y-134289443D01*
X80726516Y-134324158D01*
X80768810Y-134326079D01*
X80818515Y-134328336D01*
X80818534Y-134328336D01*
X80819934Y-134328400D01*
X81006511Y-134328400D01*
X81228781Y-134313637D01*
X81232875Y-134312812D01*
X81232879Y-134312811D01*
X81450938Y-134268842D01*
X81521575Y-134254599D01*
X81803990Y-134157356D01*
X81807733Y-134155482D01*
X81807737Y-134155480D01*
X82067325Y-134025488D01*
X82067327Y-134025487D01*
X82071063Y-134023616D01*
X82318101Y-133855729D01*
X82466908Y-133722681D01*
X82537649Y-133659431D01*
X82537650Y-133659430D01*
X82540766Y-133656644D01*
X82735144Y-133429859D01*
X82803230Y-133325016D01*
X82857106Y-133278779D01*
X82927427Y-133269010D01*
X82991867Y-133298810D01*
X83029966Y-133358719D01*
X83034902Y-133393641D01*
X83034902Y-144106674D01*
X83014900Y-144174795D01*
X82997997Y-144195769D01*
X82538720Y-144655046D01*
X82537176Y-144656379D01*
X82532626Y-144658603D01*
X82524714Y-144667132D01*
X82524713Y-144667133D01*
X82501707Y-144691934D01*
X82498427Y-144695339D01*
X82486074Y-144707692D01*
X82483481Y-144711471D01*
X82481666Y-144713538D01*
X82461713Y-144735048D01*
X82457401Y-144745856D01*
X82453633Y-144751816D01*
X82451508Y-144755795D01*
X82448649Y-144762246D01*
X82442068Y-144771840D01*
X82439382Y-144783160D01*
X82436913Y-144793564D01*
X82431348Y-144811160D01*
X82423075Y-144831896D01*
X82422500Y-144837760D01*
X82422500Y-144840848D01*
X82422350Y-144843911D01*
X82421992Y-144843894D01*
X82421236Y-144850355D01*
X82421247Y-144850356D01*
X82420679Y-144861972D01*
X82417992Y-144873294D01*
X82419561Y-144884823D01*
X82419561Y-144884824D01*
X82421349Y-144897961D01*
X82422500Y-144914952D01*
X82422500Y-149734000D01*
X82402498Y-149802121D01*
X82348842Y-149848614D01*
X82296500Y-149860000D01*
X81936900Y-149860000D01*
X81868779Y-149839998D01*
X81822286Y-149786342D01*
X81810900Y-149734000D01*
X81810900Y-147125277D01*
X81830902Y-147057156D01*
X81860194Y-147025316D01*
X81925333Y-146975333D01*
X82013957Y-146859835D01*
X82021068Y-146842669D01*
X82066510Y-146732962D01*
X82069669Y-146725336D01*
X82072019Y-146707490D01*
X82087593Y-146589188D01*
X82088671Y-146581000D01*
X82076027Y-146484957D01*
X82070747Y-146444850D01*
X82070746Y-146444848D01*
X82069669Y-146436664D01*
X82032468Y-146346853D01*
X82017117Y-146309793D01*
X82017116Y-146309791D01*
X82013957Y-146302165D01*
X81925333Y-146186667D01*
X81860194Y-146136684D01*
X81818328Y-146079347D01*
X81810900Y-146036723D01*
X81810900Y-142045277D01*
X81830902Y-141977156D01*
X81860194Y-141945316D01*
X81925333Y-141895333D01*
X82013957Y-141779835D01*
X82069669Y-141645336D01*
X82083458Y-141540601D01*
X82087593Y-141509188D01*
X82088671Y-141501000D01*
X82075551Y-141401341D01*
X82070747Y-141364850D01*
X82070746Y-141364848D01*
X82069669Y-141356664D01*
X82030761Y-141262733D01*
X82017117Y-141229793D01*
X82017116Y-141229791D01*
X82013957Y-141222165D01*
X81925333Y-141106667D01*
X81860194Y-141056684D01*
X81818328Y-140999347D01*
X81810900Y-140956723D01*
X81810900Y-139530990D01*
X81830902Y-139462869D01*
X81860196Y-139431027D01*
X81904592Y-139396961D01*
X81911138Y-139391938D01*
X81999762Y-139276440D01*
X82009121Y-139253847D01*
X82052315Y-139149567D01*
X82055474Y-139141941D01*
X82074476Y-138997605D01*
X82055474Y-138853269D01*
X81999762Y-138718770D01*
X81911138Y-138603272D01*
X81795641Y-138514648D01*
X81661141Y-138458936D01*
X81516805Y-138439934D01*
X81508617Y-138441012D01*
X81380655Y-138457858D01*
X81380653Y-138457859D01*
X81372469Y-138458936D01*
X81362402Y-138463106D01*
X81245598Y-138511488D01*
X81245596Y-138511489D01*
X81237970Y-138514648D01*
X81122472Y-138603272D01*
X81033848Y-138718770D01*
X80978136Y-138853269D01*
X80959134Y-138997605D01*
X80978136Y-139141941D01*
X80981295Y-139149567D01*
X81024490Y-139253847D01*
X81033848Y-139276440D01*
X81122472Y-139391938D01*
X81129018Y-139396961D01*
X81129022Y-139396965D01*
X81201804Y-139452813D01*
X81243671Y-139510151D01*
X81251100Y-139552775D01*
X81251100Y-140956723D01*
X81231098Y-141024844D01*
X81201805Y-141056685D01*
X81136667Y-141106667D01*
X81048043Y-141222165D01*
X81044884Y-141229791D01*
X81044883Y-141229793D01*
X81031239Y-141262733D01*
X80992331Y-141356664D01*
X80991254Y-141364848D01*
X80991253Y-141364850D01*
X80986449Y-141401341D01*
X80973329Y-141501000D01*
X80974407Y-141509188D01*
X80978543Y-141540601D01*
X80992331Y-141645336D01*
X81048043Y-141779835D01*
X81136667Y-141895333D01*
X81201806Y-141945316D01*
X81243672Y-142002653D01*
X81251100Y-142045277D01*
X81251100Y-146036723D01*
X81231098Y-146104844D01*
X81201805Y-146136685D01*
X81136667Y-146186667D01*
X81048043Y-146302165D01*
X81044884Y-146309791D01*
X81044883Y-146309793D01*
X81029532Y-146346853D01*
X80992331Y-146436664D01*
X80991254Y-146444848D01*
X80991253Y-146444850D01*
X80985973Y-146484957D01*
X80973329Y-146581000D01*
X80974407Y-146589188D01*
X80989982Y-146707490D01*
X80992331Y-146725336D01*
X80995490Y-146732962D01*
X81040933Y-146842669D01*
X81048043Y-146859835D01*
X81136667Y-146975333D01*
X81201806Y-147025316D01*
X81243672Y-147082653D01*
X81251100Y-147125277D01*
X81251100Y-149734000D01*
X81231098Y-149802121D01*
X81177442Y-149848614D01*
X81125100Y-149860000D01*
X77458703Y-149860000D01*
X77390582Y-149839998D01*
X77344089Y-149786342D01*
X77332708Y-149732928D01*
X77339076Y-148984685D01*
X77359657Y-148916737D01*
X77375976Y-148896662D01*
X77432457Y-148840181D01*
X77494769Y-148806155D01*
X77537997Y-148804354D01*
X77619400Y-148815071D01*
X77627588Y-148813993D01*
X77628918Y-148813818D01*
X77763736Y-148796069D01*
X77898236Y-148740357D01*
X77994414Y-148666557D01*
X78007187Y-148656756D01*
X78013733Y-148651733D01*
X78102357Y-148536235D01*
X78115985Y-148503336D01*
X78140420Y-148444343D01*
X78158069Y-148401736D01*
X78165517Y-148345167D01*
X78175993Y-148265588D01*
X78175993Y-148265587D01*
X78177071Y-148257400D01*
X78158069Y-148113064D01*
X78123245Y-148028993D01*
X78105517Y-147986193D01*
X78105516Y-147986191D01*
X78102357Y-147978565D01*
X78013733Y-147863067D01*
X77898236Y-147774443D01*
X77763736Y-147718731D01*
X77619400Y-147699729D01*
X77611212Y-147700807D01*
X77483250Y-147717653D01*
X77483248Y-147717654D01*
X77475064Y-147718731D01*
X77453160Y-147727804D01*
X77348193Y-147771283D01*
X77348191Y-147771284D01*
X77340565Y-147774443D01*
X77225067Y-147863067D01*
X77136443Y-147978565D01*
X77133284Y-147986191D01*
X77133283Y-147986193D01*
X77115555Y-148028993D01*
X77080731Y-148113064D01*
X77061729Y-148257400D01*
X77071016Y-148327936D01*
X77072446Y-148338801D01*
X77061507Y-148408950D01*
X77036619Y-148444343D01*
X76897430Y-148583532D01*
X76896355Y-148584452D01*
X76892778Y-148586163D01*
X76886158Y-148593178D01*
X76886154Y-148593182D01*
X76860202Y-148620686D01*
X76857655Y-148623307D01*
X76844274Y-148636688D01*
X76842240Y-148639653D01*
X76841252Y-148640769D01*
X76821217Y-148662001D01*
X76816815Y-148672769D01*
X76814641Y-148676143D01*
X76808475Y-148687573D01*
X76806848Y-148691244D01*
X76800268Y-148700836D01*
X76797582Y-148712155D01*
X76795514Y-148720869D01*
X76789545Y-148739466D01*
X76785122Y-148750282D01*
X76785120Y-148750289D01*
X76781756Y-148758517D01*
X76781131Y-148764376D01*
X76781105Y-148767468D01*
X76781101Y-148767908D01*
X76781060Y-148768245D01*
X76780929Y-148770528D01*
X76780784Y-148770520D01*
X76779268Y-148783014D01*
X76778879Y-148790968D01*
X76776192Y-148802290D01*
X76777761Y-148813818D01*
X76779314Y-148825225D01*
X76780460Y-148843287D01*
X76777358Y-149207664D01*
X76772869Y-149735072D01*
X76752288Y-149803021D01*
X76698239Y-149849055D01*
X76646874Y-149860000D01*
X74533832Y-149860000D01*
X74465711Y-149839998D01*
X74447616Y-149825416D01*
X74444433Y-149821267D01*
X74328936Y-149732643D01*
X74194436Y-149676931D01*
X74050100Y-149657929D01*
X73914552Y-149675774D01*
X73844403Y-149664835D01*
X73791305Y-149617706D01*
X73772115Y-149549352D01*
X73773184Y-149534405D01*
X73777893Y-149498637D01*
X73778971Y-149490450D01*
X73759969Y-149346114D01*
X73704257Y-149211615D01*
X73615633Y-149096117D01*
X73500136Y-149007493D01*
X73379846Y-148957667D01*
X73373265Y-148954941D01*
X73365636Y-148951781D01*
X73221300Y-148932779D01*
X73213112Y-148933857D01*
X73085150Y-148950703D01*
X73085148Y-148950704D01*
X73076964Y-148951781D01*
X73068225Y-148955401D01*
X72950093Y-149004333D01*
X72950091Y-149004334D01*
X72942465Y-149007493D01*
X72826967Y-149096117D01*
X72738343Y-149211615D01*
X72682631Y-149346114D01*
X72663629Y-149490450D01*
X72664707Y-149498637D01*
X72664707Y-149498638D01*
X72671384Y-149549352D01*
X72682631Y-149634786D01*
X72685791Y-149642414D01*
X72685791Y-149642415D01*
X72703754Y-149685782D01*
X72711343Y-149756371D01*
X72679564Y-149819858D01*
X72618506Y-149856086D01*
X72587345Y-149860000D01*
X70305852Y-149860000D01*
X70237731Y-149839998D01*
X70191238Y-149786342D01*
X70179852Y-149734029D01*
X70179851Y-149729483D01*
X70177834Y-140966524D01*
X70197820Y-140898400D01*
X70229140Y-140868578D01*
X70227436Y-140866357D01*
X70336387Y-140782756D01*
X70342933Y-140777733D01*
X70431557Y-140662235D01*
X70487269Y-140527736D01*
X70506271Y-140383400D01*
X70503392Y-140361529D01*
X70494112Y-140291039D01*
X70505052Y-140220890D01*
X70552180Y-140167792D01*
X70620534Y-140148602D01*
X70688412Y-140169414D01*
X70695738Y-140174631D01*
X70730008Y-140200927D01*
X70730011Y-140200929D01*
X70736564Y-140205957D01*
X70871064Y-140261669D01*
X71015400Y-140280671D01*
X71023588Y-140279593D01*
X71151548Y-140262747D01*
X71159736Y-140261669D01*
X71294236Y-140205957D01*
X71409733Y-140117333D01*
X71498357Y-140001835D01*
X71501520Y-139994200D01*
X71526045Y-139934994D01*
X71570593Y-139879713D01*
X71637957Y-139857293D01*
X71690669Y-139866803D01*
X71785464Y-139906069D01*
X71929800Y-139925071D01*
X71937988Y-139923993D01*
X72065948Y-139907147D01*
X72074136Y-139906069D01*
X72083214Y-139902309D01*
X72130623Y-139882671D01*
X72208636Y-139850357D01*
X72324133Y-139761733D01*
X72412757Y-139646235D01*
X72468469Y-139511736D01*
X72486803Y-139372476D01*
X72515524Y-139307551D01*
X72574789Y-139268459D01*
X72595272Y-139264003D01*
X72716082Y-139248098D01*
X72726348Y-139246747D01*
X72734536Y-139245669D01*
X72748621Y-139239835D01*
X72771406Y-139230397D01*
X72869036Y-139189957D01*
X72984533Y-139101333D01*
X73073157Y-138985835D01*
X73080053Y-138969188D01*
X73116698Y-138880718D01*
X73128869Y-138851336D01*
X73133333Y-138817433D01*
X73146793Y-138715188D01*
X73147871Y-138707000D01*
X73140188Y-138648642D01*
X73151127Y-138578494D01*
X73198255Y-138525395D01*
X73266609Y-138506205D01*
X73313328Y-138515787D01*
X73324127Y-138520260D01*
X73431569Y-138564764D01*
X73439757Y-138565842D01*
X73446024Y-138566667D01*
X73575905Y-138583766D01*
X73676093Y-138570576D01*
X73746240Y-138581515D01*
X73799339Y-138628643D01*
X73818529Y-138696997D01*
X73808947Y-138743717D01*
X73778731Y-138816664D01*
X73759729Y-138961000D01*
X73778731Y-139105336D01*
X73794054Y-139142329D01*
X73830534Y-139230397D01*
X73834443Y-139239835D01*
X73923067Y-139355333D01*
X74038564Y-139443957D01*
X74173064Y-139499669D01*
X74317400Y-139518671D01*
X74325588Y-139517593D01*
X74453548Y-139500747D01*
X74461736Y-139499669D01*
X74596236Y-139443957D01*
X74711733Y-139355333D01*
X74800357Y-139239835D01*
X74804267Y-139230397D01*
X74840746Y-139142329D01*
X74856069Y-139105336D01*
X74875071Y-138961000D01*
X74856069Y-138816664D01*
X74818204Y-138725251D01*
X74803517Y-138689793D01*
X74803516Y-138689791D01*
X74800357Y-138682165D01*
X74795330Y-138675614D01*
X74795328Y-138675610D01*
X74726937Y-138586480D01*
X74701337Y-138520260D01*
X74700900Y-138509777D01*
X74700900Y-138257070D01*
X74720902Y-138188949D01*
X74774558Y-138142456D01*
X74844832Y-138132352D01*
X74875118Y-138140661D01*
X74879452Y-138142456D01*
X74930664Y-138163669D01*
X74938852Y-138164747D01*
X75002832Y-138173170D01*
X75075000Y-138182671D01*
X75083188Y-138181593D01*
X75211148Y-138164747D01*
X75219336Y-138163669D01*
X75353836Y-138107957D01*
X75469333Y-138019333D01*
X75475035Y-138011902D01*
X75475799Y-138011344D01*
X75480201Y-138006942D01*
X75480887Y-138007628D01*
X75532372Y-137970033D01*
X75603243Y-137965809D01*
X75665147Y-138000572D01*
X75674965Y-138011902D01*
X75680667Y-138019333D01*
X75796164Y-138107957D01*
X75930664Y-138163669D01*
X75938852Y-138164747D01*
X76002832Y-138173170D01*
X76075000Y-138182671D01*
X76083188Y-138181593D01*
X76211148Y-138164747D01*
X76219336Y-138163669D01*
X76353836Y-138107957D01*
X76469333Y-138019333D01*
X76557957Y-137903835D01*
X76563137Y-137891331D01*
X76610510Y-137776962D01*
X76613669Y-137769336D01*
X76616332Y-137749114D01*
X76631593Y-137633188D01*
X76632671Y-137625000D01*
X76624909Y-137566043D01*
X76614747Y-137488850D01*
X76614746Y-137488848D01*
X76613669Y-137480664D01*
X76584188Y-137409491D01*
X76561117Y-137353793D01*
X76561116Y-137353791D01*
X76557957Y-137346165D01*
X76469333Y-137230667D01*
X76462787Y-137225644D01*
X76462783Y-137225640D01*
X76362014Y-137148317D01*
X76320147Y-137090979D01*
X76316259Y-137076969D01*
X76315648Y-137075494D01*
X76313227Y-137063323D01*
X76271442Y-137000788D01*
X76257331Y-136979669D01*
X76246527Y-136972450D01*
X76227434Y-136956780D01*
X73976805Y-134706150D01*
X73942779Y-134643838D01*
X73939900Y-134617055D01*
X73939900Y-121321277D01*
X73959902Y-121253156D01*
X73989194Y-121221316D01*
X74054333Y-121171333D01*
X74142957Y-121055835D01*
X74153097Y-121031357D01*
X74176491Y-120974878D01*
X74221040Y-120919598D01*
X74288403Y-120897177D01*
X74357195Y-120914736D01*
X74405573Y-120966698D01*
X74418900Y-121023097D01*
X74418900Y-123441767D01*
X74398898Y-123509888D01*
X74384559Y-123527681D01*
X74380667Y-123530667D01*
X74292043Y-123646165D01*
X74288884Y-123653791D01*
X74288883Y-123653793D01*
X74255847Y-123733549D01*
X74236331Y-123780664D01*
X74217329Y-123925000D01*
X74236331Y-124069336D01*
X74292043Y-124203835D01*
X74380667Y-124319333D01*
X74383136Y-124321228D01*
X74416021Y-124381450D01*
X74418900Y-124408233D01*
X74418900Y-126654584D01*
X74418978Y-126655055D01*
X74419167Y-126664682D01*
X74419134Y-126665447D01*
X74418900Y-126668148D01*
X74418900Y-134473572D01*
X74416766Y-134493621D01*
X74416568Y-134497811D01*
X74414376Y-134507993D01*
X74415600Y-134518334D01*
X74418027Y-134538840D01*
X74418344Y-134544215D01*
X74418472Y-134544204D01*
X74418900Y-134549382D01*
X74418900Y-134554584D01*
X74420671Y-134565222D01*
X74421839Y-134572243D01*
X74422674Y-134578115D01*
X74427084Y-134615374D01*
X74427086Y-134615381D01*
X74428310Y-134625722D01*
X74432030Y-134633468D01*
X74433440Y-134641942D01*
X74440937Y-134655836D01*
X74456192Y-134684109D01*
X74458885Y-134689396D01*
X74476195Y-134725442D01*
X74476197Y-134725445D01*
X74479628Y-134732590D01*
X74482999Y-134736600D01*
X74484937Y-134738538D01*
X74486452Y-134740189D01*
X74486673Y-134740599D01*
X74486631Y-134740637D01*
X74486792Y-134740820D01*
X74489735Y-134746274D01*
X74497382Y-134753342D01*
X74497382Y-134753343D01*
X74526794Y-134780531D01*
X74530360Y-134783961D01*
X77081502Y-137335104D01*
X77115528Y-137397416D01*
X77117970Y-137420132D01*
X77117329Y-137425000D01*
X77136331Y-137569336D01*
X77145870Y-137592365D01*
X77184706Y-137686121D01*
X77192043Y-137703835D01*
X77280667Y-137819333D01*
X77396164Y-137907957D01*
X77530664Y-137963669D01*
X77675000Y-137982671D01*
X77683188Y-137981593D01*
X77811148Y-137964747D01*
X77819336Y-137963669D01*
X77953836Y-137907957D01*
X78069333Y-137819333D01*
X78157957Y-137703835D01*
X78165295Y-137686121D01*
X78204130Y-137592365D01*
X78213669Y-137569336D01*
X78232671Y-137425000D01*
X78229040Y-137397416D01*
X78214747Y-137288850D01*
X78214746Y-137288848D01*
X78213669Y-137280664D01*
X78185198Y-137211929D01*
X78161117Y-137153793D01*
X78161116Y-137153791D01*
X78157957Y-137146165D01*
X78069333Y-137030667D01*
X77953836Y-136942043D01*
X77819336Y-136886331D01*
X77675000Y-136867329D01*
X77671912Y-136867736D01*
X77606078Y-136848405D01*
X77585104Y-136831502D01*
X75168005Y-134414403D01*
X75133979Y-134352091D01*
X75131100Y-134325308D01*
X75131100Y-126695416D01*
X75131022Y-126694945D01*
X75130833Y-126685318D01*
X75130866Y-126684553D01*
X75131100Y-126681852D01*
X75131100Y-124408233D01*
X75151102Y-124340112D01*
X75165441Y-124322319D01*
X75169333Y-124319333D01*
X75257957Y-124203835D01*
X75313669Y-124069336D01*
X75332671Y-123925000D01*
X75313669Y-123780664D01*
X75294153Y-123733549D01*
X75261117Y-123653793D01*
X75261116Y-123653791D01*
X75257957Y-123646165D01*
X75169333Y-123530667D01*
X75166864Y-123528772D01*
X75133979Y-123468550D01*
X75131100Y-123441767D01*
X75131100Y-121883225D01*
X75151102Y-121815104D01*
X75204758Y-121768611D01*
X75275032Y-121758507D01*
X75333804Y-121783262D01*
X75413164Y-121844157D01*
X75547664Y-121899869D01*
X75555852Y-121900947D01*
X75573649Y-121903290D01*
X75638576Y-121932013D01*
X75677667Y-121991278D01*
X75682124Y-122044658D01*
X75672847Y-122115126D01*
X75691849Y-122259462D01*
X75747561Y-122393961D01*
X75836185Y-122509459D01*
X75951682Y-122598083D01*
X76086182Y-122653795D01*
X76094370Y-122654873D01*
X76229567Y-122672672D01*
X76294494Y-122701394D01*
X76333586Y-122760660D01*
X76338043Y-122781148D01*
X76352448Y-122890563D01*
X76354598Y-122906896D01*
X76357757Y-122914522D01*
X76401804Y-123020859D01*
X76410310Y-123041395D01*
X76498934Y-123156893D01*
X76614431Y-123245517D01*
X76748931Y-123301229D01*
X76893267Y-123320231D01*
X76901455Y-123319153D01*
X77029415Y-123302307D01*
X77037603Y-123301229D01*
X77172103Y-123245517D01*
X77287600Y-123156893D01*
X77376224Y-123041395D01*
X77384731Y-123020859D01*
X77428777Y-122914522D01*
X77431936Y-122906896D01*
X77434087Y-122890563D01*
X77449860Y-122770748D01*
X77450938Y-122762560D01*
X77445282Y-122719600D01*
X77433014Y-122626410D01*
X77433013Y-122626408D01*
X77431936Y-122618224D01*
X77386884Y-122509459D01*
X77379384Y-122491353D01*
X77379383Y-122491351D01*
X77376224Y-122483725D01*
X77301493Y-122386333D01*
X77292627Y-122374778D01*
X77292626Y-122374777D01*
X77287600Y-122368227D01*
X77222461Y-122318244D01*
X77180595Y-122260907D01*
X77173167Y-122218283D01*
X77173167Y-116948879D01*
X79150590Y-116948879D01*
X79186236Y-117210808D01*
X79187545Y-117215298D01*
X79187546Y-117215304D01*
X79199959Y-117257890D01*
X79260207Y-117464590D01*
X79370877Y-117704652D01*
X79373440Y-117708561D01*
X79513249Y-117921805D01*
X79513253Y-117921810D01*
X79515815Y-117925718D01*
X79603826Y-118024326D01*
X79650745Y-118076894D01*
X79691836Y-118122933D01*
X79765371Y-118184091D01*
X79884526Y-118283191D01*
X79895074Y-118291964D01*
X80121064Y-118429099D01*
X80125372Y-118430905D01*
X80125373Y-118430906D01*
X80360526Y-118529514D01*
X80360531Y-118529516D01*
X80364841Y-118531323D01*
X80369373Y-118532474D01*
X80369376Y-118532475D01*
X80424947Y-118546588D01*
X80621051Y-118596392D01*
X80840606Y-118618500D01*
X80997858Y-118618500D01*
X81000183Y-118618327D01*
X81000189Y-118618327D01*
X81189714Y-118604243D01*
X81189718Y-118604242D01*
X81194366Y-118603897D01*
X81452191Y-118545557D01*
X81456545Y-118543864D01*
X81694208Y-118451442D01*
X81694210Y-118451441D01*
X81698561Y-118449749D01*
X81731530Y-118430906D01*
X81783198Y-118401375D01*
X81928063Y-118318578D01*
X82135656Y-118154925D01*
X82316780Y-117962385D01*
X82373691Y-117880348D01*
X82464792Y-117749026D01*
X82464795Y-117749021D01*
X82467454Y-117745188D01*
X82469521Y-117740997D01*
X82582305Y-117512294D01*
X82582306Y-117512291D01*
X82584370Y-117508106D01*
X82664959Y-117256347D01*
X82707450Y-116995441D01*
X82710910Y-116731121D01*
X82675264Y-116469192D01*
X82601293Y-116215410D01*
X82582356Y-116174331D01*
X82545450Y-116094277D01*
X82490623Y-115975348D01*
X82427762Y-115879470D01*
X82348251Y-115758195D01*
X82348247Y-115758190D01*
X82345685Y-115754282D01*
X82226911Y-115621207D01*
X82172781Y-115560559D01*
X82172779Y-115560557D01*
X82169664Y-115557067D01*
X81966426Y-115388036D01*
X81740436Y-115250901D01*
X81725224Y-115244522D01*
X81500974Y-115150486D01*
X81500969Y-115150484D01*
X81496659Y-115148677D01*
X81492127Y-115147526D01*
X81492124Y-115147525D01*
X81313655Y-115102200D01*
X81240449Y-115083608D01*
X81020894Y-115061500D01*
X80863642Y-115061500D01*
X80861317Y-115061673D01*
X80861311Y-115061673D01*
X80671786Y-115075757D01*
X80671782Y-115075758D01*
X80667134Y-115076103D01*
X80409309Y-115134443D01*
X80404957Y-115136135D01*
X80404955Y-115136136D01*
X80167292Y-115228558D01*
X80167290Y-115228559D01*
X80162939Y-115230251D01*
X80158885Y-115232568D01*
X80158883Y-115232569D01*
X80126809Y-115250901D01*
X79933437Y-115361422D01*
X79725844Y-115525075D01*
X79544720Y-115717615D01*
X79542054Y-115721458D01*
X79401220Y-115924471D01*
X79394046Y-115934812D01*
X79391980Y-115939001D01*
X79391979Y-115939003D01*
X79289347Y-116147121D01*
X79277130Y-116171894D01*
X79275708Y-116176337D01*
X79275707Y-116176339D01*
X79263200Y-116215410D01*
X79196541Y-116423653D01*
X79154050Y-116684559D01*
X79153379Y-116735798D01*
X79151033Y-116915071D01*
X79150590Y-116948879D01*
X77173167Y-116948879D01*
X77173167Y-115170321D01*
X77193169Y-115102200D01*
X77246825Y-115055707D01*
X77282722Y-115045399D01*
X77309536Y-115041869D01*
X77323621Y-115036035D01*
X77366569Y-115018245D01*
X77444036Y-114986157D01*
X77559533Y-114897533D01*
X77648157Y-114782035D01*
X77655053Y-114765388D01*
X77700710Y-114655162D01*
X77703869Y-114647536D01*
X77717250Y-114545900D01*
X77721074Y-114516848D01*
X77722871Y-114503200D01*
X77718739Y-114471814D01*
X77704947Y-114367050D01*
X77704946Y-114367048D01*
X77703869Y-114358864D01*
X77678323Y-114297192D01*
X77651317Y-114231993D01*
X77651316Y-114231991D01*
X77648157Y-114224365D01*
X77559533Y-114108867D01*
X77529790Y-114086044D01*
X77450587Y-114025270D01*
X77444036Y-114020243D01*
X77309536Y-113964531D01*
X77165200Y-113945529D01*
X77020864Y-113964531D01*
X77020606Y-113962574D01*
X76960397Y-113961137D01*
X76901604Y-113921339D01*
X76882361Y-113889341D01*
X76838517Y-113783493D01*
X76838516Y-113783491D01*
X76835357Y-113775865D01*
X76746733Y-113660367D01*
X76631236Y-113571743D01*
X76496736Y-113516031D01*
X76352400Y-113497029D01*
X76344212Y-113498107D01*
X76216250Y-113514953D01*
X76216248Y-113514954D01*
X76208064Y-113516031D01*
X76200436Y-113519191D01*
X76200431Y-113519192D01*
X76146119Y-113541689D01*
X76075529Y-113549279D01*
X76012042Y-113517500D01*
X75975814Y-113456443D01*
X75971900Y-113425281D01*
X75971900Y-110139577D01*
X75991902Y-110071456D01*
X76021194Y-110039616D01*
X76086333Y-109989633D01*
X76174957Y-109874135D01*
X76193971Y-109828233D01*
X76227510Y-109747262D01*
X76230669Y-109739636D01*
X76249671Y-109595300D01*
X76235668Y-109488936D01*
X76231747Y-109459150D01*
X76231746Y-109459148D01*
X76230669Y-109450964D01*
X76186611Y-109344600D01*
X76178117Y-109324093D01*
X76178116Y-109324091D01*
X76174957Y-109316465D01*
X76086333Y-109200967D01*
X76075479Y-109192638D01*
X76055184Y-109177065D01*
X75970836Y-109112343D01*
X75849469Y-109062071D01*
X75843965Y-109059791D01*
X75836336Y-109056631D01*
X75692000Y-109037629D01*
X75683812Y-109038707D01*
X75555850Y-109055553D01*
X75555848Y-109055554D01*
X75547664Y-109056631D01*
X75413165Y-109112343D01*
X75412098Y-109109766D01*
X75356355Y-109123288D01*
X75289264Y-109100066D01*
X75257866Y-109065528D01*
X75257557Y-109065765D01*
X75254723Y-109062071D01*
X75254720Y-109062068D01*
X75168933Y-108950267D01*
X75053436Y-108861643D01*
X74918936Y-108805931D01*
X74774600Y-108786929D01*
X74766412Y-108788007D01*
X74638450Y-108804853D01*
X74638448Y-108804854D01*
X74630264Y-108805931D01*
X74611750Y-108813600D01*
X74503393Y-108858483D01*
X74503391Y-108858484D01*
X74495765Y-108861643D01*
X74380267Y-108950267D01*
X74291643Y-109065765D01*
X74288484Y-109073391D01*
X74288483Y-109073393D01*
X74270267Y-109117370D01*
X74235931Y-109200264D01*
X74234854Y-109208448D01*
X74234853Y-109208450D01*
X74229942Y-109245757D01*
X74216929Y-109344600D01*
X74218007Y-109352788D01*
X74232010Y-109459150D01*
X74235931Y-109488936D01*
X74239090Y-109496562D01*
X74283381Y-109603488D01*
X74291643Y-109623435D01*
X74380267Y-109738933D01*
X74383049Y-109741067D01*
X74416021Y-109801450D01*
X74418900Y-109828233D01*
X74418900Y-112841767D01*
X74398898Y-112909888D01*
X74384559Y-112927681D01*
X74380667Y-112930667D01*
X74292043Y-113046165D01*
X74236331Y-113180664D01*
X74235254Y-113188848D01*
X74235253Y-113188850D01*
X74220385Y-113301787D01*
X74217329Y-113325000D01*
X74218407Y-113333188D01*
X74234634Y-113456443D01*
X74236331Y-113469336D01*
X74292043Y-113603835D01*
X74380667Y-113719333D01*
X74383136Y-113721228D01*
X74416021Y-113781450D01*
X74418900Y-113808233D01*
X74418900Y-120530903D01*
X74398898Y-120599024D01*
X74345242Y-120645517D01*
X74274968Y-120655621D01*
X74210388Y-120626127D01*
X74176491Y-120579122D01*
X74146117Y-120505793D01*
X74146116Y-120505791D01*
X74142957Y-120498165D01*
X74054333Y-120382667D01*
X73938836Y-120294043D01*
X73804336Y-120238331D01*
X73660000Y-120219329D01*
X73651812Y-120220407D01*
X73523850Y-120237253D01*
X73523848Y-120237254D01*
X73515664Y-120238331D01*
X73468549Y-120257847D01*
X73388793Y-120290883D01*
X73388791Y-120290884D01*
X73381165Y-120294043D01*
X73265667Y-120382667D01*
X73177043Y-120498165D01*
X73173882Y-120505795D01*
X73173882Y-120505796D01*
X73166309Y-120524078D01*
X73121760Y-120579359D01*
X73054397Y-120601780D01*
X72985606Y-120584222D01*
X72937227Y-120532260D01*
X72923900Y-120475860D01*
X72923900Y-117257277D01*
X72943902Y-117189156D01*
X72973194Y-117157316D01*
X73038333Y-117107333D01*
X73049878Y-117092288D01*
X73121930Y-116998386D01*
X73126957Y-116991835D01*
X73131403Y-116981103D01*
X73179510Y-116864962D01*
X73182669Y-116857336D01*
X73184905Y-116840357D01*
X73200593Y-116721188D01*
X73201671Y-116713000D01*
X73182669Y-116568664D01*
X73126957Y-116434165D01*
X73038333Y-116318667D01*
X72922836Y-116230043D01*
X72788336Y-116174331D01*
X72766210Y-116171418D01*
X72652188Y-116156407D01*
X72644000Y-116155329D01*
X72635812Y-116156407D01*
X72507850Y-116173253D01*
X72507848Y-116173254D01*
X72499664Y-116174331D01*
X72486297Y-116179868D01*
X72372793Y-116226883D01*
X72372791Y-116226884D01*
X72365165Y-116230043D01*
X72249667Y-116318667D01*
X72161043Y-116434165D01*
X72105331Y-116568664D01*
X72086329Y-116713000D01*
X72087407Y-116721188D01*
X72103096Y-116840357D01*
X72105331Y-116857336D01*
X72108490Y-116864962D01*
X72156598Y-116981103D01*
X72161043Y-116991835D01*
X72166070Y-116998386D01*
X72238123Y-117092288D01*
X72249667Y-117107333D01*
X72314806Y-117157316D01*
X72356672Y-117214653D01*
X72364100Y-117257277D01*
X72364100Y-132084424D01*
X72344098Y-132152545D01*
X72290442Y-132199038D01*
X72220168Y-132209142D01*
X72189886Y-132200835D01*
X72124936Y-132173931D01*
X71980600Y-132154929D01*
X71972412Y-132156007D01*
X71844450Y-132172853D01*
X71844448Y-132172854D01*
X71836264Y-132173931D01*
X71828637Y-132177090D01*
X71828638Y-132177090D01*
X71709393Y-132226483D01*
X71709391Y-132226484D01*
X71701765Y-132229643D01*
X71586267Y-132318267D01*
X71497643Y-132433765D01*
X71441931Y-132568264D01*
X71422929Y-132712600D01*
X71424007Y-132720788D01*
X71438473Y-132830667D01*
X71441931Y-132856936D01*
X71445090Y-132864562D01*
X71494166Y-132983040D01*
X71497643Y-132991435D01*
X71502670Y-132997986D01*
X71564151Y-133078110D01*
X71586267Y-133106933D01*
X71651406Y-133156916D01*
X71693272Y-133214253D01*
X71700700Y-133256877D01*
X71700700Y-135354584D01*
X71700551Y-135356612D01*
X71698906Y-135361403D01*
X71699342Y-135373026D01*
X71699342Y-135373028D01*
X71700611Y-135406816D01*
X71700700Y-135411543D01*
X71700700Y-135429031D01*
X71701539Y-135433534D01*
X71701717Y-135436283D01*
X71702381Y-135453976D01*
X71702382Y-135453979D01*
X71702818Y-135465601D01*
X71707410Y-135476291D01*
X71708963Y-135483179D01*
X71710270Y-135487481D01*
X71712813Y-135494070D01*
X71714943Y-135505508D01*
X71726662Y-135524519D01*
X71735166Y-135540892D01*
X71743979Y-135561404D01*
X71747719Y-135565957D01*
X71749904Y-135568142D01*
X71751959Y-135570408D01*
X71751693Y-135570649D01*
X71755730Y-135575757D01*
X71755738Y-135575750D01*
X71763553Y-135584368D01*
X71769657Y-135594271D01*
X71789479Y-135609344D01*
X71802307Y-135620545D01*
X73466250Y-137284488D01*
X73500276Y-137346800D01*
X73495211Y-137417615D01*
X73452664Y-137474451D01*
X73425374Y-137489992D01*
X73423508Y-137490765D01*
X73297070Y-137543138D01*
X73290520Y-137548164D01*
X73290518Y-137548165D01*
X73271365Y-137562862D01*
X73205145Y-137588463D01*
X73194661Y-137588900D01*
X70381033Y-137588900D01*
X70312912Y-137568898D01*
X70295119Y-137554559D01*
X70292133Y-137550667D01*
X70176636Y-137462043D01*
X70042136Y-137406331D01*
X69897800Y-137387329D01*
X69889612Y-137388407D01*
X69761650Y-137405253D01*
X69761648Y-137405254D01*
X69753464Y-137406331D01*
X69710344Y-137424192D01*
X69626593Y-137458883D01*
X69626591Y-137458884D01*
X69618965Y-137462043D01*
X69503467Y-137550667D01*
X69501572Y-137553136D01*
X69441350Y-137586021D01*
X69414567Y-137588900D01*
X68171233Y-137588900D01*
X68103112Y-137568898D01*
X68085319Y-137554559D01*
X68082333Y-137550667D01*
X67966836Y-137462043D01*
X67832336Y-137406331D01*
X67688000Y-137387329D01*
X67679812Y-137388407D01*
X67551850Y-137405253D01*
X67551848Y-137405254D01*
X67543664Y-137406331D01*
X67500544Y-137424192D01*
X67416793Y-137458883D01*
X67416791Y-137458884D01*
X67409165Y-137462043D01*
X67293667Y-137550667D01*
X67205043Y-137666165D01*
X67201884Y-137673791D01*
X67201883Y-137673793D01*
X67196777Y-137686121D01*
X67149331Y-137800664D01*
X67148254Y-137808848D01*
X67148253Y-137808850D01*
X67135868Y-137902930D01*
X67130329Y-137945000D01*
X67131407Y-137953188D01*
X67135147Y-137981593D01*
X67149331Y-138089336D01*
X67204219Y-138221845D01*
X67204219Y-138221846D01*
X67205043Y-138223835D01*
X67204733Y-138223963D01*
X67220291Y-138288096D01*
X67197070Y-138355188D01*
X67141263Y-138399075D01*
X67094434Y-138408100D01*
X64502118Y-138408100D01*
X64433997Y-138388098D01*
X64387504Y-138334442D01*
X64377400Y-138264168D01*
X64385710Y-138233881D01*
X64405349Y-138186469D01*
X64405350Y-138186464D01*
X64408510Y-138178836D01*
X64413062Y-138144265D01*
X64426434Y-138042688D01*
X64427512Y-138034500D01*
X64418329Y-137964747D01*
X64409588Y-137898350D01*
X64409587Y-137898348D01*
X64408510Y-137890164D01*
X64381251Y-137824356D01*
X64355958Y-137763293D01*
X64355957Y-137763291D01*
X64352798Y-137755665D01*
X64307175Y-137696207D01*
X64269201Y-137646718D01*
X64269200Y-137646717D01*
X64264174Y-137640167D01*
X64199035Y-137590184D01*
X64157169Y-137532847D01*
X64149741Y-137490223D01*
X64149741Y-136270000D01*
X64169743Y-136201879D01*
X64223399Y-136155386D01*
X64275741Y-136144000D01*
X65151000Y-136144000D01*
X65151000Y-106806000D01*
X65171002Y-106737879D01*
X65224658Y-106691386D01*
X65277000Y-106680000D01*
X84494640Y-106680000D01*
X84561037Y-106698914D01*
G37*
%TD.AperFunction*%
%TA.AperFunction,Conductor*%
G36*
X106570820Y-106700002D02*
G01*
X106617313Y-106753658D01*
X106628699Y-106806000D01*
X106628699Y-115969559D01*
X106608697Y-116037680D01*
X106555041Y-116084173D01*
X106484767Y-116094277D01*
X106420187Y-116064783D01*
X106388273Y-116022311D01*
X106368578Y-115979589D01*
X106366623Y-115975348D01*
X106303762Y-115879470D01*
X106224251Y-115758195D01*
X106224247Y-115758190D01*
X106221685Y-115754282D01*
X106102911Y-115621207D01*
X106048781Y-115560559D01*
X106048779Y-115560557D01*
X106045664Y-115557067D01*
X105842426Y-115388036D01*
X105616436Y-115250901D01*
X105601224Y-115244522D01*
X105376974Y-115150486D01*
X105376969Y-115150484D01*
X105372659Y-115148677D01*
X105368127Y-115147526D01*
X105368124Y-115147525D01*
X105189655Y-115102200D01*
X105116449Y-115083608D01*
X104896894Y-115061500D01*
X104739642Y-115061500D01*
X104737317Y-115061673D01*
X104737311Y-115061673D01*
X104547786Y-115075757D01*
X104547782Y-115075758D01*
X104543134Y-115076103D01*
X104285309Y-115134443D01*
X104280957Y-115136135D01*
X104280955Y-115136136D01*
X104043292Y-115228558D01*
X104043290Y-115228559D01*
X104038939Y-115230251D01*
X104034885Y-115232568D01*
X104034883Y-115232569D01*
X104002809Y-115250901D01*
X103809437Y-115361422D01*
X103601844Y-115525075D01*
X103420720Y-115717615D01*
X103418054Y-115721458D01*
X103277220Y-115924471D01*
X103270046Y-115934812D01*
X103267983Y-115938995D01*
X103267982Y-115938997D01*
X103236835Y-116002157D01*
X103191407Y-116094277D01*
X103171458Y-116134729D01*
X103123389Y-116186977D01*
X103058452Y-116205000D01*
X100405700Y-116205000D01*
X100337579Y-116184998D01*
X100291086Y-116131342D01*
X100279700Y-116079000D01*
X100279700Y-106806000D01*
X100299702Y-106737879D01*
X100353358Y-106691386D01*
X100405700Y-106680000D01*
X106502699Y-106680000D01*
X106570820Y-106700002D01*
G37*
%TD.AperFunction*%
%TA.AperFunction,Conductor*%
G36*
X146473537Y-106698914D02*
G01*
X146576025Y-106762460D01*
X146576036Y-106762466D01*
X146579578Y-106764662D01*
X146852017Y-106887101D01*
X146981870Y-106925812D01*
X147134257Y-106971241D01*
X147134259Y-106971242D01*
X147138256Y-106972433D01*
X147142376Y-106973086D01*
X147142378Y-106973086D01*
X147261110Y-106991891D01*
X147433266Y-107019158D01*
X147475560Y-107021079D01*
X147525265Y-107023336D01*
X147525284Y-107023336D01*
X147526684Y-107023400D01*
X147713261Y-107023400D01*
X147935531Y-107008637D01*
X147939625Y-107007812D01*
X147939629Y-107007811D01*
X148151519Y-106965086D01*
X148228325Y-106949599D01*
X148510740Y-106852356D01*
X148514483Y-106850482D01*
X148514487Y-106850480D01*
X148774069Y-106720491D01*
X148774071Y-106720490D01*
X148777813Y-106718616D01*
X148802577Y-106701786D01*
X148873397Y-106680000D01*
X156769300Y-106680000D01*
X156837421Y-106700002D01*
X156883914Y-106753658D01*
X156895300Y-106806000D01*
X156895300Y-107964523D01*
X156875298Y-108032644D01*
X156846005Y-108064485D01*
X156780867Y-108114467D01*
X156692243Y-108229965D01*
X156689084Y-108237591D01*
X156689083Y-108237593D01*
X156671244Y-108280660D01*
X156636531Y-108364464D01*
X156635454Y-108372648D01*
X156635453Y-108372650D01*
X156629977Y-108414244D01*
X156617529Y-108508800D01*
X156618607Y-108516988D01*
X156627391Y-108583707D01*
X156636531Y-108653136D01*
X156639690Y-108660762D01*
X156685348Y-108770988D01*
X156692243Y-108787635D01*
X156780867Y-108903133D01*
X156896364Y-108991757D01*
X156938555Y-109009233D01*
X157016780Y-109041635D01*
X157030864Y-109047469D01*
X157175200Y-109066471D01*
X157183388Y-109065393D01*
X157208622Y-109062071D01*
X157319536Y-109047469D01*
X157333621Y-109041635D01*
X157411845Y-109009233D01*
X157454036Y-108991757D01*
X157569533Y-108903133D01*
X157658157Y-108787635D01*
X157665053Y-108770988D01*
X157710710Y-108660762D01*
X157713869Y-108653136D01*
X157723010Y-108583707D01*
X157731793Y-108516988D01*
X157732871Y-108508800D01*
X157720423Y-108414244D01*
X157714947Y-108372650D01*
X157714946Y-108372648D01*
X157713869Y-108364464D01*
X157679156Y-108280660D01*
X157661317Y-108237593D01*
X157661316Y-108237591D01*
X157658157Y-108229965D01*
X157569533Y-108114467D01*
X157504394Y-108064484D01*
X157462528Y-108007147D01*
X157455100Y-107964523D01*
X157455100Y-106806000D01*
X157475102Y-106737879D01*
X157528758Y-106691386D01*
X157581100Y-106680000D01*
X165457140Y-106680000D01*
X165523537Y-106698914D01*
X165626025Y-106762460D01*
X165626036Y-106762466D01*
X165629578Y-106764662D01*
X165902017Y-106887101D01*
X166031870Y-106925812D01*
X166184257Y-106971241D01*
X166184259Y-106971242D01*
X166188256Y-106972433D01*
X166192376Y-106973086D01*
X166192378Y-106973086D01*
X166311110Y-106991891D01*
X166483266Y-107019158D01*
X166525560Y-107021079D01*
X166575265Y-107023336D01*
X166575284Y-107023336D01*
X166576684Y-107023400D01*
X166763261Y-107023400D01*
X166985531Y-107008637D01*
X166989625Y-107007812D01*
X166989629Y-107007811D01*
X167201519Y-106965086D01*
X167278325Y-106949599D01*
X167560740Y-106852356D01*
X167564483Y-106850482D01*
X167564487Y-106850480D01*
X167824069Y-106720491D01*
X167824071Y-106720490D01*
X167827813Y-106718616D01*
X167852577Y-106701786D01*
X167923397Y-106680000D01*
X176860700Y-106680000D01*
X176928821Y-106700002D01*
X176975314Y-106753658D01*
X176986700Y-106806000D01*
X176986700Y-113598472D01*
X176966698Y-113666593D01*
X176949795Y-113687567D01*
X174862743Y-115774619D01*
X174800431Y-115808645D01*
X174757203Y-115810446D01*
X174675800Y-115799729D01*
X174667612Y-115800807D01*
X174539650Y-115817653D01*
X174539648Y-115817654D01*
X174531464Y-115818731D01*
X174523837Y-115821890D01*
X174523838Y-115821890D01*
X174404593Y-115871283D01*
X174404591Y-115871284D01*
X174396965Y-115874443D01*
X174281467Y-115963067D01*
X174192843Y-116078565D01*
X174189682Y-116086195D01*
X174189682Y-116086196D01*
X174172690Y-116127218D01*
X174128142Y-116182499D01*
X174056281Y-116205000D01*
X166945028Y-116205000D01*
X166876907Y-116184998D01*
X166855933Y-116168095D01*
X166523542Y-115835704D01*
X166489516Y-115773392D01*
X166494581Y-115702577D01*
X166497456Y-115696476D01*
X166497357Y-115696435D01*
X166518399Y-115645635D01*
X166553069Y-115561936D01*
X166554564Y-115550586D01*
X166570993Y-115425788D01*
X166572071Y-115417600D01*
X166564305Y-115358612D01*
X166554147Y-115281450D01*
X166554146Y-115281448D01*
X166553069Y-115273264D01*
X166522417Y-115199264D01*
X166500517Y-115146393D01*
X166500516Y-115146391D01*
X166497357Y-115138765D01*
X166408733Y-115023267D01*
X166293236Y-114934643D01*
X166158736Y-114878931D01*
X166014400Y-114859929D01*
X166006212Y-114861007D01*
X165878250Y-114877853D01*
X165878248Y-114877854D01*
X165870064Y-114878931D01*
X165840971Y-114890982D01*
X165743193Y-114931483D01*
X165743191Y-114931484D01*
X165735565Y-114934643D01*
X165620067Y-115023267D01*
X165531443Y-115138765D01*
X165528284Y-115146391D01*
X165528283Y-115146393D01*
X165506383Y-115199264D01*
X165475731Y-115273264D01*
X165474654Y-115281448D01*
X165474653Y-115281450D01*
X165464495Y-115358612D01*
X165456729Y-115417600D01*
X165457807Y-115425788D01*
X165474237Y-115550586D01*
X165475731Y-115561936D01*
X165478890Y-115569562D01*
X165517816Y-115663536D01*
X165531443Y-115696435D01*
X165620067Y-115811933D01*
X165735564Y-115900557D01*
X165788888Y-115922644D01*
X165816809Y-115934210D01*
X165857686Y-115961524D01*
X165886067Y-115989905D01*
X165920093Y-116052217D01*
X165915028Y-116123032D01*
X165872481Y-116179868D01*
X165805961Y-116204679D01*
X165796972Y-116205000D01*
X153974300Y-116205000D01*
X153906179Y-116184998D01*
X153859686Y-116131342D01*
X153848300Y-116079000D01*
X153848300Y-115047477D01*
X153868302Y-114979356D01*
X153897594Y-114947516D01*
X153962733Y-114897533D01*
X153969381Y-114888870D01*
X154046330Y-114788586D01*
X154051357Y-114782035D01*
X154058253Y-114765388D01*
X154103910Y-114655162D01*
X154107069Y-114647536D01*
X154120450Y-114545900D01*
X154124274Y-114516848D01*
X154126071Y-114503200D01*
X154121939Y-114471814D01*
X154108147Y-114367050D01*
X154108146Y-114367048D01*
X154107069Y-114358864D01*
X154081523Y-114297192D01*
X154054517Y-114231993D01*
X154054516Y-114231991D01*
X154051357Y-114224365D01*
X153962733Y-114108867D01*
X153932990Y-114086044D01*
X153853787Y-114025270D01*
X153847236Y-114020243D01*
X153712736Y-113964531D01*
X153568400Y-113945529D01*
X153560212Y-113946607D01*
X153432250Y-113963453D01*
X153432248Y-113963454D01*
X153424064Y-113964531D01*
X153384638Y-113980862D01*
X153297193Y-114017083D01*
X153297191Y-114017084D01*
X153289565Y-114020243D01*
X153174067Y-114108867D01*
X153085443Y-114224365D01*
X153082284Y-114231991D01*
X153082283Y-114231993D01*
X153055277Y-114297192D01*
X153029731Y-114358864D01*
X153028654Y-114367048D01*
X153028653Y-114367050D01*
X153014861Y-114471814D01*
X153010729Y-114503200D01*
X153012526Y-114516848D01*
X153016351Y-114545900D01*
X153029731Y-114647536D01*
X153032890Y-114655162D01*
X153078548Y-114765388D01*
X153085443Y-114782035D01*
X153090470Y-114788586D01*
X153090472Y-114788590D01*
X153108889Y-114812592D01*
X153134489Y-114878813D01*
X153120224Y-114948361D01*
X153070622Y-114999157D01*
X153001432Y-115015072D01*
X152960711Y-115005705D01*
X152899936Y-114980531D01*
X152755600Y-114961529D01*
X152747412Y-114962607D01*
X152619450Y-114979453D01*
X152619448Y-114979454D01*
X152611264Y-114980531D01*
X152599652Y-114985341D01*
X152484393Y-115033083D01*
X152484391Y-115033084D01*
X152476765Y-115036243D01*
X152361267Y-115124867D01*
X152272643Y-115240365D01*
X152269484Y-115247991D01*
X152269483Y-115247993D01*
X152258964Y-115273388D01*
X152216931Y-115374864D01*
X152215854Y-115383048D01*
X152215853Y-115383050D01*
X152212366Y-115409536D01*
X152197929Y-115519200D01*
X152199007Y-115527388D01*
X152199007Y-115527389D01*
X152211358Y-115621207D01*
X152201632Y-115688701D01*
X152197050Y-115699041D01*
X152190468Y-115708636D01*
X152186327Y-115726087D01*
X152185313Y-115730360D01*
X152179748Y-115747956D01*
X152171475Y-115768692D01*
X152170900Y-115774556D01*
X152170900Y-115777644D01*
X152170750Y-115780707D01*
X152170392Y-115780690D01*
X152169636Y-115787151D01*
X152169647Y-115787152D01*
X152169079Y-115798768D01*
X152166392Y-115810090D01*
X152167961Y-115821619D01*
X152167961Y-115821620D01*
X152169749Y-115834757D01*
X152170900Y-115851748D01*
X152170900Y-116079000D01*
X152150898Y-116147121D01*
X152097242Y-116193614D01*
X152044900Y-116205000D01*
X138305268Y-116205000D01*
X138237147Y-116184998D01*
X138190654Y-116131342D01*
X138180550Y-116061068D01*
X138210044Y-115996488D01*
X138219624Y-115986582D01*
X139546245Y-114757200D01*
X139728669Y-114588147D01*
X139734089Y-114583646D01*
X139742774Y-114579401D01*
X139765538Y-114554861D01*
X139768119Y-114552079D01*
X139774849Y-114545353D01*
X139778083Y-114542356D01*
X139778086Y-114542353D01*
X139782345Y-114538406D01*
X139785812Y-114533742D01*
X139787939Y-114531372D01*
X139793227Y-114525012D01*
X139805777Y-114511483D01*
X139813687Y-114502956D01*
X139817996Y-114492155D01*
X139820087Y-114488848D01*
X139821817Y-114485313D01*
X139828758Y-114475977D01*
X139836811Y-114446996D01*
X139841180Y-114434043D01*
X139843307Y-114428713D01*
X139852325Y-114406108D01*
X139852900Y-114400244D01*
X139852900Y-114397167D01*
X139853050Y-114394093D01*
X139853147Y-114394098D01*
X139853376Y-114388828D01*
X139853560Y-114386720D01*
X139856674Y-114375512D01*
X139853495Y-114342922D01*
X139852900Y-114330689D01*
X139852900Y-106806000D01*
X139872902Y-106737879D01*
X139926558Y-106691386D01*
X139978900Y-106680000D01*
X146407140Y-106680000D01*
X146473537Y-106698914D01*
G37*
%TD.AperFunction*%
%TA.AperFunction,Conductor*%
G36*
X127423537Y-106698914D02*
G01*
X127526025Y-106762460D01*
X127526036Y-106762466D01*
X127529578Y-106764662D01*
X127802017Y-106887101D01*
X127931870Y-106925812D01*
X128084257Y-106971241D01*
X128084259Y-106971242D01*
X128088256Y-106972433D01*
X128092376Y-106973086D01*
X128092378Y-106973086D01*
X128211110Y-106991891D01*
X128383266Y-107019158D01*
X128425560Y-107021079D01*
X128475265Y-107023336D01*
X128475284Y-107023336D01*
X128476684Y-107023400D01*
X128663261Y-107023400D01*
X128885531Y-107008637D01*
X128889625Y-107007812D01*
X128889629Y-107007811D01*
X129101519Y-106965086D01*
X129178325Y-106949599D01*
X129460740Y-106852356D01*
X129464483Y-106850482D01*
X129464487Y-106850480D01*
X129724069Y-106720491D01*
X129724071Y-106720490D01*
X129727813Y-106718616D01*
X129752577Y-106701786D01*
X129823397Y-106680000D01*
X137922500Y-106680000D01*
X137990621Y-106700002D01*
X138037114Y-106753658D01*
X138048500Y-106806000D01*
X138048500Y-108269323D01*
X138028498Y-108337444D01*
X137999205Y-108369285D01*
X137934067Y-108419267D01*
X137845443Y-108534765D01*
X137842284Y-108542391D01*
X137842283Y-108542393D01*
X137828425Y-108575850D01*
X137789731Y-108669264D01*
X137788654Y-108677448D01*
X137788653Y-108677450D01*
X137784785Y-108706833D01*
X137770729Y-108813600D01*
X137789731Y-108957936D01*
X137792890Y-108965562D01*
X137834298Y-109065528D01*
X137845443Y-109092435D01*
X137934067Y-109207933D01*
X138049564Y-109296557D01*
X138184064Y-109352269D01*
X138328400Y-109371271D01*
X138336588Y-109370193D01*
X138464548Y-109353347D01*
X138472736Y-109352269D01*
X138607236Y-109296557D01*
X138722733Y-109207933D01*
X138811357Y-109092435D01*
X138822503Y-109065528D01*
X138863910Y-108965562D01*
X138867069Y-108957936D01*
X138886071Y-108813600D01*
X138872015Y-108706833D01*
X138868147Y-108677450D01*
X138868146Y-108677448D01*
X138867069Y-108669264D01*
X138828375Y-108575850D01*
X138814517Y-108542393D01*
X138814516Y-108542391D01*
X138811357Y-108534765D01*
X138757412Y-108464462D01*
X138727760Y-108425818D01*
X138727759Y-108425817D01*
X138722733Y-108419267D01*
X138657594Y-108369284D01*
X138615728Y-108311947D01*
X138608300Y-108269323D01*
X138608300Y-106806000D01*
X138628302Y-106737879D01*
X138681958Y-106691386D01*
X138734300Y-106680000D01*
X139167100Y-106680000D01*
X139235221Y-106700002D01*
X139281714Y-106753658D01*
X139293100Y-106806000D01*
X139293100Y-114173557D01*
X139273098Y-114241678D01*
X139252744Y-114265975D01*
X139224109Y-114292511D01*
X137196587Y-116171418D01*
X137133026Y-116203050D01*
X137110943Y-116205000D01*
X134314700Y-116205000D01*
X134246579Y-116184998D01*
X134200086Y-116131342D01*
X134188700Y-116079000D01*
X134188700Y-116063477D01*
X134208702Y-115995356D01*
X134237994Y-115963516D01*
X134303133Y-115913533D01*
X134311746Y-115902309D01*
X134363579Y-115834757D01*
X134391757Y-115798035D01*
X134396266Y-115787151D01*
X134435945Y-115691357D01*
X134447469Y-115663536D01*
X134448964Y-115652186D01*
X134465393Y-115527388D01*
X134466471Y-115519200D01*
X134452034Y-115409536D01*
X134448547Y-115383050D01*
X134448546Y-115383048D01*
X134447469Y-115374864D01*
X134405436Y-115273388D01*
X134394917Y-115247993D01*
X134394916Y-115247991D01*
X134391757Y-115240365D01*
X134303133Y-115124867D01*
X134187636Y-115036243D01*
X134072530Y-114988564D01*
X134060765Y-114983691D01*
X134053136Y-114980531D01*
X133908800Y-114961529D01*
X133900612Y-114962607D01*
X133772650Y-114979453D01*
X133772648Y-114979454D01*
X133764464Y-114980531D01*
X133752852Y-114985341D01*
X133637593Y-115033083D01*
X133637591Y-115033084D01*
X133629965Y-115036243D01*
X133514467Y-115124867D01*
X133425843Y-115240365D01*
X133422684Y-115247991D01*
X133422683Y-115247993D01*
X133412164Y-115273388D01*
X133370131Y-115374864D01*
X133369054Y-115383048D01*
X133369053Y-115383050D01*
X133365566Y-115409536D01*
X133351129Y-115519200D01*
X133352207Y-115527388D01*
X133368637Y-115652186D01*
X133370131Y-115663536D01*
X133381655Y-115691357D01*
X133421335Y-115787151D01*
X133425843Y-115798035D01*
X133454021Y-115834757D01*
X133505855Y-115902309D01*
X133514467Y-115913533D01*
X133579606Y-115963516D01*
X133621472Y-116020853D01*
X133628900Y-116063477D01*
X133628900Y-116079000D01*
X133608898Y-116147121D01*
X133555242Y-116193614D01*
X133502900Y-116205000D01*
X119089429Y-116205000D01*
X119021308Y-116184998D01*
X118974815Y-116131342D01*
X118964711Y-116061068D01*
X118994205Y-115996488D01*
X119000334Y-115989905D01*
X120661284Y-114328955D01*
X120662825Y-114327624D01*
X120667374Y-114325401D01*
X120698280Y-114292084D01*
X120701560Y-114288679D01*
X120713926Y-114276313D01*
X120716522Y-114272528D01*
X120718343Y-114270455D01*
X120730374Y-114257486D01*
X120738287Y-114248956D01*
X120742598Y-114238151D01*
X120746373Y-114232179D01*
X120748492Y-114228212D01*
X120751355Y-114221752D01*
X120757932Y-114212164D01*
X120763087Y-114190443D01*
X120768652Y-114172846D01*
X120773631Y-114160365D01*
X120776925Y-114152108D01*
X120777500Y-114146244D01*
X120777500Y-114143158D01*
X120777650Y-114140093D01*
X120778008Y-114140111D01*
X120778764Y-114133650D01*
X120778753Y-114133649D01*
X120779321Y-114122033D01*
X120782008Y-114110711D01*
X120778651Y-114086044D01*
X120777500Y-114069053D01*
X120777500Y-106806000D01*
X120797502Y-106737879D01*
X120851158Y-106691386D01*
X120903500Y-106680000D01*
X127357140Y-106680000D01*
X127423537Y-106698914D01*
G37*
%TD.AperFunction*%
%TA.AperFunction,Conductor*%
G36*
X222673537Y-106698914D02*
G01*
X222776025Y-106762460D01*
X222776036Y-106762466D01*
X222779578Y-106764662D01*
X223052017Y-106887101D01*
X223181870Y-106925812D01*
X223334257Y-106971241D01*
X223334259Y-106971242D01*
X223338256Y-106972433D01*
X223342376Y-106973086D01*
X223342378Y-106973086D01*
X223461110Y-106991891D01*
X223633266Y-107019158D01*
X223675560Y-107021079D01*
X223725265Y-107023336D01*
X223725284Y-107023336D01*
X223726684Y-107023400D01*
X223913261Y-107023400D01*
X224135531Y-107008637D01*
X224139625Y-107007812D01*
X224139629Y-107007811D01*
X224351519Y-106965086D01*
X224428325Y-106949599D01*
X224710740Y-106852356D01*
X224714483Y-106850482D01*
X224714487Y-106850480D01*
X224974069Y-106720491D01*
X224974071Y-106720490D01*
X224977813Y-106718616D01*
X225002577Y-106701786D01*
X225073397Y-106680000D01*
X228059093Y-106680000D01*
X228127214Y-106700002D01*
X228173707Y-106753658D01*
X228184015Y-106822446D01*
X228174451Y-106895095D01*
X228169329Y-106934000D01*
X228170407Y-106942187D01*
X228170407Y-106942188D01*
X228186004Y-107060658D01*
X228188331Y-107078336D01*
X228244043Y-107212835D01*
X228332667Y-107328333D01*
X228448164Y-107416957D01*
X228582664Y-107472669D01*
X228727000Y-107491671D01*
X228824750Y-107478802D01*
X228894897Y-107489741D01*
X228930291Y-107514629D01*
X229541220Y-108125559D01*
X229575245Y-108187871D01*
X229577046Y-108231098D01*
X229566329Y-108312500D01*
X229567407Y-108320688D01*
X229582215Y-108433165D01*
X229585331Y-108456836D01*
X229641043Y-108591335D01*
X229729667Y-108706833D01*
X229845164Y-108795457D01*
X229979664Y-108851169D01*
X230124000Y-108870171D01*
X230132188Y-108869093D01*
X230171163Y-108863962D01*
X230268336Y-108851169D01*
X230402836Y-108795457D01*
X230518333Y-108706833D01*
X230606957Y-108591335D01*
X230662669Y-108456836D01*
X230665786Y-108433165D01*
X230680593Y-108320688D01*
X230681671Y-108312500D01*
X230674910Y-108261147D01*
X230663747Y-108176350D01*
X230663746Y-108176348D01*
X230662669Y-108168164D01*
X230606957Y-108033665D01*
X230518333Y-107918167D01*
X230402836Y-107829543D01*
X230268336Y-107773831D01*
X230124000Y-107754829D01*
X230042598Y-107765546D01*
X229972450Y-107754607D01*
X229937057Y-107729719D01*
X229311933Y-107104595D01*
X229277907Y-107042283D01*
X229276106Y-106999056D01*
X229284671Y-106934000D01*
X229279549Y-106895095D01*
X229269985Y-106822446D01*
X229280925Y-106752297D01*
X229328053Y-106699199D01*
X229394907Y-106680000D01*
X241657140Y-106680000D01*
X241723537Y-106698914D01*
X241826025Y-106762460D01*
X241826036Y-106762466D01*
X241829578Y-106764662D01*
X242102017Y-106887101D01*
X242231870Y-106925812D01*
X242384257Y-106971241D01*
X242384259Y-106971242D01*
X242388256Y-106972433D01*
X242392376Y-106973086D01*
X242392378Y-106973086D01*
X242511110Y-106991891D01*
X242683266Y-107019158D01*
X242725560Y-107021079D01*
X242775265Y-107023336D01*
X242775284Y-107023336D01*
X242776684Y-107023400D01*
X242963261Y-107023400D01*
X243185531Y-107008637D01*
X243189625Y-107007812D01*
X243189629Y-107007811D01*
X243401519Y-106965086D01*
X243478325Y-106949599D01*
X243760740Y-106852356D01*
X243764483Y-106850482D01*
X243764487Y-106850480D01*
X244024069Y-106720491D01*
X244024071Y-106720490D01*
X244027813Y-106718616D01*
X244052577Y-106701786D01*
X244123397Y-106680000D01*
X249810000Y-106680000D01*
X249878121Y-106700002D01*
X249924614Y-106753658D01*
X249936000Y-106806000D01*
X249936000Y-116079000D01*
X249915998Y-116147121D01*
X249862342Y-116193614D01*
X249810000Y-116205000D01*
X214237829Y-116205000D01*
X214169708Y-116184998D01*
X214123215Y-116131342D01*
X214113111Y-116061068D01*
X214142605Y-115996488D01*
X214148734Y-115989905D01*
X215657284Y-114481355D01*
X215658825Y-114480024D01*
X215663374Y-114477801D01*
X215694280Y-114444484D01*
X215697560Y-114441079D01*
X215709926Y-114428713D01*
X215712522Y-114424928D01*
X215714343Y-114422855D01*
X215722216Y-114414369D01*
X215734287Y-114401356D01*
X215738598Y-114390551D01*
X215742373Y-114384579D01*
X215744492Y-114380612D01*
X215747355Y-114374152D01*
X215753932Y-114364564D01*
X215759087Y-114342843D01*
X215764652Y-114325246D01*
X215769631Y-114312765D01*
X215772925Y-114304508D01*
X215773500Y-114298644D01*
X215773500Y-114295558D01*
X215773650Y-114292493D01*
X215774008Y-114292511D01*
X215774764Y-114286050D01*
X215774753Y-114286049D01*
X215775321Y-114274433D01*
X215778008Y-114263111D01*
X215774651Y-114238444D01*
X215773500Y-114221453D01*
X215773500Y-106806000D01*
X215793502Y-106737879D01*
X215847158Y-106691386D01*
X215899500Y-106680000D01*
X222607140Y-106680000D01*
X222673537Y-106698914D01*
G37*
%TD.AperFunction*%
%TD*%
M02*
