M48
; DRILL file {KiCad (6.0.7-1)-1} date 2022 October 03, Monday 12:17:23
; FORMAT={-:-/ absolute / inch / decimal}
; #@! TF.CreationDate,2022-10-03T12:17:23+02:00
; #@! TF.GenerationSoftware,Kicad,Pcbnew,(6.0.7-1)-1
; #@! TF.FileFunction,NonPlated,1,2,NPTH
FMAT,2
INCH
; #@! TA.AperFunction,NonPlated,NPTH,ComponentDrill
T1C0.0670
; #@! TA.AperFunction,NonPlated,NPTH,ComponentDrill
T2C0.1200
; #@! TA.AperFunction,NonPlated,NPTH,ComponentDrill
T3C0.1570
%
G90
G05
T1
X2.05Y-3.375
X2.2375Y-4.125
X2.45Y-3.375
X2.6375Y-4.125
X3.175Y-3.375
X3.175Y-4.125
X3.4562Y-4.875
X3.575Y-3.375
X3.575Y-4.125
X3.8312Y-5.625
X3.8562Y-4.875
X4.1125Y-4.125
X4.2313Y-5.625
X4.3Y-3.375
X4.5125Y-4.125
X4.675Y-4.875
X4.7Y-3.375
X4.8625Y-4.125
X5.05Y-3.375
X5.075Y-4.875
X5.2375Y-5.625
X5.2625Y-4.125
X5.425Y-4.875
X5.45Y-3.375
X5.6125Y-4.125
X5.6125Y-6.375
X5.6375Y-5.625
X5.8Y-3.375
X5.825Y-4.875
X5.9875Y-5.625
X6.0125Y-4.125
X6.0125Y-6.375
X6.175Y-4.875
X6.2Y-3.375
X6.3625Y-4.125
X6.3625Y-6.375
X6.3875Y-5.625
X6.55Y-3.375
X6.575Y-4.875
X6.7375Y-5.625
X6.7625Y-4.125
X6.7625Y-6.375
X6.925Y-4.875
X6.95Y-3.375
X7.1125Y-4.125
X7.1125Y-6.375
X7.1375Y-5.625
X7.3Y-3.375
X7.325Y-4.875
X7.4875Y-5.625
X7.5125Y-4.125
X7.5125Y-6.375
X7.675Y-4.875
X7.7Y-3.375
X7.8625Y-4.125
X7.8875Y-5.625
X8.05Y-3.375
X8.075Y-4.875
X8.2375Y-5.625
X8.2625Y-4.125
X8.425Y-4.875
X8.45Y-3.375
X8.5187Y-6.375
X8.6125Y-4.125
X8.6375Y-5.625
X8.8Y-3.375
X8.825Y-4.875
X8.9187Y-6.375
X8.9875Y-5.625
X9.0125Y-4.125
X9.175Y-4.875
X9.2Y-3.375
X9.3625Y-4.125
X9.3875Y-5.625
X9.55Y-3.375
X9.575Y-4.875
X9.7375Y-5.625
X9.7625Y-4.125
X9.925Y-4.875
X9.95Y-3.375
X10.0187Y-6.375
X10.1125Y-4.125
X10.1375Y-5.625
X10.3Y-3.375
X10.325Y-4.875
X10.4187Y-6.375
X10.4875Y-5.625
X10.5125Y-4.125
X10.675Y-4.875
X10.7Y-3.375
X10.8625Y-4.125
X10.8875Y-5.625
X10.9562Y-6.375
X11.05Y-3.375
X11.075Y-4.875
X11.2375Y-5.625
X11.2625Y-4.125
X11.3562Y-6.375
X11.425Y-4.875
X11.45Y-3.375
X11.6125Y-4.125
X11.6375Y-5.625
X11.8Y-3.375
X11.825Y-4.875
X11.9875Y-5.625
X12.0125Y-4.125
X12.175Y-4.875
X12.2Y-3.375
X12.3625Y-4.125
X12.3875Y-5.625
X12.55Y-3.375
X12.575Y-4.875
X12.7375Y-5.625
X12.7625Y-4.125
X12.925Y-4.875
X12.95Y-3.375
X13.1125Y-4.125
X13.1375Y-5.625
X13.3Y-3.375
X13.325Y-4.875
X13.5125Y-4.125
X13.7Y-3.375
T2
X2.15Y-3.175
X2.3375Y-3.925
X2.4Y-3.275
X2.5875Y-4.025
X2.905Y-3.1
X3.1862Y-4.6
X3.275Y-3.175
X3.275Y-3.925
X3.525Y-3.275
X3.525Y-4.025
X3.5562Y-4.675
X3.5612Y-5.35
X3.8062Y-4.775
X3.845Y-3.1
X3.9312Y-5.425
X4.1262Y-4.6
X4.1812Y-5.525
X4.2125Y-3.925
X4.4Y-3.175
X4.4625Y-4.025
X4.5012Y-5.35
X4.65Y-3.275
X4.775Y-4.675
X4.9625Y-3.925
X5.025Y-4.775
X5.15Y-3.175
X5.2125Y-4.025
X5.3375Y-5.425
X5.4Y-3.275
X5.525Y-4.675
X5.5875Y-5.525
X5.7125Y-3.925
X5.7125Y-6.175
X5.775Y-4.775
X5.9Y-3.175
X5.9625Y-4.025
X5.9625Y-6.275
X6.0875Y-5.425
X6.15Y-3.275
X6.275Y-4.675
X6.3375Y-5.525
X6.4625Y-3.925
X6.4625Y-6.175
X6.525Y-4.775
X6.65Y-3.175
X6.7125Y-4.025
X6.7125Y-6.275
X6.8375Y-5.425
X6.9Y-3.275
X7.025Y-4.675
X7.0875Y-5.525
X7.2125Y-3.925
X7.2125Y-6.175
X7.275Y-4.775
X7.4Y-3.175
X7.4625Y-4.025
X7.4625Y-6.275
X7.5875Y-5.425
X7.65Y-3.275
X7.775Y-4.675
X7.8375Y-5.525
X7.9625Y-3.925
X8.025Y-4.775
X8.15Y-3.175
X8.2125Y-4.025
X8.2487Y-6.65
X8.3375Y-5.425
X8.4Y-3.275
X8.525Y-4.675
X8.5875Y-5.525
X8.6188Y-6.175
X8.7125Y-3.925
X8.775Y-4.775
X8.8688Y-6.275
X8.9Y-3.175
X8.9625Y-4.025
X9.0875Y-5.425
X9.15Y-3.275
X9.1888Y-6.65
X9.275Y-4.675
X9.3375Y-5.525
X9.4625Y-3.925
X9.525Y-4.775
X9.65Y-3.175
X9.7125Y-4.025
X9.8375Y-5.425
X9.9Y-3.275
X10.025Y-4.675
X10.0875Y-5.525
X10.1188Y-6.175
X10.2125Y-3.925
X10.275Y-4.775
X10.3688Y-6.275
X10.4Y-3.175
X10.4625Y-4.025
X10.5875Y-5.425
X10.65Y-3.275
X10.775Y-4.675
X10.8375Y-5.525
X10.9625Y-3.925
X11.025Y-4.775
X11.0563Y-6.175
X11.15Y-3.175
X11.2125Y-4.025
X11.3063Y-6.275
X11.3375Y-5.425
X11.4Y-3.275
X11.525Y-4.675
X11.5875Y-5.525
X11.7125Y-3.925
X11.775Y-4.775
X11.9Y-3.175
X11.9625Y-4.025
X12.0875Y-5.425
X12.15Y-3.275
X12.275Y-4.675
X12.3375Y-5.525
X12.4625Y-3.925
X12.525Y-4.775
X12.65Y-3.175
X12.7125Y-4.025
X12.8375Y-5.425
X12.9Y-3.275
X13.025Y-4.675
X13.0875Y-5.525
X13.2125Y-3.925
X13.275Y-4.775
X13.4Y-3.175
X13.4625Y-4.025
X13.65Y-3.275
T3
X2.25Y-3.375
X2.4375Y-4.125
X2.905Y-3.7
X3.1862Y-5.2
X3.375Y-3.375
X3.375Y-4.125
X3.5612Y-5.95
X3.6562Y-4.875
X3.845Y-3.7
X4.0312Y-5.625
X4.1262Y-5.2
X4.3125Y-4.125
X4.5Y-3.375
X4.5012Y-5.95
X4.875Y-4.875
X5.0625Y-4.125
X5.25Y-3.375
X5.4375Y-5.625
X5.625Y-4.875
X5.8125Y-4.125
X5.8125Y-6.375
X6.0Y-3.375
X6.1875Y-5.625
X6.375Y-4.875
X6.5625Y-4.125
X6.5625Y-6.375
X6.75Y-3.375
X6.9375Y-5.625
X7.125Y-4.875
X7.3125Y-4.125
X7.3125Y-6.375
X7.5Y-3.375
X7.6875Y-5.625
X7.875Y-4.875
X8.0625Y-4.125
X8.2487Y-6.05
X8.25Y-3.375
X8.4375Y-5.625
X8.625Y-4.875
X8.7188Y-6.375
X8.8125Y-4.125
X9.0Y-3.375
X9.1875Y-5.625
X9.1888Y-6.05
X9.375Y-4.875
X9.5625Y-4.125
X9.75Y-3.375
X9.9375Y-5.625
X10.125Y-4.875
X10.2188Y-6.375
X10.3125Y-4.125
X10.5Y-3.375
X10.6875Y-5.625
X10.875Y-4.875
X11.0625Y-4.125
X11.1562Y-6.375
X11.25Y-3.375
X11.4375Y-5.625
X11.625Y-4.875
X11.8125Y-4.125
X12.0Y-3.375
X12.1875Y-5.625
X12.375Y-4.875
X12.5625Y-4.125
X12.75Y-3.375
X12.9375Y-5.625
X13.125Y-4.875
X13.3125Y-4.125
X13.5Y-3.375
T0
M30
