%TF.GenerationSoftware,KiCad,Pcbnew,(6.0.7-1)-1*%
%TF.CreationDate,2022-10-03T12:17:23+02:00*%
%TF.ProjectId,hedgehog-lite,68656467-6568-46f6-972d-6c6974652e6b,rev?*%
%TF.SameCoordinates,Original*%
%TF.FileFunction,Legend,Top*%
%TF.FilePolarity,Positive*%
%FSLAX46Y46*%
G04 Gerber Fmt 4.6, Leading zero omitted, Abs format (unit mm)*
G04 Created by KiCad (PCBNEW (6.0.7-1)-1) date 2022-10-03 12:17:23*
%MOMM*%
%LPD*%
G01*
G04 APERTURE LIST*
G04 Aperture macros list*
%AMRoundRect*
0 Rectangle with rounded corners*
0 $1 Rounding radius*
0 $2 $3 $4 $5 $6 $7 $8 $9 X,Y pos of 4 corners*
0 Add a 4 corners polygon primitive as box body*
4,1,4,$2,$3,$4,$5,$6,$7,$8,$9,$2,$3,0*
0 Add four circle primitives for the rounded corners*
1,1,$1+$1,$2,$3*
1,1,$1+$1,$4,$5*
1,1,$1+$1,$6,$7*
1,1,$1+$1,$8,$9*
0 Add four rect primitives between the rounded corners*
20,1,$1+$1,$2,$3,$4,$5,0*
20,1,$1+$1,$4,$5,$6,$7,0*
20,1,$1+$1,$6,$7,$8,$9,0*
20,1,$1+$1,$8,$9,$2,$3,0*%
%AMFreePoly0*
4,1,22,0.500000,-0.750000,0.000000,-0.750000,0.000000,-0.745033,-0.079941,-0.743568,-0.215256,-0.701293,-0.333266,-0.622738,-0.424486,-0.514219,-0.481581,-0.384460,-0.499164,-0.250000,-0.500000,-0.250000,-0.500000,0.250000,-0.499164,0.250000,-0.499963,0.256109,-0.478152,0.396186,-0.417904,0.524511,-0.324060,0.630769,-0.204165,0.706417,-0.067858,0.745374,0.000000,0.744959,0.000000,0.750000,
0.500000,0.750000,0.500000,-0.750000,0.500000,-0.750000,$1*%
%AMFreePoly1*
4,1,20,0.000000,0.744959,0.073905,0.744508,0.209726,0.703889,0.328688,0.626782,0.421226,0.519385,0.479903,0.390333,0.500000,0.250000,0.500000,-0.250000,0.499851,-0.262216,0.476331,-0.402017,0.414519,-0.529596,0.319384,-0.634700,0.198574,-0.708877,0.061801,-0.746166,0.000000,-0.745033,0.000000,-0.750000,-0.500000,-0.750000,-0.500000,0.750000,0.000000,0.750000,0.000000,0.744959,
0.000000,0.744959,$1*%
G04 Aperture macros list end*
%ADD10C,0.300000*%
%ADD11C,0.150000*%
%ADD12C,0.254000*%
%ADD13C,0.120000*%
%ADD14C,0.063060*%
%ADD15C,0.200000*%
%ADD16C,0.450000*%
%ADD17FreePoly0,0.000000*%
%ADD18FreePoly1,0.000000*%
%ADD19R,1.100000X1.100000*%
%ADD20C,1.701800*%
%ADD21C,3.048000*%
%ADD22C,3.987800*%
%ADD23RoundRect,0.254000X-1.016000X-1.016000X1.016000X-1.016000X1.016000X1.016000X-1.016000X1.016000X0*%
%ADD24R,1.000000X1.000000*%
%ADD25O,1.000000X1.000000*%
%ADD26R,1.500000X1.000000*%
%ADD27RoundRect,0.250000X-0.250000X-0.475000X0.250000X-0.475000X0.250000X0.475000X-0.250000X0.475000X0*%
%ADD28R,1.800000X1.200000*%
%ADD29R,1.550000X0.600000*%
%ADD30RoundRect,0.250000X0.450000X-0.262500X0.450000X0.262500X-0.450000X0.262500X-0.450000X-0.262500X0*%
%ADD31RoundRect,0.250000X-0.262500X-0.450000X0.262500X-0.450000X0.262500X0.450000X-0.262500X0.450000X0*%
%ADD32RoundRect,0.250000X0.250000X0.475000X-0.250000X0.475000X-0.250000X-0.475000X0.250000X-0.475000X0*%
%ADD33RoundRect,0.062500X-0.062500X0.475000X-0.062500X-0.475000X0.062500X-0.475000X0.062500X0.475000X0*%
%ADD34RoundRect,0.062500X-0.475000X0.062500X-0.475000X-0.062500X0.475000X-0.062500X0.475000X0.062500X0*%
%ADD35R,5.200000X5.200000*%
%ADD36R,0.700000X1.500000*%
%ADD37R,1.000000X0.800000*%
%ADD38R,1.200000X1.400000*%
G04 APERTURE END LIST*
D10*
X125065885Y-142613771D02*
X125065885Y-141113771D01*
X125065885Y-141828057D02*
X125923028Y-141828057D01*
X125923028Y-142613771D02*
X125923028Y-141113771D01*
X126494457Y-141113771D02*
X126851600Y-142613771D01*
X127137314Y-141542342D01*
X127423028Y-142613771D01*
X127780171Y-141113771D01*
X128851600Y-141828057D02*
X129065885Y-141899485D01*
X129137314Y-141970914D01*
X129208742Y-142113771D01*
X129208742Y-142328057D01*
X129137314Y-142470914D01*
X129065885Y-142542342D01*
X128923028Y-142613771D01*
X128351600Y-142613771D01*
X128351600Y-141113771D01*
X128851600Y-141113771D01*
X128994457Y-141185200D01*
X129065885Y-141256628D01*
X129137314Y-141399485D01*
X129137314Y-141542342D01*
X129065885Y-141685200D01*
X128994457Y-141756628D01*
X128851600Y-141828057D01*
X128351600Y-141828057D01*
D11*
%TO.C,JP2*%
X120070666Y-137352380D02*
X120070666Y-138066666D01*
X120023047Y-138209523D01*
X119927809Y-138304761D01*
X119784952Y-138352380D01*
X119689714Y-138352380D01*
X120546857Y-138352380D02*
X120546857Y-137352380D01*
X120927809Y-137352380D01*
X121023047Y-137400000D01*
X121070666Y-137447619D01*
X121118285Y-137542857D01*
X121118285Y-137685714D01*
X121070666Y-137780952D01*
X121023047Y-137828571D01*
X120927809Y-137876190D01*
X120546857Y-137876190D01*
X121499238Y-137447619D02*
X121546857Y-137400000D01*
X121642095Y-137352380D01*
X121880190Y-137352380D01*
X121975428Y-137400000D01*
X122023047Y-137447619D01*
X122070666Y-137542857D01*
X122070666Y-137638095D01*
X122023047Y-137780952D01*
X121451619Y-138352380D01*
X122070666Y-138352380D01*
%TO.C,D5*%
X153059904Y-89434880D02*
X153059904Y-88434880D01*
X153298000Y-88434880D01*
X153440857Y-88482500D01*
X153536095Y-88577738D01*
X153583714Y-88672976D01*
X153631333Y-88863452D01*
X153631333Y-89006309D01*
X153583714Y-89196785D01*
X153536095Y-89292023D01*
X153440857Y-89387261D01*
X153298000Y-89434880D01*
X153059904Y-89434880D01*
X154536095Y-88434880D02*
X154059904Y-88434880D01*
X154012285Y-88911071D01*
X154059904Y-88863452D01*
X154155142Y-88815833D01*
X154393238Y-88815833D01*
X154488476Y-88863452D01*
X154536095Y-88911071D01*
X154583714Y-89006309D01*
X154583714Y-89244404D01*
X154536095Y-89339642D01*
X154488476Y-89387261D01*
X154393238Y-89434880D01*
X154155142Y-89434880D01*
X154059904Y-89387261D01*
X154012285Y-89339642D01*
%TO.C,D88*%
X51583714Y-89434880D02*
X51583714Y-88434880D01*
X51821809Y-88434880D01*
X51964666Y-88482500D01*
X52059904Y-88577738D01*
X52107523Y-88672976D01*
X52155142Y-88863452D01*
X52155142Y-89006309D01*
X52107523Y-89196785D01*
X52059904Y-89292023D01*
X51964666Y-89387261D01*
X51821809Y-89434880D01*
X51583714Y-89434880D01*
X52726571Y-88863452D02*
X52631333Y-88815833D01*
X52583714Y-88768214D01*
X52536095Y-88672976D01*
X52536095Y-88625357D01*
X52583714Y-88530119D01*
X52631333Y-88482500D01*
X52726571Y-88434880D01*
X52917047Y-88434880D01*
X53012285Y-88482500D01*
X53059904Y-88530119D01*
X53107523Y-88625357D01*
X53107523Y-88672976D01*
X53059904Y-88768214D01*
X53012285Y-88815833D01*
X52917047Y-88863452D01*
X52726571Y-88863452D01*
X52631333Y-88911071D01*
X52583714Y-88958690D01*
X52536095Y-89053928D01*
X52536095Y-89244404D01*
X52583714Y-89339642D01*
X52631333Y-89387261D01*
X52726571Y-89434880D01*
X52917047Y-89434880D01*
X53012285Y-89387261D01*
X53059904Y-89339642D01*
X53107523Y-89244404D01*
X53107523Y-89053928D01*
X53059904Y-88958690D01*
X53012285Y-88911071D01*
X52917047Y-88863452D01*
X53678952Y-88863452D02*
X53583714Y-88815833D01*
X53536095Y-88768214D01*
X53488476Y-88672976D01*
X53488476Y-88625357D01*
X53536095Y-88530119D01*
X53583714Y-88482500D01*
X53678952Y-88434880D01*
X53869428Y-88434880D01*
X53964666Y-88482500D01*
X54012285Y-88530119D01*
X54059904Y-88625357D01*
X54059904Y-88672976D01*
X54012285Y-88768214D01*
X53964666Y-88815833D01*
X53869428Y-88863452D01*
X53678952Y-88863452D01*
X53583714Y-88911071D01*
X53536095Y-88958690D01*
X53488476Y-89053928D01*
X53488476Y-89244404D01*
X53536095Y-89339642D01*
X53583714Y-89387261D01*
X53678952Y-89434880D01*
X53869428Y-89434880D01*
X53964666Y-89387261D01*
X54012285Y-89339642D01*
X54059904Y-89244404D01*
X54059904Y-89053928D01*
X54012285Y-88958690D01*
X53964666Y-88911071D01*
X53869428Y-88863452D01*
%TO.C,JP1*%
X82935866Y-136031580D02*
X82935866Y-136745866D01*
X82888247Y-136888723D01*
X82793009Y-136983961D01*
X82650152Y-137031580D01*
X82554914Y-137031580D01*
X83412057Y-137031580D02*
X83412057Y-136031580D01*
X83793009Y-136031580D01*
X83888247Y-136079200D01*
X83935866Y-136126819D01*
X83983485Y-136222057D01*
X83983485Y-136364914D01*
X83935866Y-136460152D01*
X83888247Y-136507771D01*
X83793009Y-136555390D01*
X83412057Y-136555390D01*
X84935866Y-137031580D02*
X84364438Y-137031580D01*
X84650152Y-137031580D02*
X84650152Y-136031580D01*
X84554914Y-136174438D01*
X84459676Y-136269676D01*
X84364438Y-136317295D01*
%TO.C,D11*%
X291647714Y-111386880D02*
X291647714Y-110386880D01*
X291885809Y-110386880D01*
X292028666Y-110434500D01*
X292123904Y-110529738D01*
X292171523Y-110624976D01*
X292219142Y-110815452D01*
X292219142Y-110958309D01*
X292171523Y-111148785D01*
X292123904Y-111244023D01*
X292028666Y-111339261D01*
X291885809Y-111386880D01*
X291647714Y-111386880D01*
X293171523Y-111386880D02*
X292600095Y-111386880D01*
X292885809Y-111386880D02*
X292885809Y-110386880D01*
X292790571Y-110529738D01*
X292695333Y-110624976D01*
X292600095Y-110672595D01*
X294123904Y-111386880D02*
X293552476Y-111386880D01*
X293838190Y-111386880D02*
X293838190Y-110386880D01*
X293742952Y-110529738D01*
X293647714Y-110624976D01*
X293552476Y-110672595D01*
%TO.C,J2*%
X51235666Y-105572980D02*
X51235666Y-106287266D01*
X51188047Y-106430123D01*
X51092809Y-106525361D01*
X50949952Y-106572980D01*
X50854714Y-106572980D01*
X51664238Y-105668219D02*
X51711857Y-105620600D01*
X51807095Y-105572980D01*
X52045190Y-105572980D01*
X52140428Y-105620600D01*
X52188047Y-105668219D01*
X52235666Y-105763457D01*
X52235666Y-105858695D01*
X52188047Y-106001552D01*
X51616619Y-106572980D01*
X52235666Y-106572980D01*
%TO.C,D31*%
X293705114Y-147899380D02*
X293705114Y-146899380D01*
X293943209Y-146899380D01*
X294086066Y-146947000D01*
X294181304Y-147042238D01*
X294228923Y-147137476D01*
X294276542Y-147327952D01*
X294276542Y-147470809D01*
X294228923Y-147661285D01*
X294181304Y-147756523D01*
X294086066Y-147851761D01*
X293943209Y-147899380D01*
X293705114Y-147899380D01*
X294609876Y-146899380D02*
X295228923Y-146899380D01*
X294895590Y-147280333D01*
X295038447Y-147280333D01*
X295133685Y-147327952D01*
X295181304Y-147375571D01*
X295228923Y-147470809D01*
X295228923Y-147708904D01*
X295181304Y-147804142D01*
X295133685Y-147851761D01*
X295038447Y-147899380D01*
X294752733Y-147899380D01*
X294657495Y-147851761D01*
X294609876Y-147804142D01*
X296181304Y-147899380D02*
X295609876Y-147899380D01*
X295895590Y-147899380D02*
X295895590Y-146899380D01*
X295800352Y-147042238D01*
X295705114Y-147137476D01*
X295609876Y-147185095D01*
%TO.C,D60*%
X321924514Y-109875580D02*
X321924514Y-108875580D01*
X322162609Y-108875580D01*
X322305466Y-108923200D01*
X322400704Y-109018438D01*
X322448323Y-109113676D01*
X322495942Y-109304152D01*
X322495942Y-109447009D01*
X322448323Y-109637485D01*
X322400704Y-109732723D01*
X322305466Y-109827961D01*
X322162609Y-109875580D01*
X321924514Y-109875580D01*
X323353085Y-108875580D02*
X323162609Y-108875580D01*
X323067371Y-108923200D01*
X323019752Y-108970819D01*
X322924514Y-109113676D01*
X322876895Y-109304152D01*
X322876895Y-109685104D01*
X322924514Y-109780342D01*
X322972133Y-109827961D01*
X323067371Y-109875580D01*
X323257847Y-109875580D01*
X323353085Y-109827961D01*
X323400704Y-109780342D01*
X323448323Y-109685104D01*
X323448323Y-109447009D01*
X323400704Y-109351771D01*
X323353085Y-109304152D01*
X323257847Y-109256533D01*
X323067371Y-109256533D01*
X322972133Y-109304152D01*
X322924514Y-109351771D01*
X322876895Y-109447009D01*
X324067371Y-108875580D02*
X324162609Y-108875580D01*
X324257847Y-108923200D01*
X324305466Y-108970819D01*
X324353085Y-109066057D01*
X324400704Y-109256533D01*
X324400704Y-109494628D01*
X324353085Y-109685104D01*
X324305466Y-109780342D01*
X324257847Y-109827961D01*
X324162609Y-109875580D01*
X324067371Y-109875580D01*
X323972133Y-109827961D01*
X323924514Y-109780342D01*
X323876895Y-109685104D01*
X323829276Y-109494628D01*
X323829276Y-109256533D01*
X323876895Y-109066057D01*
X323924514Y-108970819D01*
X323972133Y-108923200D01*
X324067371Y-108875580D01*
%TO.C,D41*%
X272848714Y-161257380D02*
X272848714Y-160257380D01*
X273086809Y-160257380D01*
X273229666Y-160305000D01*
X273324904Y-160400238D01*
X273372523Y-160495476D01*
X273420142Y-160685952D01*
X273420142Y-160828809D01*
X273372523Y-161019285D01*
X273324904Y-161114523D01*
X273229666Y-161209761D01*
X273086809Y-161257380D01*
X272848714Y-161257380D01*
X274277285Y-160590714D02*
X274277285Y-161257380D01*
X274039190Y-160209761D02*
X273801095Y-160924047D01*
X274420142Y-160924047D01*
X275324904Y-161257380D02*
X274753476Y-161257380D01*
X275039190Y-161257380D02*
X275039190Y-160257380D01*
X274943952Y-160400238D01*
X274848714Y-160495476D01*
X274753476Y-160543095D01*
%TO.C,D3*%
X230059904Y-89434880D02*
X230059904Y-88434880D01*
X230298000Y-88434880D01*
X230440857Y-88482500D01*
X230536095Y-88577738D01*
X230583714Y-88672976D01*
X230631333Y-88863452D01*
X230631333Y-89006309D01*
X230583714Y-89196785D01*
X230536095Y-89292023D01*
X230440857Y-89387261D01*
X230298000Y-89434880D01*
X230059904Y-89434880D01*
X230964666Y-88434880D02*
X231583714Y-88434880D01*
X231250380Y-88815833D01*
X231393238Y-88815833D01*
X231488476Y-88863452D01*
X231536095Y-88911071D01*
X231583714Y-89006309D01*
X231583714Y-89244404D01*
X231536095Y-89339642D01*
X231488476Y-89387261D01*
X231393238Y-89434880D01*
X231107523Y-89434880D01*
X231012285Y-89387261D01*
X230964666Y-89339642D01*
%TO.C,D2*%
X273327904Y-90139780D02*
X273327904Y-89139780D01*
X273566000Y-89139780D01*
X273708857Y-89187400D01*
X273804095Y-89282638D01*
X273851714Y-89377876D01*
X273899333Y-89568352D01*
X273899333Y-89711209D01*
X273851714Y-89901685D01*
X273804095Y-89996923D01*
X273708857Y-90092161D01*
X273566000Y-90139780D01*
X273327904Y-90139780D01*
X274280285Y-89235019D02*
X274327904Y-89187400D01*
X274423142Y-89139780D01*
X274661238Y-89139780D01*
X274756476Y-89187400D01*
X274804095Y-89235019D01*
X274851714Y-89330257D01*
X274851714Y-89425495D01*
X274804095Y-89568352D01*
X274232666Y-90139780D01*
X274851714Y-90139780D01*
%TO.C,DL14*%
X102805952Y-90339880D02*
X102805952Y-89339880D01*
X103044047Y-89339880D01*
X103186904Y-89387500D01*
X103282142Y-89482738D01*
X103329761Y-89577976D01*
X103377380Y-89768452D01*
X103377380Y-89911309D01*
X103329761Y-90101785D01*
X103282142Y-90197023D01*
X103186904Y-90292261D01*
X103044047Y-90339880D01*
X102805952Y-90339880D01*
X104282142Y-90339880D02*
X103805952Y-90339880D01*
X103805952Y-89339880D01*
X105139285Y-90339880D02*
X104567857Y-90339880D01*
X104853571Y-90339880D02*
X104853571Y-89339880D01*
X104758333Y-89482738D01*
X104663095Y-89577976D01*
X104567857Y-89625595D01*
X105996428Y-89673214D02*
X105996428Y-90339880D01*
X105758333Y-89292261D02*
X105520238Y-90006547D01*
X106139285Y-90006547D01*
X100560714Y-92239880D02*
X99989285Y-92239880D01*
X100275000Y-92239880D02*
X100275000Y-91239880D01*
X100179761Y-91382738D01*
X100084523Y-91477976D01*
X99989285Y-91525595D01*
%TO.C,DL1*%
X88112742Y-133644780D02*
X88112742Y-132644780D01*
X88350838Y-132644780D01*
X88493695Y-132692400D01*
X88588933Y-132787638D01*
X88636552Y-132882876D01*
X88684171Y-133073352D01*
X88684171Y-133216209D01*
X88636552Y-133406685D01*
X88588933Y-133501923D01*
X88493695Y-133597161D01*
X88350838Y-133644780D01*
X88112742Y-133644780D01*
X89588933Y-133644780D02*
X89112742Y-133644780D01*
X89112742Y-132644780D01*
X90446076Y-133644780D02*
X89874647Y-133644780D01*
X90160361Y-133644780D02*
X90160361Y-132644780D01*
X90065123Y-132787638D01*
X89969885Y-132882876D01*
X89874647Y-132930495D01*
X93691314Y-131744780D02*
X93119885Y-131744780D01*
X93405600Y-131744780D02*
X93405600Y-130744780D01*
X93310361Y-130887638D01*
X93215123Y-130982876D01*
X93119885Y-131030495D01*
%TO.C,D53*%
X199733714Y-144872380D02*
X199733714Y-143872380D01*
X199971809Y-143872380D01*
X200114666Y-143920000D01*
X200209904Y-144015238D01*
X200257523Y-144110476D01*
X200305142Y-144300952D01*
X200305142Y-144443809D01*
X200257523Y-144634285D01*
X200209904Y-144729523D01*
X200114666Y-144824761D01*
X199971809Y-144872380D01*
X199733714Y-144872380D01*
X201209904Y-143872380D02*
X200733714Y-143872380D01*
X200686095Y-144348571D01*
X200733714Y-144300952D01*
X200828952Y-144253333D01*
X201067047Y-144253333D01*
X201162285Y-144300952D01*
X201209904Y-144348571D01*
X201257523Y-144443809D01*
X201257523Y-144681904D01*
X201209904Y-144777142D01*
X201162285Y-144824761D01*
X201067047Y-144872380D01*
X200828952Y-144872380D01*
X200733714Y-144824761D01*
X200686095Y-144777142D01*
X201590857Y-143872380D02*
X202209904Y-143872380D01*
X201876571Y-144253333D01*
X202019428Y-144253333D01*
X202114666Y-144300952D01*
X202162285Y-144348571D01*
X202209904Y-144443809D01*
X202209904Y-144681904D01*
X202162285Y-144777142D01*
X202114666Y-144824761D01*
X202019428Y-144872380D01*
X201733714Y-144872380D01*
X201638476Y-144824761D01*
X201590857Y-144777142D01*
%TO.C,D44*%
X187964914Y-163774380D02*
X187964914Y-162774380D01*
X188203009Y-162774380D01*
X188345866Y-162822000D01*
X188441104Y-162917238D01*
X188488723Y-163012476D01*
X188536342Y-163202952D01*
X188536342Y-163345809D01*
X188488723Y-163536285D01*
X188441104Y-163631523D01*
X188345866Y-163726761D01*
X188203009Y-163774380D01*
X187964914Y-163774380D01*
X189393485Y-163107714D02*
X189393485Y-163774380D01*
X189155390Y-162726761D02*
X188917295Y-163441047D01*
X189536342Y-163441047D01*
X190345866Y-163107714D02*
X190345866Y-163774380D01*
X190107771Y-162726761D02*
X189869676Y-163441047D01*
X190488723Y-163441047D01*
%TO.C,D54*%
X165533714Y-146906380D02*
X165533714Y-145906380D01*
X165771809Y-145906380D01*
X165914666Y-145954000D01*
X166009904Y-146049238D01*
X166057523Y-146144476D01*
X166105142Y-146334952D01*
X166105142Y-146477809D01*
X166057523Y-146668285D01*
X166009904Y-146763523D01*
X165914666Y-146858761D01*
X165771809Y-146906380D01*
X165533714Y-146906380D01*
X167009904Y-145906380D02*
X166533714Y-145906380D01*
X166486095Y-146382571D01*
X166533714Y-146334952D01*
X166628952Y-146287333D01*
X166867047Y-146287333D01*
X166962285Y-146334952D01*
X167009904Y-146382571D01*
X167057523Y-146477809D01*
X167057523Y-146715904D01*
X167009904Y-146811142D01*
X166962285Y-146858761D01*
X166867047Y-146906380D01*
X166628952Y-146906380D01*
X166533714Y-146858761D01*
X166486095Y-146811142D01*
X167914666Y-146239714D02*
X167914666Y-146906380D01*
X167676571Y-145858761D02*
X167438476Y-146573047D01*
X168057523Y-146573047D01*
%TO.C,D16*%
X122864714Y-107386380D02*
X122864714Y-106386380D01*
X123102809Y-106386380D01*
X123245666Y-106434000D01*
X123340904Y-106529238D01*
X123388523Y-106624476D01*
X123436142Y-106814952D01*
X123436142Y-106957809D01*
X123388523Y-107148285D01*
X123340904Y-107243523D01*
X123245666Y-107338761D01*
X123102809Y-107386380D01*
X122864714Y-107386380D01*
X124388523Y-107386380D02*
X123817095Y-107386380D01*
X124102809Y-107386380D02*
X124102809Y-106386380D01*
X124007571Y-106529238D01*
X123912333Y-106624476D01*
X123817095Y-106672095D01*
X125245666Y-106386380D02*
X125055190Y-106386380D01*
X124959952Y-106434000D01*
X124912333Y-106481619D01*
X124817095Y-106624476D01*
X124769476Y-106814952D01*
X124769476Y-107195904D01*
X124817095Y-107291142D01*
X124864714Y-107338761D01*
X124959952Y-107386380D01*
X125150428Y-107386380D01*
X125245666Y-107338761D01*
X125293285Y-107291142D01*
X125340904Y-107195904D01*
X125340904Y-106957809D01*
X125293285Y-106862571D01*
X125245666Y-106814952D01*
X125150428Y-106767333D01*
X124959952Y-106767333D01*
X124864714Y-106814952D01*
X124817095Y-106862571D01*
X124769476Y-106957809D01*
%TO.C,D14*%
X180395714Y-107386380D02*
X180395714Y-106386380D01*
X180633809Y-106386380D01*
X180776666Y-106434000D01*
X180871904Y-106529238D01*
X180919523Y-106624476D01*
X180967142Y-106814952D01*
X180967142Y-106957809D01*
X180919523Y-107148285D01*
X180871904Y-107243523D01*
X180776666Y-107338761D01*
X180633809Y-107386380D01*
X180395714Y-107386380D01*
X181919523Y-107386380D02*
X181348095Y-107386380D01*
X181633809Y-107386380D02*
X181633809Y-106386380D01*
X181538571Y-106529238D01*
X181443333Y-106624476D01*
X181348095Y-106672095D01*
X182776666Y-106719714D02*
X182776666Y-107386380D01*
X182538571Y-106338761D02*
X182300476Y-107053047D01*
X182919523Y-107053047D01*
%TO.C,D20*%
X325048714Y-130309880D02*
X325048714Y-129309880D01*
X325286809Y-129309880D01*
X325429666Y-129357500D01*
X325524904Y-129452738D01*
X325572523Y-129547976D01*
X325620142Y-129738452D01*
X325620142Y-129881309D01*
X325572523Y-130071785D01*
X325524904Y-130167023D01*
X325429666Y-130262261D01*
X325286809Y-130309880D01*
X325048714Y-130309880D01*
X326001095Y-129405119D02*
X326048714Y-129357500D01*
X326143952Y-129309880D01*
X326382047Y-129309880D01*
X326477285Y-129357500D01*
X326524904Y-129405119D01*
X326572523Y-129500357D01*
X326572523Y-129595595D01*
X326524904Y-129738452D01*
X325953476Y-130309880D01*
X326572523Y-130309880D01*
X327191571Y-129309880D02*
X327286809Y-129309880D01*
X327382047Y-129357500D01*
X327429666Y-129405119D01*
X327477285Y-129500357D01*
X327524904Y-129690833D01*
X327524904Y-129928928D01*
X327477285Y-130119404D01*
X327429666Y-130214642D01*
X327382047Y-130262261D01*
X327286809Y-130309880D01*
X327191571Y-130309880D01*
X327096333Y-130262261D01*
X327048714Y-130214642D01*
X327001095Y-130119404D01*
X326953476Y-129928928D01*
X326953476Y-129690833D01*
X327001095Y-129500357D01*
X327048714Y-129405119D01*
X327096333Y-129357500D01*
X327191571Y-129309880D01*
%TO.C,D30*%
X320222714Y-149232880D02*
X320222714Y-148232880D01*
X320460809Y-148232880D01*
X320603666Y-148280500D01*
X320698904Y-148375738D01*
X320746523Y-148470976D01*
X320794142Y-148661452D01*
X320794142Y-148804309D01*
X320746523Y-148994785D01*
X320698904Y-149090023D01*
X320603666Y-149185261D01*
X320460809Y-149232880D01*
X320222714Y-149232880D01*
X321127476Y-148232880D02*
X321746523Y-148232880D01*
X321413190Y-148613833D01*
X321556047Y-148613833D01*
X321651285Y-148661452D01*
X321698904Y-148709071D01*
X321746523Y-148804309D01*
X321746523Y-149042404D01*
X321698904Y-149137642D01*
X321651285Y-149185261D01*
X321556047Y-149232880D01*
X321270333Y-149232880D01*
X321175095Y-149185261D01*
X321127476Y-149137642D01*
X322365571Y-148232880D02*
X322460809Y-148232880D01*
X322556047Y-148280500D01*
X322603666Y-148328119D01*
X322651285Y-148423357D01*
X322698904Y-148613833D01*
X322698904Y-148851928D01*
X322651285Y-149042404D01*
X322603666Y-149137642D01*
X322556047Y-149185261D01*
X322460809Y-149232880D01*
X322365571Y-149232880D01*
X322270333Y-149185261D01*
X322222714Y-149137642D01*
X322175095Y-149042404D01*
X322127476Y-148851928D01*
X322127476Y-148613833D01*
X322175095Y-148423357D01*
X322222714Y-148328119D01*
X322270333Y-148280500D01*
X322365571Y-148232880D01*
%TO.C,C3*%
X66658333Y-134351142D02*
X66610714Y-134398761D01*
X66467857Y-134446380D01*
X66372619Y-134446380D01*
X66229761Y-134398761D01*
X66134523Y-134303523D01*
X66086904Y-134208285D01*
X66039285Y-134017809D01*
X66039285Y-133874952D01*
X66086904Y-133684476D01*
X66134523Y-133589238D01*
X66229761Y-133494000D01*
X66372619Y-133446380D01*
X66467857Y-133446380D01*
X66610714Y-133494000D01*
X66658333Y-133541619D01*
X66991666Y-133446380D02*
X67610714Y-133446380D01*
X67277380Y-133827333D01*
X67420238Y-133827333D01*
X67515476Y-133874952D01*
X67563095Y-133922571D01*
X67610714Y-134017809D01*
X67610714Y-134255904D01*
X67563095Y-134351142D01*
X67515476Y-134398761D01*
X67420238Y-134446380D01*
X67134523Y-134446380D01*
X67039285Y-134398761D01*
X66991666Y-134351142D01*
%TO.C,D4*%
X191559904Y-89434880D02*
X191559904Y-88434880D01*
X191798000Y-88434880D01*
X191940857Y-88482500D01*
X192036095Y-88577738D01*
X192083714Y-88672976D01*
X192131333Y-88863452D01*
X192131333Y-89006309D01*
X192083714Y-89196785D01*
X192036095Y-89292023D01*
X191940857Y-89387261D01*
X191798000Y-89434880D01*
X191559904Y-89434880D01*
X192988476Y-88768214D02*
X192988476Y-89434880D01*
X192750380Y-88387261D02*
X192512285Y-89101547D01*
X193131333Y-89101547D01*
%TO.C,DL3*%
X177282142Y-134339880D02*
X177282142Y-133339880D01*
X177520238Y-133339880D01*
X177663095Y-133387500D01*
X177758333Y-133482738D01*
X177805952Y-133577976D01*
X177853571Y-133768452D01*
X177853571Y-133911309D01*
X177805952Y-134101785D01*
X177758333Y-134197023D01*
X177663095Y-134292261D01*
X177520238Y-134339880D01*
X177282142Y-134339880D01*
X178758333Y-134339880D02*
X178282142Y-134339880D01*
X178282142Y-133339880D01*
X178996428Y-133339880D02*
X179615476Y-133339880D01*
X179282142Y-133720833D01*
X179425000Y-133720833D01*
X179520238Y-133768452D01*
X179567857Y-133816071D01*
X179615476Y-133911309D01*
X179615476Y-134149404D01*
X179567857Y-134244642D01*
X179520238Y-134292261D01*
X179425000Y-134339880D01*
X179139285Y-134339880D01*
X179044047Y-134292261D01*
X178996428Y-134244642D01*
X182860714Y-132439880D02*
X182289285Y-132439880D01*
X182575000Y-132439880D02*
X182575000Y-131439880D01*
X182479761Y-131582738D01*
X182384523Y-131677976D01*
X182289285Y-131725595D01*
%TO.C,D81*%
X286110514Y-88895180D02*
X286110514Y-87895180D01*
X286348609Y-87895180D01*
X286491466Y-87942800D01*
X286586704Y-88038038D01*
X286634323Y-88133276D01*
X286681942Y-88323752D01*
X286681942Y-88466609D01*
X286634323Y-88657085D01*
X286586704Y-88752323D01*
X286491466Y-88847561D01*
X286348609Y-88895180D01*
X286110514Y-88895180D01*
X287253371Y-88323752D02*
X287158133Y-88276133D01*
X287110514Y-88228514D01*
X287062895Y-88133276D01*
X287062895Y-88085657D01*
X287110514Y-87990419D01*
X287158133Y-87942800D01*
X287253371Y-87895180D01*
X287443847Y-87895180D01*
X287539085Y-87942800D01*
X287586704Y-87990419D01*
X287634323Y-88085657D01*
X287634323Y-88133276D01*
X287586704Y-88228514D01*
X287539085Y-88276133D01*
X287443847Y-88323752D01*
X287253371Y-88323752D01*
X287158133Y-88371371D01*
X287110514Y-88418990D01*
X287062895Y-88514228D01*
X287062895Y-88704704D01*
X287110514Y-88799942D01*
X287158133Y-88847561D01*
X287253371Y-88895180D01*
X287443847Y-88895180D01*
X287539085Y-88847561D01*
X287586704Y-88799942D01*
X287634323Y-88704704D01*
X287634323Y-88514228D01*
X287586704Y-88418990D01*
X287539085Y-88371371D01*
X287443847Y-88323752D01*
X288586704Y-88895180D02*
X288015276Y-88895180D01*
X288300990Y-88895180D02*
X288300990Y-87895180D01*
X288205752Y-88038038D01*
X288110514Y-88133276D01*
X288015276Y-88180895D01*
%TO.C,D10*%
X329747714Y-111386880D02*
X329747714Y-110386880D01*
X329985809Y-110386880D01*
X330128666Y-110434500D01*
X330223904Y-110529738D01*
X330271523Y-110624976D01*
X330319142Y-110815452D01*
X330319142Y-110958309D01*
X330271523Y-111148785D01*
X330223904Y-111244023D01*
X330128666Y-111339261D01*
X329985809Y-111386880D01*
X329747714Y-111386880D01*
X331271523Y-111386880D02*
X330700095Y-111386880D01*
X330985809Y-111386880D02*
X330985809Y-110386880D01*
X330890571Y-110529738D01*
X330795333Y-110624976D01*
X330700095Y-110672595D01*
X331890571Y-110386880D02*
X331985809Y-110386880D01*
X332081047Y-110434500D01*
X332128666Y-110482119D01*
X332176285Y-110577357D01*
X332223904Y-110767833D01*
X332223904Y-111005928D01*
X332176285Y-111196404D01*
X332128666Y-111291642D01*
X332081047Y-111339261D01*
X331985809Y-111386880D01*
X331890571Y-111386880D01*
X331795333Y-111339261D01*
X331747714Y-111291642D01*
X331700095Y-111196404D01*
X331652476Y-111005928D01*
X331652476Y-110767833D01*
X331700095Y-110577357D01*
X331747714Y-110482119D01*
X331795333Y-110434500D01*
X331890571Y-110386880D01*
%TO.C,D50*%
X319583714Y-125934880D02*
X319583714Y-124934880D01*
X319821809Y-124934880D01*
X319964666Y-124982500D01*
X320059904Y-125077738D01*
X320107523Y-125172976D01*
X320155142Y-125363452D01*
X320155142Y-125506309D01*
X320107523Y-125696785D01*
X320059904Y-125792023D01*
X319964666Y-125887261D01*
X319821809Y-125934880D01*
X319583714Y-125934880D01*
X321059904Y-124934880D02*
X320583714Y-124934880D01*
X320536095Y-125411071D01*
X320583714Y-125363452D01*
X320678952Y-125315833D01*
X320917047Y-125315833D01*
X321012285Y-125363452D01*
X321059904Y-125411071D01*
X321107523Y-125506309D01*
X321107523Y-125744404D01*
X321059904Y-125839642D01*
X321012285Y-125887261D01*
X320917047Y-125934880D01*
X320678952Y-125934880D01*
X320583714Y-125887261D01*
X320536095Y-125839642D01*
X321726571Y-124934880D02*
X321821809Y-124934880D01*
X321917047Y-124982500D01*
X321964666Y-125030119D01*
X322012285Y-125125357D01*
X322059904Y-125315833D01*
X322059904Y-125553928D01*
X322012285Y-125744404D01*
X321964666Y-125839642D01*
X321917047Y-125887261D01*
X321821809Y-125934880D01*
X321726571Y-125934880D01*
X321631333Y-125887261D01*
X321583714Y-125839642D01*
X321536095Y-125744404D01*
X321488476Y-125553928D01*
X321488476Y-125315833D01*
X321536095Y-125125357D01*
X321583714Y-125030119D01*
X321631333Y-124982500D01*
X321726571Y-124934880D01*
%TO.C,D35*%
X129722714Y-149486880D02*
X129722714Y-148486880D01*
X129960809Y-148486880D01*
X130103666Y-148534500D01*
X130198904Y-148629738D01*
X130246523Y-148724976D01*
X130294142Y-148915452D01*
X130294142Y-149058309D01*
X130246523Y-149248785D01*
X130198904Y-149344023D01*
X130103666Y-149439261D01*
X129960809Y-149486880D01*
X129722714Y-149486880D01*
X130627476Y-148486880D02*
X131246523Y-148486880D01*
X130913190Y-148867833D01*
X131056047Y-148867833D01*
X131151285Y-148915452D01*
X131198904Y-148963071D01*
X131246523Y-149058309D01*
X131246523Y-149296404D01*
X131198904Y-149391642D01*
X131151285Y-149439261D01*
X131056047Y-149486880D01*
X130770333Y-149486880D01*
X130675095Y-149439261D01*
X130627476Y-149391642D01*
X132151285Y-148486880D02*
X131675095Y-148486880D01*
X131627476Y-148963071D01*
X131675095Y-148915452D01*
X131770333Y-148867833D01*
X132008428Y-148867833D01*
X132103666Y-148915452D01*
X132151285Y-148963071D01*
X132198904Y-149058309D01*
X132198904Y-149296404D01*
X132151285Y-149391642D01*
X132103666Y-149439261D01*
X132008428Y-149486880D01*
X131770333Y-149486880D01*
X131675095Y-149439261D01*
X131627476Y-149391642D01*
%TO.C,D38*%
X68622380Y-107966285D02*
X67622380Y-107966285D01*
X67622380Y-107728190D01*
X67670000Y-107585333D01*
X67765238Y-107490095D01*
X67860476Y-107442476D01*
X68050952Y-107394857D01*
X68193809Y-107394857D01*
X68384285Y-107442476D01*
X68479523Y-107490095D01*
X68574761Y-107585333D01*
X68622380Y-107728190D01*
X68622380Y-107966285D01*
X67622380Y-107061523D02*
X67622380Y-106442476D01*
X68003333Y-106775809D01*
X68003333Y-106632952D01*
X68050952Y-106537714D01*
X68098571Y-106490095D01*
X68193809Y-106442476D01*
X68431904Y-106442476D01*
X68527142Y-106490095D01*
X68574761Y-106537714D01*
X68622380Y-106632952D01*
X68622380Y-106918666D01*
X68574761Y-107013904D01*
X68527142Y-107061523D01*
X68050952Y-105871047D02*
X68003333Y-105966285D01*
X67955714Y-106013904D01*
X67860476Y-106061523D01*
X67812857Y-106061523D01*
X67717619Y-106013904D01*
X67670000Y-105966285D01*
X67622380Y-105871047D01*
X67622380Y-105680571D01*
X67670000Y-105585333D01*
X67717619Y-105537714D01*
X67812857Y-105490095D01*
X67860476Y-105490095D01*
X67955714Y-105537714D01*
X68003333Y-105585333D01*
X68050952Y-105680571D01*
X68050952Y-105871047D01*
X68098571Y-105966285D01*
X68146190Y-106013904D01*
X68241428Y-106061523D01*
X68431904Y-106061523D01*
X68527142Y-106013904D01*
X68574761Y-105966285D01*
X68622380Y-105871047D01*
X68622380Y-105680571D01*
X68574761Y-105585333D01*
X68527142Y-105537714D01*
X68431904Y-105490095D01*
X68241428Y-105490095D01*
X68146190Y-105537714D01*
X68098571Y-105585333D01*
X68050952Y-105680571D01*
%TO.C,D40*%
X302582380Y-148557285D02*
X301582380Y-148557285D01*
X301582380Y-148319190D01*
X301630000Y-148176333D01*
X301725238Y-148081095D01*
X301820476Y-148033476D01*
X302010952Y-147985857D01*
X302153809Y-147985857D01*
X302344285Y-148033476D01*
X302439523Y-148081095D01*
X302534761Y-148176333D01*
X302582380Y-148319190D01*
X302582380Y-148557285D01*
X301915714Y-147128714D02*
X302582380Y-147128714D01*
X301534761Y-147366809D02*
X302249047Y-147604904D01*
X302249047Y-146985857D01*
X301582380Y-146414428D02*
X301582380Y-146319190D01*
X301630000Y-146223952D01*
X301677619Y-146176333D01*
X301772857Y-146128714D01*
X301963333Y-146081095D01*
X302201428Y-146081095D01*
X302391904Y-146128714D01*
X302487142Y-146176333D01*
X302534761Y-146223952D01*
X302582380Y-146319190D01*
X302582380Y-146414428D01*
X302534761Y-146509666D01*
X302487142Y-146557285D01*
X302391904Y-146604904D01*
X302201428Y-146652523D01*
X301963333Y-146652523D01*
X301772857Y-146604904D01*
X301677619Y-146557285D01*
X301630000Y-146509666D01*
X301582380Y-146414428D01*
%TO.C,D6*%
X148131304Y-93340180D02*
X148131304Y-92340180D01*
X148369400Y-92340180D01*
X148512257Y-92387800D01*
X148607495Y-92483038D01*
X148655114Y-92578276D01*
X148702733Y-92768752D01*
X148702733Y-92911609D01*
X148655114Y-93102085D01*
X148607495Y-93197323D01*
X148512257Y-93292561D01*
X148369400Y-93340180D01*
X148131304Y-93340180D01*
X149559876Y-92340180D02*
X149369400Y-92340180D01*
X149274161Y-92387800D01*
X149226542Y-92435419D01*
X149131304Y-92578276D01*
X149083685Y-92768752D01*
X149083685Y-93149704D01*
X149131304Y-93244942D01*
X149178923Y-93292561D01*
X149274161Y-93340180D01*
X149464638Y-93340180D01*
X149559876Y-93292561D01*
X149607495Y-93244942D01*
X149655114Y-93149704D01*
X149655114Y-92911609D01*
X149607495Y-92816371D01*
X149559876Y-92768752D01*
X149464638Y-92721133D01*
X149274161Y-92721133D01*
X149178923Y-92768752D01*
X149131304Y-92816371D01*
X149083685Y-92911609D01*
%TO.C,J1*%
X240677380Y-112158333D02*
X241391666Y-112158333D01*
X241534523Y-112205952D01*
X241629761Y-112301190D01*
X241677380Y-112444047D01*
X241677380Y-112539285D01*
X241677380Y-111158333D02*
X241677380Y-111729761D01*
X241677380Y-111444047D02*
X240677380Y-111444047D01*
X240820238Y-111539285D01*
X240915476Y-111634523D01*
X240963095Y-111729761D01*
%TO.C,R4*%
X72462380Y-119038666D02*
X71986190Y-119372000D01*
X72462380Y-119610095D02*
X71462380Y-119610095D01*
X71462380Y-119229142D01*
X71510000Y-119133904D01*
X71557619Y-119086285D01*
X71652857Y-119038666D01*
X71795714Y-119038666D01*
X71890952Y-119086285D01*
X71938571Y-119133904D01*
X71986190Y-119229142D01*
X71986190Y-119610095D01*
X71795714Y-118181523D02*
X72462380Y-118181523D01*
X71414761Y-118419619D02*
X72129047Y-118657714D01*
X72129047Y-118038666D01*
%TO.C,D25*%
X148642714Y-114013380D02*
X148642714Y-113013380D01*
X148880809Y-113013380D01*
X149023666Y-113061000D01*
X149118904Y-113156238D01*
X149166523Y-113251476D01*
X149214142Y-113441952D01*
X149214142Y-113584809D01*
X149166523Y-113775285D01*
X149118904Y-113870523D01*
X149023666Y-113965761D01*
X148880809Y-114013380D01*
X148642714Y-114013380D01*
X149595095Y-113108619D02*
X149642714Y-113061000D01*
X149737952Y-113013380D01*
X149976047Y-113013380D01*
X150071285Y-113061000D01*
X150118904Y-113108619D01*
X150166523Y-113203857D01*
X150166523Y-113299095D01*
X150118904Y-113441952D01*
X149547476Y-114013380D01*
X150166523Y-114013380D01*
X151071285Y-113013380D02*
X150595095Y-113013380D01*
X150547476Y-113489571D01*
X150595095Y-113441952D01*
X150690333Y-113394333D01*
X150928428Y-113394333D01*
X151023666Y-113441952D01*
X151071285Y-113489571D01*
X151118904Y-113584809D01*
X151118904Y-113822904D01*
X151071285Y-113918142D01*
X151023666Y-113965761D01*
X150928428Y-114013380D01*
X150690333Y-114013380D01*
X150595095Y-113965761D01*
X150547476Y-113918142D01*
%TO.C,D82*%
X255427314Y-81427580D02*
X255427314Y-80427580D01*
X255665409Y-80427580D01*
X255808266Y-80475200D01*
X255903504Y-80570438D01*
X255951123Y-80665676D01*
X255998742Y-80856152D01*
X255998742Y-80999009D01*
X255951123Y-81189485D01*
X255903504Y-81284723D01*
X255808266Y-81379961D01*
X255665409Y-81427580D01*
X255427314Y-81427580D01*
X256570171Y-80856152D02*
X256474933Y-80808533D01*
X256427314Y-80760914D01*
X256379695Y-80665676D01*
X256379695Y-80618057D01*
X256427314Y-80522819D01*
X256474933Y-80475200D01*
X256570171Y-80427580D01*
X256760647Y-80427580D01*
X256855885Y-80475200D01*
X256903504Y-80522819D01*
X256951123Y-80618057D01*
X256951123Y-80665676D01*
X256903504Y-80760914D01*
X256855885Y-80808533D01*
X256760647Y-80856152D01*
X256570171Y-80856152D01*
X256474933Y-80903771D01*
X256427314Y-80951390D01*
X256379695Y-81046628D01*
X256379695Y-81237104D01*
X256427314Y-81332342D01*
X256474933Y-81379961D01*
X256570171Y-81427580D01*
X256760647Y-81427580D01*
X256855885Y-81379961D01*
X256903504Y-81332342D01*
X256951123Y-81237104D01*
X256951123Y-81046628D01*
X256903504Y-80951390D01*
X256855885Y-80903771D01*
X256760647Y-80856152D01*
X257332076Y-80522819D02*
X257379695Y-80475200D01*
X257474933Y-80427580D01*
X257713028Y-80427580D01*
X257808266Y-80475200D01*
X257855885Y-80522819D01*
X257903504Y-80618057D01*
X257903504Y-80713295D01*
X257855885Y-80856152D01*
X257284457Y-81427580D01*
X257903504Y-81427580D01*
%TO.C,D8*%
X96797904Y-88615780D02*
X96797904Y-87615780D01*
X97036000Y-87615780D01*
X97178857Y-87663400D01*
X97274095Y-87758638D01*
X97321714Y-87853876D01*
X97369333Y-88044352D01*
X97369333Y-88187209D01*
X97321714Y-88377685D01*
X97274095Y-88472923D01*
X97178857Y-88568161D01*
X97036000Y-88615780D01*
X96797904Y-88615780D01*
X97940761Y-88044352D02*
X97845523Y-87996733D01*
X97797904Y-87949114D01*
X97750285Y-87853876D01*
X97750285Y-87806257D01*
X97797904Y-87711019D01*
X97845523Y-87663400D01*
X97940761Y-87615780D01*
X98131238Y-87615780D01*
X98226476Y-87663400D01*
X98274095Y-87711019D01*
X98321714Y-87806257D01*
X98321714Y-87853876D01*
X98274095Y-87949114D01*
X98226476Y-87996733D01*
X98131238Y-88044352D01*
X97940761Y-88044352D01*
X97845523Y-88091971D01*
X97797904Y-88139590D01*
X97750285Y-88234828D01*
X97750285Y-88425304D01*
X97797904Y-88520542D01*
X97845523Y-88568161D01*
X97940761Y-88615780D01*
X98131238Y-88615780D01*
X98226476Y-88568161D01*
X98274095Y-88520542D01*
X98321714Y-88425304D01*
X98321714Y-88234828D01*
X98274095Y-88139590D01*
X98226476Y-88091971D01*
X98131238Y-88044352D01*
%TO.C,DL15*%
X64805952Y-90339880D02*
X64805952Y-89339880D01*
X65044047Y-89339880D01*
X65186904Y-89387500D01*
X65282142Y-89482738D01*
X65329761Y-89577976D01*
X65377380Y-89768452D01*
X65377380Y-89911309D01*
X65329761Y-90101785D01*
X65282142Y-90197023D01*
X65186904Y-90292261D01*
X65044047Y-90339880D01*
X64805952Y-90339880D01*
X66282142Y-90339880D02*
X65805952Y-90339880D01*
X65805952Y-89339880D01*
X67139285Y-90339880D02*
X66567857Y-90339880D01*
X66853571Y-90339880D02*
X66853571Y-89339880D01*
X66758333Y-89482738D01*
X66663095Y-89577976D01*
X66567857Y-89625595D01*
X68044047Y-89339880D02*
X67567857Y-89339880D01*
X67520238Y-89816071D01*
X67567857Y-89768452D01*
X67663095Y-89720833D01*
X67901190Y-89720833D01*
X67996428Y-89768452D01*
X68044047Y-89816071D01*
X68091666Y-89911309D01*
X68091666Y-90149404D01*
X68044047Y-90244642D01*
X67996428Y-90292261D01*
X67901190Y-90339880D01*
X67663095Y-90339880D01*
X67567857Y-90292261D01*
X67520238Y-90244642D01*
X62560714Y-92239880D02*
X61989285Y-92239880D01*
X62275000Y-92239880D02*
X62275000Y-91239880D01*
X62179761Y-91382738D01*
X62084523Y-91477976D01*
X61989285Y-91525595D01*
%TO.C,D18*%
X94162714Y-111069380D02*
X94162714Y-110069380D01*
X94400809Y-110069380D01*
X94543666Y-110117000D01*
X94638904Y-110212238D01*
X94686523Y-110307476D01*
X94734142Y-110497952D01*
X94734142Y-110640809D01*
X94686523Y-110831285D01*
X94638904Y-110926523D01*
X94543666Y-111021761D01*
X94400809Y-111069380D01*
X94162714Y-111069380D01*
X95686523Y-111069380D02*
X95115095Y-111069380D01*
X95400809Y-111069380D02*
X95400809Y-110069380D01*
X95305571Y-110212238D01*
X95210333Y-110307476D01*
X95115095Y-110355095D01*
X96257952Y-110497952D02*
X96162714Y-110450333D01*
X96115095Y-110402714D01*
X96067476Y-110307476D01*
X96067476Y-110259857D01*
X96115095Y-110164619D01*
X96162714Y-110117000D01*
X96257952Y-110069380D01*
X96448428Y-110069380D01*
X96543666Y-110117000D01*
X96591285Y-110164619D01*
X96638904Y-110259857D01*
X96638904Y-110307476D01*
X96591285Y-110402714D01*
X96543666Y-110450333D01*
X96448428Y-110497952D01*
X96257952Y-110497952D01*
X96162714Y-110545571D01*
X96115095Y-110593190D01*
X96067476Y-110688428D01*
X96067476Y-110878904D01*
X96115095Y-110974142D01*
X96162714Y-111021761D01*
X96257952Y-111069380D01*
X96448428Y-111069380D01*
X96543666Y-111021761D01*
X96591285Y-110974142D01*
X96638904Y-110878904D01*
X96638904Y-110688428D01*
X96591285Y-110593190D01*
X96543666Y-110545571D01*
X96448428Y-110497952D01*
%TO.C,D34*%
X179275114Y-146781780D02*
X179275114Y-145781780D01*
X179513209Y-145781780D01*
X179656066Y-145829400D01*
X179751304Y-145924638D01*
X179798923Y-146019876D01*
X179846542Y-146210352D01*
X179846542Y-146353209D01*
X179798923Y-146543685D01*
X179751304Y-146638923D01*
X179656066Y-146734161D01*
X179513209Y-146781780D01*
X179275114Y-146781780D01*
X180179876Y-145781780D02*
X180798923Y-145781780D01*
X180465590Y-146162733D01*
X180608447Y-146162733D01*
X180703685Y-146210352D01*
X180751304Y-146257971D01*
X180798923Y-146353209D01*
X180798923Y-146591304D01*
X180751304Y-146686542D01*
X180703685Y-146734161D01*
X180608447Y-146781780D01*
X180322733Y-146781780D01*
X180227495Y-146734161D01*
X180179876Y-146686542D01*
X181656066Y-146115114D02*
X181656066Y-146781780D01*
X181417971Y-145734161D02*
X181179876Y-146448447D01*
X181798923Y-146448447D01*
%TO.C,DL12*%
X179305952Y-87277380D02*
X179305952Y-86277380D01*
X179544047Y-86277380D01*
X179686904Y-86325000D01*
X179782142Y-86420238D01*
X179829761Y-86515476D01*
X179877380Y-86705952D01*
X179877380Y-86848809D01*
X179829761Y-87039285D01*
X179782142Y-87134523D01*
X179686904Y-87229761D01*
X179544047Y-87277380D01*
X179305952Y-87277380D01*
X180782142Y-87277380D02*
X180305952Y-87277380D01*
X180305952Y-86277380D01*
X181639285Y-87277380D02*
X181067857Y-87277380D01*
X181353571Y-87277380D02*
X181353571Y-86277380D01*
X181258333Y-86420238D01*
X181163095Y-86515476D01*
X181067857Y-86563095D01*
X182020238Y-86372619D02*
X182067857Y-86325000D01*
X182163095Y-86277380D01*
X182401190Y-86277380D01*
X182496428Y-86325000D01*
X182544047Y-86372619D01*
X182591666Y-86467857D01*
X182591666Y-86563095D01*
X182544047Y-86705952D01*
X181972619Y-87277380D01*
X182591666Y-87277380D01*
X177060714Y-89177380D02*
X176489285Y-89177380D01*
X176775000Y-89177380D02*
X176775000Y-88177380D01*
X176679761Y-88320238D01*
X176584523Y-88415476D01*
X176489285Y-88463095D01*
%TO.C,DL2*%
X132282142Y-134339880D02*
X132282142Y-133339880D01*
X132520238Y-133339880D01*
X132663095Y-133387500D01*
X132758333Y-133482738D01*
X132805952Y-133577976D01*
X132853571Y-133768452D01*
X132853571Y-133911309D01*
X132805952Y-134101785D01*
X132758333Y-134197023D01*
X132663095Y-134292261D01*
X132520238Y-134339880D01*
X132282142Y-134339880D01*
X133758333Y-134339880D02*
X133282142Y-134339880D01*
X133282142Y-133339880D01*
X134044047Y-133435119D02*
X134091666Y-133387500D01*
X134186904Y-133339880D01*
X134425000Y-133339880D01*
X134520238Y-133387500D01*
X134567857Y-133435119D01*
X134615476Y-133530357D01*
X134615476Y-133625595D01*
X134567857Y-133768452D01*
X133996428Y-134339880D01*
X134615476Y-134339880D01*
X137860714Y-132439880D02*
X137289285Y-132439880D01*
X137575000Y-132439880D02*
X137575000Y-131439880D01*
X137479761Y-131582738D01*
X137384523Y-131677976D01*
X137289285Y-131725595D01*
%TO.C,C4*%
X66558333Y-136651142D02*
X66510714Y-136698761D01*
X66367857Y-136746380D01*
X66272619Y-136746380D01*
X66129761Y-136698761D01*
X66034523Y-136603523D01*
X65986904Y-136508285D01*
X65939285Y-136317809D01*
X65939285Y-136174952D01*
X65986904Y-135984476D01*
X66034523Y-135889238D01*
X66129761Y-135794000D01*
X66272619Y-135746380D01*
X66367857Y-135746380D01*
X66510714Y-135794000D01*
X66558333Y-135841619D01*
X67415476Y-136079714D02*
X67415476Y-136746380D01*
X67177380Y-135698761D02*
X66939285Y-136413047D01*
X67558333Y-136413047D01*
%TO.C,D83*%
X222295980Y-85186685D02*
X221295980Y-85186685D01*
X221295980Y-84948590D01*
X221343600Y-84805733D01*
X221438838Y-84710495D01*
X221534076Y-84662876D01*
X221724552Y-84615257D01*
X221867409Y-84615257D01*
X222057885Y-84662876D01*
X222153123Y-84710495D01*
X222248361Y-84805733D01*
X222295980Y-84948590D01*
X222295980Y-85186685D01*
X221724552Y-84043828D02*
X221676933Y-84139066D01*
X221629314Y-84186685D01*
X221534076Y-84234304D01*
X221486457Y-84234304D01*
X221391219Y-84186685D01*
X221343600Y-84139066D01*
X221295980Y-84043828D01*
X221295980Y-83853352D01*
X221343600Y-83758114D01*
X221391219Y-83710495D01*
X221486457Y-83662876D01*
X221534076Y-83662876D01*
X221629314Y-83710495D01*
X221676933Y-83758114D01*
X221724552Y-83853352D01*
X221724552Y-84043828D01*
X221772171Y-84139066D01*
X221819790Y-84186685D01*
X221915028Y-84234304D01*
X222105504Y-84234304D01*
X222200742Y-84186685D01*
X222248361Y-84139066D01*
X222295980Y-84043828D01*
X222295980Y-83853352D01*
X222248361Y-83758114D01*
X222200742Y-83710495D01*
X222105504Y-83662876D01*
X221915028Y-83662876D01*
X221819790Y-83710495D01*
X221772171Y-83758114D01*
X221724552Y-83853352D01*
X221295980Y-83329542D02*
X221295980Y-82710495D01*
X221676933Y-83043828D01*
X221676933Y-82900971D01*
X221724552Y-82805733D01*
X221772171Y-82758114D01*
X221867409Y-82710495D01*
X222105504Y-82710495D01*
X222200742Y-82758114D01*
X222248361Y-82805733D01*
X222295980Y-82900971D01*
X222295980Y-83186685D01*
X222248361Y-83281923D01*
X222200742Y-83329542D01*
%TO.C,D0*%
X346059904Y-89434880D02*
X346059904Y-88434880D01*
X346298000Y-88434880D01*
X346440857Y-88482500D01*
X346536095Y-88577738D01*
X346583714Y-88672976D01*
X346631333Y-88863452D01*
X346631333Y-89006309D01*
X346583714Y-89196785D01*
X346536095Y-89292023D01*
X346440857Y-89387261D01*
X346298000Y-89434880D01*
X346059904Y-89434880D01*
X347250380Y-88434880D02*
X347345619Y-88434880D01*
X347440857Y-88482500D01*
X347488476Y-88530119D01*
X347536095Y-88625357D01*
X347583714Y-88815833D01*
X347583714Y-89053928D01*
X347536095Y-89244404D01*
X347488476Y-89339642D01*
X347440857Y-89387261D01*
X347345619Y-89434880D01*
X347250380Y-89434880D01*
X347155142Y-89387261D01*
X347107523Y-89339642D01*
X347059904Y-89244404D01*
X347012285Y-89053928D01*
X347012285Y-88815833D01*
X347059904Y-88625357D01*
X347107523Y-88530119D01*
X347155142Y-88482500D01*
X347250380Y-88434880D01*
%TO.C,DL8*%
X332282142Y-90339880D02*
X332282142Y-89339880D01*
X332520238Y-89339880D01*
X332663095Y-89387500D01*
X332758333Y-89482738D01*
X332805952Y-89577976D01*
X332853571Y-89768452D01*
X332853571Y-89911309D01*
X332805952Y-90101785D01*
X332758333Y-90197023D01*
X332663095Y-90292261D01*
X332520238Y-90339880D01*
X332282142Y-90339880D01*
X333758333Y-90339880D02*
X333282142Y-90339880D01*
X333282142Y-89339880D01*
X334234523Y-89768452D02*
X334139285Y-89720833D01*
X334091666Y-89673214D01*
X334044047Y-89577976D01*
X334044047Y-89530357D01*
X334091666Y-89435119D01*
X334139285Y-89387500D01*
X334234523Y-89339880D01*
X334425000Y-89339880D01*
X334520238Y-89387500D01*
X334567857Y-89435119D01*
X334615476Y-89530357D01*
X334615476Y-89577976D01*
X334567857Y-89673214D01*
X334520238Y-89720833D01*
X334425000Y-89768452D01*
X334234523Y-89768452D01*
X334139285Y-89816071D01*
X334091666Y-89863690D01*
X334044047Y-89958928D01*
X334044047Y-90149404D01*
X334091666Y-90244642D01*
X334139285Y-90292261D01*
X334234523Y-90339880D01*
X334425000Y-90339880D01*
X334520238Y-90292261D01*
X334567857Y-90244642D01*
X334615476Y-90149404D01*
X334615476Y-89958928D01*
X334567857Y-89863690D01*
X334520238Y-89816071D01*
X334425000Y-89768452D01*
X329560714Y-92239880D02*
X328989285Y-92239880D01*
X329275000Y-92239880D02*
X329275000Y-91239880D01*
X329179761Y-91382738D01*
X329084523Y-91477976D01*
X328989285Y-91525595D01*
%TO.C,D17*%
X112450714Y-107259380D02*
X112450714Y-106259380D01*
X112688809Y-106259380D01*
X112831666Y-106307000D01*
X112926904Y-106402238D01*
X112974523Y-106497476D01*
X113022142Y-106687952D01*
X113022142Y-106830809D01*
X112974523Y-107021285D01*
X112926904Y-107116523D01*
X112831666Y-107211761D01*
X112688809Y-107259380D01*
X112450714Y-107259380D01*
X113974523Y-107259380D02*
X113403095Y-107259380D01*
X113688809Y-107259380D02*
X113688809Y-106259380D01*
X113593571Y-106402238D01*
X113498333Y-106497476D01*
X113403095Y-106545095D01*
X114307857Y-106259380D02*
X114974523Y-106259380D01*
X114545952Y-107259380D01*
%TO.C,DL13*%
X140805952Y-87277380D02*
X140805952Y-86277380D01*
X141044047Y-86277380D01*
X141186904Y-86325000D01*
X141282142Y-86420238D01*
X141329761Y-86515476D01*
X141377380Y-86705952D01*
X141377380Y-86848809D01*
X141329761Y-87039285D01*
X141282142Y-87134523D01*
X141186904Y-87229761D01*
X141044047Y-87277380D01*
X140805952Y-87277380D01*
X142282142Y-87277380D02*
X141805952Y-87277380D01*
X141805952Y-86277380D01*
X143139285Y-87277380D02*
X142567857Y-87277380D01*
X142853571Y-87277380D02*
X142853571Y-86277380D01*
X142758333Y-86420238D01*
X142663095Y-86515476D01*
X142567857Y-86563095D01*
X143472619Y-86277380D02*
X144091666Y-86277380D01*
X143758333Y-86658333D01*
X143901190Y-86658333D01*
X143996428Y-86705952D01*
X144044047Y-86753571D01*
X144091666Y-86848809D01*
X144091666Y-87086904D01*
X144044047Y-87182142D01*
X143996428Y-87229761D01*
X143901190Y-87277380D01*
X143615476Y-87277380D01*
X143520238Y-87229761D01*
X143472619Y-87182142D01*
X138560714Y-89177380D02*
X137989285Y-89177380D01*
X138275000Y-89177380D02*
X138275000Y-88177380D01*
X138179761Y-88320238D01*
X138084523Y-88415476D01*
X137989285Y-88463095D01*
%TO.C,D7*%
X126211104Y-87777580D02*
X126211104Y-86777580D01*
X126449200Y-86777580D01*
X126592057Y-86825200D01*
X126687295Y-86920438D01*
X126734914Y-87015676D01*
X126782533Y-87206152D01*
X126782533Y-87349009D01*
X126734914Y-87539485D01*
X126687295Y-87634723D01*
X126592057Y-87729961D01*
X126449200Y-87777580D01*
X126211104Y-87777580D01*
X127115866Y-86777580D02*
X127782533Y-86777580D01*
X127353961Y-87777580D01*
%TO.C,D84*%
X170438914Y-93111580D02*
X170438914Y-92111580D01*
X170677009Y-92111580D01*
X170819866Y-92159200D01*
X170915104Y-92254438D01*
X170962723Y-92349676D01*
X171010342Y-92540152D01*
X171010342Y-92683009D01*
X170962723Y-92873485D01*
X170915104Y-92968723D01*
X170819866Y-93063961D01*
X170677009Y-93111580D01*
X170438914Y-93111580D01*
X171581771Y-92540152D02*
X171486533Y-92492533D01*
X171438914Y-92444914D01*
X171391295Y-92349676D01*
X171391295Y-92302057D01*
X171438914Y-92206819D01*
X171486533Y-92159200D01*
X171581771Y-92111580D01*
X171772247Y-92111580D01*
X171867485Y-92159200D01*
X171915104Y-92206819D01*
X171962723Y-92302057D01*
X171962723Y-92349676D01*
X171915104Y-92444914D01*
X171867485Y-92492533D01*
X171772247Y-92540152D01*
X171581771Y-92540152D01*
X171486533Y-92587771D01*
X171438914Y-92635390D01*
X171391295Y-92730628D01*
X171391295Y-92921104D01*
X171438914Y-93016342D01*
X171486533Y-93063961D01*
X171581771Y-93111580D01*
X171772247Y-93111580D01*
X171867485Y-93063961D01*
X171915104Y-93016342D01*
X171962723Y-92921104D01*
X171962723Y-92730628D01*
X171915104Y-92635390D01*
X171867485Y-92587771D01*
X171772247Y-92540152D01*
X172819866Y-92444914D02*
X172819866Y-93111580D01*
X172581771Y-92063961D02*
X172343676Y-92778247D01*
X172962723Y-92778247D01*
%TO.C,R2*%
X124417333Y-138525380D02*
X124084000Y-138049190D01*
X123845904Y-138525380D02*
X123845904Y-137525380D01*
X124226857Y-137525380D01*
X124322095Y-137573000D01*
X124369714Y-137620619D01*
X124417333Y-137715857D01*
X124417333Y-137858714D01*
X124369714Y-137953952D01*
X124322095Y-138001571D01*
X124226857Y-138049190D01*
X123845904Y-138049190D01*
X124798285Y-137620619D02*
X124845904Y-137573000D01*
X124941142Y-137525380D01*
X125179238Y-137525380D01*
X125274476Y-137573000D01*
X125322095Y-137620619D01*
X125369714Y-137715857D01*
X125369714Y-137811095D01*
X125322095Y-137953952D01*
X124750666Y-138525380D01*
X125369714Y-138525380D01*
%TO.C,D15*%
X142422714Y-107259380D02*
X142422714Y-106259380D01*
X142660809Y-106259380D01*
X142803666Y-106307000D01*
X142898904Y-106402238D01*
X142946523Y-106497476D01*
X142994142Y-106687952D01*
X142994142Y-106830809D01*
X142946523Y-107021285D01*
X142898904Y-107116523D01*
X142803666Y-107211761D01*
X142660809Y-107259380D01*
X142422714Y-107259380D01*
X143946523Y-107259380D02*
X143375095Y-107259380D01*
X143660809Y-107259380D02*
X143660809Y-106259380D01*
X143565571Y-106402238D01*
X143470333Y-106497476D01*
X143375095Y-106545095D01*
X144851285Y-106259380D02*
X144375095Y-106259380D01*
X144327476Y-106735571D01*
X144375095Y-106687952D01*
X144470333Y-106640333D01*
X144708428Y-106640333D01*
X144803666Y-106687952D01*
X144851285Y-106735571D01*
X144898904Y-106830809D01*
X144898904Y-107068904D01*
X144851285Y-107164142D01*
X144803666Y-107211761D01*
X144708428Y-107259380D01*
X144470333Y-107259380D01*
X144375095Y-107211761D01*
X144327476Y-107164142D01*
%TO.C,D73*%
X193733714Y-105872380D02*
X193733714Y-104872380D01*
X193971809Y-104872380D01*
X194114666Y-104920000D01*
X194209904Y-105015238D01*
X194257523Y-105110476D01*
X194305142Y-105300952D01*
X194305142Y-105443809D01*
X194257523Y-105634285D01*
X194209904Y-105729523D01*
X194114666Y-105824761D01*
X193971809Y-105872380D01*
X193733714Y-105872380D01*
X194638476Y-104872380D02*
X195305142Y-104872380D01*
X194876571Y-105872380D01*
X195590857Y-104872380D02*
X196209904Y-104872380D01*
X195876571Y-105253333D01*
X196019428Y-105253333D01*
X196114666Y-105300952D01*
X196162285Y-105348571D01*
X196209904Y-105443809D01*
X196209904Y-105681904D01*
X196162285Y-105777142D01*
X196114666Y-105824761D01*
X196019428Y-105872380D01*
X195733714Y-105872380D01*
X195638476Y-105824761D01*
X195590857Y-105777142D01*
%TO.C,D26*%
X129719714Y-114013380D02*
X129719714Y-113013380D01*
X129957809Y-113013380D01*
X130100666Y-113061000D01*
X130195904Y-113156238D01*
X130243523Y-113251476D01*
X130291142Y-113441952D01*
X130291142Y-113584809D01*
X130243523Y-113775285D01*
X130195904Y-113870523D01*
X130100666Y-113965761D01*
X129957809Y-114013380D01*
X129719714Y-114013380D01*
X130672095Y-113108619D02*
X130719714Y-113061000D01*
X130814952Y-113013380D01*
X131053047Y-113013380D01*
X131148285Y-113061000D01*
X131195904Y-113108619D01*
X131243523Y-113203857D01*
X131243523Y-113299095D01*
X131195904Y-113441952D01*
X130624476Y-114013380D01*
X131243523Y-114013380D01*
X132100666Y-113013380D02*
X131910190Y-113013380D01*
X131814952Y-113061000D01*
X131767333Y-113108619D01*
X131672095Y-113251476D01*
X131624476Y-113441952D01*
X131624476Y-113822904D01*
X131672095Y-113918142D01*
X131719714Y-113965761D01*
X131814952Y-114013380D01*
X132005428Y-114013380D01*
X132100666Y-113965761D01*
X132148285Y-113918142D01*
X132195904Y-113822904D01*
X132195904Y-113584809D01*
X132148285Y-113489571D01*
X132100666Y-113441952D01*
X132005428Y-113394333D01*
X131814952Y-113394333D01*
X131719714Y-113441952D01*
X131672095Y-113489571D01*
X131624476Y-113584809D01*
%TO.C,D21*%
X298378714Y-128849380D02*
X298378714Y-127849380D01*
X298616809Y-127849380D01*
X298759666Y-127897000D01*
X298854904Y-127992238D01*
X298902523Y-128087476D01*
X298950142Y-128277952D01*
X298950142Y-128420809D01*
X298902523Y-128611285D01*
X298854904Y-128706523D01*
X298759666Y-128801761D01*
X298616809Y-128849380D01*
X298378714Y-128849380D01*
X299331095Y-127944619D02*
X299378714Y-127897000D01*
X299473952Y-127849380D01*
X299712047Y-127849380D01*
X299807285Y-127897000D01*
X299854904Y-127944619D01*
X299902523Y-128039857D01*
X299902523Y-128135095D01*
X299854904Y-128277952D01*
X299283476Y-128849380D01*
X299902523Y-128849380D01*
X300854904Y-128849380D02*
X300283476Y-128849380D01*
X300569190Y-128849380D02*
X300569190Y-127849380D01*
X300473952Y-127992238D01*
X300378714Y-128087476D01*
X300283476Y-128135095D01*
%TO.C,D63*%
X206227514Y-128442980D02*
X206227514Y-127442980D01*
X206465609Y-127442980D01*
X206608466Y-127490600D01*
X206703704Y-127585838D01*
X206751323Y-127681076D01*
X206798942Y-127871552D01*
X206798942Y-128014409D01*
X206751323Y-128204885D01*
X206703704Y-128300123D01*
X206608466Y-128395361D01*
X206465609Y-128442980D01*
X206227514Y-128442980D01*
X207656085Y-127442980D02*
X207465609Y-127442980D01*
X207370371Y-127490600D01*
X207322752Y-127538219D01*
X207227514Y-127681076D01*
X207179895Y-127871552D01*
X207179895Y-128252504D01*
X207227514Y-128347742D01*
X207275133Y-128395361D01*
X207370371Y-128442980D01*
X207560847Y-128442980D01*
X207656085Y-128395361D01*
X207703704Y-128347742D01*
X207751323Y-128252504D01*
X207751323Y-128014409D01*
X207703704Y-127919171D01*
X207656085Y-127871552D01*
X207560847Y-127823933D01*
X207370371Y-127823933D01*
X207275133Y-127871552D01*
X207227514Y-127919171D01*
X207179895Y-128014409D01*
X208084657Y-127442980D02*
X208703704Y-127442980D01*
X208370371Y-127823933D01*
X208513228Y-127823933D01*
X208608466Y-127871552D01*
X208656085Y-127919171D01*
X208703704Y-128014409D01*
X208703704Y-128252504D01*
X208656085Y-128347742D01*
X208608466Y-128395361D01*
X208513228Y-128442980D01*
X208227514Y-128442980D01*
X208132276Y-128395361D01*
X208084657Y-128347742D01*
%TO.C,DL7*%
X312282142Y-134339880D02*
X312282142Y-133339880D01*
X312520238Y-133339880D01*
X312663095Y-133387500D01*
X312758333Y-133482738D01*
X312805952Y-133577976D01*
X312853571Y-133768452D01*
X312853571Y-133911309D01*
X312805952Y-134101785D01*
X312758333Y-134197023D01*
X312663095Y-134292261D01*
X312520238Y-134339880D01*
X312282142Y-134339880D01*
X313758333Y-134339880D02*
X313282142Y-134339880D01*
X313282142Y-133339880D01*
X313996428Y-133339880D02*
X314663095Y-133339880D01*
X314234523Y-134339880D01*
X317860714Y-132439880D02*
X317289285Y-132439880D01*
X317575000Y-132439880D02*
X317575000Y-131439880D01*
X317479761Y-131582738D01*
X317384523Y-131677976D01*
X317289285Y-131725595D01*
%TO.C,D27*%
X109494580Y-124074085D02*
X108494580Y-124074085D01*
X108494580Y-123835990D01*
X108542200Y-123693133D01*
X108637438Y-123597895D01*
X108732676Y-123550276D01*
X108923152Y-123502657D01*
X109066009Y-123502657D01*
X109256485Y-123550276D01*
X109351723Y-123597895D01*
X109446961Y-123693133D01*
X109494580Y-123835990D01*
X109494580Y-124074085D01*
X108589819Y-123121704D02*
X108542200Y-123074085D01*
X108494580Y-122978847D01*
X108494580Y-122740752D01*
X108542200Y-122645514D01*
X108589819Y-122597895D01*
X108685057Y-122550276D01*
X108780295Y-122550276D01*
X108923152Y-122597895D01*
X109494580Y-123169323D01*
X109494580Y-122550276D01*
X108494580Y-122216942D02*
X108494580Y-121550276D01*
X109494580Y-121978847D01*
%TO.C,D72*%
X233735714Y-106573580D02*
X233735714Y-105573580D01*
X233973809Y-105573580D01*
X234116666Y-105621200D01*
X234211904Y-105716438D01*
X234259523Y-105811676D01*
X234307142Y-106002152D01*
X234307142Y-106145009D01*
X234259523Y-106335485D01*
X234211904Y-106430723D01*
X234116666Y-106525961D01*
X233973809Y-106573580D01*
X233735714Y-106573580D01*
X234640476Y-105573580D02*
X235307142Y-105573580D01*
X234878571Y-106573580D01*
X235640476Y-105668819D02*
X235688095Y-105621200D01*
X235783333Y-105573580D01*
X236021428Y-105573580D01*
X236116666Y-105621200D01*
X236164285Y-105668819D01*
X236211904Y-105764057D01*
X236211904Y-105859295D01*
X236164285Y-106002152D01*
X235592857Y-106573580D01*
X236211904Y-106573580D01*
%TO.C,D51*%
X274626714Y-146652380D02*
X274626714Y-145652380D01*
X274864809Y-145652380D01*
X275007666Y-145700000D01*
X275102904Y-145795238D01*
X275150523Y-145890476D01*
X275198142Y-146080952D01*
X275198142Y-146223809D01*
X275150523Y-146414285D01*
X275102904Y-146509523D01*
X275007666Y-146604761D01*
X274864809Y-146652380D01*
X274626714Y-146652380D01*
X276102904Y-145652380D02*
X275626714Y-145652380D01*
X275579095Y-146128571D01*
X275626714Y-146080952D01*
X275721952Y-146033333D01*
X275960047Y-146033333D01*
X276055285Y-146080952D01*
X276102904Y-146128571D01*
X276150523Y-146223809D01*
X276150523Y-146461904D01*
X276102904Y-146557142D01*
X276055285Y-146604761D01*
X275960047Y-146652380D01*
X275721952Y-146652380D01*
X275626714Y-146604761D01*
X275579095Y-146557142D01*
X277102904Y-146652380D02*
X276531476Y-146652380D01*
X276817190Y-146652380D02*
X276817190Y-145652380D01*
X276721952Y-145795238D01*
X276626714Y-145890476D01*
X276531476Y-145938095D01*
%TO.C,D1*%
X308633904Y-90876380D02*
X308633904Y-89876380D01*
X308872000Y-89876380D01*
X309014857Y-89924000D01*
X309110095Y-90019238D01*
X309157714Y-90114476D01*
X309205333Y-90304952D01*
X309205333Y-90447809D01*
X309157714Y-90638285D01*
X309110095Y-90733523D01*
X309014857Y-90828761D01*
X308872000Y-90876380D01*
X308633904Y-90876380D01*
X310157714Y-90876380D02*
X309586285Y-90876380D01*
X309872000Y-90876380D02*
X309872000Y-89876380D01*
X309776761Y-90019238D01*
X309681523Y-90114476D01*
X309586285Y-90162095D01*
%TO.C,C5*%
X63073333Y-140905142D02*
X63025714Y-140952761D01*
X62882857Y-141000380D01*
X62787619Y-141000380D01*
X62644761Y-140952761D01*
X62549523Y-140857523D01*
X62501904Y-140762285D01*
X62454285Y-140571809D01*
X62454285Y-140428952D01*
X62501904Y-140238476D01*
X62549523Y-140143238D01*
X62644761Y-140048000D01*
X62787619Y-140000380D01*
X62882857Y-140000380D01*
X63025714Y-140048000D01*
X63073333Y-140095619D01*
X63978095Y-140000380D02*
X63501904Y-140000380D01*
X63454285Y-140476571D01*
X63501904Y-140428952D01*
X63597142Y-140381333D01*
X63835238Y-140381333D01*
X63930476Y-140428952D01*
X63978095Y-140476571D01*
X64025714Y-140571809D01*
X64025714Y-140809904D01*
X63978095Y-140905142D01*
X63930476Y-140952761D01*
X63835238Y-141000380D01*
X63597142Y-141000380D01*
X63501904Y-140952761D01*
X63454285Y-140905142D01*
%TO.C,DL6*%
X267282142Y-134339880D02*
X267282142Y-133339880D01*
X267520238Y-133339880D01*
X267663095Y-133387500D01*
X267758333Y-133482738D01*
X267805952Y-133577976D01*
X267853571Y-133768452D01*
X267853571Y-133911309D01*
X267805952Y-134101785D01*
X267758333Y-134197023D01*
X267663095Y-134292261D01*
X267520238Y-134339880D01*
X267282142Y-134339880D01*
X268758333Y-134339880D02*
X268282142Y-134339880D01*
X268282142Y-133339880D01*
X269520238Y-133339880D02*
X269329761Y-133339880D01*
X269234523Y-133387500D01*
X269186904Y-133435119D01*
X269091666Y-133577976D01*
X269044047Y-133768452D01*
X269044047Y-134149404D01*
X269091666Y-134244642D01*
X269139285Y-134292261D01*
X269234523Y-134339880D01*
X269425000Y-134339880D01*
X269520238Y-134292261D01*
X269567857Y-134244642D01*
X269615476Y-134149404D01*
X269615476Y-133911309D01*
X269567857Y-133816071D01*
X269520238Y-133768452D01*
X269425000Y-133720833D01*
X269234523Y-133720833D01*
X269139285Y-133768452D01*
X269091666Y-133816071D01*
X269044047Y-133911309D01*
X272860714Y-132439880D02*
X272289285Y-132439880D01*
X272575000Y-132439880D02*
X272575000Y-131439880D01*
X272479761Y-131582738D01*
X272384523Y-131677976D01*
X272289285Y-131725595D01*
%TO.C,D22*%
X263199714Y-117950380D02*
X263199714Y-116950380D01*
X263437809Y-116950380D01*
X263580666Y-116998000D01*
X263675904Y-117093238D01*
X263723523Y-117188476D01*
X263771142Y-117378952D01*
X263771142Y-117521809D01*
X263723523Y-117712285D01*
X263675904Y-117807523D01*
X263580666Y-117902761D01*
X263437809Y-117950380D01*
X263199714Y-117950380D01*
X264152095Y-117045619D02*
X264199714Y-116998000D01*
X264294952Y-116950380D01*
X264533047Y-116950380D01*
X264628285Y-116998000D01*
X264675904Y-117045619D01*
X264723523Y-117140857D01*
X264723523Y-117236095D01*
X264675904Y-117378952D01*
X264104476Y-117950380D01*
X264723523Y-117950380D01*
X265104476Y-117045619D02*
X265152095Y-116998000D01*
X265247333Y-116950380D01*
X265485428Y-116950380D01*
X265580666Y-116998000D01*
X265628285Y-117045619D01*
X265675904Y-117140857D01*
X265675904Y-117236095D01*
X265628285Y-117378952D01*
X265056857Y-117950380D01*
X265675904Y-117950380D01*
%TO.C,D24*%
X184972380Y-129728785D02*
X183972380Y-129728785D01*
X183972380Y-129490690D01*
X184020000Y-129347833D01*
X184115238Y-129252595D01*
X184210476Y-129204976D01*
X184400952Y-129157357D01*
X184543809Y-129157357D01*
X184734285Y-129204976D01*
X184829523Y-129252595D01*
X184924761Y-129347833D01*
X184972380Y-129490690D01*
X184972380Y-129728785D01*
X184067619Y-128776404D02*
X184020000Y-128728785D01*
X183972380Y-128633547D01*
X183972380Y-128395452D01*
X184020000Y-128300214D01*
X184067619Y-128252595D01*
X184162857Y-128204976D01*
X184258095Y-128204976D01*
X184400952Y-128252595D01*
X184972380Y-128824023D01*
X184972380Y-128204976D01*
X184305714Y-127347833D02*
X184972380Y-127347833D01*
X183924761Y-127585928D02*
X184639047Y-127824023D01*
X184639047Y-127204976D01*
%TO.C,D33*%
X206972380Y-148728785D02*
X205972380Y-148728785D01*
X205972380Y-148490690D01*
X206020000Y-148347833D01*
X206115238Y-148252595D01*
X206210476Y-148204976D01*
X206400952Y-148157357D01*
X206543809Y-148157357D01*
X206734285Y-148204976D01*
X206829523Y-148252595D01*
X206924761Y-148347833D01*
X206972380Y-148490690D01*
X206972380Y-148728785D01*
X205972380Y-147824023D02*
X205972380Y-147204976D01*
X206353333Y-147538309D01*
X206353333Y-147395452D01*
X206400952Y-147300214D01*
X206448571Y-147252595D01*
X206543809Y-147204976D01*
X206781904Y-147204976D01*
X206877142Y-147252595D01*
X206924761Y-147300214D01*
X206972380Y-147395452D01*
X206972380Y-147681166D01*
X206924761Y-147776404D01*
X206877142Y-147824023D01*
X205972380Y-146871642D02*
X205972380Y-146252595D01*
X206353333Y-146585928D01*
X206353333Y-146443071D01*
X206400952Y-146347833D01*
X206448571Y-146300214D01*
X206543809Y-146252595D01*
X206781904Y-146252595D01*
X206877142Y-146300214D01*
X206924761Y-146347833D01*
X206972380Y-146443071D01*
X206972380Y-146728785D01*
X206924761Y-146824023D01*
X206877142Y-146871642D01*
%TO.C,U1*%
X78847380Y-144802904D02*
X79656904Y-144802904D01*
X79752142Y-144755285D01*
X79799761Y-144707666D01*
X79847380Y-144612428D01*
X79847380Y-144421952D01*
X79799761Y-144326714D01*
X79752142Y-144279095D01*
X79656904Y-144231476D01*
X78847380Y-144231476D01*
X79847380Y-143231476D02*
X79847380Y-143802904D01*
X79847380Y-143517190D02*
X78847380Y-143517190D01*
X78990238Y-143612428D01*
X79085476Y-143707666D01*
X79133095Y-143802904D01*
%TO.C,DL9*%
X294282142Y-90339880D02*
X294282142Y-89339880D01*
X294520238Y-89339880D01*
X294663095Y-89387500D01*
X294758333Y-89482738D01*
X294805952Y-89577976D01*
X294853571Y-89768452D01*
X294853571Y-89911309D01*
X294805952Y-90101785D01*
X294758333Y-90197023D01*
X294663095Y-90292261D01*
X294520238Y-90339880D01*
X294282142Y-90339880D01*
X295758333Y-90339880D02*
X295282142Y-90339880D01*
X295282142Y-89339880D01*
X296139285Y-90339880D02*
X296329761Y-90339880D01*
X296425000Y-90292261D01*
X296472619Y-90244642D01*
X296567857Y-90101785D01*
X296615476Y-89911309D01*
X296615476Y-89530357D01*
X296567857Y-89435119D01*
X296520238Y-89387500D01*
X296425000Y-89339880D01*
X296234523Y-89339880D01*
X296139285Y-89387500D01*
X296091666Y-89435119D01*
X296044047Y-89530357D01*
X296044047Y-89768452D01*
X296091666Y-89863690D01*
X296139285Y-89911309D01*
X296234523Y-89958928D01*
X296425000Y-89958928D01*
X296520238Y-89911309D01*
X296567857Y-89863690D01*
X296615476Y-89768452D01*
X291560714Y-92239880D02*
X290989285Y-92239880D01*
X291275000Y-92239880D02*
X291275000Y-91239880D01*
X291179761Y-91382738D01*
X291084523Y-91477976D01*
X290989285Y-91525595D01*
%TO.C,C2*%
X66458333Y-131851142D02*
X66410714Y-131898761D01*
X66267857Y-131946380D01*
X66172619Y-131946380D01*
X66029761Y-131898761D01*
X65934523Y-131803523D01*
X65886904Y-131708285D01*
X65839285Y-131517809D01*
X65839285Y-131374952D01*
X65886904Y-131184476D01*
X65934523Y-131089238D01*
X66029761Y-130994000D01*
X66172619Y-130946380D01*
X66267857Y-130946380D01*
X66410714Y-130994000D01*
X66458333Y-131041619D01*
X66839285Y-131041619D02*
X66886904Y-130994000D01*
X66982142Y-130946380D01*
X67220238Y-130946380D01*
X67315476Y-130994000D01*
X67363095Y-131041619D01*
X67410714Y-131136857D01*
X67410714Y-131232095D01*
X67363095Y-131374952D01*
X66791666Y-131946380D01*
X67410714Y-131946380D01*
%TO.C,D43*%
X224588714Y-167099380D02*
X224588714Y-166099380D01*
X224826809Y-166099380D01*
X224969666Y-166147000D01*
X225064904Y-166242238D01*
X225112523Y-166337476D01*
X225160142Y-166527952D01*
X225160142Y-166670809D01*
X225112523Y-166861285D01*
X225064904Y-166956523D01*
X224969666Y-167051761D01*
X224826809Y-167099380D01*
X224588714Y-167099380D01*
X226017285Y-166432714D02*
X226017285Y-167099380D01*
X225779190Y-166051761D02*
X225541095Y-166766047D01*
X226160142Y-166766047D01*
X226445857Y-166099380D02*
X227064904Y-166099380D01*
X226731571Y-166480333D01*
X226874428Y-166480333D01*
X226969666Y-166527952D01*
X227017285Y-166575571D01*
X227064904Y-166670809D01*
X227064904Y-166908904D01*
X227017285Y-167004142D01*
X226969666Y-167051761D01*
X226874428Y-167099380D01*
X226588714Y-167099380D01*
X226493476Y-167051761D01*
X226445857Y-167004142D01*
%TO.C,D13*%
X218114714Y-107386380D02*
X218114714Y-106386380D01*
X218352809Y-106386380D01*
X218495666Y-106434000D01*
X218590904Y-106529238D01*
X218638523Y-106624476D01*
X218686142Y-106814952D01*
X218686142Y-106957809D01*
X218638523Y-107148285D01*
X218590904Y-107243523D01*
X218495666Y-107338761D01*
X218352809Y-107386380D01*
X218114714Y-107386380D01*
X219638523Y-107386380D02*
X219067095Y-107386380D01*
X219352809Y-107386380D02*
X219352809Y-106386380D01*
X219257571Y-106529238D01*
X219162333Y-106624476D01*
X219067095Y-106672095D01*
X219971857Y-106386380D02*
X220590904Y-106386380D01*
X220257571Y-106767333D01*
X220400428Y-106767333D01*
X220495666Y-106814952D01*
X220543285Y-106862571D01*
X220590904Y-106957809D01*
X220590904Y-107195904D01*
X220543285Y-107291142D01*
X220495666Y-107338761D01*
X220400428Y-107386380D01*
X220114714Y-107386380D01*
X220019476Y-107338761D01*
X219971857Y-107291142D01*
%TO.C,DL4*%
X222282142Y-155339880D02*
X222282142Y-154339880D01*
X222520238Y-154339880D01*
X222663095Y-154387500D01*
X222758333Y-154482738D01*
X222805952Y-154577976D01*
X222853571Y-154768452D01*
X222853571Y-154911309D01*
X222805952Y-155101785D01*
X222758333Y-155197023D01*
X222663095Y-155292261D01*
X222520238Y-155339880D01*
X222282142Y-155339880D01*
X223758333Y-155339880D02*
X223282142Y-155339880D01*
X223282142Y-154339880D01*
X224520238Y-154673214D02*
X224520238Y-155339880D01*
X224282142Y-154292261D02*
X224044047Y-155006547D01*
X224663095Y-155006547D01*
X227860714Y-153439880D02*
X227289285Y-153439880D01*
X227575000Y-153439880D02*
X227575000Y-152439880D01*
X227479761Y-152582738D01*
X227384523Y-152677976D01*
X227289285Y-152725595D01*
%TO.C,D42*%
X267514714Y-165067380D02*
X267514714Y-164067380D01*
X267752809Y-164067380D01*
X267895666Y-164115000D01*
X267990904Y-164210238D01*
X268038523Y-164305476D01*
X268086142Y-164495952D01*
X268086142Y-164638809D01*
X268038523Y-164829285D01*
X267990904Y-164924523D01*
X267895666Y-165019761D01*
X267752809Y-165067380D01*
X267514714Y-165067380D01*
X268943285Y-164400714D02*
X268943285Y-165067380D01*
X268705190Y-164019761D02*
X268467095Y-164734047D01*
X269086142Y-164734047D01*
X269419476Y-164162619D02*
X269467095Y-164115000D01*
X269562333Y-164067380D01*
X269800428Y-164067380D01*
X269895666Y-164115000D01*
X269943285Y-164162619D01*
X269990904Y-164257857D01*
X269990904Y-164353095D01*
X269943285Y-164495952D01*
X269371857Y-165067380D01*
X269990904Y-165067380D01*
%TO.C,C7*%
X74353933Y-130250342D02*
X74306314Y-130297961D01*
X74163457Y-130345580D01*
X74068219Y-130345580D01*
X73925361Y-130297961D01*
X73830123Y-130202723D01*
X73782504Y-130107485D01*
X73734885Y-129917009D01*
X73734885Y-129774152D01*
X73782504Y-129583676D01*
X73830123Y-129488438D01*
X73925361Y-129393200D01*
X74068219Y-129345580D01*
X74163457Y-129345580D01*
X74306314Y-129393200D01*
X74353933Y-129440819D01*
X74687266Y-129345580D02*
X75353933Y-129345580D01*
X74925361Y-130345580D01*
%TO.C,R1*%
X241242380Y-168083666D02*
X240766190Y-168417000D01*
X241242380Y-168655095D02*
X240242380Y-168655095D01*
X240242380Y-168274142D01*
X240290000Y-168178904D01*
X240337619Y-168131285D01*
X240432857Y-168083666D01*
X240575714Y-168083666D01*
X240670952Y-168131285D01*
X240718571Y-168178904D01*
X240766190Y-168274142D01*
X240766190Y-168655095D01*
X241242380Y-167131285D02*
X241242380Y-167702714D01*
X241242380Y-167417000D02*
X240242380Y-167417000D01*
X240385238Y-167512238D01*
X240480476Y-167607476D01*
X240528095Y-167702714D01*
%TO.C,D46*%
X150547714Y-167480380D02*
X150547714Y-166480380D01*
X150785809Y-166480380D01*
X150928666Y-166528000D01*
X151023904Y-166623238D01*
X151071523Y-166718476D01*
X151119142Y-166908952D01*
X151119142Y-167051809D01*
X151071523Y-167242285D01*
X151023904Y-167337523D01*
X150928666Y-167432761D01*
X150785809Y-167480380D01*
X150547714Y-167480380D01*
X151976285Y-166813714D02*
X151976285Y-167480380D01*
X151738190Y-166432761D02*
X151500095Y-167147047D01*
X152119142Y-167147047D01*
X152928666Y-166480380D02*
X152738190Y-166480380D01*
X152642952Y-166528000D01*
X152595333Y-166575619D01*
X152500095Y-166718476D01*
X152452476Y-166908952D01*
X152452476Y-167289904D01*
X152500095Y-167385142D01*
X152547714Y-167432761D01*
X152642952Y-167480380D01*
X152833428Y-167480380D01*
X152928666Y-167432761D01*
X152976285Y-167385142D01*
X153023904Y-167289904D01*
X153023904Y-167051809D01*
X152976285Y-166956571D01*
X152928666Y-166908952D01*
X152833428Y-166861333D01*
X152642952Y-166861333D01*
X152547714Y-166908952D01*
X152500095Y-166956571D01*
X152452476Y-167051809D01*
%TO.C,DL11*%
X217582952Y-90571580D02*
X217582952Y-89571580D01*
X217821047Y-89571580D01*
X217963904Y-89619200D01*
X218059142Y-89714438D01*
X218106761Y-89809676D01*
X218154380Y-90000152D01*
X218154380Y-90143009D01*
X218106761Y-90333485D01*
X218059142Y-90428723D01*
X217963904Y-90523961D01*
X217821047Y-90571580D01*
X217582952Y-90571580D01*
X219059142Y-90571580D02*
X218582952Y-90571580D01*
X218582952Y-89571580D01*
X219916285Y-90571580D02*
X219344857Y-90571580D01*
X219630571Y-90571580D02*
X219630571Y-89571580D01*
X219535333Y-89714438D01*
X219440095Y-89809676D01*
X219344857Y-89857295D01*
X220868666Y-90571580D02*
X220297238Y-90571580D01*
X220582952Y-90571580D02*
X220582952Y-89571580D01*
X220487714Y-89714438D01*
X220392476Y-89809676D01*
X220297238Y-89857295D01*
X215060714Y-89177380D02*
X214489285Y-89177380D01*
X214775000Y-89177380D02*
X214775000Y-88177380D01*
X214679761Y-88320238D01*
X214584523Y-88415476D01*
X214489285Y-88463095D01*
%TO.C,DL5*%
X222282142Y-134339880D02*
X222282142Y-133339880D01*
X222520238Y-133339880D01*
X222663095Y-133387500D01*
X222758333Y-133482738D01*
X222805952Y-133577976D01*
X222853571Y-133768452D01*
X222853571Y-133911309D01*
X222805952Y-134101785D01*
X222758333Y-134197023D01*
X222663095Y-134292261D01*
X222520238Y-134339880D01*
X222282142Y-134339880D01*
X223758333Y-134339880D02*
X223282142Y-134339880D01*
X223282142Y-133339880D01*
X224567857Y-133339880D02*
X224091666Y-133339880D01*
X224044047Y-133816071D01*
X224091666Y-133768452D01*
X224186904Y-133720833D01*
X224425000Y-133720833D01*
X224520238Y-133768452D01*
X224567857Y-133816071D01*
X224615476Y-133911309D01*
X224615476Y-134149404D01*
X224567857Y-134244642D01*
X224520238Y-134292261D01*
X224425000Y-134339880D01*
X224186904Y-134339880D01*
X224091666Y-134292261D01*
X224044047Y-134244642D01*
X227860714Y-132439880D02*
X227289285Y-132439880D01*
X227575000Y-132439880D02*
X227575000Y-131439880D01*
X227479761Y-131582738D01*
X227384523Y-131677976D01*
X227289285Y-131725595D01*
D12*
%TO.C,SW2*%
X120481666Y-142239047D02*
X120663095Y-142299523D01*
X120965476Y-142299523D01*
X121086428Y-142239047D01*
X121146904Y-142178571D01*
X121207380Y-142057619D01*
X121207380Y-141936666D01*
X121146904Y-141815714D01*
X121086428Y-141755238D01*
X120965476Y-141694761D01*
X120723571Y-141634285D01*
X120602619Y-141573809D01*
X120542142Y-141513333D01*
X120481666Y-141392380D01*
X120481666Y-141271428D01*
X120542142Y-141150476D01*
X120602619Y-141090000D01*
X120723571Y-141029523D01*
X121025952Y-141029523D01*
X121207380Y-141090000D01*
X121630714Y-141029523D02*
X121933095Y-142299523D01*
X122175000Y-141392380D01*
X122416904Y-142299523D01*
X122719285Y-141029523D01*
X123142619Y-141150476D02*
X123203095Y-141090000D01*
X123324047Y-141029523D01*
X123626428Y-141029523D01*
X123747380Y-141090000D01*
X123807857Y-141150476D01*
X123868333Y-141271428D01*
X123868333Y-141392380D01*
X123807857Y-141573809D01*
X123082142Y-142299523D01*
X123868333Y-142299523D01*
D11*
%TO.C,DL10*%
X257664152Y-87269580D02*
X257664152Y-86269580D01*
X257902247Y-86269580D01*
X258045104Y-86317200D01*
X258140342Y-86412438D01*
X258187961Y-86507676D01*
X258235580Y-86698152D01*
X258235580Y-86841009D01*
X258187961Y-87031485D01*
X258140342Y-87126723D01*
X258045104Y-87221961D01*
X257902247Y-87269580D01*
X257664152Y-87269580D01*
X259140342Y-87269580D02*
X258664152Y-87269580D01*
X258664152Y-86269580D01*
X259997485Y-87269580D02*
X259426057Y-87269580D01*
X259711771Y-87269580D02*
X259711771Y-86269580D01*
X259616533Y-86412438D01*
X259521295Y-86507676D01*
X259426057Y-86555295D01*
X260616533Y-86269580D02*
X260711771Y-86269580D01*
X260807009Y-86317200D01*
X260854628Y-86364819D01*
X260902247Y-86460057D01*
X260949866Y-86650533D01*
X260949866Y-86888628D01*
X260902247Y-87079104D01*
X260854628Y-87174342D01*
X260807009Y-87221961D01*
X260711771Y-87269580D01*
X260616533Y-87269580D01*
X260521295Y-87221961D01*
X260473676Y-87174342D01*
X260426057Y-87079104D01*
X260378438Y-86888628D01*
X260378438Y-86650533D01*
X260426057Y-86460057D01*
X260473676Y-86364819D01*
X260521295Y-86317200D01*
X260616533Y-86269580D01*
X253210714Y-89177380D02*
X252639285Y-89177380D01*
X252925000Y-89177380D02*
X252925000Y-88177380D01*
X252829761Y-88320238D01*
X252734523Y-88415476D01*
X252639285Y-88463095D01*
%TO.C,D74*%
X169981714Y-109672380D02*
X169981714Y-108672380D01*
X170219809Y-108672380D01*
X170362666Y-108720000D01*
X170457904Y-108815238D01*
X170505523Y-108910476D01*
X170553142Y-109100952D01*
X170553142Y-109243809D01*
X170505523Y-109434285D01*
X170457904Y-109529523D01*
X170362666Y-109624761D01*
X170219809Y-109672380D01*
X169981714Y-109672380D01*
X170886476Y-108672380D02*
X171553142Y-108672380D01*
X171124571Y-109672380D01*
X172362666Y-109005714D02*
X172362666Y-109672380D01*
X172124571Y-108624761D02*
X171886476Y-109339047D01*
X172505523Y-109339047D01*
%TO.C,D23*%
X225350714Y-117823380D02*
X225350714Y-116823380D01*
X225588809Y-116823380D01*
X225731666Y-116871000D01*
X225826904Y-116966238D01*
X225874523Y-117061476D01*
X225922142Y-117251952D01*
X225922142Y-117394809D01*
X225874523Y-117585285D01*
X225826904Y-117680523D01*
X225731666Y-117775761D01*
X225588809Y-117823380D01*
X225350714Y-117823380D01*
X226303095Y-116918619D02*
X226350714Y-116871000D01*
X226445952Y-116823380D01*
X226684047Y-116823380D01*
X226779285Y-116871000D01*
X226826904Y-116918619D01*
X226874523Y-117013857D01*
X226874523Y-117109095D01*
X226826904Y-117251952D01*
X226255476Y-117823380D01*
X226874523Y-117823380D01*
X227207857Y-116823380D02*
X227826904Y-116823380D01*
X227493571Y-117204333D01*
X227636428Y-117204333D01*
X227731666Y-117251952D01*
X227779285Y-117299571D01*
X227826904Y-117394809D01*
X227826904Y-117632904D01*
X227779285Y-117728142D01*
X227731666Y-117775761D01*
X227636428Y-117823380D01*
X227350714Y-117823380D01*
X227255476Y-117775761D01*
X227207857Y-117728142D01*
%TO.C,D64*%
X167946714Y-117696380D02*
X167946714Y-116696380D01*
X168184809Y-116696380D01*
X168327666Y-116744000D01*
X168422904Y-116839238D01*
X168470523Y-116934476D01*
X168518142Y-117124952D01*
X168518142Y-117267809D01*
X168470523Y-117458285D01*
X168422904Y-117553523D01*
X168327666Y-117648761D01*
X168184809Y-117696380D01*
X167946714Y-117696380D01*
X169375285Y-116696380D02*
X169184809Y-116696380D01*
X169089571Y-116744000D01*
X169041952Y-116791619D01*
X168946714Y-116934476D01*
X168899095Y-117124952D01*
X168899095Y-117505904D01*
X168946714Y-117601142D01*
X168994333Y-117648761D01*
X169089571Y-117696380D01*
X169280047Y-117696380D01*
X169375285Y-117648761D01*
X169422904Y-117601142D01*
X169470523Y-117505904D01*
X169470523Y-117267809D01*
X169422904Y-117172571D01*
X169375285Y-117124952D01*
X169280047Y-117077333D01*
X169089571Y-117077333D01*
X168994333Y-117124952D01*
X168946714Y-117172571D01*
X168899095Y-117267809D01*
X170327666Y-117029714D02*
X170327666Y-117696380D01*
X170089571Y-116648761D02*
X169851476Y-117363047D01*
X170470523Y-117363047D01*
%TO.C,R3*%
X71446380Y-114847666D02*
X70970190Y-115181000D01*
X71446380Y-115419095D02*
X70446380Y-115419095D01*
X70446380Y-115038142D01*
X70494000Y-114942904D01*
X70541619Y-114895285D01*
X70636857Y-114847666D01*
X70779714Y-114847666D01*
X70874952Y-114895285D01*
X70922571Y-114942904D01*
X70970190Y-115038142D01*
X70970190Y-115419095D01*
X70446380Y-114514333D02*
X70446380Y-113895285D01*
X70827333Y-114228619D01*
X70827333Y-114085761D01*
X70874952Y-113990523D01*
X70922571Y-113942904D01*
X71017809Y-113895285D01*
X71255904Y-113895285D01*
X71351142Y-113942904D01*
X71398761Y-113990523D01*
X71446380Y-114085761D01*
X71446380Y-114371476D01*
X71398761Y-114466714D01*
X71351142Y-114514333D01*
%TO.C,D71*%
X272242114Y-106624380D02*
X272242114Y-105624380D01*
X272480209Y-105624380D01*
X272623066Y-105672000D01*
X272718304Y-105767238D01*
X272765923Y-105862476D01*
X272813542Y-106052952D01*
X272813542Y-106195809D01*
X272765923Y-106386285D01*
X272718304Y-106481523D01*
X272623066Y-106576761D01*
X272480209Y-106624380D01*
X272242114Y-106624380D01*
X273146876Y-105624380D02*
X273813542Y-105624380D01*
X273384971Y-106624380D01*
X274718304Y-106624380D02*
X274146876Y-106624380D01*
X274432590Y-106624380D02*
X274432590Y-105624380D01*
X274337352Y-105767238D01*
X274242114Y-105862476D01*
X274146876Y-105910095D01*
%TO.C,D61*%
X279579714Y-128976380D02*
X279579714Y-127976380D01*
X279817809Y-127976380D01*
X279960666Y-128024000D01*
X280055904Y-128119238D01*
X280103523Y-128214476D01*
X280151142Y-128404952D01*
X280151142Y-128547809D01*
X280103523Y-128738285D01*
X280055904Y-128833523D01*
X279960666Y-128928761D01*
X279817809Y-128976380D01*
X279579714Y-128976380D01*
X281008285Y-127976380D02*
X280817809Y-127976380D01*
X280722571Y-128024000D01*
X280674952Y-128071619D01*
X280579714Y-128214476D01*
X280532095Y-128404952D01*
X280532095Y-128785904D01*
X280579714Y-128881142D01*
X280627333Y-128928761D01*
X280722571Y-128976380D01*
X280913047Y-128976380D01*
X281008285Y-128928761D01*
X281055904Y-128881142D01*
X281103523Y-128785904D01*
X281103523Y-128547809D01*
X281055904Y-128452571D01*
X281008285Y-128404952D01*
X280913047Y-128357333D01*
X280722571Y-128357333D01*
X280627333Y-128404952D01*
X280579714Y-128452571D01*
X280532095Y-128547809D01*
X282055904Y-128976380D02*
X281484476Y-128976380D01*
X281770190Y-128976380D02*
X281770190Y-127976380D01*
X281674952Y-128119238D01*
X281579714Y-128214476D01*
X281484476Y-128262095D01*
%TO.C,D45*%
X169880114Y-167431980D02*
X169880114Y-166431980D01*
X170118209Y-166431980D01*
X170261066Y-166479600D01*
X170356304Y-166574838D01*
X170403923Y-166670076D01*
X170451542Y-166860552D01*
X170451542Y-167003409D01*
X170403923Y-167193885D01*
X170356304Y-167289123D01*
X170261066Y-167384361D01*
X170118209Y-167431980D01*
X169880114Y-167431980D01*
X171308685Y-166765314D02*
X171308685Y-167431980D01*
X171070590Y-166384361D02*
X170832495Y-167098647D01*
X171451542Y-167098647D01*
X172308685Y-166431980D02*
X171832495Y-166431980D01*
X171784876Y-166908171D01*
X171832495Y-166860552D01*
X171927733Y-166812933D01*
X172165828Y-166812933D01*
X172261066Y-166860552D01*
X172308685Y-166908171D01*
X172356304Y-167003409D01*
X172356304Y-167241504D01*
X172308685Y-167336742D01*
X172261066Y-167384361D01*
X172165828Y-167431980D01*
X171927733Y-167431980D01*
X171832495Y-167384361D01*
X171784876Y-167336742D01*
%TO.C,Y1*%
X63601190Y-144599190D02*
X64077380Y-144599190D01*
X63077380Y-144932523D02*
X63601190Y-144599190D01*
X63077380Y-144265857D01*
X64077380Y-143408714D02*
X64077380Y-143980142D01*
X64077380Y-143694428D02*
X63077380Y-143694428D01*
X63220238Y-143789666D01*
X63315476Y-143884904D01*
X63363095Y-143980142D01*
%TO.C,D70*%
X319028914Y-90419180D02*
X319028914Y-89419180D01*
X319267009Y-89419180D01*
X319409866Y-89466800D01*
X319505104Y-89562038D01*
X319552723Y-89657276D01*
X319600342Y-89847752D01*
X319600342Y-89990609D01*
X319552723Y-90181085D01*
X319505104Y-90276323D01*
X319409866Y-90371561D01*
X319267009Y-90419180D01*
X319028914Y-90419180D01*
X319933676Y-89419180D02*
X320600342Y-89419180D01*
X320171771Y-90419180D01*
X321171771Y-89419180D02*
X321267009Y-89419180D01*
X321362247Y-89466800D01*
X321409866Y-89514419D01*
X321457485Y-89609657D01*
X321505104Y-89800133D01*
X321505104Y-90038228D01*
X321457485Y-90228704D01*
X321409866Y-90323942D01*
X321362247Y-90371561D01*
X321267009Y-90419180D01*
X321171771Y-90419180D01*
X321076533Y-90371561D01*
X321028914Y-90323942D01*
X320981295Y-90228704D01*
X320933676Y-90038228D01*
X320933676Y-89800133D01*
X320981295Y-89609657D01*
X321028914Y-89514419D01*
X321076533Y-89466800D01*
X321171771Y-89419180D01*
%TO.C,D52*%
X241371380Y-146057785D02*
X240371380Y-146057785D01*
X240371380Y-145819690D01*
X240419000Y-145676833D01*
X240514238Y-145581595D01*
X240609476Y-145533976D01*
X240799952Y-145486357D01*
X240942809Y-145486357D01*
X241133285Y-145533976D01*
X241228523Y-145581595D01*
X241323761Y-145676833D01*
X241371380Y-145819690D01*
X241371380Y-146057785D01*
X240371380Y-144581595D02*
X240371380Y-145057785D01*
X240847571Y-145105404D01*
X240799952Y-145057785D01*
X240752333Y-144962547D01*
X240752333Y-144724452D01*
X240799952Y-144629214D01*
X240847571Y-144581595D01*
X240942809Y-144533976D01*
X241180904Y-144533976D01*
X241276142Y-144581595D01*
X241323761Y-144629214D01*
X241371380Y-144724452D01*
X241371380Y-144962547D01*
X241323761Y-145057785D01*
X241276142Y-145105404D01*
X240466619Y-144153023D02*
X240419000Y-144105404D01*
X240371380Y-144010166D01*
X240371380Y-143772071D01*
X240419000Y-143676833D01*
X240466619Y-143629214D01*
X240561857Y-143581595D01*
X240657095Y-143581595D01*
X240799952Y-143629214D01*
X241371380Y-144200642D01*
X241371380Y-143581595D01*
%TO.C,D62*%
X246829380Y-126459285D02*
X245829380Y-126459285D01*
X245829380Y-126221190D01*
X245877000Y-126078333D01*
X245972238Y-125983095D01*
X246067476Y-125935476D01*
X246257952Y-125887857D01*
X246400809Y-125887857D01*
X246591285Y-125935476D01*
X246686523Y-125983095D01*
X246781761Y-126078333D01*
X246829380Y-126221190D01*
X246829380Y-126459285D01*
X245829380Y-125030714D02*
X245829380Y-125221190D01*
X245877000Y-125316428D01*
X245924619Y-125364047D01*
X246067476Y-125459285D01*
X246257952Y-125506904D01*
X246638904Y-125506904D01*
X246734142Y-125459285D01*
X246781761Y-125411666D01*
X246829380Y-125316428D01*
X246829380Y-125125952D01*
X246781761Y-125030714D01*
X246734142Y-124983095D01*
X246638904Y-124935476D01*
X246400809Y-124935476D01*
X246305571Y-124983095D01*
X246257952Y-125030714D01*
X246210333Y-125125952D01*
X246210333Y-125316428D01*
X246257952Y-125411666D01*
X246305571Y-125459285D01*
X246400809Y-125506904D01*
X245924619Y-124554523D02*
X245877000Y-124506904D01*
X245829380Y-124411666D01*
X245829380Y-124173571D01*
X245877000Y-124078333D01*
X245924619Y-124030714D01*
X246019857Y-123983095D01*
X246115095Y-123983095D01*
X246257952Y-124030714D01*
X246829380Y-124602142D01*
X246829380Y-123983095D01*
%TO.C,D36*%
X105208714Y-146652380D02*
X105208714Y-145652380D01*
X105446809Y-145652380D01*
X105589666Y-145700000D01*
X105684904Y-145795238D01*
X105732523Y-145890476D01*
X105780142Y-146080952D01*
X105780142Y-146223809D01*
X105732523Y-146414285D01*
X105684904Y-146509523D01*
X105589666Y-146604761D01*
X105446809Y-146652380D01*
X105208714Y-146652380D01*
X106113476Y-145652380D02*
X106732523Y-145652380D01*
X106399190Y-146033333D01*
X106542047Y-146033333D01*
X106637285Y-146080952D01*
X106684904Y-146128571D01*
X106732523Y-146223809D01*
X106732523Y-146461904D01*
X106684904Y-146557142D01*
X106637285Y-146604761D01*
X106542047Y-146652380D01*
X106256333Y-146652380D01*
X106161095Y-146604761D01*
X106113476Y-146557142D01*
X107589666Y-145652380D02*
X107399190Y-145652380D01*
X107303952Y-145700000D01*
X107256333Y-145747619D01*
X107161095Y-145890476D01*
X107113476Y-146080952D01*
X107113476Y-146461904D01*
X107161095Y-146557142D01*
X107208714Y-146604761D01*
X107303952Y-146652380D01*
X107494428Y-146652380D01*
X107589666Y-146604761D01*
X107637285Y-146557142D01*
X107684904Y-146461904D01*
X107684904Y-146223809D01*
X107637285Y-146128571D01*
X107589666Y-146080952D01*
X107494428Y-146033333D01*
X107303952Y-146033333D01*
X107208714Y-146080952D01*
X107161095Y-146128571D01*
X107113476Y-146223809D01*
%TO.C,D12*%
X268122380Y-108766285D02*
X267122380Y-108766285D01*
X267122380Y-108528190D01*
X267170000Y-108385333D01*
X267265238Y-108290095D01*
X267360476Y-108242476D01*
X267550952Y-108194857D01*
X267693809Y-108194857D01*
X267884285Y-108242476D01*
X267979523Y-108290095D01*
X268074761Y-108385333D01*
X268122380Y-108528190D01*
X268122380Y-108766285D01*
X268122380Y-107242476D02*
X268122380Y-107813904D01*
X268122380Y-107528190D02*
X267122380Y-107528190D01*
X267265238Y-107623428D01*
X267360476Y-107718666D01*
X267408095Y-107813904D01*
X267217619Y-106861523D02*
X267170000Y-106813904D01*
X267122380Y-106718666D01*
X267122380Y-106480571D01*
X267170000Y-106385333D01*
X267217619Y-106337714D01*
X267312857Y-106290095D01*
X267408095Y-106290095D01*
X267550952Y-106337714D01*
X268122380Y-106909142D01*
X268122380Y-106290095D01*
%TO.C,C1*%
X69408333Y-127763142D02*
X69360714Y-127810761D01*
X69217857Y-127858380D01*
X69122619Y-127858380D01*
X68979761Y-127810761D01*
X68884523Y-127715523D01*
X68836904Y-127620285D01*
X68789285Y-127429809D01*
X68789285Y-127286952D01*
X68836904Y-127096476D01*
X68884523Y-127001238D01*
X68979761Y-126906000D01*
X69122619Y-126858380D01*
X69217857Y-126858380D01*
X69360714Y-126906000D01*
X69408333Y-126953619D01*
X70360714Y-127858380D02*
X69789285Y-127858380D01*
X70075000Y-127858380D02*
X70075000Y-126858380D01*
X69979761Y-127001238D01*
X69884523Y-127096476D01*
X69789285Y-127144095D01*
%TO.C,D32*%
X256481380Y-147795285D02*
X255481380Y-147795285D01*
X255481380Y-147557190D01*
X255529000Y-147414333D01*
X255624238Y-147319095D01*
X255719476Y-147271476D01*
X255909952Y-147223857D01*
X256052809Y-147223857D01*
X256243285Y-147271476D01*
X256338523Y-147319095D01*
X256433761Y-147414333D01*
X256481380Y-147557190D01*
X256481380Y-147795285D01*
X255481380Y-146890523D02*
X255481380Y-146271476D01*
X255862333Y-146604809D01*
X255862333Y-146461952D01*
X255909952Y-146366714D01*
X255957571Y-146319095D01*
X256052809Y-146271476D01*
X256290904Y-146271476D01*
X256386142Y-146319095D01*
X256433761Y-146366714D01*
X256481380Y-146461952D01*
X256481380Y-146747666D01*
X256433761Y-146842904D01*
X256386142Y-146890523D01*
X255576619Y-145890523D02*
X255529000Y-145842904D01*
X255481380Y-145747666D01*
X255481380Y-145509571D01*
X255529000Y-145414333D01*
X255576619Y-145366714D01*
X255671857Y-145319095D01*
X255767095Y-145319095D01*
X255909952Y-145366714D01*
X256481380Y-145938142D01*
X256481380Y-145319095D01*
%TO.C,C6*%
X62973333Y-148001142D02*
X62925714Y-148048761D01*
X62782857Y-148096380D01*
X62687619Y-148096380D01*
X62544761Y-148048761D01*
X62449523Y-147953523D01*
X62401904Y-147858285D01*
X62354285Y-147667809D01*
X62354285Y-147524952D01*
X62401904Y-147334476D01*
X62449523Y-147239238D01*
X62544761Y-147144000D01*
X62687619Y-147096380D01*
X62782857Y-147096380D01*
X62925714Y-147144000D01*
X62973333Y-147191619D01*
X63830476Y-147096380D02*
X63640000Y-147096380D01*
X63544761Y-147144000D01*
X63497142Y-147191619D01*
X63401904Y-147334476D01*
X63354285Y-147524952D01*
X63354285Y-147905904D01*
X63401904Y-148001142D01*
X63449523Y-148048761D01*
X63544761Y-148096380D01*
X63735238Y-148096380D01*
X63830476Y-148048761D01*
X63878095Y-148001142D01*
X63925714Y-147905904D01*
X63925714Y-147667809D01*
X63878095Y-147572571D01*
X63830476Y-147524952D01*
X63735238Y-147477333D01*
X63544761Y-147477333D01*
X63449523Y-147524952D01*
X63401904Y-147572571D01*
X63354285Y-147667809D01*
D13*
%TO.C,JP2*%
X120204000Y-138700000D02*
X121604000Y-138700000D01*
X121604000Y-140700000D02*
X120204000Y-140700000D01*
X122304000Y-139400000D02*
X122304000Y-140000000D01*
X119504000Y-140000000D02*
X119504000Y-139400000D01*
X122304000Y-139400000D02*
G75*
G03*
X121604000Y-138700000I-700000J0D01*
G01*
X120204000Y-138700000D02*
G75*
G03*
X119504000Y-139400000I-1J-699999D01*
G01*
X119504000Y-140000000D02*
G75*
G03*
X120204000Y-140700000I699999J-1D01*
G01*
X121604000Y-140700000D02*
G75*
G03*
X122304000Y-140000000I0J700000D01*
G01*
%TO.C,D5*%
X151725000Y-89887500D02*
X151725000Y-91887500D01*
X151725000Y-89887500D02*
X155575000Y-89887500D01*
X151725000Y-91887500D02*
X155575000Y-91887500D01*
%TO.C,D88*%
X50725000Y-91887500D02*
X54575000Y-91887500D01*
X50725000Y-89887500D02*
X50725000Y-91887500D01*
X50725000Y-89887500D02*
X54575000Y-89887500D01*
%TO.C,JP1*%
X83069200Y-137379200D02*
X84469200Y-137379200D01*
X85169200Y-138079200D02*
X85169200Y-138679200D01*
X82369200Y-138679200D02*
X82369200Y-138079200D01*
X84469200Y-139379200D02*
X83069200Y-139379200D01*
X85169200Y-138079200D02*
G75*
G03*
X84469200Y-137379200I-700000J0D01*
G01*
X83069200Y-137379200D02*
G75*
G03*
X82369200Y-138079200I-1J-699999D01*
G01*
X84469200Y-139379200D02*
G75*
G03*
X85169200Y-138679200I0J700000D01*
G01*
X82369200Y-138679200D02*
G75*
G03*
X83069200Y-139379200I699999J-1D01*
G01*
%TO.C,D11*%
X290789000Y-113839500D02*
X294639000Y-113839500D01*
X290789000Y-111839500D02*
X290789000Y-113839500D01*
X290789000Y-111839500D02*
X294639000Y-111839500D01*
%TO.C,J2*%
X52511530Y-107120600D02*
X53334000Y-107120600D01*
X52511530Y-111050600D02*
X53334000Y-111050600D01*
X49804000Y-107055600D02*
X50934000Y-107055600D01*
X49804000Y-108575600D02*
X49804000Y-111050600D01*
X51241530Y-111050600D02*
X51896470Y-111050600D01*
X51694000Y-108522129D02*
X51694000Y-108379071D01*
X53334000Y-107120600D02*
X53334000Y-111050600D01*
X49804000Y-108575600D02*
X50370529Y-108575600D01*
X49804000Y-111050600D02*
X50626470Y-111050600D01*
X51497471Y-108575600D02*
X51640529Y-108575600D01*
X49804000Y-107815600D02*
X49804000Y-107055600D01*
X51694000Y-107120600D02*
X51896470Y-107120600D01*
X51694000Y-107252129D02*
X51694000Y-107120600D01*
%TO.C,D31*%
X296992400Y-144542000D02*
X293142400Y-144542000D01*
X296992400Y-146542000D02*
X293142400Y-146542000D01*
X296992400Y-146542000D02*
X296992400Y-144542000D01*
%TO.C,D60*%
X321015000Y-106569000D02*
X324865000Y-106569000D01*
X321015000Y-106569000D02*
X321015000Y-108569000D01*
X321015000Y-108569000D02*
X324865000Y-108569000D01*
%TO.C,D41*%
X271990000Y-163710000D02*
X275840000Y-163710000D01*
X271990000Y-161710000D02*
X271990000Y-163710000D01*
X271990000Y-161710000D02*
X275840000Y-161710000D01*
%TO.C,D3*%
X228725000Y-89887500D02*
X228725000Y-91887500D01*
X228725000Y-89887500D02*
X232575000Y-89887500D01*
X228725000Y-91887500D02*
X232575000Y-91887500D01*
%TO.C,D2*%
X276139000Y-88782400D02*
X272289000Y-88782400D01*
X276139000Y-86782400D02*
X272289000Y-86782400D01*
X276139000Y-88782400D02*
X276139000Y-86782400D01*
%TO.C,DL14*%
X100775000Y-96137500D02*
X108075000Y-96137500D01*
X100775000Y-90637500D02*
X108075000Y-90637500D01*
X108075000Y-96137500D02*
X108075000Y-94987500D01*
%TO.C,DL1*%
X92905600Y-132442400D02*
X85605600Y-132442400D01*
X92905600Y-126942400D02*
X85605600Y-126942400D01*
X85605600Y-126942400D02*
X85605600Y-128092400D01*
%TO.C,D53*%
X198875000Y-145325000D02*
X202725000Y-145325000D01*
X198875000Y-147325000D02*
X202725000Y-147325000D01*
X198875000Y-145325000D02*
X198875000Y-147325000D01*
%TO.C,D44*%
X187916000Y-166123000D02*
X191766000Y-166123000D01*
X187916000Y-164123000D02*
X187916000Y-166123000D01*
X187916000Y-164123000D02*
X191766000Y-164123000D01*
%TO.C,D54*%
X168821000Y-145549000D02*
X164971000Y-145549000D01*
X168821000Y-143549000D02*
X164971000Y-143549000D01*
X168821000Y-145549000D02*
X168821000Y-143549000D01*
%TO.C,D16*%
X122006000Y-109839000D02*
X125856000Y-109839000D01*
X122006000Y-107839000D02*
X125856000Y-107839000D01*
X122006000Y-107839000D02*
X122006000Y-109839000D01*
%TO.C,D14*%
X179537000Y-109839000D02*
X183387000Y-109839000D01*
X179537000Y-107839000D02*
X183387000Y-107839000D01*
X179537000Y-107839000D02*
X179537000Y-109839000D01*
%TO.C,D20*%
X324190000Y-130762500D02*
X324190000Y-132762500D01*
X324190000Y-130762500D02*
X328040000Y-130762500D01*
X324190000Y-132762500D02*
X328040000Y-132762500D01*
%TO.C,D30*%
X319364000Y-149685500D02*
X319364000Y-151685500D01*
X319364000Y-149685500D02*
X323214000Y-149685500D01*
X319364000Y-151685500D02*
X323214000Y-151685500D01*
%TO.C,C3*%
X69313748Y-134647000D02*
X69836252Y-134647000D01*
X69313748Y-133177000D02*
X69836252Y-133177000D01*
%TO.C,D4*%
X190225000Y-89887500D02*
X194075000Y-89887500D01*
X190225000Y-89887500D02*
X190225000Y-91887500D01*
X190225000Y-91887500D02*
X194075000Y-91887500D01*
%TO.C,DL3*%
X174775000Y-127637500D02*
X174775000Y-128787500D01*
X182075000Y-133137500D02*
X174775000Y-133137500D01*
X182075000Y-127637500D02*
X174775000Y-127637500D01*
%TO.C,D81*%
X284743800Y-89220800D02*
X284743800Y-91220800D01*
X284743800Y-91220800D02*
X288593800Y-91220800D01*
X284743800Y-89220800D02*
X288593800Y-89220800D01*
%TO.C,D10*%
X328889000Y-111839500D02*
X332739000Y-111839500D01*
X328889000Y-111839500D02*
X328889000Y-113839500D01*
X328889000Y-113839500D02*
X332739000Y-113839500D01*
%TO.C,D50*%
X318725000Y-126387500D02*
X322575000Y-126387500D01*
X318725000Y-128387500D02*
X322575000Y-128387500D01*
X318725000Y-126387500D02*
X318725000Y-128387500D01*
%TO.C,D35*%
X128864000Y-149939500D02*
X128864000Y-151939500D01*
X128864000Y-149939500D02*
X132714000Y-149939500D01*
X128864000Y-151939500D02*
X132714000Y-151939500D01*
%TO.C,D38*%
X69075000Y-108825000D02*
X69075000Y-104975000D01*
X71075000Y-108825000D02*
X71075000Y-104975000D01*
X69075000Y-108825000D02*
X71075000Y-108825000D01*
%TO.C,D40*%
X303035000Y-149416000D02*
X305035000Y-149416000D01*
X303035000Y-149416000D02*
X303035000Y-145566000D01*
X305035000Y-149416000D02*
X305035000Y-145566000D01*
%TO.C,D6*%
X150942400Y-91982800D02*
X150942400Y-89982800D01*
X150942400Y-89982800D02*
X147092400Y-89982800D01*
X150942400Y-91982800D02*
X147092400Y-91982800D01*
D11*
%TO.C,J1*%
X243325000Y-114825000D02*
X243325000Y-113825000D01*
X243325000Y-109825000D02*
X243325000Y-108825000D01*
X245725000Y-114825000D02*
X243325000Y-114825000D01*
X243325000Y-108825000D02*
X245725000Y-108825000D01*
X247525000Y-109825000D02*
X247525000Y-113825000D01*
D13*
%TO.C,R4*%
X74395000Y-119099064D02*
X74395000Y-118644936D01*
X72925000Y-119099064D02*
X72925000Y-118644936D01*
%TO.C,D25*%
X147784000Y-114466000D02*
X147784000Y-116466000D01*
X147784000Y-116466000D02*
X151634000Y-116466000D01*
X147784000Y-114466000D02*
X151634000Y-114466000D01*
%TO.C,D82*%
X257013200Y-86096200D02*
X257013200Y-82246200D01*
X257013200Y-86096200D02*
X259013200Y-86096200D01*
X259013200Y-86096200D02*
X259013200Y-82246200D01*
%TO.C,D8*%
X99609000Y-87258400D02*
X95759000Y-87258400D01*
X99609000Y-85258400D02*
X95759000Y-85258400D01*
X99609000Y-87258400D02*
X99609000Y-85258400D01*
%TO.C,DL15*%
X70075000Y-96137500D02*
X70075000Y-94987500D01*
X62775000Y-90637500D02*
X70075000Y-90637500D01*
X62775000Y-96137500D02*
X70075000Y-96137500D01*
%TO.C,D18*%
X97450000Y-109712000D02*
X93600000Y-109712000D01*
X97450000Y-107712000D02*
X93600000Y-107712000D01*
X97450000Y-109712000D02*
X97450000Y-107712000D01*
%TO.C,D34*%
X178416400Y-147234400D02*
X178416400Y-149234400D01*
X178416400Y-149234400D02*
X182266400Y-149234400D01*
X178416400Y-147234400D02*
X182266400Y-147234400D01*
%TO.C,DL12*%
X184575000Y-93075000D02*
X184575000Y-91925000D01*
X177275000Y-93075000D02*
X184575000Y-93075000D01*
X177275000Y-87575000D02*
X184575000Y-87575000D01*
%TO.C,DL2*%
X137075000Y-133137500D02*
X129775000Y-133137500D01*
X137075000Y-127637500D02*
X129775000Y-127637500D01*
X129775000Y-127637500D02*
X129775000Y-128787500D01*
%TO.C,C4*%
X69313748Y-135590000D02*
X69836252Y-135590000D01*
X69313748Y-137060000D02*
X69836252Y-137060000D01*
%TO.C,D83*%
X220862400Y-86477200D02*
X220862400Y-82627200D01*
X218862400Y-86477200D02*
X220862400Y-86477200D01*
X218862400Y-86477200D02*
X218862400Y-82627200D01*
%TO.C,D0*%
X344725000Y-89887500D02*
X344725000Y-91887500D01*
X344725000Y-89887500D02*
X348575000Y-89887500D01*
X344725000Y-91887500D02*
X348575000Y-91887500D01*
%TO.C,DL8*%
X329775000Y-90637500D02*
X337075000Y-90637500D01*
X329775000Y-96137500D02*
X337075000Y-96137500D01*
X337075000Y-96137500D02*
X337075000Y-94987500D01*
%TO.C,D17*%
X111592000Y-107712000D02*
X115442000Y-107712000D01*
X111592000Y-109712000D02*
X115442000Y-109712000D01*
X111592000Y-107712000D02*
X111592000Y-109712000D01*
%TO.C,DL13*%
X146075000Y-93075000D02*
X146075000Y-91925000D01*
X138775000Y-87575000D02*
X146075000Y-87575000D01*
X138775000Y-93075000D02*
X146075000Y-93075000D01*
%TO.C,D7*%
X121622000Y-85256000D02*
X125472000Y-85256000D01*
X121622000Y-85256000D02*
X121622000Y-87256000D01*
X121622000Y-87256000D02*
X125472000Y-87256000D01*
%TO.C,D84*%
X173726200Y-91754200D02*
X173726200Y-89754200D01*
X173726200Y-89754200D02*
X169876200Y-89754200D01*
X173726200Y-91754200D02*
X169876200Y-91754200D01*
%TO.C,R2*%
X124356936Y-140458000D02*
X124811064Y-140458000D01*
X124356936Y-138988000D02*
X124811064Y-138988000D01*
%TO.C,D15*%
X141564000Y-107712000D02*
X141564000Y-109712000D01*
X141564000Y-109712000D02*
X145414000Y-109712000D01*
X141564000Y-107712000D02*
X145414000Y-107712000D01*
%TO.C,D73*%
X192875000Y-106325000D02*
X192875000Y-108325000D01*
X192875000Y-108325000D02*
X196725000Y-108325000D01*
X192875000Y-106325000D02*
X196725000Y-106325000D01*
%TO.C,D26*%
X128861000Y-114466000D02*
X132711000Y-114466000D01*
X128861000Y-114466000D02*
X128861000Y-116466000D01*
X128861000Y-116466000D02*
X132711000Y-116466000D01*
%TO.C,D21*%
X301666000Y-125492000D02*
X297816000Y-125492000D01*
X301666000Y-127492000D02*
X301666000Y-125492000D01*
X301666000Y-127492000D02*
X297816000Y-127492000D01*
%TO.C,D63*%
X209514800Y-127085600D02*
X209514800Y-125085600D01*
X209514800Y-127085600D02*
X205664800Y-127085600D01*
X209514800Y-125085600D02*
X205664800Y-125085600D01*
%TO.C,DL7*%
X317075000Y-133137500D02*
X309775000Y-133137500D01*
X309775000Y-127637500D02*
X309775000Y-128787500D01*
X317075000Y-127637500D02*
X309775000Y-127637500D01*
%TO.C,D27*%
X109947200Y-124932800D02*
X109947200Y-121082800D01*
X109947200Y-124932800D02*
X111947200Y-124932800D01*
X111947200Y-124932800D02*
X111947200Y-121082800D01*
%TO.C,D72*%
X236433000Y-108442000D02*
X240283000Y-108442000D01*
X236433000Y-106442000D02*
X236433000Y-108442000D01*
X236433000Y-106442000D02*
X240283000Y-106442000D01*
%TO.C,D51*%
X273768000Y-147105000D02*
X277618000Y-147105000D01*
X273768000Y-149105000D02*
X277618000Y-149105000D01*
X273768000Y-147105000D02*
X273768000Y-149105000D01*
%TO.C,D1*%
X307070400Y-87620600D02*
X307070400Y-89620600D01*
X307070400Y-87620600D02*
X310920400Y-87620600D01*
X307070400Y-89620600D02*
X310920400Y-89620600D01*
%TO.C,C5*%
X66336252Y-141260000D02*
X65813748Y-141260000D01*
X66336252Y-139790000D02*
X65813748Y-139790000D01*
%TO.C,DL6*%
X272075000Y-133137500D02*
X264775000Y-133137500D01*
X264775000Y-127637500D02*
X264775000Y-128787500D01*
X272075000Y-127637500D02*
X264775000Y-127637500D01*
%TO.C,D22*%
X266487000Y-116593000D02*
X266487000Y-114593000D01*
X266487000Y-116593000D02*
X262637000Y-116593000D01*
X266487000Y-114593000D02*
X262637000Y-114593000D01*
%TO.C,D24*%
X185425000Y-130587500D02*
X185425000Y-126737500D01*
X185425000Y-130587500D02*
X187425000Y-130587500D01*
X187425000Y-130587500D02*
X187425000Y-126737500D01*
%TO.C,D33*%
X207425000Y-149587500D02*
X209425000Y-149587500D01*
X209425000Y-149587500D02*
X209425000Y-145737500D01*
X207425000Y-149587500D02*
X207425000Y-145737500D01*
%TO.C,U1*%
X78185000Y-141156000D02*
X78185000Y-140431000D01*
X70965000Y-147651000D02*
X71690000Y-147651000D01*
X70965000Y-146926000D02*
X70965000Y-147651000D01*
X78185000Y-146926000D02*
X78185000Y-147651000D01*
X70965000Y-140431000D02*
X71690000Y-140431000D01*
X70965000Y-141156000D02*
X70965000Y-140431000D01*
X78185000Y-147651000D02*
X77460000Y-147651000D01*
%TO.C,DL9*%
X291775000Y-96137500D02*
X299075000Y-96137500D01*
X299075000Y-96137500D02*
X299075000Y-94987500D01*
X291775000Y-90637500D02*
X299075000Y-90637500D01*
%TO.C,C2*%
X69313748Y-130764000D02*
X69836252Y-130764000D01*
X69313748Y-132234000D02*
X69836252Y-132234000D01*
%TO.C,D43*%
X227876000Y-165742000D02*
X227876000Y-163742000D01*
X227876000Y-163742000D02*
X224026000Y-163742000D01*
X227876000Y-165742000D02*
X224026000Y-165742000D01*
%TO.C,D13*%
X217256000Y-107839000D02*
X217256000Y-109839000D01*
X217256000Y-109839000D02*
X221106000Y-109839000D01*
X217256000Y-107839000D02*
X221106000Y-107839000D01*
%TO.C,DL4*%
X227075000Y-154137500D02*
X219775000Y-154137500D01*
X227075000Y-148637500D02*
X219775000Y-148637500D01*
X219775000Y-148637500D02*
X219775000Y-149787500D01*
%TO.C,D42*%
X270802000Y-163710000D02*
X270802000Y-161710000D01*
X270802000Y-163710000D02*
X266952000Y-163710000D01*
X270802000Y-161710000D02*
X266952000Y-161710000D01*
%TO.C,C7*%
X74019852Y-130809200D02*
X73497348Y-130809200D01*
X74019852Y-132279200D02*
X73497348Y-132279200D01*
%TO.C,R1*%
X241705000Y-168144064D02*
X241705000Y-167689936D01*
X243175000Y-168144064D02*
X243175000Y-167689936D01*
%TO.C,D46*%
X153835000Y-166123000D02*
X153835000Y-164123000D01*
X153835000Y-164123000D02*
X149985000Y-164123000D01*
X153835000Y-166123000D02*
X149985000Y-166123000D01*
%TO.C,DL11*%
X222575000Y-93075000D02*
X222575000Y-91925000D01*
X215275000Y-87575000D02*
X222575000Y-87575000D01*
X215275000Y-93075000D02*
X222575000Y-93075000D01*
%TO.C,DL5*%
X219775000Y-127637500D02*
X219775000Y-128787500D01*
X227075000Y-133137500D02*
X219775000Y-133137500D01*
X227075000Y-127637500D02*
X219775000Y-127637500D01*
D14*
%TO.C,SW2*%
X122532000Y-142674500D02*
X122532000Y-142674500D01*
D15*
X128088000Y-145332500D02*
X128088000Y-146132500D01*
D14*
X122468000Y-142674500D02*
X122468000Y-142674500D01*
D15*
X121388000Y-145332500D02*
X121388000Y-146132500D01*
X121990000Y-147032500D02*
X127486000Y-147032500D01*
D14*
X122468000Y-142674500D02*
G75*
G03*
X122532000Y-142674500I32000J0D01*
G01*
X122532000Y-142674500D02*
G75*
G03*
X122468000Y-142674500I-32000J0D01*
G01*
D13*
%TO.C,DL10*%
X260725000Y-93075000D02*
X260725000Y-91925000D01*
X253425000Y-93075000D02*
X260725000Y-93075000D01*
X253425000Y-87575000D02*
X260725000Y-87575000D01*
%TO.C,D74*%
X173269000Y-106315000D02*
X169419000Y-106315000D01*
X173269000Y-108315000D02*
X169419000Y-108315000D01*
X173269000Y-108315000D02*
X173269000Y-106315000D01*
%TO.C,D23*%
X228638000Y-114466000D02*
X224788000Y-114466000D01*
X228638000Y-116466000D02*
X224788000Y-116466000D01*
X228638000Y-116466000D02*
X228638000Y-114466000D01*
%TO.C,D64*%
X171234000Y-116339000D02*
X167384000Y-116339000D01*
X171234000Y-114339000D02*
X167384000Y-114339000D01*
X171234000Y-116339000D02*
X171234000Y-114339000D01*
%TO.C,R3*%
X73379000Y-114908064D02*
X73379000Y-114453936D01*
X71909000Y-114908064D02*
X71909000Y-114453936D01*
%TO.C,D71*%
X272501000Y-107077000D02*
X272501000Y-109077000D01*
X272501000Y-107077000D02*
X276351000Y-107077000D01*
X272501000Y-109077000D02*
X276351000Y-109077000D01*
%TO.C,D61*%
X282867000Y-127619000D02*
X279017000Y-127619000D01*
X282867000Y-125619000D02*
X279017000Y-125619000D01*
X282867000Y-127619000D02*
X282867000Y-125619000D01*
%TO.C,D45*%
X168866000Y-166123000D02*
X172716000Y-166123000D01*
X168866000Y-164123000D02*
X172716000Y-164123000D01*
X168866000Y-164123000D02*
X168866000Y-166123000D01*
%TO.C,Y1*%
X64425000Y-146123000D02*
X67725000Y-146123000D01*
X67725000Y-146123000D02*
X67725000Y-142123000D01*
%TO.C,D70*%
X314817400Y-87493600D02*
X318667400Y-87493600D01*
X314817400Y-87493600D02*
X314817400Y-89493600D01*
X314817400Y-89493600D02*
X318667400Y-89493600D01*
%TO.C,D52*%
X243824000Y-146916500D02*
X243824000Y-143066500D01*
X241824000Y-146916500D02*
X241824000Y-143066500D01*
X241824000Y-146916500D02*
X243824000Y-146916500D01*
%TO.C,D62*%
X247282000Y-127318000D02*
X247282000Y-123468000D01*
X247282000Y-127318000D02*
X249282000Y-127318000D01*
X249282000Y-127318000D02*
X249282000Y-123468000D01*
%TO.C,D36*%
X104350000Y-147105000D02*
X108200000Y-147105000D01*
X104350000Y-149105000D02*
X108200000Y-149105000D01*
X104350000Y-147105000D02*
X104350000Y-149105000D01*
%TO.C,D12*%
X270575000Y-109625000D02*
X270575000Y-105775000D01*
X268575000Y-109625000D02*
X268575000Y-105775000D01*
X268575000Y-109625000D02*
X270575000Y-109625000D01*
%TO.C,C1*%
X69313748Y-129821000D02*
X69836252Y-129821000D01*
X69313748Y-128351000D02*
X69836252Y-128351000D01*
%TO.C,D32*%
X258934000Y-148654000D02*
X258934000Y-144804000D01*
X256934000Y-148654000D02*
X256934000Y-144804000D01*
X256934000Y-148654000D02*
X258934000Y-148654000D01*
%TO.C,C6*%
X65813748Y-146990000D02*
X66336252Y-146990000D01*
X65813748Y-148460000D02*
X66336252Y-148460000D01*
%TD*%
D16*
%TO.C,SW2*%
X123238000Y-145732500D03*
X126238000Y-145732500D03*
%TD*%
%LPC*%
D17*
%TO.C,JP2*%
X120254000Y-139700000D03*
D18*
X121554000Y-139700000D03*
%TD*%
D19*
%TO.C,D5*%
X152525000Y-90887500D03*
X155325000Y-90887500D03*
%TD*%
D20*
%TO.C,K8*%
X80645000Y-85725000D03*
D21*
X83185000Y-80645000D03*
X73787000Y-78740000D03*
X89535000Y-83185000D03*
D20*
X90805000Y-85725000D03*
D22*
X97663000Y-93980000D03*
D21*
X97663000Y-78740000D03*
D22*
X85725000Y-85725000D03*
X73787000Y-93980000D03*
D23*
X79629000Y-80645000D03*
X93091000Y-83185000D03*
%TD*%
D19*
%TO.C,D88*%
X51525000Y-90887500D03*
X54325000Y-90887500D03*
%TD*%
D17*
%TO.C,JP1*%
X83119200Y-138379200D03*
D18*
X84419200Y-138379200D03*
%TD*%
D21*
%TO.C,K22*%
X260985000Y-121285000D03*
D20*
X262255000Y-123825000D03*
X252095000Y-123825000D03*
D22*
X257175000Y-123825000D03*
D21*
X254635000Y-118745000D03*
D23*
X251079000Y-118745000D03*
X264541000Y-121285000D03*
%TD*%
D19*
%TO.C,D11*%
X291589000Y-112839500D03*
X294389000Y-112839500D03*
%TD*%
D24*
%TO.C,J2*%
X50934000Y-107815600D03*
D25*
X52204000Y-107815600D03*
X50934000Y-109085600D03*
X52204000Y-109085600D03*
X50934000Y-110355600D03*
X52204000Y-110355600D03*
%TD*%
D20*
%TO.C,K70*%
X328930000Y-85725000D03*
D21*
X321310000Y-80645000D03*
X327660000Y-83185000D03*
D22*
X323850000Y-85725000D03*
D20*
X318770000Y-85725000D03*
D23*
X317754000Y-80645000D03*
X331216000Y-83185000D03*
%TD*%
D20*
%TO.C,K82*%
X242570000Y-85725000D03*
X252730000Y-85725000D03*
D22*
X247650000Y-85725000D03*
D21*
X245110000Y-80645000D03*
X251460000Y-83185000D03*
D23*
X241554000Y-80645000D03*
X255016000Y-83185000D03*
%TD*%
D19*
%TO.C,D31*%
X296192400Y-145542000D03*
X293392400Y-145542000D03*
%TD*%
%TO.C,D60*%
X321815000Y-107569000D03*
X324615000Y-107569000D03*
%TD*%
D22*
%TO.C,K41*%
X283368750Y-161925000D03*
D20*
X278288750Y-161925000D03*
D21*
X287178750Y-159385000D03*
D20*
X288448750Y-161925000D03*
D21*
X280828750Y-156845000D03*
D23*
X277272750Y-156845000D03*
X290734750Y-159385000D03*
%TD*%
D20*
%TO.C,K7*%
X119380000Y-85725000D03*
D21*
X111760000Y-80645000D03*
D22*
X114300000Y-85725000D03*
D20*
X109220000Y-85725000D03*
D21*
X118110000Y-83185000D03*
D23*
X108204000Y-80645000D03*
X121666000Y-83185000D03*
%TD*%
D21*
%TO.C,K63*%
X203835000Y-121285000D03*
X197485000Y-118745000D03*
D20*
X205105000Y-123825000D03*
X194945000Y-123825000D03*
D22*
X200025000Y-123825000D03*
D23*
X193929000Y-118745000D03*
X207391000Y-121285000D03*
%TD*%
D19*
%TO.C,D41*%
X272790000Y-162710000D03*
X275590000Y-162710000D03*
%TD*%
%TO.C,D3*%
X229525000Y-90887500D03*
X232325000Y-90887500D03*
%TD*%
%TO.C,D2*%
X275339000Y-87782400D03*
X272539000Y-87782400D03*
%TD*%
D26*
%TO.C,DL14*%
X101975000Y-91787500D03*
X101975000Y-94987500D03*
X106875000Y-94987500D03*
X106875000Y-91787500D03*
%TD*%
%TO.C,DL1*%
X91705600Y-131292400D03*
X91705600Y-128092400D03*
X86805600Y-128092400D03*
X86805600Y-131292400D03*
%TD*%
D19*
%TO.C,D53*%
X199675000Y-146325000D03*
X202475000Y-146325000D03*
%TD*%
%TO.C,D44*%
X188716000Y-165123000D03*
X191516000Y-165123000D03*
%TD*%
%TO.C,D54*%
X168021000Y-144549000D03*
X165221000Y-144549000D03*
%TD*%
%TO.C,D16*%
X122806000Y-108839000D03*
X125606000Y-108839000D03*
%TD*%
%TO.C,D14*%
X180337000Y-108839000D03*
X183137000Y-108839000D03*
%TD*%
%TO.C,D20*%
X324990000Y-131762500D03*
X327790000Y-131762500D03*
%TD*%
D22*
%TO.C,K32*%
X252412500Y-142875000D03*
D20*
X257492500Y-142875000D03*
D21*
X256222500Y-140335000D03*
X249872500Y-137795000D03*
D20*
X247332500Y-142875000D03*
D23*
X246316500Y-137795000D03*
X259778500Y-140335000D03*
%TD*%
D19*
%TO.C,D30*%
X320164000Y-150685500D03*
X322964000Y-150685500D03*
%TD*%
D27*
%TO.C,C3*%
X68625000Y-133912000D03*
X70525000Y-133912000D03*
%TD*%
D21*
%TO.C,K10*%
X341947500Y-102235000D03*
X335597500Y-99695000D03*
D22*
X338137500Y-104775000D03*
D20*
X333057500Y-104775000D03*
X343217500Y-104775000D03*
D23*
X332041500Y-99695000D03*
X345503500Y-102235000D03*
%TD*%
D20*
%TO.C,K11*%
X294957500Y-104775000D03*
D22*
X300037500Y-104775000D03*
D21*
X297497500Y-99695000D03*
D20*
X305117500Y-104775000D03*
D21*
X303847500Y-102235000D03*
D23*
X293941500Y-99695000D03*
X307403500Y-102235000D03*
%TD*%
D21*
%TO.C,K27*%
X104806750Y-116840000D03*
X80930750Y-116840000D03*
X96678750Y-121285000D03*
X90328750Y-118745000D03*
D20*
X87788750Y-123825000D03*
D22*
X80930750Y-132080000D03*
X92868750Y-123825000D03*
X104806750Y-132080000D03*
D20*
X97948750Y-123825000D03*
D23*
X86772750Y-118745000D03*
X100234750Y-121285000D03*
%TD*%
D19*
%TO.C,D4*%
X191025000Y-90887500D03*
X193825000Y-90887500D03*
%TD*%
D26*
%TO.C,DL3*%
X180875000Y-131987500D03*
X180875000Y-128787500D03*
X175975000Y-128787500D03*
X175975000Y-131987500D03*
%TD*%
D20*
%TO.C,K42*%
X254476250Y-161925000D03*
D21*
X257016250Y-156845000D03*
D22*
X259556250Y-161925000D03*
D20*
X264636250Y-161925000D03*
D21*
X263366250Y-159385000D03*
D23*
X253460250Y-156845000D03*
X266922250Y-159385000D03*
%TD*%
D20*
%TO.C,K45*%
X161607500Y-161925000D03*
D21*
X164147500Y-156845000D03*
D22*
X166687500Y-161925000D03*
D21*
X170497500Y-159385000D03*
D20*
X171767500Y-161925000D03*
D23*
X160591500Y-156845000D03*
X174053500Y-159385000D03*
%TD*%
D20*
%TO.C,K12*%
X267017500Y-104775000D03*
D22*
X261937500Y-104775000D03*
D20*
X256857500Y-104775000D03*
D21*
X265747500Y-102235000D03*
X259397500Y-99695000D03*
D23*
X255841500Y-99695000D03*
X269303500Y-102235000D03*
%TD*%
D20*
%TO.C,K72*%
X237807500Y-104775000D03*
D21*
X246697500Y-102235000D03*
D22*
X242887500Y-104775000D03*
D21*
X240347500Y-99695000D03*
D20*
X247967500Y-104775000D03*
D23*
X236791500Y-99695000D03*
X250253500Y-102235000D03*
%TD*%
D19*
%TO.C,D81*%
X285543800Y-90220800D03*
X288343800Y-90220800D03*
%TD*%
%TO.C,D10*%
X329689000Y-112839500D03*
X332489000Y-112839500D03*
%TD*%
D20*
%TO.C,K34*%
X181292500Y-142875000D03*
D22*
X176212500Y-142875000D03*
D20*
X171132500Y-142875000D03*
D21*
X173672500Y-137795000D03*
X180022500Y-140335000D03*
D23*
X170116500Y-137795000D03*
X183578500Y-140335000D03*
%TD*%
D19*
%TO.C,D50*%
X319525000Y-127387500D03*
X322325000Y-127387500D03*
%TD*%
%TO.C,D35*%
X129664000Y-150939500D03*
X132464000Y-150939500D03*
%TD*%
%TO.C,D38*%
X70075000Y-108025000D03*
X70075000Y-105225000D03*
%TD*%
D21*
%TO.C,K13*%
X221297500Y-99695000D03*
D22*
X223837500Y-104775000D03*
D20*
X228917500Y-104775000D03*
D21*
X227647500Y-102235000D03*
D20*
X218757500Y-104775000D03*
D23*
X217741500Y-99695000D03*
X231203500Y-102235000D03*
%TD*%
D19*
%TO.C,D40*%
X304035000Y-148616000D03*
X304035000Y-145816000D03*
%TD*%
%TO.C,D6*%
X150142400Y-90982800D03*
X147342400Y-90982800D03*
%TD*%
D28*
%TO.C,J1*%
X246825000Y-109025000D03*
X246825000Y-114625000D03*
D29*
X242950000Y-113325000D03*
X242950000Y-112325000D03*
X242950000Y-111325000D03*
X242950000Y-110325000D03*
%TD*%
D21*
%TO.C,K73*%
X202247500Y-99695000D03*
X208597500Y-102235000D03*
D20*
X209867500Y-104775000D03*
X199707500Y-104775000D03*
D22*
X204787500Y-104775000D03*
D23*
X198691500Y-99695000D03*
X212153500Y-102235000D03*
%TD*%
D21*
%TO.C,K81*%
X289560000Y-83185000D03*
D20*
X280670000Y-85725000D03*
D22*
X285750000Y-85725000D03*
D21*
X283210000Y-80645000D03*
D20*
X290830000Y-85725000D03*
D23*
X279654000Y-80645000D03*
X293116000Y-83185000D03*
%TD*%
D20*
%TO.C,K74*%
X171767500Y-104775000D03*
D22*
X166687500Y-104775000D03*
D21*
X170497500Y-102235000D03*
X164147500Y-99695000D03*
D20*
X161607500Y-104775000D03*
D23*
X160591500Y-99695000D03*
X174053500Y-102235000D03*
%TD*%
D21*
%TO.C,K40*%
X313372500Y-140335000D03*
D20*
X304482500Y-142875000D03*
X314642500Y-142875000D03*
D21*
X307022500Y-137795000D03*
D22*
X309562500Y-142875000D03*
D23*
X303466500Y-137795000D03*
X316928500Y-140335000D03*
%TD*%
D21*
%TO.C,K52*%
X230822500Y-137795000D03*
D22*
X233362500Y-142875000D03*
D20*
X228282500Y-142875000D03*
D21*
X237172500Y-140335000D03*
D20*
X238442500Y-142875000D03*
D23*
X227266500Y-137795000D03*
X240728500Y-140335000D03*
%TD*%
D30*
%TO.C,R4*%
X73660000Y-119784500D03*
X73660000Y-117959500D03*
%TD*%
D22*
%TO.C,K16*%
X128587500Y-104775000D03*
D20*
X133667500Y-104775000D03*
X123507500Y-104775000D03*
D21*
X132397500Y-102235000D03*
X126047500Y-99695000D03*
D23*
X122491500Y-99695000D03*
X135953500Y-102235000D03*
%TD*%
D21*
%TO.C,K60*%
X322897500Y-102235000D03*
D20*
X324167500Y-104775000D03*
D22*
X319087500Y-104775000D03*
D20*
X314007500Y-104775000D03*
D21*
X316547500Y-99695000D03*
D23*
X312991500Y-99695000D03*
X326453500Y-102235000D03*
%TD*%
D19*
%TO.C,D25*%
X148584000Y-115466000D03*
X151384000Y-115466000D03*
%TD*%
%TO.C,D82*%
X258013200Y-85296200D03*
X258013200Y-82496200D03*
%TD*%
%TO.C,D8*%
X98809000Y-86258400D03*
X96009000Y-86258400D03*
%TD*%
D26*
%TO.C,DL15*%
X63975000Y-91787500D03*
X63975000Y-94987500D03*
X68875000Y-94987500D03*
X68875000Y-91787500D03*
%TD*%
D19*
%TO.C,D18*%
X96650000Y-108712000D03*
X93850000Y-108712000D03*
%TD*%
D21*
%TO.C,K23*%
X216535000Y-118745000D03*
D20*
X213995000Y-123825000D03*
D22*
X219075000Y-123825000D03*
D20*
X224155000Y-123825000D03*
D21*
X222885000Y-121285000D03*
D23*
X212979000Y-118745000D03*
X226441000Y-121285000D03*
%TD*%
D19*
%TO.C,D34*%
X179216400Y-148234400D03*
X182016400Y-148234400D03*
%TD*%
D26*
%TO.C,DL12*%
X178475000Y-88725000D03*
X178475000Y-91925000D03*
X183375000Y-91925000D03*
X183375000Y-88725000D03*
%TD*%
%TO.C,DL2*%
X135875000Y-131987500D03*
X135875000Y-128787500D03*
X130975000Y-128787500D03*
X130975000Y-131987500D03*
%TD*%
D22*
%TO.C,K24*%
X180975000Y-123825000D03*
D21*
X178435000Y-118745000D03*
D20*
X186055000Y-123825000D03*
X175895000Y-123825000D03*
D21*
X184785000Y-121285000D03*
D23*
X174879000Y-118745000D03*
X188341000Y-121285000D03*
%TD*%
D20*
%TO.C,K43*%
X226536250Y-161925000D03*
D21*
X218916250Y-156845000D03*
D22*
X233394250Y-153670000D03*
X209518250Y-153670000D03*
D21*
X225266250Y-159385000D03*
D22*
X221456250Y-161925000D03*
D20*
X216376250Y-161925000D03*
D21*
X233394250Y-168910000D03*
X209518250Y-168910000D03*
D23*
X215360250Y-156845000D03*
X228822250Y-159385000D03*
%TD*%
D22*
%TO.C,K3*%
X228600000Y-85725000D03*
D21*
X232410000Y-83185000D03*
D20*
X233680000Y-85725000D03*
X223520000Y-85725000D03*
D21*
X226060000Y-80645000D03*
D23*
X222504000Y-80645000D03*
X235966000Y-83185000D03*
%TD*%
D27*
%TO.C,C4*%
X68625000Y-136325000D03*
X70525000Y-136325000D03*
%TD*%
D19*
%TO.C,D83*%
X219862400Y-85677200D03*
X219862400Y-82877200D03*
%TD*%
%TO.C,D0*%
X345525000Y-90887500D03*
X348325000Y-90887500D03*
%TD*%
D21*
%TO.C,K83*%
X207010000Y-80645000D03*
D22*
X209550000Y-85725000D03*
D21*
X213360000Y-83185000D03*
D20*
X214630000Y-85725000D03*
X204470000Y-85725000D03*
D23*
X203454000Y-80645000D03*
X216916000Y-83185000D03*
%TD*%
D26*
%TO.C,DL8*%
X330975000Y-91787500D03*
X330975000Y-94987500D03*
X335875000Y-94987500D03*
X335875000Y-91787500D03*
%TD*%
D21*
%TO.C,K61*%
X273685000Y-118745000D03*
D20*
X281305000Y-123825000D03*
D21*
X280035000Y-121285000D03*
D22*
X276225000Y-123825000D03*
D20*
X271145000Y-123825000D03*
D23*
X270129000Y-118745000D03*
X283591000Y-121285000D03*
%TD*%
D19*
%TO.C,D17*%
X112392000Y-108712000D03*
X115192000Y-108712000D03*
%TD*%
D26*
%TO.C,DL13*%
X139975000Y-88725000D03*
X139975000Y-91925000D03*
X144875000Y-91925000D03*
X144875000Y-88725000D03*
%TD*%
D21*
%TO.C,K30*%
X326072500Y-137795000D03*
D20*
X333692500Y-142875000D03*
D21*
X332422500Y-140335000D03*
D22*
X328612500Y-142875000D03*
D20*
X323532500Y-142875000D03*
D23*
X322516500Y-137795000D03*
X335978500Y-140335000D03*
%TD*%
D19*
%TO.C,D7*%
X122422000Y-86256000D03*
X125222000Y-86256000D03*
%TD*%
%TO.C,D84*%
X172926200Y-90754200D03*
X170126200Y-90754200D03*
%TD*%
D21*
%TO.C,K31*%
X294322500Y-140335000D03*
D20*
X285432500Y-142875000D03*
D21*
X287972500Y-137795000D03*
D20*
X295592500Y-142875000D03*
D22*
X290512500Y-142875000D03*
D23*
X284416500Y-137795000D03*
X297878500Y-140335000D03*
%TD*%
D31*
%TO.C,R2*%
X123671500Y-139723000D03*
X125496500Y-139723000D03*
%TD*%
D19*
%TO.C,D15*%
X142364000Y-108712000D03*
X145164000Y-108712000D03*
%TD*%
%TO.C,D73*%
X193675000Y-107325000D03*
X196475000Y-107325000D03*
%TD*%
D21*
%TO.C,K46*%
X151447500Y-159385000D03*
D20*
X152717500Y-161925000D03*
X142557500Y-161925000D03*
D22*
X147637500Y-161925000D03*
D21*
X145097500Y-156845000D03*
D23*
X141541500Y-156845000D03*
X155003500Y-159385000D03*
%TD*%
D19*
%TO.C,D26*%
X129661000Y-115466000D03*
X132461000Y-115466000D03*
%TD*%
%TO.C,D21*%
X300866000Y-126492000D03*
X298066000Y-126492000D03*
%TD*%
%TO.C,D63*%
X208714800Y-126085600D03*
X205914800Y-126085600D03*
%TD*%
D26*
%TO.C,DL7*%
X315875000Y-131987500D03*
X315875000Y-128787500D03*
X310975000Y-128787500D03*
X310975000Y-131987500D03*
%TD*%
D23*
%TO.C,K36*%
X109759750Y-140335000D03*
X96297750Y-137795000D03*
D21*
X90455750Y-135890000D03*
D22*
X102393750Y-142875000D03*
D20*
X97313750Y-142875000D03*
X107473750Y-142875000D03*
D21*
X106203750Y-140335000D03*
X99853750Y-137795000D03*
D22*
X90455750Y-151130000D03*
D21*
X114331750Y-135890000D03*
D22*
X114331750Y-151130000D03*
%TD*%
D19*
%TO.C,D27*%
X110947200Y-124132800D03*
X110947200Y-121332800D03*
%TD*%
%TO.C,D72*%
X237233000Y-107442000D03*
X240033000Y-107442000D03*
%TD*%
%TO.C,D51*%
X274568000Y-148105000D03*
X277368000Y-148105000D03*
%TD*%
D22*
%TO.C,K2*%
X266700000Y-85725000D03*
D20*
X271780000Y-85725000D03*
X261620000Y-85725000D03*
D21*
X270510000Y-83185000D03*
X264160000Y-80645000D03*
D23*
X260604000Y-80645000D03*
X274066000Y-83185000D03*
%TD*%
D19*
%TO.C,D1*%
X307870400Y-88620600D03*
X310670400Y-88620600D03*
%TD*%
D20*
%TO.C,K1*%
X299720000Y-85725000D03*
D22*
X304800000Y-85725000D03*
D20*
X309880000Y-85725000D03*
D21*
X302260000Y-80645000D03*
X308610000Y-83185000D03*
D23*
X298704000Y-80645000D03*
X312166000Y-83185000D03*
%TD*%
D20*
%TO.C,K26*%
X128905000Y-123825000D03*
X118745000Y-123825000D03*
D22*
X123825000Y-123825000D03*
D21*
X121285000Y-118745000D03*
X127635000Y-121285000D03*
D23*
X117729000Y-118745000D03*
X131191000Y-121285000D03*
%TD*%
D20*
%TO.C,K44*%
X180657500Y-161925000D03*
D21*
X183197500Y-156845000D03*
X189547500Y-159385000D03*
D22*
X185737500Y-161925000D03*
D20*
X190817500Y-161925000D03*
D23*
X179641500Y-156845000D03*
X193103500Y-159385000D03*
%TD*%
D32*
%TO.C,C5*%
X67025000Y-140525000D03*
X65125000Y-140525000D03*
%TD*%
D26*
%TO.C,DL6*%
X270875000Y-131987500D03*
X270875000Y-128787500D03*
X265975000Y-128787500D03*
X265975000Y-131987500D03*
%TD*%
D19*
%TO.C,D22*%
X265687000Y-115593000D03*
X262887000Y-115593000D03*
%TD*%
%TO.C,D24*%
X186425000Y-129787500D03*
X186425000Y-126987500D03*
%TD*%
D20*
%TO.C,K38*%
X56832500Y-104775000D03*
X66992500Y-104775000D03*
D21*
X65722500Y-102235000D03*
D22*
X61912500Y-104775000D03*
D21*
X59372500Y-99695000D03*
D23*
X55816500Y-99695000D03*
X69278500Y-102235000D03*
%TD*%
D22*
%TO.C,K54*%
X157162500Y-142875000D03*
D21*
X154622500Y-137795000D03*
X160972500Y-140335000D03*
D20*
X162242500Y-142875000D03*
X152082500Y-142875000D03*
D23*
X151066500Y-137795000D03*
X164528500Y-140335000D03*
%TD*%
D19*
%TO.C,D33*%
X208425000Y-148787500D03*
X208425000Y-145987500D03*
%TD*%
D33*
%TO.C,U1*%
X77075000Y-140703500D03*
X76575000Y-140703500D03*
X76075000Y-140703500D03*
X75575000Y-140703500D03*
X75075000Y-140703500D03*
X74575000Y-140703500D03*
X74075000Y-140703500D03*
X73575000Y-140703500D03*
X73075000Y-140703500D03*
X72575000Y-140703500D03*
X72075000Y-140703500D03*
D34*
X71237500Y-141541000D03*
X71237500Y-142041000D03*
X71237500Y-142541000D03*
X71237500Y-143041000D03*
X71237500Y-143541000D03*
X71237500Y-144041000D03*
X71237500Y-144541000D03*
X71237500Y-145041000D03*
X71237500Y-145541000D03*
X71237500Y-146041000D03*
X71237500Y-146541000D03*
D33*
X72075000Y-147378500D03*
X72575000Y-147378500D03*
X73075000Y-147378500D03*
X73575000Y-147378500D03*
X74075000Y-147378500D03*
X74575000Y-147378500D03*
X75075000Y-147378500D03*
X75575000Y-147378500D03*
X76075000Y-147378500D03*
X76575000Y-147378500D03*
X77075000Y-147378500D03*
D34*
X77912500Y-146541000D03*
X77912500Y-146041000D03*
X77912500Y-145541000D03*
X77912500Y-145041000D03*
X77912500Y-144541000D03*
X77912500Y-144041000D03*
X77912500Y-143541000D03*
X77912500Y-143041000D03*
X77912500Y-142541000D03*
X77912500Y-142041000D03*
X77912500Y-141541000D03*
D35*
X74575000Y-144041000D03*
%TD*%
D22*
%TO.C,K51*%
X271462500Y-142875000D03*
D21*
X268922500Y-137795000D03*
X275272500Y-140335000D03*
D20*
X266382500Y-142875000D03*
X276542500Y-142875000D03*
D23*
X265366500Y-137795000D03*
X278828500Y-140335000D03*
%TD*%
D20*
%TO.C,K53*%
X190182500Y-142875000D03*
D22*
X195262500Y-142875000D03*
D21*
X199072500Y-140335000D03*
D20*
X200342500Y-142875000D03*
D21*
X192722500Y-137795000D03*
D23*
X189166500Y-137795000D03*
X202628500Y-140335000D03*
%TD*%
D20*
%TO.C,K88*%
X52070000Y-85725000D03*
D21*
X54610000Y-80645000D03*
D20*
X62230000Y-85725000D03*
D22*
X57150000Y-85725000D03*
D21*
X60960000Y-83185000D03*
D23*
X51054000Y-80645000D03*
X64516000Y-83185000D03*
%TD*%
D22*
%TO.C,K21*%
X295275000Y-123825000D03*
D21*
X299085000Y-121285000D03*
D20*
X290195000Y-123825000D03*
X300355000Y-123825000D03*
D21*
X292735000Y-118745000D03*
D23*
X289179000Y-118745000D03*
X302641000Y-121285000D03*
%TD*%
D20*
%TO.C,K15*%
X142557500Y-104775000D03*
D22*
X147637500Y-104775000D03*
D21*
X145097500Y-99695000D03*
X151447500Y-102235000D03*
D20*
X152717500Y-104775000D03*
D23*
X141541500Y-99695000D03*
X155003500Y-102235000D03*
%TD*%
D26*
%TO.C,DL9*%
X292975000Y-91787500D03*
X292975000Y-94987500D03*
X297875000Y-94987500D03*
X297875000Y-91787500D03*
%TD*%
D27*
%TO.C,C2*%
X68625000Y-131499000D03*
X70525000Y-131499000D03*
%TD*%
D19*
%TO.C,D43*%
X227076000Y-164742000D03*
X224276000Y-164742000D03*
%TD*%
%TO.C,D13*%
X218056000Y-108839000D03*
X220856000Y-108839000D03*
%TD*%
D26*
%TO.C,DL4*%
X225875000Y-152987500D03*
X225875000Y-149787500D03*
X220975000Y-149787500D03*
X220975000Y-152987500D03*
%TD*%
D21*
%TO.C,K64*%
X165735000Y-121285000D03*
D22*
X161925000Y-123825000D03*
D20*
X156845000Y-123825000D03*
X167005000Y-123825000D03*
D21*
X159385000Y-118745000D03*
D23*
X155829000Y-118745000D03*
X169291000Y-121285000D03*
%TD*%
D19*
%TO.C,D42*%
X270002000Y-162710000D03*
X267202000Y-162710000D03*
%TD*%
D32*
%TO.C,C7*%
X74708600Y-131544200D03*
X72808600Y-131544200D03*
%TD*%
D20*
%TO.C,K6*%
X138430000Y-85725000D03*
X128270000Y-85725000D03*
D21*
X137160000Y-83185000D03*
D22*
X133350000Y-85725000D03*
D21*
X130810000Y-80645000D03*
D23*
X127254000Y-80645000D03*
X140716000Y-83185000D03*
%TD*%
D30*
%TO.C,R1*%
X242440000Y-168829500D03*
X242440000Y-167004500D03*
%TD*%
D21*
%TO.C,K33*%
X218122500Y-140335000D03*
D20*
X209232500Y-142875000D03*
D22*
X214312500Y-142875000D03*
D20*
X219392500Y-142875000D03*
D21*
X211772500Y-137795000D03*
D23*
X208216500Y-137795000D03*
X221678500Y-140335000D03*
%TD*%
D19*
%TO.C,D46*%
X153035000Y-165123000D03*
X150235000Y-165123000D03*
%TD*%
D26*
%TO.C,DL11*%
X216475000Y-88725000D03*
X216475000Y-91925000D03*
X221375000Y-91925000D03*
X221375000Y-88725000D03*
%TD*%
D21*
%TO.C,K35*%
X135572500Y-137795000D03*
X141922500Y-140335000D03*
D20*
X143192500Y-142875000D03*
D22*
X138112500Y-142875000D03*
D20*
X133032500Y-142875000D03*
D23*
X132016500Y-137795000D03*
X145478500Y-140335000D03*
%TD*%
D22*
%TO.C,K18*%
X85725000Y-104775000D03*
D20*
X90805000Y-104775000D03*
X80645000Y-104775000D03*
D21*
X83185000Y-99695000D03*
X89535000Y-102235000D03*
D23*
X79629000Y-99695000D03*
X93091000Y-102235000D03*
%TD*%
D26*
%TO.C,DL5*%
X225875000Y-131987500D03*
X225875000Y-128787500D03*
X220975000Y-128787500D03*
X220975000Y-131987500D03*
%TD*%
D20*
%TO.C,K14*%
X190817500Y-104775000D03*
D21*
X189547500Y-102235000D03*
D22*
X185737500Y-104775000D03*
D20*
X180657500Y-104775000D03*
D21*
X183197500Y-99695000D03*
D23*
X179641500Y-99695000D03*
X193103500Y-102235000D03*
%TD*%
D36*
%TO.C,SW2*%
X122488000Y-143982500D03*
X125488000Y-143982500D03*
X126988000Y-143982500D03*
D37*
X121088000Y-144632500D03*
X121088000Y-146832500D03*
X128388000Y-144632500D03*
X128388000Y-146832500D03*
D16*
X123238000Y-145732500D03*
X126238000Y-145732500D03*
%TD*%
D26*
%TO.C,DL10*%
X254625000Y-88725000D03*
X254625000Y-91925000D03*
X259525000Y-91925000D03*
X259525000Y-88725000D03*
%TD*%
D19*
%TO.C,D74*%
X172469000Y-107315000D03*
X169669000Y-107315000D03*
%TD*%
%TO.C,D23*%
X227838000Y-115466000D03*
X225038000Y-115466000D03*
%TD*%
D22*
%TO.C,K62*%
X238125000Y-123825000D03*
D20*
X243205000Y-123825000D03*
D21*
X235585000Y-118745000D03*
X241935000Y-121285000D03*
D20*
X233045000Y-123825000D03*
D23*
X232029000Y-118745000D03*
X245491000Y-121285000D03*
%TD*%
D19*
%TO.C,D64*%
X170434000Y-115339000D03*
X167634000Y-115339000D03*
%TD*%
D30*
%TO.C,R3*%
X72644000Y-115593500D03*
X72644000Y-113768500D03*
%TD*%
D19*
%TO.C,D71*%
X273301000Y-108077000D03*
X276101000Y-108077000D03*
%TD*%
%TO.C,D61*%
X282067000Y-126619000D03*
X279267000Y-126619000D03*
%TD*%
D20*
%TO.C,K5*%
X147320000Y-85725000D03*
D22*
X152400000Y-85725000D03*
D21*
X149860000Y-80645000D03*
D20*
X157480000Y-85725000D03*
D21*
X156210000Y-83185000D03*
D23*
X146304000Y-80645000D03*
X159766000Y-83185000D03*
%TD*%
D20*
%TO.C,K4*%
X185420000Y-85725000D03*
D21*
X194310000Y-83185000D03*
X187960000Y-80645000D03*
D22*
X190500000Y-85725000D03*
D20*
X195580000Y-85725000D03*
D23*
X184404000Y-80645000D03*
X197866000Y-83185000D03*
%TD*%
D21*
%TO.C,K17*%
X106997500Y-99695000D03*
D20*
X114617500Y-104775000D03*
D21*
X113347500Y-102235000D03*
D22*
X109537500Y-104775000D03*
D20*
X104457500Y-104775000D03*
D23*
X103441500Y-99695000D03*
X116903500Y-102235000D03*
%TD*%
D19*
%TO.C,D45*%
X169666000Y-165123000D03*
X172466000Y-165123000D03*
%TD*%
D38*
%TO.C,Y1*%
X66925000Y-145223000D03*
X66925000Y-143023000D03*
X65225000Y-143023000D03*
X65225000Y-145223000D03*
%TD*%
D19*
%TO.C,D70*%
X315617400Y-88493600D03*
X318417400Y-88493600D03*
%TD*%
%TO.C,D52*%
X242824000Y-146116500D03*
X242824000Y-143316500D03*
%TD*%
D21*
%TO.C,K50*%
X311785000Y-118745000D03*
D22*
X314325000Y-123825000D03*
D21*
X318135000Y-121285000D03*
D20*
X309245000Y-123825000D03*
X319405000Y-123825000D03*
D23*
X308229000Y-118745000D03*
X321691000Y-121285000D03*
%TD*%
D19*
%TO.C,D62*%
X248282000Y-126518000D03*
X248282000Y-123718000D03*
%TD*%
D21*
%TO.C,K84*%
X168910000Y-80645000D03*
D20*
X176530000Y-85725000D03*
X166370000Y-85725000D03*
D21*
X175260000Y-83185000D03*
D22*
X171450000Y-85725000D03*
D23*
X165354000Y-80645000D03*
X178816000Y-83185000D03*
%TD*%
D22*
%TO.C,K25*%
X142875000Y-123825000D03*
D20*
X137795000Y-123825000D03*
X147955000Y-123825000D03*
D21*
X140335000Y-118745000D03*
X146685000Y-121285000D03*
D23*
X136779000Y-118745000D03*
X150241000Y-121285000D03*
%TD*%
D22*
%TO.C,K71*%
X280987500Y-104775000D03*
D21*
X284797500Y-102235000D03*
D20*
X286067500Y-104775000D03*
X275907500Y-104775000D03*
D21*
X278447500Y-99695000D03*
D23*
X274891500Y-99695000D03*
X288353500Y-102235000D03*
%TD*%
D19*
%TO.C,D36*%
X105150000Y-148105000D03*
X107950000Y-148105000D03*
%TD*%
%TO.C,D12*%
X269575000Y-108825000D03*
X269575000Y-106025000D03*
%TD*%
D21*
%TO.C,K0*%
X346710000Y-83185000D03*
X340360000Y-80645000D03*
D20*
X337820000Y-85725000D03*
X347980000Y-85725000D03*
D22*
X342900000Y-85725000D03*
D23*
X336804000Y-80645000D03*
X350266000Y-83185000D03*
%TD*%
D27*
%TO.C,C1*%
X68625000Y-129086000D03*
X70525000Y-129086000D03*
%TD*%
D19*
%TO.C,D32*%
X257934000Y-147854000D03*
X257934000Y-145054000D03*
%TD*%
D22*
%TO.C,K20*%
X333375000Y-123825000D03*
D21*
X337185000Y-121285000D03*
D20*
X328295000Y-123825000D03*
X338455000Y-123825000D03*
D21*
X330835000Y-118745000D03*
D23*
X327279000Y-118745000D03*
X340741000Y-121285000D03*
%TD*%
D27*
%TO.C,C6*%
X65125000Y-147725000D03*
X67025000Y-147725000D03*
%TD*%
M02*
