%TF.GenerationSoftware,KiCad,Pcbnew,(6.0.7-1)-1*%
%TF.CreationDate,2022-10-07T20:49:55+02:00*%
%TF.ProjectId,hedgehog-lite,68656467-6568-46f6-972d-6c6974652e6b,rev?*%
%TF.SameCoordinates,Original*%
%TF.FileFunction,Soldermask,Top*%
%TF.FilePolarity,Negative*%
%FSLAX46Y46*%
G04 Gerber Fmt 4.6, Leading zero omitted, Abs format (unit mm)*
G04 Created by KiCad (PCBNEW (6.0.7-1)-1) date 2022-10-07 20:49:55*
%MOMM*%
%LPD*%
G01*
G04 APERTURE LIST*
G04 Aperture macros list*
%AMRoundRect*
0 Rectangle with rounded corners*
0 $1 Rounding radius*
0 $2 $3 $4 $5 $6 $7 $8 $9 X,Y pos of 4 corners*
0 Add a 4 corners polygon primitive as box body*
4,1,4,$2,$3,$4,$5,$6,$7,$8,$9,$2,$3,0*
0 Add four circle primitives for the rounded corners*
1,1,$1+$1,$2,$3*
1,1,$1+$1,$4,$5*
1,1,$1+$1,$6,$7*
1,1,$1+$1,$8,$9*
0 Add four rect primitives between the rounded corners*
20,1,$1+$1,$2,$3,$4,$5,0*
20,1,$1+$1,$4,$5,$6,$7,0*
20,1,$1+$1,$6,$7,$8,$9,0*
20,1,$1+$1,$8,$9,$2,$3,0*%
%AMFreePoly0*
4,1,20,0.000000,0.744959,0.073905,0.744508,0.209726,0.703889,0.328688,0.626782,0.421226,0.519385,0.479903,0.390333,0.500000,0.250000,0.500000,-0.250000,0.499851,-0.262216,0.476331,-0.402017,0.414519,-0.529596,0.319384,-0.634700,0.198574,-0.708877,0.061801,-0.746166,0.000000,-0.745033,0.000000,-0.750000,-0.500000,-0.750000,-0.500000,0.750000,0.000000,0.750000,0.000000,0.744959,
0.000000,0.744959,$1*%
%AMFreePoly1*
4,1,22,0.500000,-0.750000,0.000000,-0.750000,0.000000,-0.745033,-0.079941,-0.743568,-0.215256,-0.701293,-0.333266,-0.622738,-0.424486,-0.514219,-0.481581,-0.384460,-0.499164,-0.250000,-0.500000,-0.250000,-0.500000,0.250000,-0.499164,0.250000,-0.499963,0.256109,-0.478152,0.396186,-0.417904,0.524511,-0.324060,0.630769,-0.204165,0.706417,-0.067858,0.745374,0.000000,0.744959,0.000000,0.750000,
0.500000,0.750000,0.500000,-0.750000,0.500000,-0.750000,$1*%
G04 Aperture macros list end*
%ADD10C,0.080691*%
%ADD11C,0.050000*%
%ADD12R,1.100000X1.100000*%
%ADD13RoundRect,0.254000X-1.016000X-1.016000X1.016000X-1.016000X1.016000X1.016000X-1.016000X1.016000X0*%
%ADD14C,3.987800*%
%ADD15C,3.048000*%
%ADD16C,1.701800*%
%ADD17FreePoly0,0.000000*%
%ADD18FreePoly1,0.000000*%
%ADD19O,1.000000X1.000000*%
%ADD20R,1.000000X1.000000*%
%ADD21C,1.400000*%
%ADD22R,1.500000X1.000000*%
%ADD23RoundRect,0.250000X-0.250000X-0.475000X0.250000X-0.475000X0.250000X0.475000X-0.250000X0.475000X0*%
%ADD24R,1.550000X0.600000*%
%ADD25R,1.800000X1.200000*%
%ADD26RoundRect,0.250000X0.450000X-0.262500X0.450000X0.262500X-0.450000X0.262500X-0.450000X-0.262500X0*%
%ADD27RoundRect,0.250000X-0.262500X-0.450000X0.262500X-0.450000X0.262500X0.450000X-0.262500X0.450000X0*%
%ADD28RoundRect,0.250000X0.250000X0.475000X-0.250000X0.475000X-0.250000X-0.475000X0.250000X-0.475000X0*%
%ADD29RoundRect,0.062500X-0.062500X0.475000X-0.062500X-0.475000X0.062500X-0.475000X0.062500X0.475000X0*%
%ADD30RoundRect,0.062500X-0.475000X0.062500X-0.475000X-0.062500X0.475000X-0.062500X0.475000X0.062500X0*%
%ADD31R,5.200000X5.200000*%
%ADD32C,0.450000*%
%ADD33R,1.000000X0.800000*%
%ADD34R,0.700000X1.500000*%
%ADD35R,1.200000X1.400000*%
G04 APERTURE END LIST*
D10*
X-158218201Y-87189575D02*
X-158141252Y-87270215D01*
X-146060003Y-82557965D02*
X-146191549Y-82648661D01*
X-148124295Y-92017568D02*
X-148162923Y-91900069D01*
X-147790662Y-84643048D02*
X-146939310Y-84633735D01*
X-145311564Y-82133514D02*
X-145333535Y-82138391D01*
X-146441053Y-82147964D02*
X-146489516Y-82157919D01*
X-158472510Y-89278363D02*
X-158432782Y-89303926D01*
X-152611521Y-85995119D02*
X-152642987Y-86032155D01*
X-150399566Y-82161560D02*
X-150431054Y-82138683D01*
X-150307868Y-82252133D02*
X-150337918Y-82218642D01*
X-153815862Y-82154153D02*
X-153864396Y-82284412D01*
X-150495087Y-82106039D02*
X-150527524Y-82096986D01*
X-158338335Y-86895488D02*
X-158349094Y-86921042D01*
X-152428354Y-85845024D02*
X-152466771Y-85870275D01*
X-151200491Y-86448922D02*
X-151223721Y-86395583D01*
X-158400050Y-85873335D02*
X-158416798Y-85887417D01*
X-143551583Y-86741471D02*
X-143561615Y-86777257D01*
X-148757842Y-88758728D02*
X-148730967Y-88778438D01*
X-153947153Y-82595482D02*
X-153981705Y-82766217D01*
X-148114775Y-92971269D02*
X-148091103Y-92919497D01*
X-145283846Y-90506759D02*
X-145216097Y-90366878D01*
X-152235782Y-85753524D02*
X-152274317Y-85767128D01*
X-151180037Y-86502104D02*
X-151200491Y-86448922D01*
X-154396069Y-91666748D02*
X-154155573Y-91749155D01*
X-152818008Y-82313561D02*
X-152959081Y-82211139D01*
X-144607312Y-83254529D02*
X-144560317Y-83124409D01*
X-144805941Y-86410889D02*
X-144721121Y-86107333D01*
X-151880839Y-93396433D02*
X-151837832Y-93401745D01*
X-146329612Y-87582357D02*
X-146343023Y-88176271D01*
X-156094567Y-83625234D02*
X-156195893Y-83638394D01*
X-148668099Y-88814863D02*
X-148631794Y-88831225D01*
X-158033385Y-84819602D02*
X-158078031Y-84837279D01*
X-152488020Y-92041601D02*
X-152286251Y-92050591D01*
X-151555756Y-82035918D02*
X-151564191Y-81915881D01*
X-150997443Y-92456890D02*
X-150988126Y-92358600D01*
X-144292293Y-87421872D02*
X-144377403Y-87455294D01*
X-152505126Y-85897802D02*
X-152505126Y-85897802D01*
X-152166637Y-81486850D02*
X-152276718Y-81554632D01*
X-157311613Y-87910760D02*
X-157311613Y-87910760D01*
X-145070631Y-89920381D02*
X-145039416Y-89763995D01*
X-155595872Y-82697880D02*
X-155637069Y-82567315D01*
X-147088410Y-81593799D02*
X-147114846Y-81592038D01*
X-152085301Y-87852361D02*
X-151733278Y-87457107D01*
X-158429752Y-85902115D02*
X-158438624Y-85917440D01*
X-157513649Y-88061885D02*
X-157720101Y-88223027D01*
X-146276712Y-83055506D02*
X-146256616Y-82943288D01*
X-151260806Y-87440684D02*
X-151155801Y-87423051D01*
X-152258418Y-92603277D02*
X-152234707Y-92452038D01*
X-144282665Y-85898010D02*
X-144221297Y-85900348D01*
X-157348432Y-91318633D02*
X-157296901Y-91311374D01*
X-153801631Y-92924423D02*
X-153771864Y-92996329D01*
X-148917814Y-82261029D02*
X-149034306Y-82177363D01*
X-146667190Y-92109633D02*
X-146632034Y-92240852D01*
X-148009895Y-92248845D02*
X-148004114Y-92113235D01*
X-147035468Y-81757089D02*
X-147030001Y-81724874D01*
X-149386052Y-81977111D02*
X-149424582Y-81965257D01*
X-155571865Y-90894971D02*
X-155499862Y-90979392D01*
X-147030001Y-81724874D02*
X-147027488Y-81695395D01*
X-155547806Y-82834060D02*
X-155595872Y-82697880D01*
X-145391871Y-86730174D02*
X-145146833Y-86824422D01*
X-148024987Y-92594446D02*
X-148024979Y-92538276D01*
X-151099189Y-86906957D02*
X-151102577Y-86859518D01*
X-147321355Y-82385394D02*
X-147240793Y-82241455D01*
X-153466338Y-81932317D02*
X-153516541Y-81920069D01*
X-145257761Y-82203922D02*
X-145255984Y-82181581D01*
X-151550653Y-82665513D02*
X-151546335Y-82470821D01*
X-147054269Y-81828458D02*
X-147043641Y-81791723D01*
X-150673803Y-86522266D02*
X-150522229Y-86432474D01*
X-148348723Y-93263503D02*
X-148297911Y-93217206D01*
X-153142413Y-89035220D02*
X-152984655Y-88863919D01*
X-147132048Y-93319026D02*
X-147203562Y-93322511D01*
X-158432782Y-89303926D02*
X-158338707Y-89353489D01*
X-150278405Y-82288448D02*
X-150307868Y-82252133D01*
X-145401658Y-84736497D02*
X-145244541Y-84475519D01*
X-153908105Y-82433201D02*
X-153947153Y-82595482D01*
X-143701098Y-86125314D02*
X-143678985Y-86154135D01*
X-143680763Y-86986650D02*
X-143709061Y-87020119D01*
X-150820156Y-86616930D02*
X-150673803Y-86522266D01*
X-143624637Y-86247118D02*
X-143610189Y-86279957D01*
X-146893185Y-91642038D02*
X-146443235Y-91482546D01*
X-148065801Y-81917054D02*
X-148364257Y-82046240D01*
X-147114846Y-81592038D02*
X-147148310Y-81594472D01*
X-155316239Y-82143547D02*
X-155185809Y-82180331D01*
X-144910903Y-83885216D02*
X-144824119Y-83720043D01*
X-151107310Y-92921601D02*
X-151085403Y-92862405D01*
X-155089326Y-83698247D02*
X-155466085Y-83653267D01*
X-148335938Y-88892349D02*
X-148272168Y-88894711D01*
X-143658936Y-86184109D02*
X-143640852Y-86215136D01*
X-150203922Y-86270515D02*
X-150037437Y-86199853D01*
X-152271886Y-87318235D02*
X-152156588Y-87359682D01*
X-146880704Y-93238708D02*
X-146949815Y-93274060D01*
X-158349094Y-86921042D02*
X-158352628Y-86947632D01*
X-157976482Y-89487095D02*
X-157842761Y-89525651D01*
X-147477713Y-93283119D02*
X-147527355Y-93265081D01*
X-146210103Y-82484717D02*
X-146213773Y-82384825D01*
X-143568115Y-86417903D02*
X-143555127Y-86489452D01*
X-158315681Y-86287081D02*
X-158277762Y-86349237D01*
X-158152353Y-84936355D02*
X-158147643Y-84971919D01*
X-156234681Y-83648856D02*
X-156264703Y-83662113D01*
X-151933028Y-87417544D02*
X-151826515Y-87435671D01*
X-146363256Y-83443948D02*
X-146363256Y-83443948D01*
X-151162214Y-86555005D02*
X-151180037Y-86502104D01*
X-153594868Y-93240229D02*
X-153534338Y-93287124D01*
X-153015192Y-93402129D02*
X-152922036Y-93389628D01*
X-152752026Y-86925319D02*
X-152726799Y-86970418D01*
X-152191632Y-82830900D02*
X-152413221Y-82638206D01*
X-152724345Y-86154679D02*
X-152746868Y-86198760D01*
X-143544755Y-86705587D02*
X-143551583Y-86741471D01*
X-148272941Y-82789563D02*
X-148459154Y-82628317D01*
X-158112406Y-84857165D02*
X-158135735Y-84879367D01*
X-158356311Y-85846987D02*
X-158379792Y-85859861D01*
X-146210272Y-86471095D02*
X-145744508Y-86610113D01*
X-148907757Y-88483216D02*
X-148904097Y-88513332D01*
X-147609733Y-88643926D02*
X-147599259Y-88621601D01*
X-144523603Y-82928831D02*
X-144528710Y-82896700D01*
X-151085403Y-92862405D02*
X-151066179Y-92802543D01*
X-151965020Y-81381624D02*
X-152061824Y-81428272D01*
X-158534779Y-89225850D02*
X-158506680Y-89252325D01*
X-147945059Y-92779636D02*
X-147969020Y-92691777D01*
X-152417468Y-93036935D02*
X-152380095Y-92970239D01*
X-145522320Y-82222384D02*
X-145600027Y-82265715D01*
X-145086876Y-84203474D02*
X-144910903Y-83885216D01*
X-157520418Y-91324255D02*
X-157491254Y-91326193D01*
X-151564191Y-81915881D02*
X-151576107Y-81798312D01*
X-148297911Y-93217206D02*
X-148252061Y-93169887D01*
X-147720645Y-93145469D02*
X-147765390Y-93101700D01*
X-144604267Y-85629931D02*
X-144574272Y-85480498D01*
X-157606224Y-91294169D02*
X-157599491Y-91300310D01*
X-158576541Y-89114593D02*
X-158577520Y-89144154D01*
X-155385127Y-83238257D02*
X-155495143Y-82972051D01*
X-145014733Y-88437308D02*
X-145049208Y-88100007D01*
X-153562439Y-81914437D02*
X-153603620Y-81915898D01*
X-146627368Y-92928713D02*
X-146652455Y-92989807D01*
X-152286251Y-92050591D02*
X-151164224Y-92108473D01*
X-158504519Y-88964526D02*
X-158531779Y-89006238D01*
X-153881577Y-92530817D02*
X-153873574Y-92611983D01*
X-143546452Y-86561666D02*
X-143541303Y-86633757D01*
X-158190224Y-88623923D02*
X-158297269Y-88727028D01*
X-158295385Y-86843124D02*
X-158320265Y-86869488D01*
X-155432929Y-82117994D02*
X-155316239Y-82143547D01*
X-158075144Y-88519657D02*
X-158190224Y-88623923D01*
X-152836247Y-93368711D02*
X-152757535Y-93339978D01*
X-149516797Y-81963076D02*
X-149543055Y-81974217D01*
X-152234707Y-92452038D02*
X-152221750Y-92305433D01*
X-152831550Y-86635268D02*
X-152826474Y-86685077D01*
X-151097294Y-86953117D02*
X-151099189Y-86906957D01*
X-155660405Y-82131821D02*
X-155638190Y-82118406D01*
X-145401658Y-84736497D02*
X-145401658Y-84736497D01*
X-158577520Y-89144154D02*
X-158570713Y-89171729D01*
X-148701105Y-88797208D02*
X-148668099Y-88814863D01*
X-145260760Y-82148863D02*
X-145267690Y-82139119D01*
X-152714887Y-81863296D02*
X-152894303Y-82001996D01*
X-157549534Y-85692217D02*
X-157678350Y-85703946D01*
X-153639673Y-81924930D02*
X-153639673Y-81924930D01*
X-148364257Y-82046240D02*
X-148618320Y-82160026D01*
X-152217206Y-92168249D02*
X-152218735Y-92045274D01*
X-152274317Y-85767128D02*
X-152312855Y-85783099D01*
X-152784568Y-86290761D02*
X-152799597Y-86338343D01*
X-151921792Y-93389840D02*
X-151880839Y-93396433D01*
X-148001354Y-92489411D02*
X-148008825Y-92374103D01*
X-151982768Y-83021742D02*
X-151982768Y-83021742D01*
X-151380258Y-86135716D02*
X-151415125Y-86089853D01*
X-145600027Y-82265715D02*
X-145763772Y-82364343D01*
X-153873574Y-92611983D02*
X-153861938Y-92692556D01*
X-151223721Y-86395583D02*
X-151249868Y-86342213D01*
X-158338707Y-89353489D02*
X-158228561Y-89400729D01*
X-150249585Y-82327231D02*
X-150278405Y-82288448D01*
X-151311484Y-86235875D02*
X-151345706Y-86184384D01*
X-144617167Y-84916222D02*
X-144642431Y-84897053D01*
X-152791918Y-86831662D02*
X-152773708Y-86879010D01*
X-150431054Y-82138683D02*
X-150462913Y-82120057D01*
X-155421948Y-91059884D02*
X-155338480Y-91136530D01*
X-153230698Y-82037910D02*
X-153294009Y-82003977D01*
X-158086412Y-86708732D02*
X-158184908Y-86762673D01*
X-144742441Y-83556861D02*
X-144669096Y-83400185D01*
X-149325541Y-86003547D02*
X-149136701Y-85979819D01*
X-152061824Y-81428272D02*
X-152166637Y-81486850D01*
X-152833530Y-86585267D02*
X-152831550Y-86635268D01*
X-151637985Y-81495373D02*
X-151652796Y-81456731D01*
X-150039174Y-84325819D02*
X-150086444Y-84369376D01*
X-146839455Y-91665763D02*
X-146811482Y-91724574D01*
X-151102577Y-86859518D02*
X-151107598Y-86810924D01*
X-147579223Y-88556636D02*
X-147573499Y-88516680D01*
X-156867693Y-86290995D02*
X-157088757Y-86351485D01*
X-151035082Y-92682788D02*
X-151012632Y-92566262D01*
X-155694322Y-82209461D02*
X-155687672Y-82177265D01*
X-146218842Y-82339453D02*
X-146226294Y-82297702D01*
X-158392438Y-88826658D02*
X-158471888Y-88920499D01*
X-152697952Y-87014138D02*
X-152665409Y-87056309D01*
X-144163374Y-85905219D02*
X-144108797Y-85912524D01*
X-147788604Y-88810391D02*
X-147755268Y-88792330D01*
X-144839617Y-84809833D02*
X-144915951Y-84790049D01*
X-153864396Y-82284412D02*
X-153908105Y-82433201D01*
X-152351382Y-85801417D02*
X-152389886Y-85822065D01*
X-148781952Y-93517727D02*
X-148750519Y-93505303D01*
X-152197263Y-85742304D02*
X-152235782Y-85753524D01*
X-147148310Y-81594472D02*
X-147234257Y-81610841D01*
X-157845541Y-84778777D02*
X-157979239Y-84804030D01*
X-151853450Y-85751634D02*
X-151891240Y-85740572D01*
X-149888055Y-83082677D02*
X-149943978Y-82929506D01*
X-146443235Y-91482546D02*
X-146443235Y-91482546D01*
X-153216299Y-93399483D02*
X-153116009Y-93405617D01*
X-144639772Y-85786812D02*
X-144604267Y-85629931D01*
X-149145995Y-82102954D02*
X-149250115Y-82040802D01*
X-149489396Y-81957860D02*
X-149516797Y-81963076D01*
X-156867693Y-86290995D02*
X-156867693Y-86290995D01*
X-155284019Y-83466074D02*
X-155385127Y-83238257D01*
X-146608169Y-92864885D02*
X-146627368Y-92928713D01*
X-146443235Y-91482546D02*
X-146258400Y-91404324D01*
X-156298579Y-90930101D02*
X-155994437Y-90800747D01*
X-145293074Y-82131857D02*
X-145311564Y-82133514D01*
X-153522100Y-89388389D02*
X-153386685Y-89272605D01*
X-144540339Y-85035173D02*
X-144540339Y-85035173D01*
X-144881853Y-86666308D02*
X-144805941Y-86410889D01*
X-144057468Y-85922163D02*
X-144009287Y-85934040D01*
X-148272168Y-88894711D02*
X-148203852Y-88894366D01*
X-151350320Y-93276128D02*
X-151304784Y-93235329D01*
X-147081897Y-81906961D02*
X-147054269Y-81828458D01*
X-143541303Y-86633757D02*
X-143541279Y-86669662D01*
X-158383330Y-86162629D02*
X-158351342Y-86224401D01*
X-151147590Y-87395187D02*
X-151139036Y-87361855D01*
X-158446237Y-85953219D02*
X-158445924Y-85974220D01*
X-151012632Y-92566262D02*
X-150997443Y-92456890D01*
X-145268706Y-82258986D02*
X-145257761Y-82203922D01*
X-143955280Y-87235348D02*
X-144036643Y-87288972D01*
X-146226294Y-82297702D02*
X-146236301Y-82260003D01*
X-153873452Y-92066677D02*
X-153884455Y-92212838D01*
D11*
G36*
X-147798935Y-87455976D02*
G01*
X-147794082Y-87456330D01*
X-147789297Y-87457005D01*
X-147784592Y-87457991D01*
X-147779983Y-87459283D01*
X-147775483Y-87460873D01*
X-147771107Y-87462752D01*
X-147766868Y-87464914D01*
X-147762780Y-87467351D01*
X-147758858Y-87470055D01*
X-147755116Y-87473019D01*
X-147751567Y-87476235D01*
X-147748227Y-87479697D01*
X-147745109Y-87483395D01*
X-147742226Y-87487323D01*
X-147739594Y-87491474D01*
X-147737237Y-87495781D01*
X-147735195Y-87500200D01*
X-147733468Y-87504716D01*
X-147732056Y-87509312D01*
X-147730957Y-87513972D01*
X-147730173Y-87518681D01*
X-147729703Y-87523421D01*
X-147729547Y-87528178D01*
X-147729704Y-87532935D01*
X-147730174Y-87537675D01*
X-147730958Y-87542383D01*
X-147732054Y-87547043D01*
X-147733463Y-87551638D01*
X-147735184Y-87556153D01*
X-147737217Y-87560571D01*
X-147739562Y-87564877D01*
X-148126179Y-88219493D01*
X-148127391Y-88221475D01*
X-148128662Y-88223409D01*
X-148129988Y-88225295D01*
X-148131370Y-88227131D01*
X-148132804Y-88228917D01*
X-148134291Y-88230651D01*
X-148135828Y-88232334D01*
X-148137413Y-88233963D01*
X-148139046Y-88235539D01*
X-148140725Y-88237060D01*
X-148142449Y-88238525D01*
X-148144215Y-88239934D01*
X-148147871Y-88242580D01*
X-148151680Y-88244990D01*
X-148155632Y-88247157D01*
X-148159714Y-88249076D01*
X-148161801Y-88249939D01*
X-148163915Y-88250738D01*
X-148166056Y-88251470D01*
X-148168223Y-88252137D01*
X-148170413Y-88252735D01*
X-148172625Y-88253266D01*
X-148174859Y-88253727D01*
X-148177111Y-88254119D01*
X-148179381Y-88254439D01*
X-148181668Y-88254688D01*
X-148183970Y-88254864D01*
X-148186285Y-88254967D01*
X-148190923Y-88254951D01*
X-148195517Y-88254641D01*
X-148200054Y-88254045D01*
X-148204523Y-88253167D01*
X-148208910Y-88252015D01*
X-148213205Y-88250594D01*
X-148217395Y-88248911D01*
X-148221467Y-88246971D01*
X-148225410Y-88244781D01*
X-148229212Y-88242347D01*
X-148232861Y-88239676D01*
X-148236344Y-88236772D01*
X-148239650Y-88233643D01*
X-148242766Y-88230294D01*
X-148245680Y-88226731D01*
X-148248380Y-88222962D01*
X-148671506Y-87591332D01*
X-148674094Y-87587166D01*
X-148676376Y-87582870D01*
X-148678351Y-87578460D01*
X-148680019Y-87573951D01*
X-148681378Y-87569361D01*
X-148682427Y-87564705D01*
X-148683166Y-87559999D01*
X-148683592Y-87555259D01*
X-148683705Y-87550501D01*
X-148683504Y-87545742D01*
X-148682987Y-87540997D01*
X-148682154Y-87536282D01*
X-148681004Y-87531613D01*
X-148679535Y-87527007D01*
X-148677745Y-87522479D01*
X-148675635Y-87518045D01*
X-148674474Y-87515873D01*
X-148673245Y-87513752D01*
X-148671951Y-87511683D01*
X-148670592Y-87509666D01*
X-148669171Y-87507704D01*
X-148667690Y-87505797D01*
X-148666150Y-87503945D01*
X-148664552Y-87502151D01*
X-148662899Y-87500415D01*
X-148661192Y-87498739D01*
X-148659434Y-87497122D01*
X-148657625Y-87495567D01*
X-148655767Y-87494074D01*
X-148653862Y-87492645D01*
X-148651913Y-87491279D01*
X-148649919Y-87489980D01*
X-148647884Y-87488747D01*
X-148645809Y-87487581D01*
X-148643695Y-87486484D01*
X-148641545Y-87485456D01*
X-148639360Y-87484499D01*
X-148637142Y-87483614D01*
X-148634892Y-87482802D01*
X-148632612Y-87482063D01*
X-148630304Y-87481399D01*
X-148627970Y-87480811D01*
X-148625611Y-87480299D01*
X-148623229Y-87479866D01*
X-148620826Y-87479512D01*
X-148618404Y-87479237D01*
X-148615963Y-87479044D01*
X-148613506Y-87478933D01*
X-147803840Y-87455950D01*
X-147798935Y-87455976D01*
G37*
X-147798935Y-87455976D02*
X-147794082Y-87456330D01*
X-147789297Y-87457005D01*
X-147784592Y-87457991D01*
X-147779983Y-87459283D01*
X-147775483Y-87460873D01*
X-147771107Y-87462752D01*
X-147766868Y-87464914D01*
X-147762780Y-87467351D01*
X-147758858Y-87470055D01*
X-147755116Y-87473019D01*
X-147751567Y-87476235D01*
X-147748227Y-87479697D01*
X-147745109Y-87483395D01*
X-147742226Y-87487323D01*
X-147739594Y-87491474D01*
X-147737237Y-87495781D01*
X-147735195Y-87500200D01*
X-147733468Y-87504716D01*
X-147732056Y-87509312D01*
X-147730957Y-87513972D01*
X-147730173Y-87518681D01*
X-147729703Y-87523421D01*
X-147729547Y-87528178D01*
X-147729704Y-87532935D01*
X-147730174Y-87537675D01*
X-147730958Y-87542383D01*
X-147732054Y-87547043D01*
X-147733463Y-87551638D01*
X-147735184Y-87556153D01*
X-147737217Y-87560571D01*
X-147739562Y-87564877D01*
X-148126179Y-88219493D01*
X-148127391Y-88221475D01*
X-148128662Y-88223409D01*
X-148129988Y-88225295D01*
X-148131370Y-88227131D01*
X-148132804Y-88228917D01*
X-148134291Y-88230651D01*
X-148135828Y-88232334D01*
X-148137413Y-88233963D01*
X-148139046Y-88235539D01*
X-148140725Y-88237060D01*
X-148142449Y-88238525D01*
X-148144215Y-88239934D01*
X-148147871Y-88242580D01*
X-148151680Y-88244990D01*
X-148155632Y-88247157D01*
X-148159714Y-88249076D01*
X-148161801Y-88249939D01*
X-148163915Y-88250738D01*
X-148166056Y-88251470D01*
X-148168223Y-88252137D01*
X-148170413Y-88252735D01*
X-148172625Y-88253266D01*
X-148174859Y-88253727D01*
X-148177111Y-88254119D01*
X-148179381Y-88254439D01*
X-148181668Y-88254688D01*
X-148183970Y-88254864D01*
X-148186285Y-88254967D01*
X-148190923Y-88254951D01*
X-148195517Y-88254641D01*
X-148200054Y-88254045D01*
X-148204523Y-88253167D01*
X-148208910Y-88252015D01*
X-148213205Y-88250594D01*
X-148217395Y-88248911D01*
X-148221467Y-88246971D01*
X-148225410Y-88244781D01*
X-148229212Y-88242347D01*
X-148232861Y-88239676D01*
X-148236344Y-88236772D01*
X-148239650Y-88233643D01*
X-148242766Y-88230294D01*
X-148245680Y-88226731D01*
X-148248380Y-88222962D01*
X-148671506Y-87591332D01*
X-148674094Y-87587166D01*
X-148676376Y-87582870D01*
X-148678351Y-87578460D01*
X-148680019Y-87573951D01*
X-148681378Y-87569361D01*
X-148682427Y-87564705D01*
X-148683166Y-87559999D01*
X-148683592Y-87555259D01*
X-148683705Y-87550501D01*
X-148683504Y-87545742D01*
X-148682987Y-87540997D01*
X-148682154Y-87536282D01*
X-148681004Y-87531613D01*
X-148679535Y-87527007D01*
X-148677745Y-87522479D01*
X-148675635Y-87518045D01*
X-148674474Y-87515873D01*
X-148673245Y-87513752D01*
X-148671951Y-87511683D01*
X-148670592Y-87509666D01*
X-148669171Y-87507704D01*
X-148667690Y-87505797D01*
X-148666150Y-87503945D01*
X-148664552Y-87502151D01*
X-148662899Y-87500415D01*
X-148661192Y-87498739D01*
X-148659434Y-87497122D01*
X-148657625Y-87495567D01*
X-148655767Y-87494074D01*
X-148653862Y-87492645D01*
X-148651913Y-87491279D01*
X-148649919Y-87489980D01*
X-148647884Y-87488747D01*
X-148645809Y-87487581D01*
X-148643695Y-87486484D01*
X-148641545Y-87485456D01*
X-148639360Y-87484499D01*
X-148637142Y-87483614D01*
X-148634892Y-87482802D01*
X-148632612Y-87482063D01*
X-148630304Y-87481399D01*
X-148627970Y-87480811D01*
X-148625611Y-87480299D01*
X-148623229Y-87479866D01*
X-148620826Y-87479512D01*
X-148618404Y-87479237D01*
X-148615963Y-87479044D01*
X-148613506Y-87478933D01*
X-147803840Y-87455950D01*
X-147798935Y-87455976D01*
D10*
X-158200576Y-85791274D02*
X-158269392Y-85811863D01*
X-157616820Y-91261179D02*
X-157616868Y-91270772D01*
X-149867733Y-82910103D02*
X-149888055Y-83082677D01*
X-147807800Y-93051583D02*
X-147847423Y-92994719D01*
X-144416129Y-85901325D02*
X-144347576Y-85898303D01*
X-153733656Y-82004527D02*
X-153762339Y-82047461D01*
X-151225225Y-93141920D02*
X-151190856Y-93090292D01*
X-150527524Y-82096986D02*
X-150560168Y-82093255D01*
X-151967207Y-85726077D02*
X-152005358Y-85722607D01*
X-151123116Y-86710772D02*
X-151133896Y-86659464D01*
X-149615147Y-82039206D02*
X-149637010Y-82070058D01*
X-147467783Y-81681981D02*
X-147755971Y-81789843D01*
X-153354660Y-81974748D02*
X-153412240Y-81950702D01*
X-147590806Y-88599499D02*
X-147579223Y-88556636D01*
X-144559668Y-82855089D02*
X-144587220Y-82843320D01*
X-158135735Y-84879367D02*
X-158148573Y-84905378D01*
X-147322394Y-82516285D02*
X-147614591Y-82672380D01*
X-148943764Y-85967735D02*
X-148746855Y-85968047D01*
X-147911514Y-88856168D02*
X-147866541Y-88842478D01*
X-148799286Y-82350956D02*
X-148917814Y-82261029D01*
X-151806401Y-81335017D02*
X-151840825Y-81339981D01*
X-145934320Y-91222716D02*
X-145793880Y-91120168D01*
X-148997539Y-93572168D02*
X-148997539Y-93572168D01*
X-153809184Y-91665763D02*
X-153825225Y-91739990D01*
X-144768075Y-82845150D02*
X-144892777Y-82870821D01*
X-148908186Y-88439646D02*
X-148908827Y-88459953D01*
X-147428447Y-93297212D02*
X-147477713Y-93283119D01*
X-143574701Y-86812886D02*
X-143590694Y-86848301D01*
X-148341621Y-86008872D02*
X-148341621Y-86008872D01*
X-152922036Y-93389628D02*
X-152836247Y-93368711D01*
X-148896597Y-88548887D02*
X-148891018Y-88568261D01*
X-144594826Y-84936859D02*
X-144617167Y-84916222D01*
X-158471888Y-88920499D02*
X-158504519Y-88964526D01*
X-152642987Y-86032155D02*
X-152672330Y-86071207D01*
X-150337918Y-82218642D02*
X-150368503Y-82188332D01*
X-145667047Y-91010350D02*
X-145553223Y-90893680D01*
X-146283354Y-82175508D02*
X-146305285Y-82158308D01*
X-147234257Y-81610841D02*
X-147342123Y-81640735D01*
X-157972722Y-86655315D02*
X-158086412Y-86708732D01*
X-149592212Y-82012682D02*
X-149615147Y-82039206D01*
X-152412212Y-93084928D02*
X-152405792Y-93097306D01*
X-157296901Y-91311374D02*
X-156816394Y-91136480D01*
X-149136701Y-85979819D02*
X-148943764Y-85967735D01*
X-147573682Y-88450866D02*
X-147576618Y-88427696D01*
X-146632034Y-92240852D02*
X-146603869Y-92378934D01*
X-158379792Y-85859861D02*
X-158400050Y-85873335D01*
X-152454444Y-88270483D02*
X-152085301Y-87852361D01*
X-158352628Y-86947632D02*
X-158349636Y-86976645D01*
X-147987935Y-92595169D02*
X-148001354Y-92489411D01*
X-148822102Y-88695734D02*
X-148803254Y-88717199D01*
X-147088410Y-81593799D02*
X-147088410Y-81593799D01*
X-152043344Y-87392500D02*
X-151933028Y-87417544D01*
X-146258400Y-91404324D02*
X-146088961Y-91317574D01*
X-150988126Y-92358600D02*
X-150981560Y-92210970D01*
X-143812168Y-86023523D02*
X-143780811Y-86046750D01*
X-155338480Y-91136530D02*
X-155249813Y-91209412D01*
X-158264198Y-86816478D02*
X-158295385Y-86843124D01*
X-156297797Y-83905101D02*
X-156282573Y-83948663D01*
X-148904097Y-88513332D02*
X-148896597Y-88548887D01*
X-155863842Y-84638802D02*
X-155744418Y-84793515D01*
X-158416798Y-85887417D02*
X-158429752Y-85902115D01*
X-155696697Y-82247339D02*
X-155694322Y-82209461D01*
X-149568187Y-81990886D02*
X-149592212Y-82012682D01*
X-151792728Y-93405677D02*
X-151715064Y-93407324D01*
X-143709061Y-87020119D02*
X-143739376Y-87053024D01*
X-149300287Y-93491237D02*
X-149256423Y-93518297D01*
X-148252061Y-93169887D02*
X-148210998Y-93121590D01*
X-144206338Y-87382700D02*
X-144292293Y-87421872D01*
X-154011923Y-82940369D02*
X-154060018Y-83278769D01*
X-150093194Y-82591771D02*
X-150141813Y-82499905D01*
X-156320194Y-83755785D02*
X-156321048Y-83788718D01*
X-150400473Y-84698762D02*
X-150436445Y-84741932D01*
X-152303924Y-93218298D02*
X-152287142Y-93232464D01*
X-155185809Y-82180331D02*
X-155045654Y-82226036D01*
X-151840825Y-81339981D02*
X-151878965Y-81349631D01*
X-151891240Y-85740572D02*
X-151929164Y-85732059D01*
X-145793880Y-91120168D02*
X-145667047Y-91010350D01*
X-150134191Y-84415037D02*
X-150181877Y-84462189D01*
X-156869880Y-84742860D02*
X-157296846Y-84742538D01*
X-157616820Y-91261179D02*
X-157616820Y-91261179D01*
X-146249032Y-82226785D02*
X-146264660Y-82198477D01*
X-156264703Y-83662113D02*
X-156264703Y-83662113D01*
X-144700602Y-84862902D02*
X-144732944Y-84847811D01*
X-150008664Y-82772293D02*
X-150048666Y-82683518D01*
X-145267690Y-82139119D02*
X-145267690Y-82139119D01*
X-152507591Y-93158845D02*
X-152459869Y-93100003D01*
X-157571462Y-91314328D02*
X-157559920Y-91317667D01*
X-143590694Y-86848301D02*
X-143609446Y-86883443D01*
X-149865676Y-84184953D02*
X-149905633Y-84213935D01*
X-148203852Y-88894366D02*
X-148135769Y-88891320D01*
X-151450296Y-86046777D02*
X-151485757Y-86006469D01*
X-150821089Y-82175151D02*
X-150929728Y-82234026D01*
X-149484253Y-93293201D02*
X-149451919Y-93340040D01*
X-151283772Y-82466668D02*
X-151402383Y-82553672D01*
X-157957837Y-87435708D02*
X-157858099Y-87517136D01*
X-151574893Y-93388501D02*
X-151512039Y-93369012D01*
X-155181300Y-83684836D02*
X-155284019Y-83466074D01*
X-150194088Y-82410773D02*
X-150249585Y-82327231D01*
X-146794693Y-86319977D02*
X-146210272Y-86471095D01*
X-148689225Y-93478622D02*
X-148631397Y-93450601D01*
X-152367722Y-93152425D02*
X-152346051Y-93177388D01*
X-155676460Y-82151226D02*
X-155660405Y-82131821D01*
X-144540339Y-85035173D02*
X-144548166Y-85008122D01*
X-151066179Y-92802543D02*
X-151035082Y-92682788D01*
X-157571934Y-85678785D02*
X-157318282Y-85910162D01*
X-148193633Y-91967631D02*
X-147769151Y-91882344D01*
X-144548166Y-85008122D02*
X-144560044Y-84982755D01*
X-145278353Y-82133648D02*
X-145293074Y-82131857D01*
X-151512039Y-93369012D02*
X-151453775Y-93343460D01*
X-154983893Y-90320269D02*
X-154637344Y-90132703D01*
X-150436445Y-84741932D02*
X-150468575Y-84782285D01*
X-143877822Y-87177838D02*
X-143955280Y-87235348D01*
X-147027712Y-93303565D02*
X-147076493Y-93312572D01*
X-155980532Y-84476911D02*
X-155863842Y-84638802D01*
X-153825225Y-91739990D02*
X-153857993Y-91935788D01*
X-144560044Y-84982755D02*
X-144575691Y-84959019D01*
X-151402383Y-82553672D02*
X-151624698Y-82725272D01*
X-158443863Y-85934233D02*
X-158446237Y-85953219D01*
X-148444317Y-85993406D02*
X-148341621Y-86008872D01*
X-147675565Y-88732094D02*
X-147655145Y-88710558D01*
X-150522229Y-86432474D02*
X-150365561Y-86348306D01*
X-148174547Y-93072359D02*
X-148142531Y-93022237D01*
X-149034306Y-82177363D02*
X-149145995Y-82102954D01*
X-145348340Y-83015406D02*
X-145511893Y-83077388D01*
X-149011759Y-92079662D02*
X-148608091Y-92032658D01*
X-151878965Y-81349631D02*
X-151920477Y-81363625D01*
X-155689756Y-82338241D02*
X-155695080Y-82290425D01*
X-145110086Y-90073269D02*
X-145070631Y-89920381D01*
X-158325758Y-87041077D02*
X-158305713Y-87076069D01*
X-145386768Y-82156883D02*
X-145450465Y-82185494D01*
X-148532697Y-93395829D02*
X-148532697Y-93395829D01*
X-158135011Y-85011689D02*
X-158115024Y-85055286D01*
X-157130651Y-89685321D02*
X-157202718Y-89893435D01*
X-148875420Y-88609321D02*
X-148865090Y-88630653D01*
X-153826326Y-92849406D02*
X-153801631Y-92924423D01*
X-149840608Y-82732738D02*
X-149867733Y-82910103D01*
X-147573499Y-88516680D02*
X-147572147Y-88480976D01*
X-144587220Y-82843320D02*
X-144622417Y-82836769D01*
X-153971104Y-89722581D02*
X-153665216Y-89502065D01*
X-153534338Y-93287124D02*
X-153466576Y-93327127D01*
X-144664678Y-82835109D02*
X-144768075Y-82845150D01*
X-158131834Y-86564009D02*
X-158063055Y-86655947D01*
X-158506680Y-89252325D02*
X-158472510Y-89278363D01*
X-144524613Y-82968231D02*
X-144523603Y-82928831D01*
X-147203562Y-93322511D02*
X-147287420Y-93319823D01*
X-158280825Y-87112625D02*
X-158251514Y-87150532D01*
X-153414710Y-91930205D02*
X-153170792Y-91970676D01*
X-158445924Y-85974220D02*
X-158443099Y-85997058D01*
X-157811903Y-85719488D02*
X-157967135Y-85742264D01*
X-153116009Y-93405617D02*
X-153116009Y-93405617D01*
X-149656713Y-92902155D02*
X-149616295Y-93021765D01*
X-151593750Y-85901974D02*
X-151630241Y-85872557D01*
X-144036643Y-87288972D02*
X-144120725Y-87338245D01*
X-158055251Y-85152440D02*
X-158016601Y-85205238D01*
X-151837832Y-93401745D02*
X-151792728Y-93405677D01*
X-146652455Y-92989807D02*
X-146683844Y-93047723D01*
X-143739376Y-87053024D02*
X-143771558Y-87085306D01*
X-143561615Y-86777257D02*
X-143574701Y-86812886D01*
X-148730967Y-88778438D02*
X-148701105Y-88797208D01*
X-155965824Y-83621387D02*
X-156094567Y-83625234D01*
X-148532697Y-93395829D02*
X-148465941Y-93352858D01*
X-146728607Y-82237394D02*
X-146868463Y-82296185D01*
X-147655145Y-88710558D02*
X-147637491Y-88688572D01*
X-147027712Y-93303565D02*
X-147027712Y-93303565D01*
X-152501715Y-81706907D02*
X-152714887Y-81863296D01*
X-153116009Y-93405617D02*
X-153015192Y-93402129D01*
X-148395315Y-88887456D02*
X-148335938Y-88892349D01*
X-156451689Y-84754880D02*
X-156869880Y-84742860D01*
X-153909949Y-91820098D02*
X-153662045Y-91880230D01*
X-149250115Y-82040802D02*
X-149298472Y-82015259D01*
X-152799597Y-86338343D02*
X-152811978Y-86386751D01*
X-153888123Y-92369231D02*
X-153881577Y-92530817D01*
X-148090046Y-92134825D02*
X-148124295Y-92017568D01*
X-150560168Y-82093255D02*
X-150560168Y-82093255D01*
X-145645158Y-83121182D02*
X-145573371Y-82978807D01*
X-152560926Y-93212861D02*
X-152507591Y-93158845D01*
X-145244541Y-84475519D02*
X-145086876Y-84203474D01*
X-147342123Y-81640735D02*
X-147467783Y-81681981D01*
X-145267690Y-82139119D02*
X-145278353Y-82133648D01*
X-147043641Y-81791723D02*
X-147035468Y-81757089D01*
X-148719541Y-93492213D02*
X-148689225Y-93478622D01*
X-145422271Y-82659676D02*
X-145347101Y-82484450D01*
X-143805458Y-87116908D02*
X-143877822Y-87177838D01*
X-145255984Y-82181581D02*
X-145256921Y-82163123D01*
X-149677593Y-82143149D02*
X-149714104Y-82228759D01*
X-158053343Y-87352830D02*
X-157957837Y-87435708D01*
X-146305285Y-82158308D02*
X-146330624Y-82147306D01*
X-155249813Y-91209412D02*
X-155156305Y-91278611D01*
X-146264660Y-82198477D02*
X-146283354Y-82175508D01*
X-147576618Y-88427696D02*
X-147580750Y-88407547D01*
X-149451919Y-93340040D02*
X-149417432Y-93383603D01*
X-143610189Y-86279957D02*
X-143586206Y-86347809D01*
X-152704599Y-92025721D02*
X-152488020Y-92041601D01*
X-151557497Y-85934086D02*
X-151593750Y-85901974D01*
X-147861992Y-82810695D02*
X-148097411Y-82947339D01*
X-148008825Y-92374103D02*
X-148009895Y-92248845D01*
X-157529165Y-90900611D02*
X-157587973Y-91115652D01*
X-153639673Y-81924930D02*
X-153672343Y-81942632D01*
X-157580648Y-86504805D02*
X-157715826Y-86552692D01*
X-152806733Y-86783444D02*
X-152791918Y-86831662D01*
X-157847855Y-86603082D02*
X-157972722Y-86655315D01*
X-152380095Y-92970239D02*
X-152347458Y-92900513D01*
X-153466576Y-93327127D02*
X-153391222Y-93359608D01*
X-146213773Y-82384825D02*
X-146218842Y-82339453D01*
X-152346051Y-93177388D02*
X-152333335Y-93190661D01*
X-154752232Y-82334967D02*
X-154468096Y-82451860D01*
X-146213918Y-82593945D02*
X-146210103Y-82484717D01*
X-145573371Y-82978807D02*
X-145501711Y-82831211D01*
X-151263143Y-93190429D02*
X-151225225Y-93141920D01*
X-146706026Y-91988836D02*
X-146667190Y-92109633D01*
X-155660405Y-82131821D02*
X-155660405Y-82131821D01*
X-147155656Y-82075196D02*
X-147116357Y-81990054D01*
X-151190856Y-93090292D02*
X-151159863Y-93036036D01*
X-152268917Y-93246731D02*
X-152249205Y-93260999D01*
X-152541787Y-82530917D02*
X-152677813Y-82421428D01*
X-155669122Y-82446167D02*
X-155689756Y-82338241D01*
X-152065939Y-93352634D02*
X-152032765Y-93363364D01*
X-152959081Y-82211139D02*
X-153097741Y-82117981D01*
X-158320265Y-86869488D02*
X-158338335Y-86895488D01*
X-158329893Y-85834701D02*
X-158356311Y-85846987D01*
X-145744508Y-86610113D02*
X-145391871Y-86730174D01*
X-157088757Y-86351485D02*
X-157316909Y-86419180D01*
X-148845368Y-93539917D02*
X-148813637Y-93529320D01*
X-158047159Y-85756547D02*
X-158125735Y-85772860D01*
X-147674018Y-93183292D02*
X-147720645Y-93145469D01*
X-144537002Y-85219561D02*
X-144532821Y-85115850D01*
X-146363256Y-83443948D02*
X-146317507Y-83252987D01*
X-151630241Y-85872557D02*
X-151666957Y-85845817D01*
X-144642431Y-84897053D02*
X-144670336Y-84879297D01*
X-155637069Y-82567315D02*
X-155669122Y-82446167D01*
X-158349094Y-86921042D02*
X-158349094Y-86921042D01*
X-144721121Y-86107333D02*
X-144639772Y-85786812D01*
X-147599259Y-88621601D02*
X-147590806Y-88599499D01*
X-146949815Y-93274060D02*
X-147027712Y-93303565D01*
X-154850286Y-91464928D02*
X-154628590Y-91572224D01*
X-151576107Y-81798312D02*
X-151592028Y-81686707D01*
X-151776035Y-81335080D02*
X-151806401Y-81335017D01*
X-150368503Y-82188332D02*
X-150399566Y-82161560D01*
X-148004114Y-92113235D02*
X-147991029Y-91966875D01*
X-152818227Y-86734526D02*
X-152806733Y-86783444D01*
X-147960737Y-88868065D02*
X-147911514Y-88856168D01*
X-145187545Y-82958570D02*
X-145348340Y-83015406D01*
X-146603869Y-92378934D02*
X-146593444Y-92449437D01*
X-152811978Y-86386751D02*
X-152821637Y-86435818D01*
X-155499862Y-90979392D02*
X-155421948Y-91059884D01*
X-147032322Y-81645921D02*
X-147040168Y-81626560D01*
X-147404948Y-82524955D02*
X-147321355Y-82385394D01*
X-157697737Y-85557189D02*
X-157571934Y-85678785D01*
X-151311484Y-86235875D02*
X-151311484Y-86235875D01*
X-146236301Y-82260003D02*
X-146249032Y-82226785D01*
X-151381574Y-87452462D02*
X-151260806Y-87440684D01*
X-152154622Y-93316114D02*
X-152126824Y-93328911D01*
X-143882654Y-85982104D02*
X-143846083Y-86001942D01*
X-155711607Y-88496781D02*
X-154810828Y-88482779D01*
X-144347576Y-85898303D02*
X-144282665Y-85898010D01*
X-148459154Y-82628317D02*
X-148681490Y-82444145D01*
X-143586206Y-86347809D02*
X-143568115Y-86417903D01*
X-143555127Y-86489452D02*
X-143546452Y-86561666D01*
X-152333335Y-93190661D02*
X-152319307Y-93204331D01*
X-146600990Y-82190403D02*
X-146728607Y-82237394D01*
X-143630806Y-86918254D02*
X-143654628Y-86952676D01*
X-147625959Y-93215568D02*
X-147674018Y-93183292D01*
X-157599491Y-91300310D02*
X-157591371Y-91305690D01*
X-158135735Y-84879367D02*
X-158135735Y-84879367D01*
X-145347101Y-82484450D02*
X-145314881Y-82401781D01*
X-153857993Y-91935788D02*
X-153873452Y-92066677D01*
X-152388364Y-87267305D02*
X-152388364Y-87267305D01*
X-157816807Y-85435707D02*
X-157697737Y-85557189D01*
X-149743407Y-92540839D02*
X-149719658Y-92658973D01*
X-148838587Y-88674036D02*
X-148822102Y-88695734D01*
X-146330624Y-82147306D02*
X-146330624Y-82147306D01*
X-154899790Y-82278351D02*
X-154752232Y-82334967D01*
X-148203852Y-88894366D02*
X-148203852Y-88894366D01*
X-148142531Y-93022237D02*
X-148114775Y-92971269D01*
X-145256921Y-82163123D02*
X-145260760Y-82148863D01*
X-144543374Y-83066585D02*
X-144531338Y-83014337D01*
X-147969020Y-92691777D02*
X-147987935Y-92595169D01*
X-154225371Y-82558236D02*
X-153992642Y-82665513D01*
X-143654628Y-86952676D02*
X-143680763Y-86986650D01*
X-155058310Y-91344209D02*
X-154956185Y-91406288D01*
X-156321048Y-83788718D02*
X-156317374Y-83824800D01*
X-149943978Y-82929506D02*
X-150008664Y-82772293D01*
X-153884455Y-92212838D02*
X-153888123Y-92369231D01*
X-148608091Y-92032658D02*
X-148193633Y-91967631D01*
X-149489396Y-81957860D02*
X-149489396Y-81957860D01*
X-151778322Y-85781478D02*
X-151815806Y-85765263D01*
X-151114397Y-86761301D02*
X-151123116Y-86710772D01*
X-148055307Y-92813719D02*
X-148042832Y-92759800D01*
X-147825633Y-88827163D02*
X-147788604Y-88810391D01*
X-149298472Y-82015259D02*
X-149343900Y-81993903D01*
X-150981560Y-92210970D02*
X-150981838Y-92154779D01*
X-152933139Y-92002297D02*
X-152704599Y-92025721D01*
X-147622415Y-88666305D02*
X-147609733Y-88643926D01*
X-157559920Y-91317667D02*
X-157547483Y-91320408D01*
X-153386685Y-89272605D02*
X-153259836Y-89154839D01*
X-151107598Y-86810924D02*
X-151114397Y-86761301D01*
X-157202718Y-89893435D02*
X-157363344Y-90371614D01*
X-144892777Y-82870821D02*
X-145034146Y-82909502D01*
X-151612479Y-81584562D02*
X-151637985Y-81495373D01*
X-156314472Y-83726330D02*
X-156320194Y-83755785D01*
X-145034146Y-82909502D02*
X-145187545Y-82958570D01*
X-151164224Y-92108473D02*
X-150503190Y-92132185D01*
X-147765390Y-93101700D02*
X-147807800Y-93051583D01*
X-152097278Y-93341117D02*
X-152065939Y-93352634D01*
X-147240793Y-82241455D02*
X-147197799Y-82159844D01*
X-152505126Y-85897802D02*
X-152542515Y-85927772D01*
X-147698934Y-88753014D02*
X-147675565Y-88732094D01*
X-145145182Y-84752498D02*
X-145275637Y-84741297D01*
X-157580487Y-89592078D02*
X-157352478Y-89642356D01*
X-151546335Y-82470821D02*
X-151547230Y-82269411D01*
X-144488422Y-85907176D02*
X-144416129Y-85901325D01*
X-153648525Y-93187072D02*
X-153594868Y-93240229D01*
X-151453775Y-93343460D02*
X-151399926Y-93312335D01*
X-148592033Y-88846117D02*
X-148548660Y-88859364D01*
X-144957438Y-86908049D02*
X-144881853Y-86666308D01*
X-147572147Y-88480976D02*
X-147573682Y-88450866D01*
X-151155801Y-87423051D02*
X-151147590Y-87395187D01*
X-157296846Y-84742538D02*
X-157498161Y-84748876D01*
X-145275637Y-84741297D02*
X-145401658Y-84736497D01*
X-144560317Y-83124409D02*
X-144543374Y-83066585D01*
X-151304784Y-93235329D02*
X-151263143Y-93190429D01*
X-152620166Y-93261455D02*
X-152560926Y-93212861D01*
X-148908827Y-88459953D02*
X-148907757Y-88483216D01*
X-152894303Y-82001996D02*
X-153064152Y-82139119D01*
X-151129039Y-87316919D02*
X-151118737Y-87261378D01*
X-148097411Y-82947339D02*
X-148272941Y-82789563D01*
X-145923248Y-82466663D02*
X-146060003Y-82557965D01*
X-158016601Y-85205238D02*
X-157924608Y-85317377D01*
X-151415125Y-86089853D02*
X-151450296Y-86046777D01*
X-146100961Y-83324349D02*
X-146363256Y-83443948D01*
X-145015843Y-89604531D02*
X-144999316Y-89442408D01*
X-152984655Y-88863919D02*
X-152815289Y-88676444D01*
X-151703884Y-85821737D02*
X-151741010Y-85800296D01*
X-149719658Y-92658973D02*
X-149690964Y-92780318D01*
X-147883809Y-92930706D02*
X-147916505Y-92859145D01*
X-145828728Y-83206304D02*
X-146100961Y-83324349D01*
X-153672343Y-81942632D02*
X-153703664Y-81969374D01*
X-154725280Y-83750579D02*
X-155089326Y-83698247D01*
X-152389886Y-85822065D02*
X-152428354Y-85845024D01*
X-144532821Y-85115850D02*
X-144535021Y-85072389D01*
X-157484124Y-87794080D02*
X-157311613Y-87910760D01*
X-151146882Y-86607499D02*
X-151162214Y-86555005D01*
X-157967135Y-85742264D02*
X-158047159Y-85756547D01*
X-150721527Y-82130221D02*
X-150821089Y-82175151D01*
X-153259836Y-89154839D02*
X-153142413Y-89035220D01*
X-157430569Y-91325645D02*
X-157401019Y-91323808D01*
X-152832487Y-86535246D02*
X-152833530Y-86585267D01*
X-146767185Y-93152241D02*
X-146819965Y-93197954D01*
X-149054846Y-93573384D02*
X-148997539Y-93572168D01*
X-155669341Y-90655311D02*
X-155330192Y-90494811D01*
X-149109311Y-93568265D02*
X-149054846Y-93573384D01*
X-151538529Y-87457093D02*
X-151455965Y-87456099D01*
X-148061585Y-92251491D02*
X-148090046Y-92134825D01*
X-157720101Y-88223027D02*
X-157955869Y-88416543D01*
X-149783657Y-92128547D02*
X-149403870Y-92110879D01*
X-157611447Y-91287226D02*
X-157606224Y-91294169D01*
X-152578005Y-85960268D02*
X-152611521Y-85995119D01*
X-152120323Y-85727089D02*
X-152158772Y-85733486D01*
X-148027649Y-92481651D02*
X-148032820Y-92424617D01*
X-157678350Y-85703946D02*
X-157811903Y-85719488D01*
X-155045654Y-82226036D02*
X-154899790Y-82278351D01*
X-144574272Y-85480498D02*
X-144551335Y-85342409D01*
X-157092157Y-86105529D02*
X-156867693Y-86290995D01*
X-153981705Y-82766217D02*
X-154011923Y-82940369D01*
X-152413221Y-82638206D02*
X-152541787Y-82530917D01*
X-151133896Y-86659464D02*
X-151146882Y-86607499D01*
X-147287420Y-93319823D02*
X-147332848Y-93315164D01*
X-148646950Y-85973087D02*
X-148546099Y-85981509D01*
X-154956185Y-91406288D02*
X-154850286Y-91464928D01*
X-152766967Y-86244177D02*
X-152784568Y-86290761D01*
X-152542515Y-85927772D02*
X-152578005Y-85960268D01*
X-151997712Y-93373207D02*
X-151960735Y-93382065D01*
X-155531864Y-82105982D02*
X-155432929Y-82117994D01*
X-152126824Y-93328911D02*
X-152097278Y-93341117D01*
X-148033737Y-92705252D02*
X-148027847Y-92650120D01*
X-150929728Y-82234026D02*
X-151044811Y-82304081D01*
X-143725375Y-86097744D02*
X-143701098Y-86125314D01*
X-145216097Y-90366878D02*
X-145158375Y-90222241D01*
X-152319307Y-93204331D02*
X-152303924Y-93218298D01*
X-150675972Y-82113850D02*
X-150721527Y-82130221D01*
X-147040168Y-81626560D02*
X-147051965Y-81611208D01*
X-150560168Y-82093255D02*
X-150594964Y-82095021D01*
X-149714104Y-82228759D02*
X-149746687Y-82323693D01*
X-151960735Y-93382065D02*
X-151921792Y-93389840D01*
X-151741010Y-85800296D02*
X-151778322Y-85781478D01*
X-157130651Y-89685321D02*
X-157130651Y-89685321D01*
X-147051965Y-81611208D02*
X-147067962Y-81600181D01*
X-153703664Y-81969374D02*
X-153733656Y-82004527D01*
X-152757535Y-93339978D02*
X-152685605Y-93304026D01*
X-147197799Y-82159844D02*
X-147155656Y-82075196D01*
X-153412240Y-81950702D02*
X-153466338Y-81932317D01*
X-145553223Y-90893680D02*
X-145451813Y-90770579D01*
X-146683844Y-93047723D02*
X-146721950Y-93102016D01*
X-146721950Y-93102016D02*
X-146767185Y-93152241D01*
X-143921979Y-85964109D02*
X-143882654Y-85982104D01*
X-148631397Y-93450601D02*
X-148578674Y-93422562D01*
X-157296901Y-91311374D02*
X-157296901Y-91311374D01*
X-152347458Y-92900513D02*
X-152319265Y-92828355D01*
X-156165684Y-84187469D02*
X-156106239Y-84286664D01*
X-158568271Y-89081561D02*
X-158576541Y-89114593D01*
X-158438624Y-85917440D02*
X-158438624Y-85917440D01*
X-145451813Y-90770579D02*
X-145362219Y-90641466D01*
X-158553190Y-89045346D02*
X-158568271Y-89081561D01*
X-152218735Y-92045274D02*
X-152230654Y-91861096D01*
X-156264179Y-83994063D02*
X-156219236Y-84089061D01*
X-152685605Y-93304026D02*
X-152620166Y-93261455D01*
X-145362219Y-90641466D02*
X-145283846Y-90506759D01*
X-158184908Y-86762673D02*
X-158227205Y-86789634D01*
X-151792728Y-93405677D02*
X-151792728Y-93405677D01*
X-146256616Y-82943288D02*
X-146238540Y-82826666D01*
X-158227205Y-86789634D02*
X-158264198Y-86816478D01*
X-154468096Y-82451860D02*
X-154225371Y-82558236D01*
X-144957438Y-86908049D02*
X-144957438Y-86908049D01*
X-144221297Y-85900348D02*
X-144163374Y-85905219D01*
X-152319265Y-92828355D02*
X-152295222Y-92754365D01*
X-153294009Y-82003977D02*
X-153354660Y-81974748D01*
X-155744418Y-84793515D02*
X-155744418Y-84793515D01*
X-152249205Y-93260999D02*
X-152227964Y-93275170D01*
X-157683121Y-84760674D02*
X-157845541Y-84778777D01*
X-149514509Y-93243426D02*
X-149484253Y-93293201D01*
X-158141252Y-87270215D02*
X-158053343Y-87352830D01*
X-153771864Y-92996329D02*
X-153736663Y-93064492D01*
X-151159863Y-93036036D02*
X-151132072Y-92979642D01*
X-152444649Y-87237991D02*
X-152388364Y-87267305D01*
X-157616868Y-91270772D02*
X-157615035Y-91279440D01*
X-153846309Y-92771907D02*
X-153826326Y-92849406D01*
X-156303543Y-83700681D02*
X-156314472Y-83726330D01*
X-151592028Y-81686707D02*
X-151612479Y-81584562D01*
X-146594445Y-92798769D02*
X-146608169Y-92864885D01*
X-156287066Y-83679166D02*
X-156303543Y-83700681D01*
X-158430624Y-86047526D02*
X-158410229Y-86103193D01*
X-148024979Y-92538276D02*
X-148027649Y-92481651D01*
X-149403870Y-92110879D02*
X-149011759Y-92079662D01*
X-153762339Y-82047461D02*
X-153789734Y-82097546D01*
X-143541279Y-86669662D02*
X-143544755Y-86705587D01*
X-145049208Y-88100007D02*
X-145206577Y-86828900D01*
X-143678985Y-86154135D02*
X-143658936Y-86184109D01*
X-148040317Y-92367217D02*
X-148061585Y-92251491D01*
X-155696718Y-90714021D02*
X-155637603Y-90806542D01*
X-149424582Y-81965257D02*
X-149459146Y-81958715D01*
X-151815806Y-85765263D02*
X-151853450Y-85751634D01*
X-147576921Y-93242698D02*
X-147625959Y-93215568D01*
X-154414741Y-83800299D02*
X-154725280Y-83750579D01*
X-154117357Y-83852035D02*
X-154117357Y-83852035D01*
X-151669068Y-81422638D02*
X-151686866Y-81393532D01*
X-157606793Y-91198817D02*
X-157616820Y-91261179D01*
X-145070989Y-84761815D02*
X-145145182Y-84752498D01*
X-152230654Y-91861096D02*
X-152238786Y-91791193D01*
X-157955869Y-88416543D02*
X-158075144Y-88519657D01*
X-151628391Y-87454590D02*
X-151538529Y-87457093D01*
X-147028178Y-81668972D02*
X-147032322Y-81645921D01*
X-158200818Y-86466255D02*
X-158131834Y-86564009D01*
X-152466771Y-85870275D02*
X-152505126Y-85897802D01*
X-149637010Y-82070058D02*
X-149657819Y-82104839D01*
X-148210998Y-93121590D02*
X-148174547Y-93072359D01*
X-151624698Y-82725272D02*
X-151809580Y-82875231D01*
X-158443099Y-85997058D02*
X-158437940Y-86021553D01*
X-152295222Y-92754365D02*
X-152275037Y-92679139D01*
X-149800642Y-82528745D02*
X-149822302Y-82632472D01*
X-147332848Y-93315164D02*
X-147380008Y-93307761D01*
X-158078031Y-84837279D02*
X-158112406Y-84857165D01*
X-151101782Y-87122470D02*
X-151097409Y-87041101D01*
X-152227964Y-93275170D02*
X-152205148Y-93289145D01*
X-144993826Y-84774187D02*
X-145070989Y-84761815D01*
X-144575691Y-84959019D02*
X-144594826Y-84936859D01*
X-150004046Y-87582357D02*
X-150004046Y-88176271D01*
X-152180716Y-93302826D02*
X-152154622Y-93316114D01*
X-148097411Y-82947339D02*
X-148097411Y-82947339D01*
X-150361198Y-84653390D02*
X-150400473Y-84698762D01*
X-152081929Y-85723132D02*
X-152120323Y-85727089D01*
X-149690964Y-92780318D02*
X-149656713Y-92902155D01*
X-148578674Y-93422562D02*
X-148532697Y-93395829D01*
X-156309510Y-83863704D02*
X-156297797Y-83905101D01*
X-147614591Y-82672380D02*
X-147861992Y-82810695D01*
X-149866232Y-86137073D02*
X-149690431Y-86082927D01*
X-157352478Y-89642356D02*
X-157130651Y-89685321D01*
X-144669096Y-83400185D02*
X-144607312Y-83254529D01*
X-143751913Y-86071523D02*
X-143725375Y-86097744D01*
X-157491254Y-91326193D02*
X-157460976Y-91326548D01*
X-158106451Y-89445359D02*
X-157976482Y-89487095D01*
X-148968653Y-93569034D02*
X-148938788Y-93564076D01*
X-151727301Y-81352031D02*
X-151750069Y-81340510D01*
X-148681490Y-82444145D02*
X-148799286Y-82350956D01*
X-151982768Y-83021742D02*
X-152191632Y-82830900D01*
X-144528710Y-82896700D02*
X-144540339Y-82872404D01*
X-152397243Y-93111594D02*
X-152384670Y-93130231D01*
X-151249868Y-86342213D02*
X-151279075Y-86288935D01*
X-149905633Y-84213935D02*
X-149948229Y-84247483D01*
X-152205148Y-93289145D02*
X-152180716Y-93302826D01*
X-152005358Y-85722607D02*
X-152043603Y-85721632D01*
X-150961165Y-86715713D02*
X-150820156Y-86616930D01*
X-155637603Y-90806542D02*
X-155571865Y-90894971D01*
X-153097741Y-82117981D02*
X-153230698Y-82037910D01*
X-152496790Y-87206110D02*
X-152444649Y-87237991D01*
X-152405792Y-93097306D02*
X-152397243Y-93111594D01*
X-156219236Y-84089061D02*
X-156165684Y-84187469D01*
X-152384670Y-93130231D02*
X-152367722Y-93152425D01*
X-144732944Y-84847811D02*
X-144767082Y-84833973D01*
X-154500822Y-86033078D02*
X-153940784Y-86569796D01*
X-150633675Y-82102001D02*
X-150675972Y-82113850D01*
X-151097409Y-87041101D02*
X-151097294Y-86953117D01*
X-144985016Y-89111862D02*
X-144991745Y-88775711D01*
X-153736663Y-93064492D02*
X-153695670Y-93128283D01*
X-155466085Y-83653267D02*
X-155646483Y-83636649D01*
X-156264703Y-83662113D02*
X-156287066Y-83679166D01*
X-145314881Y-82401781D02*
X-145288248Y-82325782D01*
X-146585781Y-92730810D02*
X-146594445Y-92798769D01*
X-158556295Y-89198973D02*
X-158534779Y-89225850D01*
X-143609446Y-86883443D02*
X-143630806Y-86918254D01*
X-157581987Y-91310349D02*
X-157571462Y-91314328D01*
X-151109271Y-87196229D02*
X-151101782Y-87122470D01*
X-144009287Y-85934040D02*
X-143964157Y-85948055D01*
X-148027847Y-92650120D02*
X-148024987Y-92594446D01*
X-155609027Y-82109821D02*
X-155573418Y-82105776D01*
X-158349636Y-86976645D02*
X-158340539Y-87007864D01*
X-148618320Y-82160026D02*
X-148861191Y-82271904D01*
X-152665409Y-87056309D02*
X-152629097Y-87096762D01*
X-145158375Y-90222241D02*
X-145110086Y-90073269D01*
X-144531338Y-83014337D02*
X-144524613Y-82968231D01*
X-148997539Y-93572168D02*
X-148968653Y-93569034D01*
X-151118737Y-87261378D02*
X-151109271Y-87196229D01*
X-149992922Y-84284983D02*
X-150039174Y-84325819D01*
X-151399926Y-93312335D02*
X-151350320Y-93276128D01*
X-143780811Y-86046750D02*
X-143751913Y-86071523D01*
X-146398092Y-82142651D02*
X-146441053Y-82147964D01*
X-144622417Y-82836769D02*
X-144664678Y-82835109D01*
X-148404675Y-93308735D02*
X-148348723Y-93263503D01*
X-149343900Y-81993903D02*
X-149386052Y-81977111D01*
X-144991745Y-88775711D02*
X-145014733Y-88437308D01*
X-152276718Y-81554632D02*
X-152389324Y-81628893D01*
X-148465941Y-93352858D02*
X-148404675Y-93308735D01*
X-146745228Y-91882021D02*
X-146706026Y-91988836D01*
X-149380716Y-93423550D02*
X-149341693Y-93459541D01*
X-148501521Y-88870787D02*
X-148450458Y-88880210D01*
X-147503300Y-86163617D02*
X-146794693Y-86319977D01*
X-156282573Y-83948663D02*
X-156264179Y-83994063D01*
X-148631794Y-88831225D02*
X-148592033Y-88846117D01*
X-153142413Y-89035220D02*
X-153142413Y-89035220D01*
X-158277762Y-86349237D02*
X-158200818Y-86466255D01*
X-148852864Y-88652284D02*
X-148838587Y-88674036D01*
X-152544862Y-87171832D02*
X-152496790Y-87206110D01*
X-155495143Y-82972051D02*
X-155547806Y-82834060D01*
X-150468575Y-84782285D02*
X-150496322Y-84819205D01*
X-148162923Y-91900069D02*
X-148247695Y-91665744D01*
X-150048666Y-82683518D02*
X-150093194Y-82591771D01*
X-152156588Y-87359682D02*
X-152043344Y-87392500D01*
X-155687672Y-82177265D02*
X-155676460Y-82151226D01*
X-152459869Y-93100003D02*
X-152417468Y-93036935D01*
X-144551335Y-85342409D02*
X-144537002Y-85219561D01*
X-148341621Y-86008872D02*
X-147905900Y-86085614D01*
X-157460976Y-91326548D02*
X-157430569Y-91325645D01*
X-156091738Y-84771836D02*
X-156451689Y-84754880D01*
X-147637491Y-88688572D02*
X-147622415Y-88666305D01*
X-151706255Y-81369851D02*
X-151727301Y-81352031D01*
X-151686866Y-81393532D02*
X-151706255Y-81369851D01*
X-158351342Y-86224401D02*
X-158315681Y-86287081D01*
X-157858099Y-87517136D02*
X-157757494Y-87595401D01*
X-144767082Y-84833973D02*
X-144839617Y-84809833D01*
X-149888055Y-83082677D02*
X-149888055Y-83082677D01*
X-143541303Y-86633757D02*
X-143541303Y-86633757D01*
X-158437940Y-86021553D02*
X-158430624Y-86047526D01*
X-150274902Y-84558502D02*
X-150361198Y-84653390D01*
X-152388364Y-87267305D02*
X-152271886Y-87318235D01*
X-151929164Y-85732059D02*
X-151967207Y-85726077D01*
X-155744418Y-84793515D02*
X-156091738Y-84771836D01*
X-157311613Y-87910760D02*
X-157513649Y-88061885D01*
X-151485757Y-86006469D02*
X-151521495Y-85968912D01*
X-150594964Y-82095021D02*
X-150633675Y-82102001D01*
X-151715064Y-93407324D02*
X-151642511Y-93401435D01*
X-152221750Y-92305433D02*
X-152217206Y-92168249D01*
X-145146833Y-86824422D02*
X-144957438Y-86908049D01*
X-147016650Y-82364069D02*
X-147322394Y-82516285D01*
X-158088248Y-85102329D02*
X-158055251Y-85152440D01*
X-147725440Y-88773149D02*
X-147698934Y-88753014D01*
X-152032765Y-93363364D02*
X-151997712Y-93373207D01*
X-147769151Y-91882344D02*
X-147335413Y-91774559D01*
X-153603620Y-81915898D02*
X-153639673Y-81924930D01*
X-158147643Y-84971919D02*
X-158135011Y-85011689D01*
X-148546099Y-85981509D02*
X-148444317Y-85993406D01*
X-148071339Y-92866966D02*
X-148055307Y-92813719D01*
X-148072679Y-88885809D02*
X-148014397Y-88878002D01*
X-147067962Y-81600181D02*
X-147088410Y-81593799D01*
X-152726799Y-86970418D02*
X-152697952Y-87014138D01*
X-157363344Y-90371614D02*
X-157450815Y-90643463D01*
X-158228561Y-89400729D02*
X-158106451Y-89445359D01*
X-144120725Y-87338245D02*
X-144206338Y-87382700D01*
X-157587973Y-91115652D02*
X-157606793Y-91198817D01*
X-147755268Y-88792330D02*
X-147725440Y-88773149D01*
X-148014397Y-88878002D02*
X-147960737Y-88868065D01*
X-151139036Y-87361855D02*
X-151129039Y-87316919D01*
X-149948229Y-84247483D02*
X-149992922Y-84284983D01*
X-156816394Y-91136480D02*
X-156298579Y-90930101D01*
X-147380008Y-93307761D02*
X-147428447Y-93297212D01*
X-146238540Y-82826666D02*
X-146223852Y-82709073D01*
X-151826515Y-87435671D02*
X-151724678Y-87447734D01*
X-149543055Y-81974217D02*
X-149568187Y-81990886D01*
X-157659387Y-87668788D02*
X-157484124Y-87794080D01*
X-157401019Y-91323808D02*
X-157348432Y-91318633D01*
X-157450815Y-90643463D02*
X-157529165Y-90900611D01*
X-156317374Y-83824800D02*
X-156309510Y-83863704D01*
X-148450458Y-88880210D02*
X-148395315Y-88887456D01*
X-146593444Y-92449437D02*
X-146586008Y-92520321D01*
X-151132072Y-92979642D02*
X-151107310Y-92921601D01*
X-147027488Y-81695395D02*
X-147028178Y-81668972D01*
X-158577520Y-89144154D02*
X-158577520Y-89144154D01*
X-143640852Y-86215136D02*
X-143624637Y-86247118D01*
X-152287142Y-93232464D02*
X-152268917Y-93246731D01*
X-153662045Y-91880230D02*
X-153414710Y-91930205D01*
X-158115024Y-85055286D02*
X-158088248Y-85102329D01*
X-148750519Y-93505303D02*
X-148719541Y-93492213D01*
X-153861938Y-92692556D02*
X-153846309Y-92771907D01*
X-149775485Y-82424754D02*
X-149800642Y-82528745D01*
X-152312855Y-85783099D02*
X-152351382Y-85801417D01*
X-149256423Y-93518297D02*
X-149210023Y-93540382D01*
X-149828898Y-84161154D02*
X-149865676Y-84184953D01*
X-143771558Y-87085306D02*
X-143805458Y-87116908D01*
X-157924608Y-85317377D02*
X-157816807Y-85435707D01*
X-152672330Y-86071207D02*
X-152699474Y-86112105D01*
X-152389324Y-81628893D02*
X-152501715Y-81706907D01*
X-152043603Y-85721632D02*
X-152081929Y-85723132D01*
X-155573418Y-82105776D02*
X-155531864Y-82105982D01*
X-147335413Y-91774559D02*
X-146893185Y-91642038D01*
X-152677813Y-82421428D02*
X-152818008Y-82313561D01*
X-147866541Y-88842478D02*
X-147825633Y-88827163D01*
X-158125735Y-85772860D02*
X-158200576Y-85791274D01*
X-147116357Y-81990054D02*
X-147081897Y-81906961D01*
X-151044811Y-82304081D02*
X-151163703Y-82382550D01*
X-152629097Y-87096762D02*
X-152588939Y-87135326D01*
X-145511893Y-83077388D02*
X-145828728Y-83206304D01*
X-154297447Y-89933134D02*
X-153971104Y-89722581D01*
X-153516541Y-81920069D02*
X-153562439Y-81914437D01*
X-149616295Y-93021765D02*
X-149569097Y-93136428D01*
X-157498161Y-84748876D02*
X-157683121Y-84760674D01*
X-151521495Y-85968912D02*
X-151557497Y-85934086D01*
X-150462913Y-82120057D02*
X-150495087Y-82106039D01*
X-149690431Y-86082927D02*
X-149510159Y-86038167D01*
X-148938788Y-93564076D02*
X-148908149Y-93557460D01*
X-145763772Y-82364343D02*
X-145923248Y-82466663D01*
X-157615035Y-91279440D02*
X-157611447Y-91287226D01*
X-144999316Y-89442408D02*
X-144985016Y-89111862D01*
X-150365561Y-86348306D02*
X-150203922Y-86270515D01*
X-155638190Y-82118406D02*
X-155609027Y-82109821D01*
X-158251514Y-87150532D02*
X-158218201Y-87189575D01*
X-146489516Y-82157919D02*
X-146600990Y-82190403D01*
X-147905900Y-86085614D02*
X-147503300Y-86163617D01*
X-148032820Y-92424617D02*
X-148040317Y-92367217D01*
X-155695080Y-82290425D02*
X-155696697Y-82247339D01*
X-152821637Y-86435818D02*
X-152828498Y-86485373D01*
X-144915951Y-84790049D02*
X-144993826Y-84774187D01*
X-152158772Y-85733486D02*
X-152197263Y-85742304D01*
X-157591371Y-91305690D02*
X-157581987Y-91310349D01*
X-148813637Y-93529320D02*
X-148781952Y-93517727D01*
X-157842761Y-89525651D02*
X-157580487Y-89592078D01*
X-152275037Y-92679139D02*
X-152258418Y-92603277D01*
X-158305713Y-87076069D02*
X-158280825Y-87112625D01*
X-148042832Y-92759800D02*
X-148033737Y-92705252D01*
X-158269392Y-85811863D02*
X-158329893Y-85834701D01*
X-151724678Y-87447734D02*
X-151628391Y-87454590D01*
X-157979239Y-84804030D02*
X-158033385Y-84819602D01*
X-148746855Y-85968047D02*
X-148646950Y-85973087D01*
X-154092747Y-83570382D02*
X-154117357Y-83852035D01*
X-150086444Y-84369376D02*
X-150134191Y-84415037D01*
X-155156305Y-91278611D02*
X-155058310Y-91344209D01*
X-146581762Y-92661452D02*
X-146585781Y-92730810D01*
X-152286251Y-92050591D02*
X-152286251Y-92050591D01*
X-156195893Y-83638394D02*
X-156234681Y-83648856D01*
X-148091103Y-92919497D02*
X-148071339Y-92866966D01*
X-149341693Y-93459541D02*
X-149300287Y-93491237D01*
X-144108797Y-85912524D02*
X-144057468Y-85922163D01*
X-151279075Y-86288935D02*
X-151311484Y-86235875D01*
X-144824119Y-83720043D02*
X-144742441Y-83556861D01*
X-149778517Y-92325082D02*
X-149743407Y-92540839D01*
X-152699474Y-86112105D02*
X-152724345Y-86154679D01*
X-153789734Y-82097546D02*
X-153815862Y-82154153D01*
X-145333535Y-82138391D02*
X-145386768Y-82156883D01*
X-147847423Y-92994719D02*
X-147883809Y-92930706D01*
X-148781886Y-88738256D02*
X-148757842Y-88758728D01*
X-143964157Y-85948055D02*
X-143921979Y-85964109D01*
X-152815289Y-88676444D02*
X-152454444Y-88270483D01*
X-145288248Y-82325782D02*
X-145268706Y-82258986D01*
X-158148573Y-84905378D02*
X-158152353Y-84936355D01*
X-148803254Y-88717199D02*
X-148781886Y-88738256D01*
X-158297269Y-88727028D02*
X-158392438Y-88826658D01*
X-143846083Y-86001942D02*
X-143812168Y-86023523D01*
X-151666957Y-85845817D02*
X-151703884Y-85821737D01*
X-146811482Y-91724574D02*
X-146745228Y-91882021D01*
X-149417432Y-93383603D02*
X-149380716Y-93423550D01*
X-150150352Y-92134903D02*
X-149783657Y-92128547D01*
X-153170792Y-91970676D02*
X-152933139Y-92002297D01*
X-155330192Y-90494811D02*
X-154983893Y-90320269D01*
X-153695670Y-93128283D02*
X-153648525Y-93187072D01*
X-144460481Y-87482502D02*
X-144540339Y-87503030D01*
X-148876940Y-93549352D02*
X-148845368Y-93539917D01*
X-148908149Y-93557460D02*
X-148876940Y-93549352D01*
X-151345706Y-86184384D02*
X-151380258Y-86135716D01*
X-149210023Y-93540382D02*
X-149161011Y-93557151D01*
X-148548660Y-88859364D02*
X-148501521Y-88870787D01*
X-149801183Y-92154799D02*
X-149778517Y-92325082D01*
X-145450465Y-82185494D02*
X-145522320Y-82222384D01*
X-151547230Y-82269411D02*
X-151555756Y-82035918D01*
X-145501711Y-82831211D02*
X-145422271Y-82659676D01*
X-157715826Y-86552692D02*
X-157847855Y-86603082D01*
X-157316909Y-86419180D02*
X-157580648Y-86504805D01*
X-149569097Y-93136428D02*
X-149514509Y-93243426D01*
X-146361119Y-82142319D02*
X-146398092Y-82142651D01*
X-157547483Y-91320408D02*
X-157520418Y-91324255D01*
X-154637344Y-90132703D02*
X-154297447Y-89933134D01*
X-152746868Y-86198760D02*
X-152766967Y-86244177D01*
X-150037437Y-86199853D02*
X-149866232Y-86137073D01*
X-144535021Y-85072389D02*
X-144540339Y-85035173D01*
X-146819965Y-93197954D02*
X-146880704Y-93238708D01*
X-150181877Y-84462189D02*
X-150274902Y-84558502D01*
X-152588939Y-87135326D02*
X-152544862Y-87171832D01*
X-144377403Y-87455294D02*
X-144460481Y-87482502D01*
X-151642511Y-93401435D02*
X-151574893Y-93388501D01*
X-148135769Y-88891320D02*
X-148072679Y-88885809D01*
X-151652796Y-81456731D02*
X-151669068Y-81422638D01*
X-149657819Y-82104839D02*
X-149677593Y-82143149D01*
X-158410229Y-86103193D02*
X-158383330Y-86162629D01*
X-144670336Y-84879297D02*
X-144700602Y-84862902D01*
X-155994437Y-90800747D02*
X-155669341Y-90655311D01*
X-158340539Y-87007864D02*
X-158325758Y-87041077D01*
X-158570713Y-89171729D02*
X-158556295Y-89198973D01*
X-148865090Y-88630653D02*
X-148852864Y-88652284D01*
X-157318282Y-85910162D02*
X-157092157Y-86105529D01*
X-158438624Y-85917440D02*
X-158443863Y-85934233D01*
X-153391222Y-93359608D02*
X-153307916Y-93383936D01*
X-151809580Y-82875231D02*
X-151982768Y-83021742D01*
X-147755971Y-81789843D02*
X-148065801Y-81917054D01*
X-149510159Y-86038167D02*
X-149325541Y-86003547D01*
X-154628590Y-91572224D02*
X-154396069Y-91666748D01*
X-149161011Y-93557151D02*
X-149109311Y-93568265D01*
X-156043617Y-84384020D02*
X-155980532Y-84476911D01*
X-147527355Y-93265081D02*
X-147576921Y-93242698D01*
X-151750069Y-81340510D02*
X-151776035Y-81335080D01*
X-144540339Y-82872404D02*
X-144540339Y-82872404D01*
X-148891018Y-88568261D02*
X-148884011Y-88588465D01*
X-157757494Y-87595401D02*
X-157659387Y-87668788D01*
X-151096705Y-86817863D02*
X-150961165Y-86715713D01*
X-149459146Y-81958715D02*
X-149489396Y-81957860D01*
X-158531779Y-89006238D02*
X-158553190Y-89045346D01*
X-149746687Y-82323693D02*
X-149775485Y-82424754D01*
X-144540339Y-82872404D02*
X-144559668Y-82855089D01*
X-155814763Y-83625607D02*
X-155965824Y-83621387D01*
X-155646483Y-83636649D02*
X-155814763Y-83625607D01*
X-147076493Y-93312572D02*
X-147132048Y-93319026D01*
X-146581976Y-92591141D02*
X-146581762Y-92661452D01*
X-148884011Y-88588465D02*
X-148875420Y-88609321D01*
X-154117357Y-83852035D02*
X-154414741Y-83800299D01*
X-147916505Y-92859145D02*
X-147945059Y-92779636D01*
X-146586008Y-92520321D02*
X-146581976Y-92591141D01*
X-154155573Y-91749155D02*
X-153909949Y-91820098D01*
X-151163703Y-82382550D02*
X-151283772Y-82466668D01*
X-151750069Y-81340510D02*
X-151750069Y-81340510D01*
X-146223852Y-82709073D02*
X-146213918Y-82593945D01*
X-151455965Y-87456099D02*
X-151381574Y-87452462D01*
X-153665216Y-89502065D02*
X-153522100Y-89388389D01*
X-150503190Y-92132185D02*
X-150150352Y-92134903D01*
X-146317507Y-83252987D02*
X-146276712Y-83055506D01*
X-146088961Y-91317574D02*
X-145934320Y-91222716D01*
X-152773708Y-86879010D02*
X-152752026Y-86925319D01*
X-146330624Y-82147306D02*
X-146361119Y-82142319D01*
X-150141813Y-82499905D02*
X-150194088Y-82410773D01*
X-152828498Y-86485373D02*
X-152832487Y-86535246D01*
X-145039416Y-89763995D02*
X-145015843Y-89604531D01*
X-149822302Y-82632472D02*
X-149840608Y-82732738D01*
X-153307916Y-93383936D02*
X-153216299Y-93399483D01*
X-146868463Y-82296185D02*
X-147016650Y-82364069D01*
X-154060018Y-83278769D02*
X-154092747Y-83570382D01*
X-152826474Y-86685077D02*
X-152818227Y-86734526D01*
X-156106239Y-84286664D02*
X-156043617Y-84384020D01*
X-151920477Y-81363625D02*
X-151965020Y-81381624D01*
D12*
%TO.C,D5*%
X-196750000Y-14562500D03*
X-199550000Y-14562500D03*
%TD*%
D13*
%TO.C,K8*%
X-258984000Y-6860000D03*
X-272446000Y-4320000D03*
D14*
X-278288000Y-17655000D03*
X-266350000Y-9400000D03*
D15*
X-254412000Y-2415000D03*
D14*
X-254412000Y-17655000D03*
D16*
X-261270000Y-9400000D03*
D15*
X-262540000Y-6860000D03*
X-278288000Y-2415000D03*
X-268890000Y-4320000D03*
D16*
X-271430000Y-9400000D03*
%TD*%
D12*
%TO.C,D88*%
X-297750000Y-14562500D03*
X-300550000Y-14562500D03*
%TD*%
D17*
%TO.C,JP1*%
X-267655800Y-62054200D03*
D18*
X-268955800Y-62054200D03*
%TD*%
D13*
%TO.C,K22*%
X-87534000Y-44960000D03*
X-100996000Y-42420000D03*
D15*
X-97440000Y-42420000D03*
D14*
X-94900000Y-47500000D03*
D16*
X-99980000Y-47500000D03*
X-89820000Y-47500000D03*
D15*
X-91090000Y-44960000D03*
%TD*%
D12*
%TO.C,D11*%
X-57686000Y-36514500D03*
X-60486000Y-36514500D03*
%TD*%
D19*
%TO.C,J2*%
X-299871000Y-34030600D03*
X-301141000Y-34030600D03*
X-299871000Y-32760600D03*
X-301141000Y-32760600D03*
X-299871000Y-31490600D03*
D20*
X-301141000Y-31490600D03*
%TD*%
D13*
%TO.C,K70*%
X-20859000Y-6860000D03*
X-34321000Y-4320000D03*
D16*
X-33305000Y-9400000D03*
D14*
X-28225000Y-9400000D03*
D15*
X-24415000Y-6860000D03*
X-30765000Y-4320000D03*
D16*
X-23145000Y-9400000D03*
%TD*%
D21*
%TO.C,TH2*%
X-2215400Y-21109400D03*
%TD*%
D13*
%TO.C,K82*%
X-97059000Y-6860000D03*
X-110521000Y-4320000D03*
D15*
X-100615000Y-6860000D03*
X-106965000Y-4320000D03*
D14*
X-104425000Y-9400000D03*
D16*
X-99345000Y-9400000D03*
X-109505000Y-9400000D03*
%TD*%
D12*
%TO.C,D31*%
X-58682600Y-69217000D03*
X-55882600Y-69217000D03*
%TD*%
%TO.C,D60*%
X-27460000Y-31244000D03*
X-30260000Y-31244000D03*
%TD*%
D13*
%TO.C,K41*%
X-61340250Y-83060000D03*
X-74802250Y-80520000D03*
D15*
X-71246250Y-80520000D03*
D16*
X-63626250Y-85600000D03*
D15*
X-64896250Y-83060000D03*
D16*
X-73786250Y-85600000D03*
D14*
X-68706250Y-85600000D03*
%TD*%
D13*
%TO.C,K7*%
X-230409000Y-6860000D03*
X-243871000Y-4320000D03*
D15*
X-233965000Y-6860000D03*
D16*
X-242855000Y-9400000D03*
D14*
X-237775000Y-9400000D03*
D15*
X-240315000Y-4320000D03*
D16*
X-232695000Y-9400000D03*
%TD*%
D13*
%TO.C,K63*%
X-144684000Y-44960000D03*
X-158146000Y-42420000D03*
D14*
X-152050000Y-47500000D03*
D16*
X-157130000Y-47500000D03*
X-146970000Y-47500000D03*
D15*
X-154590000Y-42420000D03*
X-148240000Y-44960000D03*
%TD*%
D12*
%TO.C,D41*%
X-76485000Y-86385000D03*
X-79285000Y-86385000D03*
%TD*%
%TO.C,D3*%
X-119750000Y-14562500D03*
X-122550000Y-14562500D03*
%TD*%
%TO.C,D2*%
X-79536000Y-11457400D03*
X-76736000Y-11457400D03*
%TD*%
D22*
%TO.C,DL14*%
X-245200000Y-15462500D03*
X-245200000Y-18662500D03*
X-250100000Y-18662500D03*
X-250100000Y-15462500D03*
%TD*%
D21*
%TO.C,TH1*%
X-300055800Y-41734200D03*
%TD*%
D22*
%TO.C,DL1*%
X-265269400Y-54967400D03*
X-265269400Y-51767400D03*
X-260369400Y-51767400D03*
X-260369400Y-54967400D03*
%TD*%
D12*
%TO.C,D53*%
X-149600000Y-70000000D03*
X-152400000Y-70000000D03*
%TD*%
%TO.C,D44*%
X-160559000Y-88798000D03*
X-163359000Y-88798000D03*
%TD*%
%TO.C,D54*%
X-186854000Y-68224000D03*
X-184054000Y-68224000D03*
%TD*%
%TO.C,D16*%
X-226469000Y-32514000D03*
X-229269000Y-32514000D03*
%TD*%
%TO.C,D14*%
X-168938000Y-32514000D03*
X-171738000Y-32514000D03*
%TD*%
%TO.C,D20*%
X-24285000Y-55437500D03*
X-27085000Y-55437500D03*
%TD*%
D13*
%TO.C,K32*%
X-92296500Y-64010000D03*
X-105758500Y-61470000D03*
D16*
X-104742500Y-66550000D03*
D15*
X-102202500Y-61470000D03*
X-95852500Y-64010000D03*
D16*
X-94582500Y-66550000D03*
D14*
X-99662500Y-66550000D03*
%TD*%
D12*
%TO.C,D30*%
X-29111000Y-74360500D03*
X-31911000Y-74360500D03*
%TD*%
D23*
%TO.C,C3*%
X-281550000Y-57587000D03*
X-283450000Y-57587000D03*
%TD*%
D13*
%TO.C,K10*%
X-6571500Y-25910000D03*
X-20033500Y-23370000D03*
D16*
X-8857500Y-28450000D03*
X-19017500Y-28450000D03*
D14*
X-13937500Y-28450000D03*
D15*
X-16477500Y-23370000D03*
X-10127500Y-25910000D03*
%TD*%
D13*
%TO.C,K11*%
X-44671500Y-25910000D03*
X-58133500Y-23370000D03*
D15*
X-48227500Y-25910000D03*
D16*
X-46957500Y-28450000D03*
D15*
X-54577500Y-23370000D03*
D14*
X-52037500Y-28450000D03*
D16*
X-57117500Y-28450000D03*
%TD*%
D13*
%TO.C,K27*%
X-251840250Y-44960000D03*
X-265302250Y-42420000D03*
D16*
X-254126250Y-47500000D03*
D14*
X-247268250Y-55755000D03*
X-259206250Y-47500000D03*
X-271144250Y-55755000D03*
D16*
X-264286250Y-47500000D03*
D15*
X-261746250Y-42420000D03*
X-255396250Y-44960000D03*
X-271144250Y-40515000D03*
X-247268250Y-40515000D03*
%TD*%
D12*
%TO.C,D4*%
X-158250000Y-14562500D03*
X-161050000Y-14562500D03*
%TD*%
D22*
%TO.C,DL3*%
X-176100000Y-55662500D03*
X-176100000Y-52462500D03*
X-171200000Y-52462500D03*
X-171200000Y-55662500D03*
%TD*%
D13*
%TO.C,K42*%
X-85152750Y-83060000D03*
X-98614750Y-80520000D03*
D15*
X-88708750Y-83060000D03*
D16*
X-87438750Y-85600000D03*
D14*
X-92518750Y-85600000D03*
D15*
X-95058750Y-80520000D03*
D16*
X-97598750Y-85600000D03*
%TD*%
D13*
%TO.C,K45*%
X-178021500Y-83060000D03*
X-191483500Y-80520000D03*
D16*
X-180307500Y-85600000D03*
D15*
X-181577500Y-83060000D03*
D14*
X-185387500Y-85600000D03*
D15*
X-187927500Y-80520000D03*
D16*
X-190467500Y-85600000D03*
%TD*%
D13*
%TO.C,K12*%
X-82771500Y-25910000D03*
X-96233500Y-23370000D03*
D15*
X-92677500Y-23370000D03*
X-86327500Y-25910000D03*
D16*
X-95217500Y-28450000D03*
D14*
X-90137500Y-28450000D03*
D16*
X-85057500Y-28450000D03*
%TD*%
D13*
%TO.C,K72*%
X-101821500Y-25910000D03*
X-115283500Y-23370000D03*
D16*
X-104107500Y-28450000D03*
D15*
X-111727500Y-23370000D03*
D14*
X-109187500Y-28450000D03*
D15*
X-105377500Y-25910000D03*
D16*
X-114267500Y-28450000D03*
%TD*%
D12*
%TO.C,D81*%
X-63731200Y-13895800D03*
X-66531200Y-13895800D03*
%TD*%
%TO.C,D10*%
X-19586000Y-36514500D03*
X-22386000Y-36514500D03*
%TD*%
D13*
%TO.C,K34*%
X-168496500Y-64010000D03*
X-181958500Y-61470000D03*
D15*
X-172052500Y-64010000D03*
X-178402500Y-61470000D03*
D16*
X-180942500Y-66550000D03*
D14*
X-175862500Y-66550000D03*
D16*
X-170782500Y-66550000D03*
%TD*%
D12*
%TO.C,D50*%
X-29750000Y-51062500D03*
X-32550000Y-51062500D03*
%TD*%
%TO.C,D35*%
X-219611000Y-74614500D03*
X-222411000Y-74614500D03*
%TD*%
%TO.C,D38*%
X-282000000Y-28900000D03*
X-282000000Y-31700000D03*
%TD*%
D13*
%TO.C,K13*%
X-120871500Y-25910000D03*
X-134333500Y-23370000D03*
D16*
X-133317500Y-28450000D03*
D15*
X-124427500Y-25910000D03*
D16*
X-123157500Y-28450000D03*
D14*
X-128237500Y-28450000D03*
D15*
X-130777500Y-23370000D03*
%TD*%
D12*
%TO.C,D40*%
X-48040000Y-69491000D03*
X-48040000Y-72291000D03*
%TD*%
%TO.C,D6*%
X-204732600Y-14657800D03*
X-201932600Y-14657800D03*
%TD*%
D24*
%TO.C,J1*%
X-109125000Y-34000000D03*
X-109125000Y-35000000D03*
X-109125000Y-36000000D03*
X-109125000Y-37000000D03*
D25*
X-105250000Y-38300000D03*
X-105250000Y-32700000D03*
%TD*%
D13*
%TO.C,K73*%
X-139921500Y-25910000D03*
X-153383500Y-23370000D03*
D14*
X-147287500Y-28450000D03*
D16*
X-152367500Y-28450000D03*
X-142207500Y-28450000D03*
D15*
X-143477500Y-25910000D03*
X-149827500Y-23370000D03*
%TD*%
D13*
%TO.C,K81*%
X-58959000Y-6860000D03*
X-72421000Y-4320000D03*
D16*
X-61245000Y-9400000D03*
D15*
X-68865000Y-4320000D03*
D14*
X-66325000Y-9400000D03*
D16*
X-71405000Y-9400000D03*
D15*
X-62515000Y-6860000D03*
%TD*%
D13*
%TO.C,K74*%
X-178021500Y-25910000D03*
X-191483500Y-23370000D03*
D16*
X-190467500Y-28450000D03*
D15*
X-187927500Y-23370000D03*
X-181577500Y-25910000D03*
D14*
X-185387500Y-28450000D03*
D16*
X-180307500Y-28450000D03*
%TD*%
D13*
%TO.C,K40*%
X-35146500Y-64010000D03*
X-48608500Y-61470000D03*
D14*
X-42512500Y-66550000D03*
D15*
X-45052500Y-61470000D03*
D16*
X-37432500Y-66550000D03*
X-47592500Y-66550000D03*
D15*
X-38702500Y-64010000D03*
%TD*%
D13*
%TO.C,K52*%
X-111346500Y-64010000D03*
X-124808500Y-61470000D03*
D16*
X-113632500Y-66550000D03*
D15*
X-114902500Y-64010000D03*
D16*
X-123792500Y-66550000D03*
D14*
X-118712500Y-66550000D03*
D15*
X-121252500Y-61470000D03*
%TD*%
D26*
%TO.C,R4*%
X-278415000Y-41634500D03*
X-278415000Y-43459500D03*
%TD*%
D13*
%TO.C,K16*%
X-216121500Y-25910000D03*
X-229583500Y-23370000D03*
D15*
X-226027500Y-23370000D03*
X-219677500Y-25910000D03*
D16*
X-228567500Y-28450000D03*
X-218407500Y-28450000D03*
D14*
X-223487500Y-28450000D03*
%TD*%
D13*
%TO.C,K60*%
X-25621500Y-25910000D03*
X-39083500Y-23370000D03*
D15*
X-35527500Y-23370000D03*
D16*
X-38067500Y-28450000D03*
D14*
X-32987500Y-28450000D03*
D16*
X-27907500Y-28450000D03*
D15*
X-29177500Y-25910000D03*
%TD*%
D12*
%TO.C,D25*%
X-200691000Y-39141000D03*
X-203491000Y-39141000D03*
%TD*%
%TO.C,D82*%
X-94061800Y-6171200D03*
X-94061800Y-8971200D03*
%TD*%
%TO.C,D8*%
X-256066000Y-9933400D03*
X-253266000Y-9933400D03*
%TD*%
D22*
%TO.C,DL15*%
X-283200000Y-15462500D03*
X-283200000Y-18662500D03*
X-288100000Y-18662500D03*
X-288100000Y-15462500D03*
%TD*%
D17*
%TO.C,JP2*%
X-230521000Y-63375000D03*
D18*
X-231821000Y-63375000D03*
%TD*%
D12*
%TO.C,D18*%
X-258225000Y-32387000D03*
X-255425000Y-32387000D03*
%TD*%
D13*
%TO.C,K23*%
X-125634000Y-44960000D03*
X-139096000Y-42420000D03*
D15*
X-129190000Y-44960000D03*
D16*
X-127920000Y-47500000D03*
D14*
X-133000000Y-47500000D03*
D16*
X-138080000Y-47500000D03*
D15*
X-135540000Y-42420000D03*
%TD*%
D12*
%TO.C,D34*%
X-170058600Y-71909400D03*
X-172858600Y-71909400D03*
%TD*%
D22*
%TO.C,DL12*%
X-168700000Y-12400000D03*
X-168700000Y-15600000D03*
X-173600000Y-15600000D03*
X-173600000Y-12400000D03*
%TD*%
%TO.C,DL2*%
X-221100000Y-55662500D03*
X-221100000Y-52462500D03*
X-216200000Y-52462500D03*
X-216200000Y-55662500D03*
%TD*%
D13*
%TO.C,K24*%
X-163734000Y-44960000D03*
X-177196000Y-42420000D03*
D15*
X-167290000Y-44960000D03*
D16*
X-176180000Y-47500000D03*
X-166020000Y-47500000D03*
D15*
X-173640000Y-42420000D03*
D14*
X-171100000Y-47500000D03*
%TD*%
D13*
%TO.C,K43*%
X-123252750Y-83060000D03*
X-136714750Y-80520000D03*
D15*
X-142556750Y-92585000D03*
X-118680750Y-92585000D03*
D16*
X-135698750Y-85600000D03*
D14*
X-130618750Y-85600000D03*
D15*
X-126808750Y-83060000D03*
D14*
X-142556750Y-77345000D03*
X-118680750Y-77345000D03*
D15*
X-133158750Y-80520000D03*
D16*
X-125538750Y-85600000D03*
%TD*%
D13*
%TO.C,K3*%
X-116109000Y-6860000D03*
X-129571000Y-4320000D03*
D15*
X-126015000Y-4320000D03*
D16*
X-128555000Y-9400000D03*
X-118395000Y-9400000D03*
D15*
X-119665000Y-6860000D03*
D14*
X-123475000Y-9400000D03*
%TD*%
D23*
%TO.C,C4*%
X-281550000Y-60000000D03*
X-283450000Y-60000000D03*
%TD*%
D12*
%TO.C,D83*%
X-132212600Y-6552200D03*
X-132212600Y-9352200D03*
%TD*%
%TO.C,D0*%
X-3750000Y-14562500D03*
X-6550000Y-14562500D03*
%TD*%
D13*
%TO.C,K83*%
X-135159000Y-6860000D03*
X-148621000Y-4320000D03*
D16*
X-147605000Y-9400000D03*
X-137445000Y-9400000D03*
D15*
X-138715000Y-6860000D03*
D14*
X-142525000Y-9400000D03*
D15*
X-145065000Y-4320000D03*
%TD*%
D22*
%TO.C,DL8*%
X-16200000Y-15462500D03*
X-16200000Y-18662500D03*
X-21100000Y-18662500D03*
X-21100000Y-15462500D03*
%TD*%
D13*
%TO.C,K61*%
X-68484000Y-44960000D03*
X-81946000Y-42420000D03*
D16*
X-80930000Y-47500000D03*
D14*
X-75850000Y-47500000D03*
D15*
X-72040000Y-44960000D03*
D16*
X-70770000Y-47500000D03*
D15*
X-78390000Y-42420000D03*
%TD*%
D12*
%TO.C,D17*%
X-236883000Y-32387000D03*
X-239683000Y-32387000D03*
%TD*%
D22*
%TO.C,DL13*%
X-207200000Y-12400000D03*
X-207200000Y-15600000D03*
X-212100000Y-15600000D03*
X-212100000Y-12400000D03*
%TD*%
D13*
%TO.C,K30*%
X-16096500Y-64010000D03*
X-29558500Y-61470000D03*
D16*
X-28542500Y-66550000D03*
D14*
X-23462500Y-66550000D03*
D15*
X-19652500Y-64010000D03*
D16*
X-18382500Y-66550000D03*
D15*
X-26002500Y-61470000D03*
%TD*%
D12*
%TO.C,D7*%
X-226853000Y-9931000D03*
X-229653000Y-9931000D03*
%TD*%
%TO.C,D84*%
X-181948800Y-14429200D03*
X-179148800Y-14429200D03*
%TD*%
D13*
%TO.C,K31*%
X-54196500Y-64010000D03*
X-67658500Y-61470000D03*
D14*
X-61562500Y-66550000D03*
D16*
X-56482500Y-66550000D03*
D15*
X-64102500Y-61470000D03*
D16*
X-66642500Y-66550000D03*
D15*
X-57752500Y-64010000D03*
%TD*%
D27*
%TO.C,R2*%
X-226578500Y-63398000D03*
X-228403500Y-63398000D03*
%TD*%
D12*
%TO.C,D15*%
X-206911000Y-32387000D03*
X-209711000Y-32387000D03*
%TD*%
%TO.C,D73*%
X-155600000Y-31000000D03*
X-158400000Y-31000000D03*
%TD*%
D13*
%TO.C,K46*%
X-197071500Y-83060000D03*
X-210533500Y-80520000D03*
D15*
X-206977500Y-80520000D03*
D14*
X-204437500Y-85600000D03*
D16*
X-209517500Y-85600000D03*
X-199357500Y-85600000D03*
D15*
X-200627500Y-83060000D03*
%TD*%
D12*
%TO.C,D26*%
X-219614000Y-39141000D03*
X-222414000Y-39141000D03*
%TD*%
%TO.C,D21*%
X-54009000Y-50167000D03*
X-51209000Y-50167000D03*
%TD*%
%TO.C,D63*%
X-146160200Y-49760600D03*
X-143360200Y-49760600D03*
%TD*%
D22*
%TO.C,DL7*%
X-41100000Y-55662500D03*
X-41100000Y-52462500D03*
X-36200000Y-52462500D03*
X-36200000Y-55662500D03*
%TD*%
D13*
%TO.C,K36*%
X-242315250Y-64010000D03*
X-255777250Y-61470000D03*
D15*
X-261619250Y-59565000D03*
D14*
X-249681250Y-66550000D03*
D16*
X-254761250Y-66550000D03*
X-244601250Y-66550000D03*
D15*
X-245871250Y-64010000D03*
X-252221250Y-61470000D03*
D14*
X-261619250Y-74805000D03*
D15*
X-237743250Y-59565000D03*
D14*
X-237743250Y-74805000D03*
%TD*%
D12*
%TO.C,D27*%
X-241127800Y-45007800D03*
X-241127800Y-47807800D03*
%TD*%
%TO.C,D72*%
X-112042000Y-31117000D03*
X-114842000Y-31117000D03*
%TD*%
%TO.C,D51*%
X-74707000Y-71780000D03*
X-77507000Y-71780000D03*
%TD*%
D13*
%TO.C,K2*%
X-78009000Y-6860000D03*
X-91471000Y-4320000D03*
D15*
X-87915000Y-4320000D03*
X-81565000Y-6860000D03*
D16*
X-90455000Y-9400000D03*
X-80295000Y-9400000D03*
D14*
X-85375000Y-9400000D03*
%TD*%
D12*
%TO.C,D1*%
X-41404600Y-12295600D03*
X-44204600Y-12295600D03*
%TD*%
D13*
%TO.C,K1*%
X-39909000Y-6860000D03*
X-53371000Y-4320000D03*
D15*
X-43465000Y-6860000D03*
X-49815000Y-4320000D03*
D16*
X-42195000Y-9400000D03*
D14*
X-47275000Y-9400000D03*
D16*
X-52355000Y-9400000D03*
%TD*%
D13*
%TO.C,K26*%
X-220884000Y-44960000D03*
X-234346000Y-42420000D03*
D15*
X-224440000Y-44960000D03*
X-230790000Y-42420000D03*
D14*
X-228250000Y-47500000D03*
D16*
X-233330000Y-47500000D03*
X-223170000Y-47500000D03*
%TD*%
D13*
%TO.C,K44*%
X-158971500Y-83060000D03*
X-172433500Y-80520000D03*
D16*
X-161257500Y-85600000D03*
D14*
X-166337500Y-85600000D03*
D15*
X-162527500Y-83060000D03*
X-168877500Y-80520000D03*
D16*
X-171417500Y-85600000D03*
%TD*%
D28*
%TO.C,C5*%
X-286950000Y-64200000D03*
X-285050000Y-64200000D03*
%TD*%
D22*
%TO.C,DL6*%
X-86100000Y-55662500D03*
X-86100000Y-52462500D03*
X-81200000Y-52462500D03*
X-81200000Y-55662500D03*
%TD*%
D12*
%TO.C,D22*%
X-89188000Y-39268000D03*
X-86388000Y-39268000D03*
%TD*%
%TO.C,D24*%
X-165650000Y-50662500D03*
X-165650000Y-53462500D03*
%TD*%
D13*
%TO.C,K38*%
X-282796500Y-25910000D03*
X-296258500Y-23370000D03*
D15*
X-292702500Y-23370000D03*
D14*
X-290162500Y-28450000D03*
D15*
X-286352500Y-25910000D03*
D16*
X-285082500Y-28450000D03*
X-295242500Y-28450000D03*
%TD*%
D13*
%TO.C,K54*%
X-187546500Y-64010000D03*
X-201008500Y-61470000D03*
D16*
X-199992500Y-66550000D03*
X-189832500Y-66550000D03*
D15*
X-191102500Y-64010000D03*
X-197452500Y-61470000D03*
D14*
X-194912500Y-66550000D03*
%TD*%
D12*
%TO.C,D33*%
X-143650000Y-69662500D03*
X-143650000Y-72462500D03*
%TD*%
D29*
%TO.C,U1*%
X-275000000Y-64378500D03*
X-275500000Y-64378500D03*
X-276000000Y-64378500D03*
X-276500000Y-64378500D03*
X-277000000Y-64378500D03*
X-277500000Y-64378500D03*
X-278000000Y-64378500D03*
X-278500000Y-64378500D03*
X-279000000Y-64378500D03*
X-279500000Y-64378500D03*
X-280000000Y-64378500D03*
D30*
X-280837500Y-65216000D03*
X-280837500Y-65716000D03*
X-280837500Y-66216000D03*
X-280837500Y-66716000D03*
X-280837500Y-67216000D03*
X-280837500Y-67716000D03*
X-280837500Y-68216000D03*
X-280837500Y-68716000D03*
X-280837500Y-69216000D03*
X-280837500Y-69716000D03*
X-280837500Y-70216000D03*
D29*
X-280000000Y-71053500D03*
X-279500000Y-71053500D03*
X-279000000Y-71053500D03*
X-278500000Y-71053500D03*
X-278000000Y-71053500D03*
X-277500000Y-71053500D03*
X-277000000Y-71053500D03*
X-276500000Y-71053500D03*
X-276000000Y-71053500D03*
X-275500000Y-71053500D03*
X-275000000Y-71053500D03*
D30*
X-274162500Y-70216000D03*
X-274162500Y-69716000D03*
X-274162500Y-69216000D03*
X-274162500Y-68716000D03*
X-274162500Y-68216000D03*
X-274162500Y-67716000D03*
X-274162500Y-67216000D03*
X-274162500Y-66716000D03*
X-274162500Y-66216000D03*
X-274162500Y-65716000D03*
X-274162500Y-65216000D03*
D31*
X-277500000Y-67716000D03*
%TD*%
D13*
%TO.C,K51*%
X-73246500Y-64010000D03*
X-86708500Y-61470000D03*
D16*
X-75532500Y-66550000D03*
X-85692500Y-66550000D03*
D15*
X-76802500Y-64010000D03*
X-83152500Y-61470000D03*
D14*
X-80612500Y-66550000D03*
%TD*%
D13*
%TO.C,K53*%
X-149446500Y-64010000D03*
X-162908500Y-61470000D03*
D15*
X-159352500Y-61470000D03*
D16*
X-151732500Y-66550000D03*
D15*
X-153002500Y-64010000D03*
D14*
X-156812500Y-66550000D03*
D16*
X-161892500Y-66550000D03*
%TD*%
D13*
%TO.C,K88*%
X-287559000Y-6860000D03*
X-301021000Y-4320000D03*
D15*
X-291115000Y-6860000D03*
D14*
X-294925000Y-9400000D03*
D16*
X-289845000Y-9400000D03*
D15*
X-297465000Y-4320000D03*
D16*
X-300005000Y-9400000D03*
%TD*%
D13*
%TO.C,K21*%
X-49434000Y-44960000D03*
X-62896000Y-42420000D03*
D15*
X-59340000Y-42420000D03*
D16*
X-51720000Y-47500000D03*
X-61880000Y-47500000D03*
D15*
X-52990000Y-44960000D03*
D14*
X-56800000Y-47500000D03*
%TD*%
D13*
%TO.C,K15*%
X-197071500Y-25910000D03*
X-210533500Y-23370000D03*
D16*
X-199357500Y-28450000D03*
D15*
X-200627500Y-25910000D03*
X-206977500Y-23370000D03*
D14*
X-204437500Y-28450000D03*
D16*
X-209517500Y-28450000D03*
%TD*%
D22*
%TO.C,DL9*%
X-54200000Y-15462500D03*
X-54200000Y-18662500D03*
X-59100000Y-18662500D03*
X-59100000Y-15462500D03*
%TD*%
D23*
%TO.C,C2*%
X-281550000Y-55174000D03*
X-283450000Y-55174000D03*
%TD*%
D12*
%TO.C,D43*%
X-127799000Y-88417000D03*
X-124999000Y-88417000D03*
%TD*%
%TO.C,D13*%
X-131219000Y-32514000D03*
X-134019000Y-32514000D03*
%TD*%
D22*
%TO.C,DL4*%
X-131100000Y-76662500D03*
X-131100000Y-73462500D03*
X-126200000Y-73462500D03*
X-126200000Y-76662500D03*
%TD*%
D13*
%TO.C,K64*%
X-182784000Y-44960000D03*
X-196246000Y-42420000D03*
D15*
X-192690000Y-42420000D03*
D16*
X-185070000Y-47500000D03*
X-195230000Y-47500000D03*
D14*
X-190150000Y-47500000D03*
D15*
X-186340000Y-44960000D03*
%TD*%
D12*
%TO.C,D42*%
X-84873000Y-86385000D03*
X-82073000Y-86385000D03*
%TD*%
D28*
%TO.C,C7*%
X-279266400Y-55219200D03*
X-277366400Y-55219200D03*
%TD*%
D13*
%TO.C,K6*%
X-211359000Y-6860000D03*
X-224821000Y-4320000D03*
D15*
X-221265000Y-4320000D03*
D14*
X-218725000Y-9400000D03*
D15*
X-214915000Y-6860000D03*
D16*
X-223805000Y-9400000D03*
X-213645000Y-9400000D03*
%TD*%
D26*
%TO.C,R1*%
X-109635000Y-90679500D03*
X-109635000Y-92504500D03*
%TD*%
D13*
%TO.C,K33*%
X-130396500Y-64010000D03*
X-143858500Y-61470000D03*
D15*
X-140302500Y-61470000D03*
D16*
X-132682500Y-66550000D03*
D14*
X-137762500Y-66550000D03*
D16*
X-142842500Y-66550000D03*
D15*
X-133952500Y-64010000D03*
%TD*%
D12*
%TO.C,D46*%
X-201840000Y-88798000D03*
X-199040000Y-88798000D03*
%TD*%
D22*
%TO.C,DL11*%
X-130700000Y-12400000D03*
X-130700000Y-15600000D03*
X-135600000Y-15600000D03*
X-135600000Y-12400000D03*
%TD*%
D13*
%TO.C,K35*%
X-206596500Y-64010000D03*
X-220058500Y-61470000D03*
D16*
X-219042500Y-66550000D03*
D14*
X-213962500Y-66550000D03*
D16*
X-208882500Y-66550000D03*
D15*
X-210152500Y-64010000D03*
X-216502500Y-61470000D03*
%TD*%
D13*
%TO.C,K18*%
X-258984000Y-25910000D03*
X-272446000Y-23370000D03*
D15*
X-262540000Y-25910000D03*
X-268890000Y-23370000D03*
D16*
X-271430000Y-28450000D03*
X-261270000Y-28450000D03*
D14*
X-266350000Y-28450000D03*
%TD*%
D22*
%TO.C,DL5*%
X-131100000Y-55662500D03*
X-131100000Y-52462500D03*
X-126200000Y-52462500D03*
X-126200000Y-55662500D03*
%TD*%
D13*
%TO.C,K14*%
X-158971500Y-25910000D03*
X-172433500Y-23370000D03*
D15*
X-168877500Y-23370000D03*
D16*
X-171417500Y-28450000D03*
D14*
X-166337500Y-28450000D03*
D15*
X-162527500Y-25910000D03*
D16*
X-161257500Y-28450000D03*
%TD*%
D32*
%TO.C,SW2*%
X-225837000Y-69407500D03*
X-228837000Y-69407500D03*
D33*
X-223687000Y-70507500D03*
X-223687000Y-68307500D03*
X-230987000Y-70507500D03*
X-230987000Y-68307500D03*
D34*
X-225087000Y-67657500D03*
X-226587000Y-67657500D03*
X-229587000Y-67657500D03*
%TD*%
D22*
%TO.C,DL10*%
X-92550000Y-12400000D03*
X-92550000Y-15600000D03*
X-97450000Y-15600000D03*
X-97450000Y-12400000D03*
%TD*%
D12*
%TO.C,D74*%
X-182406000Y-30990000D03*
X-179606000Y-30990000D03*
%TD*%
%TO.C,D23*%
X-127037000Y-39141000D03*
X-124237000Y-39141000D03*
%TD*%
D13*
%TO.C,K62*%
X-106584000Y-44960000D03*
X-120046000Y-42420000D03*
D16*
X-119030000Y-47500000D03*
D15*
X-110140000Y-44960000D03*
X-116490000Y-42420000D03*
D16*
X-108870000Y-47500000D03*
D14*
X-113950000Y-47500000D03*
%TD*%
D12*
%TO.C,D64*%
X-184441000Y-39014000D03*
X-181641000Y-39014000D03*
%TD*%
D26*
%TO.C,R3*%
X-279431000Y-37443500D03*
X-279431000Y-39268500D03*
%TD*%
D12*
%TO.C,D71*%
X-75974000Y-31752000D03*
X-78774000Y-31752000D03*
%TD*%
%TO.C,D61*%
X-72808000Y-50294000D03*
X-70008000Y-50294000D03*
%TD*%
D13*
%TO.C,K5*%
X-192309000Y-6860000D03*
X-205771000Y-4320000D03*
D15*
X-195865000Y-6860000D03*
D16*
X-194595000Y-9400000D03*
D15*
X-202215000Y-4320000D03*
D14*
X-199675000Y-9400000D03*
D16*
X-204755000Y-9400000D03*
%TD*%
D13*
%TO.C,K4*%
X-154209000Y-6860000D03*
X-167671000Y-4320000D03*
D16*
X-156495000Y-9400000D03*
D14*
X-161575000Y-9400000D03*
D15*
X-164115000Y-4320000D03*
X-157765000Y-6860000D03*
D16*
X-166655000Y-9400000D03*
%TD*%
D13*
%TO.C,K17*%
X-235171500Y-25910000D03*
X-248633500Y-23370000D03*
D16*
X-247617500Y-28450000D03*
D14*
X-242537500Y-28450000D03*
D15*
X-238727500Y-25910000D03*
D16*
X-237457500Y-28450000D03*
D15*
X-245077500Y-23370000D03*
%TD*%
D12*
%TO.C,D45*%
X-179609000Y-88798000D03*
X-182409000Y-88798000D03*
%TD*%
D35*
%TO.C,Y1*%
X-286850000Y-68898000D03*
X-286850000Y-66698000D03*
X-285150000Y-66698000D03*
X-285150000Y-68898000D03*
%TD*%
D12*
%TO.C,D70*%
X-33657600Y-12168600D03*
X-36457600Y-12168600D03*
%TD*%
%TO.C,D52*%
X-109251000Y-66991500D03*
X-109251000Y-69791500D03*
%TD*%
D13*
%TO.C,K50*%
X-30384000Y-44960000D03*
X-43846000Y-42420000D03*
D16*
X-32670000Y-47500000D03*
X-42830000Y-47500000D03*
D15*
X-33940000Y-44960000D03*
D14*
X-37750000Y-47500000D03*
D15*
X-40290000Y-42420000D03*
%TD*%
D12*
%TO.C,D62*%
X-103793000Y-47393000D03*
X-103793000Y-50193000D03*
%TD*%
D13*
%TO.C,K84*%
X-173259000Y-6860000D03*
X-186721000Y-4320000D03*
D14*
X-180625000Y-9400000D03*
D15*
X-176815000Y-6860000D03*
D16*
X-185705000Y-9400000D03*
X-175545000Y-9400000D03*
D15*
X-183165000Y-4320000D03*
%TD*%
D13*
%TO.C,K25*%
X-201834000Y-44960000D03*
X-215296000Y-42420000D03*
D15*
X-205390000Y-44960000D03*
X-211740000Y-42420000D03*
D16*
X-204120000Y-47500000D03*
X-214280000Y-47500000D03*
D14*
X-209200000Y-47500000D03*
%TD*%
D13*
%TO.C,K71*%
X-63721500Y-25910000D03*
X-77183500Y-23370000D03*
D15*
X-73627500Y-23370000D03*
D16*
X-76167500Y-28450000D03*
X-66007500Y-28450000D03*
D15*
X-67277500Y-25910000D03*
D14*
X-71087500Y-28450000D03*
%TD*%
D12*
%TO.C,D36*%
X-244125000Y-71780000D03*
X-246925000Y-71780000D03*
%TD*%
%TO.C,D12*%
X-82500000Y-29700000D03*
X-82500000Y-32500000D03*
%TD*%
D13*
%TO.C,K0*%
X-1809000Y-6860000D03*
X-15271000Y-4320000D03*
D14*
X-9175000Y-9400000D03*
D16*
X-4095000Y-9400000D03*
X-14255000Y-9400000D03*
D15*
X-11715000Y-4320000D03*
X-5365000Y-6860000D03*
%TD*%
D23*
%TO.C,C1*%
X-281550000Y-52761000D03*
X-283450000Y-52761000D03*
%TD*%
D12*
%TO.C,D32*%
X-94141000Y-68729000D03*
X-94141000Y-71529000D03*
%TD*%
D13*
%TO.C,K20*%
X-11334000Y-44960000D03*
X-24796000Y-42420000D03*
D15*
X-21240000Y-42420000D03*
D16*
X-13620000Y-47500000D03*
X-23780000Y-47500000D03*
D15*
X-14890000Y-44960000D03*
D14*
X-18700000Y-47500000D03*
%TD*%
D23*
%TO.C,C6*%
X-285050000Y-71400000D03*
X-286950000Y-71400000D03*
%TD*%
M02*
