999
"DXF R12 Output" (www.mydxf.blogspot.com)
 0 
SECTION
 2 
HEADER
 9 
$ACADVER
 1 
AC1009
 9 
$EXTMIN
 10 
 0 
 20 
 0 
 9 
$EXTMAX
 10 
 8.5 
 20 
 11 
 0 
ENDSEC
 0 
SECTION
 2 
ENTITIES
0
LINE
8
Layer 1
10
208.297000
20
-60.902100
11
209.603900
21
-62.547234
0
LINE
8
Layer 1
10
209.603900
20
-62.547234
11
211.333578
21
-63.899663
0
LINE
8
Layer 1
10
211.333578
20
-63.899663
11
213.377623
21
-64.984247
0
LINE
8
Layer 1
10
213.377623
20
-64.984247
11
215.627625
21
-65.825850
0
LINE
8
Layer 1
10
215.627625
20
-65.825850
11
217.975174
21
-66.449334
0
LINE
8
Layer 1
10
217.975174
20
-66.449334
11
220.311859
21
-66.879563
0
LINE
8
Layer 1
10
220.311859
20
-66.879563
11
224.519000
21
-67.259700
0
LINE
8
Layer 1
10
224.519000
20
-67.259700
11
229.856313
21
-67.535027
0
LINE
8
Layer 1
10
229.856313
20
-67.535027
11
233.000656
21
-67.647816
0
LINE
8
Layer 1
10
233.000656
20
-67.647816
11
236.423250
21
-67.630513
0
LINE
8
Layer 1
10
236.423250
20
-67.630513
11
240.094937
21
-67.397982
0
LINE
8
Layer 1
10
240.094937
20
-67.397982
11
243.986562
21
-66.865092
0
LINE
8
Layer 1
10
243.986562
20
-66.865092
11
248.068969
21
-65.946709
0
LINE
8
Layer 1
10
248.068969
20
-65.946709
11
252.313000
21
-64.557700
0
LINE
8
Layer 1
10
252.313000
20
-64.557700
11
253.998036
21
-63.772981
0
LINE
8
Layer 1
10
253.998036
20
-63.772981
11
255.401521
21
-62.833982
0
LINE
8
Layer 1
10
255.401521
20
-62.833982
11
256.546149
21
-61.756657
0
LINE
8
Layer 1
10
256.546149
20
-61.756657
11
257.454609
21
-60.556956
0
LINE
8
Layer 1
10
257.454609
20
-60.556956
11
258.149595
21
-59.250833
0
LINE
8
Layer 1
10
258.149595
20
-59.250833
11
258.653799
21
-57.854240
0
LINE
8
Layer 1
10
258.653799
20
-57.854240
11
258.989911
21
-56.383128
0
LINE
8
Layer 1
10
258.989911
20
-56.383128
11
259.180625
21
-54.853450
0
LINE
8
Layer 1
10
259.180625
20
-54.853450
11
259.216623
21
-51.682204
0
LINE
8
Layer 1
10
259.216623
20
-51.682204
11
258.943328
21
-48.468119
0
LINE
8
Layer 1
10
258.943328
20
-48.468119
11
258.195000
21
-42.421900
0
LINE
8
Layer 1
10
261.611000
20
-38.037600
11
262.881768
21
-38.005110
0
LINE
8
Layer 1
10
262.881768
20
-38.005110
11
263.890328
21
-38.165358
0
LINE
8
Layer 1
10
263.890328
20
-38.165358
11
264.666693
21
-38.488329
0
LINE
8
Layer 1
10
264.666693
20
-38.488329
11
265.240875
21
-38.944012
0
LINE
8
Layer 1
10
265.240875
20
-38.944012
11
265.642885
21
-39.502394
0
LINE
8
Layer 1
10
265.642885
20
-39.502394
11
265.902734
21
-40.133461
0
LINE
8
Layer 1
10
265.902734
20
-40.133461
11
266.116000
21
-41.493600
0
LINE
8
Layer 1
10
266.116000
20
-41.493600
11
266.019520
21
-42.176203
0
LINE
8
Layer 1
10
266.019520
20
-42.176203
11
265.690469
21
-42.846895
0
LINE
8
Layer 1
10
265.690469
20
-42.846895
11
264.515500
21
-44.081663
0
LINE
8
Layer 1
10
264.515500
20
-44.081663
11
262.952781
21
-45.056123
0
LINE
8
Layer 1
10
262.952781
20
-45.056123
11
261.364000
21
-45.628500
0
LINE
8
Layer 1
10
229.897000
20
-45.248000
11
230.024219
21
-44.743180
0
LINE
8
Layer 1
10
230.024219
20
-44.743180
11
230.174500
21
-43.431238
0
LINE
8
Layer 1
10
230.174500
20
-43.431238
11
230.000781
21
-41.615952
0
LINE
8
Layer 1
10
230.000781
20
-41.615952
11
229.683965
21
-40.614485
0
LINE
8
Layer 1
10
229.683965
20
-40.614485
11
229.156000
21
-39.601100
0
LINE
8
Layer 1
10
229.156000
20
-39.601100
11
228.495674
21
-38.701620
0
LINE
8
Layer 1
10
228.495674
20
-38.701620
11
227.813328
21
-38.012842
0
LINE
8
Layer 1
10
227.813328
20
-38.012842
11
227.112912
21
-37.529196
0
LINE
8
Layer 1
10
227.112912
20
-37.529196
11
226.398375
21
-37.245113
0
LINE
8
Layer 1
10
226.398375
20
-37.245113
11
225.673666
21
-37.155021
0
LINE
8
Layer 1
10
225.673666
20
-37.155021
11
224.942734
21
-37.253352
0
LINE
8
Layer 1
10
224.942734
20
-37.253352
11
224.209529
21
-37.534535
0
LINE
8
Layer 1
10
224.209529
20
-37.534535
11
223.478000
21
-37.993000
0
LINE
8
Layer 1
10
223.478000
20
-37.993000
11
222.822262
21
-38.632064
0
LINE
8
Layer 1
10
222.822262
20
-38.632064
11
222.328219
21
-39.424534
0
LINE
8
Layer 1
10
222.328219
20
-39.424534
11
222.018629
21
-40.318737
0
LINE
8
Layer 1
10
222.018629
20
-40.318737
11
221.916250
21
-41.263000
0
LINE
8
Layer 1
10
221.916250
20
-41.263000
11
222.043840
21
-42.205650
0
LINE
8
Layer 1
10
222.043840
20
-42.205650
11
222.424156
21
-43.095016
0
LINE
8
Layer 1
10
222.424156
20
-43.095016
11
223.079957
21
-43.879423
0
LINE
8
Layer 1
10
223.079957
20
-43.879423
11
224.034000
21
-44.507200
0
LINE
8
Layer 1
10
224.034000
20
-44.507200
11
225.136344
21
-44.946612
0
LINE
8
Layer 1
10
225.136344
20
-44.946612
11
226.199688
21
-45.221844
0
LINE
8
Layer 1
10
226.199688
20
-45.221844
11
228.076250
21
-45.409950
0
LINE
8
Layer 1
10
228.076250
20
-45.409950
11
229.397438
21
-45.331881
0
LINE
8
Layer 1
10
229.397438
20
-45.331881
11
229.897000
21
-45.248000
0
LINE
8
Layer 1
10
217.275000
20
-65.429200
11
217.042891
21
-66.713605
0
LINE
8
Layer 1
10
217.042891
20
-66.713605
11
216.917092
21
-68.031425
0
LINE
8
Layer 1
10
216.917092
20
-68.031425
11
216.930875
21
-69.543937
0
LINE
8
Layer 1
10
216.930875
20
-69.543937
11
217.193799
21
-71.059351
0
LINE
8
Layer 1
10
217.193799
20
-71.059351
11
217.815422
21
-72.385877
0
LINE
8
Layer 1
10
217.815422
20
-72.385877
11
218.294983
21
-72.918371
0
LINE
8
Layer 1
10
218.294983
20
-72.918371
11
218.905303
21
-73.331723
0
LINE
8
Layer 1
10
218.905303
20
-73.331723
11
219.660077
21
-73.601957
0
LINE
8
Layer 1
10
219.660077
20
-73.601957
11
220.573000
21
-73.705100
0
LINE
8
Layer 1
10
220.573000
20
-73.705100
11
221.495574
21
-73.629042
0
LINE
8
Layer 1
10
221.495574
20
-73.629042
11
222.277965
21
-73.392873
0
LINE
8
Layer 1
10
222.277965
20
-73.392873
11
222.931303
21
-73.019363
0
LINE
8
Layer 1
10
222.931303
20
-73.019363
11
223.466719
21
-72.531281
0
LINE
8
Layer 1
10
223.466719
20
-72.531281
11
224.228301
21
-71.302480
0
LINE
8
Layer 1
10
224.228301
20
-71.302480
11
224.651750
21
-69.888625
0
LINE
8
Layer 1
10
224.651750
20
-69.888625
11
224.826105
21
-68.471873
0
LINE
8
Layer 1
10
224.826105
20
-68.471873
11
224.840406
21
-67.234381
0
LINE
8
Layer 1
10
224.840406
20
-67.234381
11
224.745000
21
-66.025800
0
LINE
8
Layer 1
10
223.920000
20
-72.179600
11
224.051125
21
-72.395097
0
LINE
8
Layer 1
10
224.051125
20
-72.395097
11
224.515250
21
-72.881400
0
LINE
8
Layer 1
10
224.515250
20
-72.881400
11
225.418500
21
-73.398228
0
LINE
8
Layer 1
10
225.418500
20
-73.398228
11
226.867000
21
-73.705300
0
LINE
8
Layer 1
10
226.867000
20
-73.705300
11
227.581526
21
-73.685131
0
LINE
8
Layer 1
10
227.581526
20
-73.685131
11
228.202127
21
-73.530912
0
LINE
8
Layer 1
10
228.202127
20
-73.530912
11
229.187953
21
-72.895030
0
LINE
8
Layer 1
10
229.187953
20
-72.895030
11
229.877271
21
-71.947060
0
LINE
8
Layer 1
10
229.877271
20
-71.947060
11
230.322875
21
-70.836412
0
LINE
8
Layer 1
10
230.322875
20
-70.836412
11
230.694109
21
-68.724714
0
LINE
8
Layer 1
10
230.694109
20
-68.724714
11
230.724000
21
-67.755200
0
LINE
8
Layer 1
10
236.208000
20
-29.732300
11
234.529125
21
-31.164275
0
LINE
8
Layer 1
10
234.529125
20
-31.164275
11
233.034000
21
-32.862500
0
LINE
8
Layer 1
10
245.903000
20
-32.024500
11
249.953000
21
-31.980200
0
LINE
8
Layer 1
10
213.986000
20
-38.354200
11
216.649000
21
-40.907200
0
LINE
8
Layer 1
10
208.226000
20
-50.355400
11
212.511000
21
-50.288800
0
LINE
8
Layer 1
10
250.428000
20
-65.429200
11
250.876250
21
-66.457858
0
LINE
8
Layer 1
10
250.876250
20
-66.457858
11
251.548750
21
-68.821488
0
LINE
8
Layer 1
10
251.548750
20
-68.821488
11
251.653977
21
-70.165318
0
LINE
8
Layer 1
10
251.653977
20
-70.165318
11
251.437125
21
-71.436573
0
LINE
8
Layer 1
10
251.437125
20
-71.436573
11
251.168530
21
-72.002660
0
LINE
8
Layer 1
10
251.168530
20
-72.002660
11
250.772148
21
-72.499814
0
LINE
8
Layer 1
10
250.772148
20
-72.499814
11
250.232224
21
-72.911104
0
LINE
8
Layer 1
10
250.232224
20
-72.911104
11
249.533000
21
-73.219600
0
LINE
8
Layer 1
10
249.533000
20
-73.219600
11
248.696531
21
-73.309733
0
LINE
8
Layer 1
10
248.696531
20
-73.309733
11
247.857207
21
-73.239581
0
LINE
8
Layer 1
10
247.857207
20
-73.239581
11
246.920500
21
-72.930113
0
LINE
8
Layer 1
10
246.920500
20
-72.930113
11
246.023918
21
-72.259449
0
LINE
8
Layer 1
10
246.023918
20
-72.259449
11
245.304969
21
-71.105711
0
LINE
8
Layer 1
10
245.304969
20
-71.105711
11
244.901160
21
-69.347021
0
LINE
8
Layer 1
10
244.901160
20
-69.347021
11
244.950000
21
-66.861500
0
LINE
8
Layer 1
10
236.324000
20
-68.444200
11
237.143594
21
-70.110230
0
LINE
8
Layer 1
10
237.143594
20
-70.110230
11
238.414500
21
-72.106138
0
LINE
8
Layer 1
10
238.414500
20
-72.106138
11
239.196051
21
-72.963664
0
LINE
8
Layer 1
10
239.196051
20
-72.963664
11
240.062656
21
-73.586702
0
LINE
8
Layer 1
10
240.062656
20
-73.586702
11
241.005059
21
-73.869598
0
LINE
8
Layer 1
10
241.005059
20
-73.869598
11
242.014000
21
-73.706700
0
LINE
8
Layer 1
10
242.014000
20
-73.706700
11
243.036750
21
-73.046887
0
LINE
8
Layer 1
10
243.036750
20
-73.046887
11
243.866000
21
-72.236100
0
LINE
8
Layer 1
10
243.866000
20
-72.236100
11
244.671812
21
-71.087417
0
LINE
8
Layer 1
10
244.671812
20
-71.087417
11
245.094188
21
-69.979358
0
LINE
8
Layer 1
10
245.094188
20
-69.979358
11
245.188156
21
-68.908341
0
LINE
8
Layer 1
10
245.188156
20
-68.908341
11
245.008750
21
-67.870788
0
LINE
8
Layer 1
10
245.008750
20
-67.870788
11
244.611000
21
-66.863117
0
LINE
8
Layer 1
10
244.611000
20
-66.863117
11
244.049937
21
-65.881748
0
LINE
8
Layer 1
10
244.049937
20
-65.881748
11
242.658000
21
-63.983600
0
LINE
8
Layer 1
10
243.449000
20
-46.777100
11
243.760125
21
-46.484225
0
LINE
8
Layer 1
10
243.760125
20
-46.484225
11
244.174000
21
-46.377800
0
LINE
8
Layer 1
10
244.174000
20
-46.377800
11
244.588250
21
-46.484225
0
LINE
8
Layer 1
10
244.588250
20
-46.484225
11
244.899000
21
-46.777100
0
LINE
8
Layer 1
10
244.899000
20
-46.777100
11
245.338000
21
-47.471700
0
LINE
8
Layer 1
10
245.338000
20
-47.471700
11
245.469000
21
-47.902338
0
LINE
8
Layer 1
10
245.469000
20
-47.902338
11
245.363000
21
-48.339800
0
LINE
8
Layer 1
10
245.363000
20
-48.339800
11
245.048375
21
-48.662612
0
LINE
8
Layer 1
10
245.048375
20
-48.662612
11
244.613000
21
-48.781200
0
LINE
8
Layer 1
10
244.613000
20
-48.781200
11
243.736000
21
-48.781200
0
LINE
8
Layer 1
10
243.736000
20
-48.781200
11
243.300250
21
-48.662612
0
LINE
8
Layer 1
10
243.300250
20
-48.662612
11
242.986000
21
-48.339800
0
LINE
8
Layer 1
10
242.986000
20
-48.339800
11
242.879125
21
-47.902338
0
LINE
8
Layer 1
10
242.879125
20
-47.902338
11
243.010000
21
-47.471700
0
LINE
8
Layer 1
10
243.010000
20
-47.471700
11
243.449000
21
-46.777100
0
LINE
8
Layer 1
10
243.449000
20
-46.777100
11
243.449000
21
-46.777100
0
LINE
8
Layer 1
10
252.853000
20
-46.005800
11
252.789000
21
-48.830900
0
LINE
8
Layer 1
10
235.375000
20
-46.005800
11
235.375000
21
-48.830900
0
LINE
8
Layer 1
10
240.588000
20
-50.083600
11
240.607438
21
-50.434112
0
LINE
8
Layer 1
10
240.607438
20
-50.434112
11
240.919000
21
-51.198550
0
LINE
8
Layer 1
10
240.919000
20
-51.198550
11
241.303039
21
-51.601412
0
LINE
8
Layer 1
10
241.303039
20
-51.601412
11
241.902563
21
-51.946263
0
LINE
8
Layer 1
10
241.902563
20
-51.946263
11
242.765055
21
-52.179269
0
LINE
8
Layer 1
10
242.765055
20
-52.179269
11
243.938000
21
-52.246600
0
LINE
8
Layer 1
10
243.938000
20
-52.246600
11
245.094359
21
-52.121491
0
LINE
8
Layer 1
10
245.094359
20
-52.121491
11
245.913125
21
-51.847156
0
LINE
8
Layer 1
10
245.913125
20
-51.847156
11
246.450828
21
-51.474730
0
LINE
8
Layer 1
10
246.450828
20
-51.474730
11
246.764000
21
-51.055350
0
LINE
8
Layer 1
10
246.764000
20
-51.055350
11
246.942875
21
-50.280269
0
LINE
8
Layer 1
10
246.942875
20
-50.280269
11
246.902000
21
-49.931000
0
LINE
8
Layer 1
10
230.178000
20
-42.369400
11
232.910500
21
-40.536217
0
LINE
8
Layer 1
10
232.910500
20
-40.536217
11
234.424523
21
-39.765828
0
LINE
8
Layer 1
10
234.424523
20
-39.765828
11
236.030750
21
-39.131087
0
LINE
8
Layer 1
10
236.030750
20
-39.131087
11
237.724445
21
-38.660629
0
LINE
8
Layer 1
10
237.724445
20
-38.660629
11
239.500875
21
-38.383089
0
LINE
8
Layer 1
10
239.500875
20
-38.383089
11
241.355305
21
-38.327101
0
LINE
8
Layer 1
10
241.355305
20
-38.327101
11
243.283000
21
-38.521300
0
LINE
8
Layer 1
10
243.283000
20
-38.521300
11
250.640859
21
-40.001116
0
LINE
8
Layer 1
10
250.640859
20
-40.001116
11
255.636125
21
-41.381200
0
LINE
8
Layer 1
10
255.636125
20
-41.381200
11
258.479078
21
-42.400609
0
LINE
8
Layer 1
10
258.479078
20
-42.400609
11
259.380000
21
-42.798400
0
LINE
8
Layer 1
10
259.380000
20
-42.798400
11
260.504000
21
-38.989650
0
LINE
8
Layer 1
10
260.504000
20
-38.989650
11
261.202500
21
-36.007984
0
LINE
8
Layer 1
10
261.202500
20
-36.007984
11
261.379812
21
-34.766783
0
LINE
8
Layer 1
10
261.379812
20
-34.766783
11
261.364000
21
-33.889700
0
LINE
8
Layer 1
10
261.364000
20
-33.889700
11
261.104982
21
-33.422050
0
LINE
8
Layer 1
10
261.104982
20
-33.422050
11
260.601922
21
-33.070256
0
LINE
8
Layer 1
10
260.601922
20
-33.070256
11
259.207125
21
-32.648275
0
LINE
8
Layer 1
10
259.207125
20
-32.648275
11
257.267000
21
-32.469000
0
LINE
8
Layer 1
10
257.267000
20
-32.469000
11
259.601250
21
-28.419750
0
LINE
8
Layer 1
10
259.601250
20
-28.419750
11
261.045313
21
-25.419806
0
LINE
8
Layer 1
10
261.045313
20
-25.419806
11
261.406734
21
-24.277310
0
LINE
8
Layer 1
10
261.406734
20
-24.277310
11
261.364000
21
-23.602200
0
LINE
8
Layer 1
10
261.364000
20
-23.602200
11
260.772641
21
-23.424785
0
LINE
8
Layer 1
10
260.772641
20
-23.424785
11
259.687687
21
-23.594644
0
LINE
8
Layer 1
10
259.687687
20
-23.594644
11
256.742750
21
-24.577200
0
LINE
8
Layer 1
10
256.742750
20
-24.577200
11
252.693000
21
-26.320800
0
LINE
8
Layer 1
10
252.693000
20
-26.320800
11
253.286125
21
-23.384587
0
LINE
8
Layer 1
10
253.286125
20
-23.384587
11
253.403859
21
-21.282895
0
LINE
8
Layer 1
10
253.403859
20
-21.282895
11
253.236115
21
-20.531153
0
LINE
8
Layer 1
10
253.236115
20
-20.531153
11
252.848000
21
-20.153100
0
LINE
8
Layer 1
10
252.848000
20
-20.153100
11
252.092402
21
-20.203583
0
LINE
8
Layer 1
10
252.092402
20
-20.203583
11
250.955219
21
-20.581617
0
LINE
8
Layer 1
10
250.955219
20
-20.581617
11
248.130750
21
-21.908212
0
LINE
8
Layer 1
10
248.130750
20
-21.908212
11
244.444000
21
-23.958600
0
LINE
8
Layer 1
10
244.444000
20
-23.958600
11
241.666000
21
-21.565100
0
LINE
8
Layer 1
10
241.666000
20
-21.565100
11
239.456594
21
-19.942181
0
LINE
8
Layer 1
10
239.456594
20
-19.942181
11
238.515191
21
-19.423459
0
LINE
8
Layer 1
10
238.515191
20
-19.423459
11
237.823000
21
-19.252000
0
LINE
8
Layer 1
10
237.823000
20
-19.252000
11
237.334123
21
-19.512764
0
LINE
8
Layer 1
10
237.334123
20
-19.512764
11
236.928109
21
-20.133352
0
LINE
8
Layer 1
10
236.928109
20
-20.133352
11
236.342875
21
-21.967512
0
LINE
8
Layer 1
10
236.342875
20
-21.967512
11
235.927000
21
-24.602400
0
LINE
8
Layer 1
10
235.927000
20
-24.602400
11
234.951000
21
-22.267312
0
LINE
8
Layer 1
10
234.951000
20
-22.267312
11
233.929844
21
-20.651752
0
LINE
8
Layer 1
10
233.929844
20
-20.651752
11
233.343973
21
-20.112096
0
LINE
8
Layer 1
10
233.343973
20
-20.112096
11
232.730000
21
-19.896000
0
LINE
8
Layer 1
10
232.730000
20
-19.896000
11
231.962342
21
-20.071847
0
LINE
8
Layer 1
10
231.962342
20
-20.071847
11
230.971922
21
-20.565617
0
LINE
8
Layer 1
10
230.971922
20
-20.565617
11
228.723625
21
-22.086062
0
LINE
8
Layer 1
10
228.723625
20
-22.086062
11
225.963000
21
-24.312500
0
LINE
8
Layer 1
10
225.963000
20
-24.312500
11
224.969531
21
-23.404741
0
LINE
8
Layer 1
10
224.969531
20
-23.404741
11
222.657000
21
-21.457050
0
LINE
8
Layer 1
10
222.657000
20
-21.457050
11
220.027219
21
-19.632809
0
LINE
8
Layer 1
10
220.027219
20
-19.632809
11
218.906426
21
-19.130539
0
LINE
8
Layer 1
10
218.906426
20
-19.130539
11
218.082000
21
-19.095400
0
LINE
8
Layer 1
10
218.082000
20
-19.095400
11
217.498299
21
-19.678220
0
LINE
8
Layer 1
10
217.498299
20
-19.678220
11
217.012766
21
-20.805302
0
LINE
8
Layer 1
10
217.012766
20
-20.805302
11
216.311125
21
-23.925438
0
LINE
8
Layer 1
10
216.311125
20
-23.925438
11
215.926922
21
-26.922180
0
LINE
8
Layer 1
10
215.926922
20
-26.922180
11
215.810000
21
-28.261900
0
LINE
8
Layer 1
10
215.810000
20
-28.261900
11
211.186250
21
-27.530425
0
LINE
8
Layer 1
10
211.186250
20
-27.530425
11
207.735313
21
-27.184938
0
LINE
8
Layer 1
10
207.735313
20
-27.184938
11
206.404297
21
-27.183173
0
LINE
8
Layer 1
10
206.404297
20
-27.183173
11
205.595000
21
-27.358600
0
LINE
8
Layer 1
10
205.595000
20
-27.358600
11
205.331264
21
-27.804139
0
LINE
8
Layer 1
10
205.331264
20
-27.804139
11
205.437922
21
-28.514363
0
LINE
8
Layer 1
10
205.437922
20
-28.514363
11
206.349125
21
-30.329300
0
LINE
8
Layer 1
10
206.349125
20
-30.329300
11
208.070000
21
-32.740200
0
LINE
8
Layer 1
10
208.070000
20
-32.740200
11
202.716625
21
-32.499275
0
LINE
8
Layer 1
10
202.716625
20
-32.499275
11
198.848234
21
-32.584022
0
LINE
8
Layer 1
10
198.848234
20
-32.584022
11
197.439584
21
-32.790253
0
LINE
8
Layer 1
10
197.439584
20
-32.790253
11
196.695000
21
-33.148600
0
LINE
8
Layer 1
10
196.695000
20
-33.148600
11
196.616075
21
-33.419669
0
LINE
8
Layer 1
10
196.616075
20
-33.419669
11
196.698660
21
-33.778003
0
LINE
8
Layer 1
10
196.698660
20
-33.778003
11
197.262031
21
-34.698648
0
LINE
8
Layer 1
10
197.262031
20
-34.698648
11
199.377250
21
-36.951138
0
LINE
8
Layer 1
10
199.377250
20
-36.951138
11
202.727000
21
-39.863200
0
LINE
8
Layer 1
10
202.727000
20
-39.863200
11
199.336000
21
-40.880238
0
LINE
8
Layer 1
10
199.336000
20
-40.880238
11
196.930437
21
-41.850273
0
LINE
8
Layer 1
10
196.930437
20
-41.850273
11
196.084820
21
-42.362803
0
LINE
8
Layer 1
10
196.084820
20
-42.362803
11
195.681000
21
-42.860200
0
LINE
8
Layer 1
10
195.681000
20
-42.860200
11
195.791988
21
-43.431161
0
LINE
8
Layer 1
10
195.791988
20
-43.431161
11
196.303594
21
-44.137508
0
LINE
8
Layer 1
10
196.303594
20
-44.137508
11
198.016500
21
-45.695588
0
LINE
8
Layer 1
10
198.016500
20
-45.695588
11
200.616000
21
-47.567900
0
LINE
8
Layer 1
10
200.616000
20
-47.567900
11
197.551375
21
-49.973750
0
LINE
8
Layer 1
10
197.551375
20
-49.973750
11
195.474609
21
-51.924519
0
LINE
8
Layer 1
10
195.474609
20
-51.924519
11
194.811701
21
-52.778705
0
LINE
8
Layer 1
10
194.811701
20
-52.778705
11
194.594000
21
-53.434700
0
LINE
8
Layer 1
10
194.594000
20
-53.434700
11
194.931055
21
-53.949244
0
LINE
8
Layer 1
10
194.931055
20
-53.949244
11
195.730063
21
-54.430455
0
LINE
8
Layer 1
10
195.730063
20
-54.430455
11
198.089000
21
-55.249387
0
LINE
8
Layer 1
10
198.089000
20
-55.249387
11
201.476000
21
-56.008900
0
LINE
8
Layer 1
10
201.476000
20
-56.008900
11
200.369500
21
-59.273350
0
LINE
8
Layer 1
10
200.369500
20
-59.273350
11
199.580938
21
-61.789600
0
LINE
8
Layer 1
10
199.580938
20
-61.789600
11
199.164000
21
-63.504700
0
LINE
8
Layer 1
10
199.164000
20
-63.504700
11
199.379875
21
-63.757506
0
LINE
8
Layer 1
10
199.379875
20
-63.757506
11
199.905500
21
-63.815650
0
LINE
8
Layer 1
10
199.905500
20
-63.815650
11
200.686000
21
-63.743500
0
LINE
8
Layer 1
10
200.686000
20
-63.743500
11
202.971531
21
-62.911578
0
LINE
8
Layer 1
10
202.971531
20
-62.911578
11
208.427500
21
-60.622800
0
LINE
8
Layer 1
10
208.427500
20
-60.622800
11
211.687855
21
-59.029115
0
LINE
8
Layer 1
10
211.687855
20
-59.029115
11
214.952969
21
-57.187647
0
LINE
8
Layer 1
10
214.952969
20
-57.187647
11
217.960223
21
-55.137205
0
LINE
8
Layer 1
10
217.960223
20
-55.137205
11
220.447000
21
-52.916600
0
LINE
8
Layer 1
10
220.447000
20
-52.916600
11
227.150000
21
-45.410000
0
LINE
8
Layer 1
10
256.109000
20
-24.785500
11
257.169250
21
-22.590288
0
LINE
8
Layer 1
10
257.169250
20
-22.590288
11
257.806625
21
-21.002083
0
LINE
8
Layer 1
10
257.806625
20
-21.002083
11
257.951477
21
-20.422442
0
LINE
8
Layer 1
10
257.951477
20
-20.422442
11
257.904000
21
-20.114200
0
LINE
8
Layer 1
10
257.904000
20
-20.114200
11
257.590877
21
-20.110735
0
LINE
8
Layer 1
10
257.590877
20
-20.110735
11
257.034766
21
-20.334784
0
LINE
8
Layer 1
10
257.034766
20
-20.334784
11
255.544625
21
-21.185500
0
LINE
8
Layer 1
10
255.544625
20
-21.185500
11
253.510000
21
-22.537900
0
LINE
8
Layer 1
10
247.738000
20
-21.949500
11
248.923750
21
-19.810163
0
LINE
8
Layer 1
10
248.923750
20
-19.810163
11
249.495531
21
-18.297033
0
LINE
8
Layer 1
10
249.495531
20
-18.297033
11
249.510613
21
-17.768240
0
LINE
8
Layer 1
10
249.510613
20
-17.768240
11
249.244000
21
-17.520300
0
LINE
8
Layer 1
10
249.244000
20
-17.520300
11
248.550320
21
-17.601359
0
LINE
8
Layer 1
10
248.550320
20
-17.601359
11
247.439500
21
-17.939741
0
LINE
8
Layer 1
10
247.439500
20
-17.939741
11
244.594750
21
-19.057900
0
LINE
8
Layer 1
10
244.594750
20
-19.057900
11
240.811000
21
-20.745800
0
LINE
8
Layer 1
10
228.018000
20
-22.618100
11
227.994000
21
-19.623325
0
LINE
8
Layer 1
10
227.994000
20
-19.623325
11
227.724375
21
-17.476372
0
LINE
8
Layer 1
10
227.724375
20
-17.476372
11
227.455266
21
-16.706154
0
LINE
8
Layer 1
10
227.455266
20
-16.706154
11
227.070000
21
-16.315500
0
LINE
8
Layer 1
10
227.070000
20
-16.315500
11
226.456871
21
-16.358886
0
LINE
8
Layer 1
10
226.456871
20
-16.358886
11
225.587031
21
-16.732956
0
LINE
8
Layer 1
10
225.587031
20
-16.732956
11
223.494500
21
-18.058325
0
LINE
8
Layer 1
10
223.494500
20
-18.058325
11
220.819000
21
-20.114200
0
LINE
8
Layer 1
10
210.749000
20
-27.466600
11
209.255875
21
-24.076162
0
LINE
8
Layer 1
10
209.255875
20
-24.076162
11
208.428266
21
-21.574736
0
LINE
8
Layer 1
10
208.428266
20
-21.574736
11
208.297182
21
-20.628985
0
LINE
8
Layer 1
10
208.297182
20
-20.628985
11
208.470000
21
-20.079500
0
LINE
8
Layer 1
10
208.470000
20
-20.079500
11
209.081328
21
-19.956596
0
LINE
8
Layer 1
10
209.081328
20
-19.956596
11
210.106938
21
-20.135281
0
LINE
8
Layer 1
10
210.106938
20
-20.135281
11
212.789750
21
-21.045800
0
LINE
8
Layer 1
10
212.789750
20
-21.045800
11
216.403000
21
-22.618100
0
LINE
8
Layer 1
10
199.484000
20
-37.015100
11
197.497375
21
-37.253150
0
LINE
8
Layer 1
10
197.497375
20
-37.253150
11
196.059641
21
-37.584209
0
LINE
8
Layer 1
10
196.059641
20
-37.584209
11
195.534619
21
-37.812518
0
LINE
8
Layer 1
10
195.534619
20
-37.812518
11
195.255000
21
-38.086400
0
LINE
8
Layer 1
10
195.255000
20
-38.086400
11
195.233551
21
-38.465104
0
LINE
8
Layer 1
10
195.233551
20
-38.465104
11
195.389781
21
-38.969948
0
LINE
8
Layer 1
10
195.389781
20
-38.969948
11
196.019750
21
-40.140287
0
LINE
8
Layer 1
10
196.019750
20
-40.140287
11
197.041000
21
-41.599200
 0 
ENDSEC
 0 
EOF