<?xml version="1.0" encoding="UTF-8" standalone="no"?>
<!DOCTYPE svg PUBLIC "-//W3C//DTD SVG 1.1//EN" "http://www.w3.org/Graphics/SVG/1.1/DTD/svg11.dtd">
<svg width="100%" height="100%" viewBox="0 0 189 148" version="1.1" xmlns="http://www.w3.org/2000/svg" xmlns:xlink="http://www.w3.org/1999/xlink" xml:space="preserve" xmlns:serif="http://www.serif.com/" style="fill-rule:evenodd;clip-rule:evenodd;stroke-linecap:round;stroke-linejoin:round;stroke-miterlimit:1.5;">
    <g transform="matrix(1.2247,0,0,1.2247,5.50625,0.393074)">
        <g id="Body" transform="matrix(0.573358,0,0,0.573358,-395.329,-117.944)">
            <path d="M738.061,363.795C748.072,380.801 778.156,385.804 795.542,386.322C817.484,386.975 853.252,392.364 894.022,376.748C928.671,363.477 917.322,324.47 914.865,298.314" style="fill:none;stroke:black;stroke-width:1.11px;"/>
            <path d="M926.969,282.779C940.308,281.467 942.604,288.574 942.932,295.025C943.26,301.475 933.092,308.145 926.094,309.676" style="fill:none;stroke:black;stroke-width:1.11px;"/>
            <path d="M814.595,308.328C814.595,308.328 818.094,297.831 811.971,288.319C805.849,278.807 798.742,277.469 791.853,282.621C784.965,287.772 783.325,300.674 793.821,305.703C804.318,310.733 814.595,308.328 814.595,308.328" style="fill:none;stroke:black;stroke-width:1.11px;"/>
            <path d="M769.874,379.836C769.874,379.836 762.726,408.941 781.557,409.16C800.388,409.379 796.342,381.95 796.342,381.95" style="fill:none;stroke:black;stroke-width:1.11px;"/>
            <path d="M793.419,403.755C793.419,403.755 795.56,408.584 803.86,409.161C818.292,410.164 817.527,388.078 817.527,388.078" style="fill:none;stroke:black;stroke-width:1.11px;"/>
            <path d="M836.959,253.351C833.812,255.239 827.991,261.296 825.71,264.442" style="fill:none;stroke:black;stroke-width:1.11px;"/>
            <path d="M871.312,261.473L885.661,261.316" style="fill:none;stroke:black;stroke-width:1.11px;"/>
            <g transform="matrix(1,0,0,1,0,1)">
                <path d="M758.217,283.901L767.656,292.947" style="fill:none;stroke:black;stroke-width:1.11px;"/>
            </g>
            <path d="M737.81,326.425L752.992,326.189" style="fill:none;stroke:black;stroke-width:1.11px;"/>
            <path d="M887.344,379.836C887.344,379.836 898.99,402.688 884.171,407.44C884.171,407.44 864.899,412.214 867.935,384.911" style="fill:none;stroke:black;stroke-width:1.11px;"/>
            <g transform="matrix(0.952769,0.303696,-0.303696,0.952769,158.205,-238.302)">
                <path d="M837.37,390.519C840.059,396.28 847.712,413.144 857.53,409.166C859.897,408.207 862.641,405.627 864.092,403.955C873.693,392.898 866.72,383.512 859.813,374.714" style="fill:none;stroke:black;stroke-width:1.11px;"/>
            </g>
        </g>
        <g id="Face" transform="matrix(0.573358,0,0,0.573358,-395.329,-117.944)">
            <g transform="matrix(-1.28003,0.0363345,-0.0364382,-1.28368,1983.42,689.505)">
                <path d="M862.615,313.746C863.171,312.865 864.141,312.331 865.184,312.331C866.228,312.331 867.198,312.865 867.754,313.746C868.259,314.546 868.792,315.39 869.308,316.207C869.896,317.14 869.93,318.318 869.396,319.283C868.862,320.248 867.844,320.847 866.738,320.847C865.718,320.847 864.651,320.847 863.631,320.847C862.525,320.847 861.507,320.248 860.973,319.283C860.439,318.318 860.473,317.14 861.061,316.207C861.577,315.39 862.11,314.546 862.615,313.746Z"/>
            </g>
            <path d="M895.937,311.013L895.711,321.023" style="fill:none;stroke:black;stroke-width:1.11px;"/>
            <path d="M834.007,311.013L834.007,321.023" style="fill:none;stroke:black;stroke-width:1.11px;"/>
            <path d="M852.477,325.462C852.477,325.462 851.648,333.442 864.348,333.126C877.048,332.81 874.85,324.921 874.85,324.921" style="fill:none;stroke:black;stroke-width:1.11px;"/>
        </g>
        <g id="back1" transform="matrix(0.573358,0,0,0.573358,-395.329,-117.944)">
            <path d="M815.591,298.128C827.525,288.817 843.482,281.386 862.026,284.493C902.702,291.309 919.064,299.648 919.064,299.648C919.064,299.648 927.342,274.182 926.094,268.082C925.068,263.064 911.577,263.048 911.577,263.048C911.577,263.048 928.795,235.26 926.094,231.63C923.393,227.999 895.37,241.263 895.37,241.263C895.37,241.263 900.792,220.804 895.92,219.409C891.049,218.014 866.142,232.893 866.142,232.893C866.142,232.893 847.711,215.836 842.681,216.216C837.651,216.597 835.962,235.174 835.962,235.174C835.962,235.174 830.518,218.669 824.634,218.498C818.75,218.326 800.657,234.147 800.657,234.147C800.657,234.147 778.727,213.328 772.731,215.661C766.735,217.993 764.68,248.141 764.68,248.141C764.68,248.141 733.059,242.296 728.488,244.94C723.918,247.585 737.257,264.009 737.257,264.009C737.257,264.009 700.108,261.25 696.953,265.456C693.797,269.663 718.325,289.248 718.325,289.248C718.325,289.248 694.604,295.318 693.357,299.867C692.11,304.417 710.843,316.548 710.843,316.548C710.843,316.548 688.999,332.351 689.507,337.336C690.016,342.321 713.893,346.457 713.893,346.457C713.893,346.457 706.166,368.449 705.699,373.017C705.514,374.827 711.091,373.863 711.091,373.863C711.091,373.863 760.901,357.164 781.112,335.5C787.894,328.23 797.334,317.265 804.862,308.902" style="fill:none;stroke:black;stroke-width:1.11px;"/>
        </g>
        <g id="back2" transform="matrix(0.573358,0,0,0.573358,-395.329,-117.944)">
            <path d="M907.473,235.823C907.473,235.823 915.37,220.598 913.835,219.271C912.3,217.943 898.264,227.859 898.264,227.859" style="fill:none;stroke:black;stroke-width:1.11px;"/>
            <path d="M877.813,225.774C877.813,225.774 887.239,210.791 883.148,210.08C879.058,209.37 853.269,221.509 853.269,221.509" style="fill:none;stroke:black;stroke-width:1.11px;"/>
            <path d="M807.94,228.143C807.94,228.143 808.831,207.29 804.579,205.811C800.327,204.332 782.431,219.271 782.431,219.271" style="fill:none;stroke:black;stroke-width:1.11px;"/>
            <path d="M746.748,245.323C746.748,245.323 735.334,222.012 738.673,219.148C742.012,216.285 766.782,228.143 766.782,228.143" style="fill:none;stroke:black;stroke-width:1.11px;"/>
            <path d="M706.833,279.156C706.833,279.156 693.059,280.14 691.848,282.952C690.638,285.763 698.178,295.399 698.178,295.399" style="fill:none;stroke:black;stroke-width:1.11px;"/>
        </g>
    </g>
</svg>
